<svg width="16" height="16" viewBox="0 0 16 16" fill="none" xmlns="http://www.w3.org/2000/svg">
<rect width="16" height="16" transform="matrix(1 0 0 -1 0 16)" fill="white"/>
<path d="M3.76825 1.35984L8.76825 7.35984C9.07728 7.73069 9.07728 8.26936 8.76825 8.64021L3.76825 14.6402C3.41468 15.0645 2.78412 15.1218 2.35984 14.7682C1.93557 14.4147 1.87824 13.7841 2.2318 13.3598L6.69832 8.00002L2.2318 2.64021C1.87824 2.21593 1.93556 1.58537 2.35984 1.2318C2.78412 0.87824 3.41468 0.935563 3.76825 1.35984Z" fill="black"/>
<path d="M9.76825 1.35984L14.7682 7.35984C15.0773 7.73069 15.0773 8.26936 14.7682 8.64021L9.76825 14.6402C9.41468 15.0645 8.78412 15.1218 8.35984 14.7682C7.93557 14.4147 7.87824 13.7841 8.23181 13.3598L12.6983 8.00002L8.2318 2.64021C7.87824 2.21593 7.93556 1.58537 8.35984 1.2318C8.78412 0.87824 9.41468 0.935563 9.76825 1.35984Z" fill="black"/>
</svg>
