<svg width="16" height="16" viewBox="0 0 16 16" fill="none" xmlns="http://www.w3.org/2000/svg">
<rect width="16" height="16" transform="matrix(1 0 0 -1 0 16)" fill="white"/>
<path d="M12.2318 1.35984L7.23178 7.35984C6.92274 7.73069 6.92274 8.26936 7.23178 8.64021L12.2318 14.6402C12.5853 15.0645 13.2159 15.1218 13.6402 14.7682C14.0645 14.4147 14.1218 13.7841 13.7682 13.3598L9.30171 8.00002L13.7682 2.64021C14.1218 2.21593 14.0645 1.58537 13.6402 1.2318C13.2159 0.87824 12.5853 0.935563 12.2318 1.35984Z" fill="black"/>
<path d="M1.23178 7.35984C0.922741 7.73069 0.92274 8.26936 1.23178 8.64021L6.23178 14.6402C6.58534 15.0645 7.21591 15.1218 7.64018 14.7682C8.06446 14.4147 8.12178 13.7841 7.76822 13.3598L3.30171 8.00002L7.76822 2.64021C8.12178 2.21593 8.06446 1.58537 7.64018 1.2318C7.21591 0.87824 6.58534 0.935563 6.23178 1.35984L1.23178 7.35984Z" fill="black"/>
</svg>
