<svg width="16" height="16" viewBox="0 0 16 16" fill="none" xmlns="http://www.w3.org/2000/svg">
<rect width="16" height="16" transform="matrix(1 0 0 -1 0 16)" fill="white"/>
<path d="M14 9C14.5523 9 15 8.55228 15 8L15 2C15 1.44771 14.5523 1 14 1H8C7.44772 1 7 1.44772 7 2C7 2.55228 7.44772 3 8 3L11.5865 3L3 11.5904V8C3 7.44772 2.55228 7 2 7C1.44772 7 1 7.44772 1 8V14C1 14.5523 1.44772 15 2 15L8 15C8.55228 15 9 14.5523 9 14C9 13.4477 8.55228 13 8 13H4.41883L13 4.41488L13 8C13 8.55228 13.4477 9 14 9Z" fill="black"/>
</svg>
