<svg width="16" height="16" viewBox="0 0 16 16" fill="none" xmlns="http://www.w3.org/2000/svg">
<rect width="16" height="16" transform="matrix(1 0 0 -1 0 16)" fill="white"/>
<path d="M9.5 4C12.5376 4 15 6.46243 15 9.5C15 12.5376 12.5376 15 9.5 15H2C1.44771 15 1 14.5523 1 14C1 13.4477 1.44771 13 2 13H9.5C11.433 13 13 11.433 13 9.5C13 7.567 11.433 6 9.5 6H3.41421L4.70711 7.29289C5.09763 7.68342 5.09763 8.31658 4.70711 8.70711C4.31658 9.09763 3.68342 9.09763 3.29289 8.70711L0.292893 5.70711C-0.097631 5.31658 -0.0976311 4.68342 0.292893 4.29289L3.29289 1.29289C3.68342 0.902369 4.31658 0.902369 4.70711 1.29289C5.09763 1.68342 5.09763 2.31658 4.70711 2.70711L3.41421 4H9.5Z" fill="black"/>
</svg>
