<svg width="16" height="16" viewBox="0 0 16 16" fill="none" xmlns="http://www.w3.org/2000/svg">
<g clip-path="url(#clip0)">
<rect width="16" height="16" transform="matrix(1 0 0 -1 0 16)" fill="white"/>
<path fill-rule="evenodd" clip-rule="evenodd" d="M2.29289 2.29289C2.68342 1.90237 3.31658 1.90237 3.70711 2.29289L5.70711 4.29289C6.09763 4.68342 6.09763 5.31658 5.70711 5.70711C5.31658 6.09763 4.68342 6.09763 4.29289 5.70711L4 5.41421V11C4 11.5523 4.44772 12 5 12H8C8.55228 12 9 12.4477 9 13C9 13.5523 8.55228 14 8 14H5C3.34315 14 2 12.6569 2 11V5.41421L1.70711 5.70711C1.31658 6.09763 0.683417 6.09763 0.292893 5.70711C-0.0976311 5.31658 -0.0976311 4.68342 0.292893 4.29289L2.29289 2.29289ZM7 3C7 2.44772 7.44772 2 8 2L11 2C12.6569 2 14 3.34315 14 5L14 10.5858L14.2929 10.2929C14.6834 9.90237 15.3166 9.90237 15.7071 10.2929C16.0976 10.6834 16.0976 11.3166 15.7071 11.7071L13.7071 13.7071C13.3166 14.0976 12.6834 14.0976 12.2929 13.7071L10.2929 11.7071C9.90237 11.3166 9.90237 10.6834 10.2929 10.2929C10.6834 9.90237 11.3166 9.90237 11.7071 10.2929L12 10.5858L12 5C12 4.44772 11.5523 4 11 4L8 4C7.44772 4 7 3.55228 7 3Z" fill="black"/>
</g>
<defs>
<clipPath id="clip0">
<rect width="16" height="16" transform="matrix(1 0 0 -1 0 16)" fill="white"/>
</clipPath>
</defs>
</svg>
