<svg width="16" height="16" viewBox="0 0 16 16" fill="none" xmlns="http://www.w3.org/2000/svg">
<rect width="16" height="16" fill="white"/>
<path d="M14 5H13H14ZM12.197 7.40404C11.8678 7.84753 11.9605 8.47387 12.404 8.80301C12.8475 9.13215 13.4739 9.03945 13.803 8.59596L12.197 7.40404ZM13.803 1.40404C13.4739 0.960547 12.8475 0.867846 12.404 1.19699C11.9605 1.52613 11.8678 2.15247 12.197 2.59596L13.803 1.40404ZM2 5H3H2ZM2.19699 8.59596C2.52613 9.03945 3.15247 9.13215 3.59596 8.80301C4.03945 8.47387 4.13215 7.84753 3.80301 7.40404L2.19699 8.59596ZM3.80301 2.59596C4.13215 2.15247 4.03945 1.52613 3.59596 1.19699C3.15247 0.867846 2.52613 0.960547 2.19699 1.40404L3.80301 2.59596ZM7 14C7 14.5523 7.44772 15 8 15C8.55228 15 9 14.5523 9 14H7ZM13 5C13 5.8905 12.706 6.71814 12.197 7.40404L13.803 8.59596C14.5542 7.58381 15 6.34224 15 5H13ZM12.197 2.59596C12.706 3.28186 13 4.1095 13 5H15C15 3.65776 14.5542 2.41619 13.803 1.40404L12.197 2.59596ZM1 5C1 6.34224 1.44581 7.58381 2.19699 8.59596L3.80301 7.40404C3.29397 6.71814 3 5.8905 3 5H1ZM2.19699 1.40404C1.44581 2.41619 1 3.65776 1 5H3C3 4.1095 3.29397 3.28186 3.80301 2.59596L2.19699 1.40404ZM9 5C9 5.55228 8.55228 6 8 6V8C9.65685 8 11 6.65685 11 5H9ZM8 6C7.44771 6 7 5.55228 7 5H5C5 6.65685 6.34315 8 8 8V6ZM7 5C7 4.44772 7.44771 4 8 4V2C6.34315 2 5 3.34315 5 5H7ZM8 4C8.55228 4 9 4.44772 9 5H11C11 3.34315 9.65685 2 8 2V4ZM9 14V7H7V14H9Z" fill="black"/>
</svg>
