<svg width="16" height="16" viewBox="0 0 16 16" fill="none" xmlns="http://www.w3.org/2000/svg">
<g clip-path="url(#clip0)">
<rect width="16" height="16" fill="white"/>
<path d="M7.27561 4.36582L5.25021 2.34042C5.0622 2.15241 4.74992 2.15987 4.55272 2.35707L3.14239 3.7674C1.35707 5.55272 4.05259 8.96238 6.08917 10.999C8.11354 13.0233 11.5525 15.7482 13.3378 13.9628L14.7482 12.5525C14.9454 12.3553 14.9528 12.043 14.7648 11.855L12.7394 9.82962C12.5514 9.64161 12.2391 9.64906 12.0419 9.84627L10.8661 10.999C9.67433 10.3446 6.69497 7.36528 6.08917 6.17354C6.50575 5.75696 7.1305 5.19177 7.25896 5.06331C7.45616 4.8661 7.46361 4.55383 7.27561 4.36582Z" stroke="black" stroke-width="2" stroke-linecap="round" stroke-linejoin="round"/>
</g>
<defs>
<clipPath id="clip0">
<rect width="16" height="16" fill="white"/>
</clipPath>
</defs>
</svg>
