<svg width="16" height="16" viewBox="0 0 16 16" fill="none" xmlns="http://www.w3.org/2000/svg">
<rect width="16" height="16" fill="white"/>
<path d="M10 12C10.5523 12 11 11.5523 11 11C11 10.4477 10.5523 10 10 10V12ZM7 10C6.44771 10 6 10.4477 6 11C6 11.5523 6.44771 12 7 12V10ZM12 2V3V2ZM5 2L5 3L5 2ZM4 13H5H4ZM4 3L3 3V3H4ZM12 14V15V14ZM5 14L5 13L5 14ZM13 13L12 13L13 13ZM13 3L14 3V3L13 3ZM12 1L5 1L5 3L12 3V1ZM5 13V3H3L3 13H5ZM12 13L5 13L5 15L12 15V13ZM14 13L14 3L12 3L12 13L14 13ZM12 15C13.1046 15 14 14.1046 14 13L12 13L12 13V15ZM12 3L12 3L14 3C14 1.89543 13.1046 1 12 1V3ZM5 1C3.89543 1 3 1.89543 3 3L5 3L5 1ZM3 13C3 14.1046 3.89543 15 5 15L5 13H5H3ZM7 12H10V10H7V12Z" fill="black"/>
</svg>
