<svg width="16" height="16" viewBox="0 0 16 16" fill="none" xmlns="http://www.w3.org/2000/svg">
<rect width="16" height="16" fill="white"/>
<path d="M12.7071 4.2929C12.3166 3.90237 11.6834 3.90237 11.2929 4.2929C10.9024 4.68342 10.9024 5.31659 11.2929 5.70711L12.7071 4.2929ZM14.2929 7.2929L13.5858 8L14.2929 7.2929ZM11.2929 10.2929C10.9024 10.6834 10.9024 11.3166 11.2929 11.7071C11.6834 12.0976 12.3166 12.0976 12.7071 11.7071L11.2929 10.2929ZM14.2929 8.70711L13.5858 8L14.2929 8.70711ZM4.70711 5.70711C5.09763 5.31658 5.09763 4.68342 4.70711 4.29289C4.31658 3.90237 3.68342 3.90237 3.29289 4.29289L4.70711 5.70711ZM1.70711 7.29289L2.41422 8L1.70711 7.29289ZM3.29289 11.7071C3.68342 12.0976 4.31658 12.0976 4.70711 11.7071C5.09763 11.3166 5.09763 10.6834 4.70711 10.2929L3.29289 11.7071ZM1.70711 8.70711L2.41422 8L1.70711 8.70711ZM9.98641 2.1644C10.0772 1.61963 9.70919 1.1044 9.16442 1.01361C8.61965 0.922811 8.10442 1.29083 8.01362 1.8356L9.98641 2.1644ZM6.01362 13.8356C5.92283 14.3804 6.29085 14.8956 6.83562 14.9864C7.38039 15.0772 7.89562 14.7092 7.98641 14.1644L6.01362 13.8356ZM11.2929 5.70711L13.5858 8L15 6.58579L12.7071 4.2929L11.2929 5.70711ZM12.7071 11.7071L15 9.41422L13.5858 8L11.2929 10.2929L12.7071 11.7071ZM13.5858 8V8L15 9.41422C15.781 8.63317 15.781 7.36684 15 6.58579L13.5858 8ZM3.29289 4.29289L1 6.58579L2.41422 8L4.70711 5.70711L3.29289 4.29289ZM4.70711 10.2929L2.41422 8L1 9.41421L3.29289 11.7071L4.70711 10.2929ZM1 6.58579C0.218953 7.36683 0.218953 8.63317 1 9.41421L2.41422 8V8L1 6.58579ZM8.01362 1.8356L6.01362 13.8356L7.98641 14.1644L9.98641 2.1644L8.01362 1.8356Z" fill="black"/>
</svg>
