<svg width="16" height="16" viewBox="0 0 16 16" fill="none" xmlns="http://www.w3.org/2000/svg">
<g clip-path="url(#clip0)">
<rect width="16" height="16" fill="white"/>
<path d="M14 5L13 5V5H14ZM2 5.00001L1 5.00001V5.00001H2ZM13 4V3H13L13 4ZM3 4.00001L3 5.00001L3 4.00001ZM14.25 7V6V7ZM11 7V8V7ZM10 13H9V13L10 13ZM10 8H9H10ZM14.25 14V13V14ZM15.25 13L14.25 13L15.25 13ZM15.25 8L16.25 8V8H15.25ZM11 13H1V15H11V13ZM13 5V7H15V5H13ZM1 5.00001L1 14H3L3 5.00001H1ZM13 3L3 3.00001L3 5.00001L13 5L13 3ZM15 5C15 3.89543 14.1046 3 13 3V5L13 5L15 5ZM3 5.00001L3 5.00001L3 3.00001C1.89543 3.00001 1 3.89544 1 5.00001L3 5.00001ZM14.25 6L11 6V8L14.25 8V6ZM11 13V8H9V13H11ZM14.25 13H11V15H14.25V13ZM16.25 13L16.25 8L14.25 8L14.25 13L16.25 13ZM14.25 15C15.3546 15 16.25 14.1046 16.25 13L14.25 13L14.25 13V15ZM14.25 8L14.25 8H16.25C16.25 6.89543 15.3546 6 14.25 6V8ZM11 6C9.89543 6 9 6.89543 9 8H11V8V6ZM9 13C9 14.1046 9.89543 15 11 15V13L11 13L9 13Z" fill="black"/>
</g>
<defs>
<clipPath id="clip0">
<rect width="16" height="16" fill="white"/>
</clipPath>
</defs>
</svg>
