<svg width="16" height="16" viewBox="0 0 16 16" fill="none" xmlns="http://www.w3.org/2000/svg">
<rect width="16" height="16" fill="white"/>
<path d="M13 14V13V14ZM3 14V15V14ZM14 8H13H14ZM14 13H15H14ZM2 8H1H2ZM2 13H3H2ZM13 7V6V7ZM3 7L3 6H3L3 7ZM13 13H3V15H13V13ZM13 8V13H15V8H13ZM1 8L1 13H3L3 8H1ZM13 6H12V8H13V6ZM6 6L3 6L3 8L6 8L6 6ZM15 8C15 6.89543 14.1046 6 13 6V8H13H15ZM3 8L3 8L3 6C1.89543 6.00001 1 6.89544 1 8H3ZM3 13V13H1C1 14.1046 1.89543 15 3 15V13ZM13 15C14.1046 15 15 14.1046 15 13H13H13V15ZM11 7C11 8.10457 10.1046 9 9 9V11C11.2091 11 13 9.20914 13 7H11ZM9 9C7.89543 9 7 8.10457 7 7H5C5 9.20914 6.79086 11 9 11V9ZM7 7C7 5.89543 7.89543 5 9 5V3C6.79086 3 5 4.79086 5 7H7ZM9 5C10.1046 5 11 5.89543 11 7H13C13 4.79086 11.2091 3 9 3V5Z" fill="black"/>
</svg>
