<svg width="16" height="16" viewBox="0 0 16 16" fill="none" xmlns="http://www.w3.org/2000/svg">
<rect width="16" height="16" fill="white"/>
<path d="M13 14V13V14ZM3 14V15H3L3 14ZM14 3L15 3L14 3ZM14 13H13H14ZM2 3.00001L1 3.00001V3.00001H2ZM2 13H3H2ZM13 2V1H13L13 2ZM3 2.00001L3 3.00001H3L3 2.00001ZM14 9C14.5523 9 15 8.55228 15 8C15 7.44772 14.5523 7 14 7V9ZM2 7C1.44772 7 1 7.44772 1 8C1 8.55228 1.44772 9 2 9V7ZM10 5.5C10 6.05228 10.4477 6.5 11 6.5C11.5523 6.5 12 6.05228 12 5.5H10ZM12 4.5C12 3.94772 11.5523 3.5 11 3.5C10.4477 3.5 10 3.94772 10 4.5H12ZM10 11.5C10 12.0523 10.4477 12.5 11 12.5C11.5523 12.5 12 12.0523 12 11.5H10ZM12 10.5C12 9.94772 11.5523 9.5 11 9.5C10.4477 9.5 10 9.94772 10 10.5H12ZM13 13L3 13L3 15L13 15V13ZM13 3L13 13H15L15 3L13 3ZM1 3.00001L1 13H3L3 3.00001H1ZM13 1L3 1.00001L3 3.00001L13 3L13 1ZM15 3C15 1.89543 14.1046 1 13 1V3L13 3L15 3ZM3 3.00001L3 3.00001L3 1.00001C1.89543 1.00002 1 1.89545 1 3.00001L3 3.00001ZM3 13L3 13H1C1 14.1046 1.89543 15 3 15V13ZM13 15C14.1046 15 15 14.1046 15 13H13V15ZM2 9H14V7H2V9ZM12 5.5V4.5H10V5.5H12ZM12 11.5V10.5H10V11.5H12Z" fill="black"/>
</svg>
