<svg width="16" height="16" viewBox="0 0 16 16" fill="none" xmlns="http://www.w3.org/2000/svg">
<rect width="16" height="16" fill="white"/>
<path d="M14 8C14 9.18669 13.6481 10.3467 12.9888 11.3334C12.3295 12.3201 11.3925 13.0892 10.2961 13.5433C9.19975 13.9974 7.99335 14.1162 6.82946 13.8847C5.66557 13.6532 4.59648 13.0818 3.75736 12.2426C2.91825 11.4035 2.3468 10.3344 2.11529 9.17054C1.88378 8.00666 2.0026 6.80026 2.45673 5.7039C2.91085 4.60754 3.67989 3.67047 4.66658 3.01118C5.65328 2.35189 6.81331 2 8 2M14 8H8V2M14 8C14 7.60886 13.9618 7.2168 13.8847 6.82946C13.6532 5.66557 13.0818 4.59648 12.2426 3.75736C11.4035 2.91825 10.3344 2.3468 9.17055 2.11529C8.7832 2.03824 8.39114 2 8 2" stroke="black" stroke-width="2"/>
</svg>
