<svg width="16" height="16" viewBox="0 0 16 16" fill="none" xmlns="http://www.w3.org/2000/svg">
<rect width="16" height="16" fill="white"/>
<path d="M7 7C6.44772 7 6 7.44772 6 8C6 8.55228 6.44772 9 7 9H9C9.55228 9 10 8.55229 10 8C10 7.44772 9.55229 7 9 7L7 7Z" fill="black"/>
<path fill-rule="evenodd" clip-rule="evenodd" d="M15 4C15 4.74708 14.5904 5.39848 13.9835 5.74188C13.9944 5.82639 14 5.91254 14 6.00002L14 13C14 14.1046 13.1046 15 12 15L4 15C2.89543 15 2 14.1046 2 13L2 6C2 5.91253 2.00561 5.82638 2.0165 5.74188C1.40961 5.39848 1 4.74707 1 4V3C1 1.89543 1.89543 1 3 1L13 1.00001C14.1046 1.00001 15 1.89544 15 3V4ZM13 4V3.00001L3 3L3 4L13 4ZM4 13L4 6L12 6.00002L12 13L4 13Z" fill="black"/>
</svg>
