<svg width="16" height="16" viewBox="0 0 16 16" fill="none" xmlns="http://www.w3.org/2000/svg">
<rect width="16" height="16" fill="white"/>
<path fill-rule="evenodd" clip-rule="evenodd" d="M14.9999 4.97613C14.9871 3.88256 14.0966 3 13 3L3 3.00001C1.9034 3.00001 1.01293 3.88257 1.00014 4.97614C0.999845 4.98902 0.999799 5.0019 1 5.01476L1 12C1 13.1046 1.89543 14 3 14L13 14C14.1046 14 15 13.1046 15 12L15 5.01477C15.0002 5.0019 15.0002 4.98902 14.9999 4.97613ZM12.1972 5L8 7.79814L3.8028 5.00001L12.1972 5ZM13 6.86851L8.57333 9.81963C8.52635 9.85247 8.4769 9.88098 8.42562 9.90504C8.28954 9.96924 8.14416 10.0002 8 10.0001C7.85584 10.0002 7.71046 9.96924 7.57438 9.90504C7.5231 9.88098 7.47365 9.85247 7.42667 9.81963L3 6.86851L3 12L13 12L13 6.86851Z" fill="black"/>
</svg>
