<svg width="16" height="16" viewBox="0 0 16 16" fill="none" xmlns="http://www.w3.org/2000/svg">
<rect width="16" height="16" fill="white"/>
<path fill-rule="evenodd" clip-rule="evenodd" d="M15 6.29137L15 6.29475L15 12C15 13.1046 14.1046 14 13 14L3.00001 14C1.89544 14 1.00001 13.1046 1.00001 12L1.00001 6.29473L1.00005 6.29057C0.997205 6.00975 1.11202 5.72936 1.33938 5.52928L6.01813 1.41198C7.15125 0.414836 8.84878 0.414838 9.9819 1.41198L14.6606 5.52928C14.8882 5.72955 15.003 6.01028 15 6.29137ZM12.3426 6.15349L8.00001 8.93272L3.65747 6.15349L7.33939 2.91341C7.71709 2.58103 8.28293 2.58103 8.66064 2.91341L12.3426 6.15349ZM8.55811 10.9501L13 8.10725L13 12H3.00001L3.00001 8.10725L7.44191 10.9501C7.48687 10.9803 7.53399 11.0066 7.58274 11.0289C7.71659 11.0906 7.85895 11.1202 8.00001 11.1201C8.19753 11.1199 8.39252 11.0613 8.55811 10.9501Z" fill="black"/>
</svg>
