<svg width="32" height="32" viewBox="0 0 32 32" fill="none" xmlns="http://www.w3.org/2000/svg">
<rect width="32" height="32" fill="white"/>
<path d="M7.08017 21L7.06881 22H7.08017V21ZM7.18295 10.6293L7.17446 11.6293L8.0418 11.6367L8.17168 10.7791L7.18295 10.6293ZM24.817 10.6293L23.8283 10.7791L23.9582 11.6367L24.8255 11.6293L24.817 10.6293ZM24.9198 21L24.9198 22.0001L24.9312 21.9999L24.9198 21ZM7 24C6.44771 24 6 24.4477 6 25C6 25.5523 6.44771 26 7 26V24ZM26 26C26.5523 26 27 25.5523 27 25C27 24.4477 26.5523 24 26 24V26ZM11 28C10.4477 28 10 28.4477 10 29C10 29.5523 10.4477 30 11 30V28ZM22 30C22.5523 30 23 29.5523 23 29C23 28.4477 22.5523 28 22 28V30ZM7.09153 20.0001C4.83598 19.9744 3 18.1184 3 15.8146H1C1 19.1986 3.70214 21.9617 7.06881 21.9999L7.09153 20.0001ZM3 15.8146C3 13.4946 4.86162 11.6291 7.13924 11.6291V9.62914C3.74022 9.62914 1 12.4069 1 15.8146H3ZM7.13924 11.6291C7.15116 11.6291 7.16289 11.6292 7.17446 11.6293L7.19145 9.62936C7.1739 9.62921 7.1565 9.62914 7.13924 9.62914V11.6291ZM8.17168 10.7791C8.754 6.93391 12.0441 4 16 4V2C11.0271 2 6.92038 5.68469 6.19423 10.4796L8.17168 10.7791ZM16 4C19.9559 4 23.246 6.93391 23.8283 10.7791L25.8058 10.4796C25.0796 5.68469 20.9729 2 16 2V4ZM24.8255 11.6293C24.8371 11.6292 24.8488 11.6291 24.8608 11.6291V9.62914C24.8435 9.62914 24.8261 9.62921 24.8085 9.62936L24.8255 11.6293ZM24.8608 11.6291C27.1384 11.6291 29 13.4946 29 15.8146H31C31 12.4069 28.2598 9.62914 24.8608 9.62914V11.6291ZM29 15.8146C29 18.1184 27.164 19.9744 24.9085 20.0001L24.9312 21.9999C28.2979 21.9617 31 19.1986 31 15.8146H29ZM24.9198 20H7.08017V22H24.9198V20ZM7 26H26V24H7V26ZM11 30H22V28H11V30Z" fill="black"/>
</svg>
