<svg width="32" height="32" viewBox="0 0 32 32" fill="none" xmlns="http://www.w3.org/2000/svg">
<rect width="32" height="32" fill="white"/>
<path d="M6.08017 24L6.06881 25H6.08017V24ZM7 15V16H8V15H7ZM25 15H24V16H25V15ZM25.9198 24L25.9198 25.0001L25.9312 24.9999L25.9198 24ZM6.10557 29.5528C5.85858 30.0468 6.05881 30.6474 6.55279 30.8944C7.04676 31.1414 7.64744 30.9412 7.89443 30.4472L6.10557 29.5528ZM8.89443 28.4472C9.14142 27.9532 8.94119 27.3526 8.44721 27.1056C7.95324 26.8586 7.35256 27.0588 7.10557 27.5528L8.89443 28.4472ZM12.6056 29.5528C12.3586 30.0468 12.5588 30.6474 13.0528 30.8944C13.5468 31.1414 14.1474 30.9412 14.3944 30.4472L12.6056 29.5528ZM15.3944 28.4472C15.6414 27.9532 15.4412 27.3526 14.9472 27.1056C14.4532 26.8586 13.8526 27.0588 13.6056 27.5528L15.3944 28.4472ZM19.6056 29.5528C19.3586 30.0468 19.5588 30.6474 20.0528 30.8944C20.5468 31.1414 21.1474 30.9412 21.3944 30.4472L19.6056 29.5528ZM22.3944 28.4472C22.6414 27.9532 22.4412 27.3526 21.9472 27.1056C21.4532 26.8586 20.8526 27.0588 20.6056 27.5528L22.3944 28.4472ZM22 4C22 4.55228 22.4477 5 23 5C23.5523 5 24 4.55228 24 4H22ZM24 2C24 1.44772 23.5523 1 23 1C22.4477 1 22 1.44772 22 2H24ZM28 10C27.4477 10 27 10.4477 27 11C27 11.5523 27.4477 12 28 12V10ZM30 12C30.5523 12 31 11.5523 31 11C31 10.4477 30.5523 10 30 10V12ZM26.2929 5.29277C25.9024 5.6833 25.9024 6.31646 26.2929 6.70698C26.6834 7.09751 27.3166 7.09751 27.7071 6.70698L26.2929 5.29277ZM28.7071 5.70698C29.0976 5.31646 29.0976 4.6833 28.7071 4.29277C28.3166 3.90225 27.6834 3.90225 27.2929 4.29277L28.7071 5.70698ZM17.2929 5.70711C17.6834 6.09763 18.3166 6.09763 18.7071 5.70711C19.0976 5.31658 19.0976 4.68342 18.7071 4.29289L17.2929 5.70711ZM17.7071 3.29289C17.3166 2.90237 16.6834 2.90237 16.2929 3.29289C15.9024 3.68342 15.9024 4.31658 16.2929 4.70711L17.7071 3.29289ZM21.6967 5C24.6369 5 27 7.35216 27 10.2287H29C29 6.22522 25.719 3 21.6967 3V5ZM27 10.2287C27 11.8317 26.2693 13.2683 25.1101 14.2306L26.3876 15.7694C27.9811 14.4466 29 12.4564 29 10.2287H27ZM16.9013 7.99254C17.7505 6.22591 19.5762 5 21.6967 5V3C18.7883 3 16.2727 4.68389 15.0987 7.126L16.9013 7.99254ZM6.09153 23.0001C4.98897 22.9875 4.24431 22.5417 3.75782 21.951C3.24982 21.3342 3 20.5262 3 19.8146H1C1 20.9469 1.38471 22.2156 2.21401 23.2225C3.06483 24.2556 4.36026 24.9805 6.06881 24.9999L6.09153 23.0001ZM3 19.8146C3 17.5559 4.65955 16 7 16V14C3.6638 14 1 16.3456 1 19.8146H3ZM8 15C8 13.1028 8.9554 11.3642 10.4733 10.0746C11.995 8.78174 14.0184 8 16 8V6C13.5171 6 11.0406 6.96826 9.17836 8.55042C7.31239 10.1358 6 12.3972 6 15H8ZM16 8C17.9816 8 20.005 8.78174 21.5267 10.0746C23.0446 11.3642 24 13.1028 24 15H26C26 12.3972 24.6876 10.1358 22.8216 8.55042C20.9594 6.96826 18.4829 6 16 6V8ZM25 16C26.2803 16 27.2682 16.4127 27.9301 17.0524C28.5892 17.6895 29 18.6233 29 19.8146H31C31 18.142 30.4108 16.6685 29.3199 15.6143C28.2318 14.5626 26.7197 14 25 14V16ZM29 19.8146C29 20.5262 28.7502 21.3342 28.2422 21.951C27.7557 22.5417 27.011 22.9875 25.9085 23.0001L25.9312 24.9999C27.6397 24.9805 28.9352 24.2556 29.786 23.2225C30.6153 22.2156 31 20.9469 31 19.8146H29ZM25.9198 23H6.08017V25H25.9198V23ZM7.89443 30.4472L8.89443 28.4472L7.10557 27.5528L6.10557 29.5528L7.89443 30.4472ZM14.3944 30.4472L15.3944 28.4472L13.6056 27.5528L12.6056 29.5528L14.3944 30.4472ZM21.3944 30.4472L22.3944 28.4472L20.6056 27.5528L19.6056 29.5528L21.3944 30.4472ZM24 4V2H22V4H24ZM28 12H30V10H28V12ZM27.7071 6.70698L28.7071 5.70698L27.2929 4.29277L26.2929 5.29277L27.7071 6.70698ZM18.7071 4.29289L17.7071 3.29289L16.2929 4.70711L17.2929 5.70711L18.7071 4.29289Z" fill="black"/>
</svg>
