<svg width="32" height="32" viewBox="0 0 32 32" fill="none" xmlns="http://www.w3.org/2000/svg">
<rect width="32" height="32" fill="white"/>
<path d="M7.08017 21L7.06881 22H7.08017V21ZM7.18295 10.6293L7.17446 11.6293L8.0418 11.6367L8.17168 10.7791L7.18295 10.6293ZM24.817 10.6293L23.8283 10.7791L23.9582 11.6367L24.8255 11.6293L24.817 10.6293ZM24.9198 21L24.9198 22.0001L24.9312 21.9999L24.9198 21ZM5.10557 28.5528C4.85858 29.0468 5.05881 29.6474 5.55279 29.8944C6.04676 30.1414 6.64744 29.9412 6.89443 29.4472L5.10557 28.5528ZM8.89443 25.4472C9.14142 24.9532 8.94119 24.3526 8.44721 24.1056C7.95324 23.8586 7.35256 24.0588 7.10557 24.5528L8.89443 25.4472ZM12.1056 28.5528C11.8586 29.0468 12.0588 29.6474 12.5528 29.8944C13.0468 30.1414 13.6474 29.9412 13.8944 29.4472L12.1056 28.5528ZM15.8944 25.4472C16.1414 24.9532 15.9412 24.3526 15.4472 24.1056C14.9532 23.8586 14.3526 24.0588 14.1056 24.5528L15.8944 25.4472ZM19.1056 28.5528C18.8586 29.0468 19.0588 29.6474 19.5528 29.8944C20.0468 30.1414 20.6474 29.9412 20.8944 29.4472L19.1056 28.5528ZM22.8944 25.4472C23.1414 24.9532 22.9412 24.3526 22.4472 24.1056C21.9532 23.8586 21.3526 24.0588 21.1056 24.5528L22.8944 25.4472ZM7.09153 20.0001C4.83598 19.9744 3 18.1184 3 15.8146H1C1 19.1986 3.70214 21.9617 7.06881 21.9999L7.09153 20.0001ZM3 15.8146C3 13.4946 4.86162 11.6291 7.13924 11.6291V9.62914C3.74022 9.62914 1 12.4069 1 15.8146H3ZM7.13924 11.6291C7.15116 11.6291 7.16289 11.6292 7.17446 11.6293L7.19145 9.62936C7.1739 9.62921 7.1565 9.62914 7.13924 9.62914V11.6291ZM8.17168 10.7791C8.754 6.93391 12.0441 4 16 4V2C11.0271 2 6.92038 5.68469 6.19423 10.4796L8.17168 10.7791ZM16 4C19.9559 4 23.246 6.93391 23.8283 10.7791L25.8058 10.4796C25.0796 5.68469 20.9729 2 16 2V4ZM24.8255 11.6293C24.8371 11.6292 24.8488 11.6291 24.8608 11.6291V9.62914C24.8435 9.62914 24.8261 9.62921 24.8085 9.62936L24.8255 11.6293ZM24.8608 11.6291C27.1384 11.6291 29 13.4946 29 15.8146H31C31 12.4069 28.2598 9.62914 24.8608 9.62914V11.6291ZM29 15.8146C29 18.1184 27.164 19.9744 24.9085 20.0001L24.9312 21.9999C28.2979 21.9617 31 19.1986 31 15.8146H29ZM24.9198 20H7.08017V22H24.9198V20ZM6.89443 29.4472L8.89443 25.4472L7.10557 24.5528L5.10557 28.5528L6.89443 29.4472ZM13.8944 29.4472L15.8944 25.4472L14.1056 24.5528L12.1056 28.5528L13.8944 29.4472ZM20.8944 29.4472L22.8944 25.4472L21.1056 24.5528L19.1056 28.5528L20.8944 29.4472Z" fill="black"/>
</svg>
