<svg width="32" height="32" viewBox="0 0 32 32" fill="none" xmlns="http://www.w3.org/2000/svg">
<rect width="32" height="32" fill="white"/>
<path d="M17 16C17 15.4477 16.5523 15 16 15C15.4477 15 15 15.4477 15 16H17ZM29 30C29.5523 30 30 29.5523 30 29C30 28.4477 29.5523 28 29 28V30ZM3 28C2.44772 28 2 28.4477 2 29C2 29.5523 2.44772 30 3 30V28ZM7.51472 19.1005C7.1242 18.71 6.49103 18.71 6.10051 19.1005C5.70999 19.491 5.70999 20.1242 6.10051 20.5147L7.51472 19.1005ZM8.22183 22.636C8.61235 23.0266 9.24552 23.0266 9.63604 22.636C10.0266 22.2455 10.0266 21.6124 9.63604 21.2218L8.22183 22.636ZM25.8995 20.5147C26.29 20.1242 26.29 19.491 25.8995 19.1005C25.509 18.71 24.8758 18.71 24.4853 19.1005L25.8995 20.5147ZM22.364 21.2218C21.9734 21.6124 21.9734 22.2455 22.364 22.636C22.7545 23.0266 23.3876 23.0266 23.7782 22.636L22.364 21.2218ZM17 2C17 1.44772 16.5523 1 16 1C15.4477 1 15 1.44772 15 2H17ZM16 10.5L15.2929 11.2071C15.6834 11.5976 16.3166 11.5976 16.7071 11.2071L16 10.5ZM12.7071 5.79289C12.3166 5.40237 11.6834 5.40237 11.2929 5.79289C10.9024 6.18342 10.9024 6.81658 11.2929 7.20711L12.7071 5.79289ZM20.7071 7.20711C21.0976 6.81658 21.0976 6.18342 20.7071 5.79289C20.3166 5.40237 19.6834 5.40237 19.2929 5.79289L20.7071 7.20711ZM7 29C7 24.0294 11.0294 20 16 20V18C9.92487 18 5 22.9249 5 29H7ZM16 20C20.9706 20 25 24.0294 25 29H27C27 22.9249 22.0751 18 16 18V20ZM15 16V19H17V16H15ZM29 28H6V30H29V28ZM6 28H3V30H6V28ZM6.10051 20.5147L8.22183 22.636L9.63604 21.2218L7.51472 19.1005L6.10051 20.5147ZM24.4853 19.1005L22.364 21.2218L23.7782 22.636L25.8995 20.5147L24.4853 19.1005ZM15 2V10.5H17V2H15ZM16.7071 9.79289L12.7071 5.79289L11.2929 7.20711L15.2929 11.2071L16.7071 9.79289ZM16.7071 11.2071L20.7071 7.20711L19.2929 5.79289L15.2929 9.79289L16.7071 11.2071Z" fill="black"/>
</svg>
