<svg width="32" height="32" viewBox="0 0 32 32" fill="none" xmlns="http://www.w3.org/2000/svg">
<rect width="32" height="32" fill="white"/>
<path d="M12 6L11 6L11 6L12 6ZM21.3544 21.2897L22.2462 20.8373L22.2462 20.8373L21.3544 21.2897ZM10.6456 21.2897L9.75376 20.8373L9.75376 20.8373L10.6456 21.2897ZM12 17.2927L13 17.2927L13 17.2927L12 17.2927ZM12 7C11.4477 7 11 7.44772 11 8C11 8.55228 11.4477 9 12 9V7ZM15 9C15.5523 9 16 8.55228 16 8C16 7.44772 15.5523 7 15 7V9ZM12 12C11.4477 12 11 12.4477 11 13C11 13.5523 11.4477 14 12 14V12ZM15 14C15.5523 14 16 13.5523 16 13C16 12.4477 15.5523 12 15 12V14ZM12 17C11.4477 17 11 17.4477 11 18C11 18.5523 11.4477 19 12 19V17ZM15 19C15.5523 19 16 18.5523 16 18C16 17.4477 15.5523 17 15 17V19ZM19 24C19 23.4477 18.5523 23 18 23C17.4477 23 17 23.4477 17 24H19ZM16 25C15.4477 25 15 25.4477 15 26C15 26.5523 15.4477 27 16 27V25ZM16 3C17.6569 3 19 4.34315 19 6H21C21 3.23858 18.7614 1 16 1V3ZM16 1C13.2386 1 11 3.23858 11 6H13C13 4.34315 14.3431 3 16 3V1ZM21 24C21 26.7614 18.7614 29 16 29V31C19.866 31 23 27.866 23 24H21ZM16 29C13.2386 29 11 26.7614 11 24H9C9 27.866 12.134 31 16 31V29ZM20.4625 21.742C20.806 22.4191 21 23.1855 21 24H23C23 22.8639 22.7286 21.7884 22.2462 20.8373L20.4625 21.742ZM11 24C11 23.1855 11.194 22.4191 11.5375 21.742L9.75376 20.8373C9.27139 21.7884 9 22.8639 9 24H11ZM13 17.2927L13 6L11 6L11 17.2927L13 17.2927ZM19 6V17.2927H21V6H19ZM11.5375 21.742C12.1432 20.5477 13 19.0055 13 17.2927H11C11 18.4244 10.4347 19.4948 9.75376 20.8373L11.5375 21.742ZM22.2462 20.8373C21.5653 19.4948 21 18.4244 21 17.2927H19C19 19.0055 19.8568 20.5477 20.4625 21.742L22.2462 20.8373ZM12 9H15V7H12V9ZM12 14H15V12H12V14ZM12 19H15V17H12V19ZM17 24C17 24.5523 16.5523 25 16 25V27C17.6569 27 19 25.6569 19 24H17Z" fill="black"/>
</svg>
