<svg width="16" height="16" viewBox="0 0 16 16" fill="none" xmlns="http://www.w3.org/2000/svg">
<rect width="16" height="16" fill="white"/>
<path d="M9.25577 2C9.25577 1.6611 9.08413 1.34527 8.79976 1.16091C8.5154 0.976553 8.15701 0.948762 7.84763 1.08708C6.89141 1.51457 6.08152 2.27274 5.41018 3.14114C4.73372 4.01619 4.15652 5.05678 3.68132 6.12878C2.73509 8.26335 2.14101 10.6425 2.00331 12.3435C1.95875 12.894 2.36888 13.3764 2.91937 13.4209C3.46985 13.4655 3.95223 13.0554 3.99679 12.5049C4.11434 11.0528 4.64397 8.89231 5.50972 6.93928C5.94051 5.96748 6.44137 5.07728 6.99249 4.36438C7.10819 4.21471 7.22436 4.07511 7.34074 3.94566C7.38449 4.27158 7.45074 4.59784 7.55102 4.92085L7.70479 5.41611L8.19817 5.57576C8.58793 5.70189 8.92981 5.77536 9.20729 5.835L9.22544 5.8389C9.51716 5.90161 9.71703 5.9463 9.91213 6.01644C10.2468 6.13674 10.6613 6.36598 11.3246 7.11984L11.3396 7.13738L11.3955 7.20259C11.4435 7.25848 11.5121 7.33802 11.595 7.43335C11.7563 7.61881 11.9735 7.866 12.1997 8.11591C12.205 8.1264 12.2192 8.15568 12.2364 8.21054C12.2668 8.30751 12.291 8.43594 12.2997 8.57552C12.3084 8.71597 12.2995 8.83795 12.2825 8.92362C12.2783 8.94462 12.2743 8.96032 12.271 8.97141C12.0751 9.18514 11.798 9.30769 11.5066 9.30769H10.2563C10.2474 9.30757 10.2385 9.30757 10.2296 9.30769H10.1539L10.1006 9.31343C10.0789 9.31577 10.0572 9.31857 10.0355 9.32184C9.57425 9.36189 9.24881 9.38675 8.95687 9.32878C8.71669 9.28109 8.51626 9.18039 8.33007 8.87009C8.04593 8.39651 7.43167 8.24294 6.95809 8.52709C6.48451 8.81124 6.33094 9.4255 6.61509 9.89908C7.06937 10.6562 7.68888 11.0576 8.34243 11.2374C8.29235 11.5926 8.30768 11.9874 8.40922 12.4136C8.5617 13.0536 8.68027 13.5035 8.76809 13.8093C8.84297 14.0701 8.91876 14.313 8.99393 14.4587C9.24726 14.9494 9.85046 15.1419 10.3412 14.8886C10.8176 14.6427 11.0129 14.0671 10.7922 13.5847C10.7894 13.5768 10.7843 13.5627 10.777 13.541C10.7577 13.4833 10.729 13.3916 10.6904 13.2573C10.6135 12.9894 10.5026 12.5706 10.3548 11.9501C10.2596 11.5508 10.3505 11.3778 10.3821 11.3286C10.3872 11.3208 10.3922 11.3138 10.397 11.3077H11.5066C12.4074 11.3077 13.2617 10.9078 13.8387 10.2161C14.08 9.92684 14.1902 9.58417 14.2439 9.31428C14.3007 9.02916 14.3131 8.73079 14.2958 8.45186C14.2785 8.17205 14.2295 7.88207 14.1448 7.61212C14.0645 7.35593 13.9301 7.04706 13.6989 6.79194C13.4789 6.54919 13.2643 6.30512 13.1042 6.12091C13.0243 6.02904 12.9583 5.95257 12.9125 5.89925L12.8598 5.83771L12.842 5.81687L12.8369 5.81097L12.8318 5.80511C12.0071 4.86634 11.3236 4.39854 10.5887 4.13435C10.2557 4.01464 9.93411 3.94553 9.66307 3.88729L9.64581 3.88358C9.5418 3.86122 9.44169 3.83965 9.34243 3.81673C9.2602 3.31264 9.25577 2.74184 9.25577 2Z" fill="black"/>
</svg>
