<svg width="16" height="16" viewBox="0 0 16 16" fill="none" xmlns="http://www.w3.org/2000/svg">
<rect width="16" height="16" fill="white"/>
<path d="M6.5 4C5.67157 4 5 4.67157 5 5.5C5 6.32843 5.67157 7 6.5 7C7.32843 7 8 6.32843 8 5.5C8 4.67157 7.32843 4 6.5 4Z" fill="black"/>
<path fill-rule="evenodd" clip-rule="evenodd" d="M6.69565 1C4.96607 1 3.53268 1.50713 2.52076 2.43425C1.50488 3.36499 1 4.64198 1 6C1 7.35802 1.50488 8.63501 2.52076 9.56575C2.67132 9.70369 2.8312 9.83233 3 9.95139V12.949C3 14.0818 3.91825 15 5.05096 15C5.64549 15 6.21077 14.742 6.60033 14.2929L9.69047 10.7301C10.5489 10.5703 11.3642 10.3391 12.0837 10.0355C13.5416 9.4204 15 8.31922 15 6.57143V5.42857C15 4.56143 14.5515 3.85319 13.9992 3.32585C13.4473 2.79892 12.7169 2.37525 11.9393 2.04419C10.382 1.38123 8.42183 1 6.69565 1ZM3 6C3 5.14888 3.30757 4.42587 3.87183 3.9089C4.44005 3.3883 5.35449 3 6.69565 3C8.16885 3 9.86085 3.33306 11.1559 3.88438C11.8044 4.16046 12.3002 4.46894 12.618 4.77237C12.9354 5.07538 13 5.29571 13 5.42857V6.57143C13 7.03278 12.6025 7.64589 11.3063 8.19279C10.0838 8.7086 8.39741 9 6.69565 9C5.35449 9 4.44005 8.6117 3.87183 8.0911C3.30757 7.57413 3 6.85112 3 6ZM6.80924 10.9996C6.77135 10.9999 6.73349 11 6.69565 11C6.09266 11 5.52568 10.9384 5 10.8188V12.949C5 12.9772 5.02282 13 5.05096 13C5.06573 13 5.07978 12.9936 5.08946 12.9824L6.80924 10.9996Z" fill="black"/>
</svg>
