<svg width="16" height="16" viewBox="0 0 16 16" fill="none" xmlns="http://www.w3.org/2000/svg">
<g clip-path="url(#clip0)">
<rect width="16" height="16" fill="white"/>
<path fill-rule="evenodd" clip-rule="evenodd" d="M11 11.9636C11.5187 11.9636 11.9416 11.5539 11.9628 11.0404C11.987 10.9542 12 10.8632 12 10.7692V8C12 5.79086 10.2091 4 8 4C5.79086 4 4 5.79086 4 8V10.7692C4 10.8632 4.01297 10.9542 4.03721 11.0404C4.0584 11.5539 4.48135 11.9636 5 11.9636L11 11.9636ZM7 6.26756C6.4022 6.61337 6 7.25972 6 8V10.0364H7V6.26756ZM9 6.26756V10.0364H10V8C10 7.25972 9.5978 6.61337 9 6.26756Z" fill="black"/>
<path fill-rule="evenodd" clip-rule="evenodd" d="M0.932975 2.76337C1.01603 1.76666 1.84924 1 2.84941 1H13.1507C14.1509 1 14.9841 1.76666 15.0671 2.76337L15.9964 13.915C15.9965 13.9155 15.9965 13.9161 15.9966 13.9167C16.0181 14.1745 15.9398 14.4179 15.7939 14.6082C15.6809 14.7556 15.5274 14.8713 15.3483 14.9377C15.2522 14.9734 15.1491 14.9948 15.0416 14.9992C15.0238 14.9999 15.0061 15.0002 14.9884 15L1.01175 15C0.994584 15.0002 0.977324 14.9999 0.959988 14.9992C0.830507 14.9941 0.707351 14.9644 0.595073 14.9146C0.30803 14.7874 0.0920744 14.5289 0.0232512 14.2154C0.00816303 14.1468 0.000163712 14.0759 2.78637e-06 14.0034C-8.78174e-07 14.0022 1.25799e-07 14.0011 1.25799e-07 14C1.25799e-07 13.9666 0.00164024 13.9335 0.00484438 13.9009L0.932975 2.76337ZM2.08686 13L13.9133 13L13.0799 3H2.92019L2.08686 13Z" fill="black"/>
</g>
<defs>
<clipPath id="clip0">
<rect width="16" height="16" fill="white"/>
</clipPath>
</defs>
</svg>
