<svg width="16" height="16" viewBox="0 0 16 16" fill="none" xmlns="http://www.w3.org/2000/svg">
<rect width="16" height="16" fill="white"/>
<path fill-rule="evenodd" clip-rule="evenodd" d="M12 3.98339C12 3.44812 12.4398 3 13 3C13.5602 3 14 3.44812 14 3.98339C14 4.53567 14.4477 4.98339 15 4.98339C15.5523 4.98339 16 4.53567 16 3.98339C16 2.32786 14.649 1 13 1C11.351 1 10 2.32786 10 3.98339V7H4V4.04151C4 3.44683 4.46698 3 5 3C5.53302 3 6 3.44683 6 4.04151C6 4.59379 6.44772 5.04151 7 5.04151C7.55228 5.04151 8 4.59379 8 4.04151C8 2.38119 6.67612 1 5 1C3.32388 1 2 2.38119 2 4.04151V13C1.44772 13 1 13.4477 1 14C1 14.5523 1.44772 15 2 15C2.94963 15 3.60219 14.6483 4.06928 14.3965L4.0991 14.3805C4.55864 14.133 4.82716 14 5.25 14C5.67284 14 5.94136 14.133 6.4009 14.3805L6.43072 14.3965C6.89781 14.6483 7.55037 15 8.5 15C9.44963 15 10.1022 14.6483 10.5693 14.3965L10.5991 14.3805C11.0586 14.133 11.3272 14 11.75 14C12.1728 14 12.4414 14.133 12.9009 14.3805L12.9307 14.3965C13.3978 14.6483 14.0504 15 15 15C15.5523 15 16 14.5523 16 14C16 13.4477 15.5523 13 15 13C14.5772 13 14.3086 12.867 13.8491 12.6195L13.8193 12.6035C13.3944 12.3744 12.8159 12.0627 12 12.0083V3.98339ZM4 9V12.2196C4.34755 12.094 4.75908 12 5.25 12C6.19963 12 6.85219 12.3517 7.31928 12.6035L7.3491 12.6195C7.80864 12.867 8.07716 13 8.5 13C8.92284 13 9.19136 12.867 9.6509 12.6195L9.68073 12.6035C9.77866 12.5507 9.88474 12.4935 10 12.4361V9H4Z" fill="black"/>
</svg>
