<svg width="16" height="16" viewBox="0 0 16 16" fill="none" xmlns="http://www.w3.org/2000/svg">
<rect width="16" height="16" fill="white"/>
<path d="M9 5C9 4.44772 8.55228 4 8 4C7.44771 4 7 4.44772 7 5L7 11C7 11.5523 7.44771 12 8 12C8.55228 12 9 11.5523 9 11L9 5Z" fill="black"/>
<path d="M5 6C5.55228 6 6 6.44772 6 7L6 9C6 9.55228 5.55228 10 5 10C4.44771 10 4 9.55228 4 9L4 7C4 6.44771 4.44771 6 5 6Z" fill="black"/>
<path d="M12 7C12 6.44772 11.5523 6 11 6C10.4477 6 10 6.44771 10 7V9C10 9.55228 10.4477 10 11 10C11.5523 10 12 9.55228 12 9V7Z" fill="black"/>
<path fill-rule="evenodd" clip-rule="evenodd" d="M15 12V4C15 2.34315 13.6569 1 12 1L4 1.00001C2.34314 1.00002 1 2.34316 1 4.00001V12C1 13.6569 2.34314 15 4 15L12 15C13.6569 15 15 13.6569 15 12ZM13 4V12C13 12.5523 12.5523 13 12 13L4 13C3.44772 13 3 12.5523 3 12L3 4.00001C3 3.44773 3.44771 3.00001 4 3.00001L12 3C12.5523 3 13 3.44772 13 4Z" fill="black"/>
</svg>
