<svg width="16" height="16" viewBox="0 0 16 16" fill="none" xmlns="http://www.w3.org/2000/svg">
<rect width="16" height="16" fill="white"/>
<path fill-rule="evenodd" clip-rule="evenodd" d="M8 4C5.79086 4 4 5.79086 4 8C4 10.2091 5.79086 12 8 12C10.2091 12 12 10.2091 12 8C12 5.79086 10.2091 4 8 4ZM6 8C6 6.89543 6.89543 6 8 6C9.10457 6 10 6.89543 10 8C10 9.10457 9.10457 10 8 10C6.89543 10 6 9.10457 6 8Z" fill="black"/>
<path fill-rule="evenodd" clip-rule="evenodd" d="M4 15H12C13.6569 15 15 13.6569 15 12L15 4C15 2.34314 13.6568 1 12 1H4C2.34314 1 1 2.34315 1 4V12C1 13.6569 2.34315 15 4 15ZM12 13H4C3.44772 13 3 12.5523 3 12L3 4C3 3.44771 3.44771 3 4 3L12 3C12.5523 3 13 3.44771 13 4L13 12C13 12.5523 12.5523 13 12 13Z" fill="black"/>
</svg>
