<svg width="16" height="16" viewBox="0 0 16 16" fill="none" xmlns="http://www.w3.org/2000/svg">
<rect width="16" height="16" fill="white"/>
<path fill-rule="evenodd" clip-rule="evenodd" d="M2.3648 14.9311L6.00033 13.5067L9.56654 14.9014C9.69767 14.9646 9.8447 15 10 15L10.0029 15C10.1283 15.0005 10.2538 14.9775 10.3725 14.9309L14.3654 13.3637C14.7482 13.2134 15 12.8441 15 12.4328V2.00001C15 1.66922 14.8364 1.35984 14.5631 1.17359C14.2897 0.987336 13.9419 0.948319 13.6341 1.06936L10.0137 2.49291L6.3792 1.06892C6.259 1.02182 6.13273 0.999113 6.0072 1.00003C5.88148 0.999111 5.75501 1.02189 5.63463 1.06914L1.64185 2.63632C1.25925 2.78649 1.0075 3.15547 1.00722 3.56649L1 13.9993C0.999772 14.33 1.16304 14.6394 1.43615 14.8259C1.70926 15.0123 2.05689 15.0517 2.3648 14.9311ZM11 12.5361L13 11.7511V3.46774L11 4.25416V12.5361ZM9 4.24376L7.01239 3.46502L7.00094 11.7505L9 12.5323V4.24376ZM3.00675 4.24914L3.00101 12.5338L5 11.7506V3.46678L3.00675 4.24914Z" fill="black"/>
</svg>
