<svg width="16" height="16" viewBox="0 0 16 16" fill="none" xmlns="http://www.w3.org/2000/svg">
<rect width="16" height="16" fill="white"/>
<path fill-rule="evenodd" clip-rule="evenodd" d="M1 5V11.1865C1 12.1265 1.48668 12.9149 2.13902 13.5136C2.78966 14.1108 3.67056 14.5865 4.66318 14.9416C4.96946 15.0511 5.30989 15.0049 5.57584 14.8176C5.84178 14.6302 6 14.3253 6 14V11H10V14C10 14.3253 10.1582 14.6303 10.4242 14.8176C10.6901 15.0049 11.0305 15.0511 11.3368 14.9416C12.3294 14.5865 13.2103 14.1108 13.861 13.5136C14.5133 12.9149 15 12.1265 15 11.1865V5C15 4.8841 14.9803 4.7728 14.944 4.66928C14.7096 3.51244 13.7698 2.63286 12.7167 2.0658C11.4586 1.38835 9.78922 1 8 1C6.21078 1 4.54137 1.38835 3.28326 2.0658C2.23015 2.63286 1.29042 3.51244 1.05598 4.66928C1.01972 4.7728 1 4.8841 1 5ZM12.99 5.11298C12.9331 4.76735 12.6209 4.2857 11.7685 3.82674C10.8551 3.33488 9.52449 3 8 3C6.47551 3 5.14492 3.33488 4.23146 3.82674C3.3791 4.2857 3.06689 4.76735 3.00996 5.11298C3.04332 5.30566 3.16783 5.55665 3.49139 5.85362C3.88422 6.21416 4.50331 6.57376 5.33682 6.87192C5.73456 7.01421 6 7.39107 6 7.81349V9H10V7.81349C10 7.39107 10.2654 7.01421 10.6632 6.87192C11.4967 6.57376 12.1158 6.21416 12.5086 5.85362C12.8322 5.55665 12.9567 5.30566 12.99 5.11298ZM12 12.4244C12.1982 12.2983 12.3679 12.1693 12.5086 12.0401C12.8997 11.6811 13 11.3893 13 11.1865V7.97145C12.6911 8.16247 12.3556 8.33598 12 8.49202V12.4244ZM4 8.49202V12.4244C3.8018 12.2983 3.63208 12.1693 3.49139 12.0401C3.10026 11.6811 3 11.3893 3 11.1865V7.97145C3.30891 8.16247 3.64442 8.33598 4 8.49202Z" fill="black"/>
</svg>
