<svg width="16" height="16" viewBox="0 0 16 16" fill="none" xmlns="http://www.w3.org/2000/svg">
<rect width="16" height="16" fill="white"/>
<path fill-rule="evenodd" clip-rule="evenodd" d="M9 10.9C11.2822 10.4367 13 8.41896 13 6C13 3.23858 10.7614 1 8 1C5.23858 1 3 3.23858 3 6C3 8.41896 4.71776 10.4367 7 10.9L7 14C7 14.5523 7.44771 15 8 15C8.55228 15 9 14.5523 9 14L9 10.9ZM5 6C5 4.34315 6.34315 3 8 3C9.65685 3 11 4.34315 11 6C11 7.65685 9.65685 9 8 9C6.34315 9 5 7.65685 5 6Z" fill="black"/>
</svg>
