<svg width="16" height="16" viewBox="0 0 16 16" fill="none" xmlns="http://www.w3.org/2000/svg">
<rect width="16" height="16" fill="white"/>
<path fill-rule="evenodd" clip-rule="evenodd" d="M7 1C5.39478 1 4 2.24576 4 3.89474L4 6.78502C3.99066 6.79947 3.96973 6.82545 3.93157 6.85437C2.62281 7.84649 2 9.32101 2 11C2 11.5523 2.44772 12 3 12H7L7 14C7 14.5523 7.44771 15 8 15C8.55228 15 9 14.5523 9 14V12H13C13.5523 12 14 11.5523 14 11C14 9.32101 13.3772 7.84649 12.0684 6.85437C12.0303 6.82545 12.0093 6.79947 12 6.78502V3.89474C12 2.24576 10.6052 1 9 1H7ZM8.00312 10H11.8813C11.7111 9.34205 11.3619 8.82845 10.8602 8.44818C10.4112 8.10777 10 7.53819 10 6.80988V3.89474C10 3.45084 9.60392 3 9 3H7C6.39608 3 6 3.45084 6 3.89474L6 6.80988C6 7.53819 5.58884 8.10777 5.13978 8.44818C4.63815 8.82845 4.2889 9.34205 4.11868 10H7.99688L8 10L8.00312 10Z" fill="black"/>
</svg>
