<svg width="16" height="16" viewBox="0 0 16 16" fill="none" xmlns="http://www.w3.org/2000/svg">
<rect width="16" height="16" fill="white"/>
<path d="M6 14V15C6.26521 15 6.51957 14.8946 6.7071 14.7071L6 14ZM2 14H1C1 14.5523 1.44772 15 2 15V14ZM2 10L1.29289 9.29289C1.10536 9.48043 1 9.73478 1 10H2ZM14 6L14.7071 6.70711C15.0976 6.31658 15.0976 5.68342 14.7071 5.29289L14 6ZM10 2L10.7071 1.29289C10.3166 0.902369 9.68341 0.902369 9.29289 1.29289L10 2ZM7 5L6.29289 4.29289L7 5ZM6 13H2V15H6V13ZM3 14V10H1V14H3ZM14.7071 5.29289L10.7071 1.29289L9.29289 2.70711L13.2929 6.70711L14.7071 5.29289ZM2.70711 10.7071L7.7071 5.70711L6.29289 4.29289L1.29289 9.29289L2.70711 10.7071ZM7.7071 5.70711L10.7071 2.70711L9.29289 1.29289L6.29289 4.29289L7.7071 5.70711ZM6.7071 14.7071L11.7071 9.70711L10.2929 8.29289L5.29289 13.2929L6.7071 14.7071ZM11.7071 9.70711L14.7071 6.70711L13.2929 5.29289L10.2929 8.29289L11.7071 9.70711ZM6.29289 5.70711L10.2929 9.70711L11.7071 8.29289L7.7071 4.29289L6.29289 5.70711Z" fill="black"/>
</svg>
