<svg width="16" height="16" viewBox="0 0 16 16" fill="none" xmlns="http://www.w3.org/2000/svg">
<rect width="16" height="16" fill="white"/>
<path d="M8.98059 2.99256L8.28765 2.27156V2.27156L8.98059 2.99256ZM13.9672 7.78508L13.2743 7.06407C13.2646 7.07335 13.2552 7.08283 13.2459 7.09249L13.9672 7.78508ZM8 14L7.27867 14.6926C7.46723 14.889 7.72773 15 8 15C8.27227 15 8.53277 14.889 8.72133 14.6926L8 14ZM2.03277 2.99256L1.33984 2.27156L2.03277 2.99256ZM2.03277 7.78508L2.7541 7.09249C2.74483 7.08283 2.73536 7.07335 2.7257 7.06407L2.03277 7.78508ZM8 3.93497L7.30707 4.65597C7.69414 5.02797 8.30587 5.02797 8.69293 4.65597L8 3.93497ZM7.01941 2.99256L6.32648 3.71356L6.32648 3.71356L7.01941 2.99256ZM9.67352 3.71356C10.6635 2.76215 12.2843 2.76215 13.2743 3.71356L14.6602 2.27156C12.8961 0.576147 10.0517 0.576146 8.28765 2.27156L9.67352 3.71356ZM13.2743 3.71356C14.2419 4.6435 14.2419 6.13414 13.2743 7.06407L14.6602 8.50608C16.4466 6.78918 16.4466 3.98846 14.6602 2.27156L13.2743 3.71356ZM13.2459 7.09249L7.27867 13.3074L8.72133 14.6926L14.6886 8.47766L13.2459 7.09249ZM1.33984 2.27156C-0.446612 3.98846 -0.446612 6.78918 1.33984 8.50608L2.7257 7.06407C1.7581 6.13414 1.7581 4.6435 2.7257 3.71356L1.33984 2.27156ZM1.31143 8.47766L7.27867 14.6926L8.72133 13.3074L2.7541 7.09249L1.31143 8.47766ZM8.28765 2.27156L7.30707 3.21397L8.69293 4.65597L9.67352 3.71356L8.28765 2.27156ZM7.71235 2.27156C5.94826 0.576148 3.10393 0.576147 1.33984 2.27156L2.7257 3.71356C3.71566 2.76215 5.33652 2.76215 6.32648 3.71356L7.71235 2.27156ZM8.69293 3.21397L7.71235 2.27156L6.32648 3.71356L7.30707 4.65597L8.69293 3.21397Z" fill="black"/>
</svg>
