<svg width="16" height="16" viewBox="0 0 16 16" fill="none" xmlns="http://www.w3.org/2000/svg">
<rect width="16" height="16" fill="white"/>
<path d="M2 8.0943H1H2ZM2 13H3H2ZM13 14V13V14ZM3 14L3 15H3L3 14ZM14 8.09432H13H14ZM14 13H15H14ZM13.3068 6.58027L12.6534 7.3373L13.3068 6.58027ZM8 2L8.65339 1.24298C8.27803 0.919009 7.72197 0.919008 7.34661 1.24297L8 2ZM2.69323 6.58025L3.34662 7.33727L3.34662 7.33727L2.69323 6.58025ZM6 10H7H6ZM6 13H5H6ZM9 14V13V14ZM7 14V15V14ZM10 10H9H10ZM10 13H11H10ZM9 9.00001L9 8.00001L9 9.00001ZM7 9L7 10H7L7 9ZM1 8.0943L1 13H3L3 8.0943H1ZM13 13L3 13L3 15L13 15V13ZM13 8.09432V13H15V8.09432H13ZM13.9602 5.82325L8.65339 1.24298L7.34661 2.75702L12.6534 7.3373L13.9602 5.82325ZM7.34661 1.24297L2.03985 5.82322L3.34662 7.33727L8.65338 2.75703L7.34661 1.24297ZM15 8.09432C15 7.22213 14.6204 6.39312 13.9602 5.82325L12.6534 7.3373C12.8735 7.52725 13 7.80359 13 8.09432H15ZM3 8.0943C3 7.80357 3.12653 7.52723 3.34662 7.33727L2.03985 5.82322C1.37958 6.39309 1 7.22211 1 8.0943H3ZM1 13C1 14.1046 1.89543 15 3 15L3 13V13H1ZM13 15C14.1046 15 15 14.1046 15 13H13V13V15ZM5 10L5 13H7V10H5ZM9 13H7V15H9V13ZM9 10V13H11V10H9ZM9 8.00001L7 8L7 10L9 10L9 8.00001ZM11 10C11 8.89544 10.1046 8.00001 9 8.00001L9 10L9 10H11ZM7 10H7L7.00001 8C5.89543 8 5 8.89543 5 10H7ZM5 13C5 14.1046 5.89543 15 7 15V13H7H5ZM9 15C10.1046 15 11 14.1046 11 13H9V13V15Z" fill="black"/>
</svg>
