<svg width="16" height="16" viewBox="0 0 16 16" fill="none" xmlns="http://www.w3.org/2000/svg">
<rect width="16" height="16" fill="white"/>
<path d="M5.25 14H4.25C4.25 14.5523 4.69772 15 5.25 15V14ZM9.75 14V15C10.3023 15 10.75 14.5523 10.75 14H9.75ZM6.5 9.5C6.5 10.0523 6.94772 10.5 7.5 10.5C8.05228 10.5 8.5 10.0523 8.5 9.5H6.5ZM8.5 8.5C8.5 7.94772 8.05228 7.5 7.5 7.5C6.94772 7.5 6.5 7.94772 6.5 8.5H8.5ZM4 6.44456C4 4.34211 5.51763 3 7.5 3V1C4.51181 1 2 3.14131 2 6.44456H4ZM7.5 3C9.48237 3 11 4.34211 11 6.44456H13C13 3.14131 10.4882 1 7.5 1V3ZM11 6.44456C11 7.30029 10.5861 8.11092 10.0228 9.02846C9.76379 9.45033 9.44688 9.93744 9.21379 10.387C8.98045 10.8371 8.75 11.3938 8.75 12H10.75C10.75 11.8805 10.8008 11.6712 10.9893 11.3076C11.1781 10.9434 11.4237 10.5692 11.7272 10.0748C12.2889 9.15991 13 7.91848 13 6.44456H11ZM6.25 12C6.25 11.3938 6.01955 10.8371 5.78621 10.387C5.55312 9.93744 5.23621 9.45033 4.97721 9.02846C4.41392 8.11092 4 7.30029 4 6.44456H2C2 7.91848 2.71108 9.15991 3.27279 10.0748C3.57629 10.5692 3.82188 10.9434 4.01066 11.3076C4.1992 11.6712 4.25 11.8805 4.25 12H6.25ZM6.25 14V12H4.25V14H6.25ZM8.75 12V14H10.75V12H8.75ZM9.75 13H5.25V15H9.75V13ZM8.5 9.5V8.5H6.5V9.5H8.5Z" fill="black"/>
</svg>
