<svg width="16" height="16" viewBox="0 0 16 16" fill="none" xmlns="http://www.w3.org/2000/svg">
<rect width="16" height="16" fill="white"/>
<path d="M2.00001 3L3.00001 3L2.00001 3ZM2.00001 13H1.00001H2.00001ZM13 14V13V14ZM3.00001 14V15H3.00001L3.00001 14ZM14 3.00002L15 3.00002V3.00002H14ZM13 2.00002L13 3.00002L13 2.00002ZM3.00002 2L3.00001 3H3.00001L3.00002 2ZM5 7.99998L5.76822 7.3598C5.58835 7.14396 5.32599 7.01374 5.04531 7.00101C4.76464 6.98828 4.49156 7.0942 4.29289 7.29287L5 7.99998ZM11 10L11.7071 9.29289C11.3341 8.91986 10.7354 8.90077 10.3394 9.24928L11 10ZM1.00001 3L1.00001 13H3.00001L3.00001 3L1.00001 3ZM13 13L3.00001 13L3.00001 15L13 15V13ZM13 3.00002L13 13H15L15 3.00002L13 3.00002ZM13 1.00002L3.00002 1L3.00001 3L13 3.00002L13 1.00002ZM15 3.00002C15 1.89545 14.1046 1.00002 13 1.00002L13 3.00002V3.00002H15ZM3.00001 3H3.00001L3.00002 1C1.89544 0.999996 1.00001 1.89543 1.00001 3L3.00001 3ZM1.00001 13C1.00001 14.1046 1.89544 15 3.00001 15V13H1.00001ZM13 15C14.1046 15 15 14.1046 15 13H13H13V15ZM2.70711 11.7071L5.70711 8.70709L4.29289 7.29287L1.29289 10.2929L2.70711 11.7071ZM4.23178 8.64016L9.23179 14.6402L10.7682 13.3598L5.76822 7.3598L4.23178 8.64016ZM14.7071 12.2929L11.7071 9.29289L10.2929 10.7071L13.2929 13.7071L14.7071 12.2929ZM10.3394 9.24928L7.83938 11.4493L9.16062 12.9507L11.6606 10.7507L10.3394 9.24928ZM10 6V8C11.1046 8 12 7.10457 12 6H10ZM10 6H8.00001C8.00001 7.10457 8.89544 8 10 8V6ZM10 6V4C8.89544 4 8.00001 4.89543 8.00001 6H10ZM10 6H12C12 4.89543 11.1046 4 10 4V6Z" fill="black"/>
</svg>
