<svg width="16" height="16" viewBox="0 0 16 16" fill="none" xmlns="http://www.w3.org/2000/svg">
<rect width="16" height="16" fill="white"/>
<path d="M10 9C10.5523 9 11 8.55228 11 8C11 7.44771 10.5523 7 10 7V9ZM6 7C5.44772 7 5 7.44772 5 8C5 8.55228 5.44772 9 6 9V7ZM7 10C7 10.5523 7.44772 11 8 11C8.55228 11 9 10.5523 9 10H7ZM9 6C9 5.44772 8.55228 5 8 5C7.44772 5 7 5.44772 7 6H9ZM10 7L6 7V9L10 9V7ZM9 10V6H7V10H9ZM13 8C13 10.7614 10.7614 13 8 13V15C11.866 15 15 11.866 15 8H13ZM8 13C5.23858 13 3 10.7614 3 8H1C1 11.866 4.13401 15 8 15V13ZM3 8C3 5.23858 5.23858 3 8 3V1C4.13401 1 1 4.13401 1 8H3ZM8 3C10.7614 3 13 5.23858 13 8H15C15 4.13401 11.866 1 8 1V3Z" fill="black"/>
</svg>
