<svg width="16" height="16" viewBox="0 0 16 16" fill="none" xmlns="http://www.w3.org/2000/svg">
<rect width="16" height="16" fill="white"/>
<path d="M8 2C8.7647 2 9.38462 2.61991 9.38462 3.38462C9.38462 3.51036 9.46658 3.62069 9.58468 3.66386C9.70736 3.7087 9.82761 3.7586 9.94517 3.81331C10.0593 3.86643 10.1955 3.84639 10.2845 3.75736C10.8252 3.21664 11.7019 3.21664 12.2427 3.75736C12.7834 4.29809 12.7834 5.1748 12.2427 5.71552C12.1536 5.80454 12.1336 5.94069 12.1867 6.05484C12.2414 6.1724 12.2913 6.29265 12.3362 6.41533C12.3793 6.53343 12.4896 6.61538 12.6154 6.61538C13.3801 6.61538 14 7.2353 14 8C14 8.7647 13.3801 9.38462 12.6154 9.38462C12.4896 9.38462 12.3793 9.46657 12.3362 9.58467C12.2913 9.70736 12.2414 9.82762 12.1867 9.94519C12.1336 10.0593 12.1536 10.1955 12.2426 10.2845C12.7834 10.8252 12.7834 11.7019 12.2426 12.2426C11.7019 12.7834 10.8252 12.7834 10.2845 12.2426C10.1955 12.1536 10.0593 12.1336 9.94517 12.1867C9.82761 12.2414 9.70736 12.2913 9.58468 12.3361C9.46658 12.3793 9.38462 12.4896 9.38462 12.6154C9.38462 13.3801 8.7647 14 8 14C7.2353 14 6.61538 13.3801 6.61538 12.6154C6.61538 12.4896 6.53342 12.3793 6.41532 12.3361C6.29264 12.2913 6.1724 12.2414 6.05484 12.1867C5.94069 12.1336 5.80454 12.1536 5.71551 12.2426C5.17478 12.7834 4.29809 12.7834 3.75736 12.2426C3.21664 11.7019 3.21664 10.8252 3.75736 10.2845C3.84639 10.1955 3.86645 10.0593 3.81332 9.94519C3.75861 9.82762 3.7087 9.70736 3.66384 9.58467C3.62067 9.46657 3.51035 9.38462 3.38462 9.38462C2.61991 9.38462 2 8.7647 2 8C2 7.2353 2.61991 6.61538 3.38462 6.61538C3.51035 6.61538 3.62067 6.53343 3.66384 6.41533C3.70869 6.29265 3.7586 6.17239 3.81331 6.05483C3.86644 5.94069 3.84639 5.80454 3.75736 5.71552C3.21664 5.17477 3.21664 4.29809 3.75736 3.75736C4.29809 3.21664 5.17478 3.21664 5.71551 3.75736C5.80453 3.84639 5.94068 3.86643 6.05482 3.81331C6.17238 3.7586 6.29263 3.7087 6.41532 3.66386C6.53342 3.62069 6.61538 3.51036 6.61538 3.38462C6.61538 2.61991 7.2353 2 8 2Z" stroke="black" stroke-width="2"/>
<path d="M9 8C9 8.55228 8.55228 9 8 9C7.44772 9 7 8.55228 7 8C7 7.44772 7.44772 7 8 7C8.55228 7 9 7.44772 9 8Z" stroke="black" stroke-width="2"/>
</svg>
