<svg width="16" height="16" viewBox="0 0 16 16" fill="none" xmlns="http://www.w3.org/2000/svg">
<rect width="16" height="16" fill="white"/>
<path d="M10.0247 4.72049C10.2956 5.55252 11.0776 6.15385 12 6.15385C13.1471 6.15385 14.0769 5.22398 14.0769 4.07692C14.0769 2.92987 13.1471 2 12 2C10.853 2 9.92309 2.92987 9.92309 4.07692C9.92309 4.30156 9.95875 4.51786 10.0247 4.72049ZM10.0247 4.72049L5.88876 7.13782M5.88876 7.13782C5.53294 6.5047 4.85488 6.07697 4.07692 6.07697C2.92987 6.07697 2 7.00684 2 8.15389C2 9.30094 2.92987 10.2308 4.07692 10.2308C4.8153 10.2308 5.46368 9.8455 5.83197 9.26498M5.88876 7.13782C6.25851 7.79573 6.2364 8.6275 5.83197 9.26498M5.83197 9.26498L10.35 11.0468M10.35 11.0468C10.1762 11.3504 10.0769 11.702 10.0769 12.0769C10.0769 13.224 11.0068 14.1538 12.1539 14.1538C13.3009 14.1538 14.2308 13.224 14.2308 12.0769C14.2308 10.9299 13.3009 9.99998 12.1539 9.99998C11.3817 9.99998 10.7079 10.4214 10.35 11.0468Z" stroke="black" stroke-width="2"/>
</svg>
