<svg width="16" height="16" viewBox="0 0 16 16" fill="none" xmlns="http://www.w3.org/2000/svg">
<rect width="16" height="16" fill="white"/>
<path d="M7.16175 2.58343C7.47187 1.80552 8.52813 1.80552 8.83825 2.58344L9.82819 5.06659C9.95893 5.39454 10.2545 5.61861 10.5939 5.647L13.1634 5.86191C13.9684 5.92924 14.2948 6.97731 13.6815 7.52541L11.7238 9.275C11.4652 9.50607 11.3523 9.86863 11.4313 10.2141L12.0294 12.8301C12.2168 13.6496 11.3622 14.2974 10.6731 13.8582L8.47323 12.4564C8.1827 12.2712 7.8173 12.2712 7.52677 12.4564L5.32691 13.8582C4.63775 14.2974 3.78322 13.6496 3.97059 12.8301L4.5687 10.2141C4.64769 9.86863 4.53478 9.50607 4.27623 9.275L2.31853 7.52541C1.70523 6.97731 2.03164 5.92924 2.8366 5.86191L5.40611 5.647C5.74546 5.61861 6.04107 5.39454 6.17181 5.06659L7.16175 2.58343Z" stroke="black" stroke-width="2"/>
</svg>
