<svg width="16" height="16" viewBox="0 0 16 16" fill="none" xmlns="http://www.w3.org/2000/svg">
<rect width="16" height="16" fill="white"/>
<path d="M6.58803 14L6.58803 15H6.58803L6.58803 14ZM3 14L3 13H3L3 14ZM2 13H1H2ZM2 9.20029L1 9.20029V9.20029H2ZM7.32023 13.681L6.58803 13H6.58803L7.32023 13.681ZM13.3431 7.20616L12.6109 6.52507V6.52507L13.3431 7.20616ZM13.318 5.81796L14.0251 5.11086L13.318 5.81796ZM9.72201 2.22197L9.0149 2.92908L9.72201 2.22197ZM2.2783 8.50809L1.5566 7.81588H1.5566L2.2783 8.50809ZM8.2932 2.23687L9.0149 2.92908L8.2932 2.23687ZM6.58803 13L3 13L3 15L6.58803 15L6.58803 13ZM3 13L3 9.20029H1L1 13H3ZM8.05243 14.3621L14.0753 7.88724L12.6109 6.52507L6.58803 13L8.05243 14.3621ZM14.0251 5.11086L10.4291 1.51486L9.0149 2.92908L12.6109 6.52507L14.0251 5.11086ZM3 9.20029L9.0149 2.92908L7.5715 1.54467L1.5566 7.81588L3 9.20029ZM10.4291 1.51486C9.63652 0.722269 8.34739 0.735717 7.5715 1.54467L9.0149 2.92908V2.92908L10.4291 1.51486ZM14.0753 7.88724C14.8084 7.09907 14.7863 5.87201 14.0251 5.11086L12.6109 6.52507L12.6109 6.52507L14.0753 7.88724ZM3 13H3H1C1 14.1045 1.89543 15 3 15L3 13ZM6.58803 15C7.14356 15 7.67407 14.7689 8.05243 14.3621L6.58803 13L6.58803 15ZM3 9.20029L3 9.20029L1.5566 7.81588C1.19943 8.18828 1 8.6843 1 9.20029L3 9.20029ZM5 10.5C5 10.2238 5.22386 9.99996 5.5 9.99996V12C6.32843 12 7 11.3284 7 10.5H5ZM5.5 9.99996C5.77614 9.99996 6 10.2238 6 10.5H4C4 11.3284 4.67157 12 5.5 12V9.99996ZM6 10.5C6 10.7761 5.77614 11 5.5 11V8.99996C4.67157 8.99996 4 9.67153 4 10.5H6ZM5.5 11C5.22386 11 5 10.7761 5 10.5H7C7 9.67153 6.32843 8.99996 5.5 8.99996V11Z" fill="black"/>
</svg>
