<svg width="16" height="16" viewBox="0 0 16 16" fill="none" xmlns="http://www.w3.org/2000/svg">
<rect width="16" height="16" fill="white"/>
<path d="M13.5216 12.7401L14.0826 13.5679L14.0826 13.5679L13.5216 12.7401ZM3.4784 12.7401L4.0394 11.9123L3.4784 12.7401ZM3.00446 11.6438L2.00754 11.5653L3.00446 11.6438ZM13.9955 11.6438L12.9986 11.7222V11.7222L13.9955 11.6438ZM13.7664 10.5322L12.8132 10.8343L13.7664 10.5322ZM3.23356 10.5322L2.28029 10.2301H2.28029L3.23356 10.5322ZM10 4.5C10 5.32843 9.32843 6 8.5 6V8C10.433 8 12 6.433 12 4.5H10ZM8.5 6C7.67157 6 7 5.32843 7 4.5H5C5 6.433 6.567 8 8.5 8V6ZM7 4.5C7 3.67157 7.67157 3 8.5 3V1C6.567 1 5 2.567 5 4.5H7ZM8.5 3C9.32843 3 10 3.67157 10 4.5H12C12 2.567 10.433 1 8.5 1V3ZM12.9606 11.9123C12.3976 12.2938 11.0234 13 8.5 13V15C11.4248 15 13.1895 14.1731 14.0826 13.5679L12.9606 11.9123ZM8.5 13C5.9766 13 4.60244 12.2938 4.0394 11.9123L2.91741 13.5679C3.81046 14.1731 5.57522 15 8.5 15V13ZM2.00754 11.5653C1.95088 12.2855 2.219 13.0946 2.91741 13.5679L4.0394 11.9123C4.04529 11.9163 4.03511 11.9127 4.02205 11.8818C4.00816 11.8489 3.99575 11.7938 4.00138 11.7222L2.00754 11.5653ZM12.9986 11.7222C13.0043 11.7938 12.9918 11.8489 12.978 11.8818C12.9649 11.9127 12.9547 11.9163 12.9606 11.9123L14.0826 13.5679C14.781 13.0946 15.0491 12.2855 14.9925 11.5653L12.9986 11.7222ZM12.8132 10.8343C12.9082 11.1341 12.9762 11.4378 12.9986 11.7222L14.9925 11.5653C14.9548 11.0871 14.8461 10.6288 14.7197 10.2301L12.8132 10.8343ZM4.00138 11.7222C4.02376 11.4378 4.09182 11.1341 4.18683 10.8343L2.28029 10.2301C2.15393 10.6288 2.04517 11.0871 2.00754 11.5653L4.00138 11.7222ZM11.4023 8H5.5977V10H11.4023V8ZM4.18683 10.8343C4.33241 10.375 4.84791 10 5.5977 10V8C4.25889 8 2.7657 8.69843 2.28029 10.2301L4.18683 10.8343ZM14.7197 10.2301C14.2343 8.69843 12.7411 8 11.4023 8V10C12.1521 10 12.6676 10.375 12.8132 10.8343L14.7197 10.2301Z" fill="black"/>
</svg>
