<svg xmlns="http://www.w3.org/2000/svg" viewBox="0 0 100 100"><path d="m80.332 5.92-23.23.32c-1.64.02-3.19.67-4.35 1.83L7.492 53.34c-2.45 2.44-2.45 6.41 0 8.86l22.9 22.91c2.46 2.44 6.43 2.44 8.87 0l1.33-1.33c-3.2-4.93-5.07-10.8-5.07-17.11 0-17.32 14.09-31.41 31.41-31.41 6.31 0 12.18 1.87 17.11 5.08l.49-.49a6.216 6.216 0 0 0 1.83-4.35l.32-23.23c.05-3.53-2.82-6.4-6.35-6.35Zm-6.22 23.92c-3.14 3.12-8.21 3.12-11.33 0-3.14-3.14-3.15-8.21-.01-11.35 3.13-3.14 8.21-3.14 11.35 0 3.13 3.14 3.12 8.21-.01 11.35Z"/><path d="M66.934 94.08c-15.115 0-27.412-12.296-27.412-27.411 0-15.115 12.297-27.412 27.412-27.412s27.412 12.297 27.412 27.412c0 15.115-12.297 27.411-27.412 27.411Zm0-48.823c-11.807 0-21.412 9.605-21.412 21.412S55.127 88.08 66.934 88.08s21.412-9.605 21.412-21.411-9.606-21.412-21.412-21.412Z"/><path d="M81.742 63.669H52.126a3 3 0 1 0 0 6H81.74a3 3 0 1 0 0-6Z"/><path d="M69.934 51.86a3 3 0 0 0-6 .001v29.616c0 .828.336 1.578.879 2.12a3 3 0 0 0 5.121-2.122V51.862Z"/></svg>