<svg xmlns="http://www.w3.org/2000/svg" viewBox="0 0 100 100"><path d="M51.44 94.305H11.53c-3.39 0-6.13-2.74-6.13-6.13v-70.02c0-3.39 2.75-6.14 6.14-6.14h11.9v7.85c0 .63.14 1.22.39 1.75h-8.5c-1.04 0-1.89.85-1.89 1.89v61.33c0 1.04.85 1.89 1.89 1.89h27.31c2.43 3.04 5.41 5.62 8.8 7.58ZM81.76 18.155v21.13c-2.5-1.32-5.2-2.31-8.04-2.91v-12.87c0-1.04-.85-1.89-1.89-1.89h-8.5c.25-.53.39-1.12.39-1.75v-7.85h11.9c3.39 0 6.14 2.75 6.14 6.14Z"/><path d="M60.9 5.465H26.27c-1.65 0-3 1.34-3 3v15.42c0 1.66 1.35 3 3 3H60.9c1.65 0 3-1.34 3-3V8.465c0-1.66-1.35-3-3-3Zm-3 15.42H29.27v-9.42H57.9v9.42ZM63.35 35.915c-5 .61-9.65 2.4-13.65 5.09H25.96c-1.65 0-3-1.34-3-3s1.35-3 3-3H61.2c.84 0 1.61.35 2.15.91ZM25.96 50.305h14.67a31.32 31.32 0 0 0-2.97 6h-11.7c-1.66 0-3-1.34-3-3 0-1.65 1.34-3 3-3ZM35.74 67.115c0 1.53.11 3.03.32 4.5h-10.1c-1.66 0-3-1.35-3-3 0-1.66 1.34-3 3-3h9.82c-.03.49-.04 1-.04 1.5ZM81.76 43.905a27.195 27.195 0 0 0-14.59-4.22c-1.25 0-2.47.08-3.67.25-1.63.21-3.22.58-4.75 1.07-5.29 1.71-9.89 5-13.22 9.3a26.84 26.84 0 0 0-3.56 6c-1.24 2.88-2 6.02-2.17 9.31-.04.49-.05.99-.05 1.49 0 1.54.13 3.04.38 4.51.96 5.87 3.81 11.12 7.9 15.11 4.15 4.06 9.6 6.82 15.66 7.58 1.14.16 2.3.23 3.48.23 1.18 0 2.35-.08 3.49-.23 2.31-.29 4.53-.87 6.63-1.71 10.13-4.03 17.31-13.93 17.31-25.49 0-9.76-5.13-18.35-12.84-23.2Zm0 38.89c-.49.45-.99.88-1.52 1.28a21.124 21.124 0 0 1-7.07 3.6 21.395 21.395 0 0 1-14.62-.95c-6.2-2.74-10.87-8.33-12.31-15.11a20.308 20.308 0 0 1-.43-6 21 21 0 0 1 2.87-9.31 21.45 21.45 0 0 1 5.22-6c3.65-2.89 8.27-4.62 13.27-4.62 2.28 0 4.48.36 6.55 1.02 3.03.97 5.76 2.6 8.04 4.72 4.2 3.91 6.84 9.5 6.84 15.68 0 6.19-2.64 11.77-6.84 15.69Z"/><path d="M81.76 43.905a27.195 27.195 0 0 0-14.59-4.22c-1.25 0-2.47.08-3.67.25-1.63.21-3.22.58-4.75 1.07-5.29 1.71-9.89 5-13.22 9.3a26.84 26.84 0 0 0-3.56 6c-1.24 2.88-2 6.02-2.17 9.31-.04.49-.05.99-.05 1.49 0 1.54.13 3.04.38 4.51.96 5.87 3.81 11.12 7.9 15.11 4.15 4.06 9.6 6.82 15.66 7.58 1.14.16 2.3.23 3.48.23 1.18 0 2.35-.08 3.49-.23 2.31-.29 4.53-.87 6.63-1.71 10.13-4.03 17.31-13.93 17.31-25.49 0-9.76-5.13-18.35-12.84-23.2Zm0 38.89c-.49.45-.99.88-1.52 1.28a21.124 21.124 0 0 1-7.07 3.6 21.395 21.395 0 0 1-14.62-.95c-6.2-2.74-10.87-8.33-12.31-15.11a20.308 20.308 0 0 1-.43-6 21 21 0 0 1 2.87-9.31 21.45 21.45 0 0 1 5.22-6c3.65-2.89 8.27-4.62 13.27-4.62 2.28 0 4.48.36 6.55 1.02 3.03.97 5.76 2.6 8.04 4.72 4.2 3.91 6.84 9.5 6.84 15.68 0 6.19-2.64 11.77-6.84 15.69Z"/><path d="M81.983 64.11H52.368a3 3 0 1 0-.001 6h29.615a3 3 0 1 0 .001-6Z"/><path d="M70.175 52.302a3 3 0 0 0-6 0v29.616c0 .828.336 1.578.879 2.121a3 3 0 0 0 5.121-2.122V52.302Z"/></svg>