<svg xmlns="http://www.w3.org/2000/svg" viewBox="0 0 100 100"><path d="M39.719 60.958c-9.504 0-17.236-8.167-17.236-18.206 0-10.038 7.732-18.205 17.236-18.205s17.236 8.167 17.236 18.205c0 10.04-7.732 18.206-17.236 18.206Zm0-30.41c-6.196 0-11.236 5.475-11.236 12.204 0 6.73 5.04 12.206 11.236 12.206s11.236-5.475 11.236-12.206c0-6.73-5.04-12.205-11.236-12.205Z"/><path d="M39.728 77.074c-1.066 0-2.135-.05-3.209-.147C20.23 75.442 6.963 62.02 5.657 45.704c-.779-9.739 2.623-19.359 9.333-26.392A34.204 34.204 0 0 1 40.868 8.744c17.24.566 31.707 14.467 32.935 31.648a34.559 34.559 0 0 1-.54 9.067c-1.103 5.674-6.091 9.793-11.86 9.793-5.761 0-10.448-4.686-10.448-10.447V28.663a3 3 0 1 1 6 0v20.142a4.452 4.452 0 0 0 4.448 4.447c2.903 0 5.414-2.077 5.97-4.938.477-2.446.626-4.968.446-7.494-1.013-14.158-12.937-25.613-27.148-26.08a28.224 28.224 0 0 0-21.34 8.714c-5.532 5.798-8.336 13.734-7.693 21.772 1.076 13.442 12.006 24.503 25.426 25.727 3.617.33 7.183-.012 10.6-1.014a3 3 0 1 1 1.688 5.758 34.106 34.106 0 0 1-9.624 1.377Z"/><path d="M91.361 68.676h-31.6a3 3 0 1 1 0-6h31.6a3 3 0 1 1 0 6Z"/><path d="M82.954 77.263a3 3 0 0 1-2.122-5.121l6.465-6.466-6.464-6.465a2.999 2.999 0 1 1 4.242-4.242l8.586 8.586a3 3 0 0 1 0 4.242l-8.585 8.587a2.991 2.991 0 0 1-2.122.88ZM84.815 85.95H53.213a3 3 0 1 1 0-6h31.602a3 3 0 1 1 0 6Z"/><path d="M61.621 94.538a2.99 2.99 0 0 1-2.121-.88l-8.587-8.586a3 3 0 0 1 0-4.242l8.587-8.586a3 3 0 1 1 4.242 4.242l-6.465 6.465 6.466 6.466a3 3 0 0 1-2.122 5.12Z"/></svg>