<svg width="32" height="32" viewBox="0 0 32 32" fill="none" xmlns="http://www.w3.org/2000/svg">
<rect width="32" height="32" fill="white"/>
<path fill-rule="evenodd" clip-rule="evenodd" d="M17 11.9C19.2822 11.4367 21 9.41896 21 7C21 4.23858 18.7614 2 16 2C13.2386 2 11 4.23858 11 7C11 9.41896 12.7178 11.4367 15 11.9V27.9626C9.14429 27.5225 4.56945 23.2511 4.04933 18H6C6.55228 18 7 17.5523 7 17C7 16.4477 6.55228 16 6 16H3C2.44772 16 2 16.4477 2 17C2 24.2536 8.34488 30 16 30C23.6551 30 30 24.2536 30 17C30 16.4477 29.5523 16 29 16H26C25.4477 16 25 16.4477 25 17C25 17.5523 25.4477 18 26 18H27.9507C27.4306 23.2511 22.8557 27.5225 17 27.9626V11.9ZM13 7C13 5.34315 14.3431 4 16 4C17.6569 4 19 5.34315 19 7C19 8.65685 17.6569 10 16 10C14.3431 10 13 8.65685 13 7Z" fill="black"/>
</svg>
