<svg width="32" height="32" viewBox="0 0 32 32" fill="none" xmlns="http://www.w3.org/2000/svg">
<rect width="32" height="32" fill="white"/>
<path fill-rule="evenodd" clip-rule="evenodd" d="M24.8094 5.01037C22.271 2.47197 18.1554 2.47197 15.617 5.01037L7.16135 13.466C6.77082 13.8565 6.13766 13.8565 5.74713 13.466C5.35661 13.0755 5.35661 12.4423 5.74713 12.0518L14.2028 3.59616C17.5222 0.276703 22.9041 0.276703 26.2236 3.59616C29.543 6.91562 29.543 12.2975 26.2236 15.617L14.8492 26.9913C12.5061 29.3345 8.70707 29.3345 6.36393 26.9913C4.02078 24.6482 4.02078 20.8492 6.36393 18.5061L6.36776 18.5022L14.9561 10.0064C14.9568 10.0057 14.9575 10.005 14.9582 10.0044C16.3004 8.66423 18.4692 8.5697 19.8596 9.96014C21.2265 11.327 21.2265 13.5431 19.8596 14.9099L13.8492 20.9203C13.4587 21.3108 12.8255 21.3108 12.435 20.9203C12.0445 20.5298 12.0445 19.8966 12.435 19.5061L18.4454 13.4957C19.0312 12.9099 19.0312 11.9601 18.4454 11.3744C17.8839 10.8129 16.9809 10.8101 16.3703 11.4206L16.3665 11.4244L7.77814 19.9203C7.77754 19.9209 7.77694 19.9215 7.77635 19.9221C6.21604 21.4843 6.21664 24.0156 7.77814 25.5771C9.34024 27.1392 11.8729 27.1392 13.435 25.5771L24.8094 14.2028C27.3478 11.6644 27.3478 7.54878 24.8094 5.01037Z" fill="black"/>
</svg>
