<svg width="32" height="32" viewBox="0 0 32 32" fill="none" xmlns="http://www.w3.org/2000/svg">
<rect width="32" height="32" fill="white"/>
<path fill-rule="evenodd" clip-rule="evenodd" d="M5.45501 2.16155C5.91807 1.86056 6.53745 1.99195 6.83844 2.45501L16 16.5497L25.1616 2.45501C25.4626 1.99195 26.0819 1.86056 26.545 2.16155C27.0081 2.46254 27.1394 3.08192 26.8384 3.54498L17.1927 18.3846L18.8454 20.9273C19.8928 19.1741 21.8093 18 24 18C27.3137 18 30 20.6863 30 24C30 27.3137 27.3137 30 24 30C20.6863 30 18 27.3137 18 24C18 23.7804 18.0118 23.5635 18.0348 23.35L16 20.2195L13.9652 23.35C13.9882 23.5635 14 23.7804 14 24C14 27.3137 11.3137 30 8 30C4.68629 30 2 27.3137 2 24C2 20.6863 4.68629 18 8 18C10.1907 18 12.1072 19.1741 13.1546 20.9273L14.8073 18.3846L5.16155 3.54498C4.86056 3.08192 4.99195 2.46254 5.45501 2.16155ZM4 24C4 21.7909 5.79086 20 8 20C10.2091 20 12 21.7909 12 24C12 26.2091 10.2091 28 8 28C5.79086 28 4 26.2091 4 24ZM20 24C20 21.7909 21.7909 20 24 20C26.2091 20 28 21.7909 28 24C28 26.2091 26.2091 28 24 28C21.7909 28 20 26.2091 20 24Z" fill="black"/>
</svg>
