<svg width="32" height="32" viewBox="0 0 32 32" fill="none" xmlns="http://www.w3.org/2000/svg">
<rect width="32" height="32" fill="white"/>
<path d="M9 4C9 4.55228 9.44772 5 10 5H22C22.5523 5 23 4.55228 23 4C23 3.44772 22.5523 3 22 3H10C9.44772 3 9 3.44772 9 4Z" fill="black"/>
<path d="M9 28C9 28.5523 9.44772 29 10 29H22C22.5523 29 23 28.5523 23 28C23 27.4477 22.5523 27 22 27H10C9.44772 27 9 27.4477 9 28Z" fill="black"/>
<path fill-rule="evenodd" clip-rule="evenodd" d="M30 19V13C30 10.2386 27.7614 8.00002 25 8.00002L7.00001 8C4.23858 8 2 10.2386 2 13V19C2 21.7614 4.23858 24 7 24L25 24C27.7614 24 30 21.7614 30 19ZM28 13V19C28 20.6568 26.6569 22 25 22L7 22C5.34315 22 4 20.6569 4 19L4 13C4 11.3431 5.34315 10 7 10L25 10C26.6569 10 28 11.3432 28 13Z" fill="black"/>
</svg>
