<svg width="32" height="32" viewBox="0 0 32 32" fill="none" xmlns="http://www.w3.org/2000/svg">
<rect width="32" height="32" fill="white"/>
<path d="M30 4C30 4.55228 29.5523 5 29 5H3C2.44772 5 2 4.55228 2 4C2 3.44772 2.44772 3 3 3H29C29.5523 3 30 3.44772 30 4Z" fill="black"/>
<path d="M29 21C29.5523 21 30 20.5523 30 20C30 19.4477 29.5523 19 29 19H15C14.4477 19 14 19.4477 14 20C14 20.5523 14.4477 21 15 21H29Z" fill="black"/>
<path d="M29 29C29.5523 29 30 28.5523 30 28C30 27.4477 29.5523 27 29 27H3C2.44772 27 2 27.4477 2 28C2 28.5523 2.44772 29 3 29H29Z" fill="black"/>
<path d="M29 13C29.5523 13 30 12.5523 30 12C30 11.4477 29.5523 11 29 11H15C14.4477 11 14 11.4477 14 12C14 12.5523 14.4477 13 15 13H29Z" fill="black"/>
<path d="M10.9546 16.2985C10.908 16.448 10.8255 16.5887 10.7071 16.7071L6.70711 20.7071C6.31658 21.0977 5.68342 21.0977 5.29289 20.7071C4.90237 20.3166 4.90237 19.6834 5.29289 19.2929L8.5858 16L5.29289 12.7071C4.90237 12.3166 4.90237 11.6834 5.29289 11.2929C5.68342 10.9024 6.31658 10.9024 6.70711 11.2929L10.7071 15.2929C10.8536 15.4393 10.9451 15.6199 10.9817 15.809C11.0131 15.9713 11.0041 16.1398 10.9546 16.2985Z" fill="black"/>
</svg>
