<svg width="32" height="32" viewBox="0 0 32 32" fill="none" xmlns="http://www.w3.org/2000/svg">
<rect width="32" height="32" fill="white"/>
<path d="M18.5168 2.00004H27C27.5523 2.00004 28 2.44775 28 3.00004C28 3.55232 27.5523 4.00004 27 4.00004H19.3106L14.2336 28H22C22.5523 28 23 28.4478 23 29C23 29.5523 22.5523 30 22 30H13.023C13.0084 30.0004 12.9937 30.0004 12.9789 30H5C4.44772 30 4 29.5523 4 29C4 28.4478 4.44772 28 5 28H12.1894L17.2663 4.00004H10C9.44772 4.00004 9 3.55232 9 3.00004C9 2.44775 9.44772 2.00004 10 2.00004H18.4812C18.493 1.99983 18.5049 1.99982 18.5168 2.00004Z" fill="black"/>
</svg>
