<svg width="32" height="32" viewBox="0 0 32 32" fill="none" xmlns="http://www.w3.org/2000/svg">
<rect width="32" height="32" fill="white"/>
<path d="M4 6.00006V9C4 9.55228 4.44771 10 5 10C5.55228 10 6 9.55228 6 9V4.01036C6.00103 3.91662 5.98894 3.8224 5.9633 3.73066C5.92222 3.5834 5.84827 3.44985 5.74987 3.3384C5.56664 3.13088 5.2986 3 5 3H4.99892C4.95062 3.00002 4.90222 3.00352 4.85413 3.01056C4.68058 3.03593 4.52151 3.10586 4.38891 3.20838L2.4 4.70006C1.95817 5.03143 1.86863 5.65823 2.2 6.10006C2.53137 6.54189 3.15817 6.63143 3.6 6.30006L4 6.00006Z" fill="black"/>
<path d="M29 8C29.5523 8 30 7.55228 30 7C30 6.44772 29.5523 6 29 6H10C9.44771 6 9 6.44772 9 7C9 7.55228 9.44771 8 10 8H29Z" fill="black"/>
<path d="M30 16C30 16.5523 29.5523 17 29 17H10C9.44771 17 9 16.5523 9 16C9 15.4477 9.44771 15 10 15H29C29.5523 15 30 15.4477 30 16Z" fill="black"/>
<path d="M30 25C30 25.5523 29.5523 26 29 26H10C9.44771 26 9 25.5523 9 25C9 24.4477 9.44771 24 10 24H29C29.5523 24 30 24.4477 30 25Z" fill="black"/>
<path d="M4.5 14C4.22385 14 4 14.2239 4 14.5C4 15.0523 3.55228 15.5 3 15.5C2.44771 15.5 2 15.0523 2 14.5C2 13.1193 3.11928 12 4.5 12C5.10974 12 5.74492 12.1852 6.23811 12.6394C6.74476 13.1061 7 13.7635 7 14.5C7 14.8608 6.86997 15.1717 6.75282 15.3907C6.62976 15.6207 6.47053 15.8407 6.31211 16.0388C6.06184 16.3516 5.74353 16.6936 5.44515 17.0142C5.3736 17.091 5.30284 17.1671 5.2348 17.2408C4.98874 17.5073 4.76243 17.76 4.56947 18H6C6.55228 18 7 18.4477 7 19C7 19.5523 6.55228 20 6 20H3C2.44771 20 2 19.5523 2 19C2 18.3171 2.32902 17.7029 2.64153 17.2428C2.96891 16.7608 3.38997 16.2907 3.76519 15.8842C3.8493 15.7931 3.93059 15.7057 4.00888 15.6215C4.30114 15.3072 4.55153 15.0379 4.75038 14.7894C4.87321 14.6358 4.94836 14.5238 4.98936 14.4472C5.0363 14.3595 4.95248 14.1744 4.8832 14.1106C4.8335 14.0648 4.71868 14 4.5 14Z" fill="black"/>
<path d="M3 22C2.44771 22 2 22.4477 2 23C2 23.5523 2.44771 24 3 24H4.49964C4.29472 24.2728 4.06693 24.5326 3.81907 24.7676C3.41737 25.1411 3.39147 25.7686 3.76116 26.1739C3.96755 26.4002 4.1398 26.5802 4.29145 26.7387C4.47878 26.9344 4.63466 27.0973 4.78462 27.274C4.9362 27.4526 5.11099 27.6796 4.8832 27.8894C4.8335 27.9352 4.71868 28 4.5 28C4.22385 28 4 27.7761 4 27.5C4 26.9477 3.55228 26.5 3 26.5C2.44771 26.5 2 26.9477 2 27.5C2 28.8807 3.11928 30 4.5 30C5.10974 30 5.74492 29.8148 6.23811 29.3606C6.74476 28.8939 7 28.2365 7 27.5C7 26.8316 6.57713 26.2952 6.30949 25.9799C6.18754 25.8362 6.03187 25.668 5.86765 25.494C5.92489 25.4248 5.98339 25.3518 6.04207 25.2757C6.25402 25.0007 6.48334 24.6648 6.66318 24.2987C6.83846 23.9418 7 23.4898 7 23C7 22.7348 6.89464 22.4804 6.7071 22.2929C6.51957 22.1054 6.26521 22 6 22H3Z" fill="black"/>
</svg>
