<svg width="32" height="32" viewBox="0 0 32 32" fill="none" xmlns="http://www.w3.org/2000/svg">
<rect width="32" height="32" fill="white"/>
<path d="M22.2071 10.7071C22.5976 10.3166 22.5976 9.68346 22.2071 9.29293C21.8166 8.90241 21.1834 8.90241 20.7929 9.29293L15.2929 14.7929C14.9024 15.1835 14.9024 15.8166 15.2929 16.2071C15.6834 16.5977 16.3166 16.5977 16.7071 16.2071L22.2071 10.7071Z" fill="black"/>
<path fill-rule="evenodd" clip-rule="evenodd" d="M3.29291 19.8242L19.3242 3.79293C21.6477 1.46941 25.4148 1.46941 27.7384 3.79293C30.0619 6.11646 30.0619 9.88363 27.7384 12.2072L11.7071 28.2384C11.5196 28.4259 11.2652 28.5313 11 28.5313C10.7348 28.5313 10.4804 28.4259 10.2929 28.2384L8.98439 26.9299L7.20712 28.7071C5.98817 29.9261 4.01186 29.9261 2.79291 28.7071C1.57396 27.4882 1.57395 25.5119 2.79291 24.2929L4.57018 22.5157L3.29291 21.2384C2.90239 20.8479 2.90239 20.2147 3.29291 19.8242ZM5.41423 20.5313L11 26.1171L26.3242 10.7929C27.8666 9.25046 27.8666 6.74962 26.3242 5.20715C24.7817 3.66467 22.2808 3.66467 20.7384 5.20715L5.41423 20.5313ZM5.98439 23.9299L7.57018 25.5157L5.79291 27.2929C5.355 27.7308 4.64502 27.7308 4.20712 27.2929C3.76922 26.855 3.76922 26.1451 4.20712 25.7071L5.98439 23.9299Z" fill="black"/>
</svg>
