<svg width="16" height="16" viewBox="0 0 16 16" fill="none" xmlns="http://www.w3.org/2000/svg">
<rect width="16" height="16" fill="white"/>
<path d="M5 1C5 0.447715 4.55228 0 4 0C3.44772 0 3 0.447715 3 1V3H1C0.447715 3 0 3.44772 0 4C0 4.55228 0.447715 5 1 5H3V7C3 7.55229 3.44772 8 4 8C4.55229 8 5 7.55229 5 7V5H7C7.55228 5 8 4.55228 8 4C8 3.44772 7.55228 3 7 3H5V1Z" fill="black"/>
<path d="M14 3C14.5523 3 15 3.44772 15 4C15 4.55228 14.5523 5 14 5H10C9.44771 5 9 4.55228 9 4C9 3.44772 9.44771 3 10 3H14Z" fill="black"/>
<path d="M14 13C14.5523 13 15 12.5523 15 12C15 11.4477 14.5523 11 14 11H12C12.5523 11 13 10.5523 13 10C13 9.44772 12.5523 9 12 9C11.4477 9 11 9.44772 11 10C11 10.5523 11.4477 11 12 11H10C9.44771 11 9 11.4477 9 12C9 12.5523 9.44771 13 10 13H12C11.4477 13 11 13.4477 11 14C11 14.5523 11.4477 15 12 15C12.5523 15 13 14.5523 13 14C13 13.4477 12.5523 13 12 13H14Z" fill="black"/>
<path d="M6.70711 14.7071C7.09763 14.3166 7.09763 13.6834 6.70711 13.2929L5.41423 12L6.70711 10.7071C7.09763 10.3166 7.09763 9.68345 6.70711 9.29292C6.31658 8.9024 5.68342 8.9024 5.29289 9.29292L4.00002 10.5858L2.70712 9.2929C2.3166 8.90238 1.68343 8.90238 1.29291 9.2929C0.902382 9.68343 0.902382 10.3166 1.29291 10.7071L2.5858 12L1.2929 13.2929C0.902381 13.6834 0.902381 14.3166 1.2929 14.7071C1.68343 15.0976 2.31659 15.0976 2.70712 14.7071L4.00002 13.4142L5.29289 14.7071C5.68342 15.0976 6.31658 15.0976 6.70711 14.7071Z" fill="black"/>
</svg>
