<svg width="32" height="32" viewBox="0 0 32 32" fill="none" xmlns="http://www.w3.org/2000/svg">
<rect width="32" height="32" fill="white"/>
<path d="M4 4C4 4.55228 4.44772 5 5 5H27C27.5523 5 28 4.55228 28 4C28 3.44772 27.5523 3 27 3H5C4.44772 3 4 3.44772 4 4Z" fill="black"/>
<path d="M5 21C4.44772 21 4 20.5523 4 20C4 19.4477 4.44772 19 5 19H27C27.5523 19 28 19.4477 28 20C28 20.5523 27.5523 21 27 21H5Z" fill="black"/>
<path d="M16 29C15.4477 29 15 28.5523 15 28C15 27.4477 15.4477 27 16 27H27C27.5523 27 28 27.4477 28 28C28 28.5523 27.5523 29 27 29H16Z" fill="black"/>
<path d="M16 13C15.4477 13 15 12.5523 15 12C15 11.4477 15.4477 11 16 11H27C27.5523 11 28 11.4477 28 12C28 12.5523 27.5523 13 27 13H16Z" fill="black"/>
</svg>
