<svg width="32" height="32" viewBox="0 0 32 32" fill="none" xmlns="http://www.w3.org/2000/svg">
<rect width="32" height="32" fill="white"/>
<path d="M11 9.5C11 6.46243 13.4624 4 16.5 4C19.5376 4 22 6.46243 22 9.5C22 10.0523 22.4477 10.5 23 10.5C23.5523 10.5 24 10.0523 24 9.5C24 5.35786 20.6422 2 16.5 2C12.3579 2 9.00001 5.35786 9.00001 9.5C9.00001 10.5984 9.17665 11.5515 9.51686 12.3799C9.72668 12.8908 10.3109 13.1348 10.8218 12.925C11.3327 12.7152 11.5767 12.131 11.3669 11.6201C11.1414 11.071 11 10.3825 11 9.5Z" fill="black"/>
<path d="M23.4832 19.6201C23.2734 19.1092 22.6891 18.8652 22.1782 19.075C21.6674 19.2848 21.4233 19.869 21.6331 20.3799C21.8586 20.929 22 21.6175 22 22.5C22 25.5376 19.5376 28 16.5 28C13.4624 28 11 25.5376 11 22.5C11 21.9477 10.5523 21.5 10 21.5C9.44773 21.5 9.00001 21.9477 9.00001 22.5C9.00001 26.6421 12.3579 30 16.5 30C20.6422 30 24 26.6421 24 22.5C24 21.4016 23.8234 20.4485 23.4832 19.6201Z" fill="black"/>
<path d="M3.00002 15.0716C2.41085 15.0716 1.93323 15.4873 1.93323 16C1.93323 16.5127 2.41085 16.9284 3.00002 16.9284L29 16.9284C29.5892 16.9284 30.0668 16.5127 30.0668 16C30.0668 15.4873 29.5892 15.0716 29 15.0716L3.00002 15.0716Z" fill="black"/>
</svg>
