<svg width="32" height="32" viewBox="0 0 32 32" fill="none" xmlns="http://www.w3.org/2000/svg">
<rect width="32" height="32" fill="white"/>
<path d="M28 24V25C28 26.6568 26.6569 28 25 28H24C23.4477 28 23 28.4477 23 29C23 29.5523 23.4477 30 24 30H25C27.7614 30 30 27.7614 30 25V24C30 23.4477 29.5523 23 29 23C28.4477 23 28 23.4477 28 24Z" fill="black"/>
<path d="M28 14V18C28 18.5523 28.4477 19 29 19C29.5523 19 30 18.5523 30 18V14C30 13.4477 29.5523 13 29 13C28.4477 13 28 13.4477 28 14Z" fill="black"/>
<path d="M28 7.00003V7.99999C28 8.55228 28.4477 8.99999 29 8.99999C29.5523 8.99999 30 8.55227 30 7.99999V7.00003C30 4.23862 27.7614 2.00004 25 2.00003L24 2.00003C23.4477 2.00003 23 2.44775 23 3.00003C23 3.55231 23.4477 4.00003 24 4.00003L25 4.00004C26.6569 4.00004 28 5.34318 28 7.00003Z" fill="black"/>
<path d="M18 4.00002C18.5523 4.00002 19 3.55231 19 3.00002C19 2.44774 18.5523 2.00002 18 2.00002L14 2.00001C13.4477 2.00001 13 2.44773 13 3.00001C13 3.5523 13.4477 4.00001 14 4.00001L18 4.00002Z" fill="black"/>
<path d="M18 30C18.5523 30 19 29.5523 19 29C19 28.4477 18.5523 28 18 28L14 28C13.4477 28 13 28.4477 13 29C13 29.5523 13.4477 30 14 30L18 30Z" fill="black"/>
<path d="M8 4C8.55229 4 9 3.55229 9 3.00001C9 2.44772 8.55229 2 8.00001 2L7.00002 2C4.23859 1.99999 2 4.23857 2 7L2 7.99999C2 8.55227 2.44772 8.99999 3 8.99999C3.55229 8.99999 4 8.55227 4 7.99999V7C4 5.34314 5.34315 4 7.00001 4L8 4Z" fill="black"/>
<path d="M8 30C8.55229 30 9 29.5523 9 29C9 28.4477 8.55229 28 8 28H7C5.34315 28 4 26.6568 4 25L4 24C4 23.4477 3.55228 23 3 23C2.44772 23 2 23.4477 2 24L2 25C2 27.7614 4.23858 30 7 30H8Z" fill="black"/>
<path d="M4 14C4 13.4477 3.55229 13 3 13C2.44772 13 2 13.4477 2 14L2 18C2 18.5523 2.44772 19 3 19C3.55229 19 4 18.5523 4 18V14Z" fill="black"/>
<path d="M22.75 10C22.75 9.44772 22.3023 9 21.75 9H10.25C9.69772 9 9.25 9.44772 9.25 10C9.25 10.5523 9.69772 11 10.25 11H15V22C15 22.5523 15.4477 23 16 23C16.5523 23 17 22.5523 17 22V11H21.75C22.3023 11 22.75 10.5523 22.75 10Z" fill="black"/>
</svg>
