<svg width="16" height="16" viewBox="0 0 16 16" fill="none" xmlns="http://www.w3.org/2000/svg">
<rect width="16" height="16" fill="white"/>
<path d="M2 8.6274H1H2ZM2 7.37627H3H2ZM7 7.00184C7.55228 7.00184 8 6.55412 8 6.00184C8 5.44955 7.55228 5.00184 7 5.00184V7.00184ZM7 11.0018C7.55228 11.0018 8 10.5541 8 10.0018C8 9.44955 7.55228 9.00184 7 9.00184V11.0018ZM2.88094 6.11445L2.50426 5.18811L2.50426 5.18811L2.88094 6.11445ZM2.88094 9.88922L3.25762 8.96287L3.25762 8.96287L2.88094 9.88922ZM7.85308 10.9183L8.45196 10.1175L8.4282 10.0997L8.40344 10.0834L7.85308 10.9183ZM11.6398 13.7501L11.0409 14.551L11.0647 14.5687L11.0894 14.5851L11.6398 13.7501ZM11.6398 2.25779L11.0894 1.42287L11.065 1.43899L11.0415 1.45653L11.6398 2.25779ZM7.85308 5.08533L8.40344 5.92025L8.4279 5.90413L8.45138 5.88659L7.85308 5.08533ZM4.01739 12.8333C4.11995 13.376 4.64301 13.7328 5.18569 13.6303C5.72837 13.5277 6.08516 13.0046 5.98261 12.462L4.01739 12.8333ZM3 8.6274L3 7.37627H1L1 8.6274H3ZM3.45957 7.00184H7V5.00184H3.45957V7.00184ZM7 9.00184H3.45957V11.0018H7V9.00184ZM3.25762 7.0408C3.3196 7.0156 3.3885 7.00184 3.45957 7.00184V5.00184C3.13261 5.00184 2.80769 5.06473 2.50426 5.18811L3.25762 7.0408ZM1 8.6274C1 9.60994 1.61863 10.4554 2.50426 10.8156L3.25762 8.96287C3.07387 8.88815 3 8.74174 3 8.6274H1ZM3.45957 9.00184C3.3885 9.00184 3.3196 8.98808 3.25762 8.96287L2.50426 10.8156C2.80769 10.9389 3.13261 11.0018 3.45957 11.0018V9.00184ZM3 7.37627C3 7.26193 3.07387 7.11552 3.25762 7.0408L2.50426 5.18811C1.61863 5.54824 1 6.39373 1 7.37627H3ZM8.45138 5.88659L12.2381 3.05906L11.0415 1.45653L7.25477 4.28406L8.45138 5.88659ZM13 3.41497V12.593H15V3.41497H13ZM12.2387 12.9493L8.45196 10.1175L7.25419 11.7192L11.0409 14.551L12.2387 12.9493ZM8 9.37545V6.62823H6V9.37545H8ZM8.40344 10.0834C8.13534 9.9067 8 9.63722 8 9.37545H6C6 10.3428 6.5015 11.2251 7.30272 11.7533L8.40344 10.0834ZM13 12.593C13 12.7291 12.9267 12.8626 12.7525 12.9479C12.5759 13.0345 12.3657 13.0309 12.1902 12.9152L11.0894 14.5851C12.658 15.619 15 14.6382 15 12.593H13ZM12.1902 3.09272C12.3657 2.97704 12.5759 2.97343 12.7525 3.05999C12.9267 3.14538 13 3.27886 13 3.41497H15C15 1.36972 12.658 0.388905 11.0894 1.42287L12.1902 3.09272ZM7.30271 4.2504C6.5015 4.77854 6 5.66087 6 6.62823H8C8 6.36645 8.13534 6.09697 8.40344 5.92025L7.30271 4.2504ZM5.98261 12.462L5.48261 9.81614L3.51739 10.1875L4.01739 12.8333L5.98261 12.462Z" fill="black"/>
</svg>
