<svg width="16" height="16" viewBox="0 0 16 16" fill="none" xmlns="http://www.w3.org/2000/svg">
<rect width="16" height="16" fill="white"/>
<path d="M2.00857 11.3722L2.83159 11.9402L2.00857 11.3722ZM10.7439 10.9848C11.1885 10.6572 11.2834 10.0311 10.9558 9.58652C10.6282 9.14191 10.0021 9.04705 9.55751 9.37467L10.7439 10.9848ZM4.82566 14.1035L5.41886 14.9085L4.82566 14.1035ZM2.23914 13.9086L2.94624 13.2015L2.23914 13.9086ZM4.99723 5.28125L1.18555 10.8042L2.83159 11.9402L6.64327 6.41727L4.99723 5.28125ZM9.55751 9.37467L4.23246 13.2984L5.41886 14.9085L10.7439 10.9848L9.55751 9.37467ZM1.18555 10.8042C0.365915 11.9918 0.511688 13.5954 1.53203 14.6157L2.94624 13.2015C2.6086 12.8639 2.56036 12.3332 2.83159 11.9402L1.18555 10.8042ZM1.53203 14.6157C2.5771 15.6608 4.22903 15.7852 5.41886 14.9085L4.23246 13.2984C3.83873 13.5885 3.29208 13.5473 2.94624 13.2015L1.53203 14.6157ZM13 6.08988C13 7.79638 11.6167 9.17976 9.91016 9.17976V11.1798C12.7212 11.1798 15 8.90095 15 6.08988H13ZM9.91016 9.17976C8.20367 9.17976 6.82028 7.79638 6.82028 6.08988H4.82028C4.82028 8.90095 7.0991 11.1798 9.91016 11.1798V9.17976ZM6.82028 6.08988C6.82028 4.38339 8.20367 3 9.91016 3V1C7.0991 1 4.82028 3.27882 4.82028 6.08988H6.82028ZM9.91016 3C11.6167 3 13 4.38339 13 6.08988H15C15 3.27882 12.7212 1 9.91016 1V3Z" fill="black"/>
</svg>
