<svg width="16" height="16" viewBox="0 0 16 16" fill="none" xmlns="http://www.w3.org/2000/svg">
<rect width="16" height="16" fill="white"/>
<path d="M6 4.32558L5.72086 3.36533C5.29376 3.48949 5 3.88081 5 4.32558H6ZM14 2H15C15 1.6854 14.852 1.38914 14.6004 1.20027C14.3488 1.0114 14.023 0.951932 13.7209 1.03975L14 2ZM13 10.3721C13 10.9244 13.4477 11.3721 14 11.3721C14.5523 11.3721 15 10.9244 15 10.3721H13ZM5 12C5 12.5523 4.55228 13 4 13V15C5.65685 15 7 13.6569 7 12H5ZM4 13C3.44772 13 3 12.5523 3 12H1C1 13.6569 2.34315 15 4 15V13ZM3 12C3 11.4477 3.44772 11 4 11V9C2.34315 9 1 10.3431 1 12H3ZM4 11C4.55228 11 5 11.4477 5 12H7C7 10.3431 5.65685 9 4 9V11ZM13 11C13 11.5523 12.5523 12 12 12V14C13.6569 14 15 12.6569 15 11H13ZM12 12C11.4477 12 11 11.5523 11 11H9C9 12.6569 10.3431 14 12 14V12ZM11 11C11 10.4477 11.4477 10 12 10V8C10.3431 8 9 9.34315 9 11H11ZM12 10C12.5523 10 13 10.4477 13 11H15C15 9.34315 13.6569 8 12 8V10ZM7 12V4.32558H5V12H7ZM6.27914 5.28583L14.2791 2.96025L13.7209 1.03975L5.72086 3.36533L6.27914 5.28583ZM13 2V10.3721H15V2H13Z" fill="black"/>
</svg>
