<svg width="16" height="16" viewBox="0 0 16 16" fill="none" xmlns="http://www.w3.org/2000/svg">
<rect width="16" height="16" fill="white"/>
<path d="M12.7071 6.29288C12.3166 5.90236 11.6834 5.90236 11.2929 6.29288C10.9024 6.6834 10.9024 7.31657 11.2929 7.70709L12.7071 6.29288ZM14.2929 10.7071C14.6834 11.0976 15.3166 11.0976 15.7071 10.7071C16.0976 10.3166 16.0976 9.6834 15.7071 9.29288L14.2929 10.7071ZM15.7071 7.70709C16.0976 7.31657 16.0976 6.6834 15.7071 6.29288C15.3166 5.90236 14.6834 5.90236 14.2929 6.29288L15.7071 7.70709ZM11.2929 9.29288C10.9024 9.6834 10.9024 10.3166 11.2929 10.7071C11.6834 11.0976 12.3166 11.0976 12.7071 10.7071L11.2929 9.29288ZM7.3753 2.29974L8 3.08061L8 3.08061L7.3753 2.29974ZM7.37531 13.7002L6.75061 14.4811L7.37531 13.7002ZM2.7092 10.5277L2.06344 11.2913L2.7092 10.5277ZM11.2929 7.70709L14.2929 10.7071L15.7071 9.29288L12.7071 6.29288L11.2929 7.70709ZM14.2929 6.29288L11.2929 9.29288L12.7071 10.7071L15.7071 7.70709L14.2929 6.29288ZM3 8.99999V6.99999H1V8.99999H3ZM1 8.99999C1 9.91917 1.41461 10.7425 2.06344 11.2913L3.35497 9.7642C3.13624 9.57921 3 9.30601 3 8.99999H1ZM3 6.99999C3 6.69397 3.13624 6.42076 3.35497 6.23577L2.06344 4.7087C1.41461 5.25745 1 6.0808 1 6.99999H3ZM5.72035 4.90433L8 3.08061L6.75061 1.51888L4.47096 3.34259L5.72035 4.90433ZM8 3.08061V12.9194H10V3.08061H8ZM8 12.9194L5.72035 11.0956L4.47096 12.6574L6.75061 14.4811L8 12.9194ZM8 12.9194L6.75061 14.4811C8.06014 15.5287 10 14.5964 10 12.9194H8ZM8 3.08061V3.08061H10C10 1.4036 8.06014 0.471254 6.75061 1.51888L8 3.08061ZM3.35497 6.23577C3.58073 6.04484 3.87401 5.90089 4.31295 5.69985C4.70693 5.51939 5.25127 5.27959 5.72035 4.90433L4.47096 3.34259C4.23079 3.53473 3.92866 3.67605 3.4801 3.8815C3.07651 4.06636 2.53119 4.3131 2.06344 4.7087L3.35497 6.23577ZM2.06344 11.2913C2.53119 11.6869 3.07651 11.9336 3.4801 12.1185C3.92866 12.3239 4.23079 12.4652 4.47096 12.6574L5.72035 11.0956C5.25127 10.7204 4.70693 10.4806 4.31295 10.3001C3.87401 10.0991 3.58073 9.95514 3.35497 9.7642L2.06344 11.2913Z" fill="black"/>
</svg>
