<svg width="16" height="16" viewBox="0 0 16 16" fill="none" xmlns="http://www.w3.org/2000/svg">
<rect width="16" height="16" fill="white"/>
<path d="M2 4.99998H1H2ZM2 13H3H2ZM13 14V13V14ZM3 14L3 15H3L3 14ZM14 5H13H14ZM14 13H15H14ZM13 4V3V4ZM11.7547 4V5V5V4ZM10.9325 3.56921L11.7547 3V3L10.9325 3.56921ZM10.1444 2.4308L9.3222 3.00001L9.3222 3.00001L10.1444 2.4308ZM4.24528 3.99998L4.24528 4.99998H4.24528V3.99998ZM3 3.99998L3 4.99998H3L3 3.99998ZM9.32221 2.00001L9.32221 1.00001L9.32221 2.00001ZM6.6778 2L6.67779 3H6.6778L6.6778 2ZM5.85561 2.43079L6.6778 3V3L5.85561 2.43079ZM5.06747 3.5692L5.88966 4.13841L5.88966 4.13841L5.06747 3.5692ZM9 9C9 9.55228 8.55228 10 8 10V12C9.65685 12 11 10.6569 11 9H9ZM8 10C7.44771 10 7 9.55228 7 9H5C5 10.6569 6.34314 12 8 12V10ZM7 9C7 8.44771 7.44771 8 8 8V6C6.34314 6 5 7.34314 5 9H7ZM8 8C8.55228 8 9 8.44771 9 9H11C11 7.34314 9.65685 6 8 6V8ZM1 4.99998L1 13H3L3 4.99998H1ZM13 13L3 13L3 15L13 15V13ZM13 5V13H15V5H13ZM13 3L11.7547 3V5H13V3ZM11.7547 3L10.9666 1.86158L9.3222 3.00001L10.1103 4.13842L11.7547 3ZM4.24528 2.99998L3 2.99998L3 4.99998L4.24528 4.99998L4.24528 2.99998ZM9.32221 1.00001L6.6778 1L6.6778 3L9.3222 3.00001L9.32221 1.00001ZM5.03342 1.86157L4.24528 2.99998L5.88966 4.13841L6.6778 3L5.03342 1.86157ZM6.67781 1C6.02151 0.999996 5.40698 1.32198 5.03342 1.86157L6.6778 3L6.67779 3L6.67781 1ZM4.24528 4.99998C4.90157 4.99998 5.51609 4.678 5.88966 4.13841L4.24528 2.99998L4.24528 2.99998V4.99998ZM11.7547 3V3L10.1103 4.13842C10.4839 4.67802 11.0984 5 11.7547 5V3ZM10.9666 1.86159C10.593 1.32199 9.97849 1.00001 9.32221 1.00001L9.3222 3.00001L9.3222 3.00001L10.9666 1.86159ZM15 5C15 3.89543 14.1046 3 13 3V5H15ZM3 4.99998H3L3 2.99998C1.89543 2.99998 1 3.89541 1 4.99998H3ZM1 13C1 14.1046 1.89543 15 3 15L3 13V13H1ZM13 15C14.1046 15 15 14.1046 15 13H13V15Z" fill="black"/>
</svg>
