<svg width="16" height="16" viewBox="0 0 16 16" fill="none" xmlns="http://www.w3.org/2000/svg">
<rect width="16" height="16" fill="white"/>
<path d="M12 5C12 4.44772 11.5523 4 11 4C10.4477 4 10 4.44772 10 5H12ZM10 11C10 11.5523 10.4477 12 11 12C11.5523 12 12 11.5523 12 11H10ZM11 8L11.5145 8.85749C11.8157 8.67677 12 8.35126 12 8C12 7.64874 11.8157 7.32323 11.5145 7.14251L11 8ZM6 11H5C5 11.3603 5.19379 11.6927 5.5073 11.8702C5.82081 12.0477 6.20557 12.0429 6.5145 11.8575L6 11ZM6 5L6.5145 4.14251C6.20556 3.95715 5.82081 3.95229 5.5073 4.1298C5.19379 4.30731 5 4.63973 5 5H6ZM14 8C14 11.3137 11.3137 14 8 14V16C12.4183 16 16 12.4183 16 8H14ZM8 14C4.68629 14 2 11.3137 2 8H0C0 12.4183 3.58172 16 8 16V14ZM2 8C2 4.68629 4.68629 2 8 2V0C3.58172 0 0 3.58172 0 8H2ZM8 2C11.3137 2 14 4.68629 14 8H16C16 3.58172 12.4183 0 8 0V2ZM10 5V11H12V5H10ZM10.4855 7.14251L5.4855 10.1425L6.5145 11.8575L11.5145 8.85749L10.4855 7.14251ZM5.4855 5.85749L10.4855 8.85749L11.5145 7.14251L6.5145 4.14251L5.4855 5.85749ZM7 11L7 5H5L5 11H7Z" fill="black"/>
</svg>
