<svg width="16" height="16" viewBox="0 0 16 16" fill="none" xmlns="http://www.w3.org/2000/svg">
<rect width="16" height="16" fill="white"/>
<path d="M14 8C14 11.3137 11.3137 14 8 14V16C12.4183 16 16 12.4183 16 8H14ZM8 14C4.68629 14 2 11.3137 2 8H0C0 12.4183 3.58172 16 8 16V14ZM2 8C2 4.68629 4.68629 2 8 2V0C3.58172 0 0 3.58172 0 8H2ZM8 2C11.3137 2 14 4.68629 14 8H16C16 3.58172 12.4183 0 8 0V2ZM7 7H9V5H7V7ZM9 7V9H11V7H9ZM9 9H7V11H9V9ZM7 9V7H5V9H7ZM7 9H5C5 10.1046 5.89543 11 7 11V9ZM9 9V11C10.1046 11 11 10.1046 11 9H9ZM9 7H11C11 5.89543 10.1046 5 9 5V7ZM7 5C5.89543 5 5 5.89543 5 7H7V5Z" fill="black"/>
</svg>
