<svg width="16" height="16" viewBox="0 0 16 16" fill="none" xmlns="http://www.w3.org/2000/svg">
<rect width="16" height="16" fill="white"/>
<path d="M3 3H4H3ZM3 13H2H3ZM12 14V13V14ZM4 14V15H4L4 14ZM13 3.00002H12H13ZM13 13H14H13ZM12 2.00002L12 1.00002L12 2.00002ZM4 2L4 3H4L4 2ZM7 2C6.44771 2 6 2.44771 6 3C6 3.55228 6.44771 4 7 4V2ZM9 4C9.55228 4 10 3.55228 10 3C10 2.44771 9.55228 2 9 2V4ZM2 3L2 13H4L4 3L2 3ZM12 13L4 13L4 15L12 15V13ZM12 3.00002V13H14V3.00002H12ZM12 1.00002L4.00001 1L4 3L12 3.00002L12 1.00002ZM14 3.00002C14 1.89545 13.1046 1.00002 12 1.00002L12 3.00002H14ZM4 3H4L4.00001 1C2.89543 0.999995 2 1.89543 2 3L4 3ZM2 13C2 14.1046 2.89543 15 4 15V13H4H2ZM12 15C13.1046 15 14 14.1046 14 13H12V15ZM9 9C9 9.55228 8.55228 10 8 10V12C9.65685 12 11 10.6569 11 9H9ZM8 10C7.44771 10 7 9.55228 7 9H5C5 10.6569 6.34314 12 8 12V10ZM7 9C7 8.44771 7.44771 8 8 8V6C6.34315 6 5 7.34314 5 9H7ZM8 8C8.55228 8 9 8.44771 9 9H11C11 7.34314 9.65685 6 8 6V8ZM7 4H9V2H7V4Z" fill="black"/>
</svg>
