<svg width="16" height="16" viewBox="0 0 16 16" fill="none" xmlns="http://www.w3.org/2000/svg">
<rect width="16" height="16" fill="white"/>
<path d="M7 13C7 12.4477 7.44772 12 8 12C8.55228 12 9 12.4477 9 13C9 13.5523 8.55228 14 8 14C7.44772 14 7 13.5523 7 13Z" stroke="black" stroke-width="2" stroke-linecap="round"/>
<path d="M2 13C2 12.4477 2.44772 12 3 12C3.55228 12 4 12.4477 4 13C4 13.5523 3.55228 14 3 14C2.44772 14 2 13.5523 2 13Z" stroke="black" stroke-width="2" stroke-linecap="round"/>
<path d="M12 13C12 12.4477 12.4477 12 13 12C13.5523 12 14 12.4477 14 13C14 13.5523 13.5523 14 13 14C12.4477 14 12 13.5523 12 13Z" stroke="black" stroke-width="2" stroke-linecap="round"/>
<path d="M7 8C7 7.44772 7.44772 7 8 7C8.55228 7 9 7.44772 9 8C9 8.55228 8.55228 9 8 9C7.44772 9 7 8.55228 7 8Z" stroke="black" stroke-width="2" stroke-linecap="round"/>
<path d="M7 3C7 2.44772 7.44772 2 8 2C8.55228 2 9 2.44772 9 3C9 3.55228 8.55228 4 8 4C7.44772 4 7 3.55228 7 3Z" stroke="black" stroke-width="2" stroke-linecap="round"/>
<path d="M12 8C12 7.44772 12.4477 7 13 7C13.5523 7 14 7.44772 14 8C14 8.55228 13.5523 9 13 9C12.4477 9 12 8.55228 12 8Z" stroke="black" stroke-width="2" stroke-linecap="round"/>
</svg>
