<svg width="16" height="16" viewBox="0 0 16 16" fill="none" xmlns="http://www.w3.org/2000/svg">
<rect width="16" height="16" fill="white"/>
<path d="M5 7V14M5 2V3.84615M11 12V13.8462M11 2V8.92308M3.5 7H6.5C7.32843 7 8 6.32843 8 5.5C8 4.67157 7.32843 4 6.5 4H3.5C2.67157 4 2 4.67157 2 5.5C2 6.32843 2.67157 7 3.5 7ZM9.5 12H12.5C13.3284 12 14 11.3284 14 10.5C14 9.67157 13.3284 9 12.5 9H9.5C8.67157 9 8 9.67157 8 10.5C8 11.3284 8.67157 12 9.5 12Z" stroke="black" stroke-width="2" stroke-linecap="round"/>
</svg>
