<svg width="16" height="16" viewBox="0 0 16 16" fill="none" xmlns="http://www.w3.org/2000/svg">
<rect width="16" height="16" fill="white"/>
<path d="M2 3H3H2ZM2 13H1H2ZM13 14V13V14ZM3 14V15H3L3 14ZM14 3.00002L15 3.00002V3.00002H14ZM14 13H13H14ZM13 2.00002L13 3.00002L13 2.00002ZM3 2L3 3H3L3 2ZM4 14C4 14.5523 4.44772 15 5 15C5.55228 15 6 14.5523 6 14H4ZM6 2C6 1.44772 5.55228 1 5 1C4.44772 1 4 1.44772 4 2H6ZM10 14C10 14.5523 10.4477 15 11 15C11.5523 15 12 14.5523 12 14H10ZM12 2C12 1.44772 11.5523 1 11 1C10.4477 1 10 1.44772 10 2H12ZM5 11C5.55228 11 6 10.5523 6 10C6 9.44772 5.55228 9 5 9V11ZM2 9C1.44772 9 1 9.44772 1 10C1 10.5523 1.44772 11 2 11V9ZM5 7C5.55228 7 6 6.55228 6 6C6 5.44772 5.55228 5 5 5V7ZM2 5C1.44772 5 1 5.44772 1 6C1 6.55228 1.44772 7 2 7V5ZM14 11C14.5523 11 15 10.5523 15 10C15 9.44772 14.5523 9 14 9V11ZM11 9C10.4477 9 10 9.44772 10 10C10 10.5523 10.4477 11 11 11V9ZM14 7C14.5523 7 15 6.55228 15 6C15 5.44772 14.5523 5 14 5V7ZM11 5C10.4477 5 10 5.44772 10 6C10 6.55228 10.4477 7 11 7V5ZM1 3L1 13H3L3 3H1ZM13 13L3 13L3 15L13 15V13ZM13 3.00002L13 13H15L15 3.00002L13 3.00002ZM13 1.00002L3.00001 1L3 3L13 3.00002L13 1.00002ZM15 3.00002C15 1.89546 14.1046 1.00003 13 1.00002L13 3.00002H15ZM3 3H3L3.00001 1C1.89543 0.999997 1 1.89543 1 3H3ZM1 13C1 14.1046 1.89543 15 3 15V13H1ZM13 15C14.1046 15 15 14.1046 15 13H13H13V15ZM6 14V2H4V14H6ZM12 14V2H10V14H12ZM5 9H2V11H5V9ZM5 5H2V7H5V5ZM14 9H11V11H14V9ZM14 5H11V7H14V5Z" fill="black"/>
</svg>
