<svg width="16" height="16" viewBox="0 0 16 16" fill="none" xmlns="http://www.w3.org/2000/svg">
<rect width="16" height="16" fill="white"/>
<path d="M12.6524 5.24213C12.2339 4.88181 11.6025 4.92901 11.2421 5.34757C10.8818 5.76612 10.929 6.39752 11.3476 6.75785L12.6524 5.24213ZM11.3476 10.2421C10.929 10.6025 10.8818 11.2339 11.2421 11.6524C11.6025 12.071 12.2339 12.1182 12.6524 11.7578L11.3476 10.2421ZM7.3753 2.29974L8 3.08061L8 3.08061L7.3753 2.29974ZM7.37531 13.7002L6.75061 14.4811L7.37531 13.7002ZM2.7092 10.5277L2.06344 11.2913L2.7092 10.5277ZM11.3476 6.75785C11.6823 7.04596 12 7.66954 12 8.49999H14C14 7.21643 13.5178 5.98709 12.6524 5.24213L11.3476 6.75785ZM12 8.49999C12 9.33043 11.6823 9.95402 11.3476 10.2421L12.6524 11.7578C13.5178 11.0129 14 9.78354 14 8.49999H12ZM3 8.99999V6.99999H1V8.99999H3ZM1 8.99999C1 9.91917 1.41461 10.7425 2.06344 11.2913L3.35497 9.7642C3.13624 9.57921 3 9.30601 3 8.99999H1ZM3 6.99999C3 6.69397 3.13624 6.42076 3.35497 6.23577L2.06344 4.7087C1.41461 5.25745 1 6.0808 1 6.99999H3ZM5.72035 4.90433L8 3.08061L6.75061 1.51888L4.47096 3.34259L5.72035 4.90433ZM8 3.08061V12.9194H10V3.08061H8ZM8 12.9194L5.72035 11.0956L4.47096 12.6574L6.75061 14.4811L8 12.9194ZM8 12.9194L6.75061 14.4811C8.06014 15.5287 10 14.5964 10 12.9194H8ZM8 3.08061V3.08061H10C10 1.4036 8.06014 0.471254 6.75061 1.51888L8 3.08061ZM3.35497 6.23577C3.58073 6.04484 3.87401 5.90089 4.31295 5.69985C4.70693 5.51939 5.25127 5.27959 5.72035 4.90433L4.47096 3.34259C4.23079 3.53473 3.92866 3.67605 3.4801 3.8815C3.07651 4.06636 2.53119 4.3131 2.06344 4.7087L3.35497 6.23577ZM2.06344 11.2913C2.53119 11.6869 3.07651 11.9336 3.4801 12.1185C3.92866 12.3239 4.23079 12.4652 4.47096 12.6574L5.72035 11.0956C5.25127 10.7204 4.70693 10.4806 4.31295 10.3001C3.87401 10.0991 3.58073 9.95514 3.35497 9.7642L2.06344 11.2913Z" fill="black"/>
</svg>
