<svg width="32" height="32" viewBox="0 0 32 32" fill="none" xmlns="http://www.w3.org/2000/svg">
<rect width="32" height="32" fill="white"/>
<path fill-rule="evenodd" clip-rule="evenodd" d="M2 7C2 4.23858 4.23858 2 7 2H25C27.7614 2 30 4.23858 30 7V25C30 27.7614 27.7614 30 25 30H7C4.23858 30 2 27.7614 2 25V7ZM28 7V15H18V9.00001C18 8.6839 17.8505 8.38641 17.5969 8.19772C17.3433 8.00902 17.0154 7.95135 16.7127 8.04218L11.7127 9.54218C11.1837 9.70088 10.8835 10.2584 11.0422 10.7874C11.2009 11.3163 11.7584 11.6165 12.2873 11.4578L16 10.344V15H4V7C4 5.34315 5.34315 4 7 4H25C26.6569 4 28 5.34315 28 7ZM16 17H4V25C4 26.6569 5.34315 28 7 28H25C26.6569 28 28 26.6569 28 25V17H18V23C18 23.5523 17.5523 24 17 24C16.4477 24 16 23.5523 16 23V17Z" fill="black"/>
</svg>
