<svg width="32" height="32" viewBox="0 0 32 32" fill="none" xmlns="http://www.w3.org/2000/svg">
<rect width="32" height="32" fill="white"/>
<path fill-rule="evenodd" clip-rule="evenodd" d="M8.70711 2.29289C9.09763 2.68342 9.09763 3.31658 8.70711 3.70711L3.70711 8.70711C3.31658 9.09763 2.68342 9.09763 2.29289 8.70711C1.90237 8.31658 1.90237 7.68342 2.29289 7.29289L7.29289 2.29289C7.68342 1.90237 8.31658 1.90237 8.70711 2.29289ZM23.2929 2.29289C23.6834 1.90237 24.3166 1.90237 24.7071 2.29289L29.7071 7.29289C30.0976 7.68342 30.0976 8.31658 29.7071 8.70711C29.3166 9.09763 28.6834 9.09763 28.2929 8.70711L23.2929 3.70711C22.9024 3.31658 22.9024 2.68342 23.2929 2.29289ZM16 6C10.4772 6 6 10.4772 6 16C6 21.5229 10.4772 26 16 26C21.5229 26 26 21.5229 26 16C26 10.4772 21.5229 6 16 6ZM4 16C4 9.37258 9.37259 4 16 4C22.6274 4 28 9.37258 28 16C28 20.005 26.038 23.5517 23.0228 25.7315L24.8321 28.4453C25.1384 28.9048 25.0142 29.5257 24.5547 29.8321C24.0952 30.1384 23.4743 30.0142 23.1679 29.5547L21.3082 26.7651C19.7079 27.5557 17.9058 28 16 28C14.0942 28 12.2921 27.5557 10.6918 26.7651L8.83205 29.5547C8.5257 30.0142 7.90483 30.1384 7.4453 29.8321C6.98577 29.5257 6.8616 28.9048 7.16795 28.4453L8.97718 25.7314C5.96196 23.5517 4 20.005 4 16ZM20 16.9166L13 16.9166C12.4477 16.9166 12 16.4689 12 15.9166C12 15.3643 12.4477 14.9166 13 14.9166L20 14.9166C20.5523 14.9166 21 15.3643 21 15.9166C21 16.4689 20.5523 16.9166 20 16.9166Z" fill="black"/>
</svg>
