<svg width="32" height="32" viewBox="0 0 32 32" fill="none" xmlns="http://www.w3.org/2000/svg">
<rect width="32" height="32" fill="white"/>
<path fill-rule="evenodd" clip-rule="evenodd" d="M11.5 3C11.5 2.44772 11.9477 2 12.5 2L20 2C20.5523 2 21 2.44772 21 3C21 3.55229 20.5523 4 20 4L12.5 4C11.9477 4 11.5 3.55228 11.5 3ZM15 7C15 6.44772 15.4477 6 16 6C22.6274 6 28 11.3726 28 18C28 24.6274 22.6274 30 16 30C9.37258 30 4 24.6274 4 18C4 15.1087 5.02379 12.4539 6.72766 10.3822C7.07847 9.95562 7.70865 9.89422 8.13521 10.245C8.56176 10.5959 8.62316 11.226 8.27234 11.6526C6.85201 13.3796 6 15.589 6 18C6 23.5228 10.4772 28 16 28C21.5228 28 26 23.5228 26 18C26 12.4772 21.5228 8 16 8C15.4477 8 15 7.55229 15 7ZM10.3273 12.7601C10.736 12.3886 11.3684 12.4187 11.7399 12.8273L16.7399 18.3273C17.1114 18.736 17.0813 19.3684 16.6727 19.7399C16.264 20.1114 15.6316 20.0813 15.2601 19.6727L10.2601 14.1727C9.88855 13.764 9.91867 13.1316 10.3273 12.7601Z" fill="black"/>
</svg>
