<svg width="16" height="16" viewBox="0 0 16 16" fill="none" xmlns="http://www.w3.org/2000/svg">
<rect width="16" height="16" fill="white"/>
<path d="M6 6C5.44771 6 5 6.44772 5 7C5 7.55228 5.44771 8 6 8H10C10.5523 8 11 7.55228 11 7C11 6.44772 10.5523 6 10 6H6Z" fill="black"/>
<path fill-rule="evenodd" clip-rule="evenodd" d="M15 12V3.00002C15 1.89545 14.1046 1.00002 13 1.00002L3 1C1.89543 0.999998 1 1.89543 1 3V13.382C1 14.8687 2.56462 15.8357 3.89443 15.1708L6.23607 14H13C14.1046 14 15 13.1046 15 12ZM13 3.00002V12L6.23607 12C5.92558 12 5.61935 12.0723 5.34164 12.2111L3 13.382L3 3L13 3.00002Z" fill="black"/>
</svg>
