<svg width="16" height="16" viewBox="0 0 16 16" fill="none" xmlns="http://www.w3.org/2000/svg">
<rect width="16" height="16" fill="white"/>
<path d="M12.1857 13.9999V12.9999V13.9999ZM3.81438 14V15H3.81438L3.81438 14ZM13.8714 7.11458L14.8649 7.2292L13.8714 7.11458ZM13.1791 13.1146L12.1857 12.9999L13.1791 13.1146ZM2.12867 7.11458L3.12208 6.99996L3.12208 6.99996L2.12867 7.11458ZM2.82097 13.1146L1.82757 13.2292L1.82757 13.2292L2.82097 13.1146ZM12.878 5.99995V4.99995H12.878L12.878 5.99995ZM3.12207 5.99996L3.12208 6.99996L3.12207 5.99996ZM6.9267 3.55471C7.23305 3.09518 7.10888 2.47431 6.64936 2.16795C6.18983 1.8616 5.56896 1.98577 5.2626 2.44529L6.9267 3.55471ZM3.26261 5.44524C2.95626 5.90477 3.08043 6.52564 3.53996 6.832C3.99948 7.13835 4.62035 7.01418 4.92671 6.55465L3.26261 5.44524ZM10.9267 2.44535C10.6203 1.98582 9.99947 1.86166 9.53995 2.16802C9.08042 2.47438 8.95626 3.09525 9.26262 3.55478L10.9267 2.44535ZM11.2626 6.55466C11.569 7.01419 12.1899 7.13835 12.6494 6.83199C13.1089 6.52563 13.2331 5.90476 12.9267 5.44524L11.2626 6.55466ZM12.1857 12.9999L3.81438 13L3.81438 15L12.1857 14.9999V12.9999ZM12.878 6.99995L12.1857 12.9999L14.1725 13.2292L14.8649 7.2292L12.878 6.99995ZM1.13526 7.22921L1.82757 13.2292L3.81438 13L3.12208 6.99996L1.13526 7.22921ZM12.878 4.99995L3.12207 4.99996L3.12208 6.99996L12.878 6.99995L12.878 4.99995ZM14.8649 7.2292C15.0019 6.04168 14.0734 4.99995 12.878 4.99995V6.99995L12.878 6.99995L14.8649 7.2292ZM3.12208 6.99996L3.12208 6.99996L3.12207 4.99996C1.92668 4.99996 0.998236 6.04169 1.13526 7.22921L3.12208 6.99996ZM3.81438 13L3.81438 12.9999L1.82757 13.2292C1.94401 14.2384 2.79851 15 3.81438 15V13ZM12.1857 14.9999C13.2016 14.9999 14.0561 14.2384 14.1725 13.2292L12.1857 12.9999V12.9999V14.9999ZM5.2626 2.44529L3.26261 5.44524L4.92671 6.55465L6.9267 3.55471L5.2626 2.44529ZM9.26262 3.55478L11.2626 6.55466L12.9267 5.44524L10.9267 2.44535L9.26262 3.55478Z" fill="black"/>
</svg>
