<svg width="16" height="16" viewBox="0 0 16 16" fill="none" xmlns="http://www.w3.org/2000/svg">
<rect width="16" height="16" fill="white"/>
<path d="M3 4H12.5789C13.2321 4 13.7099 4.61591 13.5476 5.24855L12.7777 8.2487C12.6642 8.69093 12.2657 9.00016 11.8091 9.00016H5.49628C5.0741 9.00016 4.6974 8.73502 4.55493 8.33761L3 4ZM3 4L2 2M7 12.5C7 13.3284 6.32843 14 5.5 14C4.67157 14 4 13.3284 4 12.5C4 11.6716 4.67157 11 5.5 11C6.32843 11 7 11.6716 7 12.5ZM13 12.5C13 13.3284 12.3284 14 11.5 14C10.6716 14 10 13.3284 10 12.5C10 11.6716 10.6716 11 11.5 11C12.3284 11 13 11.6716 13 12.5Z" stroke="black" stroke-width="2" stroke-linecap="round"/>
</svg>
