<svg width="16" height="16" viewBox="0 0 16 16" fill="none" xmlns="http://www.w3.org/2000/svg">
<rect width="16" height="16" fill="white"/>
<path d="M2 4H1H2ZM2 12H3H2ZM12 14V13V14ZM4 14V15H4L4 14ZM14 4.00002H13H14ZM14 12H15H14ZM12 2.00002L12 1.00002L12 2.00002ZM4 2L4 3L4 2ZM14 10V11C14.5523 11 15 10.5523 15 10H14ZM10 10V11V10ZM14 6H15V5.00001L14 5L14 6ZM10 6L10 7H10L10 6ZM8 8H7H8ZM1 4L1 12H3L3 4H1ZM12 13L4 13L4 15L12 15V13ZM13 4.00002V12H15V4.00002H13ZM12 1.00002L4.00001 1L4 3L12 3.00002L12 1.00002ZM15 4.00002C15 2.34317 13.6569 1.00002 12 1.00002L12 3.00002C12.5523 3.00002 13 3.44773 13 4.00002H15ZM3 4C3 3.44771 3.44772 3 4 3L4.00001 1C2.34315 0.999996 1 2.34314 1 4H3ZM1 12C1 13.6568 2.34315 15 4 15V13C3.44772 13 3 12.5523 3 12H1ZM12 15C13.6569 15 15 13.6568 15 12H13C13 12.5523 12.5523 13 12 13V15ZM14 9L10 9V11L14 11V9ZM13 6V10H15V6H13ZM14 5L10 5L10 7L14 7L14 5ZM9 8C9 7.44771 9.44772 7 10 7L10 5C8.34315 4.99999 7 6.34314 7 8H9ZM7 8C7 9.65685 8.34314 11 10 11V9C9.44771 9 9 8.55228 9 8H7Z" fill="black"/>
</svg>
