<svg width="16" height="16" viewBox="0 0 16 16" fill="none" xmlns="http://www.w3.org/2000/svg">
<rect width="16" height="16" fill="white"/>
<path d="M9.75543 10.6552C10.1173 10.238 10.0724 9.60644 9.65522 9.24457C9.23801 8.8827 8.60644 8.92756 8.24457 9.34478L9.75543 10.6552ZM5.84489 13.6377L6.60033 14.2929L6.60033 14.2929L5.84489 13.6377ZM5 9.39515C5 8.84287 4.55228 8.39515 4 8.39515C3.44772 8.39515 3 8.84287 3 9.39515H5ZM6 7C6.55228 7 7 6.55228 7 6C7 5.44772 6.55228 5 6 5V7ZM5.5 5C4.94772 5 4.5 5.44772 4.5 6C4.5 6.55228 4.94772 7 5.5 7V5ZM13 6.57143C13 7.03278 12.6025 7.64589 11.3063 8.19279C10.0838 8.7086 8.39741 9 6.69565 9V11C8.58638 11 10.5522 10.6817 12.0837 10.0355C13.5416 9.4204 15 8.31922 15 6.57143H13ZM6.69565 9C5.35449 9 4.44005 8.6117 3.87183 8.0911C3.30757 7.57413 3 6.85112 3 6H1C1 7.35802 1.50488 8.63501 2.52076 9.56575C3.53268 10.4929 4.96607 11 6.69565 11V9ZM3 6C3 5.14888 3.30757 4.42587 3.87183 3.9089C4.44005 3.3883 5.35449 3 6.69565 3V1C4.96607 1 3.53268 1.50713 2.52076 2.43425C1.50488 3.36499 1 4.64198 1 6H3ZM6.69565 3C8.16885 3 9.86085 3.33306 11.1559 3.88438C11.8044 4.16046 12.3002 4.46894 12.618 4.77237C12.9354 5.07538 13 5.29571 13 5.42857H15C15 4.56143 14.5515 3.85319 13.9992 3.32585C13.4473 2.79892 12.7169 2.37525 11.9393 2.04419C10.382 1.38123 8.42183 1 6.69565 1V3ZM13 5.42857C13 5.42935 13 5.43013 13 5.43092C13 5.4317 13 5.43248 13 5.43326C13 5.43404 13 5.43482 13 5.4356C13 5.43638 13 5.43717 13 5.43795C13 5.43873 13 5.43951 13 5.44029C13 5.44107 13 5.44185 13 5.44264C13 5.44342 13 5.4442 13 5.44498C13 5.44576 13 5.44654 13 5.44732C13 5.4481 13 5.44889 13 5.44967C13 5.45045 13 5.45123 13 5.45201C13 5.45279 13 5.45357 13 5.45436C13 5.45514 13 5.45592 13 5.4567C13 5.45748 13 5.45826 13 5.45904C13 5.45983 13 5.46061 13 5.46139C13 5.46217 13 5.46295 13 5.46373C13 5.46451 13 5.46529 13 5.46608C13 5.46686 13 5.46764 13 5.46842C13 5.4692 13 5.46998 13 5.47076C13 5.47155 13 5.47233 13 5.47311C13 5.47389 13 5.47467 13 5.47545C13 5.47623 13 5.47702 13 5.4778C13 5.47858 13 5.47936 13 5.48014C13 5.48092 13 5.4817 13 5.48249C13 5.48327 13 5.48405 13 5.48483C13 5.48561 13 5.48639 13 5.48717C13 5.48795 13 5.48874 13 5.48952C13 5.4903 13 5.49108 13 5.49186C13 5.49264 13 5.49342 13 5.49421C13 5.49499 13 5.49577 13 5.49655C13 5.49733 13 5.49811 13 5.49889C13 5.49968 13 5.50046 13 5.50124C13 5.50202 13 5.5028 13 5.50358C13 5.50436 13 5.50514 13 5.50593C13 5.50671 13 5.50749 13 5.50827C13 5.50905 13 5.50983 13 5.51061C13 5.51139 13 5.51218 13 5.51296C13 5.51374 13 5.51452 13 5.5153C13 5.51608 13 5.51686 13 5.51764C13 5.51843 13 5.51921 13 5.51999C13 5.52077 13 5.52155 13 5.52233C13 5.52311 13 5.52389 13 5.52467C13 5.52546 13 5.52624 13 5.52702C13 5.5278 13 5.52858 13 5.52936C13 5.53014 13 5.53092 13 5.5317C13 5.53249 13 5.53327 13 5.53405C13 5.53483 13 5.53561 13 5.53639C13 5.53717 13 5.53795 13 5.53873C13 5.53951 13 5.5403 13 5.54108C13 5.54186 13 5.54264 13 5.54342C13 5.5442 13 5.54498 13 5.54576C13 5.54654 13 5.54732 13 5.5481C13 5.54889 13 5.54967 13 5.55045C13 5.55123 13 5.55201 13 5.55279C13 5.55357 13 5.55435 13 5.55513C13 5.55591 13 5.55669 13 5.55747C13 5.55825 13 5.55904 13 5.55982C13 5.5606 13 5.56138 13 5.56216C13 5.56294 13 5.56372 13 5.5645C13 5.56528 13 5.56606 13 5.56684C13 5.56762 13 5.5684 13 5.56918C13 5.56996 13 5.57074 13 5.57153C13 5.57231 13 5.57309 13 5.57387C13 5.57465 13 5.57543 13 5.57621C13 5.57699 13 5.57777 13 5.57855C13 5.57933 13 5.58011 13 5.58089C13 5.58167 13 5.58245 13 5.58323C13 5.58401 13 5.58479 13 5.58557C13 5.58635 13 5.58713 13 5.58791C13 5.58869 13 5.58947 13 5.59025C13 5.59103 13 5.59181 13 5.59259C13 5.59337 13 5.59415 13 5.59493C13 5.59571 13 5.59649 13 5.59727C13 5.59805 13 5.59883 13 5.59961C13 5.60039 13 5.60117 13 5.60195C13 5.60273 13 5.60351 13 5.60429C13 5.60507 13 5.60585 13 5.60663C13 5.60741 13 5.60819 13 5.60897C13 5.60975 13 5.61053 13 5.61131C13 5.61209 13 5.61287 13 5.61365C13 5.61443 13 5.61521 13 5.61599C13 5.61677 13 5.61755 13 5.61833C13 5.61911 13 5.61988 13 5.62066C13 5.62144 13 5.62222 13 5.623C13 5.62378 13 5.62456 13 5.62534C13 5.62612 13 5.6269 13 5.62768C13 5.62846 13 5.62924 13 5.63002C13 5.6308 13 5.63157 13 5.63235C13 5.63313 13 5.63391 13 5.63469C13 5.63547 13 5.63625 13 5.63703C13 5.63781 13 5.63859 13 5.63936C13 5.64014 13 5.64092 13 5.6417C13 5.64248 13 5.64326 13 5.64404C13 5.64482 13 5.64559 13 5.64637C13 5.64715 13 5.64793 13 5.64871C13 5.64949 13 5.65027 13 5.65105C13 5.65182 13 5.6526 13 5.65338C13 5.65416 13 5.65494 13 5.65572C13 5.65649 13 5.65727 13 5.65805C13 5.65883 13 5.65961 13 5.66039C13 5.66116 13 5.66194 13 5.66272C13 5.6635 13 5.66428 13 5.66505C13 5.66583 13 5.66661 13 5.66739C13 5.66817 13 5.66894 13 5.66972C13 5.6705 13 5.67128 13 5.67206C13 5.67283 13 5.67361 13 5.67439C13 5.67517 13 5.67595 13 5.67672C13 5.6775 13 5.67828 13 5.67906C13 5.67983 13 5.68061 13 5.68139C13 5.68217 13 5.68294 13 5.68372C13 5.6845 13 5.68528 13 5.68605C13 5.68683 13 5.68761 13 5.68838C13 5.68916 13 5.68994 13 5.69072C13 5.69149 13 5.69227 13 5.69305C13 5.69382 13 5.6946 13 5.69538C13 5.69616 13 5.69693 13 5.69771C13 5.69849 13 5.69926 13 5.70004C13 5.70082 13 5.70159 13 5.70237C13 5.70315 13 5.70392 13 5.7047C13 5.70548 13 5.70625 13 5.70703C13 5.70781 13 5.70858 13 5.70936C13 5.71014 13 5.71091 13 5.71169C13 5.71246 13 5.71324 13 5.71402C13 5.71479 13 5.71557 13 5.71635C13 5.71712 13 5.7179 13 5.71867C13 5.71945 13 5.72023 13 5.721C13 5.72178 13 5.72255 13 5.72333C13 5.7241 13 5.72488 13 5.72566C13 5.72643 13 5.72721 13 5.72798C13 5.72876 13 5.72953 13 5.73031C13 5.73109 13 5.73186 13 5.73264C13 5.73341 13 5.73419 13 5.73496C13 5.73574 13 5.73651 13 5.73729C13 5.73806 13 5.73884 13 5.73961C13 5.74039 13 5.74116 13 5.74194C13 5.74271 13 5.74349 13 5.74426C13 5.74504 13 5.74581 13 5.74659C13 5.74736 13 5.74814 13 5.74891C13 5.74969 13 5.75046 13 5.75124C13 5.75201 13 5.75278 13 5.75356C13 5.75433 13 5.75511 13 5.75588C13 5.75666 13 5.75743 13 5.7582C13 5.75898 13 5.75975 13 5.76053C13 5.7613 13 5.76207 13 5.76285C13 5.76362 13 5.7644 13 5.76517C13 5.76594 13 5.76672 13 5.76749C13 5.76826 13 5.76904 13 5.76981C13 5.77059 13 5.77136 13 5.77213C13 5.77291 13 5.77368 13 5.77445C13 5.77523 13 5.776 13 5.77677C13 5.77755 13 5.77832 13 5.77909C13 5.77986 13 5.78064 13 5.78141C13 5.78218 13 5.78296 13 5.78373C13 5.7845 13 5.78527 13 5.78605C13 5.78682 13 5.78759 13 5.78837C13 5.78914 13 5.78991 13 5.79068C13 5.79146 13 5.79223 13 5.793C13 5.79377 13 5.79454 13 5.79532C13 5.79609 13 5.79686 13 5.79763C13 5.7984 13 5.79918 13 5.79995C13 5.80072 13 5.80149 13 5.80226C13 5.80304 13 5.80381 13 5.80458C13 5.80535 13 5.80612 13 5.80689C13 5.80767 13 5.80844 13 5.80921C13 5.80998 13 5.81075 13 5.81152C13 5.81229 13 5.81306 13 5.81384C13 5.81461 13 5.81538 13 5.81615C13 5.81692 13 5.81769 13 5.81846C13 5.81923 13 5.82 13 5.82077C13 5.82154 13 5.82231 13 5.82308C13 5.82385 13 5.82463 13 5.8254C13 5.82617 13 5.82694 13 5.82771C13 5.82848 13 5.82925 13 5.83002C13 5.83079 13 5.83156 13 5.83233C13 5.8331 13 5.83387 13 5.83464C13 5.83541 13 5.83618 13 5.83695C13 5.83772 13 5.83848 13 5.83925C13 5.84002 13 5.84079 13 5.84156C13 5.84233 13 5.8431 13 5.84387C13 5.84464 13 5.84541 13 5.84618C13 5.84695 13 5.84772 13 5.84848C13 5.84925 13 5.85002 13 5.85079C13 5.85156 13 5.85233 13 5.8531C13 5.85387 13 5.85463 13 5.8554C13 5.85617 13 5.85694 13 5.85771C13 5.85848 13 5.85924 13 5.86001C13 5.86078 13 5.86155 13 5.86232C13 5.86308 13 5.86385 13 5.86462C13 5.86539 13 5.86615 13 5.86692C13 5.86769 13 5.86846 13 5.86922C13 5.86999 13 5.87076 13 5.87153C13 5.87229 13 5.87306 13 5.87383C13 5.8746 13 5.87536 13 5.87613C13 5.8769 13 5.87766 13 5.87843C13 5.8792 13 5.87996 13 5.88073C13 5.8815 13 5.88226 13 5.88303C13 5.8838 13 5.88456 13 5.88533C13 5.88609 13 5.88686 13 5.88763C13 5.88839 13 5.88916 13 5.88993C13 5.89069 13 5.89146 13 5.89222C13 5.89299 13 5.89375 13 5.89452C13 5.89529 13 5.89605 13 5.89682C13 5.89758 13 5.89835 13 5.89911C13 5.89988 13 5.90064 13 5.90141C13 5.90217 13 5.90294 13 5.9037C13 5.90447 13 5.90523 13 5.906C13 5.90676 13 5.90753 13 5.90829C13 5.90906 13 5.90982 13 5.91058C13 5.91135 13 5.91211 13 5.91288C13 5.91364 13 5.91441 13 5.91517C13 5.91593 13 5.9167 13 5.91746C13 5.91822 13 5.91899 13 5.91975C13 5.92052 13 5.92128 13 5.92204C13 5.92281 13 5.92357 13 5.92433C13 5.9251 13 5.92586 13 5.92662C13 5.92739 13 5.92815 13 5.92891C13 5.92967 13 5.93044 13 5.9312C13 5.93196 13 5.93272 13 5.93349C13 5.93425 13 5.93501 13 5.93577C13 5.93654 13 5.9373 13 5.93806C13 5.93882 13 5.93959 13 5.94035C13 5.94111 13 5.94187 13 5.94263C13 5.94339 13 5.94416 13 5.94492C13 5.94568 13 5.94644 13 5.9472C13 5.94796 13 5.94872 13 5.94949C13 5.95025 13 5.95101 13 5.95177C13 5.95253 13 5.95329 13 5.95405C13 5.95481 13 5.95557 13 5.95633C13 5.95709 13 5.95785 13 5.95862C13 5.95938 13 5.96014 13 5.9609C13 5.96166 13 5.96242 13 5.96318C13 5.96394 13 5.9647 13 5.96546C13 5.96622 13 5.96697 13 5.96773C13 5.96849 13 5.96925 13 5.97001C13 5.97077 13 5.97153 13 5.97229C13 5.97305 13 5.97381 13 5.97457C13 5.97533 13 5.97609 13 5.97684C13 5.9776 13 5.97836 13 5.97912C13 5.97988 13 5.98064 13 5.9814C13 5.98215 13 5.98291 13 5.98367C13 5.98443 13 5.98519 13 5.98594C13 5.9867 13 5.98746 13 5.98822C13 5.98898 13 5.98973 13 5.99049C13 5.99125 13 5.99201 13 5.99276C13 5.99352 13 5.99428 13 5.99503C13 5.99579 13 5.99655 13 5.9973C13 5.99806 13 5.99882 13 5.99958C13 6.00033 13 6.00109 13 6.00184C13 6.0026 13 6.00336 13 6.00411C13 6.00487 13 6.00563 13 6.00638C13 6.00714 13 6.00789 13 6.00865C13 6.00941 13 6.01016 13 6.01092C13 6.01167 13 6.01243 13 6.01318C13 6.01394 13 6.01469 13 6.01545C13 6.0162 13 6.01696 13 6.01771C13 6.01847 13 6.01922 13 6.01998C13 6.02073 13 6.02149 13 6.02224C13 6.02299 13 6.02375 13 6.0245C13 6.02526 13 6.02601 13 6.02677C13 6.02752 13 6.02827 13 6.02903C13 6.02978 13 6.03053 13 6.03129C13 6.03204 13 6.03279 13 6.03355C13 6.0343 13 6.03505 13 6.03581C13 6.03656 13 6.03731 13 6.03807C13 6.03882 13 6.03957 13 6.04032C13 6.04108 13 6.04183 13 6.04258C13 6.04333 13 6.04409 13 6.04484C13 6.04559 13 6.04634 13 6.04709C13 6.04785 13 6.0486 13 6.04935C13 6.0501 13 6.05085 13 6.0516C13 6.05236 13 6.05311 13 6.05386C13 6.05461 13 6.05536 13 6.05611C13 6.05686 13 6.05761 13 6.05836C13 6.05911 13 6.05986 13 6.06062C13 6.06137 13 6.06212 13 6.06287C13 6.06362 13 6.06437 13 6.06512C13 6.06587 13 6.06662 13 6.06737C13 6.06812 13 6.06886 13 6.06961C13 6.07036 13 6.07111 13 6.07186C13 6.07261 13 6.07336 13 6.07411C13 6.07486 13 6.07561 13 6.07636C13 6.0771 13 6.07785 13 6.0786C13 6.07935 13 6.0801 13 6.08085C13 6.08159 13 6.08234 13 6.08309C13 6.08384 13 6.08459 13 6.08533C13 6.08608 13 6.08683 13 6.08758C13 6.08832 13 6.08907 13 6.08982C13 6.09057 13 6.09131 13 6.09206C13 6.09281 13 6.09355 13 6.0943C13 6.09505 13 6.09579 13 6.09654C13 6.09729 13 6.09803 13 6.09878C13 6.09953 13 6.10027 13 6.10102C13 6.10176 13 6.10251 13 6.10325C13 6.104 13 6.10475 13 6.10549C13 6.10624 13 6.10698 13 6.10773C13 6.10847 13 6.10922 13 6.10996C13 6.11071 13 6.11145 13 6.1122C13 6.11294 13 6.11369 13 6.11443C13 6.11517 13 6.11592 13 6.11666C13 6.11741 13 6.11815 13 6.11889C13 6.11964 13 6.12038 13 6.12112C13 6.12187 13 6.12261 13 6.12335C13 6.1241 13 6.12484 13 6.12558C13 6.12633 13 6.12707 13 6.12781C13 6.12856 13 6.1293 13 6.13004C13 6.13078 13 6.13153 13 6.13227C13 6.13301 13 6.13375 13 6.13449C13 6.13524 13 6.13598 13 6.13672C13 6.13746 13 6.1382 13 6.13894C13 6.13969 13 6.14043 13 6.14117C13 6.14191 13 6.14265 13 6.14339C13 6.14413 13 6.14487 13 6.14561C13 6.14635 13 6.14709 13 6.14783C13 6.14857 13 6.14931 13 6.15005C13 6.15079 13 6.15153 13 6.15227C13 6.15301 13 6.15375 13 6.15449C13 6.15523 13 6.15597 13 6.15671C13 6.15745 13 6.15819 13 6.15893C13 6.15967 13 6.1604 13 6.16114C13 6.16188 13 6.16262 13 6.16336C13 6.1641 13 6.16483 13 6.16557C13 6.16631 13 6.16705 13 6.16779C13 6.16852 13 6.16926 13 6.17C13 6.17074 13 6.17147 13 6.17221C13 6.17295 13 6.17368 13 6.17442C13 6.17516 13 6.17589 13 6.17663C13 6.17737 13 6.1781 13 6.17884C13 6.17958 13 6.18031 13 6.18105C13 6.18178 13 6.18252 13 6.18326C13 6.18399 13 6.18473 13 6.18546C13 6.1862 13 6.18693 13 6.18767C13 6.1884 13 6.18914 13 6.18987C13 6.19061 13 6.19134 13 6.19208C13 6.19281 13 6.19355 13 6.19428C13 6.19501 13 6.19575 13 6.19648C13 6.19722 13 6.19795 13 6.19868C13 6.19942 13 6.20015 13 6.20088C13 6.20162 13 6.20235 13 6.20308C13 6.20382 13 6.20455 13 6.20528C13 6.20601 13 6.20675 13 6.20748C13 6.20821 13 6.20894 13 6.20968C13 6.21041 13 6.21114 13 6.21187C13 6.2126 13 6.21333 13 6.21407C13 6.2148 13 6.21553 13 6.21626C13 6.21699 13 6.21772 13 6.21845C13 6.21918 13 6.21991 13 6.22064C13 6.22137 13 6.22211 13 6.22284C13 6.22357 13 6.2243 13 6.22503C13 6.22576 13 6.22649 13 6.22721C13 6.22794 13 6.22867 13 6.2294C13 6.23013 13 6.23086 13 6.23159C13 6.23232 13 6.23305 13 6.23378C13 6.23451 13 6.23523 13 6.23596C13 6.23669 13 6.23742 13 6.23815C13 6.23887 13 6.2396 13 6.24033C13 6.24106 13 6.24179 13 6.24251C13 6.24324 13 6.24397 13 6.24469C13 6.24542 13 6.24615 13 6.24688C13 6.2476 13 6.24833 13 6.24905C13 6.24978 13 6.25051 13 6.25123C13 6.25196 13 6.25269 13 6.25341C13 6.25414 13 6.25486 13 6.25559C13 6.25631 13 6.25704 13 6.25776C13 6.25849 13 6.25921 13 6.25994C13 6.26066 13 6.26139 13 6.26211C13 6.26284 13 6.26356 13 6.26429C13 6.26501 13 6.26573 13 6.26646C13 6.26718 13 6.2679 13 6.26863C13 6.26935 13 6.27007 13 6.2708C13 6.27152 13 6.27224 13 6.27297C13 6.27369 13 6.27441 13 6.27513C13 6.27586 13 6.27658 13 6.2773C13 6.27802 13 6.27875 13 6.27947C13 6.28019 13 6.28091 13 6.28163C13 6.28235 13 6.28307 13 6.2838C13 6.28452 13 6.28524 13 6.28596C13 6.28668 13 6.2874 13 6.28812C13 6.28884 13 6.28956 13 6.29028C13 6.291 13 6.29172 13 6.29244C13 6.29316 13 6.29388 13 6.2946C13 6.29532 13 6.29604 13 6.29676C13 6.29748 13 6.2982 13 6.29891C13 6.29963 13 6.30035 13 6.30107C13 6.30179 13 6.30251 13 6.30322C13 6.30394 13 6.30466 13 6.30538C13 6.3061 13 6.30681 13 6.30753C13 6.30825 13 6.30896 13 6.30968C13 6.3104 13 6.31112 13 6.31183C13 6.31255 13 6.31327 13 6.31398C13 6.3147 13 6.31541 13 6.31613C13 6.31685 13 6.31756 13 6.31828C13 6.31899 13 6.31971 13 6.32042C13 6.32114 13 6.32185 13 6.32257C13 6.32328 13 6.324 13 6.32471C13 6.32543 13 6.32614 13 6.32686C13 6.32757 13 6.32828 13 6.329C13 6.32971 13 6.33042 13 6.33114C13 6.33185 13 6.33257 13 6.33328C13 6.33399 13 6.3347 13 6.33542C13 6.33613 13 6.33684 13 6.33755C13 6.33827 13 6.33898 13 6.33969C13 6.3404 13 6.34111 13 6.34183C13 6.34254 13 6.34325 13 6.34396C13 6.34467 13 6.34538 13 6.34609C13 6.34681 13 6.34752 13 6.34823C13 6.34894 13 6.34965 13 6.35036C13 6.35107 13 6.35178 13 6.35249C13 6.3532 13 6.35391 13 6.35462C13 6.35533 13 6.35603 13 6.35674C13 6.35745 13 6.35816 13 6.35887C13 6.35958 13 6.36029 13 6.361C13 6.3617 13 6.36241 13 6.36312C13 6.36383 13 6.36454 13 6.36524C13 6.36595 13 6.36666 13 6.36737C13 6.36807 13 6.36878 13 6.36949C13 6.37019 13 6.3709 13 6.37161C13 6.37231 13 6.37302 13 6.37373C13 6.37443 13 6.37514 13 6.37584C13 6.37655 13 6.37725 13 6.37796C13 6.37866 13 6.37937 13 6.38007C13 6.38078 13 6.38148 13 6.38219C13 6.38289 13 6.3836 13 6.3843C13 6.38501 13 6.38571 13 6.38641C13 6.38712 13 6.38782 13 6.38853C13 6.38923 13 6.38993 13 6.39063C13 6.39134 13 6.39204 13 6.39274C13 6.39345 13 6.39415 13 6.39485C13 6.39555 13 6.39625 13 6.39696C13 6.39766 13 6.39836 13 6.39906C13 6.39976 13 6.40046 13 6.40117C13 6.40187 13 6.40257 13 6.40327C13 6.40397 13 6.40467 13 6.40537C13 6.40607 13 6.40677 13 6.40747C13 6.40817 13 6.40887 13 6.40957C13 6.41027 13 6.41097 13 6.41167C13 6.41237 13 6.41306 13 6.41376C13 6.41446 13 6.41516 13 6.41586C13 6.41656 13 6.41726 13 6.41795C13 6.41865 13 6.41935 13 6.42005C13 6.42074 13 6.42144 13 6.42214C13 6.42284 13 6.42353 13 6.42423C13 6.42493 13 6.42562 13 6.42632C13 6.42702 13 6.42771 13 6.42841C13 6.4291 13 6.4298 13 6.43049C13 6.43119 13 6.43189 13 6.43258C13 6.43328 13 6.43397 13 6.43467C13 6.43536 13 6.43605 13 6.43675C13 6.43744 13 6.43814 13 6.43883C13 6.43952 13 6.44022 13 6.44091C13 6.44161 13 6.4423 13 6.44299C13 6.44369 13 6.44438 13 6.44507C13 6.44576 13 6.44646 13 6.44715C13 6.44784 13 6.44853 13 6.44922C13 6.44992 13 6.45061 13 6.4513C13 6.45199 13 6.45268 13 6.45337C13 6.45406 13 6.45475 13 6.45545C13 6.45614 13 6.45683 13 6.45752C13 6.45821 13 6.4589 13 6.45959C13 6.46028 13 6.46097 13 6.46166C13 6.46234 13 6.46303 13 6.46372C13 6.46441 13 6.4651 13 6.46579C13 6.46648 13 6.46717 13 6.46785C13 6.46854 13 6.46923 13 6.46992C13 6.4706 13 6.47129 13 6.47198C13 6.47267 13 6.47335 13 6.47404C13 6.47473 13 6.47541 13 6.4761C13 6.47679 13 6.47747 13 6.47816C13 6.47885 13 6.47953 13 6.48022C13 6.4809 13 6.48159 13 6.48227C13 6.48296 13 6.48364 13 6.48433C13 6.48501 13 6.4857 13 6.48638C13 6.48706 13 6.48775 13 6.48843C13 6.48912 13 6.4898 13 6.49048C13 6.49117 13 6.49185 13 6.49253C13 6.49322 13 6.4939 13 6.49458C13 6.49526 13 6.49595 13 6.49663C13 6.49731 13 6.49799 13 6.49867C13 6.49936 13 6.50004 13 6.50072C13 6.5014 13 6.50208 13 6.50276C13 6.50344 13 6.50412 13 6.5048C13 6.50548 13 6.50616 13 6.50684C13 6.50752 13 6.5082 13 6.50888C13 6.50956 13 6.51024 13 6.51092C13 6.5116 13 6.51228 13 6.51296C13 6.51364 13 6.51431 13 6.51499C13 6.51567 13 6.51635 13 6.51703C13 6.5177 13 6.51838 13 6.51906C13 6.51974 13 6.52041 13 6.52109C13 6.52177 13 6.52244 13 6.52312C13 6.5238 13 6.52447 13 6.52515C13 6.52582 13 6.5265 13 6.52718C13 6.52785 13 6.52853 13 6.5292C13 6.52988 13 6.53055 13 6.53123C13 6.5319 13 6.53258 13 6.53325C13 6.53392 13 6.5346 13 6.53527C13 6.53594 13 6.53662 13 6.53729C13 6.53796 13 6.53864 13 6.53931C13 6.53998 13 6.54066 13 6.54133C13 6.542 13 6.54267 13 6.54334C13 6.54402 13 6.54469 13 6.54536C13 6.54603 13 6.5467 13 6.54737C13 6.54804 13 6.54872 13 6.54939C13 6.55006 13 6.55073 13 6.5514C13 6.55207 13 6.55274 13 6.55341C13 6.55408 13 6.55474 13 6.55541C13 6.55608 13 6.55675 13 6.55742C13 6.55809 13 6.55876 13 6.55943C13 6.56009 13 6.56076 13 6.56143C13 6.5621 13 6.56277 13 6.56343C13 6.5641 13 6.56477 13 6.56543C13 6.5661 13 6.56677 13 6.56743C13 6.5681 13 6.56877 13 6.56943C13 6.5701 13 6.57076 13 6.57143H15C15 6.57076 15 6.5701 15 6.56943C15 6.56877 15 6.5681 15 6.56743C15 6.56677 15 6.5661 15 6.56543C15 6.56477 15 6.5641 15 6.56343C15 6.56277 15 6.5621 15 6.56143C15 6.56076 15 6.56009 15 6.55943C15 6.55876 15 6.55809 15 6.55742C15 6.55675 15 6.55608 15 6.55541C15 6.55474 15 6.55408 15 6.55341C15 6.55274 15 6.55207 15 6.5514C15 6.55073 15 6.55006 15 6.54939C15 6.54872 15 6.54804 15 6.54737C15 6.5467 15 6.54603 15 6.54536C15 6.54469 15 6.54402 15 6.54334C15 6.54267 15 6.542 15 6.54133C15 6.54066 15 6.53998 15 6.53931C15 6.53864 15 6.53796 15 6.53729C15 6.53662 15 6.53594 15 6.53527C15 6.5346 15 6.53392 15 6.53325C15 6.53258 15 6.5319 15 6.53123C15 6.53055 15 6.52988 15 6.5292C15 6.52853 15 6.52785 15 6.52718C15 6.5265 15 6.52582 15 6.52515C15 6.52447 15 6.5238 15 6.52312C15 6.52244 15 6.52177 15 6.52109C15 6.52041 15 6.51974 15 6.51906C15 6.51838 15 6.5177 15 6.51703C15 6.51635 15 6.51567 15 6.51499C15 6.51431 15 6.51364 15 6.51296C15 6.51228 15 6.5116 15 6.51092C15 6.51024 15 6.50956 15 6.50888C15 6.5082 15 6.50752 15 6.50684C15 6.50616 15 6.50548 15 6.5048C15 6.50412 15 6.50344 15 6.50276C15 6.50208 15 6.5014 15 6.50072C15 6.50004 15 6.49936 15 6.49867C15 6.49799 15 6.49731 15 6.49663C15 6.49595 15 6.49526 15 6.49458C15 6.4939 15 6.49322 15 6.49253C15 6.49185 15 6.49117 15 6.49048C15 6.4898 15 6.48912 15 6.48843C15 6.48775 15 6.48706 15 6.48638C15 6.4857 15 6.48501 15 6.48433C15 6.48364 15 6.48296 15 6.48227C15 6.48159 15 6.4809 15 6.48022C15 6.47953 15 6.47885 15 6.47816C15 6.47747 15 6.47679 15 6.4761C15 6.47541 15 6.47473 15 6.47404C15 6.47335 15 6.47267 15 6.47198C15 6.47129 15 6.4706 15 6.46992C15 6.46923 15 6.46854 15 6.46785C15 6.46717 15 6.46648 15 6.46579C15 6.4651 15 6.46441 15 6.46372C15 6.46303 15 6.46234 15 6.46166C15 6.46097 15 6.46028 15 6.45959C15 6.4589 15 6.45821 15 6.45752C15 6.45683 15 6.45614 15 6.45545C15 6.45475 15 6.45406 15 6.45337C15 6.45268 15 6.45199 15 6.4513C15 6.45061 15 6.44992 15 6.44922C15 6.44853 15 6.44784 15 6.44715C15 6.44646 15 6.44576 15 6.44507C15 6.44438 15 6.44369 15 6.44299C15 6.4423 15 6.44161 15 6.44091C15 6.44022 15 6.43952 15 6.43883C15 6.43814 15 6.43744 15 6.43675C15 6.43605 15 6.43536 15 6.43467C15 6.43397 15 6.43328 15 6.43258C15 6.43189 15 6.43119 15 6.43049C15 6.4298 15 6.4291 15 6.42841C15 6.42771 15 6.42702 15 6.42632C15 6.42562 15 6.42493 15 6.42423C15 6.42353 15 6.42284 15 6.42214C15 6.42144 15 6.42074 15 6.42005C15 6.41935 15 6.41865 15 6.41795C15 6.41726 15 6.41656 15 6.41586C15 6.41516 15 6.41446 15 6.41376C15 6.41306 15 6.41237 15 6.41167C15 6.41097 15 6.41027 15 6.40957C15 6.40887 15 6.40817 15 6.40747C15 6.40677 15 6.40607 15 6.40537C15 6.40467 15 6.40397 15 6.40327C15 6.40257 15 6.40187 15 6.40117C15 6.40046 15 6.39976 15 6.39906C15 6.39836 15 6.39766 15 6.39696C15 6.39625 15 6.39555 15 6.39485C15 6.39415 15 6.39345 15 6.39274C15 6.39204 15 6.39134 15 6.39063C15 6.38993 15 6.38923 15 6.38853C15 6.38782 15 6.38712 15 6.38641C15 6.38571 15 6.38501 15 6.3843C15 6.3836 15 6.38289 15 6.38219C15 6.38148 15 6.38078 15 6.38007C15 6.37937 15 6.37866 15 6.37796C15 6.37725 15 6.37655 15 6.37584C15 6.37514 15 6.37443 15 6.37373C15 6.37302 15 6.37231 15 6.37161C15 6.3709 15 6.37019 15 6.36949C15 6.36878 15 6.36807 15 6.36737C15 6.36666 15 6.36595 15 6.36524C15 6.36454 15 6.36383 15 6.36312C15 6.36241 15 6.3617 15 6.361C15 6.36029 15 6.35958 15 6.35887C15 6.35816 15 6.35745 15 6.35674C15 6.35603 15 6.35533 15 6.35462C15 6.35391 15 6.3532 15 6.35249C15 6.35178 15 6.35107 15 6.35036C15 6.34965 15 6.34894 15 6.34823C15 6.34752 15 6.34681 15 6.34609C15 6.34538 15 6.34467 15 6.34396C15 6.34325 15 6.34254 15 6.34183C15 6.34111 15 6.3404 15 6.33969C15 6.33898 15 6.33827 15 6.33755C15 6.33684 15 6.33613 15 6.33542C15 6.3347 15 6.33399 15 6.33328C15 6.33257 15 6.33185 15 6.33114C15 6.33042 15 6.32971 15 6.329C15 6.32828 15 6.32757 15 6.32686C15 6.32614 15 6.32543 15 6.32471C15 6.324 15 6.32328 15 6.32257C15 6.32185 15 6.32114 15 6.32042C15 6.31971 15 6.31899 15 6.31828C15 6.31756 15 6.31685 15 6.31613C15 6.31541 15 6.3147 15 6.31398C15 6.31327 15 6.31255 15 6.31183C15 6.31112 15 6.3104 15 6.30968C15 6.30896 15 6.30825 15 6.30753C15 6.30681 15 6.3061 15 6.30538C15 6.30466 15 6.30394 15 6.30322C15 6.30251 15 6.30179 15 6.30107C15 6.30035 15 6.29963 15 6.29891C15 6.2982 15 6.29748 15 6.29676C15 6.29604 15 6.29532 15 6.2946C15 6.29388 15 6.29316 15 6.29244C15 6.29172 15 6.291 15 6.29028C15 6.28956 15 6.28884 15 6.28812C15 6.2874 15 6.28668 15 6.28596C15 6.28524 15 6.28452 15 6.2838C15 6.28307 15 6.28235 15 6.28163C15 6.28091 15 6.28019 15 6.27947C15 6.27875 15 6.27802 15 6.2773C15 6.27658 15 6.27586 15 6.27513C15 6.27441 15 6.27369 15 6.27297C15 6.27224 15 6.27152 15 6.2708C15 6.27007 15 6.26935 15 6.26863C15 6.2679 15 6.26718 15 6.26646C15 6.26573 15 6.26501 15 6.26429C15 6.26356 15 6.26284 15 6.26211C15 6.26139 15 6.26066 15 6.25994C15 6.25921 15 6.25849 15 6.25776C15 6.25704 15 6.25631 15 6.25559C15 6.25486 15 6.25414 15 6.25341C15 6.25269 15 6.25196 15 6.25123C15 6.25051 15 6.24978 15 6.24905C15 6.24833 15 6.2476 15 6.24688C15 6.24615 15 6.24542 15 6.24469C15 6.24397 15 6.24324 15 6.24251C15 6.24179 15 6.24106 15 6.24033C15 6.2396 15 6.23887 15 6.23815C15 6.23742 15 6.23669 15 6.23596C15 6.23523 15 6.23451 15 6.23378C15 6.23305 15 6.23232 15 6.23159C15 6.23086 15 6.23013 15 6.2294C15 6.22867 15 6.22794 15 6.22721C15 6.22649 15 6.22576 15 6.22503C15 6.2243 15 6.22357 15 6.22284C15 6.22211 15 6.22137 15 6.22064C15 6.21991 15 6.21918 15 6.21845C15 6.21772 15 6.21699 15 6.21626C15 6.21553 15 6.2148 15 6.21407C15 6.21333 15 6.2126 15 6.21187C15 6.21114 15 6.21041 15 6.20968C15 6.20894 15 6.20821 15 6.20748C15 6.20675 15 6.20601 15 6.20528C15 6.20455 15 6.20382 15 6.20308C15 6.20235 15 6.20162 15 6.20088C15 6.20015 15 6.19942 15 6.19868C15 6.19795 15 6.19722 15 6.19648C15 6.19575 15 6.19501 15 6.19428C15 6.19355 15 6.19281 15 6.19208C15 6.19134 15 6.19061 15 6.18987C15 6.18914 15 6.1884 15 6.18767C15 6.18693 15 6.1862 15 6.18546C15 6.18473 15 6.18399 15 6.18326C15 6.18252 15 6.18178 15 6.18105C15 6.18031 15 6.17958 15 6.17884C15 6.1781 15 6.17737 15 6.17663C15 6.17589 15 6.17516 15 6.17442C15 6.17368 15 6.17295 15 6.17221C15 6.17147 15 6.17074 15 6.17C15 6.16926 15 6.16852 15 6.16779C15 6.16705 15 6.16631 15 6.16557C15 6.16483 15 6.1641 15 6.16336C15 6.16262 15 6.16188 15 6.16114C15 6.1604 15 6.15967 15 6.15893C15 6.15819 15 6.15745 15 6.15671C15 6.15597 15 6.15523 15 6.15449C15 6.15375 15 6.15301 15 6.15227C15 6.15153 15 6.15079 15 6.15005C15 6.14931 15 6.14857 15 6.14783C15 6.14709 15 6.14635 15 6.14561C15 6.14487 15 6.14413 15 6.14339C15 6.14265 15 6.14191 15 6.14117C15 6.14043 15 6.13969 15 6.13894C15 6.1382 15 6.13746 15 6.13672C15 6.13598 15 6.13524 15 6.13449C15 6.13375 15 6.13301 15 6.13227C15 6.13153 15 6.13078 15 6.13004C15 6.1293 15 6.12856 15 6.12781C15 6.12707 15 6.12633 15 6.12558C15 6.12484 15 6.1241 15 6.12335C15 6.12261 15 6.12187 15 6.12112C15 6.12038 15 6.11964 15 6.11889C15 6.11815 15 6.11741 15 6.11666C15 6.11592 15 6.11517 15 6.11443C15 6.11369 15 6.11294 15 6.1122C15 6.11145 15 6.11071 15 6.10996C15 6.10922 15 6.10847 15 6.10773C15 6.10698 15 6.10624 15 6.10549C15 6.10475 15 6.104 15 6.10325C15 6.10251 15 6.10176 15 6.10102C15 6.10027 15 6.09953 15 6.09878C15 6.09803 15 6.09729 15 6.09654C15 6.09579 15 6.09505 15 6.0943C15 6.09355 15 6.09281 15 6.09206C15 6.09131 15 6.09057 15 6.08982C15 6.08907 15 6.08832 15 6.08758C15 6.08683 15 6.08608 15 6.08533C15 6.08459 15 6.08384 15 6.08309C15 6.08234 15 6.08159 15 6.08085C15 6.0801 15 6.07935 15 6.0786C15 6.07785 15 6.0771 15 6.07636C15 6.07561 15 6.07486 15 6.07411C15 6.07336 15 6.07261 15 6.07186C15 6.07111 15 6.07036 15 6.06961C15 6.06886 15 6.06812 15 6.06737C15 6.06662 15 6.06587 15 6.06512C15 6.06437 15 6.06362 15 6.06287C15 6.06212 15 6.06137 15 6.06062C15 6.05986 15 6.05911 15 6.05836C15 6.05761 15 6.05686 15 6.05611C15 6.05536 15 6.05461 15 6.05386C15 6.05311 15 6.05236 15 6.0516C15 6.05085 15 6.0501 15 6.04935C15 6.0486 15 6.04785 15 6.04709C15 6.04634 15 6.04559 15 6.04484C15 6.04409 15 6.04333 15 6.04258C15 6.04183 15 6.04108 15 6.04032C15 6.03957 15 6.03882 15 6.03807C15 6.03731 15 6.03656 15 6.03581C15 6.03505 15 6.0343 15 6.03355C15 6.03279 15 6.03204 15 6.03129C15 6.03053 15 6.02978 15 6.02903C15 6.02827 15 6.02752 15 6.02677C15 6.02601 15 6.02526 15 6.0245C15 6.02375 15 6.02299 15 6.02224C15 6.02149 15 6.02073 15 6.01998C15 6.01922 15 6.01847 15 6.01771C15 6.01696 15 6.0162 15 6.01545C15 6.01469 15 6.01394 15 6.01318C15 6.01243 15 6.01167 15 6.01092C15 6.01016 15 6.00941 15 6.00865C15 6.00789 15 6.00714 15 6.00638C15 6.00563 15 6.00487 15 6.00411C15 6.00336 15 6.0026 15 6.00184C15 6.00109 15 6.00033 15 5.99958C15 5.99882 15 5.99806 15 5.9973C15 5.99655 15 5.99579 15 5.99503C15 5.99428 15 5.99352 15 5.99276C15 5.99201 15 5.99125 15 5.99049C15 5.98973 15 5.98898 15 5.98822C15 5.98746 15 5.9867 15 5.98594C15 5.98519 15 5.98443 15 5.98367C15 5.98291 15 5.98215 15 5.9814C15 5.98064 15 5.97988 15 5.97912C15 5.97836 15 5.9776 15 5.97684C15 5.97609 15 5.97533 15 5.97457C15 5.97381 15 5.97305 15 5.97229C15 5.97153 15 5.97077 15 5.97001C15 5.96925 15 5.96849 15 5.96773C15 5.96697 15 5.96622 15 5.96546C15 5.9647 15 5.96394 15 5.96318C15 5.96242 15 5.96166 15 5.9609C15 5.96014 15 5.95938 15 5.95862C15 5.95785 15 5.95709 15 5.95633C15 5.95557 15 5.95481 15 5.95405C15 5.95329 15 5.95253 15 5.95177C15 5.95101 15 5.95025 15 5.94949C15 5.94872 15 5.94796 15 5.9472C15 5.94644 15 5.94568 15 5.94492C15 5.94416 15 5.94339 15 5.94263C15 5.94187 15 5.94111 15 5.94035C15 5.93959 15 5.93882 15 5.93806C15 5.9373 15 5.93654 15 5.93577C15 5.93501 15 5.93425 15 5.93349C15 5.93272 15 5.93196 15 5.9312C15 5.93044 15 5.92967 15 5.92891C15 5.92815 15 5.92739 15 5.92662C15 5.92586 15 5.9251 15 5.92433C15 5.92357 15 5.92281 15 5.92204C15 5.92128 15 5.92052 15 5.91975C15 5.91899 15 5.91822 15 5.91746C15 5.9167 15 5.91593 15 5.91517C15 5.91441 15 5.91364 15 5.91288C15 5.91211 15 5.91135 15 5.91058C15 5.90982 15 5.90906 15 5.90829C15 5.90753 15 5.90676 15 5.906C15 5.90523 15 5.90447 15 5.9037C15 5.90294 15 5.90217 15 5.90141C15 5.90064 15 5.89988 15 5.89911C15 5.89835 15 5.89758 15 5.89682C15 5.89605 15 5.89529 15 5.89452C15 5.89375 15 5.89299 15 5.89222C15 5.89146 15 5.89069 15 5.88993C15 5.88916 15 5.88839 15 5.88763C15 5.88686 15 5.88609 15 5.88533C15 5.88456 15 5.8838 15 5.88303C15 5.88226 15 5.8815 15 5.88073C15 5.87996 15 5.8792 15 5.87843C15 5.87766 15 5.8769 15 5.87613C15 5.87536 15 5.8746 15 5.87383C15 5.87306 15 5.87229 15 5.87153C15 5.87076 15 5.86999 15 5.86922C15 5.86846 15 5.86769 15 5.86692C15 5.86615 15 5.86539 15 5.86462C15 5.86385 15 5.86308 15 5.86232C15 5.86155 15 5.86078 15 5.86001C15 5.85924 15 5.85848 15 5.85771C15 5.85694 15 5.85617 15 5.8554C15 5.85463 15 5.85387 15 5.8531C15 5.85233 15 5.85156 15 5.85079C15 5.85002 15 5.84925 15 5.84848C15 5.84772 15 5.84695 15 5.84618C15 5.84541 15 5.84464 15 5.84387C15 5.8431 15 5.84233 15 5.84156C15 5.84079 15 5.84002 15 5.83925C15 5.83848 15 5.83772 15 5.83695C15 5.83618 15 5.83541 15 5.83464C15 5.83387 15 5.8331 15 5.83233C15 5.83156 15 5.83079 15 5.83002C15 5.82925 15 5.82848 15 5.82771C15 5.82694 15 5.82617 15 5.8254C15 5.82463 15 5.82385 15 5.82308C15 5.82231 15 5.82154 15 5.82077C15 5.82 15 5.81923 15 5.81846C15 5.81769 15 5.81692 15 5.81615C15 5.81538 15 5.81461 15 5.81384C15 5.81306 15 5.81229 15 5.81152C15 5.81075 15 5.80998 15 5.80921C15 5.80844 15 5.80767 15 5.80689C15 5.80612 15 5.80535 15 5.80458C15 5.80381 15 5.80304 15 5.80226C15 5.80149 15 5.80072 15 5.79995C15 5.79918 15 5.7984 15 5.79763C15 5.79686 15 5.79609 15 5.79532C15 5.79454 15 5.79377 15 5.793C15 5.79223 15 5.79146 15 5.79068C15 5.78991 15 5.78914 15 5.78837C15 5.78759 15 5.78682 15 5.78605C15 5.78527 15 5.7845 15 5.78373C15 5.78296 15 5.78218 15 5.78141C15 5.78064 15 5.77986 15 5.77909C15 5.77832 15 5.77755 15 5.77677C15 5.776 15 5.77523 15 5.77445C15 5.77368 15 5.77291 15 5.77213C15 5.77136 15 5.77059 15 5.76981C15 5.76904 15 5.76826 15 5.76749C15 5.76672 15 5.76594 15 5.76517C15 5.7644 15 5.76362 15 5.76285C15 5.76207 15 5.7613 15 5.76053C15 5.75975 15 5.75898 15 5.7582C15 5.75743 15 5.75666 15 5.75588C15 5.75511 15 5.75433 15 5.75356C15 5.75278 15 5.75201 15 5.75124C15 5.75046 15 5.74969 15 5.74891C15 5.74814 15 5.74736 15 5.74659C15 5.74581 15 5.74504 15 5.74426C15 5.74349 15 5.74271 15 5.74194C15 5.74116 15 5.74039 15 5.73961C15 5.73884 15 5.73806 15 5.73729C15 5.73651 15 5.73574 15 5.73496C15 5.73419 15 5.73341 15 5.73264C15 5.73186 15 5.73109 15 5.73031C15 5.72953 15 5.72876 15 5.72798C15 5.72721 15 5.72643 15 5.72566C15 5.72488 15 5.7241 15 5.72333C15 5.72255 15 5.72178 15 5.721C15 5.72023 15 5.71945 15 5.71867C15 5.7179 15 5.71712 15 5.71635C15 5.71557 15 5.71479 15 5.71402C15 5.71324 15 5.71246 15 5.71169C15 5.71091 15 5.71014 15 5.70936C15 5.70858 15 5.70781 15 5.70703C15 5.70625 15 5.70548 15 5.7047C15 5.70392 15 5.70315 15 5.70237C15 5.70159 15 5.70082 15 5.70004C15 5.69926 15 5.69849 15 5.69771C15 5.69693 15 5.69616 15 5.69538C15 5.6946 15 5.69382 15 5.69305C15 5.69227 15 5.69149 15 5.69072C15 5.68994 15 5.68916 15 5.68838C15 5.68761 15 5.68683 15 5.68605C15 5.68528 15 5.6845 15 5.68372C15 5.68294 15 5.68217 15 5.68139C15 5.68061 15 5.67983 15 5.67906C15 5.67828 15 5.6775 15 5.67672C15 5.67595 15 5.67517 15 5.67439C15 5.67361 15 5.67283 15 5.67206C15 5.67128 15 5.6705 15 5.66972C15 5.66894 15 5.66817 15 5.66739C15 5.66661 15 5.66583 15 5.66505C15 5.66428 15 5.6635 15 5.66272C15 5.66194 15 5.66116 15 5.66039C15 5.65961 15 5.65883 15 5.65805C15 5.65727 15 5.65649 15 5.65572C15 5.65494 15 5.65416 15 5.65338C15 5.6526 15 5.65182 15 5.65105C15 5.65027 15 5.64949 15 5.64871C15 5.64793 15 5.64715 15 5.64637C15 5.64559 15 5.64482 15 5.64404C15 5.64326 15 5.64248 15 5.6417C15 5.64092 15 5.64014 15 5.63936C15 5.63859 15 5.63781 15 5.63703C15 5.63625 15 5.63547 15 5.63469C15 5.63391 15 5.63313 15 5.63235C15 5.63157 15 5.6308 15 5.63002C15 5.62924 15 5.62846 15 5.62768C15 5.6269 15 5.62612 15 5.62534C15 5.62456 15 5.62378 15 5.623C15 5.62222 15 5.62144 15 5.62066C15 5.61988 15 5.61911 15 5.61833C15 5.61755 15 5.61677 15 5.61599C15 5.61521 15 5.61443 15 5.61365C15 5.61287 15 5.61209 15 5.61131C15 5.61053 15 5.60975 15 5.60897C15 5.60819 15 5.60741 15 5.60663C15 5.60585 15 5.60507 15 5.60429C15 5.60351 15 5.60273 15 5.60195C15 5.60117 15 5.60039 15 5.59961C15 5.59883 15 5.59805 15 5.59727C15 5.59649 15 5.59571 15 5.59493C15 5.59415 15 5.59337 15 5.59259C15 5.59181 15 5.59103 15 5.59025C15 5.58947 15 5.58869 15 5.58791C15 5.58713 15 5.58635 15 5.58557C15 5.58479 15 5.58401 15 5.58323C15 5.58245 15 5.58167 15 5.58089C15 5.58011 15 5.57933 15 5.57855C15 5.57777 15 5.57699 15 5.57621C15 5.57543 15 5.57465 15 5.57387C15 5.57309 15 5.57231 15 5.57153C15 5.57074 15 5.56996 15 5.56918C15 5.5684 15 5.56762 15 5.56684C15 5.56606 15 5.56528 15 5.5645C15 5.56372 15 5.56294 15 5.56216C15 5.56138 15 5.5606 15 5.55982C15 5.55904 15 5.55825 15 5.55747C15 5.55669 15 5.55591 15 5.55513C15 5.55435 15 5.55357 15 5.55279C15 5.55201 15 5.55123 15 5.55045C15 5.54967 15 5.54889 15 5.5481C15 5.54732 15 5.54654 15 5.54576C15 5.54498 15 5.5442 15 5.54342C15 5.54264 15 5.54186 15 5.54108C15 5.5403 15 5.53951 15 5.53873C15 5.53795 15 5.53717 15 5.53639C15 5.53561 15 5.53483 15 5.53405C15 5.53327 15 5.53249 15 5.5317C15 5.53092 15 5.53014 15 5.52936C15 5.52858 15 5.5278 15 5.52702C15 5.52624 15 5.52546 15 5.52467C15 5.52389 15 5.52311 15 5.52233C15 5.52155 15 5.52077 15 5.51999C15 5.51921 15 5.51843 15 5.51764C15 5.51686 15 5.51608 15 5.5153C15 5.51452 15 5.51374 15 5.51296C15 5.51218 15 5.51139 15 5.51061C15 5.50983 15 5.50905 15 5.50827C15 5.50749 15 5.50671 15 5.50593C15 5.50514 15 5.50436 15 5.50358C15 5.5028 15 5.50202 15 5.50124C15 5.50046 15 5.49968 15 5.49889C15 5.49811 15 5.49733 15 5.49655C15 5.49577 15 5.49499 15 5.49421C15 5.49342 15 5.49264 15 5.49186C15 5.49108 15 5.4903 15 5.48952C15 5.48874 15 5.48795 15 5.48717C15 5.48639 15 5.48561 15 5.48483C15 5.48405 15 5.48327 15 5.48249C15 5.4817 15 5.48092 15 5.48014C15 5.47936 15 5.47858 15 5.4778C15 5.47702 15 5.47623 15 5.47545C15 5.47467 15 5.47389 15 5.47311C15 5.47233 15 5.47155 15 5.47076C15 5.46998 15 5.4692 15 5.46842C15 5.46764 15 5.46686 15 5.46608C15 5.46529 15 5.46451 15 5.46373C15 5.46295 15 5.46217 15 5.46139C15 5.46061 15 5.45983 15 5.45904C15 5.45826 15 5.45748 15 5.4567C15 5.45592 15 5.45514 15 5.45436C15 5.45357 15 5.45279 15 5.45201C15 5.45123 15 5.45045 15 5.44967C15 5.44889 15 5.4481 15 5.44732C15 5.44654 15 5.44576 15 5.44498C15 5.4442 15 5.44342 15 5.44264C15 5.44185 15 5.44107 15 5.44029C15 5.43951 15 5.43873 15 5.43795C15 5.43717 15 5.43638 15 5.4356C15 5.43482 15 5.43404 15 5.43326C15 5.43248 15 5.4317 15 5.43092C15 5.43013 15 5.42935 15 5.42857H13ZM8.24457 9.34478L5.08946 12.9824L6.60033 14.2929L9.75543 10.6552L8.24457 9.34478ZM5 12.949V9.39515H3V12.949H5ZM5.05096 13C5.02282 13 5 12.9772 5 12.949H3C3 14.0818 3.91825 15 5.05096 15V13ZM5.08946 12.9824C5.07978 12.9936 5.06573 13 5.05096 13V15C5.64549 15 6.21077 14.742 6.60033 14.2929L5.08946 12.9824ZM6 5H5.5V7H6V5Z" fill="black"/>
</svg>
