<svg width="16" height="16" viewBox="0 0 16 16" fill="none" xmlns="http://www.w3.org/2000/svg">
<rect width="16" height="16" fill="white"/>
<path d="M8.99998 3.75C8.99998 2.7835 8.3284 2 7.49998 2C6.67155 2 5.99998 2.7835 5.99998 3.75C5.99998 4.16476 6.16311 4.54581 6.41484 4.84571C6.94744 5.48024 7.5 6.17157 7.5 7V7.3733M7.5 7.3733C7.74694 7.37188 7.99437 7.46145 8.18806 7.64222L13.1619 12.2845C13.8233 12.9017 13.3904 14.01 12.4858 14.0155L2.55646 14.077C1.64994 14.0826 1.20434 12.9758 1.86184 12.3517L6.8173 7.64799C7.00867 7.46635 7.25409 7.37471 7.5 7.3733Z" stroke="black" stroke-width="2" stroke-linecap="round" stroke-linejoin="round"/>
</svg>
