<svg width="16" height="16" viewBox="0 0 16 16" fill="none" xmlns="http://www.w3.org/2000/svg">
<g clip-path="url(#clip0)">
<rect width="16" height="16" fill="white"/>
<path d="M11 11V12H12V11H11ZM7 11C7 11.5523 7.44772 12 8 12C8.55228 12 9 11.5523 9 11H7ZM1 14L0.00345427 13.917L-0.0867995 15H1V14ZM1.92946 2.84642L0.932919 2.76337L0.932919 2.76337L1.92946 2.84642ZM15 14V15H16.0868L15.9965 13.917L15 14ZM14.0705 2.84642L13.074 2.92946V2.92947L14.0705 2.84642ZM5.8895 11L5.8895 12L5.8895 11ZM6 8C6 6.89543 6.89543 6 8 6V4C5.79086 4 4 5.79086 4 8H6ZM8 6C9.10457 6 10 6.89543 10 8H12C12 5.79086 10.2091 4 8 4V6ZM5.8895 12L11 12V10L5.8895 10L5.8895 12ZM4 8V10.1105H6V8H4ZM10 8V11H12V8H10ZM7 5V11H9V5H7ZM2.84935 3H13.1506V1H2.84935V3ZM1.99655 14.083L2.92601 2.92947L0.932919 2.76337L0.00345427 13.917L1.99655 14.083ZM15.9965 13.917L15.0671 2.76337L13.074 2.92947L14.0035 14.083L15.9965 13.917ZM13.1506 3C13.1106 3 13.0773 2.96933 13.074 2.92946L15.0671 2.76338C14.984 1.76666 14.1508 1 13.1506 1V3ZM2.84935 1C1.84918 1 1.01598 1.76666 0.932919 2.76337L2.92601 2.92947C2.92269 2.96933 2.88936 3 2.84935 3V1ZM1 15H15V13H1V15ZM5.8895 10C5.95053 10 6 10.0495 6 10.1105H4C4 11.154 4.84596 12 5.8895 12L5.8895 10Z" fill="black"/>
</g>
<defs>
<clipPath id="clip0">
<rect width="16" height="16" fill="white"/>
</clipPath>
</defs>
</svg>
