<svg width="16" height="16" viewBox="0 0 16 16" fill="none" xmlns="http://www.w3.org/2000/svg">
<rect width="16" height="16" fill="white"/>
<path d="M3 6V5C2.44772 5 2 5.44772 2 6H3ZM13 6H14C14 5.44772 13.5523 5 13 5V6ZM2 5C1.44772 5 1 5.44772 1 6C1 6.55228 1.44772 7 2 7V5ZM14 7C14.5523 7 15 6.55228 15 6C15 5.44772 14.5523 5 14 5V7ZM6 2C6 1.44772 5.55228 1 5 1C4.44772 1 4 1.44772 4 2L6 2ZM4 6C4 6.55228 4.44772 7 5 7C5.55228 7 6 6.55228 6 6H4ZM12 2C12 1.44772 11.5523 1 11 1C10.4477 1 10 1.44772 10 2H12ZM10 6C10 6.55228 10.4477 7 11 7C11.5523 7 12 6.55228 12 6H10ZM7 14C7 14.5523 7.44772 15 8 15C8.55228 15 9 14.5523 9 14H7ZM3 7H13V5H3V7ZM12 6V8H14V6H12ZM4 8V6H2V8H4ZM8 12C5.79086 12 4 10.2091 4 8H2C2 11.3137 4.68629 14 8 14V12ZM12 8C12 10.2091 10.2091 12 8 12V14C11.3137 14 14 11.3137 14 8H12ZM2 7H14V5H2V7ZM4 2L4 6H6V2L4 2ZM10 2V6H12V2H10ZM7 13V14H9V13H7Z" fill="black"/>
</svg>
