<svg width="16" height="16" viewBox="0 0 16 16" fill="none" xmlns="http://www.w3.org/2000/svg">
<rect width="16" height="16" fill="white"/>
<path d="M2 13C1.44772 13 1 13.4477 1 14C1 14.5523 1.44772 15 2 15V13ZM15 15C15.5523 15 16 14.5523 16 14C16 13.4477 15.5523 13 15 13V15ZM14 3.98339C14 4.53567 14.4477 4.98339 15 4.98339C15.5523 4.98339 16 4.53567 16 3.98339H14ZM10 13C10 13.5523 10.4477 14 11 14C11.5523 14 12 13.5523 12 13H10ZM6 4.04151C6 4.59379 6.44772 5.04151 7 5.04151C7.55228 5.04151 8 4.59379 8 4.04151H6ZM2 13C2 13.5523 2.44772 14 3 14C3.55228 14 4 13.5523 4 13H2ZM3 7C2.44772 7 2 7.44772 2 8C2 8.55228 2.44772 9 3 9V7ZM11 9C11.5523 9 12 8.55228 12 8C12 7.44772 11.5523 7 11 7V9ZM5.25 12C4.27998 12 3.61994 12.367 3.1509 12.6195C2.69136 12.867 2.42284 13 2 13V15C2.97002 15 3.63006 14.633 4.0991 14.3805C4.55864 14.133 4.82716 14 5.25 14V12ZM5.25 14C5.67284 14 5.94136 14.133 6.4009 14.3805C6.86994 14.633 7.52998 15 8.5 15V13C8.07716 13 7.80864 12.867 7.3491 12.6195C6.88006 12.367 6.22002 12 5.25 12V14ZM11.75 12C10.78 12 10.1199 12.367 9.6509 12.6195C9.19136 12.867 8.92284 13 8.5 13V15C9.47002 15 10.1301 14.633 10.5991 14.3805C11.0586 14.133 11.3272 14 11.75 14V12ZM11.75 14C12.1728 14 12.4414 14.133 12.9009 14.3805C13.3699 14.633 14.03 15 15 15V13C14.5772 13 14.3086 12.867 13.8491 12.6195C13.3801 12.367 12.72 12 11.75 12V14ZM12 3.98339C12 3.44813 12.4398 3 13 3V1C11.351 1 10 2.32786 10 3.98339H12ZM13 3C13.5602 3 14 3.44813 14 3.98339H16C16 2.32786 14.649 1 13 1V3ZM10 3.98339V13H12V3.98339H10ZM4 4.04151C4 3.44683 4.46698 3 5 3V1C3.32388 1 2 2.38119 2 4.04151H4ZM5 3C5.53302 3 6 3.44683 6 4.04151H8C8 2.38119 6.67612 1 5 1V3ZM2 4.04151V13H4V4.04151H2ZM3 9H11V7H3V9Z" fill="black"/>
</svg>
