<svg width="16" height="16" viewBox="0 0 16 16" fill="none" xmlns="http://www.w3.org/2000/svg">
<rect width="16" height="16" fill="white"/>
<path d="M12 14V13V14ZM4 14V15H4L4 14ZM14 4L15 4L14 4ZM14 12H13H14ZM2 4.00001H1H2ZM2 12H3H2ZM12 2L12 3H12L12 2ZM4 2.00001L4 3.00001L4 2.00001ZM9 5C9 4.44772 8.55228 4 8 4C7.44771 4 7 4.44772 7 5H9ZM7 11C7 11.5523 7.44771 12 8 12C8.55228 12 9 11.5523 9 11H7ZM6 7C6 6.44772 5.55228 6 5 6C4.44771 6 4 6.44772 4 7H6ZM4 9C4 9.55229 4.44771 10 5 10C5.55228 10 6 9.55229 6 9H4ZM12 7C12 6.44772 11.5523 6 11 6C10.4477 6 10 6.44772 10 7H12ZM10 9C10 9.55229 10.4477 10 11 10C11.5523 10 12 9.55229 12 9H10ZM12 13L4 13L4 15L12 15V13ZM13 4L13 12H15L15 4L13 4ZM1 4.00001L1 12H3L3 4.00001H1ZM12 1L4 1.00001L4 3.00001L12 3L12 1ZM15 4C15 2.34315 13.6569 1 12 1L12 3C12.5523 3 13 3.44772 13 4L15 4ZM3 4.00001C3 3.44773 3.44771 3.00001 4 3.00001L4 1.00001C2.34314 1.00002 1 2.34316 1 4.00001H3ZM4 13C3.44772 13 3 12.5523 3 12H1C1 13.6569 2.34314 15 4 15V13ZM12 15C13.6569 15 15 13.6569 15 12H13C13 12.5523 12.5523 13 12 13V15ZM7 5V11H9V5H7ZM4 7L4 9H6L6 7H4ZM10 7V9H12V7H10Z" fill="black"/>
</svg>
