<svg width="16" height="16" viewBox="0 0 16 16" fill="none" xmlns="http://www.w3.org/2000/svg">
<rect width="16" height="16" fill="white"/>
<path d="M2 12H3H2ZM2 4H1H2ZM12 14V15V14ZM4 14V13V14ZM12 2V1V2ZM4 2L4 3H4V2ZM14 12L13 12V12L14 12ZM14 4L13 4L14 4ZM3 12L3 4L1 4L1 12H3ZM12 13L4 13L4 15L12 15V13ZM12 1L4 1V3L12 3V1ZM15 12L15 4L13 4L13 12L15 12ZM12 15C13.6569 15 15 13.6569 15 12L13 12C13 12.5523 12.5523 13 12 13V15ZM12 3C12.5523 3 13 3.44771 13 4L15 4C15 2.34314 13.6568 1 12 1V3ZM3 4C3 3.44771 3.44771 3 4 3L4 1C2.34314 1 1 2.34315 1 4H3ZM1 12C1 13.6569 2.34315 15 4 15V13C3.44772 13 3 12.5523 3 12H1ZM10 8C10 9.10457 9.10457 10 8 10V12C10.2091 12 12 10.2091 12 8H10ZM8 10C6.89543 10 6 9.10457 6 8H4C4 10.2091 5.79086 12 8 12V10ZM6 8C6 6.89543 6.89543 6 8 6V4C5.79086 4 4 5.79086 4 8H6ZM8 6C9.10457 6 10 6.89543 10 8H12C12 5.79086 10.2091 4 8 4V6Z" fill="black"/>
</svg>
