<svg width="16" height="16" viewBox="0 0 16 16" fill="none" xmlns="http://www.w3.org/2000/svg">
<rect width="16" height="16" fill="white"/>
<path d="M4 14.5C4 15.0523 4.44772 15.5 5 15.5C5.55228 15.5 6 15.0523 6 14.5H4ZM6 13.1154C6 12.5631 5.55228 12.1154 5 12.1154C4.44772 12.1154 4 12.5631 4 13.1154H6ZM10 14.3846C10 14.9369 10.4478 15.3846 11 15.3846C11.5523 15.3846 12 14.9369 12 14.3846H10ZM12 13C12 12.4477 11.5523 12 11 12C10.4478 12 10 12.4477 10 13H12ZM12.8604 12.0079L11.8837 11.7934L12.8604 12.0079ZM10.2731 9.66155L11.0802 10.2519L10.2731 9.66155ZM3.13956 12.0079L4.11628 11.7934L3.13956 12.0079ZM5.72694 9.66154L6.53405 9.07115V9.07114L5.72694 9.66154ZM13 3H12H13ZM12 7C12 7.55228 12.4477 8 13 8C13.5523 8 14 7.55228 14 7H12ZM3 3.00001H2H3ZM2 7C2 7.55228 2.44771 8 3 8C3.55228 8 4 7.55228 4 7H2ZM12 2V1H12L12 2ZM4 2.00001L4 3.00001H4L4 2.00001ZM6 14.5V13.1154H4V14.5H6ZM12 14.3846V13H10V14.3846H12ZM6.43528 11H9.56472V9H6.43528V11ZM15 8.38889C15 7.17123 14.0891 6 12.75 6V8C12.7827 8 12.8337 8.01257 12.8906 8.07576C12.949 8.14064 13 8.24855 13 8.38889H15ZM3.25 6C1.91087 6 1 7.17123 1 8.38889H3C3 8.24855 3.05102 8.14064 3.10941 8.07576C3.16628 8.01257 3.21731 8 3.25 8V6ZM11.75 12H4.25V14H11.75V12ZM1 8.38889C1 9.19946 1.28805 9.92408 1.53402 10.5064C1.79979 11.1355 2.03497 11.6402 2.16283 12.2224L4.11628 11.7934C3.93862 10.9844 3.60402 10.267 3.37639 9.72811C3.12896 9.14238 3 8.7531 3 8.38889H1ZM13.8372 12.2224C13.965 11.6402 14.2002 11.1355 14.466 10.5064C14.7119 9.92408 15 9.19946 15 8.38889H13C13 8.7531 12.871 9.14238 12.6236 9.72811C12.396 10.267 12.0614 10.9844 11.8837 11.7934L13.8372 12.2224ZM6.53405 9.07114C6.38064 8.86143 6.21345 8.60529 6.00968 8.29869C5.81441 8.00486 5.5923 7.67534 5.35729 7.37047C5.12618 7.07068 4.85177 6.75358 4.54059 6.50428C4.2389 6.26257 3.79757 6 3.25 6V8C3.14601 8 3.1508 7.95353 3.29009 8.06513C3.4199 8.16913 3.58135 8.34253 3.7733 8.59154C3.96134 8.83547 4.14949 9.11303 4.34399 9.40569C4.53 9.68558 4.73209 9.9953 4.91983 10.2519L6.53405 9.07114ZM12.75 6C12.2024 6 11.7611 6.26257 11.4594 6.50428C11.1482 6.75358 10.8738 7.07068 10.6427 7.37047C10.4077 7.67534 10.1856 8.00486 9.99032 8.29869C9.78655 8.60529 9.61936 8.86143 9.46595 9.07115L11.0802 10.2519C11.2679 9.9953 11.47 9.68558 11.656 9.40569C11.8505 9.11303 12.0387 8.83547 12.2267 8.59154C12.4186 8.34253 12.5801 8.16913 12.7099 8.06513C12.8492 7.95353 12.854 8 12.75 8V6ZM11.75 14C12.8909 14 13.6459 13.0933 13.8372 12.2224L11.8837 11.7934C11.8662 11.8734 11.8251 11.9384 11.7861 11.9747C11.7684 11.9912 11.7559 11.9975 11.7516 11.9993C11.7495 12.0002 11.7489 12.0002 11.7494 12.0001C11.75 12 11.7504 12 11.75 12V14ZM9.56472 11C10.1074 11 10.6982 10.7741 11.0802 10.2519L9.46595 9.07115C9.49072 9.03728 9.51988 9.01732 9.54036 9.00782C9.55893 8.99919 9.56773 9 9.56472 9V11ZM4.25 12C4.24958 12 4.24998 12 4.2506 12.0001C4.25114 12.0002 4.25048 12.0002 4.24839 11.9993C4.24414 11.9975 4.23162 11.9912 4.21389 11.9747C4.17489 11.9384 4.13384 11.8734 4.11628 11.7934L2.16283 12.2224C2.35408 13.0933 3.10911 14 4.25 14V12ZM6.43528 9C6.43227 9 6.44107 8.99919 6.45965 9.00782C6.48012 9.01732 6.50928 9.03728 6.53405 9.07115L4.91983 10.2519C5.30177 10.7741 5.89264 11 6.43528 11V9ZM12 3V7H14V3H12ZM2 3.00001L2 7H4L4 3.00001H2ZM12 1L4 1.00001L4 3.00001L12 3L12 1ZM14 3C14 1.89543 13.1046 1 12 1V3L12 3H14ZM4 3.00001L4 3.00001L4 1.00001C2.89543 1.00001 2 1.89544 2 3.00001H4Z" fill="black"/>
</svg>
