<svg width="32" height="32" viewBox="0 0 32 32" fill="none" xmlns="http://www.w3.org/2000/svg">
<rect width="32" height="32" fill="white"/>
<path fill-rule="evenodd" clip-rule="evenodd" d="M8.66804 6.98774C7.30441 5.79398 5.58695 5.74503 4.24286 6.50606C2.91838 7.25599 2 8.75544 2 10.5765V22.4236C2 24.2446 2.91838 25.7441 4.24286 26.494C5.58695 27.2551 7.30441 27.2061 8.66805 26.0124L15 20.4692V22.4236C15 24.2446 15.9184 25.7441 17.2429 26.494C18.5869 27.2551 20.3044 27.2061 21.668 26.0124L28.4346 20.0888C30.5218 18.2616 30.5218 14.7385 28.4346 12.9113L21.668 6.98774C20.3044 5.79398 18.5869 5.74503 17.2429 6.50606C15.9184 7.25599 15 8.75544 15 10.5765V12.5309L8.66804 6.98774ZM15 16.5C15 15.7157 14.7057 14.9313 14.1172 14.4161L7.35068 8.49258C6.66336 7.89088 5.87613 7.87963 5.22828 8.24645C4.56082 8.62437 4 9.4408 4 10.5765L4 22.4236C4 23.5593 4.56083 24.3757 5.22828 24.7536C5.87614 25.1205 6.66336 25.1092 7.35068 24.5075L14.1172 18.584C14.7057 18.0687 15 17.2844 15 16.5ZM17 10.5765C17 9.4408 17.5608 8.62437 18.2283 8.24645C18.8761 7.87963 19.6634 7.89088 20.3507 8.49258L27.1172 14.4161C28.2943 15.4466 28.2943 17.5535 27.1172 18.584L20.3507 24.5075C19.6634 25.1092 18.8761 25.1205 18.2283 24.7536C17.5608 24.3757 17 23.5593 17 22.4236V10.5765Z" fill="black"/>
</svg>
