<svg width="32" height="32" viewBox="0 0 32 32" fill="none" xmlns="http://www.w3.org/2000/svg">
<rect width="32" height="32" fill="white"/>
<path fill-rule="evenodd" clip-rule="evenodd" d="M7 12.8268C7 7.96831 11.0129 4 16 4C20.9871 4 25 7.96831 25 12.8268V14.0831C24.6748 14.0286 24.3407 14.0002 24 14.0002L23.0001 14.0001C21.3432 14.0001 20 15.3432 20 17.0001V23C20 24.6568 21.3431 26 22.9999 26L22.1 27.2001C21.7223 27.7037 21.1295 28.0001 20.5 28.0001H16C15.4477 28.0001 15 28.4478 15 29.0001C15 29.5523 15.4477 30.0001 16 30.0001H20.5C21.759 30.0001 22.9446 29.4073 23.7 28.4001L25.6785 25.7621C28.1753 25.036 30 22.7312 30 20.0001C30 17.7793 28.7934 15.8403 27 14.8029V12.8268C27 6.83095 22.0586 2 16 2C9.94141 2 5 6.83095 5 12.8268V14.8029C3.2066 15.8403 2 17.7793 2 20.0001C2 23.3138 4.68634 26.0001 8.00004 26.0001L9.00011 26C10.6569 26 12 24.6568 12 23V17.0001C12 15.3432 10.6568 14.0001 8.99989 14.0001L8 14.0002C7.65929 14.0002 7.32521 14.0286 7 14.0831V12.8268ZM8.00004 16.0002L8.99996 16.0001C9.55226 16.0001 10 16.4478 10 17.0001V23C10 23.5523 9.55231 24 9.00004 24L7.99996 24.0001C5.79083 24 4 22.2092 4 20.0001C4 17.791 5.79089 16.0002 8.00004 16.0002ZM23 16.0001L24 16.0002C26.2091 16.0002 28 17.791 28 20.0001C28 22.2092 26.2092 24 24 24.0001L23 24C22.4477 24 22 23.5523 22 23V17.0001C22 16.4478 22.4477 16.0001 23 16.0001Z" fill="black"/>
</svg>
