<svg width="32" height="32" viewBox="0 0 32 32" fill="none" xmlns="http://www.w3.org/2000/svg">
<rect width="32" height="32" fill="white"/>
<path fill-rule="evenodd" clip-rule="evenodd" d="M9 9C9 5.13401 12.134 2 16 2C19.866 2 23 5.13401 23 9V15C23 18.866 19.866 22 16 22C12.134 22 9 18.866 9 15V9ZM16 4C13.2386 4 11 6.23858 11 9V15C11 17.7614 13.2386 20 16 20C18.7614 20 21 17.7614 21 15V9C21 6.23858 18.7614 4 16 4Z" fill="black"/>
<path d="M6 12C6.55228 12 7 12.4477 7 13V15C7 19.9706 11.0294 24 16 24C20.9706 24 25 19.9706 25 15V13C25 12.4477 25.4477 12 26 12C26.5523 12 27 12.4477 27 13V15C27 20.7384 22.606 25.4505 16.999 25.9552C16.9997 25.9701 17 25.985 17 26V28H20C20.5523 28 21 28.4477 21 29C21 29.5523 20.5523 30 20 30H12C11.4477 30 11 29.5523 11 29C11 28.4477 11.4477 28 12 28H15V26C15 25.985 15.0003 25.9701 15.001 25.9552C9.39401 25.4505 5 20.7384 5 15V13C5 12.4477 5.44772 12 6 12Z" fill="black"/>
</svg>
