<svg width="32" height="32" viewBox="0 0 32 32" fill="none" xmlns="http://www.w3.org/2000/svg">
<rect width="32" height="32" fill="white"/>
<path fill-rule="evenodd" clip-rule="evenodd" d="M20 17.531C19.8048 17.9032 19.5261 18.2421 19.1637 18.519L14.8217 21.8377C12.8475 23.3465 9.99995 21.9388 9.99995 19.4541V12.8169C9.99995 10.3321 12.8475 8.92448 14.8217 10.4333L19.1637 13.7519C19.5261 14.0288 19.8048 14.3677 20 14.74V11C20 10.4477 20.4477 10 21 10C21.5523 10 22 10.4477 22 11V21C22 21.5523 21.5523 22 21 22C20.4477 22 20 21.5523 20 21V17.531ZM17.9493 16.93C18.4729 16.5298 18.4729 15.7412 17.9493 15.341L13.6072 12.0223C12.9491 11.5194 11.9999 11.9886 11.9999 12.8169V19.4541C11.9999 20.2823 12.9491 20.7516 13.6072 20.2486L17.9493 16.93Z" fill="black"/>
<path fill-rule="evenodd" clip-rule="evenodd" d="M2 16C2 8.26801 8.26801 2 16 2C23.732 2 30 8.26801 30 16C30 23.732 23.732 30 16 30C8.26801 30 2 23.732 2 16ZM16 4C9.37258 4 4 9.37258 4 16C4 22.6274 9.37258 28 16 28C22.6274 28 28 22.6274 28 16C28 9.37258 22.6274 4 16 4Z" fill="black"/>
</svg>
