<svg width="32" height="32" viewBox="0 0 32 32" fill="none" xmlns="http://www.w3.org/2000/svg">
<rect width="32" height="32" fill="white"/>
<path d="M16 3C16.5523 3 17 3.44772 17 4L17 28.566C17 29.1183 16.5522 29.566 16 29.566C15.4477 29.566 15 29.1183 15 28.566L15 4C15 3.44771 15.4478 3 16 3Z" fill="black"/>
<path d="M10 7.99999C10.5523 7.99999 11 8.44771 11 8.99999L11 23.566C11 24.1183 10.5523 24.566 10 24.566C9.44776 24.566 9.00004 24.1183 9.00004 23.566L9.00001 9C9.00001 8.44771 9.44772 8 10 7.99999Z" fill="black"/>
<path d="M5 13C4.99999 12.4477 4.55226 12 3.99998 12C3.4477 12 2.99999 12.4477 3 13L3.00013 19.566C3.00014 20.1183 3.44787 20.566 4.00015 20.566C4.55244 20.566 5.00014 20.1183 5.00013 19.566L5 13Z" fill="black"/>
<path d="M22 7.99999C21.4477 7.99999 21 8.44771 21 8.99999L21 23.566C21 24.1183 21.4477 24.566 22 24.566C22.5523 24.566 23 24.1183 23 23.566L23 9C23 8.44771 22.5523 8 22 7.99999Z" fill="black"/>
<path d="M27 13C27 12.4477 27.4478 12 28.0001 12C28.5523 12 29 12.4477 29 13L28.9999 19.566C28.9999 20.1183 28.5522 20.566 27.9999 20.566C27.4476 20.566 26.9999 20.1183 26.9999 19.566L27 13Z" fill="black"/>
</svg>
