<svg width="32" height="32" viewBox="0 0 32 32" fill="none" xmlns="http://www.w3.org/2000/svg">
<rect width="32" height="32" fill="white"/>
<path fill-rule="evenodd" clip-rule="evenodd" d="M10 3C10 2.44772 9.55228 2 9 2C8.44772 2 8 2.44772 8 3V6H5C3.34315 6 2 7.34315 2 9V12C2 13.6569 3.34315 15 5 15H8L8 29C8 29.5523 8.44772 30 9 30C9.55229 30 10 29.5523 10 29L10 15H13C14.6569 15 16 13.6569 16 12V9C16 7.34315 14.6569 6 13 6H10V3ZM13 13H5C4.44772 13 4 12.5523 4 12V9C4 8.44772 4.44772 8 5 8H13C13.5523 8 14 8.44772 14 9V12C14 12.5523 13.5523 13 13 13Z" fill="black"/>
<path fill-rule="evenodd" clip-rule="evenodd" d="M22 26V29C22 29.5523 22.4477 30 23 30C23.5523 30 24 29.5523 24 29V26H27C28.6569 26 30 24.6569 30 23V20C30 18.3431 28.6569 17 27 17H24V3C24 2.44772 23.5523 2 23 2C22.4477 2 22 2.44772 22 3V17H19C17.3431 17 16 18.3431 16 20V23C16 24.6569 17.3431 26 19 26H22ZM27 24C27.5523 24 28 23.5523 28 23V20C28 19.4477 27.5523 19 27 19H19C18.4477 19 18 19.4477 18 20V23C18 23.5523 18.4477 24 19 24H27Z" fill="black"/>
</svg>
