<svg width="32" height="32" viewBox="0 0 32 32" fill="none" xmlns="http://www.w3.org/2000/svg">
<rect width="32" height="32" fill="white"/>
<path fill-rule="evenodd" clip-rule="evenodd" d="M2 7C2 4.23857 4.23858 1.99999 7.00001 2L25 2.00004C27.7614 2.00005 30 4.23862 30 7.00004V25C30 27.7614 27.7614 30 25 30L7 30C4.23858 30 2 27.7614 2 25V7ZM28 25L28 22H23L23 28H25C26.6569 28 28 26.6568 28 25ZM28 12V20H23L23.0001 12H28ZM28 10L28 7.00004C28 5.34319 26.6569 4.00004 25 4.00004L23.0001 4.00003L23.0001 10H28ZM21.0001 10.9891L21.0001 4.00003L11.0001 4L11 28L21 28L21 21.0072L21 21L21 20.9928L21.0001 11.0109C21 11.0073 21 11.0036 21 11C21 10.9964 21 10.9927 21.0001 10.9891ZM9 28L9.00002 22H4V25C4 26.6568 5.34315 28 7 28H9ZM9.00006 12L9.00003 20H4L4 12H9.00006ZM9.00006 10L9.00008 4L7.00001 4C5.34315 4 4 5.34314 4 7V10H9.00006Z" fill="black"/>
</svg>
