<svg width="32" height="32" viewBox="0 0 32 32" fill="none" xmlns="http://www.w3.org/2000/svg">
<rect width="32" height="32" fill="white"/>
<path d="M10.2929 10.2929C10.6834 9.90237 11.3166 9.90237 11.7071 10.2929L12.7071 11.2929C13.0977 11.6834 13.0977 12.3166 12.7071 12.7071C12.3166 13.0976 11.6834 13.0976 11.2929 12.7071L10.2929 11.7071C9.9024 11.3166 9.9024 10.6834 10.2929 10.2929Z" fill="black"/>
<path d="M21.7071 11.7071C22.0976 11.3166 22.0976 10.6834 21.7071 10.2929C21.3166 9.9024 20.6834 9.9024 20.2929 10.2929L19.2929 11.2929C18.9024 11.6834 18.9024 12.3166 19.2929 12.7071C19.6834 13.0977 20.3166 13.0977 20.7071 12.7071L21.7071 11.7071Z" fill="black"/>
<path d="M10.2929 21.7071C10.6834 22.0976 11.3166 22.0976 11.7071 21.7071L12.7071 20.7071C13.0977 20.3166 13.0977 19.6834 12.7071 19.2929C12.3166 18.9024 11.6834 18.9024 11.2929 19.2929L10.2929 20.2929C9.9024 20.6834 9.9024 21.3166 10.2929 21.7071Z" fill="black"/>
<path d="M21.7071 20.2929C22.0976 20.6834 22.0976 21.3166 21.7071 21.7071C21.3166 22.0976 20.6834 22.0976 20.2929 21.7071L19.2929 20.7071C18.9024 20.3166 18.9024 19.6834 19.2929 19.2929C19.6834 18.9023 20.3166 18.9023 20.7071 19.2929L21.7071 20.2929Z" fill="black"/>
<path fill-rule="evenodd" clip-rule="evenodd" d="M23.2152 28C27.2808 25.5502 30 21.0927 30 16C30 8.26801 23.732 2 16 2C8.26801 2 2 8.26801 2 16C2 23.732 8.26801 30 16 30H29C29.5523 30 30 29.5523 30 29C30 28.4477 29.5523 28 29 28H23.2152ZM4 16C4 9.37258 9.37258 4 16 4C22.6274 4 28 9.37258 28 16C28 22.6274 22.6274 28 16 28C9.37258 28 4 22.6274 4 16Z" fill="black"/>
</svg>
