<svg width="32" height="32" viewBox="0 0 32 32" fill="none" xmlns="http://www.w3.org/2000/svg">
<rect width="32" height="32" fill="white"/>
<path fill-rule="evenodd" clip-rule="evenodd" d="M7.61336 9L13.3092 3.82192C15.8787 1.48602 19.9999 3.3091 19.9999 6.78167V25.2184C19.9999 28.6909 15.8787 30.514 13.3093 28.1781L7.61331 23H7C4.23858 23 2 20.7614 2 18V14C2 11.2386 4.23858 9 7 9H7.61336ZM14.6546 5.3018C15.9393 4.13384 17.9999 5.04539 17.9999 6.78167V25.2184C17.9999 26.9546 15.9393 27.8662 14.6546 26.6982L8.68047 21.2672C8.50199 21.1014 8.26284 21 8 21H7C5.34315 21 4 19.6569 4 18V14C4 12.3431 5.34315 11 7 11H8C8.26181 11 8.50013 10.8994 8.67839 10.7347L14.6546 5.3018Z" fill="black"/>
<path d="M24.5246 6.70259C24.0544 6.41289 23.4383 6.55922 23.1486 7.02943C22.8589 7.49963 23.0053 8.11566 23.4755 8.40536C26.1924 10.0793 28 13.079 28 16.5C28 19.921 26.1924 22.9207 23.4755 24.5946C23.0053 24.8843 22.8589 25.5003 23.1486 25.9705C23.4383 26.4407 24.0544 26.5871 24.5246 26.2974C27.8078 24.2746 30 20.6437 30 16.5C30 12.3562 27.8078 8.7254 24.5246 6.70259Z" fill="black"/>
<path d="M23.6524 13.2422C23.2339 12.8818 22.6025 12.929 22.2422 13.3476C21.8818 13.7662 21.929 14.3976 22.3476 14.7579C22.6823 15.046 23 15.6696 23 16.5C23 17.3305 22.6823 17.954 22.3476 18.2422C21.929 18.6025 21.8818 19.2339 22.2422 19.6524C22.6025 20.071 23.2339 20.1182 23.6524 19.7579C24.5178 19.0129 25 17.7836 25 16.5C25 15.2165 24.5178 13.9871 23.6524 13.2422Z" fill="black"/>
</svg>
