<svg width="32" height="32" viewBox="0 0 32 32" fill="none" xmlns="http://www.w3.org/2000/svg">
<rect width="32" height="32" fill="white"/>
<path fill-rule="evenodd" clip-rule="evenodd" d="M10 14C10 10.6863 12.6863 8 16 8C19.3137 8 22 10.6863 22 14C22 17.3137 19.3137 20 16 20C12.6863 20 10 17.3137 10 14ZM16 10C13.7909 10 12 11.7909 12 14C12 16.2091 13.7909 18 16 18C18.2091 18 20 16.2091 20 14C20 11.7909 18.2091 10 16 10Z" fill="black"/>
<path fill-rule="evenodd" clip-rule="evenodd" d="M4.00001 14C4.00001 7.37258 9.37259 2 16 2C22.6274 2 28 7.37258 28 14C28 16.9879 26.908 19.7208 25.1013 21.8213L27.5548 25.2562C28.9731 27.2418 27.5537 29.9999 25.1136 29.9999L6.88639 29.9999C4.44627 29.9999 3.0269 27.2418 4.44519 25.2562L6.89874 21.8213C5.09203 19.7208 4.00001 16.9879 4.00001 14ZM16 4C10.4772 4 6.00001 8.47715 6.00001 14C6.00001 19.5228 10.4772 24 16 24C21.5229 24 26 19.5228 26 14C26 8.47715 21.5229 4 16 4ZM8.3431 23.2401L6.07266 26.4187C5.5999 27.0806 6.07302 27.9999 6.88639 27.9999L25.1136 27.9999C25.927 27.9999 26.4001 27.0806 25.9273 26.4187L23.6569 23.2401C21.5792 24.9638 18.9106 26 16 26C13.0894 26 10.4208 24.9638 8.3431 23.2401Z" fill="black"/>
</svg>
