<svg width="16" height="16" viewBox="0 0 16 16" fill="none" xmlns="http://www.w3.org/2000/svg">
<rect width="16" height="16" fill="white"/>
<path d="M11.8937 6.00566C11.3446 6.06435 10.947 6.55711 11.0057 7.10627C11.0644 7.65543 11.5571 8.05303 12.1063 7.99434L11.8937 6.00566ZM15 5C15 4.44772 14.5523 4 14 4C13.4477 4 13 4.44772 13 5H15ZM3.89373 7.99434C4.44289 8.05303 4.93565 7.65543 4.99434 7.10627C5.05303 6.55711 4.65543 6.06435 4.10627 6.00566L3.89373 7.99434ZM3 5C3 4.44772 2.55228 4 2 4C1.44772 4 1 4.44772 1 5H3ZM12 12L12.1063 11.0057L12.0533 11H12V12ZM13 14C13 14.5523 13.4477 15 14 15C14.5523 15 15 14.5523 15 14H13ZM4 12V11H3.94671L3.89373 11.0057L4 12ZM1 14C1 14.5523 1.44772 15 2 15C2.55228 15 3 14.5523 3 14H1ZM7 9.99999C6.99999 10.5523 7.44771 11 7.99999 11C8.55228 11 8.99999 10.5523 9 10L7 9.99999ZM9.00002 7.99998C9.00002 7.4477 8.55231 6.99998 8.00003 6.99997C7.44774 6.99997 7.00002 7.44768 7.00002 7.99996L9.00002 7.99998ZM4.53513 12L5.40073 11.4993L4.53513 12ZM11.4649 12L10.5993 11.4993L11.4649 12ZM9 4V5H11V4H9ZM7 5V4H5V5H7ZM8 3C8.55228 3 9 3.44772 9 4H11C11 2.34315 9.65685 1 8 1V3ZM8 1C6.34315 1 5 2.34315 5 4H7C7 3.44772 7.44772 3 8 3V1ZM12.1063 7.99434C14.1689 7.77389 15 6.07245 15 5H13C13 5.09871 12.9461 5.34094 12.7654 5.5667C12.6068 5.76479 12.3455 5.95738 11.8937 6.00566L12.1063 7.99434ZM4.10627 6.00566C3.65451 5.95738 3.39324 5.76479 3.23465 5.5667C3.0539 5.34094 3 5.09871 3 5H1C1 6.07245 1.83109 7.77389 3.89373 7.99434L4.10627 6.00566ZM11.8937 12.9943C12.3455 13.0426 12.6068 13.2352 12.7654 13.4333C12.9461 13.6591 13 13.9013 13 14H15C15 12.9276 14.1689 11.2261 12.1063 11.0057L11.8937 12.9943ZM3.89373 11.0057C1.83109 11.2261 1 12.9276 1 14H3C3 13.9013 3.0539 13.6591 3.23465 13.4333C3.39324 13.2352 3.65451 13.0426 4.10627 12.9943L3.89373 11.0057ZM6.01597 6H9.98403V4H6.01597V6ZM11 7.01597V10H13V7.01597H11ZM5 10V7.01597H3V10H5ZM9.98403 6C10.5451 6 11 6.45487 11 7.01597H13C13 5.3503 11.6497 4 9.98403 4V6ZM6.01597 4C4.3503 4 3 5.3503 3 7.01597H5C5 6.45487 5.45487 6 6.01597 6V4ZM9 10L9.00002 7.99998L7.00002 7.99996L7 9.99999L9 10ZM8 13C6.89084 13 5.92096 12.3986 5.40073 11.4993L3.66952 12.5007C4.53254 13.9926 6.14804 15 8 15V13ZM5.40073 11.4993C5.14607 11.059 5 10.5481 5 10H3C3 10.9091 3.24351 11.7643 3.66952 12.5007L5.40073 11.4993ZM4 13H4.53513V11H4V13ZM11 10C11 10.5481 10.8539 11.059 10.5993 11.4993L12.3305 12.5007C12.7565 11.7643 13 10.9091 13 10H11ZM10.5993 11.4993C10.079 12.3986 9.10916 13 8 13V15C9.85196 15 11.4675 13.9926 12.3305 12.5007L10.5993 11.4993ZM12 11H11.4649V13H12V11Z" fill="black"/>
</svg>
