<svg width="16" height="16" viewBox="0 0 16 16" fill="none" xmlns="http://www.w3.org/2000/svg">
<rect width="16" height="16" fill="white"/>
<path d="M9 7.53846C9 6.98618 8.55229 6.53846 8 6.53846C7.44772 6.53846 7 6.98618 7 7.53846H9ZM8 14L7.29289 14.7071C7.48043 14.8946 7.73478 15 8 15C8.26522 15 8.51957 14.8946 8.70711 14.7071L8 14ZM11.0148 12.3994C11.4053 12.0089 11.4053 11.3757 11.0148 10.9852C10.6243 10.5947 9.99111 10.5947 9.60059 10.9852L11.0148 12.3994ZM6.39941 10.9852C6.00889 10.5947 5.37573 10.5947 4.9852 10.9852C4.59468 11.3757 4.59468 12.0089 4.9852 12.3994L6.39941 10.9852ZM4.87915 9.91702C5.42809 9.85631 5.82388 9.36209 5.76317 8.81316C5.70246 8.26422 5.20825 7.86843 4.65931 7.92914L4.87915 9.91702ZM4.07692 4.76923L4.07945 3.76923H4.07692V4.76923ZM4.0825 4.76924L4.07998 5.76924L4.78905 5.77103L5.02534 5.10248L4.0825 4.76924ZM11.7222 4.30788L10.8266 4.75286L11.0985 5.30005L11.7095 5.3078L11.7222 4.30788ZM10.7692 7.92308C10.2169 7.92308 9.76923 8.37079 9.76923 8.92308C9.76923 9.47536 10.2169 9.92308 10.7692 9.92308V7.92308ZM7 7.53846L7 14H9L9 7.53846H7ZM9.60059 10.9852L7.29289 13.2929L8.70711 14.7071L11.0148 12.3994L9.60059 10.9852ZM8.70711 13.2929L6.39941 10.9852L4.9852 12.3994L7.29289 14.7071L8.70711 13.2929ZM4.65931 7.92914C4.69725 7.92494 4.72006 7.92517 4.69505 7.92582C4.6822 7.92615 4.66193 7.92646 4.63376 7.92663C4.57801 7.92698 4.50632 7.92676 4.43072 7.92624C4.29372 7.92531 4.11786 7.92308 4.07692 7.92308V9.92308C4.11398 9.92308 4.2464 9.92503 4.4171 9.9262C4.49536 9.92673 4.57739 9.92703 4.64636 9.92659C4.68674 9.92634 4.79624 9.92619 4.87915 9.91702L4.65931 7.92914ZM4.07692 7.92308C3.48215 7.92308 3 7.44093 3 6.84615H1C1 8.5455 2.37758 9.92308 4.07692 9.92308V7.92308ZM3 6.84615C3 6.25138 3.48215 5.76923 4.07692 5.76923V3.76923C2.37758 3.76923 1 5.14681 1 6.84615H3ZM4.0744 5.76923L4.07998 5.76924L4.08502 3.76925L4.07945 3.76923L4.0744 5.76923ZM5.02534 5.10248C5.45876 3.8762 6.62834 3 8 3V1C5.7544 1 3.84668 2.43561 3.13966 4.43601L5.02534 5.10248ZM8 3C9.23691 3 10.3094 3.7119 10.8266 4.75286L12.6177 3.8629C11.7756 2.16817 10.0251 1 8 1V3ZM11.7095 5.3078C12.4236 5.31685 13 5.89889 13 6.61538H15C15 4.80283 13.5422 3.33087 11.7348 3.30796L11.7095 5.3078ZM13 6.61538C13 7.3376 12.4145 7.92308 11.6923 7.92308V9.92308C13.5191 9.92308 15 8.44217 15 6.61538H13ZM11.6923 7.92308H10.7692V9.92308H11.6923V7.92308Z" fill="black"/>
</svg>
