<svg width="16" height="16" viewBox="0 0 16 16" fill="none" xmlns="http://www.w3.org/2000/svg">
<rect width="16" height="16" fill="white"/>
<path d="M10 8C10 9.10457 9.10457 10 8 10C6.89543 10 6 9.10457 6 8C6 6.89543 6.89543 6 8 6C9.10457 6 10 6.89543 10 8Z" stroke="black" stroke-width="2"/>
<path d="M7.09025 2.21668C7.65458 1.92777 8.34542 1.92777 8.90975 2.21668L13.0903 4.39672C13.6494 4.69369 13.9948 5.23408 14 5.81996V10.18C13.9948 10.7659 13.6494 11.3063 13.0902 11.6033L8.90975 13.7833C8.34542 14.0722 7.65458 14.0722 7.09025 13.7833L2.90975 11.6033C2.35058 11.3063 2.00516 10.7659 2 10.18L2 5.81996C2.00516 5.23408 2.35058 4.69369 2.90975 4.39672L7.09025 2.21668Z" stroke="black" stroke-width="2"/>
</svg>
