<svg width="16" height="16" viewBox="0 0 16 16" fill="none" xmlns="http://www.w3.org/2000/svg">
<rect width="16" height="16" fill="white"/>
<path d="M9.23495 6.69227C8.55702 6.0137 8.55997 4.91261 9.24148 4.23768L10.4201 3.07053C10.8243 2.67021 10.6495 2 10.0805 2C7.91589 2 6.16107 3.75649 6.16107 5.92324C6.16107 6.2807 6.20883 6.627 6.2983 6.95608L2.56727 10.6907C1.81095 11.4478 1.81095 12.6752 2.56727 13.4322C3.32359 14.1893 4.54984 14.1893 5.30616 13.4322L9.03068 9.70414C9.36481 9.7969 9.7169 9.84647 10.0805 9.84647C12.2452 9.84647 14 8.08998 14 5.92324C14 5.29602 13.2606 5.11085 12.8173 5.55457L11.6807 6.69227C11.0053 7.36828 9.9103 7.36829 9.23495 6.69227Z" stroke="black" stroke-width="2"/>
</svg>
