<svg width="16" height="16" viewBox="0 0 16 16" fill="none" xmlns="http://www.w3.org/2000/svg">
<rect width="16" height="16" fill="white"/>
<path d="M7 7C7 7.55228 7.44772 8 8 8C8.55228 8 9 7.55228 9 7H7ZM9 2C9 1.44772 8.55228 1 8 1C7.44772 1 7 1.44772 7 2H9ZM9 7V2H7V7H9ZM12 9C12 11.2091 10.2091 13 8 13V15C11.3137 15 14 12.3137 14 9H12ZM8 13C5.79086 13 4 11.2091 4 9H2C2 12.3137 4.68629 15 8 15V13ZM4 9C4 6.79086 5.79086 5 8 5V3C4.68629 3 2 5.68629 2 9H4ZM8 5C10.2091 5 12 6.79086 12 9H14C14 5.68629 11.3137 3 8 3V5Z" fill="black"/>
</svg>
