<svg width="32" height="32" viewBox="0 0 32 32" fill="none" xmlns="http://www.w3.org/2000/svg">
<rect width="32" height="32" fill="white"/>
<path d="M29 21H30H29ZM29 27.5858H28H29ZM12 17L12 16L12 17ZM25 17L25 18L25 17ZM24 25L24.7071 24.2929L24.4142 24H24V25ZM27.2929 28.2929L28 27.5858L27.2929 28.2929ZM12 25V26V25ZM8 21H9H8ZM3 7H2H3ZM3 14.2379H4H3ZM20 3.00003L20 4.00003L20 3.00003ZM7.00001 3L7.00001 4L7.00001 3ZM8 11V9.99999H7.53162L7.23178 10.3598L8 11ZM4.76822 14.8781L5.53644 15.5183H5.53644L4.76822 14.8781ZM20 11V12V11ZM24 7.00001H23H24ZM28 21V27.5858H30V21H28ZM12 18L25 18L25 16L12 16L12 18ZM23.2929 25.7071L26.5858 29L28 27.5858L24.7071 24.2929L23.2929 25.7071ZM12 26L24 26V24L12 24V26ZM9 21C9 19.3432 10.3431 18 12 18L12 16C9.23856 16 7 18.2386 7 21H9ZM30 21C30 18.2386 27.7614 16 25 16L25 18C26.6568 18 28 19.3431 28 21H30ZM28 27.5858L28 27.5858L26.5858 29C27.8457 30.2599 30 29.3676 30 27.5858H28ZM7 21C7 23.7614 9.23857 26 12 26V24C10.3431 24 9 22.6569 9 21H7ZM2 7L2 14.2379H4L4 7H2ZM20 2.00003L7.00001 2L7.00001 4L20 4.00003L20 2.00003ZM7.23178 10.3598L4 14.2379L5.53644 15.5183L8.76822 11.6402L7.23178 10.3598ZM20 9.99999L8 9.99999V12L20 12V9.99999ZM25 7.00001C25 4.23861 22.7614 2.00004 20 2.00003L20 4.00003C21.6569 4.00004 23 5.34317 23 7.00001H25ZM4 7C4 5.34314 5.34315 4 7.00001 4L7.00001 2C4.23858 1.99999 2 4.23857 2 7H4ZM2 14.2379C2 16.1085 4.33891 16.9553 5.53644 15.5183L4 14.2379L4 14.2379H2ZM23 7.00001C23 8.65685 21.6569 9.99999 20 9.99999V12C22.7614 12 25 9.76142 25 7.00001H23Z" fill="black"/>
</svg>
