<svg width="32" height="32" viewBox="0 0 32 32" fill="none" xmlns="http://www.w3.org/2000/svg">
<rect width="32" height="32" fill="white"/>
<path d="M15.9583 29V30V29ZM29 15.9343H30H29ZM28.9583 28.91L28.9681 29.91C29.2927 29.9068 29.5957 29.7462 29.7805 29.4793C29.9653 29.2123 30.0091 28.8722 29.8978 28.5672L28.9583 28.91ZM26.8333 23.0865L26.0019 22.5309C25.8247 22.796 25.7846 23.1297 25.8939 23.4293L26.8333 23.0865ZM11 13C11 13.5523 11.4477 14 12 14C12.5523 14 13 13.5523 13 13H11ZM16 18L15.2514 17.3369C15.0894 17.5198 15 17.7557 15 18H16ZM15 18.3333C15 18.8856 15.4477 19.3333 16 19.3333C16.5523 19.3333 17 18.8856 17 18.3333H15ZM15 23.0865C15 23.6388 15.4477 24.0865 16 24.0865C16.5523 24.0865 17 23.6388 17 23.0865L15 23.0865ZM17 22C17 21.4477 16.5523 21 16 21C15.4477 21 15 21.4477 15 22H17ZM30 15.9343C30 8.23382 23.7272 2 16 2V4C22.6322 4 28 9.34793 28 15.9343H30ZM16 2C8.2728 2 2 8.23382 2 15.9343H4C4 9.34793 9.3678 4 16 4V2ZM2 15.9343C2 23.6174 8.21385 30 15.9583 30V28C9.34343 28 4 22.538 4 15.9343H2ZM27.6648 23.6421C29.1401 21.4344 30 18.783 30 15.9343H28C28 18.3746 27.2646 20.6414 26.0019 22.5309L27.6648 23.6421ZM29.8978 28.5672L27.7727 22.7437L25.8939 23.4293L28.0189 29.2528L29.8978 28.5672ZM15.9583 30C20.307 30 24.6143 29.9523 28.9681 29.91L28.9486 27.9101C24.5904 27.9525 20.2949 28 15.9583 28V30ZM13 13C13 11.3431 14.3431 10 16 10V8C13.2386 8 11 10.2386 11 13H13ZM16 10C17.6569 10 19 11.3431 19 13H21C21 10.2386 18.7614 8 16 8V10ZM15 18V18.3333H17V18H15ZM19 13C19 13.6105 18.5991 14.2487 17.7811 15.034C17.3869 15.4124 16.9575 15.7694 16.5082 16.1533C16.0772 16.5215 15.6192 16.9218 15.2514 17.3369L16.7486 18.6631C17.0123 18.3654 17.3699 18.0476 17.8074 17.6738C18.2265 17.3157 18.7181 16.9069 19.1661 16.4768C20.0323 15.6453 21 14.4965 21 13H19ZM17 23.0865C17 22.5865 17 23 17 22H15C15 23 15 22.5865 15 23.0865L17 23.0865Z" fill="black"/>
</svg>
