<svg width="32" height="32" viewBox="0 0 32 32" fill="none" xmlns="http://www.w3.org/2000/svg">
<rect width="32" height="32" fill="white"/>
<path d="M3 7H2H3ZM29 7.00004H28H29ZM29 21H30H29ZM25 3.00004L25 4.00004L25 3.00004ZM7.00001 3L7.00001 2L7.00001 3ZM10 25V24H9.67953L9.41876 24.1863L10 25ZM4.58124 28.8705L4 28.0568L4 28.0568L4.58124 28.8705ZM25 25V24V25ZM22 12C22.5523 12 23 11.5523 23 11C23 10.4477 22.5523 9.99999 22 9.99999V12ZM10 9.99999C9.44771 9.99999 9 10.4477 9 11C9 11.5523 9.44771 12 10 12V9.99999ZM18 18C18.5523 18 19 17.5523 19 17C19 16.4477 18.5523 16 18 16V18ZM10 16C9.44771 16 9 16.4477 9 17C9 17.5523 9.44771 18 10 18V16ZM2 7L2 28.0568H4L4 7H2ZM28 7.00004V21H30V7.00004H28ZM25 2.00004L7.00001 2L7.00001 4L25 4.00004L25 2.00004ZM9.41876 24.1863L4 28.0568L5.16248 29.6843L10.5812 25.8137L9.41876 24.1863ZM25 24L10 24V26L25 26V24ZM30 7.00004C30 4.23862 27.7614 2.00004 25 2.00004L25 4.00004C26.6569 4.00004 28 5.34318 28 7.00004H30ZM4 7C4 5.34314 5.34315 4 7.00001 4L7.00001 2C4.23858 1.99999 2 4.23857 2 7H4ZM2 28.0568C2 29.6835 3.83874 30.6298 5.16248 29.6843L4 28.0568H4H2ZM28 21C28 22.6568 26.6569 24 25 24V26C27.7614 26 30 23.7614 30 21H28ZM22 9.99999L10 9.99999V12H22V9.99999ZM18 16L10 16V18L18 18V16Z" fill="black"/>
</svg>
