<svg width="32" height="32" viewBox="0 0 32 32" fill="none" xmlns="http://www.w3.org/2000/svg">
<rect width="32" height="32" fill="white"/>
<path fill-rule="evenodd" clip-rule="evenodd" d="M10 2C7.23858 2 5 4.23858 5 7V15.416C3.2341 16.1876 2 17.9497 2 20V29C2 29.5523 2.44772 30 3 30C3.55228 30 4 29.5523 4 29V27H28V29C28 29.5523 28.4477 30 29 30C29.5523 30 30 29.5523 30 29V20C30 17.9497 28.7659 16.1876 27 15.416V7C27 4.23858 24.7614 2 22 2H10ZM28 25V20C28 18.3431 26.6569 17 25 17H7C5.34315 17 4 18.3431 4 20V25H28ZM25 7C25 5.34315 23.6569 4 22 4H10C8.34315 4 7 5.34315 7 7V15H10V11C10 9.89543 10.8954 9 12 9H20C21.1046 9 22 9.89543 22 11V15H25V7ZM20 15H12V11H20V15Z" fill="black"/>
</svg>
