<svg width="32" height="32" viewBox="0 0 32 32" fill="none" xmlns="http://www.w3.org/2000/svg">
<rect width="32" height="32" fill="white"/>
<path d="M16.9449 3C16.9449 2.66422 16.7763 2.35084 16.4962 2.16571C16.216 1.98058 15.8617 1.94842 15.5528 2.08007C11.7742 3.69051 8.79902 7.92957 6.71935 12.4021C4.61709 16.9232 3.30477 21.9548 3.00364 25.5012C2.95692 26.0515 3.36515 26.5354 3.91545 26.5822C4.46575 26.6289 4.94974 26.2207 4.99647 25.6704C5.27543 22.3851 6.51701 17.5807 8.53289 13.2454C10.2588 9.53363 12.464 6.35662 14.956 4.67847C14.9874 6.15535 15.1072 7.59654 15.5629 8.99574L15.7234 9.48878L16.2189 9.64164C17.0411 9.89527 17.7632 10.0432 18.3975 10.1732L18.4256 10.179C19.0775 10.3126 19.6158 10.4249 20.154 10.6094C21.1751 10.9593 22.2885 11.6022 23.8971 13.3466L23.9092 13.3601L23.9586 13.4153C24.0017 13.4632 24.0643 13.5329 24.1433 13.6203C24.3013 13.7951 24.5247 14.0413 24.7873 14.3271C25.311 14.8972 25.996 15.6314 26.6288 16.2735C26.6304 16.2754 26.6473 16.2945 26.673 16.3407C26.7006 16.39 26.7316 16.4583 26.7618 16.5462C26.8229 16.7241 26.8682 16.9456 26.8862 17.1789C26.9042 17.4131 26.8922 17.628 26.8591 17.7942C26.8324 17.9284 26.801 17.988 26.794 18.0013C26.793 18.0032 26.7926 18.0042 26.7926 18.0042L25.6439 19.317C25.2641 19.751 24.7155 20 24.1388 20C22.3134 20 18.8671 20.3963 16.9888 20.0234C16.1798 19.8627 15.4476 19.4688 14.8575 18.4854C14.5734 18.0119 13.9591 17.8583 13.4855 18.1424C13.012 18.4266 12.8584 19.0409 13.1425 19.5144C14.0525 21.0311 15.2955 21.7262 16.5992 21.9851C16.9621 22.0571 17.3304 22.0949 17.6942 22.1102C17.3351 22.9433 17.2119 24.0131 17.5343 25.303C17.8781 26.6788 18.143 27.6361 18.3362 28.2773C18.5154 28.8724 18.657 29.2809 18.7627 29.4761C19.0257 29.9618 19.6325 30.1423 20.1182 29.8794C20.6039 29.6164 20.7844 29.0095 20.5214 28.5239C20.5237 28.5281 20.5218 28.5228 20.5154 28.506C20.4915 28.4423 20.4055 28.2127 20.2512 27.7005C20.0699 27.0986 19.8134 26.1736 19.4746 24.8181C18.9517 22.7258 20.1709 22.0668 20.4537 22H24.1388C25.2922 22 26.3895 21.5021 27.1491 20.634L28.3014 19.317C28.6022 18.9732 28.7483 18.548 28.8206 18.1848C28.8958 17.8072 28.9096 17.4055 28.8803 17.0254C28.851 16.6442 28.776 16.2535 28.6532 15.8962C28.5349 15.5521 28.3485 15.1693 28.0534 14.8698C27.4446 14.252 26.7778 13.5375 26.2601 12.9741C26.002 12.6931 25.7823 12.4511 25.6274 12.2796C25.5499 12.1938 25.4886 12.1257 25.4469 12.0792L25.3843 12.0093L25.3782 12.0025L25.3729 11.9968C23.5959 10.0685 22.2129 9.20076 20.8023 8.71737C20.1284 8.48641 19.4706 8.3516 18.8391 8.22217L18.8246 8.21921C18.3343 8.1187 17.8457 8.01857 17.3194 7.87757C16.9519 6.45072 16.9449 4.9104 16.9449 3Z" fill="black"/>
</svg>
