<svg width="32" height="32" viewBox="0 0 32 32" fill="none" xmlns="http://www.w3.org/2000/svg">
<rect width="32" height="32" fill="white"/>
<path fill-rule="evenodd" clip-rule="evenodd" d="M13.7479 7.29269C13.5046 7.02078 13.2608 6.74832 13 6.5C12.6248 6.91891 12.2402 7.32417 11.8535 7.73155L11.8059 7.78171C11.5075 8.09612 11.1078 8.54246 10.7056 9.06839C10.3056 9.59159 9.8886 10.2123 9.56831 10.8753C9.25188 11.5303 9 12.2874 9 13.0667C9 14.9371 10.3178 16.4778 12.0626 16.8909C12.9726 18.1286 14.3887 18.9969 16.0001 19.2542V22H14.1429C13.5906 22 13.1429 22.4477 13.1429 23C13.1429 23.5523 13.5906 24 14.1429 24H19.8572C20.4095 24 20.8572 23.5523 20.8572 23C20.8572 22.4477 20.4095 22 19.8572 22H18.0001V19.2542C20.7932 18.8082 23.0001 16.5262 23.0001 13.6667V12C23.0001 10.8954 22.1046 10 21.0001 10H15.944C15.7347 9.66653 15.512 9.35303 15.2944 9.06839C14.8922 8.54246 14.4925 8.09612 14.1941 7.78171C14.0431 7.62258 13.8956 7.45773 13.7479 7.29269ZM17.0001 17.3333C16.1147 17.3333 15.3128 17.0751 14.6633 16.6441C16.035 16.0263 17 14.6672 17 13.0667C17 12.7036 16.9453 12.3454 16.8549 12H21.0001V13.6667C21.0001 15.6278 19.2753 17.3333 17.0001 17.3333ZM13 9.43599C12.784 9.67566 12.5386 9.96384 12.2944 10.2832C11.9444 10.7409 11.6114 11.2439 11.3692 11.7453C11.1231 12.2546 11 12.7026 11 13.0667C11 14.1133 11.8741 15 13 15C14.1259 15 15 14.1133 15 13.0667C15 12.7026 14.8769 12.2546 14.6308 11.7453C14.3886 11.2439 14.0556 10.7409 13.7056 10.2832C13.4614 9.96384 13.216 9.67566 13 9.43599Z" fill="black"/>
<path fill-rule="evenodd" clip-rule="evenodd" d="M6 30H26C27.6569 30 29 28.6568 29 27L29 5C29 3.34314 27.6568 2 26 2H6C4.34314 2 3 3.34315 3 5V27C3 28.6569 4.34315 30 6 30ZM26 28H6C5.44772 28 5 27.5523 5 27L5 5C5 4.44771 5.44771 4 6 4L26 4C26.5523 4 27 4.44771 27 5L27 27C27 27.5523 26.5523 28 26 28Z" fill="black"/>
</svg>
