<svg width="32" height="32" viewBox="0 0 32 32" fill="none" xmlns="http://www.w3.org/2000/svg">
<rect width="32" height="32" fill="white"/>
<path fill-rule="evenodd" clip-rule="evenodd" d="M7 11.5C7 9.01472 9.01472 7 11.5 7C13.9853 7 16 9.01472 16 11.5C16 13.9853 13.9853 16 11.5 16C9.01472 16 7 13.9853 7 11.5ZM11.5 9C10.1193 9 9 10.1193 9 11.5C9 12.8807 10.1193 14 11.5 14C12.8807 14 14 12.8807 14 11.5C14 10.1193 12.8807 9 11.5 9Z" fill="black"/>
<path fill-rule="evenodd" clip-rule="evenodd" d="M4.9236 4.74577C6.85772 3.00782 9.6581 2 13.1739 2C16.7638 2 20.8522 2.78204 24.0717 4.12631C25.6802 4.79791 27.1257 5.63202 28.1855 6.62443C29.2448 7.61635 30 8.84866 30 10.2857V12.7143C30 15.7153 27.4432 17.7774 24.3882 19.0416C21.6521 20.1738 18.1868 20.8211 14.7014 20.9678L12.0246 27.9944C11.5646 29.202 10.4066 30 9.11433 30C7.39433 30 6 28.6057 6 26.8857V19.0863C5.61598 18.8316 5.25693 18.5538 4.9236 18.2542C2.98365 16.511 2 14.1072 2 11.5C2 8.8928 2.98365 6.48896 4.9236 4.74577ZM6.26035 6.23341C4.77666 7.56662 4 9.41278 4 11.5C4 13.5872 4.77666 15.4334 6.26035 16.7666C7.74987 18.105 10.0364 19 13.1739 19C16.9733 19 20.7925 18.365 23.6235 17.1935C26.5357 15.9885 28 14.4077 28 12.7143V10.2857C28 9.59777 27.6435 8.85687 26.8185 8.08427C25.994 7.31218 24.7827 6.59049 23.3012 5.9719C20.3407 4.73582 16.516 4 13.1739 4C10.0364 4 7.74987 4.89497 6.26035 6.23341ZM8 20.1135V26.8857C8 27.5011 8.4989 28 9.11433 28C9.57671 28 9.99106 27.7145 10.1557 27.2824L12.553 20.9893C10.8508 20.9302 9.32696 20.6269 8 20.1135Z" fill="black"/>
</svg>
