<svg width="32" height="32" viewBox="0 0 32 32" fill="none" xmlns="http://www.w3.org/2000/svg">
<rect width="32" height="32" fill="white"/>
<path fill-rule="evenodd" clip-rule="evenodd" d="M12.75 6.5C12.75 5.11929 13.8693 4 15.25 4C16.6307 4 17.75 5.11929 17.75 6.5C17.75 7.05228 18.1977 7.5 18.75 7.5C19.3023 7.5 19.75 7.05228 19.75 6.5C19.75 4.01472 17.7353 2 15.25 2C12.7648 2 10.75 4.01472 10.75 6.5C10.75 8.27028 11.9829 9.6765 13.3689 10.3972C14.2651 10.8631 14.75 11.4826 14.75 12V12.9464C14.3542 13.0825 13.9809 13.3039 13.6587 13.6109L2.93109 23.8276C0.970028 25.6953 2.29193 29 5.00006 29L26.1146 29C28.7993 29 30.1323 25.7438 28.2183 23.8612L17.8313 13.6445C17.5138 13.3322 17.1439 13.1047 16.75 12.9622V12C16.75 10.3083 15.3555 9.17587 14.2916 8.62271C13.3302 8.12283 12.75 7.28989 12.75 6.5ZM26.8159 25.2871C27.4539 25.9146 27.0095 27 26.1146 27L5.00006 27C4.09734 27 3.65671 25.8984 4.3104 25.2759L15.038 15.0591C15.4287 14.687 16.0442 14.692 16.4289 15.0703L26.8159 25.2871Z" fill="black"/>
</svg>
