<svg width="32" height="32" viewBox="0 0 32 32" fill="none" xmlns="http://www.w3.org/2000/svg">
<rect width="32" height="32" fill="white"/>
<path fill-rule="evenodd" clip-rule="evenodd" d="M20.0261 2.00002C21.3408 2.00002 22.5023 2.85599 22.8916 4.11171L27.2316 18.1117C27.8301 20.0421 26.3872 22 24.3661 22L17 22L17 29C17 29.5523 16.5523 30 16 30C15.4477 30 15 29.5523 15 29L15 22L11 22V25C11 25.5523 10.5523 26 10 26C9.44772 26 9 25.5523 9 25V22H7.6967C5.68328 22 4.24143 20.0559 4.82587 18.1292L9.07252 4.1292C9.45609 2.86466 10.6219 2.00002 11.9433 2.00002H20.0261ZM20.9813 4.70391C20.8515 4.28534 20.4644 4.00001 20.0261 4.00002L11.9433 4.00002C11.5029 4.00002 11.1143 4.28823 10.9864 4.70974L6.73976 18.7097C6.54494 19.3519 7.02556 20 7.6967 20L24.3661 20C25.0398 20 25.5208 19.3474 25.3213 18.7039L20.9813 4.70391Z" fill="black"/>
</svg>
