<svg width="32" height="32" viewBox="0 0 32 32" fill="none" xmlns="http://www.w3.org/2000/svg">
<rect width="32" height="32" fill="white"/>
<path fill-rule="evenodd" clip-rule="evenodd" d="M17 26.9589C23.1595 26.4508 28 21.2907 28 15V12H29C29.5523 12 30 11.5523 30 11C30 10.4477 29.5523 10 29 10H24V3C24 2.44771 23.5523 2 23 2C22.4477 2 22 2.44771 22 3V10H10L10 3C10 2.44771 9.55229 2 9 2C8.44772 2 8 2.44771 8 3L8 10H3C2.44772 10 2 10.4477 2 11C2 11.5523 2.44772 12 3 12H4V15C4 21.2907 8.84047 26.4508 15 26.9589V29C15 29.5523 15.4477 30 16 30C16.5523 30 17 29.5523 17 29V26.9589ZM6 12V15C6 20.5228 10.4772 25 16 25C21.5228 25 26 20.5228 26 15V12H6Z" fill="black"/>
</svg>
