<svg width="32" height="32" viewBox="0 0 32 32" fill="none" xmlns="http://www.w3.org/2000/svg">
<rect width="32" height="32" fill="white"/>
<path fill-rule="evenodd" clip-rule="evenodd" d="M22 7C22 5.34315 23.3431 4 25 4C26.6569 4 28 5.34315 28 7C28 7.55228 28.4477 8 29 8C29.5523 8 30 7.55228 30 7C30 4.23858 27.7614 2 25 2C22.2386 2 20 4.23858 20 7V12H6V7C6 5.34315 7.34315 4 9 4C10.6569 4 12 5.34315 12 7C12 7.55228 12.4477 8 13 8C13.5523 8 14 7.55228 14 7C14 4.23858 11.7614 2 9 2C6.23858 2 4 4.23858 4 7V20.634C4 20.6904 4.00467 20.7458 4.01365 20.7996C3.69985 20.929 3.37266 21 3 21C2.44772 21 2 21.4477 2 22C2 22.5523 2.44772 23 3 23C4.74875 23 5.92114 22.052 6.81371 21.3302L6.87834 21.2779C7.83497 20.5053 8.50556 20 9.5 20C10.4944 20 11.165 20.5053 12.1217 21.2779L12.1863 21.3302C13.0789 22.052 14.2513 23 16 23C17.7487 23 18.9211 22.052 19.8137 21.3302L19.8783 21.2779C20.835 20.5053 21.5056 20 22.5 20C23.4944 20 24.165 20.5053 25.1217 21.2779L25.1863 21.3302C26.0789 22.052 27.2513 23 29 23C29.5523 23 30 22.5523 30 22C30 21.4477 29.5523 21 29 21C28.0056 21 27.335 20.4947 26.3783 19.7221L26.3137 19.6698C25.4211 18.948 24.2487 18 22.5 18C22.3278 18 22.1613 18.0092 22 18.0264V7ZM6 14V19.4182C6.85116 18.7459 7.94885 18 9.5 18C11.2487 18 12.4211 18.948 13.3137 19.6698L13.3783 19.7221C14.335 20.4947 15.0056 21 16 21C16.9944 21 17.665 20.4947 18.6217 19.7221L18.6863 19.6698C19.066 19.3628 19.4963 19.0148 20 18.7163V14H6Z" fill="black"/>
<path d="M2 29C2 29.5523 2.44772 30 3 30C4.74875 30 5.92114 29.052 6.81371 28.3302L6.87834 28.2779C7.83497 27.5053 8.50556 27 9.5 27C10.4944 27 11.165 27.5053 12.1217 28.2779L12.1863 28.3302C13.0789 29.052 14.2513 30 16 30C17.7487 30 18.9211 29.052 19.8137 28.3302L19.8783 28.2779C20.835 27.5053 21.5056 27 22.5 27C23.4944 27 24.165 27.5053 25.1217 28.2779L25.1863 28.3302C26.0789 29.052 27.2513 30 29 30C29.5523 30 30 29.5523 30 29C30 28.4477 29.5523 28 29 28C28.0056 28 27.335 27.4947 26.3783 26.7221L26.3137 26.6698C25.4211 25.948 24.2487 25 22.5 25C20.7513 25 19.5789 25.948 18.6863 26.6698L18.6217 26.7221C17.665 27.4947 16.9944 28 16 28C15.0056 28 14.335 27.4947 13.3783 26.7221L13.3137 26.6698C12.4211 25.948 11.2487 25 9.5 25C7.75125 25 6.57886 25.948 5.68629 26.6698L5.62166 26.7221C4.66503 27.4947 3.99444 28 3 28C2.44772 28 2 28.4477 2 29Z" fill="black"/>
</svg>
