<svg width="32" height="32" viewBox="0 0 32 32" fill="none" xmlns="http://www.w3.org/2000/svg">
<rect width="32" height="32" fill="white"/>
<path d="M24.7928 1.29289C25.1834 0.902369 25.8165 0.902369 26.2071 1.29289L30.7071 5.79289C31.0976 6.18342 31.0976 6.81658 30.7071 7.20711C30.3165 7.59763 29.6834 7.59763 29.2928 7.20711L24.7928 2.70711C24.4023 2.31658 24.4023 1.68342 24.7928 1.29289Z" fill="black"/>
<path fill-rule="evenodd" clip-rule="evenodd" d="M23.5551 10.5159L21.4338 8.39461C20.2622 7.22303 18.3627 7.22303 17.1911 8.39461L3.70705 21.8787C2.53547 23.0503 2.53548 24.9498 3.70705 26.1213L5.82836 28.2427C6.99994 29.4142 8.89943 29.4142 10.071 28.2427L23.5551 14.7586C24.7267 13.587 24.7267 11.6875 23.5551 10.5159ZM20.0196 9.80882L22.1409 11.9301C22.5314 12.3207 22.5314 12.9538 22.1409 13.3444L13.1997 22.2855L9.66417 18.75L18.6053 9.80882C18.9959 9.4183 19.629 9.4183 20.0196 9.80882ZM8.24996 20.1642L5.12126 23.2929C4.73074 23.6834 4.73074 24.3166 5.12126 24.7071L7.24258 26.8284C7.6331 27.219 8.26627 27.219 8.65679 26.8284L11.7855 23.6997L8.24996 20.1642Z" fill="black"/>
<path d="M23.2071 4.29289C22.8165 3.90237 22.1834 3.90237 21.7928 4.29289C21.4023 4.68342 21.4023 5.31658 21.7928 5.70711L26.2928 10.2071C26.6834 10.5976 27.3165 10.5976 27.7071 10.2071C28.0976 9.81658 28.0976 9.18342 27.7071 8.79289L23.2071 4.29289Z" fill="black"/>
</svg>
