<svg width="32" height="32" viewBox="0 0 32 32" fill="none" xmlns="http://www.w3.org/2000/svg">
<rect width="32" height="32" fill="white"/>
<path d="M14 21C13.4477 21 13 21.4477 13 22C13 22.5523 13.4477 23 14 23H18C18.5523 23 19 22.5523 19 22C19 21.4477 18.5523 21 18 21H14Z" fill="black"/>
<path d="M13 11C13 10.4477 13.4477 10 14 10H18C18.5523 10 19 10.4477 19 11C19 11.5523 18.5523 12 18 12H14C13.4477 12 13 11.5523 13 11Z" fill="black"/>
<path fill-rule="evenodd" clip-rule="evenodd" d="M2 5C2 3.89543 2.89543 3 4 3H28C29.1046 3 30 3.89543 30 5V29C30 29.5523 29.5523 30 29 30C28.4477 30 28 29.5523 28 29V28H4V29C4 29.5523 3.55228 30 3 30C2.44772 30 2 29.5523 2 29V5ZM4 17V26H28V17H4ZM28 15H4V5L28 5V15Z" fill="black"/>
</svg>
