<svg xmlns="http://www.w3.org/2000/svg" xml:space="preserve" id="Layer_1" x="0" y="0" version="1.1" viewBox="0 0 500 500">
  <style>
    .st1{fill:none;stroke:#000;stroke-width:8;stroke-linecap:round;stroke-linejoin:round;stroke-miterlimit:10}
  </style>
  <path d="m306.2 225.22-31.42-31.42c-18.29-18.29-18.29-47.95 0-66.25l2.55-2.55L375 222.66l-2.55 2.55c-18.3 18.3-47.96 18.3-66.25.01zM245.96 375 125 254.04l1.85-1.85c22.65-22.65 59.37-22.65 82.02 0l38.93 38.93c22.65 22.65 22.65 59.37 0 82.02l-1.84 1.86z" class="st1"/>
  <path d="m187.6 316.64-47.48 43.23 43.23-47.48a2.994 2.994 0 0 1 4.24-.2 2.994 2.994 0 0 1 .2 4.24c-.05.08-.12.15-.19.21z"/>
  <path d="m307.37 226.34-51.97 74.13m18.61-107.49-74.13 51.97" class="st1"/>
</svg>
