<svg xmlns="http://www.w3.org/2000/svg" viewBox="0 0 100 100"><path d="M67.113 94.569c-15.124 0-27.427-12.303-27.427-27.426S51.99 39.716 67.113 39.716 94.539 52.02 94.539 67.143 82.236 94.569 67.113 94.569Zm0-48.853c-11.815 0-21.427 9.612-21.427 21.427s9.612 21.426 21.427 21.426 21.426-9.612 21.426-21.426-9.612-21.427-21.426-21.427Z"/><path d="M62.301 5.431h-31.89c-3.25 0-6.32 1.24-8.66 3.5l-12.49 12.07c-2.41 2.33-3.8 5.6-3.8 8.96v44.02c0 3.81 3.1 6.92 6.92 6.92h26.48c-.93-1.9-1.67-3.91-2.2-6h-24.28c-.51 0-.92-.42-.92-.92v-44.02c0-1.74.72-3.44 1.97-4.65l12.49-12.07a6.432 6.432 0 0 1 4.49-1.81h31.89c.51 0 .92.41.92.91v23.62c1.27-.16 2.57-.24 3.89-.24.71 0 1.41.02 2.11.07v-23.45c0-3.81-3.11-6.91-6.92-6.91Z"/><path d="M22.675 28.943H9.363a3 3 0 1 1 0-6h13.312c.504 0 .914-.41.914-.914V9.24a3 3 0 1 1 6 0v12.79a6.922 6.922 0 0 1-6.914 6.913ZM44.261 45.591a30.76 30.76 0 0 0-4.44 6h-18.02c-1.65 0-3-1.35-3-3 0-1.66 1.35-3 3-3h22.46ZM36.651 59.421c-.49 1.94-.8 3.94-.91 6h-13.94c-1.65 0-3-1.35-3-3 0-1.66 1.35-3 3-3h14.85ZM53.757 37.756h-31.95a3 3 0 1 1 0-6h31.95a3 3 0 1 1 0 6ZM54.044 82.211a2 2 0 0 1-1.908-2.6l3.475-11.042c.097-.307.266-.586.494-.814l13.532-13.532c2.866-2.865 7.528-2.865 10.395 0 2.866 2.866 2.866 7.53 0 10.395L66.5 78.15a2.004 2.004 0 0 1-.813.494l-11.043 3.475c-.197.062-.4.092-.6.092Zm5.236-11.974-2.177 6.915 6.915-2.177L77.203 61.79a3.356 3.356 0 0 0 0-4.739 3.355 3.355 0 0 0-4.738 0L59.28 70.237Z"/><path d="M77.093 66.73a1.993 1.993 0 0 1-1.414-.586l-7.567-7.568a2 2 0 1 1 2.828-2.828l7.567 7.568a2 2 0 0 1-1.414 3.414ZM65.086 78.736a1.994 1.994 0 0 1-1.414-.586l-7.567-7.567a2 2 0 1 1 2.828-2.828l7.567 7.567a2 2 0 0 1-1.414 3.414Z"/></svg>