<svg xmlns="http://www.w3.org/2000/svg" xml:space="preserve" id="Layer_1" x="0" y="0" version="1.1" viewBox="0 0 500 500">
  <style>
    .st1{fill:none;stroke:#000;stroke-width:8;stroke-linecap:round;stroke-miterlimit:10;stroke-linejoin:round}
  </style>
  <path d="M351.93 254.28v97.21c0 12.37-10.03 22.39-22.39 22.39H106.96c-12.37 0-22.39-10.03-22.39-22.39V205.91c0-12.37 10.03-22.39 22.39-22.39H288.8" class="st1"/>
  <path d="m84.57 214.52 106.91 73.78c16.15 11.14 37.47 11.28 53.76.33L314 241.75m-138.71 38.42-87.58 77.29m173.5-77.29 87.58 77.29" class="st1"/>
  <path fill="none" stroke="#000" stroke-linecap="round" stroke-miterlimit="10" stroke-width="8" d="M356.07 217.49c0 4.09-3.31 7.4-7.4 7.4s-7.4-3.31-7.4-7.4m-24.78-29.92c0-2.97-.08-6.02-.22-9.06-.83-18.05 13.46-33.18 31.52-33.18h1.79c18.07 0 32.37 15.13 31.52 33.18-.15 3.12-.23 6.26-.23 9.32 0 7.74 1.63 14.95 3.16 20.01 1.09 3.61-1.64 7.24-5.41 7.24h-59.89c-3.76 0-6.49-3.62-5.41-7.22 1.52-5.11 3.17-12.44 3.17-20.29zm42.62-43.63v-4.88c0-5.75-4.66-10.4-10.4-10.4h0c-5.75 0-10.4 4.66-10.4 10.4v4.88M316 195.21h39.1m27.24-52.82c9.4.29 16.79 8.14 16.5 17.53m-15.98-33.81c18.54.56 33.12 16.05 32.56 34.6M315 142.39c-9.4.29-16.79 8.14-16.5 17.53m15.99-33.81c-18.54.56-33.12 16.05-32.56 34.6"/>
</svg>
