<svg xmlns="http://www.w3.org/2000/svg" viewBox="0 0 100 100"><path d="M94.54 44.17v7.626c0 .368-.146.72-.406.98L88.29 58.63c-1.26 1.25-3.44 1.25-4.7 0l-3.13-3.14c-3.63-3.63-9.54-3.63-13.17 0l-3.14 3.14c-1.25 1.25-3.43 1.25-4.69 0l-2.87-2.88c-3.64-3.63-9.55-3.63-13.18 0l-2.87 2.88a3.336 3.336 0 0 1-2.95.918c-.697-.123-1.326-.504-1.827-1.005L32.71 55.49c-3.63-3.63-9.54-3.63-13.17 0l-3.13 3.14c-1.26 1.25-3.44 1.25-4.7 0l-5.844-5.854a1.387 1.387 0 0 1-.406-.98V44.17a8.49 8.49 0 0 1 8.49-8.49h72.1a8.49 8.49 0 0 1 8.49 8.49Z"/><path d="m92.762 62.638 1.08-1.08a.409.409 0 0 1 .698.289v28.972a3.72 3.72 0 0 1-3.72 3.721H9.59a4.13 4.13 0 0 1-4.13-4.13V61.847c0-.364.44-.547.698-.29l1.08 1.081c1.671 1.672 3.865 2.797 6.225 2.943a9.272 9.272 0 0 0 7.187-2.711l3.13-3.13c1.29-1.3 3.4-1.3 4.69 0l2.898 2.898c1.672 1.672 3.865 2.797 6.225 2.943a9.272 9.272 0 0 0 7.187-2.711l2.88-2.88a3.317 3.317 0 0 1 4.69.01l2.638 2.638c1.672 1.672 3.865 2.797 6.225 2.943A9.272 9.272 0 0 0 68.4 62.87l3.13-3.13c1.29-1.3 3.4-1.3 4.69 0l3.13 3.13a9.272 9.272 0 0 0 7.187 2.711c2.36-.146 4.554-1.271 6.225-2.943ZM23.58 21.301h7.84c1.157 0 2.096.94 2.096 2.097V43.73H21.484V23.398c0-1.157.939-2.097 2.096-2.097ZM28.454 5.92l2.292 3.918c1.85 3.163.515 6.832-3.246 8.921-3.76-2.089-5.096-5.758-3.246-8.921l2.292-3.918c.357-.61 1.55-.61 1.908 0ZM46.08 21.301h7.84c1.157 0 2.096.94 2.096 2.097V43.73H43.984V23.398c0-1.157.939-2.097 2.096-2.097ZM50.954 5.92l2.292 3.918c1.85 3.163.515 6.832-3.246 8.921-3.76-2.089-5.096-5.758-3.246-8.921l2.292-3.918c.357-.61 1.55-.61 1.908 0ZM68.58 21.301h7.84c1.157 0 2.096.94 2.096 2.097V43.73H66.484V23.398c0-1.157.939-2.097 2.096-2.097ZM73.454 5.92l2.292 3.918c1.85 3.163.515 6.832-3.246 8.921-3.76-2.089-5.096-5.758-3.246-8.921l2.292-3.918c.357-.61 1.55-.61 1.908 0Z"/></svg>