<svg xmlns="http://www.w3.org/2000/svg" viewBox="0 0 100 100"><path d="M67.114 39.496c-9.39 0-17.68 4.73-22.62 11.94a27.246 27.246 0 0 0-4.81 15.48c0 7.43 2.97 14.17 7.77 19.11 4.99 5.13 11.96 8.32 19.66 8.32 15.12 0 27.42-12.3 27.42-27.43 0-15.12-12.3-27.42-27.42-27.42Zm18.53 38.16a21.506 21.506 0 0 1-8.85 8.37c-2.9 1.49-6.2 2.32-9.68 2.32s-6.78-.83-9.69-2.32c-6.96-3.54-11.74-10.77-11.74-19.11 0-6.08 2.55-11.58 6.63-15.48 3.85-3.68 9.06-5.94 14.8-5.94 3.54 0 6.88.86 9.82 2.39 3.63 1.88 6.66 4.77 8.7 8.29 1.85 3.16 2.9 6.82 2.9 10.74 0 3.91-1.05 7.58-2.89 10.74Z"/><path d="M56.463 80.139a3 3 0 0 1-2.121-5.122l20.941-20.94a3 3 0 0 1 4.243 4.243L58.584 79.26a2.992 2.992 0 0 1-2.12.879Z"/><path d="M77.405 80.139a2.992 2.992 0 0 1-2.122-.878L54.342 58.32a3 3 0 1 1 4.242-4.244l20.942 20.941a3 3 0 0 1-2.121 5.122ZM66.58 16.38c-1.09-1.81-3.04-2.89-5.2-2.89H15.07l-1.16-4.02a4.378 4.378 0 0 0-2.45-2.8l-1.78-.85c-1.5-.71-3.29-.08-4 1.42a3.005 3.005 0 0 0 1.42 4l1.25.59 5.77 20.04c.02.1.05.2.08.29l3.58 12.45c.33 1.16 1 2.17 1.87 2.93a6.524 6.524 0 0 0 4.34 1.64h17.2c.01 0 .01-.01.01-.01.2-.29.4-.57.61-.85.32-.44.65-.86.99-1.28.05-.06.1-.13.15-.19.29-.35.59-.7.89-1.03.12-.14.25-.27.38-.4.36-.39.73-.77 1.12-1.14.39-.38.79-.75 1.2-1.1H23.99c-.25 0-.42-.13-.45-.23l-2.5-8.68-1.72-6-2.53-8.78 26.94.01h17.58c-.01.02-.02.04-.02.07l-3.2 8.7-2.21 6-1.44 3.9c.2-.09.39-.17.59-.25.29-.13.59-.24.88-.35.2-.08.4-.15.6-.22.18-.07.37-.14.56-.2.21-.07.41-.14.62-.2.3-.1.61-.19.91-.27.19-.06.39-.11.58-.16.2-.05.4-.11.61-.15.61-.15 1.23-.28 1.85-.39l5.22-14.19c.83-1.74.73-3.75-.28-5.41Z"/><path d="M59.957 34.267H17.06a3 3 0 1 1 0-6h42.897a3 3 0 1 1 0 6ZM38.97 52.96c-.97 1.92-1.72 3.93-2.26 6H21.88c-2.18 0-4.12-1.16-5.05-3.04a5.1 5.1 0 0 1 .53-5.37l2.29-3.01 1.43-1.87c1-1.32 2.88-1.57 4.2-.57 1.28.98 1.56 2.77.66 4.08-.03.05-.06.09-.09.13l-2.78 3.65h15.9Z"/><path d="M32.708 49.178a3 3 0 0 1-2.975-2.639l-3.606-29.69a3 3 0 0 1 5.956-.723l3.606 29.69a3 3 0 0 1-2.981 3.362ZM50.05 16.81l-.29 2.69-.93 8.77-.64 6-.88 8.26c-.26.21-.51.43-.77.65-.41.35-.81.72-1.2 1.1-.39.37-.76.75-1.12 1.14-.13.13-.26.26-.38.4-.3.33-.6.68-.89 1.03-.05.06-.1.13-.15.19-.34.42-.67.84-.99 1.28-.63-.61-.99-1.51-.89-2.46l.29-2.68.95-8.91.64-6 .93-8.77.36-3.33c.16-1.55 1.47-2.68 3-2.68.1 0 .2 0 .3.01a3 3 0 0 1 2.66 3.31Z"/><circle cx="21.183" cy="65.081" r="5.382"/></svg>