<svg xmlns="http://www.w3.org/2000/svg" xml:space="preserve" viewBox="0 0 512 512">
  <g fill="currentColor">
    <path d="M327.1 135a7.5 7.5 0 1 0 0-15H184.9a7.5 7.5 0 1 0 0 15h142.2zm-190.6 65.2v19.5c0 9.2 7.5 16.7 16.7 16.7h205.6c9.2 0 16.7-7.5 16.7-16.7v-19.5c0-9.2-7.5-16.7-16.7-16.7H153.2c-9.2 0-16.7 7.5-16.7 16.7zm224 0v19.5c0 1-.8 1.7-1.7 1.7H153.2c-1 0-1.7-.8-1.7-1.7v-19.5c0-1 .8-1.7 1.7-1.7h205.6c1 0 1.7.8 1.7 1.7zm-224 104.4c0 9.2 7.5 16.6 16.7 16.6h205.6c9.2 0 16.7-7.4 16.7-16.6V285c0-9.2-7.5-16.7-16.7-16.7H153.2c-9.2 0-16.7 7.5-16.7 16.7v19.5zm15-19.5c0-1 .8-1.7 1.7-1.7h205.6c1 0 1.7.7 1.7 1.7v19.5c0 .9-.8 1.7-1.7 1.7H153.2c-1 0-1.7-.8-1.7-1.7V285zm121.9 73.5h-34.8a25.7 25.7 0 0 0-25.8 25.8v1a25.7 25.7 0 0 0 25.8 25.7h34.8a25.7 25.7 0 0 0 25.8-25.7v-1a25.7 25.7 0 0 0-25.8-25.8zm10.8 26.8c0 5.9-4.9 10.7-10.8 10.7h-34.8c-6 0-10.8-4.8-10.8-10.7v-1c0-6 4.9-10.8 10.8-10.8h34.8c6 0 10.8 4.8 10.8 10.8v1z"/>
	  <path d="M291.7 459.5h-193a14 14 0 0 1-13.9-14v-303a7.5 7.5 0 1 0-15 0v303c0 16 13 29 29 29h192.9a7.5 7.5 0 1 0 0-15zM421.5 1.4c-9.7-3-6.8-.2-322.7-1.2-16 0-29 13-29 29v83.2a7.5 7.5 0 1 0 15 0V91h342.4v354.5a14 14 0 0 1-8.5 12.9c-7.5 3.1-5.2 14.4 2.9 14.4 6.3 0 20.6-10.5 20.6-27.3V29.1a29 29 0 0 0-20.7-27.7zm5.7 74.6H84.8V29a14 14 0 0 1 12-13.8c1.8-.2-15.2 0 316.4-.1a14 14 0 0 1 14 14V76z"/>
	  <path d="M124.9 22.6a23 23 0 1 0 0 46 23 23 0 0 0 0-46zm0 31a8 8 0 1 1 0-16 8 8 0 0 1 0 16zm60-31a23 23 0 1 0 0 46 23 23 0 0 0 0-46zm0 31a8 8 0 1 1 0-16 8 8 0 0 1 0 16zm60-31a23 23 0 1 0 0 46 23 23 0 0 0 0-46zm0 31a8 8 0 1 1 0-16 8 8 0 0 1 0 16zM418 435c0-4.6-2.4-8.7-6.4-11l-77.8-45c-4-2.2-8.8-2.2-12.8 0-4 2.4-6.4 6.5-6.4 11.2V480c0 4.6 2.4 8.7 6.4 11 4 2.4 8.8 2.4 12.8 0l18.8-10.9 14.6 25.2a13.4 13.4 0 0 0 18.3 4.9l16.8-9.7a13.4 13.4 0 0 0 4.9-18.3L392.7 457l18.9-10.9c4-2.3 6.3-6.4 6.3-11zm-34 9.7a13.6 13.6 0 0 0-5 18.7l14.4 25-14 8-14.4-24.9a13.7 13.7 0 0 0-18.7-5l-16.7 9.7V394l71.1 41-16.7 9.7z"/>
  </g>
</svg>
