<?xml version="1.0" encoding="utf-8"?>
<!-- Generator: Adobe Illustrator 23.0.5, SVG Export Plug-In . SVG Version: 6.00 Build 0)  -->
<svg version="1.1" id="Layer_1" xmlns="http://www.w3.org/2000/svg" xmlns:xlink="http://www.w3.org/1999/xlink" x="0px" y="0px"
	 viewBox="0 0 500 500" style="enable-background:new 0 0 500 500;" xml:space="preserve">
<style type="text/css">
	.st0{fill:none;stroke:#000000;stroke-width:6;stroke-linecap:round;stroke-linejoin:round;stroke-miterlimit:10;}
</style>
<path class="st0" d="M253.45,378.64h-106.3c-22.52,0-40.77-18.25-40.77-40.77V132.99c0-22.52,18.25-40.77,40.77-40.77h185.88
	c22.52,0,40.77,18.25,40.77,40.77v174.48"/>
<g>
	<line class="st0" x1="306.74" y1="74.22" x2="306.74" y2="108.02"/>
	<line class="st0" x1="240.09" y1="74.22" x2="240.09" y2="108.02"/>
	<line class="st0" x1="173.43" y1="74.22" x2="173.43" y2="108.02"/>
</g>
<g>
	<g>
		<path class="st0" d="M389.14,352.88c2.89,7.09,4.49,14.86,4.49,22.99c0,33.64-27.27,60.92-60.92,60.92s-60.92-27.27-60.92-60.92
			s27.27-60.92,60.92-60.92c10.79,0,20.93,2.81,29.72,7.73"/>
	</g>
	<g>
		<line class="st0" x1="332.7" y1="344.56" x2="332.7" y2="407.17"/>
	</g>
	<g>
		<line class="st0" x1="364.01" y1="375.87" x2="301.4" y2="375.87"/>
	</g>
</g>
<g>
	<g>
		<line class="st0" x1="218.23" y1="172.32" x2="341.01" y2="172.32"/>
		<polyline class="st0" points="139.16,171.43 157.8,190.08 193.32,154.56 		"/>
	</g>
	<g>
		<line class="st0" x1="218.23" y1="235.43" x2="341.01" y2="235.43"/>
		<polyline class="st0" points="139.16,234.55 157.8,253.19 193.32,217.67 		"/>
	</g>
	<g>
		<line class="st0" x1="218.23" y1="298.55" x2="341.01" y2="298.55"/>
		<polyline class="st0" points="139.16,297.67 157.8,316.31 193.32,280.79 		"/>
	</g>
</g>
</svg>
