<svg xmlns="http://www.w3.org/2000/svg" viewBox="0 0 100 100"><path d="M44.573 8.857c-1.132-1.975 1.045-4.194 3.047-3.109C61.072 13.043 85.133 29.92 85.133 57.31c0 23.754-16.294 33.704-23.625 36.978-1.333.595-2.764-.626-2.391-2.037 1.396-5.292 2.74-15.712-5.228-23.226-1.743-1.644-4.496-1.666-6.318-.11C43.376 72.5 37.217 80.24 42.626 92.09c.631 1.382-.73 2.842-2.168 2.352-8.124-2.766-25.591-10.873-25.591-29.444 0-22.38 17.628-18.86 17.628-38.183 0-1.854 2.084-2.948 3.587-1.862 2.476 1.79 5.594 4.268 8.067 6.968 1.806 1.97 5.053.809 5.15-1.862.213-5.87-.534-13.882-4.726-21.2Z"/></svg>