<svg xmlns="http://www.w3.org/2000/svg" viewBox="0 0 100 100"><path d="M88.454 90.245H11.546a5.984 5.984 0 0 1-5.978-5.977V26.473c0-6.023 4.9-10.923 10.923-10.923H83.51c6.022 0 10.923 4.9 10.923 10.923v57.795a5.984 5.984 0 0 1-5.978 5.977ZM16.491 21.55a4.928 4.928 0 0 0-4.923 4.923v57.795l76.888-.023-.024-57.772a4.928 4.928 0 0 0-4.923-4.923H16.49Z"/><path d="M91.432 37.177H8.568a3 3 0 1 1 0-6h82.864a3 3 0 1 1 0 6ZM37.143 27.345a3 3 0 0 1-3-3v-11.59a3 3 0 1 1 6 0v11.59a3 3 0 0 1-3 3ZM62.857 27.345a3 3 0 0 1-3-3v-11.59a3 3 0 1 1 6 0v11.59a3 3 0 0 1-3 3ZM32.78 57.704H19.942a2 2 0 0 1-2-2V42.868a2 2 0 0 1 2-2H32.78a2 2 0 0 1 2 2v12.836a2 2 0 0 1-2 2Zm-10.837-4h8.836v-8.836h-8.836v8.836ZM32.694 80.72H19.857a2 2 0 0 1-2-2V65.886a2 2 0 0 1 2-2h12.837a2 2 0 0 1 2 2V78.72a2 2 0 0 1-2 2Zm-10.837-4h8.837v-8.835h-8.837v8.836ZM56.208 57.704H43.372a2 2 0 0 1-2-2V42.868a2 2 0 0 1 2-2h12.836a2 2 0 0 1 2 2v12.836a2 2 0 0 1-2 2Zm-10.836-4h8.836v-8.836h-8.836v8.836ZM56.208 80.72H43.372a2 2 0 0 1-2-2V65.886a2 2 0 0 1 2-2h12.836a2 2 0 0 1 2 2V78.72a2 2 0 0 1-2 2Zm-10.836-4h8.836v-8.835h-8.836v8.836ZM80.143 57.704H67.306a2 2 0 0 1-2-2V42.868a2 2 0 0 1 2-2h12.837a2 2 0 0 1 2 2v12.836a2 2 0 0 1-2 2Zm-10.837-4h8.837v-8.836h-8.837v8.836ZM80.143 80.72H67.306a2 2 0 0 1-2-2V65.886a2 2 0 0 1 2-2h12.837a2 2 0 0 1 2 2V78.72a2 2 0 0 1-2 2Zm-10.837-4h8.837v-8.835h-8.837v8.836Z"/></svg>