<svg xmlns="http://www.w3.org/2000/svg" viewBox="0 0 100 100"><path d="M32.96 40.17c.34-1.04 1.31-1.8 2.48-1.8h18.61v.02c.02 0 .03-.01.05-.02 4.04-1.85 8.47-2.84 13.03-2.84h.26c.19 0 .36.01.55.01 6.84.18 13.15 2.54 18.23 6.44V27.57c0-2.93-2.37-5.31-5.3-5.31H65.56v-8.34c0-4.58-3.73-8.3-8.3-8.3H34.37c-4.57 0-8.3 3.72-8.3 8.3v8.34h-15.3c-2.93 0-5.31 2.38-5.31 5.31v14.35h27.5v-1.75Zm-.89-26.25c0-1.27 1.04-2.3 2.3-2.3h22.89c1.26 0 2.3 1.03 2.3 2.3v8.34H32.07v-8.34ZM39.8 51.47h-4.37a2.6 2.6 0 0 1-2.47-1.8v-1.75H5.46v32.82c0 2.94 2.38 5.32 5.32 5.32H42.2c-4.22-5.47-6.5-12.13-6.5-19.11 0-5.47 1.4-10.77 4.1-15.48Z"/><path d="M67.129 39.53c-9.39 0-17.68 4.73-22.62 11.94a27.246 27.246 0 0 0-4.81 15.48c0 7.43 2.97 14.17 7.77 19.11 4.99 5.13 11.96 8.32 19.66 8.32 15.12 0 27.42-12.3 27.42-27.43 0-15.12-12.3-27.42-27.42-27.42Zm18.53 38.16a21.506 21.506 0 0 1-8.85 8.37c-2.9 1.49-6.2 2.32-9.68 2.32s-6.78-.83-9.69-2.32c-6.96-3.54-11.74-10.77-11.74-19.11 0-6.08 2.55-11.58 6.63-15.48 3.85-3.68 9.06-5.94 14.8-5.94 3.54 0 6.88.86 9.82 2.39 3.63 1.88 6.66 4.77 8.7 8.29 1.85 3.16 2.9 6.82 2.9 10.74 0 3.91-1.05 7.58-2.89 10.74Z"/><path d="M77.992 57.696 61.005 74.682l-5.26-5.26a3 3 0 0 0-4.243 4.242l7.382 7.382c.586.586 1.354.879 2.121.879s1.536-.293 2.122-.88l19.107-19.107a2.999 2.999 0 1 0-4.242-4.242Z"/></svg>