<svg xmlns="http://www.w3.org/2000/svg" viewBox="0 0 100 100"><path d="M81.38 11.598H18.62a3 3 0 1 1 0-6h62.76a3 3 0 1 1 0 6Z"/><path d="M76.078 94.407H23.922a3 3 0 0 1-2.954-3.525l4.602-25.941c1.343-7.567 7.333-13.507 14.906-14.78l.024-.309c-7.607-1.296-13.588-7.231-14.93-14.793L20.968 9.118a3 3 0 0 1 2.954-3.525h52.156a3 3 0 0 1 2.954 3.525L74.43 35.059c-1.343 7.567-7.333 13.507-14.906 14.78l-.027.349c7.6 1.246 13.59 7.186 14.933 14.753l4.602 25.941a3 3 0 0 1-2.954 3.525Zm-48.577-6h44.998L68.522 65.99a12.23 12.23 0 0 0-9.992-9.91c-2.917-.493-5.033-2.97-5.033-5.892v-.376c0-2.924 2.117-5.401 5.033-5.89 5.076-.853 9.092-4.837 9.992-9.912L72.5 11.593H27.501l3.977 22.417a12.233 12.233 0 0 0 9.993 9.912c2.915.489 5.032 2.966 5.032 5.89v.376c0 2.922-2.116 5.4-5.031 5.89a12.233 12.233 0 0 0-9.994 9.912L27.5 88.407Z"/><path d="M81.38 94.402H18.62a3 3 0 1 1 0-6h62.76a3 3 0 1 1 0 6ZM66.126 84.407H33.873c-.836 0-1.469-.756-1.323-1.579l1.5-8.448a7.262 7.262 0 0 1 4.737-5.58l7.873-2.773c1.71-.6 3.57-.6 5.29 0l9.357 3.301a7.262 7.262 0 0 1 4.734 5.577l1.408 7.923a1.344 1.344 0 0 1-1.323 1.579ZM63.543 28.467a1.475 1.475 0 0 1 1.693 1.761l-.656 3.079c-.6 3.42-3.3 6.1-6.71 6.67a10.01 10.01 0 0 0-7.193 5.13.77.77 0 0 1-1.354 0 10.01 10.01 0 0 0-7.193-5.13 8.202 8.202 0 0 1-6.198-4.922 1.482 1.482 0 0 1 1.117-2.029l26.494-4.559Z"/></svg>