<svg xmlns="http://www.w3.org/2000/svg" xml:space="preserve" id="Layer_1" x="0" y="0" version="1.1" viewBox="0 0 494.94 494.94">
  <style>
    .st1{fill:none;stroke:#000;stroke-width:6;stroke-linecap:round;stroke-linejoin:round;stroke-miterlimit:10}
  </style>
  <path d="M182.71 122.47h129.52c6.86 0 12.42 5.56 12.42 12.42v0c0 6.86-5.56 12.42-12.42 12.42H182.71c-6.86 0-12.42-5.56-12.42-12.42v0c0-6.86 5.56-12.42 12.42-12.42z" class="st1"/>
  <path d="M288.62 166.21c-1.49 7.45-4.17 19.4-10.05 29.74-7.48 13.14-17.65 19.53-31.1 19.53-13.45 0-23.63-6.39-31.1-19.53-5.88-10.34-8.56-22.3-10.05-29.74h82.3m2.55-6h-87.4c-2.46 0-4.31 2.23-3.84 4.64 2.8 14.29 10.68 56.63 47.54 56.63s44.74-42.34 47.54-56.63c.47-2.41-1.39-4.64-3.84-4.64zm-43.7 135.14c11.88 0 21.04 4.49 27.21 13.35 4.21 6.05 6.26 12.91 7.25 17.78h-68.92c.99-4.87 3.04-11.73 7.25-17.78 6.17-8.86 15.33-13.35 27.21-13.35m0-6c-32.52 0-39.51 29.25-40.97 39.57a3.11 3.11 0 0 0 3.09 3.55h75.76c1.9 0 3.35-1.68 3.09-3.55-1.46-10.32-8.46-39.57-40.97-39.57z"/>
  <path d="M182.71 347.63h129.52c6.86 0 12.42 5.56 12.42 12.42v0c0 6.86-5.56 12.42-12.42 12.42H182.71c-6.86 0-12.42-5.56-12.42-12.42v0c0-6.86 5.56-12.42 12.42-12.42zm125.56-.29c1.44-17.1-1.58-34.53-8.62-50.17-3.48-7.72-7.93-14.99-13.27-21.56-5.7-7.02-12.9-12.62-18.53-19.69-10.58-13.3 6.49-22.62 14.68-30.87 16.86-16.97 24.45-40.21 25.8-63.72.27-4.65.36-9.36-.06-14.01m-121.6 200.02c-1.44-17.1 1.58-34.53 8.62-50.17 3.48-7.72 7.93-14.99 13.27-21.56 5.7-7.02 12.9-12.62 18.53-19.69 10.58-13.3-6.49-22.62-14.68-30.87-16.86-16.97-24.45-40.21-25.8-63.72-.27-4.65-.36-9.36.06-14.01m60.8 85.83v6.26m0 12.47v7.07m0 12.47v6.26" class="st1"/>
</svg>
