<svg xmlns="http://www.w3.org/2000/svg" viewBox="0 0 100 100"><circle cx="27.336" cy="52.994" r="11.831"/><path d="M27.335 69.436c12.073 0 21.874 9.801 21.874 21.873v3.229H5.462v-3.229c0-12.072 9.801-21.873 21.873-21.873ZM67.04 60.387c-15.124 0-27.427-12.303-27.427-27.426S51.916 5.534 67.04 5.534s27.427 12.304 27.427 27.427-12.304 27.426-27.427 27.426Zm0-48.853c-11.815 0-21.427 9.612-21.427 21.427s9.612 21.426 21.426 21.426 21.427-9.612 21.427-21.426-9.612-21.427-21.427-21.427Z"/><path d="m58.821 34.205-3.475 11.043" style="fill:none;stroke:#000;stroke-linecap:round;stroke-linejoin:round;stroke-width:4px"/><path d="M55.346 47.248a2 2 0 0 1-1.908-2.601l3.475-11.043c.097-.306.267-.585.494-.813L70.938 19.26c2.865-2.865 7.53-2.867 10.396 0a7.3 7.3 0 0 1 2.153 5.197c0 1.963-.764 3.81-2.153 5.198L67.803 43.186a2.002 2.002 0 0 1-.814.494l-11.043 3.475a2 2 0 0 1-.6.093Zm5.236-11.975-2.177 6.915 6.916-2.177 13.185-13.184c.633-.634.981-1.475.981-2.37s-.348-1.736-.981-2.369a3.354 3.354 0 0 0-4.74 0L60.583 35.273Z"/><path d="M78.396 31.766a1.994 1.994 0 0 1-1.415-.586l-7.567-7.567a2 2 0 1 1 2.828-2.828l7.568 7.567a2 2 0 0 1-1.414 3.414ZM66.389 43.772a1.994 1.994 0 0 1-1.414-.586l-7.568-7.567a2 2 0 1 1 2.828-2.828l7.568 7.567a2 2 0 0 1-1.414 3.414Z"/></svg>