<svg xmlns="http://www.w3.org/2000/svg" xml:space="preserve" viewBox="0 0 512 512">
  <path d="M137.5 83h-.1a10 10 0 1 0 0 20 10 10 0 1 0 0-20z"/>
	<path d="M472 83H182a10 10 0 1 0 0 20h291.5l-28 28H315.2a10 10 0 1 0 0 20h110.5L286.2 290.4a42.8 42.8 0 0 1-60.4 0L38.5 103l1.5-.1h53a10 10 0 1 0 0-20H40c-22 0-40 18-40 40v266c0 22 18 40 40 40h432c22 0 40-18 40-40V123c0-22-18-40-40-40zM20 389V123c0-3 .7-5.8 1.8-8.3L161 253.9 20.7 394.2a20 20 0 0 1-.7-5.2zm452 20H40a20 20 0 0 1-5.2-.7L175.1 268l36.6 36.5a62.5 62.5 0 0 0 88.6 0L337 268l140.3 140.3a20 20 0 0 1-5.2.7zm20-20a20 20 0 0 1-.7 5.2L351 253.9l139.2-139.2c1.1 2.5 1.8 5.3 1.8 8.3v266z"/>
	<path d="M273.3 131h-.1a10 10 0 1 0 0 20h.1a10 10 0 1 0 0-20z"/>
</svg>
