<?xml version="1.0" encoding="UTF-8"?>
<svg id="email-opened" xmlns="http://www.w3.org/2000/svg" viewBox="0 0 100 100">
  <g>
    <path d="M75.965652,7.661194c-.160034-.179993-.350037-.330017-.550049-.469971-1.309998-1.040039-2.969971-1.660034-4.759949-1.660034H13.205643c-1.790039,0-3.450012.619995-4.76001,1.660034-.200012.139954-.390015.289978-.549988.469971-1.48999,1.400024-2.420044,3.400024-2.420044,5.599976v38.630005c0,4.26001,3.470032,7.730042,7.730042,7.730042h23.359985c.5-2.090027,1.219971-4.100037,2.119995-6H13.205643c-.950012,0-1.730042-.780029-1.730042-1.730042V13.261169c0-.949951.780029-1.72998,1.730042-1.72998h57.450012c.959961,0,1.73999.780029,1.73999,1.72998v22.810059c2.079956.349976,4.089966.909973,6,1.649963V13.261169c0-2.209961-.940002-4.199951-2.429993-5.599976Z"/>
    <path d="M41.930435,35.571838c-.61377,0-1.227539-.1875-1.750488-.563477L8.345474,12.137268c-1.345703-.966797-1.652832-2.841797-.686035-4.186523.966797-1.34668,2.842773-1.652344,4.187012-.686523l30.083984,21.613281,30.084473-21.613281c1.345703-.966797,3.220215-.65918,4.187012.686523.966797,1.344727.659668,3.219727-.686035,4.186523l-31.834961,22.871094c-.522949.375977-1.136719.563477-1.750488.563477Z"/>
  </g>
  <path d="M67.098129,94.468811c-15.123047,0-27.42627-12.303223-27.42627-27.42627s12.303223-27.42627,27.42627-27.42627,27.42627,12.303223,27.42627,27.42627-12.303223,27.42627-27.42627,27.42627ZM67.098129,45.616272c-11.814453,0-21.42627,9.611816-21.42627,21.42627s9.611816,21.42627,21.42627,21.42627,21.42627-9.611816,21.42627-21.42627-9.611816-21.42627-21.42627-21.42627Z"/>
  <g>
    <path d="M67.098373,80.636292c-4.865234,0-9.541504-2.055664-12.830566-5.640625h0l-5.43457-5.924805c-1.052246-1.147461-1.052246-2.90918,0-4.056641l5.43457-5.924805c3.289062-3.584961,7.965332-5.640625,12.830566-5.640625,4.864746,0,9.541016,2.055664,12.830078,5.640625l5.43457,5.924805c1.052246,1.147461,1.052246,2.90918,0,4.056641l-5.43457,5.924805c-3.289062,3.584961-7.965332,5.640625-12.830078,5.640625ZM58.689682,70.939026c2.187012,2.384766,5.17334,3.697266,8.408691,3.697266,3.234863,0,6.221191-1.3125,8.408203-3.697266l3.574707-3.896484-3.574707-3.896484c-2.187012-2.384766-5.17334-3.697266-8.408203-3.697266-3.235352,0-6.22168,1.3125-8.408691,3.697266l-3.574707,3.896484,3.574707,3.896484Z"/>
    <circle cx="67.098099" cy="67.042511" r="6.531543"/>
  </g>
</svg>