<svg xmlns="http://www.w3.org/2000/svg" viewBox="0 0 100 100"><path d="M40.486 60.725c-9.504 0-17.236-8.167-17.236-18.205 0-10.04 7.732-18.206 17.236-18.206S57.723 32.48 57.723 42.52c0 10.038-7.733 18.205-17.237 18.205Zm0-30.411c-6.196 0-11.236 5.475-11.236 12.206 0 6.73 5.04 12.205 11.236 12.205s11.237-5.476 11.237-12.205c0-6.73-5.04-12.206-11.237-12.206Z"/><path d="M40.496 76.841c-1.066 0-2.137-.049-3.21-.147-16.29-1.486-29.557-14.908-30.861-31.222-.78-9.74 2.622-19.36 9.333-26.392A34.189 34.189 0 0 1 41.636 8.51C58.875 9.08 73.342 22.98 74.57 40.16a34.564 34.564 0 0 1-.54 9.067c-1.103 5.674-6.091 9.792-11.86 9.792-5.76 0-10.447-4.687-10.447-10.447V28.43a3 3 0 1 1 6 0v20.142a4.452 4.452 0 0 0 4.446 4.447c2.904 0 5.415-2.077 5.972-4.938.476-2.447.626-4.967.445-7.494-1.013-14.156-12.937-25.612-27.148-26.08-8.01-.252-15.804 2.912-21.34 8.714-5.531 5.798-8.335 13.735-7.693 21.773 1.075 13.442 12.006 24.502 25.426 25.725 3.615.33 7.181-.01 10.6-1.013a3 3 0 1 1 1.688 5.758 34.113 34.113 0 0 1-9.623 1.377ZM72.534 83.35h-.046a3.003 3.003 0 0 1-2.139-.944L60.32 71.745a3 3 0 0 1 4.37-4.112l7.911 8.408 16.908-16.907a3 3 0 1 1 4.242 4.243L74.655 82.47a2.998 2.998 0 0 1-2.12.879Z"/></svg>