<svg xmlns="http://www.w3.org/2000/svg" xml:space="preserve" id="Layer_1" x="0" y="0" version="1.1" viewBox="0 0 500 500">
  <style>
    .st1{fill:none;stroke:#000;stroke-width:8;stroke-linecap:round;stroke-linejoin:round;stroke-miterlimit:10}
  </style>
  <path fill="none" stroke="#000" stroke-linecap="round" stroke-miterlimit="10" stroke-width="8" d="M405.33 167.28a60.805 60.805 0 0 1 4.49 22.99c0 33.64-27.27 60.92-60.92 60.92s-60.92-27.27-60.92-60.92 27.27-60.92 60.92-60.92c10.79 0 20.93 2.81 29.72 7.73"/>
  <path d="m322.18 188.27 18.93 18.93 34.51-33.86m-18.08 109.71v65.21c0 12.37-10.03 22.39-22.39 22.39H112.57c-12.37 0-22.39-10.03-22.39-22.39V202.68c0-12.37 10.03-22.39 22.39-22.39h148.78" class="st1"/>
  <path d="m90.18 211.28 106.91 73.78c16.15 11.14 37.47 11.28 53.76.33l40.93-27.51M180.9 276.94l-87.58 77.29m173.5-77.29 87.58 77.29" class="st1"/>
</svg>
