<svg xmlns="http://www.w3.org/2000/svg" xml:space="preserve" version="1.0" viewBox="0 0 64 64">
  <path d="M20 16h24a2 2 0 0 0 1.414-3.414l-12-12C33.023.195 32.512 0 32 0s-1.023.195-1.414.586l-12 12A2 2 0 0 0 20 16zm-4 12h32a2 2 0 0 0 1.414-3.414l-6.545-6.545H21.131l-6.545 6.545A2 2 0 0 0 16 28zm12 35a1 1 0 0 0 1 1h6a1 1 0 0 0 1-1v-9h-8v9zm29.414-14.414L50.828 42H13.172l-6.586 6.586A2 2 0 0 0 8 52h48a2 2 0 0 0 1.414-3.414zM12 40h40a2 2 0 0 0 1.414-3.414L46.828 30H17.172l-6.586 6.586A2 2 0 0 0 12 40z"/>
</svg>
