<svg xmlns="http://www.w3.org/2000/svg" viewBox="0 0 100 100"><path d="M88.454 90.245H11.546a5.984 5.984 0 0 1-5.978-5.977V26.473c0-6.023 4.9-10.923 10.923-10.923H83.51c6.022 0 10.923 4.9 10.923 10.923v57.795a5.984 5.984 0 0 1-5.978 5.977ZM16.491 21.55a4.928 4.928 0 0 0-4.923 4.923v57.795l76.888-.023-.024-57.772a4.928 4.928 0 0 0-4.923-4.923H16.49Z"/><path d="M91.432 37.177H8.568a3 3 0 1 1 0-6h82.864a3 3 0 1 1 0 6ZM37.143 27.345a3 3 0 0 1-3-3v-11.59a3 3 0 1 1 6 0v11.59a3 3 0 0 1-3 3ZM62.857 27.345a3 3 0 0 1-3-3v-11.59a3 3 0 1 1 6 0v11.59a3 3 0 0 1-3 3ZM74.316 75.836H25.684c-5.357 0-9.715-4.358-9.715-9.716v-9.405c0-5.357 4.358-9.715 9.715-9.715h48.632c5.357 0 9.715 4.358 9.715 9.715v9.405c0 5.358-4.358 9.716-9.715 9.716ZM25.684 53a3.719 3.719 0 0 0-3.715 3.715v9.405a3.72 3.72 0 0 0 3.715 3.716h48.632a3.72 3.72 0 0 0 3.715-3.716v-9.405A3.719 3.719 0 0 0 74.316 53H25.684Z"/><path d="M29.643 67.05a2 2 0 0 1-2-2v-7.547a2 2 0 0 1 4 0v7.547a2 2 0 0 1-2 2ZM36.93 67.05a1.969 1.969 0 0 1-1.41-.59c-.38-.37-.59-.88-.59-1.41s.22-1.04.59-1.41c.74-.75 2.08-.75 2.83 0a1.998 1.998 0 0 1 .54 1.8c-.02.13-.06.26-.11.37-.05.13-.11.24-.18.35-.08.11-.16.21-.25.3-.19.19-.41.34-.65.44-.25.1-.5.15-.77.15ZM44.16 67.05a1.969 1.969 0 0 1-1.41-.59c-.38-.37-.59-.88-.59-1.41s.22-1.04.59-1.41c.75-.75 2.08-.75 2.83 0 .37.37.58.88.58 1.41a1.998 1.998 0 0 1-2 2ZM51.03 67.05a1.969 1.969 0 0 1-1.41-.59c-.1-.09-.18-.19-.25-.3-.08-.11-.14-.22-.19-.35-.05-.11-.08-.24-.11-.37-.02-.13-.04-.26-.04-.39 0-.53.22-1.04.59-1.41.74-.75 2.08-.75 2.83 0 .37.37.58.88.58 1.41a1.998 1.998 0 0 1-2 2Z"/></svg>