<svg xmlns="http://www.w3.org/2000/svg" viewBox="0 0 100 100"><circle cx="27.336" cy="52.994" r="11.831"/><path d="M27.335 69.436c12.073 0 21.874 9.801 21.874 21.873v3.229H5.462v-3.229c0-12.072 9.801-21.873 21.873-21.873ZM67.04 60.387c-15.124 0-27.427-12.303-27.427-27.426S51.916 5.534 67.04 5.534s27.427 12.304 27.427 27.427-12.304 27.426-27.427 27.426Zm0-48.853c-11.815 0-21.427 9.612-21.427 21.427s9.612 21.426 21.426 21.426 21.427-9.612 21.427-21.426-9.612-21.427-21.427-21.427Z"/><path d="M78.828 27.836H56.775a3 3 0 1 1 0-6h22.053a3 3 0 1 1 0 6Z"/><path d="M71.994 35.961a3 3 0 0 1-2.121-5.121l5.62-5.62-5.62-5.621a3 3 0 1 1 4.243-4.242l7.741 7.742a3 3 0 0 1 0 4.242l-7.742 7.741a2.99 2.99 0 0 1-2.12.88ZM77.093 44.086H55.04a3 3 0 1 1 0-6h22.053a3 3 0 1 1 0 6Z"/><path d="M61.873 51.444a2.99 2.99 0 0 1-2.12-.88l-7.742-7.74a2.997 2.997 0 0 1 0-4.243l7.741-7.741a3 3 0 1 1 4.243 4.242l-5.62 5.62 5.62 5.62a3 3 0 0 1-2.122 5.122Z"/></svg>