<svg xmlns="http://www.w3.org/2000/svg" viewBox="0 0 100 100"><path d="m89.877 14.599-4.476-4.476c-6.13-6.13-16.1-6.13-22.231 0L42.074 31.219a19.786 19.786 0 0 1 7.962.523l17.377-17.377c3.79-3.79 9.956-3.79 13.746 0l4.476 4.476c3.79 3.79 3.79 9.956 0 13.746l-23.55 23.55a9.682 9.682 0 0 1-8.408 2.708 9.676 9.676 0 0 1-5.331-2.715l-4.476-4.476a9.676 9.676 0 0 1-2.715-5.331c-.142.113-.283.24-.418.374l-4.39 4.392a15.519 15.519 0 0 0 3.28 4.808l4.476 4.476a15.519 15.519 0 0 0 4.808 3.28c5.756 2.518 12.721 1.422 17.417-3.273l23.55-23.55c6.13-6.13 6.13-16.1 0-22.231Z"/><path d="M49.965 68.257 32.601 85.622c-3.783 3.783-9.95 3.783-13.74-.007l-4.476-4.476c-3.79-3.79-3.79-9.957-.007-13.74l23.53-23.53a9.687 9.687 0 0 1 8.415-2.715 9.675 9.675 0 0 1 5.332 2.715l4.476 4.476a9.675 9.675 0 0 1 2.715 5.332c.142-.114.276-.234.41-.368l4.399-4.398a15.518 15.518 0 0 0-3.281-4.809l-4.476-4.476a15.518 15.518 0 0 0-4.809-3.28c-5.755-2.518-12.72-1.422-17.423 3.28l-23.53 23.53c-6.124 6.124-6.124 16.095.007 22.225l4.476 4.476c6.13 6.13 16.1 6.13 22.224.007L57.927 68.78a19.67 19.67 0 0 1-7.962-.523Z"/></svg>