<svg xmlns="http://www.w3.org/2000/svg" xml:space="preserve" viewBox="0 0 500 500">
  <path fill="none" stroke="#000" stroke-linecap="round" stroke-miterlimit="10" stroke-width="8"
        d="M220.2 330.51c-6.77 3.11-14.49-1.81-14.53-9.26V208.11c-.03-3.03.04-9.51.13-16 .11-7.84 8.73-12.55 15.39-8.41 5.39 3.35 10.8 6.75 13.53 8.53l88.4 56.94c6.9 4.44 7.15 14.44.48 19.22l-25.87 18.56a6.93 6.93 0 0 0-1.86 9.27l13.81 22.43c6.38 10.37 2.78 23.97-7.91 29.81l-.36.2c-10.57 5.78-23.82 1.63-29.22-9.14l-11.58-23.14a6.931 6.931 0 0 0-9.56-2.96l-30.85 17.09zm48.84-166.45-17.58 14.23m-23.52-14.47 6.67-22.08m-72.99 81.03 21.47-7.11m.52-27.61-22.19-6.3m39.98-13.82-11.17-20.44"/>
</svg>
