<svg xmlns="http://www.w3.org/2000/svg" xml:space="preserve" id="Layer_1" x="0" y="0" version="1.1" viewBox="0 0 500 500">
  <style>
    .st1{fill:none;stroke:#000;stroke-width:8;stroke-linecap:round;stroke-linejoin:round;stroke-miterlimit:10}
  </style>
  <path d="m218.69 232.83-141.71-49.8c-6.1-2.14-6.08-10.77.03-12.89l151.07-52.3c1.45-.5 3.02-.5 4.47 0l151.07 52.3c6.11 2.11 6.13 10.75.03 12.89l-141.64 49.8a35.072 35.072 0 0 1-23.32 0zm79.5 60.3c-14.21 5.61-35.58 10.43-67.02 10.43-49.59 0-74.84-12.09-86.26-20.3-5.12-3.68-8.08-9.65-8.08-15.95v-61.49m187.03-2.14v51.01m41.94-65.38v53.09" class="st1"/>
  <path fill="none" stroke="#000" stroke-linecap="round" stroke-miterlimit="10" stroke-width="8" d="M389.65 378.04a60.805 60.805 0 0 1-22.99 4.49c-33.64 0-60.92-27.27-60.92-60.92s27.27-60.92 60.92-60.92 60.92 27.27 60.92 60.92c0 10.79-2.81 20.93-7.73 29.72"/>
  <path d="m339.94 319.61 18.92 18.93 34.52-33.86" class="st1"/>
</svg>
