<svg xmlns="http://www.w3.org/2000/svg" viewBox="0 0 100 100"><path d="M50.19 34.025v6.61c-3.5 2.23-6.56 5.17-8.98 8.7-2.28.47-4.88.74-7.64.74-9.18 0-16.63-2.96-16.63-6.6v-9.45l13.82 7.74a5.771 5.771 0 0 0 5.62 0l13.81-7.74Z"/><path d="M60.777 20.46 34.421 5.7a1.748 1.748 0 0 0-1.709 0L6.356 20.46c-1.192.668-1.192 2.384 0 3.051l26.356 14.761c.531.297 1.178.297 1.709 0l26.356-14.76c1.192-.668 1.192-2.384 0-3.051Z"/><path d="M9.274 23.679h2.107v10.284H9.274z"/><circle cx="10.327" cy="34.77" r="1.731"/><path d="M10.327 36.5c1.184 0 2.145.961 2.145 2.145v4.972a1.17 1.17 0 0 1-1.17 1.17h-1.95a1.17 1.17 0 0 1-1.17-1.17v-4.972c0-1.184.962-2.145 2.145-2.145ZM67.118 39.673c-9.39 0-17.68 4.73-22.62 11.94a27.246 27.246 0 0 0-4.81 15.48c0 7.43 2.97 14.17 7.77 19.11 4.99 5.13 11.96 8.32 19.66 8.32 15.12 0 27.42-12.3 27.42-27.43 0-15.12-12.3-27.42-27.42-27.42Zm18.53 38.16a21.506 21.506 0 0 1-8.85 8.37c-2.9 1.49-6.2 2.32-9.68 2.32s-6.78-.83-9.69-2.32c-6.96-3.54-11.74-10.77-11.74-19.11 0-6.08 2.55-11.58 6.63-15.48 3.85-3.68 9.06-5.94 14.8-5.94 3.54 0 6.88.86 9.82 2.39 3.63 1.88 6.66 4.77 8.7 8.29 1.85 3.16 2.9 6.82 2.9 10.74 0 3.91-1.05 7.58-2.89 10.74Z"/><path d="M81.917 63.921H52.3a3 3 0 1 0 0 6h29.615a3 3 0 1 0 0-6Z"/><path d="M70.109 52.113a3 3 0 0 0-6 0V81.73c0 .828.336 1.578.879 2.12a3 3 0 0 0 5.121-2.122V52.114Z"/></svg>