<svg xmlns="http://www.w3.org/2000/svg" xml:space="preserve" id="Layer_1" x="0" y="0" version="1.1" viewBox="0 0 500 500">
  <style>
    .st1{fill:none;stroke:#000;stroke-width:8;stroke-linecap:round;stroke-linejoin:round;stroke-miterlimit:10}
  </style>
  <path d="m238.27 248.78-141.71-49.8c-6.1-2.14-6.08-10.77.03-12.89l151.07-52.3c1.45-.5 3.02-.5 4.47 0l151.07 52.3c6.11 2.11 6.13 10.75.03 12.89l-141.64 49.8a35.072 35.072 0 0 1-23.32 0z" class="st1"/>
  <path d="M343.44 219.63v64.1c0 6.31-3.01 12.25-8.11 15.97-11.16 8.14-35.69 19.81-84.59 19.81-49.59 0-74.84-12.09-86.26-20.3-5.12-3.68-8.08-9.65-8.08-15.95v-61.49m228.98 97.74v47.07m0-161.32v53.09" class="st1"/>
  <circle cx="385.38" cy="296.88" r="22.62" class="st1"/>
</svg>
