<svg xmlns="http://www.w3.org/2000/svg" viewBox="0 0 100 100"><path d="M75.47 94.538H37.452c-6.224 0-11.289-6.28-11.289-13.998V61.262a3 3 0 1 1 6 0V80.54c0 4.335 2.422 7.998 5.29 7.998h38.015c2.867 0 5.29-3.663 5.29-7.998V19.46c0-4.335-2.423-7.998-5.29-7.998H37.453c-2.867 0-5.289 3.663-5.289 7.998v19.278a3 3 0 0 1-6 0V19.46c0-7.718 5.065-13.998 11.29-13.998h38.015c6.225 0 11.29 6.28 11.29 13.998v61.08c0 7.718-5.065 13.998-11.29 13.998Z"/><path d="M65.38 52.613H16.243a3 3 0 1 1 0-6H65.38a3 3 0 0 1 0 6Z"/><path d="M52.307 65.965a3 3 0 0 1-2.121-5.121l11.23-11.23-11.23-11.23a2.999 2.999 0 1 1 4.242-4.243L67.78 47.493a2.998 2.998 0 0 1 0 4.242l-13.352 13.35a2.99 2.99 0 0 1-2.12.88Z"/></svg>