<svg xmlns="http://www.w3.org/2000/svg" viewBox="0 0 100 100"><path d="M85.042 94.39H18.278c-6.069 0-11.007-4.939-11.007-11.008V16.618c0-6.07 4.938-11.008 11.007-11.008h66.764c6.07 0 11.008 4.939 11.008 11.008v66.764c0 6.07-4.939 11.008-11.008 11.008ZM18.278 11.61a5.013 5.013 0 0 0-5.007 5.008v66.764a5.013 5.013 0 0 0 5.007 5.008h66.764a5.013 5.013 0 0 0 5.008-5.008V16.618a5.013 5.013 0 0 0-5.008-5.008H18.278Z"/><path d="M45.21 71.816 19.956 55.03c-3.596-2.39-3.596-7.67 0-10.06L45.21 28.184c4.014-2.668 9.382.21 9.382 5.03v33.572c0 4.82-5.368 7.698-9.382 5.03Z"/><path d="M76.68 71.816 51.423 55.03c-3.596-2.39-3.596-7.67 0-10.06l25.255-16.786c4.015-2.668 9.383.21 9.383 5.03v33.572c0 4.82-5.368 7.698-9.383 5.03Z"/></svg>