<svg xmlns="http://www.w3.org/2000/svg" viewBox="0 0 100 100"><path d="M83.382 94.39H16.618c-6.07 0-11.008-4.939-11.008-11.008V16.618c0-6.07 4.939-11.008 11.008-11.008h66.764c6.07 0 11.008 4.939 11.008 11.008v66.764c0 6.07-4.939 11.008-11.008 11.008ZM16.618 11.61a5.013 5.013 0 0 0-5.008 5.008v66.764a5.013 5.013 0 0 0 5.008 5.008h66.764a5.013 5.013 0 0 0 5.008-5.008V16.618a5.013 5.013 0 0 0-5.008-5.008H16.618Z"/><path d="M56.45 71.816 81.705 55.03c3.596-2.39 3.596-7.67 0-10.06L56.45 28.184c-4.015-2.668-9.383.21-9.383 5.03v33.572c0 4.82 5.368 7.698 9.383 5.03Z"/><path d="M24.98 71.816 50.238 55.03c3.595-2.39 3.595-7.67 0-10.06L24.98 28.184c-4.014-2.668-9.383.21-9.383 5.03v33.572c0 4.82 5.369 7.698 9.383 5.03Z"/></svg>