<svg xmlns="http://www.w3.org/2000/svg" viewBox="0 0 100 100"><path d="M67.145 94.39h-34.29a3 3 0 0 1-2.12-.88L6.488 69.267a3 3 0 0 1-.879-2.121v-34.29a3 3 0 0 1 .88-2.12L30.733 6.488a3 3 0 0 1 2.121-.879h34.29a3 3 0 0 1 2.12.88l24.246 24.244a3 3 0 0 1 .879 2.121v34.29a3 3 0 0 1-.88 2.12L69.267 93.512a3 3 0 0 1-2.121.879Zm-33.047-6h31.804L88.39 65.902V34.098L65.902 11.61H34.098L11.61 34.098v31.804L34.098 88.39Z"/><path d="M36.272 21.487c2.34 0 4.24 1.9 4.24 4.24v32.222a.207.207 0 0 1-.208.207H32.24a.207.207 0 0 1-.207-.207V25.726c0-2.34 1.9-4.239 4.24-4.239ZM47.05 18.228c2.34 0 4.24 1.9 4.24 4.24V54.69a.207.207 0 0 1-.207.207h-8.064a.207.207 0 0 1-.207-.207V22.467c0-2.34 1.9-4.239 4.239-4.239ZM57.83 21.487c2.34 0 4.239 1.9 4.239 4.24v32.222a.207.207 0 0 1-.207.207h-8.065a.207.207 0 0 1-.207-.207V25.726c0-2.34 1.9-4.239 4.24-4.239ZM68.608 26.748c2.34 0 4.24 1.899 4.24 4.239V57.46a.518.518 0 0 1-.519.518h-7.442a.518.518 0 0 1-.518-.518V30.987c0-2.34 1.9-4.24 4.24-4.24Z"/><path d="M32.033 45.93h40.814v16.018c0 9.284-7.537 16.821-16.821 16.821h-7.171c-9.284 0-16.822-7.537-16.822-16.821V45.929Z"/><path d="m21.69 52.463.329-.329a4.008 4.008 0 0 1 5.665 0l14.582 14.582-5.995 5.995-14.582-14.582a4.008 4.008 0 0 1 0-5.666Z"/></svg>