<svg xmlns="http://www.w3.org/2000/svg" viewBox="0 0 100 100"><path d="M44.595 89.015c2.16 2.21 4.57 4.07 7.19 5.53h-40.55c-3.46 0-6.14-2.66-5.74-5.68l7.02-51.85c.34-2.56 2.8-4.49 5.73-4.49h3.68c.29 0 .52.23.52.52v10.38c0 3.55 2.55 6.73 6.08 7.18 4.27.55 7.92-2.78 7.92-6.94v-10.62c0-.29.24-.52.53-.52h11.88c.29 0 .52.23.52.52v8.15a31.419 31.419 0 0 0-8.17 8.17 31.27 31.27 0 0 0-5.51 17.75c0 8.21 3.16 15.99 8.9 21.9ZM67.125 35.695c-1.26 0-2.51.08-3.75.23v-2.88c0-.29.24-.52.53-.52h3.66c2.64 0 4.9 1.57 5.57 3.75-1.94-.38-3.95-.58-6.01-.58Z"/><path d="M59.375 20.435v16.24a30.99 30.99 0 0 0-6 2.19v-18.43c0-4.95-4.03-8.98-8.98-8.98h-2.97c-4.95 0-8.98 4.03-8.98 8.98v23.23c0 1.65-1.34 3-3 3s-3-1.35-3-3v-23.23c0-8.26 6.72-14.98 14.98-14.98h2.97c8.26 0 14.98 6.72 14.98 14.98ZM67.124 39.693c-9.39 0-17.68 4.73-22.62 11.94a27.246 27.246 0 0 0-4.81 15.48c0 7.43 2.97 14.17 7.77 19.11 4.99 5.13 11.96 8.32 19.66 8.32 15.12 0 27.42-12.3 27.42-27.43 0-15.12-12.3-27.42-27.42-27.42Zm18.53 38.16a21.506 21.506 0 0 1-8.85 8.37c-2.9 1.49-6.2 2.32-9.68 2.32s-6.78-.83-9.69-2.32c-6.96-3.54-11.74-10.77-11.74-19.11 0-6.08 2.55-11.58 6.63-15.48 3.85-3.68 9.06-5.94 14.8-5.94 3.54 0 6.88.86 9.82 2.39 3.63 1.88 6.66 4.77 8.7 8.29 1.85 3.16 2.9 6.82 2.9 10.74 0 3.91-1.05 7.58-2.89 10.74Z"/><path d="M60.674 81.52a2.99 2.99 0 0 1-2.093-.85l-7.418-7.22a3 3 0 1 1 4.185-4.3l5.307 5.166L79.43 55.72a3 3 0 1 1 4.223 4.263l-20.868 20.67a2.992 2.992 0 0 1-2.111.868Z"/></svg>