<svg id="Capa_1" enable-background="new 0 0 512 512" height="512" viewBox="0 0 512 512" width="512"
     xmlns="http://www.w3.org/2000/svg">
    <g>
        <g>
            <path d="m491.721 235.817v-53.091c0-42.792-32.263-78.19-73.741-83.148v-20.283c0-5.326-4.019-9.977-9.333-10.321-5.824-.378-10.667 4.235-10.667 9.978v20.626c-34.328 4.103-62.344 29.056-70.983 61.794h-316.997-.005c-5.477-.148-9.997 4.253-9.995 9.733v.245 283.315.004c-.001 5.521 4.475 9.997 9.996 9.996h.004 155.101c5.326 0 9.977-4.019 10.321-9.335.377-5.824-4.236-10.665-9.978-10.665h-130.742l125.525-121.557 43.652 40.143c3.529 3.244 8.805 3.497 12.606.76.322-.232.634-.485.933-.76l43.653-40.143 125.525 121.557h-130.398c-5.326 0-9.977 4.02-10.321 9.335-.377 5.824 4.236 10.665 9.979 10.665 0 0 155.427.001 155.441.001 5.507 0 9.978-4.453 10.001-9.96 0-.026 0-.04 0-.041v-110.944c16.511-5.577 28.432-21.227 28.432-39.611 0-.291-.003-.581-.009-.871h26.89c19.514 0 35.39-15.876 35.39-35.423-.001-14.112-8.304-26.321-20.28-31.999zm-147.483-53.091c0-35.147 28.594-63.742 63.741-63.742s63.741 28.594 63.741 63.742v49.7h-127.482zm-19.988-1.354c-.007.45-.011.902-.011 1.354v53.092c-7.765 3.683-13.984 10.112-17.399 18.031l-96.19 88.457-175.003-160.934zm-304.25 249.689v-236.908l125.481 115.394zm286.592-149.815c5.292 12.891 17.981 21.993 32.756 21.993h26.89c-.006.29-.009.58-.009.871 0 20.768 15.212 38.046 35.068 41.256v85.695l-125.481-121.513zm123.137 22.864c0 12.016-9.757 21.792-21.75 21.792s-21.75-9.775-21.75-21.792c0-.291.006-.582.017-.871h43.467c.011.289.016.58.016.871zm46.881-20.871h-137.261c-8.486 0-15.39-6.904-15.39-15.423 0-8.486 6.903-15.39 15.39-15.39h137.261c8.486 0 15.39 6.904 15.39 15.423 0 8.486-6.903 15.39-15.39 15.39z"/>
            <path d="m261.223 137.997c5.522 0 10-4.477 10-10 0-33.449 27.171-60.663 60.569-60.663 5.523 0 10-4.477 10-10s-4.477-10-10-10c-44.426 0-80.569 36.185-80.569 80.663 0 5.523 4.477 10 10 10z"/>
            <path d="m331.791 85.83c-23.227 0-42.124 18.916-42.124 42.167 0 5.523 4.478 10 10 10 5.523 0 10-4.477 10-10 0-12.223 9.925-22.167 22.124-22.167 5.523 0 10-4.477 10-10s-4.477-10-10-10z"/>
            <path d="m273.648 407.34c0-5.523-4.478-10-10-10h-106c-5.522 0-10 4.477-10 10s4.478 10 10 10h106c5.523 0 10-4.477 10-10z"/>
            <path d="m220.069 450.84c-1.61-3.865-5.579-6.388-9.77-6.161-4.161.226-7.818 3.096-9.029 7.081-1.21 3.98.242 8.469 3.606 10.938 3.283 2.409 7.765 2.602 11.231.458 4.103-2.539 5.82-7.858 3.962-12.316z"/>
        </g>
    </g>
</svg>
