<?xml version="1.0" encoding="utf-8"?>
<svg viewBox="0 0 500 500" xmlns="http://www.w3.org/2000/svg">
  <defs>
    <style>
    .st1{fill:none;stroke:#000;stroke-width:8;stroke-linecap:round;stroke-linejoin:round;stroke-miterlimit:10}
  </style>
  </defs>
  <path d="M 357.54 283.05 L 357.54 348.26 C 357.54 360.63 347.51000000000005 370.65 335.15000000000003 370.65 L 112.57 370.65 C 100.19999999999999 370.65 90.17999999999999 360.62 90.17999999999999 348.26 L 90.17999999999999 202.68 C 90.17999999999999 190.31 100.21 180.29000000000002 112.57 180.29000000000002 L 261.35 180.29000000000002" class="st1" style=""/>
  <path d="m90.18 211.28 106.91 73.78c16.15 11.14 37.47 11.28 53.76.33l40.93-27.51M180.9 276.94l-87.58 77.29m173.5-77.29 87.58 77.29" class="st1"/>
  <path fill="none" stroke="#000" stroke-linecap="round" stroke-miterlimit="10" stroke-width="8" d="M405.33 167.28a60.805 60.805 0 0 1 4.49 22.99c0 33.64-27.27 60.92-60.92 60.92s-60.92-27.27-60.92-60.92 27.27-60.92 60.92-60.92c10.79 0 20.93 2.81 29.72 7.73" style=""/>
  <path d="M 371.594 163.351 L 375.814 167.571 C 379.044 170.801 379.044 176.041 375.814 179.281 L 371.904 183.191 L 355.974 167.261 L 359.884 163.351 C 363.114 160.121 368.364 160.121 371.594 163.351 Z" class="st1" style="stroke-width: 6px;"/>
  <path d="M 338.052 169.169 L 360.582 169.169 L 360.582 210.529 L 338.052 210.529 L 338.052 169.169 Z" class="st1" style="stroke-width: 6px;" transform="matrix(0.707095, 0.707119, -0.707119, 0.707095, 236.562564, -191.401028)"/>
  <path d="M 326.734 196.511 L 342.664 212.441 L 319.564 219.611 L 326.734 196.511 Z" class="st1" style="stroke-width: 6px;"/>
</svg>