<svg xmlns="http://www.w3.org/2000/svg" viewBox="0 0 100 100"><path d="M50 94.37C25.534 94.37 5.63 74.466 5.63 50S25.534 5.63 50 5.63 94.37 25.534 94.37 50 74.466 94.37 50 94.37Zm0-82.74c-21.157 0-38.37 17.213-38.37 38.37S28.843 88.37 50 88.37 88.37 71.157 88.37 50 71.157 11.63 50 11.63Z"/><path d="M51.323 78.618h-2.646c-11.245 0-20.394-9.15-20.394-20.394V43.288a3 3 0 0 1 3-3h37.434a3 3 0 0 1 3 3v14.936c0 11.245-9.149 20.394-20.394 20.394Zm-17.04-32.33v11.936c0 7.937 6.457 14.394 14.394 14.394h2.646c7.937 0 14.394-6.457 14.394-14.394V46.288H34.283Z"/><path d="M58.623 46.288H41.377a3 3 0 0 1-3-3V24.382a3 3 0 1 1 6 0v15.906h11.246V24.382a3 3 0 1 1 6 0v18.906a3 3 0 0 1-3 3ZM50 94.37a3 3 0 0 1-3-3V75.618a3 3 0 1 1 6 0V91.37a3 3 0 0 1-3 3Z"/></svg>