<svg xmlns="http://www.w3.org/2000/svg" viewBox="0 0 100 100"><path d="M86.014 82.786H13.986c-4.628 0-8.393-3.765-8.393-8.392V25.606c0-4.627 3.765-8.392 8.393-8.392h72.028c4.628 0 8.393 3.765 8.393 8.392v48.788c0 4.627-3.765 8.392-8.393 8.392ZM13.986 23.214a2.395 2.395 0 0 0-2.393 2.392v48.788a2.395 2.395 0 0 0 2.393 2.392h72.028a2.395 2.395 0 0 0 2.393-2.392V25.606a2.395 2.395 0 0 0-2.393-2.392H13.986Z"/><path d="M49.995 52.997a3 3 0 0 1-1.752-.564l-39.55-28.45a3 3 0 0 1 3.504-4.872l37.798 27.19 37.809-27.19a3 3 0 0 1 3.503 4.871l-39.56 28.45a2.997 2.997 0 0 1-1.752.565Z"/></svg>