<svg xmlns="http://www.w3.org/2000/svg" xml:space="preserve" id="Layer_1" x="0" y="0" version="1.1" viewBox="0 0 500 500">
  <style>
    .st1{fill:none;stroke:#000;stroke-width:8;stroke-linecap:round;stroke-linejoin:round;stroke-miterlimit:10}
  </style>
  <path d="M355.82 222.1v-42.94c0-13.45-10.9-24.35-24.35-24.35H110.85c-12.37 0-22.39 10.03-22.39 22.39v145.58c0 12.37 10.03 22.39 22.39 22.39h222.57c12.37 0 22.39-10.03 22.39-22.39v-38.8" class="st1"/>
  <path d="m88.46 185.82 106.91 73.78c16.15 11.14 37.47 11.28 53.76.33l106.69-73.54m-176.65 65.08L91.6 328.76m173.5-77.29 87.57 77.29m-43.97-63.17c12.1-.02 24.21-.03 36.31-.03l26.45.01c7.71 0 9.49 1.75 9.5 9.32V286l30.59-31.22-30.59-30.67.01 4.95c0 2.31.01 4.54-.01 6.77-.06 5.99-2.17 8.13-8.08 8.17-3.98.03-7.97.04-11.95.04-4.27 0-8.53-.02-12.8-.04" class="st1"/>
</svg>
