<svg height="511pt" viewBox="0 -30 511.99877 511" width="511pt" xmlns="http://www.w3.org/2000/svg"><path d="m415.996094 197.523438c-5.519532 0-10 4.480468-10 10 0 5.519531 4.480468 10 10 10 5.519531 0 10-4.480469 10-10 0-5.519532-4.480469-10-10-10zm0 0"/><path d="m6.476562 231.886719 154.339844 57.878906c4.199219 33.550781 19.214844 153.800781 19.328125 154.464844 1.382813 8.070312 11.269531 11.035156 16.929688 5.351562.019531-.015625.035156-.027343.050781-.042969l91.234375-92.890624 137.921875 55.167968c5.863281 2.34375 12.410156-1.269531 13.550781-7.480468l72-392.027344c.667969-3.628906-.714843-7.328125-3.597656-9.628906-2.882813-2.296876-6.796875-2.824219-10.183594-1.367188l-492.023437 212.027344c-8.25 3.554687-7.964844 15.394531.449218 18.546875zm215.976563 84.070312c-.792969.910157-1.554687 2.183594-1.976563 3.496094l-26.03125 78.089844-13.847656-110.777344 234.816406-192.25zm-9.304687 88.722657 22.976562-68.929688 32.109375 12.84375zm209.21875-15.972657-175.578126-70.230469 238.8125-274.066406zm18.746093-341.082031-273.003906 223.515625-131.359375-49.257813zm0 0"/><path d="m412.058594 237.273438c-5.480469-.6875-10.480469 3.199218-11.164063 8.679687l-12.210937 97.613281c-.742188 5.941406 3.878906 11.242188 9.933594 11.242188 4.972656 0 9.277343-3.699219 9.914062-8.757813l12.207031-97.613281c.6875-5.480469-3.199219-10.480469-8.679687-11.164062zm0 0"/></svg>