<svg xmlns="http://www.w3.org/2000/svg" viewBox="0 0 100 100"><path d="M83.51 13.44H16.49c-6.02 0-10.92 4.9-10.92 10.92v57.8c0 3.29 2.68 5.98 5.98 5.98h34.3a31.326 31.326 0 0 1-5.12-5.99l-29.16.01v-57.8a4.93 4.93 0 0 1 4.92-4.92h67.02a4.93 4.93 0 0 1 4.92 4.92l.01 17.61c2.37 2.21 4.4 4.78 5.99 7.63V24.36c0-6.02-4.9-10.92-10.92-10.92Z"/><path d="M91.432 35.067H8.568a3 3 0 1 1 0-6h82.864a3 3 0 1 1 0 6ZM37.143 25.234a3 3 0 0 1-3-3v-11.59a3 3 0 1 1 6 0v11.59a3 3 0 0 1-3 3ZM62.857 25.234a3 3 0 0 1-3-3v-11.59a3 3 0 1 1 6 0v11.59a3 3 0 0 1-3 3ZM32.78 55.594H19.942a2 2 0 0 1-2-2V40.758a2 2 0 0 1 2-2H32.78a2 2 0 0 1 2 2v12.836a2 2 0 0 1-2 2Zm-10.837-4h8.836v-8.836h-8.836v8.836ZM32.694 78.61H19.857a2 2 0 0 1-2-2V63.775a2 2 0 0 1 2-2h12.837a2 2 0 0 1 2 2V76.61a2 2 0 0 1-2 2Zm-10.837-4h8.837v-8.835h-8.837v8.835ZM41.37 40.76v6.03c2.26-3.21 5.08-5.91 8.26-8.03h-6.26a2 2 0 0 0-2 2ZM67.012 37.505c-9.39 0-17.68 4.73-22.62 11.94a27.246 27.246 0 0 0-4.81 15.48c0 7.43 2.97 14.17 7.77 19.11 4.99 5.13 11.96 8.32 19.66 8.32 15.12 0 27.42-12.3 27.42-27.43 0-15.12-12.3-27.42-27.42-27.42Zm18.53 38.16a21.506 21.506 0 0 1-8.85 8.37c-2.9 1.49-6.2 2.32-9.68 2.32s-6.78-.83-9.69-2.32c-6.96-3.54-11.74-10.77-11.74-19.11 0-6.08 2.55-11.58 6.63-15.48 3.85-3.68 9.06-5.94 14.8-5.94 3.54 0 6.88.86 9.82 2.39 3.63 1.88 6.66 4.77 8.7 8.29 1.85 3.16 2.9 6.82 2.9 10.74 0 3.91-1.05 7.58-2.89 10.74Z"/><path d="M61.89 81.345c-.788 0-1.585-.121-2.347-.428-1.024-.412-2.33-1.317-3.133-3.304-1.37-.185-3.642-.779-4.986-2.666-1.174-1.65-1.314-3.802-.415-6.398a1.5 1.5 0 1 1 2.835.98c-.562 1.623-.555 2.858.019 3.671.855 1.211 2.933 1.491 3.662 1.497.676.006 1.27.462 1.444 1.115.327 1.234.88 1.992 1.69 2.32 1.452.587 3.588-.161 4.848-.768v-25.07c-.561-.671-1.683-1.74-2.882-1.897-.728-.091-1.448.163-2.188.79-1.958 1.662-.58 3.981-.416 4.24.44.697.238 1.623-.456 2.068a1.494 1.494 0 0 1-2.064-.44c-1.06-1.628-2.218-5.429.996-8.156 1.387-1.176 2.96-1.683 4.537-1.473 3.006.404 4.994 3.196 5.211 3.513.17.25.262.545.262.847v26.476c0 .523-.273 1.01-.72 1.281-.372.227-3.067 1.802-5.898 1.802Z"/><path d="M53.688 70.745c-.176 0-.354-.03-.528-.096-.162-.061-3.993-1.553-4.138-6.244-.094-3.08 1.228-5.176 2.077-6.194-.224-1.201-.362-3.323.94-4.935 1.56-1.928 4.26-1.8 5.612-1.419a1.5 1.5 0 0 1-.806 2.89c-.457-.124-1.888-.307-2.472.414-.676.837-.36 2.509-.197 3.028a1.509 1.509 0 0 1-.462 1.604c-.062.055-1.782 1.603-1.693 4.52.083 2.704 2.173 3.52 2.195 3.528a1.5 1.5 0 0 1-.528 2.904ZM59.171 69.184a1.5 1.5 0 0 1-1.034-2.588l.042-.051c3.558-4.429 7.581-2.751 9.663-1.356a1.5 1.5 0 1 1-1.67 2.493c-2.915-1.953-4.554-.63-5.654.742-.192.238-.41.509-.816.663a1.51 1.51 0 0 1-.53.097Z"/><path d="M72.124 81.345c-2.831 0-5.525-1.575-5.896-1.802a1.498 1.498 0 0 1-.721-1.281V51.786c0-.295.087-.584.25-.83.22-.329 2.226-3.23 5.256-3.614 1.108-.139 2.794.02 4.535 1.586 3.11 2.794 1.993 6.535.968 8.123a1.5 1.5 0 0 1-2.52-1.627c.152-.245 1.487-2.523-.453-4.265-.729-.655-1.43-.927-2.144-.843-1.198.149-2.33 1.268-2.892 1.965v25.083c1.26.607 3.394 1.358 4.847.768.81-.328 1.363-1.086 1.69-2.32a1.5 1.5 0 0 1 1.45-1.115c.723-.006 2.801-.286 3.656-1.497.575-.813.581-2.049.02-3.67a1.5 1.5 0 0 1 2.835-.981c.899 2.597.759 4.749-.416 6.398-1.343 1.887-3.616 2.48-4.986 2.666-.802 1.987-2.109 2.892-3.133 3.304-.761.307-1.559.428-2.346.428Z"/><path d="M80.325 70.745a1.5 1.5 0 0 1-.528-2.904c.202-.082 2.115-.93 2.195-3.528.09-2.917-1.631-4.465-1.704-4.53a1.523 1.523 0 0 1-.449-1.6c.162-.513.477-2.185-.198-3.022-.585-.722-2.018-.537-2.473-.414-.799.214-1.621-.255-1.84-1.05s.24-1.616 1.034-1.84c1.351-.381 4.053-.51 5.612 1.42 1.302 1.61 1.165 3.733.94 4.934.849 1.018 2.171 3.114 2.077 6.194-.144 4.69-3.975 6.183-4.138 6.244a1.496 1.496 0 0 1-.528.096ZM74.842 63.935c-.178 0-.36-.032-.536-.1-.404-.154-.62-.423-.81-.66-1.1-1.372-2.74-2.694-5.654-.743a1.5 1.5 0 0 1-1.67-2.493c2.082-1.395 6.106-3.073 9.663 1.358l.041.05a1.5 1.5 0 0 1-1.034 2.588Z"/></svg>