<svg xmlns="http://www.w3.org/2000/svg" viewBox="0 0 100 100"><path d="M73.228 5.456h-59.32c-4.6 0-8.35 3.74-8.35 8.34v35.84c0 4.6 3.75 8.35 8.35 8.35h23.04c.63-2.08 1.48-4.09 2.55-6h-25.59c-1.3 0-2.35-1.05-2.35-2.35v-35.84c0-1.29 1.05-2.34 2.35-2.34h59.32c1.3 0 2.35 1.05 2.35 2.34v23.08c2.09.6 4.1 1.4 6 2.4v-25.48c0-4.6-3.74-8.34-8.35-8.34Z"/><path d="M8.559 17.386h70.022v12.527H8.559zM21.168 43.306c0 1.75.62 3.36 1.66 4.61-.76.43-1.64.67-2.57.67-2.92 0-5.29-2.36-5.29-5.28s2.37-5.29 5.29-5.29c.93 0 1.81.24 2.57.67a7.232 7.232 0 0 0-1.66 4.62Z"/><circle cx="28.453" cy="43.303" r="5.288"/><path d="M67.022 39.694c-9.39 0-17.68 4.73-22.62 11.94a27.246 27.246 0 0 0-4.81 15.48c0 7.43 2.97 14.17 7.77 19.11 4.99 5.13 11.96 8.32 19.66 8.32 15.12 0 27.42-12.3 27.42-27.43 0-15.12-12.3-27.42-27.42-27.42Zm18.53 38.16a21.506 21.506 0 0 1-8.85 8.37c-2.9 1.49-6.2 2.32-9.68 2.32s-6.78-.83-9.69-2.32c-6.96-3.54-11.74-10.77-11.74-19.11 0-6.08 2.55-11.58 6.63-15.48 3.85-3.68 9.06-5.94 14.8-5.94 3.54 0 6.88.86 9.82 2.39 3.63 1.88 6.66 4.77 8.7 8.29 1.85 3.16 2.9 6.82 2.9 10.74 0 3.91-1.05 7.58-2.89 10.74Z"/><path d="M79.005 61.986H56.952a3 3 0 1 1 0-6h22.053a3 3 0 1 1 0 6Z"/><path d="M72.172 70.111a3 3 0 0 1-2.121-5.121l5.62-5.62-5.621-5.62a3 3 0 1 1 4.243-4.243l7.742 7.742a3 3 0 0 1 0 4.242l-7.742 7.742a2.99 2.99 0 0 1-2.121.878ZM77.27 78.236H55.218a3 3 0 1 1 0-6H77.27a3 3 0 1 1 0 6Z"/><path d="M62.05 85.594a2.99 2.99 0 0 1-2.12-.879l-7.742-7.741a2.997 2.997 0 0 1 0-4.242l7.742-7.742a3 3 0 1 1 4.242 4.243l-5.62 5.62 5.62 5.62a3 3 0 0 1-2.121 5.12Z"/></svg>