<?xml version="1.0" encoding="utf-8"?>
<!-- Generator: Adobe Illustrator 23.0.5, SVG Export Plug-In . SVG Version: 6.00 Build 0)  -->
<svg version="1.1" id="Layer_1" xmlns="http://www.w3.org/2000/svg" xmlns:xlink="http://www.w3.org/1999/xlink" x="0px" y="0px"
	 viewBox="0 0 500 500" style="enable-background:new 0 0 500 500;" xml:space="preserve">
<style type="text/css">
	.st0{fill:none;stroke:#000000;stroke-width:6;stroke-linecap:round;stroke-linejoin:round;stroke-miterlimit:10;}
</style>
<path class="st0" d="M253.45,378.64h-106.3c-22.52,0-40.77-18.25-40.77-40.77V132.99c0-22.52,18.25-40.77,40.77-40.77h185.88
	c22.52,0,40.77,18.25,40.77,40.77v174.48"/>
<g>
	<line class="st0" x1="306.74" y1="74.22" x2="306.74" y2="108.02"/>
	<line class="st0" x1="240.09" y1="74.22" x2="240.09" y2="108.02"/>
	<line class="st0" x1="173.43" y1="74.22" x2="173.43" y2="108.02"/>
</g>
<g>
	<g>
		<line class="st0" x1="218.23" y1="172.32" x2="341.01" y2="172.32"/>
		<polyline class="st0" points="139.16,171.43 157.8,190.08 193.32,154.56 		"/>
	</g>
	<g>
		<line class="st0" x1="218.23" y1="235.43" x2="341.01" y2="235.43"/>
		<polyline class="st0" points="139.16,234.55 157.8,253.19 193.32,217.67 		"/>
	</g>
	<g>
		<line class="st0" x1="218.23" y1="298.55" x2="341.01" y2="298.55"/>
		<polyline class="st0" points="139.16,297.67 157.8,316.31 193.32,280.79 		"/>
	</g>
</g>
<g>
	<g>
		<path class="st0" d="M355.69,432.3c-7.09,2.89-14.86,4.49-22.99,4.49c-33.64,0-60.92-27.27-60.92-60.92s27.27-60.92,60.92-60.92
			s60.92,27.27,60.92,60.92c0,10.79-2.81,20.93-7.73,29.72"/>
	</g>
	<polyline class="st0" points="305.99,373.87 324.91,392.79 359.42,358.94 	"/>
</g>
</svg>
