<svg xmlns="http://www.w3.org/2000/svg" viewBox="0 0 100 100"><path d="M60.226 79.665a2.991 2.991 0 0 1-2.121-.878l-7.382-7.382a3 3 0 1 1 4.242-4.243l5.26 5.26 16.987-16.985a2.999 2.999 0 1 1 4.242 4.242L62.347 78.786a2.99 2.99 0 0 1-2.121.879Z"/><path d="M67.111 94.538c-15.123 0-27.426-12.304-27.426-27.427s12.303-27.426 27.426-27.426 27.427 12.303 27.427 27.426S82.234 94.538 67.11 94.538Zm0-48.853c-11.814 0-21.426 9.612-21.426 21.426s9.612 21.427 21.426 21.427 21.427-9.612 21.427-21.427-9.612-21.426-21.427-21.426Z"/><circle cx="38.153" cy="23.523" r="18.061"/><path d="M35.69 67.11c0 5.84 1.6 11.32 4.39 16H5.46v-5.63c0-18.05 14.64-32.69 32.69-32.69 2.14 0 4.23.2 6.26.6-5.4 5.65-8.72 13.3-8.72 21.72Z"/></svg>