<?xml version="1.0" encoding="utf-8"?>
<svg viewBox="0 0 500 500" xmlns="http://www.w3.org/2000/svg">
  <path fill="#fad271" d="M 227.884 104.279 L 82.457 375.126 C 74.241 390.434 86.192 408.447 104.572 408.447 L 395.427 408.447 C 413.807 408.447 425.761 390.434 417.542 375.126 L 272.114 104.279 C 263.001 87.311 236.998 87.311 227.884 104.279 Z" style=""/>
  <g fill="#423e4f" transform="matrix(2.934198, 0, 0, 2.934198, 62.209585, 62.210985)" style="">
    <path d="M64 31.726a5.418 5.418 0 0 0-5.5 5.45l1.017 44.289A4.422 4.422 0 0 0 64 85.726a4.422 4.422 0 0 0 4.482-4.261L69.5 37.176a5.418 5.418 0 0 0-5.5-5.45z"/>
    <circle cx="64" cy="100.222" r="6"/>
  </g>
</svg>