<svg xmlns="http://www.w3.org/2000/svg" xml:space="preserve" id="Layer_1" x="0" y="0" version="1.1" viewBox="0 0 500 500">
  <style>
    .st0,.st1,.st2{stroke:#000;stroke-linecap:round;stroke-miterlimit:10}.st0{fill:none;stroke-width:10}.st1,.st2{stroke-linejoin:round}.st1{fill:none;stroke-width:10}.st2{stroke-width:4}.st2,.st3{fill:none}.st4{stroke:#000;stroke-width:10;stroke-linecap:round;stroke-linejoin:round;stroke-miterlimit:10}.st4,.st5{fill:#fff}
  </style>
  <path d="M364.48 146.54c3.65 0 6.62 2.97 6.62 6.62v34.64c0 3.65-2.97 6.62-6.62 6.62H135.52c-3.65 0-6.62-2.97-6.62-6.62v-34.64c0-3.65 2.97-6.62 6.62-6.62h228.96m0-6H135.52c-6.97 0-12.62 5.65-12.62 12.62v34.64c0 6.97 5.65 12.62 12.62 12.62h228.95c6.97 0 12.62-5.65 12.62-12.62v-34.64c.01-6.96-5.64-12.62-12.61-12.62zm0 85.52c3.65 0 6.62 2.97 6.62 6.62v34.64c0 3.65-2.97 6.62-6.62 6.62H135.52c-3.65 0-6.62-2.97-6.62-6.62v-34.64c0-3.65 2.97-6.62 6.62-6.62h228.96m0-6H135.52c-6.97 0-12.62 5.65-12.62 12.62v34.64c0 6.97 5.65 12.62 12.62 12.62h228.95c6.97 0 12.62-5.65 12.62-12.62v-34.64c.01-6.97-5.64-12.62-12.61-12.62zm0 139.4H135.52c-6.97 0-12.62-5.65-12.62-12.62V312.2c0-6.97 5.65-12.62 12.62-12.62h228.95c6.97 0 12.62 5.65 12.62 12.62v34.64c.01 6.96-5.64 12.62-12.61 12.62z"/>
</svg>
