<svg xmlns="http://www.w3.org/2000/svg" viewBox="0 0 100 100"><path d="M83.914 31.613H16.086a4.564 4.564 0 0 1-4.564-4.563V10.026a4.564 4.564 0 0 1 4.564-4.564h67.828a4.564 4.564 0 0 1 4.564 4.564V27.05a4.564 4.564 0 0 1-4.564 4.563Zm-64.828-6h61.828c.863 0 1.564-.7 1.564-1.563V13.026c0-.864-.7-1.564-1.564-1.564H19.086c-.863 0-1.564.7-1.564 1.564V24.05c0 .863.7 1.563 1.564 1.563ZM83.914 63.075H16.086a4.564 4.564 0 0 1-4.564-4.564V41.49a4.564 4.564 0 0 1 4.564-4.564h67.828a4.564 4.564 0 0 1 4.564 4.564V58.51a4.564 4.564 0 0 1-4.564 4.564Zm-64.828-6h61.828c.863 0 1.564-.7 1.564-1.564V44.49c0-.864-.7-1.564-1.564-1.564H19.086c-.863 0-1.564.7-1.564 1.564V55.51c0 .864.7 1.564 1.564 1.564ZM84.593 94.538H15.407a3.885 3.885 0 0 1-3.885-3.885v-18.38a3.885 3.885 0 0 1 3.885-3.886h69.186a3.885 3.885 0 0 1 3.885 3.885v18.38a3.885 3.885 0 0 1-3.885 3.886Z"/></svg>