<svg xmlns="http://www.w3.org/2000/svg" viewBox="0 0 100 100"><path d="M39.68 81.06c-3.38 4.77-8.94 7.88-15.22 7.88-10.3 0-18.69-8.38-18.69-18.69a18.6 18.6 0 0 1 5.1-12.82 3 3 0 0 1 4.36 4.12 12.62 12.62 0 0 0-3.46 8.7c0 7 5.69 12.69 12.69 12.69 5.72 0 10.57-3.81 12.14-9.04.73 2.53 1.77 4.93 3.08 7.16ZM42.188 42.562c-.52 0-1.047-.135-1.527-.419a18.562 18.562 0 0 1-8.577-11.444 18.565 18.565 0 0 1 2.029-14.158 18.562 18.562 0 0 1 11.444-8.577 18.575 18.575 0 0 1 14.157 2.029A18.613 18.613 0 0 1 68.15 20.91a3.001 3.001 0 0 1-5.768 1.656 12.634 12.634 0 0 0-5.725-7.412 12.598 12.598 0 0 0-9.613-1.377 12.599 12.599 0 0 0-7.768 5.822 12.605 12.605 0 0 0-1.377 9.612 12.599 12.599 0 0 0 5.822 7.769 3 3 0 0 1-1.532 5.58Z"/><path d="M27.767 66.895a3 3 0 0 1-2.578-4.53l14.41-24.314a3 3 0 1 1 5.162 3.059l-14.41 24.314a3 3 0 0 1-2.584 1.47Z"/><circle cx="24.002" cy="70.252" r="7.534"/><path d="m56.37 30.24 2.54 4.53c-1.98.52-3.89 1.22-5.7 2.1l-2.08-3.71a3.002 3.002 0 0 1 1.15-4.08c1.45-.8 3.28-.29 4.09 1.16Z"/><circle cx="50.139" cy="25.25" r="7.534"/><path d="M66.804 92.625c-15.123 0-27.427-12.303-27.427-27.426s12.304-27.426 27.427-27.426S94.23 50.076 94.23 65.199 81.927 92.625 66.804 92.625Zm0-48.852c-11.815 0-21.427 9.611-21.427 21.426s9.612 21.426 21.427 21.426S88.23 77.013 88.23 65.2s-9.612-21.426-21.426-21.426Z"/><path d="M64.193 84.119c-.752 0-1.512-.1-2.246-.323-2.238-.68-5.073-2.676-5.874-8.333a2.001 2.001 0 0 1 3.96-.56c.28 1.97 1.04 4.447 3.077 5.066 1.681.51 3.561-.349 3.99-.828 1.122-1.249 7.185-8.831 8.96-14.714.983-3.257.217-7.438-1.907-10.405-1.177-1.644-3.292-3.627-6.686-3.745a5.319 5.319 0 0 0-.215-.004c-6.173 0-6.739 9.46-6.76 9.868-.058 1.102-1.023 1.927-2.098 1.896a2 2 0 0 1-1.898-2.094c.237-4.852 2.854-13.953 11.11-13.664 3.917.136 7.397 2.06 9.799 5.414 2.853 3.986 3.829 9.438 2.485 13.89-2.265 7.504-9.737 16.146-9.81 16.228-1.151 1.283-3.48 2.308-5.887 2.308Z"/><path d="m62.661 76.154-.069-.001a2 2 0 0 1-1.93-2.068c.078-2.267 1.342-3.41 2.359-4.33.813-.735 1.516-1.37 1.943-2.757.355-1.154.036-1.65-.07-1.815-2.116-3.309-1.632-7.504 1.152-9.977 2.16-1.917 4.513-2.056 4.775-2.066a2 2 0 0 1 .174 3.996c-.09.008-1.225.113-2.293 1.062-1.283 1.138-1.471 3.214-.438 4.829.648 1.013 1.267 2.73.523 5.148-.75 2.439-2.1 3.657-3.084 4.548-.856.774-1.026.972-1.043 1.5a2 2 0 0 1-1.999 1.93Z"/></svg>