<svg xmlns="http://www.w3.org/2000/svg" viewBox="0 0 100 100"><path d="M24.622 90.783c-10.304 0-18.686-8.383-18.686-18.687 0-4.787 1.808-9.34 5.093-12.821a2.999 2.999 0 1 1 4.364 4.117 12.635 12.635 0 0 0-3.457 8.704c0 6.995 5.69 12.687 12.686 12.687s12.686-5.692 12.686-12.687a3 3 0 1 1 6 0c0 10.304-8.382 18.687-18.686 18.687Z"/><path d="M68.593 75.096H40.328a3 3 0 1 1 0-6h28.265a3 3 0 1 1 0 6Z"/><circle cx="75.982" cy="72.096" r="7.534"/><path d="M42.35 44.405c-.519 0-1.046-.135-1.526-.42a18.562 18.562 0 0 1-8.577-11.444 18.565 18.565 0 0 1 2.028-14.157A18.562 18.562 0 0 1 45.72 9.807a18.576 18.576 0 0 1 14.157 2.028 18.613 18.613 0 0 1 8.434 10.918 3.001 3.001 0 0 1-5.767 1.656 12.634 12.634 0 0 0-5.726-7.412 12.599 12.599 0 0 0-9.612-1.377 12.599 12.599 0 0 0-7.769 5.823 12.605 12.605 0 0 0-1.376 9.612 12.599 12.599 0 0 0 5.822 7.769 3 3 0 0 1-1.532 5.58Z"/><path d="M27.93 68.738a3 3 0 0 1-2.578-4.53l14.41-24.314a3 3 0 1 1 5.162 3.058l-14.41 24.315a3 3 0 0 1-2.584 1.47Z"/><circle cx="24.165" cy="72.095" r="7.534"/><path d="M75.398 90.605c-1.525 0-3.058-.188-4.569-.568a2.999 2.999 0 0 1-2.178-3.64 2.995 2.995 0 0 1 3.641-2.178c3.15.79 6.447.354 9.283-1.234 6.106-3.416 8.293-11.161 4.877-17.266-3.415-6.103-11.158-8.292-17.266-4.876a3.001 3.001 0 0 1-2.93-5.236c8.991-5.03 20.4-1.809 25.432 7.182 5.032 8.992 1.81 20.4-7.182 25.432a18.617 18.617 0 0 1-9.108 2.384Z"/><path d="M67.715 61.208a3 3 0 0 1-2.621-1.536L51.292 35.007a3 3 0 0 1 5.236-2.93L70.33 56.742a3 3 0 0 1-2.615 4.466Z"/><circle cx="50.301" cy="27.093" r="7.534"/></svg>