<svg xmlns="http://www.w3.org/2000/svg" viewBox="0 0 100 100"><path d="M36.688 70.766H17.291a3 3 0 0 1-3-3V48.362a3 3 0 0 1 6 0v16.404h16.397a3 3 0 0 1 0 6Z"/><path d="m48.301 41.008-28.89 28.88c-.59.58-1.35.88-2.12.88a3 3 0 0 1-2.12-5.12l29.22-29.23c.35.79.84 1.52 1.47 2.15l2.44 2.44ZM84.332 70.141H64.934a3 3 0 0 1 0-6h16.398V47.737a3 3 0 0 1 6 0V67.14a3 3 0 0 1-3 3Z"/><path d="M84.332 70.141a2.99 2.99 0 0 1-2.121-.879l-33.52-33.52a2.998 2.998 0 0 1-.88-2.121V8.425a3 3 0 0 1 6 0v23.953L86.453 65.02a2.999 2.999 0 0 1-2.121 5.121ZM13.991 94.575a2.998 2.998 0 0 1-2.12-.88l-5.684-5.683a2.999 2.999 0 1 1 4.242-4.242l3.562 3.562 9.023-9.023a3 3 0 0 1 4.243 4.242L16.113 93.696a3 3 0 0 1-2.122.879ZM79.092 94.575a3 3 0 0 1-2.122-5.121l12.6-12.6a3 3 0 0 1 4.244 4.242l-12.6 12.6a2.991 2.991 0 0 1-2.122.879Z"/><path d="M91.692 94.575a2.99 2.99 0 0 1-2.121-.88l-12.6-12.6a3 3 0 1 1 4.243-4.241l12.6 12.6a3 3 0 0 1-2.122 5.12Z"/></svg>