<svg width="32" height="32" viewBox="0 0 32 32" fill="none" xmlns="http://www.w3.org/2000/svg">
<rect width="32" height="32" fill="white"/>
<path d="M2.28634 29.7005C2.29015 29.7044 2.294 29.7084 2.29788 29.7122C2.5186 29.9329 2.81675 30.0288 3.10481 30L17 30C17.5523 30 18 29.5523 18 29C18 28.4477 17.5523 28 17 28L5.42339 28L29.7071 3.70697C30.0976 3.31637 30.0974 2.68321 29.7068 2.29276C29.3162 1.90231 28.6831 1.90243 28.2926 2.29303L4 26.595V15C4 14.4477 3.55229 14 3 14C2.44771 14 2 14.4477 2 15V29C2 29.2728 2.10923 29.5201 2.28634 29.7005Z" fill="black"/>
</svg>
