<svg width="32" height="32" viewBox="0 0 32 32" fill="none" xmlns="http://www.w3.org/2000/svg">
<rect width="32" height="32" fill="white"/>
<path d="M28.8951 30C29.1806 30.0285 29.476 29.9345 29.6961 29.7181C29.8836 29.5363 30.0001 29.2818 30.0001 29V15C30.0001 14.4477 29.5524 14 29.0001 14C28.4478 14 28.0001 14.4477 28.0001 15V26.5952L3.70724 2.29303C3.31679 1.90243 2.68363 1.90231 2.29303 2.29276C1.90243 2.68321 1.90231 3.31637 2.29276 3.70697L26.5765 28L15.0001 28C14.4478 28 14.0001 28.4477 14.0001 29C14.0001 29.5523 14.4478 30 15.0001 30L28.8951 30Z" fill="black"/>
</svg>
