<svg width="32" height="32" viewBox="0 0 32 32" fill="none" xmlns="http://www.w3.org/2000/svg">
<rect width="32" height="32" fill="white"/>
<path d="M16.7071 2.29289C16.3166 1.90237 15.6834 1.90237 15.2929 2.29289L2.29289 15.2929C1.90237 15.6834 1.90237 16.3166 2.29289 16.7071C2.68342 17.0976 3.31658 17.0976 3.70711 16.7071L16 4.41421L28.2929 16.7071C28.6834 17.0976 29.3166 17.0976 29.7071 16.7071C30.0976 16.3166 30.0976 15.6834 29.7071 15.2929L16.7071 2.29289Z" fill="black"/>
<path d="M29.7071 28.2929L16.7071 15.2929C16.3166 14.9024 15.6834 14.9024 15.2929 15.2929L2.29289 28.2929C1.90237 28.6834 1.90237 29.3166 2.29289 29.7071C2.68342 30.0976 3.31658 30.0976 3.70711 29.7071L16 17.4142L28.2929 29.7071C28.6834 30.0976 29.3166 30.0976 29.7071 29.7071C30.0976 29.3166 30.0976 28.6834 29.7071 28.2929Z" fill="black"/>
</svg>
