<svg width="32" height="32" viewBox="0 0 32 32" fill="none" xmlns="http://www.w3.org/2000/svg">
<rect width="32" height="32" fill="white"/>
<path d="M29.7071 3.70711L16.7071 16.7071C16.3166 17.0976 15.6834 17.0976 15.2929 16.7071L2.29289 3.70711C1.90237 3.31659 1.90237 2.68342 2.29289 2.2929C2.68342 1.90237 3.31658 1.90237 3.70711 2.2929L16 14.5858L28.2929 2.29289C28.6834 1.90237 29.3166 1.90237 29.7071 2.29289C30.0976 2.68342 30.0976 3.31658 29.7071 3.70711Z" fill="black"/>
<path d="M29.7071 16.7071L16.7071 29.7071C16.3166 30.0976 15.6834 30.0976 15.2929 29.7071L2.29289 16.7071C1.90237 16.3166 1.90237 15.6834 2.29289 15.2929C2.68342 14.9024 3.31658 14.9024 3.70711 15.2929L16 27.5858L28.2929 15.2929C28.6834 14.9024 29.3166 14.9024 29.7071 15.2929C30.0976 15.6834 30.0976 16.3166 29.7071 16.7071Z" fill="black"/>
</svg>
