<svg width="32" height="32" viewBox="0 0 32 32" fill="none" xmlns="http://www.w3.org/2000/svg">
<rect width="32" height="32" fill="white"/>
<path d="M3.70711 2.29289L16.7071 15.2929C17.0976 15.6834 17.0976 16.3166 16.7071 16.7071L3.70711 29.7071C3.31658 30.0976 2.68342 30.0976 2.29289 29.7071C1.90237 29.3166 1.90237 28.6834 2.29289 28.2929L14.5858 16L2.29289 3.70711C1.90237 3.31658 1.90237 2.68342 2.29289 2.29289C2.68342 1.90237 3.31658 1.90237 3.70711 2.29289Z" fill="black"/>
<path d="M16.7071 2.29289L29.7071 15.2929C30.0976 15.6834 30.0976 16.3166 29.7071 16.7071L16.7071 29.7071C16.3166 30.0976 15.6834 30.0976 15.2929 29.7071C14.9024 29.3166 14.9024 28.6834 15.2929 28.2929L27.5858 16L15.2929 3.70711C14.9024 3.31658 14.9024 2.68342 15.2929 2.29289C15.6834 1.90237 16.3166 1.90237 16.7071 2.29289Z" fill="black"/>
</svg>
