<svg width="32" height="32" viewBox="0 0 32 32" fill="none" xmlns="http://www.w3.org/2000/svg">
<rect width="32" height="32" fill="white"/>
<path d="M2.29289 15.2929C1.90237 15.6834 1.90237 16.3166 2.29289 16.7071L15.2929 29.7071C15.6834 30.0976 16.3166 30.0976 16.7071 29.7071C17.0976 29.3166 17.0976 28.6834 16.7071 28.2929L4.41421 16L16.7071 3.70711C17.0976 3.31658 17.0976 2.68342 16.7071 2.29289C16.3166 1.90237 15.6834 1.90237 15.2929 2.29289L2.29289 15.2929Z" fill="black"/>
<path d="M28.2929 2.29289L15.2929 15.2929C14.9024 15.6834 14.9024 16.3166 15.2929 16.7071L28.2929 29.7071C28.6834 30.0976 29.3166 30.0976 29.7071 29.7071C30.0976 29.3166 30.0976 28.6834 29.7071 28.2929L17.4142 16L29.7071 3.70711C30.0976 3.31658 30.0976 2.68342 29.7071 2.29289C29.3166 1.90237 28.6834 1.90237 28.2929 2.29289Z" fill="black"/>
</svg>
