<svg width="32" height="32" viewBox="0 0 32 32" fill="none" xmlns="http://www.w3.org/2000/svg">
<rect width="32" height="32" fill="white"/>
<path d="M29 16C29.5523 16 30 15.5523 30 15L30 3C30 2.44771 29.5523 2 29 2H17C16.4477 2 16 2.44772 16 3C16 3.55229 16.4477 4 17 4L26.581 4L4 26.5904V17C4 16.4477 3.55229 16 3 16C2.44771 16 2 16.4477 2 17V29C2 29.5523 2.44771 30 3 30L15 30C15.5523 30 16 29.5523 16 29C16 28.4477 15.5523 28 15 28H5.41887L28 5.40948L28 15C28 15.5523 28.4477 16 29 16Z" fill="black"/>
</svg>
