<svg width="32" height="32" viewBox="0 0 32 32" fill="none" xmlns="http://www.w3.org/2000/svg">
<rect width="32" height="32" fill="white"/>
<path d="M18.2501 12.8288C18.1966 13.1383 18.2893 13.4681 18.5283 13.7071C18.7248 13.9036 18.9828 14.0012 19.2403 14L19.2501 14L27.7354 14C28.2877 14 28.7354 13.5523 28.7354 13C28.7354 12.4478 28.2877 12 27.7354 12L21.6496 12L29.9425 3.70711C30.333 3.31658 30.3331 2.68342 29.9425 2.29289C29.552 1.90237 28.9188 1.90237 28.5283 2.29289L20.2501 10.5711V4.51476C20.2501 3.96247 19.8024 3.51476 19.2501 3.51476C18.6978 3.51476 18.2501 3.96247 18.2501 4.51476V12.8288Z" fill="black"/>
<path d="M21.4155 20.0001L27.4855 20.0001C28.0377 20.0001 28.4855 19.5524 28.4855 19.0001C28.4855 18.4478 28.0378 18.0001 27.4855 18.0001L19.0104 18.0001C18.7509 17.9974 18.4905 18.0951 18.2926 18.2932C18.0923 18.4936 17.9948 18.758 18.0002 19.0206L18.0002 27.4853C18.0002 28.0376 18.4479 28.4853 19.0002 28.4853C19.5525 28.4853 20.0002 28.0376 20.0002 27.4853L20.0002 21.4132L28.2967 29.7038C28.6874 30.0942 29.3205 30.094 29.7109 29.7033C30.1013 29.3126 30.1011 28.6795 29.7104 28.2891L21.4155 20.0001Z" fill="black"/>
<path d="M10.5883 20.2426L4.51833 20.2426C3.96605 20.2426 3.51833 19.7949 3.51833 19.2426C3.51833 18.6903 3.96605 18.2426 4.51833 18.2426L12.9934 18.2426C13.2529 18.2399 13.5133 18.3376 13.7112 18.5357C13.9115 18.7362 14.009 19.0005 14.0036 19.2631L14.0036 27.7279C14.0036 28.2802 13.5559 28.7279 13.0036 28.7279C12.4513 28.7279 12.0036 28.2802 12.0036 27.7279L12.0036 21.6558L3.7071 29.9463C3.31643 30.3367 2.68327 30.3365 2.29288 29.9458C1.9025 29.5552 1.90273 28.922 2.29339 28.5316L10.5883 20.2426Z" fill="black"/>
<path d="M11.9927 10.5711L3.7145 2.29289C3.32397 1.90237 2.69081 1.90237 2.30028 2.29289C1.90976 2.68342 1.90976 3.31658 2.30028 3.70711L10.5932 12L4.50743 12C3.95514 12 3.50743 12.4478 3.50743 13C3.50743 13.5523 3.95514 14 4.50743 14L12.9927 14C12.996 14 12.9992 14 13.0025 14C13.26 14.0012 13.518 13.9036 13.7145 13.7071C13.9535 13.4681 14.0462 13.1383 13.9927 12.8288V4.51476C13.9927 3.96247 13.545 3.51476 12.9927 3.51476C12.4404 3.51476 11.9927 3.96247 11.9927 4.51476V10.5711Z" fill="black"/>
</svg>
