<svg width="32" height="32" viewBox="0 0 32 32" fill="none" xmlns="http://www.w3.org/2000/svg">
<rect width="32" height="32" fill="white"/>
<path d="M2.29289 10.7071C1.90237 10.3166 1.90237 9.68342 2.29289 9.29289L8.29289 3.29289C8.68342 2.90237 9.31658 2.90237 9.7071 3.29289C10.0976 3.68342 10.0976 4.31658 9.70711 4.70711L5.41421 9H20C25.5228 9 30 13.4772 30 19C30 24.5228 25.5228 29 20 29H4C3.44772 29 3 28.5523 3 28C3 27.4477 3.44772 27 4 27H20C24.4183 27 28 23.4183 28 19C28 14.5817 24.4183 11 20 11H5.41421L9.70711 15.2929C10.0976 15.6834 10.0976 16.3166 9.70711 16.7071C9.31658 17.0976 8.68342 17.0976 8.29289 16.7071L2.29289 10.7071Z" fill="black"/>
</svg>
