<svg width="32" height="32" viewBox="0 0 32 32" fill="none" xmlns="http://www.w3.org/2000/svg">
<rect width="32" height="32" fill="white"/>
<path d="M23.7071 16.7071L29.7071 10.7071C30.0976 10.3166 30.0976 9.68342 29.7071 9.29289L23.7071 3.29289C23.3166 2.90237 22.6834 2.90237 22.2929 3.29289C21.9024 3.68342 21.9024 4.31658 22.2929 4.70711L26.5858 9H12C6.47715 9 2 13.4772 2 19C2 24.5228 6.47715 29 12 29H28C28.5523 29 29 28.5523 29 28C29 27.4477 28.5523 27 28 27H12C7.58172 27 4 23.4183 4 19C4 14.5817 7.58172 11 12 11H26.5858L22.2929 15.2929C21.9024 15.6834 21.9024 16.3166 22.2929 16.7071C22.6834 17.0976 23.3166 17.0976 23.7071 16.7071Z" fill="black"/>
</svg>
