<svg width="32" height="32" viewBox="0 0 32 32" fill="none" xmlns="http://www.w3.org/2000/svg">
<rect width="32" height="32" fill="white"/>
<path d="M11.0066 2.13781C10.5304 1.85803 9.9176 2.01724 9.63782 2.49341C9.35804 2.96958 9.51724 3.5824 9.99341 3.86219L11.0066 2.13781ZM15.5 5.93784L16.3355 6.48727C16.4861 6.25836 16.5361 5.97771 16.4739 5.71089C16.4117 5.44407 16.2428 5.21444 16.0066 5.07565L15.5 5.93784ZM11.6645 9.95055C11.361 10.412 11.4891 11.0321 11.9506 11.3355C12.412 11.639 13.0321 11.5109 13.3355 11.0494L11.6645 9.95055ZM23.9199 8.19892C23.5118 7.8268 22.8793 7.85597 22.5071 8.26407C22.135 8.67217 22.1642 9.30467 22.5723 9.67678L23.9199 8.19892ZM9.99341 3.86219L14.9934 6.80002L16.0066 5.07565L11.0066 2.13781L9.99341 3.86219ZM14.6645 5.3884L11.6645 9.95055L13.3355 11.0494L16.3355 6.48727L14.6645 5.3884ZM26 17.4379C26 23.2368 21.299 27.9379 15.5 27.9379V29.9379C22.4036 29.9379 28 24.3414 28 17.4379H26ZM15.5 27.9379C9.70101 27.9379 5 23.2368 5 17.4379H3C3 24.3414 8.59644 29.9379 15.5 29.9379V27.9379ZM5 17.4379C5 11.6389 9.70101 6.93784 15.5 6.93784V4.93784C8.59644 4.93784 3 10.5343 3 17.4379H5ZM22.5723 9.67678C24.6798 11.5985 26 14.3633 26 17.4379H28C28 13.7776 26.4255 10.4836 23.9199 8.19892L22.5723 9.67678Z" fill="black"/>
</svg>
