<svg width="32" height="32" viewBox="0 0 32 32" fill="none" xmlns="http://www.w3.org/2000/svg">
<rect width="32" height="32" fill="white"/>
<path d="M16 16C17.6569 16 19 14.6569 19 13C19 11.3431 17.6569 10 16 10C14.3431 10 13 11.3431 13 13C13 14.6569 14.3431 16 16 16ZM16 16V29M22.0001 19.071C23.1415 17.4462 23.8115 15.4661 23.8115 13.3296C23.8115 11.1931 23.1415 9.21302 22.0001 7.58814M25.8115 22.6589C27.6996 20.0326 28.8115 16.8109 28.8115 13.3295C28.8115 9.84801 27.6996 6.62628 25.8115 4M9.81143 19.071C8.67003 17.4462 8 15.4661 8 13.3296C8 11.1931 8.67003 9.21302 9.81143 7.58814M6 22.6589C4.11192 20.0326 3 16.8109 3 13.3295C3 9.84801 4.11192 6.62628 6 4" stroke="black" stroke-width="2" stroke-linecap="round"/>
</svg>
