<svg width="32" height="32" viewBox="0 0 32 32" fill="none" xmlns="http://www.w3.org/2000/svg">
<rect width="32" height="32" fill="white"/>
<path d="M20 26C20.5523 26 21 25.5523 21 25C21 24.4477 20.5523 24 20 24V26ZM11 24C10.4477 24 10 24.4477 10 25C10 25.5523 10.4477 26 11 26V24ZM20 3V4V3ZM11 3V2V3ZM7 25H8H7ZM7 7H6H7ZM20 29V28V29ZM11 29V30V29ZM24 25L25 25L24 25ZM24 7.00001L23 7.00001L24 7.00001ZM20 2L11 2V4L20 4V2ZM8 25L8 7H6L6 25H8ZM20 28H11V30H20V28ZM25 25L25 7.00001L23 7.00001L23 25L25 25ZM20 30C22.7614 30 25 27.7614 25 25L23 25C23 26.6569 21.6568 28 20 28V30ZM20 4C21.6569 4 23 5.34315 23 7.00001L25 7.00001C25 4.23858 22.7614 2 20 2V4ZM11 2C8.23857 2 6 4.23858 6 7H8C8 5.34315 9.34314 4 11 4V2ZM6 25C6 27.7614 8.23858 30 11 30V28C9.34315 28 8 26.6569 8 25H6ZM11 26H20V24H11V26Z" fill="black"/>
</svg>
