<svg width="32" height="32" viewBox="0 0 32 32" fill="none" xmlns="http://www.w3.org/2000/svg">
<rect width="32" height="32" fill="white"/>
<path d="M7 12C7 12.5523 7.44772 13 8 13C8.55228 13 9 12.5523 9 12H7ZM9 10.0001C9 9.44784 8.55228 9.00012 8 9.00012C7.44772 9.00012 7 9.44784 7 10.0001H9ZM3 9H4H3ZM3 23H4H3ZM24 27V26V27ZM7 27V28H7L7 27ZM28 9.00004H27H28ZM28 23H29H28ZM24 5.00004L24 6.00004H24V5.00004ZM7 5L7 4H7V5ZM23 23C23.5523 23 24 22.5523 24 22C24 21.4477 23.5523 21 23 21L23 23ZM7.99999 21.0001C7.44771 21.0001 7 21.4478 7 22.0001C7.00001 22.5524 7.44773 23.0001 8.00001 23.0001L7.99999 21.0001ZM7 17.9999C7 18.5522 7.44772 18.9999 8 18.9999C8.55228 18.9999 9 18.5522 9 17.9999H7ZM9 16C9 15.4477 8.55228 15 8 15C7.44772 15 7 15.4477 7 16H9ZM12 12.0001C12 12.5524 12.4477 13.0001 13 13.0001C13.5523 13.0001 14 12.5524 14 12.0001H12ZM14 10.0002C14 9.44796 13.5523 9.00025 13 9.00025C12.4477 9.00025 12 9.44796 12 10.0002H14ZM12 18C12 18.5523 12.4477 19 13 19C13.5523 19 14 18.5523 14 18H12ZM14 16.0001C14 15.4478 13.5523 15.0001 13 15.0001C12.4477 15.0001 12 15.4478 12 16.0001H14ZM17 12C17 12.5523 17.4477 13 18 13C18.5523 13 19 12.5523 19 12H17ZM19 10.0001C19 9.44784 18.5523 9.00012 18 9.00012C17.4477 9.00012 17 9.44784 17 10.0001H19ZM17 17.9999C17 18.5522 17.4477 18.9999 18 18.9999C18.5523 18.9999 19 18.5522 19 17.9999H17ZM19 16C19 15.4477 18.5523 15 18 15C17.4477 15 17 15.4477 17 16H19ZM22 12.0001C22 12.5524 22.4477 13.0001 23 13.0001C23.5523 13.0001 24 12.5524 24 12.0001H22ZM24 10.0002C24 9.44796 23.5523 9.00025 23 9.00025C22.4477 9.00025 22 9.44796 22 10.0002H24ZM22 18C22 18.5523 22.4477 19 23 19C23.5523 19 24 18.5523 24 18H22ZM24 16.0001C24 15.4478 23.5523 15.0001 23 15.0001C22.4477 15.0001 22 15.4478 22 16.0001H24ZM2 9L2 23H4L4 9H2ZM24 26L7 26L7 28L24 28V26ZM27 9.00004V23H29V9.00004H27ZM29 9.00004C29 6.23861 26.7614 4.00004 24 4.00004V6.00004C25.6569 6.00004 27 7.34318 27 9.00004H29ZM4 9C4 7.34315 5.34315 6 7 6V4C4.23858 4 2 6.23858 2 9H4ZM2 23C2 25.7614 4.23857 28 7 28V26C5.34314 26 4 24.6569 4 23H2ZM24 28C26.7614 28 29 25.7614 29 23H27C27 24.6569 25.6569 26 24 26V28ZM23 21L7.99999 21.0001L8.00001 23.0001L23 23L23 21ZM24 4.00004L7 4L7 6L24 6.00004L24 4.00004ZM9 12V10.0001H7V12H9ZM9 17.9999V16H7V17.9999H9ZM14 12.0001V10.0002H12V12.0001H14ZM14 18V16.0001H12V18H14ZM19 12V10.0001H17V12H19ZM19 17.9999V16H17V17.9999H19ZM24 12.0001V10.0002H22V12.0001H24ZM24 18V16.0001H22V18H24Z" fill="black"/>
</svg>
