<svg width="32" height="32" viewBox="0 0 32 32" fill="none" xmlns="http://www.w3.org/2000/svg">
<rect width="32" height="32" fill="white"/>
<path d="M5 29L5 28H5V29ZM20.8462 26C21.3984 26 21.8462 25.5523 21.8462 25C21.8462 24.4477 21.3984 24 20.8462 24V26ZM5 25V26V25ZM28 10H27H28ZM5 10H6H5ZM26 8V9H26L26 8ZM7 8.00002L7 9.00002L7 8.00002ZM22.8462 15V16V15ZM20.8462 27H21.8462H20.8462ZM20.8462 17H19.8462H20.8462ZM28 29V28V29ZM22.8462 29V30V29ZM30 27L29 27L30 27ZM30 17L29 17V17L30 17ZM22 28L5 28L5 30L22 30V28ZM20.8462 24H5V26H20.8462V24ZM4 27C4 26.4477 4.44771 26 5 26V24C3.34314 24 2 25.3431 2 27H4ZM5 28C4.44772 28 4 27.5523 4 27H2C2 28.6569 3.34315 30 5 30V28ZM27 10V15H29V10H27ZM4 10L4 25H6L6 10H4ZM26 7L7 7.00002L7 9.00002L26 9V7ZM29 10C29 8.34314 27.6568 7 26 7L26 9C26.5523 9 27 9.44772 27 10L29 10ZM6 10C6 9.44773 6.44772 9.00002 7 9.00002L7 7.00002C5.34315 7.00002 4 8.34317 4 10H6ZM28 14L22.8462 14V16L28 16V14ZM21.8462 27V17H19.8462V27H21.8462ZM28 28H22.8462V30H28V28ZM31 27L31 17L29 17L29 27L31 27ZM28 30C29.6568 30 31 28.6569 31 27L29 27C29 27.5523 28.5523 28 28 28V30ZM28 16C28.5523 16 29 16.4477 29 17L31 17C31 15.3431 29.6569 14 28 14V16ZM22.8462 14C21.1893 14 19.8462 15.3431 19.8462 17H21.8462C21.8462 16.4477 22.2939 16 22.8462 16V14ZM19.8462 27C19.8462 28.6569 21.1893 30 22.8462 30V28C22.2939 28 21.8462 27.5523 21.8462 27H19.8462Z" fill="black"/>
</svg>
