<svg width="32" height="32" viewBox="0 0 32 32" fill="none" xmlns="http://www.w3.org/2000/svg">
<rect width="32" height="32" fill="white"/>
<path d="M28 29V28V29ZM5 29V30V29ZM5 25V26V25ZM3 27H4H3ZM28 10H27H28ZM5 10H6H5ZM26 8V9H26L26 8ZM7 8.00002L7 9.00002L7 8.00002ZM28 28H5V30H28V28ZM28 24H5V26H28V24ZM31 27C31 25.3431 29.6569 24 28 24V26C28.5523 26 29 26.4477 29 27H31ZM4 27C4 26.4477 4.44772 26 5 26V24C3.34315 24 2 25.3431 2 27H4ZM5 28C4.44772 28 4 27.5523 4 27H2C2 28.6569 3.34315 30 5 30V28ZM28 30C29.6569 30 31 28.6569 31 27H29C29 27.5523 28.5523 28 28 28V30ZM27 10V25H29V10H27ZM4 10L4 25H6L6 10H4ZM26 7L7 7.00002L7 9.00002L26 9V7ZM29 10C29 8.34314 27.6568 7 26 7L26 9C26.5523 9 27 9.44772 27 10L29 10ZM6 10C6 9.44773 6.44772 9.00002 7 9.00002L7 7.00002C5.34315 7.00002 4 8.34317 4 10H6Z" fill="black"/>
</svg>
