<svg width="32" height="32" viewBox="0 0 32 32" fill="none" xmlns="http://www.w3.org/2000/svg">
<rect width="32" height="32" fill="white"/>
<path d="M23 29V30H23L23 29ZM8 29V30H8L8 29ZM25 5H26H25ZM25 27H24H25ZM6 5.00003H5H6ZM6 27H7H6ZM23 3L23 4H23L23 3ZM8 3.00003L8 4.00003L8 3.00003ZM19 9C19.5523 9 20 8.55228 20 8C20 7.44771 19.5523 7 19 7V9ZM12 7C11.4477 7 11 7.44771 11 8C11 8.55228 11.4477 9 12 9V7ZM19 14C19.5523 14 20 13.5523 20 13C20 12.4477 19.5523 12 19 12V14ZM12 12C11.4477 12 11 12.4477 11 13C11 13.5523 11.4477 14 12 14V12ZM16 24C16.5523 24 17 23.5523 17 23C17 22.4477 16.5523 22 16 22V24ZM15 22C14.4477 22 14 22.4477 14 23C14 23.5523 14.4477 24 15 24V22ZM23 28L8 28L8 30L23 30V28ZM24 5L24 27H26L26 5L24 5ZM5 5.00003L5 27H7L7 5.00003H5ZM23 2L7.99999 2.00003L8 4.00003L23 4L23 2ZM26 5C26 3.34314 24.6568 1.99999 23 2L23 4C23.5523 4 24 4.44771 24 5L26 5ZM7 5.00003C7 4.44774 7.44771 4.00003 8 4.00003L7.99999 2.00003C6.34314 2.00003 5 3.34317 5 5.00003H7ZM8 28C7.44772 28 7 27.5523 7 27H5C5 28.6568 6.34314 30 8 30V28ZM23 30C24.6568 30 26 28.6568 26 27H24C24 27.5523 23.5523 28 23 28L23 30ZM12 9H19V7H12V9ZM12 14H19V12H12V14ZM16 22H15V24H16V22Z" fill="black"/>
</svg>
