<svg width="32" height="32" viewBox="0 0 32 32" fill="none" xmlns="http://www.w3.org/2000/svg">
<rect width="32" height="32" fill="white"/>
<path d="M27 29V28V29ZM5 29V30V29ZM29 18H28H29ZM29 27H30H29ZM3 18H2H3ZM3 27H4H3ZM27 16V15V16ZM26 15C25.4477 15 25 15.4477 25 16C25 16.5523 25.4477 17 26 17V15ZM11 17C11.5523 17 12 16.5523 12 16C12 15.4477 11.5523 15 11 15L11 17ZM5 16L5 17H5L5 16ZM10 25.5C10.5523 25.5 11 25.0523 11 24.5C11 23.9477 10.5523 23.5 10 23.5V25.5ZM7 23.5C6.44772 23.5 6 23.9477 6 24.5C6 25.0523 6.44772 25.5 7 25.5V23.5ZM27 28H5V30H27V28ZM28 18V27H30V18H28ZM2 18L2 27H4L4 18H2ZM27 15H26V17H27V15ZM11 15L4.99999 15L5 17L11 17L11 15ZM30 18C30 16.3431 28.6569 15 27 15V17C27.5523 17 28 17.4477 28 18H30ZM4 18C4 17.4477 4.44772 17 5 17L4.99999 15C3.34314 15 2 16.3432 2 18H4ZM5 28C4.44771 28 4 27.5523 4 27H2C2 28.6569 3.34315 30 5 30V28ZM27 30C28.6569 30 30 28.6569 30 27H28C28 27.5523 27.5523 28 27 28V30ZM10 23.5H7V25.5H10V23.5ZM25 15.5C25 19.0899 22.0899 22 18.5 22V24C23.1944 24 27 20.1944 27 15.5H25ZM18.5 22C14.9102 22 12 19.0899 12 15.5H10C10 20.1944 13.8056 24 18.5 24V22ZM12 15.5C12 11.9101 14.9102 9 18.5 9V7C13.8056 7 10 10.8056 10 15.5H12ZM18.5 9C22.0899 9 25 11.9101 25 15.5H27C27 10.8056 23.1944 7 18.5 7V9Z" fill="black"/>
</svg>
