<svg width="32" height="32" viewBox="0 0 32 32" fill="none" xmlns="http://www.w3.org/2000/svg">
<rect width="32" height="32" fill="white"/>
<path d="M7 24C7 24.5523 7.44772 25 8 25C8.55228 25 9 24.5523 9 24H7ZM9 23C9 22.4477 8.55228 22 8 22C7.44772 22 7 22.4477 7 23H9ZM25 18V19V18ZM7 18V17V18ZM3 25H2H3ZM3 22H4H3ZM25 29V30V29ZM7 29V28V29ZM29 25L28 25L29 25ZM29 22L30 22L29 22ZM10.3269 18.3846C10.5393 18.8944 11.1248 19.1355 11.6346 18.9231C12.1444 18.7107 12.3855 18.1252 12.1731 17.6154L10.3269 18.3846ZM5.92307 2.61538C5.71066 2.10558 5.12518 1.86451 4.61538 2.07692C4.10558 2.28934 3.8645 2.87481 4.07692 3.38462L5.92307 2.61538ZM20.5824 17.6024C20.3629 18.1091 20.5956 18.698 21.1024 18.9176C21.6091 19.1371 22.198 18.9044 22.4176 18.3976L20.5824 17.6024ZM28.9176 3.39761C29.1371 2.89086 28.9044 2.30204 28.3976 2.08244C27.8909 1.86285 27.302 2.09564 27.0824 2.60239L28.9176 3.39761ZM25 17L7 17V19L25 19V17ZM4 25L4 22H2L2 25H4ZM25 28L7 28V30L25 30V28ZM30 25L30 22L28 22L28 25L30 25ZM25 30C27.7614 30 30 27.7614 30 25L28 25C28 26.6569 26.6568 28 25 28V30ZM25 19C26.6568 19 28 20.3432 28 22L30 22C30 19.2386 27.7614 17 25 17V19ZM7 17C4.23858 17 2 19.2386 2 22H4C4 20.3431 5.34315 19 7 19V17ZM2 25C2 27.7614 4.23858 30 7 30V28C5.34315 28 4 26.6569 4 25H2ZM12.1731 17.6154L5.92307 2.61538L4.07692 3.38462L10.3269 18.3846L12.1731 17.6154ZM22.4176 18.3976L28.9176 3.39761L27.0824 2.60239L20.5824 17.6024L22.4176 18.3976ZM9 24V23H7V24H9Z" fill="black"/>
</svg>
