<svg width="32" height="32" viewBox="0 0 32 32" fill="none" xmlns="http://www.w3.org/2000/svg">
<rect width="32" height="32" fill="white"/>
<path d="M27 29V28V29ZM5 29V30V29ZM29 4L30 4L29 4ZM29 27H28H29ZM3 4.00003H2H3ZM3 27H4H3ZM27 2L27 3L27 2ZM5 2.00003L5 1.00003L5 2.00003ZM29 12C29.5523 12 30 11.5523 30 11C30 10.4477 29.5523 10 29 10V12ZM3 10C2.44772 10 2 10.4477 2 11C2 11.5523 2.44772 12 3 12V10ZM29 21C29.5523 21 30 20.5523 30 20C30 19.4477 29.5523 19 29 19V21ZM3 19C2.44772 19 2 19.4477 2 20C2 20.5523 2.44772 21 3 21V19ZM24 7C24 7.55228 24.4477 8 25 8C25.5523 8 26 7.55228 26 7H24ZM26 6C26 5.44772 25.5523 5 25 5C24.4477 5 24 5.44772 24 6H26ZM24 16C24 16.5523 24.4477 17 25 17C25.5523 17 26 16.5523 26 16H24ZM26 15C26 14.4477 25.5523 14 25 14C24.4477 14 24 14.4477 24 15H26ZM24 25C24 25.5523 24.4477 26 25 26C25.5523 26 26 25.5523 26 25H24ZM26 24C26 23.4477 25.5523 23 25 23C24.4477 23 24 23.4477 24 24H26ZM27 28L5 28V30L27 30V28ZM28 4L28 27H30L30 4L28 4ZM2 4.00003L2 27H4L4 4.00003H2ZM27 1L5 1.00003L5 3.00003L27 3L27 1ZM30 4C30 2.34314 28.6569 0.999996 27 1L27 3C27.5523 3 28 3.44771 28 4L30 4ZM4 4.00003C4 3.44775 4.44772 3.00003 5 3.00003L5 1.00003C3.34315 1.00003 2 2.34318 2 4.00003H4ZM5 28C4.44772 28 4 27.5523 4 27H2C2 28.6568 3.34315 30 5 30V28ZM27 30C28.6569 30 30 28.6568 30 27H28C28 27.5523 27.5523 28 27 28V30ZM3 12H29V10H3V12ZM3 21H29V19H3V21ZM26 7V6H24V7H26ZM26 16V15H24V16H26ZM26 25V24H24V25H26Z" fill="black"/>
</svg>
