<svg width="32" height="32" viewBox="0 0 32 32" fill="none" xmlns="http://www.w3.org/2000/svg">
<rect width="32" height="32" fill="white"/>
<path d="M25 26V25V26ZM7 26V27V26ZM29 7L30 7V7H29ZM29 22H28H29ZM3 7.00002H2H3ZM3 22H4H3ZM25 3L25 4L25 3ZM7 3.00002L7 2.00002L7 3.00002ZM29 22C29.5523 22 30 21.5523 30 21C30 20.4477 29.5523 20 29 20V22ZM3 20C2.44772 20 2 20.4477 2 21C2 21.5523 2.44772 22 3 22L3 20ZM6.83205 26.5547C7.1384 26.0952 7.01423 25.4743 6.5547 25.1679C6.09517 24.8616 5.4743 24.9858 5.16795 25.4453L6.83205 26.5547ZM3.16795 28.4453C2.8616 28.9048 2.98577 29.5257 3.4453 29.832C3.90483 30.1384 4.5257 30.0142 4.83205 29.5547L3.16795 28.4453ZM26.8321 25.4453C26.5257 24.9858 25.9048 24.8616 25.4453 25.1679C24.9858 25.4743 24.8616 26.0952 25.1679 26.5547L26.8321 25.4453ZM27.1679 29.5547C27.4743 30.0142 28.0952 30.1384 28.5547 29.832C29.0142 29.5257 29.1384 28.9048 28.8321 28.4453L27.1679 29.5547ZM25 25H7V27H25V25ZM28 7L28 22H30L30 7L28 7ZM2 7.00002L2 22H4L4 7.00002H2ZM25 2L7 2.00002L7 4.00002L25 4L25 2ZM30 7C30 4.23857 27.7614 2 25 2L25 4C26.6569 4 28 5.34314 28 7H30ZM4 7.00002C4 5.34317 5.34315 4.00002 7 4.00002L7 2.00002C4.23858 2.00002 2 4.2386 2 7.00002H4ZM7 25C5.34314 25 4 23.6569 4 22H2C2 24.7614 4.23858 27 7 27V25ZM25 27C27.7614 27 30 24.7614 30 22H28C28 23.6568 26.6569 25 25 25V27ZM29 20L3 20L3 22L29 22V20ZM5.16795 25.4453L3.16795 28.4453L4.83205 29.5547L6.83205 26.5547L5.16795 25.4453ZM25.1679 26.5547L27.1679 29.5547L28.8321 28.4453L26.8321 25.4453L25.1679 26.5547Z" fill="black"/>
</svg>
