<svg width="32" height="32" viewBox="0 0 32 32" fill="none" xmlns="http://www.w3.org/2000/svg">
<rect width="32" height="32" fill="white"/>
<path d="M21.6387 18.8114C20.0138 17.67 18.0337 17 15.8972 17C13.7607 17 11.7806 17.67 10.1558 18.8114M25.2265 13C22.6003 11.1119 19.3785 10 15.8971 10C12.4156 10 9.1939 11.1119 6.56763 13M28.7945 7.17499C25.1708 4.54853 20.7149 3 15.8973 3C11.0796 3 6.62368 4.54853 3 7.17499M18.8972 26C18.8972 27.6569 17.5541 29 15.8972 29C14.2404 29 12.8972 27.6569 12.8972 26C12.8972 24.3431 14.2404 23 15.8972 23C17.5541 23 18.8972 24.3431 18.8972 26Z" stroke="black" stroke-width="2" stroke-linecap="round"/>
</svg>
