<svg width="16" height="16" viewBox="0 0 16 16" fill="none" xmlns="http://www.w3.org/2000/svg">
<rect width="16" height="16" fill="white"/>
<path fill-rule="evenodd" clip-rule="evenodd" d="M2.8944 1.55279C2.64741 1.05881 2.04674 0.858589 1.55276 1.10558C1.05878 1.35257 0.858558 1.95324 1.10555 2.44722L2.07881 4.39374L3.61356 8.67506C3.89849 9.46989 4.65189 10.0002 5.49625 10.0002H11.8091C12.7222 10.0002 13.5194 9.38171 13.7463 8.49725L14.5161 5.4971C14.8408 4.23182 13.8852 3.00001 12.5789 3.00001H3.61801L2.8944 1.55279ZM5.49625 8.00016L4.42076 5.00001H12.5789L11.8091 8.00016H5.49625Z" fill="black"/>
<path d="M7 12.5C7 13.3284 6.32843 14 5.5 14C4.67157 14 4 13.3284 4 12.5C4 11.6716 4.67157 11 5.5 11C6.32843 11 7 11.6716 7 12.5Z" fill="black"/>
<path d="M13 12.5C13 13.3284 12.3284 14 11.5 14C10.6716 14 10 13.3284 10 12.5C10 11.6716 10.6716 11 11.5 11C12.3284 11 13 11.6716 13 12.5Z" fill="black"/>
</svg>
