<svg width="16" height="16" viewBox="0 0 16 16" fill="none" xmlns="http://www.w3.org/2000/svg">
<rect width="16" height="16" fill="white"/>
<path fill-rule="evenodd" clip-rule="evenodd" d="M15 12C15 13.6568 13.6569 15 12 15L4 15C2.34315 15 1 13.6569 1 12V4C1 2.34314 2.34315 0.999996 4.00001 1L12 1.00002C13.6569 1.00002 15 2.34317 15 4.00002V12ZM13 11V12C13 12.5523 12.5523 13 12 13L4 13C3.44772 13 3 12.5523 3 12L3 4C3 3.44771 3.44772 3 4 3L12 3.00002C12.5523 3.00002 13 3.44773 13 4.00002V5L10 5C8.34315 5 7 6.34314 7 8C7 9.65685 8.34315 11 10 11L13 11ZM13 9V7L10 7C9.44771 7 9 7.44771 9 8C9 8.55228 9.44771 9 10 9L13 9Z" fill="black"/>
</svg>
