<svg width="16" height="16" viewBox="0 0 16 16" fill="none" xmlns="http://www.w3.org/2000/svg">
<rect width="16" height="16" fill="white"/>
<path d="M8.40001 2.8C10.1334 4.10001 11 6.05448 11 8C11 9.94551 10.1334 11.9 8.40001 13.2C7.95818 13.5314 7.86864 14.1582 8.20001 14.6C8.53138 15.0418 9.15818 15.1314 9.60001 14.8C11.8667 13.1 13 10.537 13 8C13 5.46304 11.8667 2.89999 9.60001 1.2C9.15818 0.868627 8.53138 0.95817 8.20001 1.4C7.86864 1.84183 7.95818 2.46863 8.40001 2.8Z" fill="black"/>
<path d="M7.00001 8.00001C7.00001 6.73705 6.59004 5.59522 5.44531 4.83206C4.98578 4.52571 4.86161 3.90484 5.16796 3.44531C5.47431 2.98579 6.09518 2.86161 6.55471 3.16796C8.40997 4.40481 9.00001 6.27765 9.00001 8.00001C9.00001 9.72238 8.40997 11.5952 6.55471 12.8321C6.09518 13.1384 5.47431 13.0142 5.16796 12.5547C4.86161 12.0952 4.98578 11.4743 5.44531 11.168C6.59004 10.4048 7.00001 9.26298 7.00001 8.00001Z" fill="black"/>
<path d="M3.00001 8.00001C3.00001 7.61051 2.80997 7.17352 2.33175 6.74394C1.92089 6.37487 1.88701 5.74261 2.25608 5.33175C2.62515 4.92089 3.25741 4.88701 3.66827 5.25608C4.45026 5.95853 5.00001 6.90101 5.00001 8.00001C5.00001 9.09901 4.45026 10.0415 3.66827 10.7439C3.25741 11.113 2.62515 11.0791 2.25608 10.6683C1.88701 10.2574 1.92089 9.62515 2.33175 9.25608C2.80997 8.8265 3.00001 8.3895 3.00001 8.00001Z" fill="black"/>
</svg>
