<svg xmlns="http://www.w3.org/2000/svg" viewBox="0 0 100 100"><path d="M50 94.456c-21.575 0-39.128-17.553-39.128-39.127 0-21.575 17.553-39.128 39.128-39.128S89.128 33.754 89.128 55.33c0 21.574-17.553 39.127-39.128 39.127Zm0-72.255c-18.267 0-33.128 14.861-33.128 33.128S31.733 88.456 50 88.456s33.128-14.86 33.128-33.127S68.267 22.201 50 22.201ZM57.025 11.56h-14.05a3 3 0 1 1 0-6h14.05a3 3 0 1 1 0 6Z"/><path d="M50 22.201a3 3 0 0 1-3-3V8.56a3 3 0 1 1 6 0V19.2a3 3 0 0 1-3 3ZM81.639 26.03a2.99 2.99 0 0 1-2.121-.88l-4.559-4.558a2.999 2.999 0 1 1 4.242-4.242l4.559 4.558a2.999 2.999 0 0 1-2.121 5.121Z"/><path d="M72.802 30.308a2.999 2.999 0 0 1-2.121-5.121l6.557-6.558a2.999 2.999 0 1 1 4.242 4.242l-6.557 6.558a2.99 2.99 0 0 1-2.121.879ZM49.66 34.599a2 2 0 0 1-2-2v-4.766a2 2 0 0 1 4 0v4.766a2 2 0 0 1-2 2ZM50.34 84.825a2 2 0 0 1-2-2V78.06a2 2 0 0 1 4 0v4.765a2 2 0 0 1-2 2ZM27.27 57.669h-4.766a2 2 0 0 1 0-4h4.766a2 2 0 0 1 0 4ZM77.496 56.99H72.73a2 2 0 0 1 0-4h4.766a2 2 0 0 1 0 4ZM33.687 41.497a1.994 1.994 0 0 1-1.415-.586l-3.37-3.37a2 2 0 1 1 2.828-2.828l3.37 3.37a2 2 0 0 1-1.413 3.414ZM69.684 76.531a1.994 1.994 0 0 1-1.414-.586l-3.37-3.37a2 2 0 1 1 2.828-2.828l3.37 3.37a2 2 0 0 1-1.414 3.414ZM30.798 77.012a2 2 0 0 1-1.414-3.414l3.37-3.37a2 2 0 1 1 2.828 2.829l-3.37 3.369c-.39.39-.902.586-1.414.586ZM65.832 41.016a2 2 0 0 1-1.414-3.414l3.37-3.37a2 2 0 1 1 2.828 2.828l-3.37 3.37c-.39.39-.902.586-1.414.586ZM56.019 64.984a2.99 2.99 0 0 1-2.122-.879l-6.336-6.336a3 3 0 0 1-.88-2.122V40.495a3 3 0 1 1 6 0v13.91l5.459 5.458a2.999 2.999 0 0 1-2.121 5.121Z"/></svg>