<svg xmlns="http://www.w3.org/2000/svg" viewBox="0 0 100 100"><path d="M88.454 90.245H11.546a5.984 5.984 0 0 1-5.978-5.977V26.473c0-6.023 4.9-10.923 10.923-10.923H83.51c6.022 0 10.923 4.9 10.923 10.923v57.795a5.984 5.984 0 0 1-5.978 5.977ZM16.491 21.55a4.928 4.928 0 0 0-4.923 4.923v57.795l76.888-.023-.024-57.772a4.928 4.928 0 0 0-4.923-4.923H16.49Z"/><path d="M91.432 37.177H8.568a3 3 0 1 1 0-6h82.864a3 3 0 1 1 0 6ZM37.143 27.345a3 3 0 0 1-3-3v-11.59a3 3 0 1 1 6 0v11.59a3 3 0 0 1-3 3ZM62.857 27.345a3 3 0 0 1-3-3v-11.59a3 3 0 1 1 6 0v11.59a3 3 0 0 1-3 3ZM34.06 80.52a5.671 5.671 0 0 1-5.665-5.666V66.09c0-.858-.414-1.671-1.106-2.176l-1.772-1.294a3 3 0 0 1 0-4.847l1.772-1.292a2.701 2.701 0 0 0 1.106-2.175v-8.766a5.671 5.671 0 0 1 5.665-5.665 3 3 0 0 1 .335 5.981v8.45c0 2.194-.84 4.3-2.303 5.891a8.728 8.728 0 0 1 2.303 5.893v8.45a3 3 0 0 1-.335 5.98ZM65.94 80.52a3 3 0 0 1-.335-5.982v-8.45c0-2.194.84-4.3 2.304-5.892a8.725 8.725 0 0 1-2.304-5.891v-8.45a3 3 0 0 1 .335-5.981 5.671 5.671 0 0 1 5.665 5.665v8.766c0 .857.414 1.67 1.107 2.176l1.77 1.291a3 3 0 0 1 .001 4.847l-1.77 1.293a2.701 2.701 0 0 0-1.108 2.177v8.765a5.671 5.671 0 0 1-5.665 5.666Z"/></svg>