<svg width="16" height="16" viewBox="0 0 16 16" fill="none" xmlns="http://www.w3.org/2000/svg">
<rect width="16" height="16" fill="white"/>
<path d="M2.85427 9.02096L2.14943 8.31159L2.14717 8.31385L2.85427 9.02096ZM5.4459 6.44585L6.15075 7.15522L6.15301 7.15296L5.4459 6.44585ZM7.50004 8.5L8.20715 9.2071L7.50004 8.5ZM5.02377 9.56206C4.63325 9.95258 4.63325 10.5857 5.02377 10.9763C5.4143 11.3668 6.04746 11.3668 6.43798 10.9763L5.02377 9.56206ZM8.31383 2.14716C7.92331 2.53768 7.92331 3.17085 8.31383 3.56137C8.70435 3.9519 9.33752 3.9519 9.72804 3.56138L8.31383 2.14716ZM13.1457 2.85427L13.8528 2.14716V2.14716L13.1457 2.85427ZM13.1457 6.97904L12.4386 6.27193L12.4386 6.27193L13.1457 6.97904ZM6.97906 13.1457L7.68617 13.8528L7.68617 13.8528L6.97906 13.1457ZM2.85427 13.1457L2.14717 13.8528H2.14717L2.85427 13.1457ZM3.55911 9.73033L6.15074 7.15522L4.74106 5.73649L2.14943 8.3116L3.55911 9.73033ZM6.15301 7.15296C6.362 6.94397 6.63302 6.96581 6.79294 7.12573L8.20715 5.71152C7.21756 4.72193 5.67931 4.79823 4.7388 5.73875L6.15301 7.15296ZM6.79294 7.12573C6.97717 7.30996 6.97717 7.60866 6.79294 7.79289L8.20715 9.2071C9.17243 8.24182 9.17243 6.6768 8.20715 5.71152L6.79294 7.12573ZM6.43798 10.9763L8.20715 9.2071L6.79294 7.79289L5.02377 9.56206L6.43798 10.9763ZM9.72804 3.56138C10.4765 2.81287 11.6901 2.81287 12.4386 3.56138L13.8528 2.14716C12.3233 0.617614 9.84339 0.617614 8.31383 2.14716L9.72804 3.56138ZM12.4386 3.56138C13.1871 4.30988 13.1871 5.52343 12.4386 6.27193L13.8528 7.68615C15.3824 6.1566 15.3824 3.67671 13.8528 2.14716L12.4386 3.56138ZM12.4386 6.27193L6.27195 12.4386L7.68617 13.8528L13.8528 7.68614L12.4386 6.27193ZM6.27196 12.4386C5.52345 13.1871 4.30988 13.1871 3.56138 12.4386L2.14717 13.8528C3.67672 15.3824 6.15661 15.3824 7.68617 13.8528L6.27196 12.4386ZM3.56138 12.4386C2.81287 11.6901 2.81287 10.4766 3.56138 9.72807L2.14717 8.31385C0.617611 9.8434 0.617611 12.3233 2.14717 13.8528L3.56138 12.4386Z" fill="black"/>
</svg>
