<svg xmlns="http://www.w3.org/2000/svg" viewBox="0 0 100 100"><path d="M85.037 11.07H15.16c-5.36 0-9.72 4.36-9.72 9.71v58.44c0 5.35 4.36 9.71 9.72 9.71h69.877c5.36 0 9.72-4.36 9.72-9.71V20.78c0-5.35-4.36-9.71-9.72-9.71ZM11.44 20.78c0-2.05 1.67-3.71 3.72-3.71h69.877c2.05 0 3.72 1.66 3.72 3.71v58.44c0 2.05-1.67 3.71-3.72 3.71H15.16c-2.05 0-3.72-1.66-3.72-3.71V20.78Z"/><path d="M91.757 31.57H8.462a3 3 0 1 1 0-6h83.295a3 3 0 1 1 0 6ZM70.457 24.255a3.022 3.022 0 0 1-1.15-.23 3.13 3.13 0 0 1-.51-.28c-.17-.11-.32-.23-.46-.37-.56-.56-.88-1.33-.88-2.12s.32-1.569.88-2.12c.14-.14.29-.27.45-.38.17-.109.34-.2.52-.27.18-.08.37-.14.56-.17a2.998 2.998 0 0 1 3.59 2.94c0 .79-.32 1.56-.88 2.12-.56.561-1.33.88-2.12.88ZM81.467 24.255c-.79 0-1.56-.319-2.12-.88-.56-.56-.88-1.33-.88-2.12s.32-1.569.88-2.12c1.12-1.12 3.13-1.12 4.24 0 .56.551.88 1.33.88 2.12 0 .19-.02.391-.06.58-.03.19-.09.38-.17.561a2.837 2.837 0 0 1-.65.98c-.56.56-1.33.88-2.12.88ZM59.607 24.255c-.78 0-1.56-.319-2.12-.88-.55-.56-.87-1.33-.87-2.12s.32-1.569.87-2.12c.7-.699 1.74-1.02 2.71-.82.19.03.38.09.56.17a2.82 2.82 0 0 1 .98.65c.55.551.87 1.33.87 2.12s-.32 1.56-.87 2.12c-.56.561-1.34.88-2.13.88Z"/><path d="M7.302 29.6v54.79h84.996V29.6H7.302ZM49.3 75.51c-11.13 0-22.13-6.56-31.08-18.51 8.95-11.95 19.95-18.52 31.08-18.52 11.13 0 22.13 6.57 31.08 18.52-8.95 11.95-19.95 18.51-31.08 18.51Z"/><path d="M84.48 55.83C74.61 42.07 62.11 34.48 49.3 34.48c-12.82 0-25.31 7.59-35.18 21.35L13.28 57l.84 1.16c9.87 13.77 22.36 21.35 35.18 21.35 12.81 0 25.31-7.58 35.18-21.35l.84-1.16-.84-1.17ZM49.3 75.51c-11.13 0-22.13-6.56-31.08-18.51 8.95-11.95 19.95-18.52 31.08-18.52 11.13 0 22.13 6.57 31.08 18.52-8.95 11.95-19.95 18.51-31.08 18.51Z"/><circle cx="49.299" cy="56.997" r="15.161"/></svg>