<svg width="16" height="16" viewBox="0 0 16 16" fill="none" xmlns="http://www.w3.org/2000/svg">
<g clip-path="url(#clip0)">
<rect width="16" height="16" fill="white"/>
<path fill-rule="evenodd" clip-rule="evenodd" d="M6 13C6 13.3566 6.18994 13.6863 6.4985 13.8652C6.80705 14.044 7.18751 14.045 7.49699 13.8678L12.497 11.0041C12.8019 10.8295 12.9928 10.5077 12.9998 10.1564C13.0068 9.80514 12.829 9.47593 12.5314 9.28923L8.7533 6.91934L12.6069 3.97659C12.8885 3.76154 13.0353 3.41352 12.9928 3.06175C12.9502 2.70998 12.7247 2.40699 12.3999 2.26528L7.39994 0.0834599C7.09079 -0.051444 6.73446 -0.0214032 6.45225 0.163356C6.17004 0.348115 6 0.662693 6 1V5.37578L3.57265 3.6802C3.11989 3.36393 2.49646 3.47458 2.1802 3.92735C1.86393 4.38011 1.97458 5.00353 2.42734 5.3198L5.11056 7.1941L2.51709 8.62433C2.03347 8.89103 1.85762 9.49928 2.12432 9.98291C2.39103 10.4665 2.99928 10.6424 3.4829 10.3757L6 8.98756V13ZM10.0423 3.41859L8 4.97813V2.52742L10.0423 3.41859ZM10.056 10.0974L8 8.80773V11.2749L10.056 10.0974Z" fill="black"/>
</g>
<defs>
<clipPath id="clip0">
<rect width="16" height="16" fill="white"/>
</clipPath>
</defs>
</svg>
