<svg width="16" height="16" viewBox="0 0 16 16" fill="none" xmlns="http://www.w3.org/2000/svg">
<rect width="16" height="16" fill="white"/>
<path d="M3.80301 2.59596C3.29397 3.28186 3 4.1095 3 5C3 5.8905 3.29397 6.71814 3.80301 7.40404C4.13215 7.84753 4.03945 8.47388 3.59596 8.80302C3.15247 9.13216 2.52613 9.03945 2.19699 8.59596C1.44581 7.58381 1 6.34224 1 5C1 3.65776 1.44581 2.4162 2.19699 1.40404C2.52613 0.960549 3.15247 0.867848 3.59596 1.19699C4.03945 1.52613 4.13215 2.15247 3.80301 2.59596Z" fill="black"/>
<path d="M12.197 2.59596C12.706 3.28186 13 4.1095 13 5C13 5.8905 12.706 6.71814 12.197 7.40404C11.8678 7.84753 11.9605 8.47388 12.404 8.80302C12.8475 9.13216 13.4739 9.03945 13.803 8.59596C14.5542 7.58381 15 6.34224 15 5C15 3.65776 14.5542 2.4162 13.803 1.40404C13.4739 0.960549 12.8475 0.867848 12.404 1.19699C11.9605 1.52613 11.8678 2.15247 12.197 2.59596Z" fill="black"/>
<path fill-rule="evenodd" clip-rule="evenodd" d="M9 7.82929C10.1652 7.41746 11 6.30622 11 5C11 3.34315 9.65685 2 8 2C6.34315 2 5 3.34315 5 5C5 6.30622 5.83481 7.41746 7 7.82929L7 14C7 14.5523 7.44772 15 8 15C8.55229 15 9 14.5523 9 14V7.82929ZM8 4C7.44772 4 7 4.44772 7 5C7 5.55228 7.44772 6 8 6C8.55228 6 9 5.55228 9 5C9 4.44772 8.55228 4 8 4Z" fill="black"/>
</svg>
