<svg width="16" height="16" viewBox="0 0 16 16" fill="none" xmlns="http://www.w3.org/2000/svg">
<rect width="16" height="16" fill="white"/>
<path d="M9.9864 2.1644C10.0772 1.61963 9.70917 1.1044 9.1644 1.01361C8.61963 0.922811 8.1044 1.29083 8.01361 1.8356L6.01361 13.8356C5.92281 14.3804 6.29083 14.8956 6.8356 14.9864C7.38037 15.0772 7.8956 14.7092 7.9864 14.1644L9.9864 2.1644Z" fill="black"/>
<path d="M4.70711 11.7071C4.31658 12.0976 3.68342 12.0976 3.29289 11.7071L1 9.41421C0.218953 8.63317 0.218953 7.36683 1 6.58579L3.29289 4.29289C3.68342 3.90237 4.31658 3.90237 4.70711 4.29289C5.09763 4.68342 5.09763 5.31658 4.70711 5.70711L2.41422 8L4.70711 10.2929C5.09763 10.6834 5.09763 11.3166 4.70711 11.7071Z" fill="black"/>
<path d="M11.2929 11.7071C11.6834 12.0976 12.3166 12.0976 12.7071 11.7071L15 9.41422C15.781 8.63317 15.781 7.36684 15 6.58579L12.7071 4.2929C12.3166 3.90237 11.6834 3.90237 11.2929 4.2929C10.9024 4.68342 10.9024 5.31659 11.2929 5.70711L13.5858 8L11.2929 10.2929C10.9024 10.6834 10.9024 11.3166 11.2929 11.7071Z" fill="black"/>
</svg>
