<svg width="16" height="16" viewBox="0 0 16 16" fill="none" xmlns="http://www.w3.org/2000/svg">
<rect width="16" height="16" fill="white"/>
<path d="M5 6C5.55228 6 6 5.55229 6 5C6 4.44772 5.55228 4 5 4C4.44771 4 4 4.44772 4 5C4 5.55229 4.44771 6 5 6Z" fill="black"/>
<path d="M5 9C5.55228 9 6 8.55229 6 8C6 7.44772 5.55228 7 5 7C4.44771 7 4 7.44772 4 8C4 8.55229 4.44771 9 5 9Z" fill="black"/>
<path d="M8 9C8.55228 9 9 8.55229 9 8C9 7.44772 8.55228 7 8 7C7.44771 7 7 7.44772 7 8C7 8.55229 7.44771 9 8 9Z" fill="black"/>
<path d="M12 8C12 8.55229 11.5523 9 11 9C10.4477 9 10 8.55229 10 8C10 7.44772 10.4477 7 11 7C11.5523 7 12 7.44772 12 8Z" fill="black"/>
<path d="M9 5C9 5.55229 8.55228 6 8 6C7.44771 6 7 5.55229 7 5C7 4.44772 7.44771 4 8 4C8.55228 4 9 4.44772 9 5Z" fill="black"/>
<path d="M11 6C11.5523 6 12 5.55229 12 5C12 4.44772 11.5523 4 11 4C10.4477 4 10 4.44772 10 5C10 5.55229 10.4477 6 11 6Z" fill="black"/>
<path d="M5 10C4.44772 10 4 10.4477 4 11C4 11.5523 4.44771 12 5 12L11 12C11.5523 12 12 11.5523 12 11C12 10.4477 11.5523 10 11 10L5 10Z" fill="black"/>
<path fill-rule="evenodd" clip-rule="evenodd" d="M15 3.00002V13C15 14.1046 14.1046 15 13 15L3 15C1.89543 15 1 14.1046 1 13V3C1 1.89543 1.89543 1 3 1L13 1.00002C14.1046 1.00002 15 1.89545 15 3.00002ZM13 13V3.00002L3 3L3 13L13 13Z" fill="black"/>
</svg>
