<svg width="16" height="16" viewBox="0 0 16 16" fill="none" xmlns="http://www.w3.org/2000/svg">
<rect width="16" height="16" fill="white"/>
<path fill-rule="evenodd" clip-rule="evenodd" d="M11 12H13C14.1046 12 15 11.1046 15 10V3C15 1.89543 14.1046 1 13 1L3 1.00001C1.89543 1.00001 1 1.89544 1 3.00001V10C1 11.1046 1.89543 12 3 12H5V13C4.44771 13 4 13.4477 4 14C4 14.5523 4.44771 15 5 15H11C11.5523 15 12 14.5523 12 14C12 13.4477 11.5523 13 11 13V12ZM13 3V10L3 10L3 3.00001L13 3ZM9 12H7V13H9V12Z" fill="black"/>
</svg>
