<svg width="16" height="16" viewBox="0 0 16 16" fill="none" xmlns="http://www.w3.org/2000/svg">
<rect width="16" height="16" fill="white"/>
<path d="M5 6C5 5.44772 5.44771 5 6 5H10C10.5523 5 11 5.44772 11 6C11 6.55229 10.5523 7 10 7H6C5.44771 7 5 6.55229 5 6Z" fill="black"/>
<path d="M8 11C8.55228 11 9 10.5523 9 10C9 9.44772 8.55228 9 8 9C7.44771 9 7 9.44772 7 10C7 10.5523 7.44771 11 8 11Z" fill="black"/>
<path fill-rule="evenodd" clip-rule="evenodd" d="M14 4V12C14 13.6569 12.6569 15 11 15L5 15C3.34315 15 2 13.6569 2 12V4.00001C2 2.34316 3.34314 1.00002 5 1.00001L11 1C12.6568 1 14 2.34315 14 4ZM12 12V4C12 3.44772 11.5523 3 11 3L5 3.00001C4.44771 3.00001 4 3.44773 4 4.00001L4 12C4 12.5523 4.44772 13 5 13L11 13C11.5523 13 12 12.5523 12 12Z" fill="black"/>
</svg>
