<svg width="16" height="16" viewBox="0 0 16 16" fill="none" xmlns="http://www.w3.org/2000/svg">
<rect width="16" height="16" fill="white"/>
<path fill-rule="evenodd" clip-rule="evenodd" d="M2.60607 1.08086C3.1137 0.8633 3.70158 1.09845 3.91914 1.60608L6.65939 8H9.3406L12.0809 1.60608C12.2984 1.09845 12.8863 0.8633 13.3939 1.08086C13.9015 1.29841 14.1367 1.88629 13.9191 2.39392L11.5165 8H13C14.1046 8 15 8.89544 15 10L15 13C15 14.1046 14.1045 15 13 15L3 15C1.89543 15 1 14.1046 1 13V10C1 8.89543 1.89543 8 3 8H4.48345L2.08085 2.39392C1.86329 1.88629 2.09844 1.29841 2.60607 1.08086ZM9.97696 10C9.99203 10.0003 10.0071 10.0003 10.0221 10H13L13 13H3L3 10H5.97789C5.99291 10.0003 6.00796 10.0003 6.02304 10L9.97696 10Z" fill="black"/>
</svg>
