<svg width="16" height="16" viewBox="0 0 16 16" fill="none" xmlns="http://www.w3.org/2000/svg">
<rect width="16" height="16" fill="white"/>
<path d="M3.5 7C3.5 6.44771 3.94771 6 4.5 6H7.5C7.68221 6 7.85304 6.04873 8.00016 6.13388C8.47168 5.86155 9.07627 6.01679 9.35749 6.4855L10 7.55635L10.6425 6.4855C10.9267 6.01192 11.5409 5.85836 12.0145 6.14251C12.4881 6.42665 12.6416 7.04091 12.3575 7.51449L10.8575 10.0145C10.6768 10.3157 10.3513 10.5 10 10.5C9.64874 10.5 9.32323 10.3157 9.1425 10.0145L7.88718 7.92229C7.76809 7.97234 7.63728 8 7.5 8H7V9.5C7 10.0523 6.55228 10.5 6 10.5C5.44771 10.5 5 10.0523 5 9.5V8H4.5C3.94771 8 3.5 7.55228 3.5 7Z" fill="black"/>
<path fill-rule="evenodd" clip-rule="evenodd" d="M10 15H6.00003C3.23861 15 1.00003 12.7614 1.00003 10V6C1.00003 3.23857 3.23861 0.999996 6.00003 0.999996H10C12.7615 0.999996 15 3.23858 15 6.00001L15 10C15 12.7614 12.7614 15 10 15ZM6.00003 13H10C11.6569 13 13 11.6569 13 10L13 6C13 4.34315 11.6569 3 10 3L6.00003 3C4.34318 3 3.00003 4.34314 3.00003 6L3.00003 10C3.00003 11.6569 4.34318 13 6.00003 13Z" fill="black"/>
</svg>
