<svg width="16" height="16" viewBox="0 0 16 16" fill="none" xmlns="http://www.w3.org/2000/svg">
<rect width="16" height="16" fill="white"/>
<path fill-rule="evenodd" clip-rule="evenodd" d="M13.576 12.9158C14.3998 12.6685 15 11.9043 15 11V3C15 1.89543 14.1046 1 13 1L3 1.00001C1.89543 1.00001 1 1.89544 1 3.00001V11C1 11.9044 1.60023 12.6685 2.42405 12.9158L2.10557 13.5528C1.85858 14.0468 2.0588 14.6474 2.55278 14.8944C3.04676 15.1414 3.64743 14.9412 3.89442 14.4472L4.61803 13L11.382 13L12.1056 14.4472C12.3526 14.9412 12.9532 15.1414 13.4472 14.8944C13.9412 14.6474 14.1414 14.0468 13.8944 13.5528L13.576 12.9158ZM13 11V3L3 3.00001L3 11H3.97983C3.99376 10.9997 4.00773 10.9997 4.02171 11L11.9783 11C11.9923 10.9997 12.0062 10.9997 12.0201 11H13Z" fill="black"/>
</svg>
