<svg width="16" height="16" viewBox="0 0 16 16" fill="none" xmlns="http://www.w3.org/2000/svg">
<rect width="16" height="16" fill="white"/>
<path d="M14 10H15H14ZM14 13.9192H13H14ZM4.99999 10H3.99999H4.99999ZM4.99999 12H5.99999H5.99999H4.99999ZM5.99999 9.00002L5.99999 10L5.99999 9.00002ZM13 9.00001L13 10H13L13 9.00001ZM12.2979 13.331L11.5546 14V14L12.2979 13.331ZM13.1283 14.2537L12.385 14.9227L12.3851 14.9227L13.1283 14.2537ZM5.99999 13V12V13ZM11.5546 13V14V13ZM1.99998 3L2.99998 3V3L1.99998 3ZM1.99997 6.79288L0.999969 6.79288L1.99997 6.79288ZM11 3.00001L9.99996 3V3L11 3.00001ZM10.9999 4.99999L11.9999 4.99999L10.9999 4.99999ZM9.99996 2V1V2ZM2.99998 2L2.99998 1L2.99998 2ZM3.70707 6.29288L4.41418 6.99998L4.41418 6.99998L3.70707 6.29288ZM2.85352 7.14643L2.14641 6.43933L2.14641 6.43933L2.85352 7.14643ZM9.99994 5.99998V4.99998V5.99998ZM4.41418 5.99998V6.99998V5.99998ZM13 10V13.9192H15V10H13ZM3.99999 10L3.99999 12H5.99999V10H3.99999ZM5.99999 10L13 10L13 8.00001L5.99999 8.00002L5.99999 10ZM11.5546 14L12.385 14.9227L13.8716 13.5848L13.0412 12.6621L11.5546 14ZM5.99999 14H11.5546V12H5.99999V14ZM13.0412 12.6621C12.6619 12.2406 12.1216 12 11.5546 12V14L11.5546 14L13.0412 12.6621ZM5.99999 10H5.99999L5.99999 8.00002C4.89542 8.00003 3.99999 8.89546 3.99999 10H5.99999ZM15 10C15 8.89544 14.1046 8 13 8.00001L13 10H13H15ZM13 13.9192C13 13.461 13.5651 13.2442 13.8716 13.5848L12.3851 14.9227C13.3047 15.9445 15 15.294 15 13.9192H13ZM3.99999 12C3.99999 13.1046 4.89542 14 5.99999 14V12H3.99999ZM0.999979 3L0.999969 6.79288L2.99997 6.79288L2.99998 3L0.999979 3ZM9.99996 3L9.99994 4.99998L11.9999 4.99999L12 3.00002L9.99996 3ZM9.99996 1L2.99998 1L2.99998 3L9.99996 3V1ZM2.99996 5.58577L2.14641 6.43933L3.56063 7.85354L4.41418 6.99998L2.99996 5.58577ZM9.99994 4.99998L4.41418 4.99998V6.99998L9.99994 6.99998V4.99998ZM4.41418 6.99998L4.41418 6.99998V4.99998C3.88375 4.99998 3.37504 5.21069 2.99996 5.58577L4.41418 6.99998ZM12 3.00002C12 1.89544 11.1045 1 9.99996 1V3V3L12 3.00002ZM2.99998 3L2.99998 3L2.99998 1C1.89541 1 0.999981 1.89543 0.999979 3L2.99998 3ZM0.999969 6.79288C0.999967 8.12924 2.61569 8.7985 3.56064 7.85353L2.14641 6.43933C2.4614 6.12434 2.99997 6.34743 2.99997 6.79288L0.999969 6.79288ZM9.99994 4.99998V4.99998V6.99998C11.1045 6.99998 11.9999 6.10456 11.9999 4.99999L9.99994 4.99998Z" fill="black"/>
</svg>
