<svg width="16" height="16" viewBox="0 0 16 16" fill="none" xmlns="http://www.w3.org/2000/svg">
<rect width="16" height="16" fill="white"/>
<path d="M2 3L1 3L2 3ZM2 13.382H3H2ZM14 3.00002H13H14ZM14 12H15H14ZM13 2.00002L13 3.00002L13 2.00002ZM3 2L3 3H3L3 2ZM5.78885 13.1056L5.34164 12.2111H5.34164L5.78885 13.1056ZM3.44721 14.2764L3 13.382H3L3.44721 14.2764ZM13 13V12V13ZM6.23607 13V14V13ZM6.00001 6C5.44773 6 5.00001 6.44771 5.00001 7C5.00001 7.55228 5.44773 8 6.00001 8V6ZM10 8C10.5523 8 11 7.55228 11 7C11 6.44771 10.5523 6 10 6V8ZM1 3L1 13.382H3L3 3L1 3ZM13 3.00002V12H15V3.00002H13ZM13 1.00002L3 1L3 3L13 3.00002L13 1.00002ZM5.34164 12.2111L3 13.382L3.89443 15.1708L6.23607 14L5.34164 12.2111ZM13 12H6.23607V14H13V12ZM6.23607 14V12C5.92558 12 5.61935 12.0723 5.34164 12.2111L6.23607 14ZM15 3.00002C15 1.89545 14.1046 1.00002 13 1.00002L13 3.00002V3.00002H15ZM3 3H3L3.00001 1C1.89543 0.999996 1 1.89543 1 3L3 3ZM1 13.382C1 14.8687 2.56462 15.8357 3.89443 15.1708L3 13.382H3H1ZM13 12V12V14C14.1046 14 15 13.1046 15 12H13ZM6.00001 8H10V6H6.00001V8Z" fill="black"/>
</svg>
