<svg width="16" height="16" viewBox="0 0 16 16" fill="none" xmlns="http://www.w3.org/2000/svg">
<rect width="16" height="16" fill="white"/>
<path d="M2 3L1 3L2 3ZM2 13H1H2ZM14 3.00002H13H14ZM14 11H15H14ZM13 2.00002L13 3.00002L13 2.00002ZM3 2L3 3H3L3 2ZM5.73333 12.2L5.13333 11.4H5.13333L5.73333 12.2ZM3.6 13.8L3 13L3 13L3.6 13.8ZM13 12V11V12ZM6.33333 12V13V12ZM6.00001 6C5.44773 6 5.00001 6.44771 5.00001 7C5.00001 7.55228 5.44773 8 6.00001 8V6ZM10 8C10.5523 8 11 7.55228 11 7C11 6.44771 10.5523 6 10 6V8ZM9.00001 5C9.00001 4.44771 8.5523 4 8.00001 4C7.44773 4 7.00001 4.44771 7.00001 5H9.00001ZM7.00001 9C7.00001 9.55228 7.44773 10 8.00001 10C8.5523 10 9.00001 9.55228 9.00001 9H7.00001ZM1 3L1 13H3L3 3L1 3ZM13 3.00002V11H15V3.00002H13ZM13 1.00002L3 1L3 3L13 3.00002L13 1.00002ZM5.13333 11.4L3 13L4.2 14.6L6.33333 13L5.13333 11.4ZM13 11H6.33333V13H13V11ZM6.33333 13V11C5.90059 11 5.47952 11.1404 5.13333 11.4L6.33333 13ZM15 3.00002C15 1.89545 14.1046 1.00002 13 1.00002L13 3.00002V3.00002H15ZM3 3H3L3.00001 1C1.89543 0.999996 1 1.89543 1 3L3 3ZM1 13C1 14.6481 2.88153 15.5889 4.2 14.6L3 13L3 13H1ZM13 11V11V13C14.1046 13 15 12.1046 15 11H13ZM6.00001 8H10V6H6.00001V8ZM7.00001 5V9H9.00001V5H7.00001Z" fill="black"/>
</svg>
