<svg width="16" height="16" viewBox="0 0 16 16" fill="none" xmlns="http://www.w3.org/2000/svg">
<rect width="16" height="16" fill="white"/>
<path d="M7.98077 14V13V14ZM14 7.96967H15H14ZM14 14V15C14.3266 15 14.6327 14.8405 14.8198 14.5727C15.0068 14.3049 15.0513 13.9627 14.939 13.656L14 14ZM13 11.2707L12.1686 10.7151C11.9911 10.9806 11.9512 11.3149 12.061 11.6147L13 11.2707ZM6 7C5.44772 7 5 7.44772 5 8C5 8.55228 5.44772 9 6 9V7ZM10 9C10.5523 9 11 8.55228 11 8C11 7.44772 10.5523 7 10 7V9ZM15 7.96967C15 4.11565 11.8612 1 8 1V3C10.7662 3 13 5.22977 13 7.96967H15ZM8 1C4.13879 1 1 4.11566 1 7.96967H3C3 5.22977 5.23379 3 8 3V1ZM1 7.96967C1 11.8063 4.10228 15 7.98077 15V13C5.23186 13 3 10.7269 3 7.96967H1ZM13.8314 11.8263C14.5696 10.7217 15 9.39438 15 7.96967H13C13 8.98603 12.6941 9.92865 12.1686 10.7151L13.8314 11.8263ZM14.939 13.656L13.939 10.9267L12.061 11.6147L13.061 14.344L14.939 13.656ZM7.98077 15H14V13H7.98077V15ZM6 9H10V7H6V9Z" fill="black"/>
</svg>
