<svg width="16" height="16" viewBox="0 0 16 16" fill="none" xmlns="http://www.w3.org/2000/svg">
<rect width="16" height="16" fill="white"/>
<path fill-rule="evenodd" clip-rule="evenodd" d="M3 1C1.89543 1 1 1.89543 1 3V8C1 11.866 4.13401 15 8 15C11.866 15 15 11.866 15 8V3C15 1.89543 14.1046 1 13 1H11C9.89543 1 9 1.89543 9 3V8C9 8.32502 8.92162 8.5023 8.85545 8.60155C8.78511 8.70706 8.68416 8.78989 8.55279 8.85557C8.4175 8.92322 8.27011 8.96202 8.1481 8.98236C8.03962 9.00044 7.96038 9.00044 7.8519 8.98236C7.72989 8.96202 7.5825 8.92322 7.44721 8.85557C7.31584 8.78989 7.21489 8.70706 7.14455 8.60155C7.07838 8.5023 7 8.32502 7 8V3C7 1.89543 6.10457 1 5 1H3ZM13 5V3H11V5H13ZM11 7V8C11 8.67498 10.8284 9.24771 10.5196 9.71095C10.2149 10.1679 9.81584 10.4601 9.44721 10.6444C9.0825 10.8268 8.72989 10.913 8.4769 10.9551C8.34803 10.9766 8.23846 10.9877 8.15718 10.9936C8.08616 10.9986 8.01532 11.0013 7.94422 10.999C7.91778 10.9981 7.88362 10.9965 7.84282 10.9936C7.76154 10.9877 7.65197 10.9766 7.5231 10.9551C7.27011 10.913 6.9175 10.8268 6.55279 10.6444C6.18416 10.4601 5.78511 10.1679 5.48045 9.71095C5.17162 9.24771 5 8.67498 5 8V7H3V8C3 10.7614 5.23858 13 8 13C10.7614 13 13 10.7614 13 8V7H11ZM3 5H5V3H3V5Z" fill="black"/>
</svg>
