<svg width="16" height="16" viewBox="0 0 16 16" fill="none" xmlns="http://www.w3.org/2000/svg">
<rect width="16" height="16" fill="white"/>
<path d="M10.7682 6.64021C11.1218 6.21593 11.0644 5.58537 10.6402 5.2318C10.2159 4.87824 9.58533 4.93556 9.23177 5.35984L7.38239 7.57909L6.65252 6.95057C6.23401 6.59019 5.6026 6.63731 5.24222 7.05581C4.88184 7.47431 4.92896 8.10572 5.34746 8.4661L6.84746 9.75779C7.05056 9.93268 7.31536 10.0187 7.58246 9.99662C7.84957 9.97451 8.09663 9.84611 8.26821 9.64021L10.7682 6.64021Z" fill="black"/>
<path fill-rule="evenodd" clip-rule="evenodd" d="M4 1C2.89543 1 2 1.89543 2 3V7.88679C2 10.2615 3.39807 12.4987 5.24182 13.9974C6.84653 15.3018 9.15347 15.3018 10.7582 13.9974C12.6019 12.4987 14 10.2615 14 7.88679V3C14 1.89543 13.1046 1 12 1H4ZM4 3L12 3V7.88679C12 9.48666 11.0261 11.2022 9.49666 12.4454C8.62688 13.1524 7.37311 13.1524 6.50334 12.4454C4.97391 11.2022 4 9.48666 4 7.88679V3Z" fill="black"/>
</svg>
