<svg width="16" height="16" viewBox="0 0 16 16" fill="none" xmlns="http://www.w3.org/2000/svg">
<rect width="16" height="16" fill="white"/>
<path d="M1 3C1 1.89543 1.89543 1 3 1H5C5.55229 1 6 1.44772 6 2C6 2.55228 5.55229 3 5 3H3V5C3 5.55228 2.55228 6 2 6C1.44772 6 1 5.55228 1 5V3Z" fill="black"/>
<path d="M3 15C1.89543 15 1 14.1046 1 13V11C1 10.4477 1.44772 10 2 10C2.55228 10 3 10.4477 3 11V13H5C5.55229 13 6 13.4477 6 14C6 14.5523 5.55229 15 5 15H3Z" fill="black"/>
<path d="M15 13C15 14.1046 14.1046 15 13 15H11C10.4477 15 10 14.5523 10 14C10 13.4477 10.4477 13 11 13H13V11C13 10.4477 13.4477 10 14 10C14.5523 10 15 10.4477 15 11V13Z" fill="black"/>
<path d="M15 3C15 1.89543 14.1046 1 13 1H11C10.4477 1 10 1.44772 10 2C10 2.55228 10.4477 3 11 3H13V5C13 5.55228 13.4477 6 14 6C14.5523 6 15 5.55228 15 5V3Z" fill="black"/>
<path d="M6.15379 4.6924C6.70608 4.6924 7.15379 5.14011 7.15379 5.6924L7.1538 7.07701C7.1538 7.6293 6.70608 8.07701 6.1538 8.07701C5.60151 8.07701 5.1538 7.6293 5.1538 7.07702L5.15379 5.6924C5.15379 5.14011 5.60151 4.6924 6.15379 4.6924Z" fill="black"/>
<path d="M9.8461 4.6924C10.3984 4.6924 10.8461 5.14011 10.8461 5.6924L10.8461 7.07701C10.8461 7.6293 10.3984 8.07701 9.8461 8.07701C9.29382 8.07701 8.8461 7.6293 8.8461 7.07702L8.8461 5.6924C8.8461 5.14011 9.29382 4.6924 9.8461 4.6924Z" fill="black"/>
<path d="M4.40001 10.8C5.52918 11.6469 6.7345 12.125 8 12.125C9.2655 12.125 10.4708 11.6469 11.6 10.8C12.0418 10.4686 12.1314 9.84184 11.8 9.40001C11.4686 8.95818 10.8418 8.86864 10.4 9.20001C9.52918 9.85313 8.73451 10.125 8.00001 10.125C7.2655 10.125 6.47083 9.85312 5.6 9.2C5.15817 8.86864 4.53137 8.95818 4.2 9.40001C3.86863 9.84184 3.95818 10.4686 4.40001 10.8Z" fill="black"/>
</svg>
