<svg width="32" height="32" viewBox="0 0 32 32" fill="none" xmlns="http://www.w3.org/2000/svg">
<rect width="32" height="32" fill="white"/>
<path d="M16 15C16.5523 15 17 15.4477 17 16V19H20C20.5523 19 21 19.4477 21 20C21 20.5523 20.5523 21 20 21H17V24C17 24.5523 16.5523 25 16 25C15.4477 25 15 24.5523 15 24V21H12C11.4477 21 11 20.5523 11 20C11 19.4477 11.4477 19 12 19H15V16C15 15.4477 15.4477 15 16 15Z" fill="black"/>
<path fill-rule="evenodd" clip-rule="evenodd" d="M13 2C12.7348 2 12.4805 2.10536 12.2929 2.29289L5.29293 9.29289C5.10539 9.48043 5.00003 9.73478 5.00003 10L5 25C4.99999 27.7614 7.23857 30 10 30H22C24.7615 30 27 27.7614 27 25L27 7C27 4.23858 24.7615 2 22 2H13ZM13 10V4.41425L7.41425 10H13ZM14 12H7.00003L7 25C7 26.6569 8.34314 28 10 28H22C23.6569 28 25 26.6569 25 25L25 7C25 5.34315 23.6569 4 22 4H15V11C15 11.5523 14.5523 12 14 12Z" fill="black"/>
</svg>
