<svg width="32" height="32" viewBox="0 0 32 32" fill="none" xmlns="http://www.w3.org/2000/svg">
<rect width="32" height="32" fill="white"/>
<path fill-rule="evenodd" clip-rule="evenodd" d="M18 2C20.419 2 22.4367 3.71777 22.9 6.00003L25 6.00003C27.7614 6.00004 30 8.23861 30 11V25C30 27.7614 27.7614 30 25 30H7C4.23857 30 2 27.7614 2 25V11C2 8.23857 4.23858 6 7.00001 6L9.10002 6C9.56328 3.71776 11.581 2 14 2H18ZM18 4C19.3062 4 20.4175 4.83482 20.8293 6.00003L11.1707 6.00001C11.5825 4.83481 12.6938 4 14 4L18 4ZM28 11C28 9.34318 26.6569 8.00004 25 8.00003L7.00001 8C5.34315 8 4 9.34314 4 11L4 16L12.5351 16C13.2267 14.8044 14.5194 14 16 14C17.4806 14 18.7732 14.8044 19.4649 16L28 16V11ZM20 18C20 20.2091 18.2091 22 16 22C13.7909 22 12 20.2091 12 18L4 18L4 25C4 26.6568 5.34315 28 7 28H25C26.6569 28 28 26.6568 28 25V18L20 18ZM14 18C14 16.8954 14.8954 16 16 16C17.1046 16 18 16.8954 18 18C18 19.1046 17.1046 20 16 20C14.8954 20 14 19.1046 14 18Z" fill="black"/>
</svg>
