<svg width="32" height="32" viewBox="0 0 32 32" fill="none" xmlns="http://www.w3.org/2000/svg">
<rect width="32" height="32" fill="white"/>
<path fill-rule="evenodd" clip-rule="evenodd" d="M13 2C12.7348 2 12.4805 2.10536 12.2929 2.29289L5.29293 9.29289C5.10539 9.48043 5.00004 9.73478 5.00004 10L5.00001 19H3C2.44772 19 2 19.4477 2 20C2 20.5523 2.44772 21 3 21H29C29.5523 21 30 20.5523 30 20C30 19.4477 29.5523 19 29 19H27L27 7C27 4.23858 24.7615 2 22 2H13ZM25 19L25 7C25 5.34315 23.6569 4 22 4H15V11C15 11.5523 14.5523 12 14 12H7.00003L7.00001 19L25 19ZM13 10V4.41425L7.41425 10H13Z" fill="black"/>
<path d="M8 27C7.44772 27 7 26.5523 7 26L7 24C7 23.4477 7.44771 23 8 23C8.55228 23 9 23.4477 9 24L9 26C9 26.5523 8.55228 27 8 27Z" fill="black"/>
<path d="M12 29C12 29.5523 12.4477 30 13 30C13.5523 30 14 29.5523 14 29V24C14 23.4477 13.5523 23 13 23C12.4477 23 12 23.4477 12 24V29Z" fill="black"/>
<path d="M18 27C17.4477 27 17 26.5523 17 26V24C17 23.4477 17.4477 23 18 23C18.5523 23 19 23.4477 19 24V26C19 26.5523 18.5523 27 18 27Z" fill="black"/>
<path d="M22 29C22 29.5523 22.4477 30 23 30C23.5523 30 24 29.5523 24 29V24C24 23.4477 23.5523 23 23 23C22.4477 23 22 23.4477 22 24V29Z" fill="black"/>
</svg>
