<svg width="32" height="32" viewBox="0 0 32 32" fill="none" xmlns="http://www.w3.org/2000/svg">
<rect width="32" height="32" fill="white"/>
<path fill-rule="evenodd" clip-rule="evenodd" d="M13 2C12.7348 2 12.4805 2.10536 12.2929 2.29289L5.29293 9.29289C5.10539 9.48043 5.00003 9.73478 5.00003 10L5.00001 19C5.00001 19.5523 5.44773 20 6.00001 20C6.5523 20 7.00001 19.5523 7.00001 19L7.00002 17C7.00002 16.9983 7.00001 16.9966 7 16.9948L7.00003 12.0021C7.00003 12.0014 7.00003 12.0007 7.00003 12L14 12C14.5523 12 15 11.5523 15 11V4H22C22.0397 4 22.0792 4.00077 22.1184 4.00228C23.6918 4.06334 24.9543 5.33615 24.9988 6.91373C24.9996 6.94237 25 6.97113 25 7V7.85714C25 7.85733 25 7.85696 25 7.85714V12.1415C25 12.142 25 12.1424 25 12.1429V13.8571C25 13.8577 25 13.8582 25 13.8587V18C25 18.024 25.0009 18.0478 25.0025 18.0714C25.0009 18.095 25 18.1188 25 18.1429V19.8571C25 20.4094 25.4478 20.8571 26 20.8571C26.5523 20.8571 27 20.4094 27 19.8571V18.1429C27 18.1188 26.9992 18.095 26.9975 18.0714C26.9992 18.0478 27 18.024 27 18L27 7C27 6.933 26.9987 6.86626 26.9961 6.79983C26.891 4.1312 24.6944 2 22 2H13ZM13 4.41425L12.7071 4.70711C12.7072 4.707 12.707 4.70722 12.7071 4.70711L7.70739 9.70686C7.70747 9.70677 7.70731 9.70694 7.70739 9.70686L7.41425 10H13V4.41425Z" fill="black"/>
<path d="M7 24C7 23.4477 6.55229 23 6 23C5.44772 23 5 23.4477 5 24L5 25C5 25.3812 5.04283 25.7536 5.12436 26.1122C5.2468 26.6507 5.78262 26.988 6.32117 26.8656C6.85971 26.7432 7.19703 26.2073 7.0746 25.6688C7.02592 25.4547 7 25.231 7 25L7 24Z" fill="black"/>
<path d="M27 24.1429C27 23.5906 26.5523 23.1429 26 23.1429C25.4478 23.1429 25 23.5906 25 24.1429V25C25 25.231 24.9741 25.4547 24.9254 25.6688C24.803 26.2073 25.1403 26.7432 25.6789 26.8656C26.2174 26.988 26.7532 26.6507 26.8757 26.1122C26.9572 25.7536 27 25.3812 27 25V24.1429Z" fill="black"/>
<path d="M9.3312 27.9254C8.79266 27.803 8.25683 28.1403 8.13439 28.6788C8.01196 29.2174 8.34928 29.7532 8.88782 29.8756C9.24643 29.9572 9.61882 30 10 30H10.8571C11.4094 30 11.8571 29.5523 11.8571 29C11.8571 28.4477 11.4094 28 10.8571 28H10C9.76903 28 9.54533 27.9741 9.3312 27.9254Z" fill="black"/>
<path d="M23.1122 29.8756C23.6508 29.7532 23.9881 29.2174 23.8656 28.6788C23.7432 28.1403 23.2074 27.803 22.6688 27.9254C22.4547 27.9741 22.231 28 22 28H21.1429C20.5906 28 20.1429 28.4477 20.1429 29C20.1429 29.5523 20.5906 30 21.1429 30H22C22.3812 30 22.7536 29.9572 23.1122 29.8756Z" fill="black"/>
<path d="M15.1429 28C14.5906 28 14.1429 28.4477 14.1429 29C14.1429 29.5523 14.5906 30 15.1429 30H16.8572C17.4094 30 17.8572 29.5523 17.8572 29C17.8572 28.4477 17.4094 28 16.8572 28H15.1429Z" fill="black"/>
</svg>
