<svg width="32" height="32" viewBox="0 0 32 32" fill="none" xmlns="http://www.w3.org/2000/svg">
<rect width="32" height="32" fill="white"/>
<path d="M28 24.9927V18.9927C28 18.4404 28.4477 17.9927 29 17.9927C29.5523 17.9927 30 18.4404 30 18.9927V24.9927C30 27.7541 27.7614 29.9927 25 29.9927L7 29.9927C4.23858 29.9927 2 27.7541 2 24.9927V6.99268C2 4.23125 4.23859 1.99267 7.00002 1.99268L13 1.99269C13.5523 1.99269 14 2.44041 14 2.9927C14 3.54498 13.5523 3.99269 13 3.99269L7.00001 3.99268C5.34315 3.99267 4 5.33582 4 6.99268L4 24.9927C4 26.6495 5.34315 27.9927 7 27.9927L25 27.9927C26.6569 27.9927 28 26.6495 28 24.9927Z" fill="black"/>
<path d="M26.5756 4.00293L13.2929 17.2856C12.9024 17.6761 12.9024 18.3093 13.2929 18.6998C13.6834 19.0903 14.3166 19.0903 14.7071 18.6998L28 5.4069L28 10.9926C28 11.5449 28.4477 11.9926 29 11.9926C29.5523 11.9926 30 11.5449 30 10.9926L30 3.00737C30 3.00462 30 3.00187 30 2.99912C30.0016 2.74106 29.904 2.48249 29.7071 2.2856C29.4686 2.04712 29.1397 1.95427 28.8307 2.00706L21.0018 1.99272C20.4495 1.99171 20.001 2.43861 20 2.99089C19.999 3.54317 20.4459 3.99171 20.9982 3.99272L26.5756 4.00293Z" fill="black"/>
</svg>
