<svg width="32" height="32" viewBox="0 0 32 32" fill="none" xmlns="http://www.w3.org/2000/svg">
<rect width="32" height="32" fill="white"/>
<path d="M21 10C21 9.44772 20.5523 9 20 9C19.4477 9 19 9.44772 19 10V11C19 11.5523 19.4477 12 20 12C20.5523 12 21 11.5523 21 11V10Z" fill="black"/>
<path d="M22 12C22.5523 12 23 12.4477 23 13V14C23 14.5523 22.5523 15 22 15C21.4477 15 21 14.5523 21 14V13C21 12.4477 21.4477 12 22 12Z" fill="black"/>
<path d="M21 16C21 15.4477 20.5523 15 20 15C19.4477 15 19 15.4477 19 16V17C19 17.5523 19.4477 18 20 18C20.5523 18 21 17.5523 21 17V16Z" fill="black"/>
<path d="M22 18C22.5523 18 23 18.4477 23 19V20C23 20.5523 22.5523 21 22 21C21.4477 21 21 20.5523 21 20V19C21 18.4477 21.4477 18 22 18Z" fill="black"/>
<path d="M21 22C21 21.4477 20.5523 21 20 21C19.4477 21 19 21.4477 19 22V23C19 23.5523 19.4477 24 20 24C20.5523 24 21 23.5523 21 23V22Z" fill="black"/>
<path d="M22 24C22.5523 24 23 24.4477 23 25V26C23 26.5523 22.5523 27 22 27C21.4477 27 21 26.5523 21 26V25C21 24.4477 21.4477 24 22 24Z" fill="black"/>
<path fill-rule="evenodd" clip-rule="evenodd" d="M30 25L30 12C30 9.23857 27.7614 6.99999 25 6.99999L17.5662 6.99999L14.5662 2H7C4.23858 2 2 4.23858 2 7V25C2 27.7615 4.23858 30 7 30L25 30C27.7614 30 30 27.7615 30 25ZM28 12L28 25C28 26.6569 26.6569 28 25 28H21C21 27.4478 20.5523 27 20 27C19.4477 27 19 27.4477 19 28L7 28C5.34315 28 4 26.6569 4 25L4 7C4 5.34315 5.34315 4 7 4L13.4338 4L16.4338 8.99999H25C26.6569 8.99999 28 10.3431 28 12Z" fill="black"/>
</svg>
