<svg width="32" height="32" viewBox="0 0 32 32" fill="none" xmlns="http://www.w3.org/2000/svg">
<rect width="32" height="32" fill="white"/>
<path fill-rule="evenodd" clip-rule="evenodd" d="M2 7C2 4.23858 4.23858 2 7 2H14.5662L17.5662 6.99999L25 6.99999C27.7614 6.99999 30 9.23857 30 12V25C30 27.7614 27.7614 30 25 30L7.00001 30C4.23858 30 2 27.7614 2 25L2 7ZM25 8.99999C26.6569 8.99999 28 10.3431 28 12V15.9996C27.1643 15.3719 26.1256 15 25 15L7 15C5.87439 15 4.83566 15.372 4 15.9996L4 7C4 5.34315 5.34315 4 7 4L13.4338 4L16.4338 8.99999H25ZM28 19.9967C27.9982 18.3414 26.6558 17 25 17L7 17C5.34315 17 4 18.3432 4 20L4 25C4 26.6569 5.34315 28 7 28L25 28C26.6569 28 28 26.6568 28 25L28 19.9967Z" fill="black"/>
</svg>
