<svg width="32" height="32" viewBox="0 0 32 32" fill="none" xmlns="http://www.w3.org/2000/svg">
<rect width="32" height="32" fill="white"/>
<path fill-rule="evenodd" clip-rule="evenodd" d="M28 25L28 12C28 10.3431 26.6569 8.99999 25 8.99999H16.4338L13.4338 4L7 4C5.34315 4 4 5.34315 4 7L4 25C4 26.6569 5.34315 28 7 28L25 28C26.6569 28 28 26.6569 28 25ZM30 12L30 25C30 27.7615 27.7614 30 25 30L7 30C4.23858 30 2 27.7615 2 25L2 7C2 4.23858 4.23858 2 7 2L14.5662 2L17.5662 6.99999L25 6.99999C27.7614 6.99999 30 9.23857 30 12Z" fill="black"/>
</svg>
