<svg width="32" height="32" viewBox="0 0 32 32" fill="none" xmlns="http://www.w3.org/2000/svg">
<rect width="32" height="32" fill="white"/>
<path fill-rule="evenodd" clip-rule="evenodd" d="M9.07974 4.75577C8.59589 5.25875 8.20841 6.05693 7.98058 7.19612L7.97661 7.21595L5.19375 18.6953C6.03114 18.2514 6.98621 18 8 18C10.973 18 13.441 20.1623 13.917 23H18.083C18.559 20.1623 21.027 18 24 18C25.0138 18 25.9689 18.2514 26.8062 18.6953L24.0234 7.21595L24.0194 7.19612C23.7916 6.05693 23.4041 5.25875 22.9203 4.75577C22.4615 4.27891 21.8537 4 21 4C20.4477 4 20 3.55228 20 3C20 2.44772 20.4477 2 21 2C22.3555 2 23.4976 2.47109 24.3616 3.36923C25.1963 4.23691 25.7034 5.43112 25.9765 6.78358L29.6808 22.0641C29.7954 22.4005 29.881 22.7504 29.9345 23.1106L29.9719 23.2646C30.003 23.3932 30.0078 23.522 29.9897 23.6453C29.9965 23.7627 30 23.8809 30 24C30 27.3137 27.3137 30 24 30C21.027 30 18.559 27.8377 18.083 25H13.917C13.441 27.8377 10.973 30 8 30C4.68629 30 2 27.3137 2 24C2 23.8809 2.00347 23.7627 2.01031 23.6453C1.99218 23.522 1.99696 23.3932 2.02814 23.2646L2.06546 23.1106C2.11899 22.7504 2.20456 22.4005 2.31916 22.0641L6.02349 6.78358C6.29664 5.43112 6.8037 4.23691 7.63839 3.36923C8.50237 2.47109 9.64452 2 11 2C11.5523 2 12 2.44772 12 3C12 3.55228 11.5523 4 11 4C10.1463 4 9.53848 4.27891 9.07974 4.75577ZM27.7618 22.6371L27.9669 23.4832C27.9887 23.6524 28 23.8249 28 24C28 26.2091 26.2091 28 24 28C21.7909 28 20 26.2091 20 24C20 21.7909 21.7909 20 24 20C25.7306 20 27.2045 21.099 27.7618 22.6371ZM4.23818 22.6371L4.03308 23.4832C4.01126 23.6524 4 23.8249 4 24C4 26.2091 5.79086 28 8 28C10.2091 28 12 26.2091 12 24C12 21.7909 10.2091 20 8 20C6.26943 20 4.79554 21.099 4.23818 22.6371Z" fill="black"/>
</svg>
