<svg width="32" height="32" viewBox="0 0 32 32" fill="none" xmlns="http://www.w3.org/2000/svg">
<rect width="32" height="32" fill="white"/>
<path fill-rule="evenodd" clip-rule="evenodd" d="M28.3304 3.94389C28.8517 3.76144 29.1263 3.19096 28.9439 2.66968C28.7614 2.1484 28.191 1.87372 27.6697 2.05617L7.78444 9.016C7.69109 9.00543 7.59618 9 7.5 9H5C3.34315 9 2 10.3431 2 12V27C2 28.6569 3.34315 30 5 30H27C28.6569 30 30 28.6569 30 27V15C30 13.3431 28.6569 12 27 12H10.5C10.2239 12 10 11.7761 10 11.5C10 11.1217 9.91597 10.763 9.76555 10.4416L28.3304 3.94389ZM4 27V22H28L28 27C28 27.5523 27.5523 28 27 28H5C4.44772 28 4 27.5523 4 27ZM28 15L28 20H4V12C4 11.4477 4.44772 11 5 11H7.5C7.77614 11 8 11.2239 8 11.5C8 12.8807 9.11929 14 10.5 14H27C27.5523 14 28 14.4477 28 15Z" fill="black"/>
</svg>
