<svg width="32" height="32" viewBox="0 0 32 32" fill="none" xmlns="http://www.w3.org/2000/svg">
<rect width="32" height="32" fill="white"/>
<path fill-rule="evenodd" clip-rule="evenodd" d="M6 2C3.79086 2 2 3.79086 2 6V17C2 19.2091 3.79086 21 6 21H11V26C11 28.2091 12.7909 30 15 30H26C28.2091 30 30 28.2091 30 26V15C30 12.7909 28.2091 11 26 11H21V6C21 3.79086 19.2091 2 17 2H6ZM21 13V17C21 19.2091 19.2091 21 17 21H13V26C13 27.1046 13.8954 28 15 28H26C27.1046 28 28 27.1046 28 26V15C28 13.8954 27.1046 13 26 13H21ZM4 6C4 4.89543 4.89543 4 6 4H17C18.1046 4 19 4.89543 19 6V17C19 18.1046 18.1046 19 17 19H6C4.89543 19 4 18.1046 4 17V6Z" fill="black"/>
</svg>
