<svg width="32" height="32" viewBox="0 0 32 32" fill="none" xmlns="http://www.w3.org/2000/svg">
<rect width="32" height="32" fill="white"/>
<path fill-rule="evenodd" clip-rule="evenodd" d="M11 14C9.89543 14 9 14.8954 9 16V24C9 25.1046 9.89543 26 11 26H21C22.1046 26 23 25.1046 23 24V16C23 14.8954 22.1046 14 21 14H11ZM11 16H15V19H11V16ZM17 19V16H21V19H17ZM17 21H21V24H17V21ZM15 21V24H11V21H15Z" fill="black"/>
<path fill-rule="evenodd" clip-rule="evenodd" d="M13 2C12.7348 2 12.4805 2.10536 12.2929 2.29289L5.29293 9.29289C5.10539 9.48043 5.00003 9.73478 5.00003 10L5 25C4.99999 27.7614 7.23857 30 10 30H22C24.7615 30 27 27.7614 27 25L27 7C27 4.23858 24.7615 2 22 2H13ZM13 10V4.41425L7.41425 10H13ZM14 12H7.00003L7 25C7 26.6569 8.34314 28 10 28H22C23.6569 28 25 26.6569 25 25L25 7C25 5.34315 23.6569 4 22 4H15V11C15 11.5523 14.5523 12 14 12Z" fill="black"/>
</svg>
