<svg width="16" height="16" viewBox="0 0 16 16" fill="none" xmlns="http://www.w3.org/2000/svg">
<rect width="16" height="16" fill="white"/>
<path fill-rule="evenodd" clip-rule="evenodd" d="M8 1C6.13616 1 4.57006 2.27477 4.12602 4L3 4C1.89543 4 1 4.89543 1 6V13C1 14.1046 1.89543 15 3 15H13C14.1046 15 15 14.1046 15 13L15 6.00002C15 4.89545 14.1046 4.00002 13 4.00002L11.874 4.00001C11.4299 2.27478 9.86384 1 8 1ZM8 3C7.25972 3 6.61337 3.4022 6.26756 4.00001L9.73244 4.00001C9.38663 3.4022 8.74029 3 8 3ZM13 10V13L3 13L3 10H6C6 11.1046 6.89543 12 8 12C9.10457 12 10 11.1046 10 10L13 10ZM13 8V6.00002L3 6L3 8L13 8Z" fill="black"/>
</svg>
