<svg width="16" height="16" viewBox="0 0 16 16" fill="none" xmlns="http://www.w3.org/2000/svg">
<rect width="16" height="16" fill="white"/>
<path d="M13 13V9.38463C13 8.83234 13.4477 8.38463 14 8.38463C14.5523 8.38463 15 8.83234 15 9.38463V13C15 14.1046 14.1046 15 13 15L3 15C1.89543 15 1 14.1046 1 13V3C1 1.89543 1.89543 0.999997 3.00001 1L6.61539 1.00001C7.16767 1.00001 7.61539 1.44773 7.61538 2.00001C7.61538 2.5523 7.16767 3.00001 6.61538 3.00001L3 3L3 13L13 13Z" fill="black"/>
<path d="M12.9675 4.44584L12.9675 5.4675C12.9675 6.01979 13.4152 6.4675 13.9675 6.4675C14.5198 6.4675 14.9675 6.01979 14.9675 5.4675L14.9675 2.00638C14.9675 1.45481 14.5209 1.00739 13.9694 1.00638L10.5018 1.00003C9.94955 0.999018 9.50101 1.44591 9.5 1.9982C9.49899 2.55048 9.94589 2.99901 10.4982 3.00003L11.583 3.00201L6.05382 8.52456C5.66307 8.91485 5.66269 9.54801 6.05298 9.93877C6.44327 10.3295 7.07644 10.3299 7.46719 9.93961L12.9675 4.44584Z" fill="black"/>
</svg>
