<svg width="16" height="16" viewBox="0 0 16 16" fill="none" xmlns="http://www.w3.org/2000/svg">
<g clip-path="url(#clip0)">
<rect width="16" height="16" fill="white"/>
<path fill-rule="evenodd" clip-rule="evenodd" d="M16 6C16 4.89543 15.1046 4 14 4H9.98549L9.19735 2.86158C8.82378 2.32198 8.20926 2 7.55297 2H4C2.89543 2 1.99999 2.89543 1.99999 4L1.99999 7H1.76618C0.211591 7 -0.748634 8.69594 0.0511953 10.029L1.8512 13.029C2.21264 13.6314 2.86366 14 3.56618 14L14 14C15.1046 14 16 13.1046 16 12V6ZM14 10.1492V6L9.98549 6C9.3292 6 8.71467 5.67802 8.3411 5.13842L7.55297 4L4 4L3.99999 7H10.5194C11.1269 7 11.7016 7.27618 12.0811 7.75061L14 10.1492ZM12.9194 12L10.5194 9H1.76618L3.56618 12L12.9194 12Z" fill="black"/>
</g>
<defs>
<clipPath id="clip0">
<rect width="16" height="16" fill="white"/>
</clipPath>
</defs>
</svg>
