<svg width="16" height="16" viewBox="0 0 16 16" fill="none" xmlns="http://www.w3.org/2000/svg">
<rect width="16" height="16" fill="white"/>
<path fill-rule="evenodd" clip-rule="evenodd" d="M5.3537 3.20505C5.21751 3.32936 5.07003 3.56112 4.97504 3.97817L4.96999 4.00032L3.84902 8.06043C4.05995 8.02075 4.27755 8 4.5 8C6.26324 8 7.72194 9.30385 7.96456 11H8.03544C8.27806 9.30385 9.73676 8 11.5 8C11.7225 8 11.9401 8.02075 12.151 8.06043L11.03 4.00032L11.025 3.97817C10.93 3.56112 10.7825 3.32936 10.6463 3.20505C10.5257 3.09494 10.3401 3 9.99999 3C9.44771 3 8.99999 2.55228 8.99999 2C8.99999 1.44772 9.44771 1 9.99999 1C10.7645 1 11.4539 1.23432 11.9946 1.72786C12.5137 2.20171 12.8131 2.83869 12.9696 3.51059L14.9639 10.7339C15.0049 10.8821 15.0102 11.0318 14.985 11.1738C14.9949 11.2812 15 11.39 15 11.5C15 13.433 13.433 15 11.5 15C10.1038 15 8.89855 14.1825 8.33682 13H7.66318C7.10145 14.1825 5.8962 15 4.5 15C2.567 15 1 13.433 1 11.5C1 11.39 1.00507 11.2812 1.015 11.1738C0.989835 11.0318 0.995136 10.8821 1.03607 10.7339L3.03038 3.51059C3.1869 2.83869 3.48625 2.20171 4.0054 1.72786C4.54611 1.23432 5.23554 1 6.00001 1C6.55229 1 7.00001 1.44772 7.00001 2C7.00001 2.55228 6.55229 3 6.00001 3C5.65991 3 5.47433 3.09494 5.3537 3.20505ZM4.5 10C3.67157 10 3 10.6716 3 11.5C3 12.3284 3.67157 13 4.5 13C5.32843 13 6 12.3284 6 11.5C6 10.6716 5.32843 10 4.5 10ZM11.5 10C10.6716 10 10 10.6716 10 11.5C10 12.3284 10.6716 13 11.5 13C12.3284 13 13 12.3284 13 11.5C13 10.6716 12.3284 10 11.5 10Z" fill="black"/>
</svg>
