<svg width="16" height="16" viewBox="0 0 16 16" fill="none" xmlns="http://www.w3.org/2000/svg">
<rect width="16" height="16" fill="white"/>
<path fill-rule="evenodd" clip-rule="evenodd" d="M3 3C3 1.89543 3.89543 1 5 1H11C12.1046 1 13 1.89543 13 3V5C14.1046 5 15 5.89543 15 7V12C15 13.1046 14.1046 14 13 14H12C12 15.1046 11.1046 16 10 16H6C4.89543 16 4 15.1046 4 14H3C1.89543 14 1 13.1046 1 12V7C1 5.89543 1.89543 5 3 5V3ZM4 12C4 10.8954 4.89543 10 6 10H10C11.1046 10 12 10.8954 12 12H13V7H3V12H4ZM10 12H6V14H10V12ZM11 3V5H5V3H11Z" fill="black"/>
</svg>
