<svg width="16" height="16" viewBox="0 0 16 16" fill="none" xmlns="http://www.w3.org/2000/svg">
<rect width="16" height="16" fill="white"/>
<path d="M6 8C5.44772 8 5 8.44772 5 9C5 9.55229 5.44772 10 6 10H10C10.5523 10 11 9.55229 11 9C11 8.44772 10.5523 8 10 8H6Z" fill="black"/>
<path fill-rule="evenodd" clip-rule="evenodd" d="M6.50002 1C6.24863 1 6.00646 1.09468 5.82174 1.2652L2.32175 4.49597C2.11667 4.68527 2.00003 4.95167 2.00003 5.23077L2 13C1.99999 14.2011 3.04688 15 4.11111 15H11.8889C12.9531 15 14 14.2011 14 13L14 3C14 1.79893 12.9531 1 11.8889 1H6.50002ZM4.00003 5.6686L6.891 3H11.8889C11.9456 3 11.9823 3.01831 12 3.0316L12 12.9684C11.9823 12.9817 11.9456 13 11.8889 13H4.11111C4.05439 13 4.01766 12.9817 4 12.9684L4.00003 5.6686Z" fill="black"/>
</svg>
