<svg width="16" height="16" viewBox="0 0 16 16" fill="none" xmlns="http://www.w3.org/2000/svg">
<rect width="16" height="16" fill="white"/>
<path fill-rule="evenodd" clip-rule="evenodd" d="M14.2548 9.87968C14.3365 9.47209 14.3792 9.05099 14.3792 8.62068C14.3792 5.98217 12.778 3.71991 10.4964 2.74865C10.1259 1.72861 9.148 1 7.99996 1C6.85193 1 5.87407 1.7286 5.50357 2.74862C3.2219 3.71987 1.62063 5.98215 1.62063 8.62068C1.62063 9.05104 1.66338 9.47218 1.74506 9.87982C1.28378 10.3575 1 11.0077 1 11.7241C1 13.1905 2.18876 14.3793 3.65517 14.3793C4.05771 14.3793 4.43932 14.2897 4.78116 14.1294C5.72637 14.6827 6.82708 15 7.99994 15C9.17282 15 10.2736 14.6827 11.2188 14.1294C11.5606 14.2897 11.9423 14.3793 12.3449 14.3793C13.8113 14.3793 15 13.1905 15 11.7241C15 11.0076 14.7162 10.3573 14.2548 9.87968ZM7.34479 3.65517C7.34479 3.29333 7.63812 3 7.99996 3C8.3618 3 8.65513 3.29333 8.65513 3.65517C8.65513 4.01701 8.3618 4.31034 7.99996 4.31034C7.63812 4.31034 7.34479 4.01701 7.34479 3.65517ZM5.66276 4.9162C4.43502 5.69253 3.62063 7.06234 3.62063 8.62068C3.62063 8.77221 3.62828 8.92175 3.64321 9.06897L3.65517 9.06894C5.12158 9.06894 6.31034 10.2577 6.31034 11.7241C6.31034 12.0302 6.25856 12.3241 6.16329 12.5977C6.72144 12.856 7.34322 13 7.99994 13C8.65671 13 9.27853 12.8559 9.83672 12.5976C9.74146 12.3241 9.68969 12.0301 9.68969 11.7241C9.68969 10.2577 10.8784 9.06894 12.3449 9.06894C12.3488 9.06894 12.3527 9.06896 12.3567 9.06897C12.3716 8.92175 12.3792 8.77221 12.3792 8.62068C12.3792 7.06235 11.5649 5.69256 10.3371 4.91622C9.88826 5.7464 9.00997 6.31034 7.99996 6.31034C6.98994 6.31034 6.11164 5.74639 5.66276 4.9162ZM3.65517 11.0689C3.29333 11.0689 3 11.3623 3 11.7241C3 12.086 3.29333 12.3793 3.65517 12.3793C4.01701 12.3793 4.31034 12.086 4.31034 11.7241C4.31034 11.3623 4.01701 11.0689 3.65517 11.0689ZM11.6897 11.7241C11.6897 11.3623 11.983 11.0689 12.3449 11.0689C12.7067 11.0689 13 11.3623 13 11.7241C13 12.086 12.7067 12.3793 12.3449 12.3793C11.983 12.3793 11.6897 12.086 11.6897 11.7241Z" fill="black"/>
</svg>
