<svg width="16" height="16" viewBox="0 0 16 16" fill="none" xmlns="http://www.w3.org/2000/svg">
<rect width="16" height="16" fill="white"/>
<path fill-rule="evenodd" clip-rule="evenodd" d="M8.5 1C7.81802 1 7.19257 1.27833 6.75056 1.7357C6.70951 1.77818 6.6714 1.81795 6.6356 1.85531C6.47356 2.02439 6.35881 2.14413 6.23249 2.24278C6.14953 2.30757 6.10037 2.33333 6 2.33333C5.009 2.33333 4.18635 3.0541 4.02765 4H4C2.89543 4 2 4.89543 2 6L2.00001 13C2.00001 14.1046 2.89544 15 4.00001 15L13 15C14.1046 15 15 14.1046 15 13L15 6C15 4.89543 14.1046 4 13 4H12.9723C12.8137 3.0541 11.991 2.33333 11 2.33333C10.8996 2.33333 10.8505 2.30757 10.7675 2.24278C10.6412 2.14413 10.5264 2.02439 10.3644 1.85532C10.3286 1.81796 10.2905 1.77819 10.2494 1.7357C9.80743 1.27833 9.18198 1 8.5 1ZM8.18873 3.12555C8.25843 3.05343 8.3668 3 8.5 3C8.6332 3 8.74157 3.05343 8.81127 3.12555C8.83474 3.14984 8.86077 3.17718 8.88907 3.20691C9.05002 3.37599 9.28425 3.62205 9.53648 3.81903C9.96714 4.15537 10.4535 4.33333 11 4.33333V5L6 5V4.33333C6.5465 4.33333 7.03286 4.15537 7.46352 3.81903C7.71575 3.62204 7.94999 3.37597 8.11094 3.2069C8.13923 3.17717 8.16526 3.14983 8.18873 3.12555ZM12.7324 6C12.3866 6.5978 11.7403 7 11 7H6C5.25972 7 4.61337 6.5978 4.26756 6H4L4.00001 13L13 13V6H12.7324Z" fill="black"/>
</svg>
