<svg width="16" height="16" viewBox="0 0 16 16" fill="none" xmlns="http://www.w3.org/2000/svg">
<rect width="16" height="16" fill="white"/>
<path d="M5 4C5.55228 4 6 4.44772 6 5V6C6 6.55228 5.55228 7 5 7C4.44771 7 4 6.55228 4 6V5C4 4.44772 4.44771 4 5 4Z" fill="black"/>
<path d="M8 7C6.89543 7 6 7.89543 6 9C6 10.1046 6.89543 11 8 11C9.10457 11 10 10.1046 10 9C10 7.89543 9.10457 7 8 7Z" fill="black"/>
<path fill-rule="evenodd" clip-rule="evenodd" d="M1 3.00001V13C1 14.1046 1.89543 15 3 15L13 15C14.1046 15 15 14.1046 15 13V5.18343C15 4.653 14.7893 4.14429 14.4142 3.76922L12.2308 1.58578C11.8557 1.21071 11.347 1 10.8166 1L3 1.00001C1.89543 1.00001 1 1.89544 1 3.00001ZM3 13L3 3.00001L10.8166 3L13 5.18343L13 13L3 13Z" fill="black"/>
</svg>
