<svg xmlns="http://www.w3.org/2000/svg" viewBox="0 0 100 100"><path d="M67.113 94.538c-15.124 0-27.427-12.304-27.427-27.427S51.99 39.685 67.113 39.685s27.426 12.303 27.426 27.426-12.303 27.427-27.426 27.427Zm0-48.853c-11.815 0-21.427 9.612-21.427 21.426s9.612 21.427 21.427 21.427 21.426-9.612 21.426-21.427-9.612-21.426-21.426-21.426Z"/><circle cx="38.154" cy="23.523" r="18.061"/><path d="M35.691 67.11c0 5.84 1.6 11.32 4.39 16H5.461v-5.63c0-18.05 14.64-32.69 32.69-32.69 2.14 0 4.23.2 6.26.6-5.4 5.65-8.72 13.3-8.72 21.72ZM81.92 64.111H52.306a3 3 0 1 0 0 6H81.92a3 3 0 1 0 0-6Z"/><path d="M70.112 52.303a3 3 0 0 0-6 .001v29.615c.001.829.337 1.579.88 2.121a3 3 0 0 0 5.121-2.122V52.304Z"/></svg>