<svg xmlns="http://www.w3.org/2000/svg" viewBox="0 0 100 100"><path d="M67.111 94.538c-15.123 0-27.426-12.304-27.426-27.427s12.303-27.426 27.426-27.426 27.427 12.303 27.427 27.426S82.234 94.538 67.11 94.538Zm0-48.853c-11.814 0-21.426 9.612-21.426 21.426s9.612 21.427 21.426 21.427 21.427-9.612 21.427-21.427-9.612-21.426-21.427-21.426Z"/><path d="M62.3 5.4H30.41c-3.25 0-6.32 1.24-8.66 3.5L9.26 20.97c-2.41 2.33-3.8 5.6-3.8 8.96v44.02c0 3.81 3.1 6.92 6.92 6.92h26.48c-.93-1.9-1.67-3.91-2.2-6H12.38c-.51 0-.92-.42-.92-.92V29.93c0-1.74.72-3.44 1.97-4.65l12.49-12.07a6.432 6.432 0 0 1 4.49-1.81H62.3c.51 0 .92.41.92.91v23.62c1.27-.16 2.57-.24 3.89-.24.71 0 1.41.02 2.11.07V12.31c0-3.81-3.11-6.91-6.92-6.91Z"/><path d="M22.674 28.912H9.362a3 3 0 1 1 0-6h13.312c.504 0 .914-.41.914-.914V9.208a3 3 0 1 1 6 0v12.79a6.922 6.922 0 0 1-6.914 6.914ZM44.26 45.56a30.76 30.76 0 0 0-4.44 6H21.8c-1.65 0-3-1.35-3-3 0-1.66 1.35-3 3-3h22.46ZM36.65 59.39c-.49 1.94-.8 3.94-.91 6H21.8c-1.65 0-3-1.35-3-3 0-1.66 1.35-3 3-3h14.85ZM53.756 37.724h-31.95a3 3 0 1 1 0-6h31.95a3 3 0 1 1 0 6ZM60.988 82.081a2.991 2.991 0 0 1-2.121-.878l-7.383-7.382a3 3 0 1 1 4.243-4.243l5.26 5.26 16.987-16.985a2.999 2.999 0 1 1 4.242 4.242L63.11 81.202a2.99 2.99 0 0 1-2.121.88Z"/></svg>