<svg xmlns="http://www.w3.org/2000/svg" viewBox="0 0 100 100"><path d="M67.111 94.538c-15.123 0-27.426-12.304-27.426-27.427s12.303-27.426 27.426-27.426 27.427 12.303 27.427 27.426S82.234 94.538 67.11 94.538Zm0-48.853c-11.814 0-21.426 9.612-21.426 21.426s9.612 21.427 21.426 21.427 21.427-9.612 21.427-21.427-9.612-21.426-21.427-21.426Z"/><path d="M79.005 61.986H56.952a3 3 0 1 1 0-6h22.053a3 3 0 1 1 0 6Z"/><path d="M72.172 70.111a3 3 0 0 1-2.121-5.121l5.62-5.62-5.621-5.62a3 3 0 1 1 4.243-4.243l7.742 7.742a3 3 0 0 1 0 4.242l-7.742 7.742a2.99 2.99 0 0 1-2.121.878ZM77.27 78.236H55.218a3 3 0 1 1 0-6H77.27a3 3 0 1 1 0 6Z"/><path d="M62.05 85.594a2.99 2.99 0 0 1-2.12-.879l-7.742-7.741a2.997 2.997 0 0 1 0-4.242l7.742-7.742a3 3 0 1 1 4.242 4.243l-5.62 5.62 5.62 5.62a3 3 0 0 1-2.121 5.12Z"/><circle cx="38.153" cy="23.523" r="18.061"/><path d="M35.69 67.11c0 5.84 1.6 11.32 4.39 16H5.46v-5.63c0-18.05 14.64-32.69 32.69-32.69 2.14 0 4.23.2 6.26.6-5.4 5.65-8.72 13.3-8.72 21.72Z"/></svg>