<svg width="32" height="32" viewBox="0 0 32 32" fill="none" xmlns="http://www.w3.org/2000/svg">
<rect width="32" height="32" fill="white"/>
<path d="M3 7.00002H2H3ZM3 10H4H3ZM10 14V13V14ZM7 14V13H7L7 14ZM14 7.00002H13H14ZM14 10H15H14ZM10 3.00002L10 4.00002L10 3.00002ZM7.00001 3.00002L7.00001 2.00002L7.00001 3.00002ZM18 7.00002H17H18ZM18 10H19H18ZM25 14V13V14ZM22 14V13V14ZM29 7.00002H28H29ZM29 10H30H29ZM25 3.00002L25 4.00002L25 3.00002ZM22 3.00002L22 2.00002L22 3.00002ZM3 22H2H3ZM3 25H4H3ZM10 29V28V29ZM7 29V28H7L7 29ZM14 22H13H14ZM14 25H15H14ZM10 18L10 19L10 18ZM7.00001 18L7.00001 17L7.00001 18ZM18 22H17H18ZM18 25H19H18ZM25 29V28V29ZM22 29V28V29ZM29 22H28H29ZM29 25H30H29ZM25 18L25 19L25 18ZM22 18L22 17L22 18ZM2 7.00002L2 10H4L4 7.00002H2ZM10 13H7V15H10V13ZM13 7.00002V10H15V7.00002H13ZM10 2.00002L7.00001 2.00002L7.00001 4.00002L10 4.00002L10 2.00002ZM15 7.00002C15 4.2386 12.7614 2.00003 10 2.00002L10 4.00002C11.6569 4.00003 13 5.34317 13 7.00002H15ZM4 7.00002C4 5.34316 5.34315 4.00001 7.00001 4.00002L7.00001 2.00002C4.23858 2.00001 2 4.23859 2 7.00002H4ZM2 10C2 12.7614 4.23858 15 7 15L7 13C5.34315 13 4 11.6569 4 10H2ZM10 15C12.7614 15 15 12.7614 15 10H13C13 11.6569 11.6569 13 10 13V15ZM17 7.00002V10H19V7.00002H17ZM25 13H22V15H25V13ZM28 7.00002V10H30V7.00002H28ZM25 2.00002L22 2.00002L22 4.00002L25 4.00002L25 2.00002ZM30 7.00002C30 4.2386 27.7614 2.00003 25 2.00002L25 4.00002C26.6569 4.00003 28 5.34317 28 7.00002H30ZM19 7.00002C19 5.34316 20.3431 4.00001 22 4.00002L22 2.00002C19.2386 2.00001 17 4.23859 17 7.00002H19ZM17 10C17 12.7614 19.2386 15 22 15V13C20.3431 13 19 11.6569 19 10H17ZM25 15C27.7614 15 30 12.7614 30 10H28C28 11.6569 26.6569 13 25 13V15ZM2 22L2 25H4L4 22H2ZM10 28H7V30H10V28ZM13 22V25H15V22H13ZM10 17L7.00001 17L7.00001 19L10 19L10 17ZM15 22C15 19.2386 12.7614 17 10 17L10 19C11.6569 19 13 20.3432 13 22H15ZM4 22C4 20.3432 5.34315 19 7.00001 19L7.00001 17C4.23858 17 2 19.2386 2 22H4ZM2 25C2 27.7614 4.23858 30 7 30L7 28C5.34315 28 4 26.6569 4 25H2ZM10 30C12.7614 30 15 27.7614 15 25H13C13 26.6569 11.6569 28 10 28V30ZM17 22V25H19V22H17ZM25 28H22V30H25V28ZM28 22V25H30V22H28ZM25 17L22 17L22 19L25 19L25 17ZM30 22C30 19.2386 27.7614 17 25 17L25 19C26.6569 19 28 20.3432 28 22H30ZM19 22C19 20.3432 20.3431 19 22 19L22 17C19.2386 17 17 19.2386 17 22H19ZM17 25C17 27.7614 19.2386 30 22 30V28C20.3431 28 19 26.6569 19 25H17ZM25 30C27.7614 30 30 27.7614 30 25H28C28 26.6569 26.6569 28 25 28V30Z" fill="black"/>
</svg>
