<svg xmlns="http://www.w3.org/2000/svg" viewBox="0 0 100 100"><path d="M75.98 7.73c-.16-.18-.35-.33-.55-.47a7.642 7.642 0 0 0-4.76-1.66H13.22c-1.79 0-3.45.62-4.76 1.66-.2.14-.39.29-.55.47a7.676 7.676 0 0 0-2.42 5.6v38.63c0 4.26 3.47 7.73 7.73 7.73h23.36c.5-2.09 1.22-4.1 2.12-6H13.22c-.95 0-1.73-.78-1.73-1.73V13.33c0-.95.78-1.73 1.73-1.73h57.45c.96 0 1.74.78 1.74 1.73v22.81c2.08.35 4.09.91 6 1.65V13.33c0-2.21-.94-4.2-2.43-5.6Z"/><path d="M41.945 35.64a2.994 2.994 0 0 1-1.75-.563L8.36 12.207a3 3 0 1 1 3.5-4.874l30.085 21.613L72.029 7.333a3 3 0 0 1 3.501 4.873L43.695 35.077a2.994 2.994 0 0 1-1.75.564ZM77.602 65.174V60.35c0-5.08-4.38-9.451-10.074-9.69-6.078-.255-11.096 4.062-11.096 9.423v5.091c0 3.37-.853 6.69-2.484 9.716-.367.68.175 1.466 1.021 1.466h24.095c.846 0 1.388-.787 1.022-1.466-1.632-3.025-2.484-6.345-2.484-9.716ZM70.996 78.823c.434 0 .77.394.696.821a4.741 4.741 0 0 1-4.68 3.93 4.738 4.738 0 0 1-4.67-3.93.706.706 0 0 1 .695-.82h7.96Z"/><path d="M67.113 94.538c-15.124 0-27.427-12.304-27.427-27.427S51.99 39.685 67.113 39.685s27.426 12.303 27.426 27.426-12.303 27.427-27.426 27.427Zm0-48.853c-11.815 0-21.427 9.612-21.427 21.426s9.612 21.427 21.427 21.427 21.426-9.612 21.426-21.427-9.612-21.426-21.426-21.426Z"/></svg>