<svg width="32" height="32" viewBox="0 0 32 32" fill="none" xmlns="http://www.w3.org/2000/svg">
<rect width="32" height="32" fill="white"/>
<path d="M25 29V28V29ZM7 29V30V29ZM29 11.5H30C30 11.1809 29.8477 10.8809 29.59 10.6926L29 11.5ZM29 25H30H29ZM3 11.5L2.40999 10.6926C2.15232 10.8809 2 11.1809 2 11.5H3ZM3 25H4H3ZM14.82 2.86233L15.41 3.66972L15.41 3.66972L14.82 2.86233ZM17.18 2.86233L16.59 3.66972L16.59 3.66972L17.18 2.86233ZM13.7232 18.9237L13.154 19.7459V19.7459L13.7232 18.9237ZM18.2768 18.9237L18.8461 19.7459V19.7459L18.2768 18.9237ZM25 28L7 28V30L25 30V28ZM28 11.5L28 25H30L30 11.5H28ZM2 11.5L2 25H4L4 11.5H2ZM7 28C5.34315 28 4 26.6569 4 25H2C2 27.7614 4.23858 30 7 30V28ZM25 30C27.7614 30 30 27.7614 30 25H28C28 26.6569 26.6569 28 25 28V30ZM3.59002 12.3074L15.41 3.66972L14.23 2.05494L2.40999 10.6926L3.59002 12.3074ZM16.59 3.66972L28.41 12.3074L29.59 10.6926L17.7701 2.05494L16.59 3.66972ZM15.41 3.66972C15.7614 3.41291 16.2386 3.41291 16.59 3.66972L17.7701 2.05494C16.7158 1.2845 15.2842 1.2845 14.23 2.05494L15.41 3.66972ZM14.2924 18.1015L3.56921 10.6778L2.43079 12.3222L13.154 19.7459L14.2924 18.1015ZM18.8461 19.7459L29.5692 12.3222L28.4308 10.6778L17.7076 18.1015L18.8461 19.7459ZM13.154 19.7459C14.8662 20.9313 17.1338 20.9313 18.8461 19.7459L17.7076 18.1015C16.6803 18.8128 15.3197 18.8128 14.2924 18.1015L13.154 19.7459Z" fill="black"/>
</svg>
