<svg width="32" height="32" viewBox="0 0 32 32" fill="none" xmlns="http://www.w3.org/2000/svg">
<rect width="32" height="32" fill="white"/>
<path d="M13.7508 18.4705L14.3131 17.6436L13.7508 18.4705ZM4.06231 10.6731C3.60561 10.3625 2.98363 10.481 2.67307 10.9377C2.36252 11.3944 2.48099 12.0164 2.93769 12.3269L4.06231 10.6731ZM18.2492 18.4705L17.6869 17.6436L18.2492 18.4705ZM29.0623 12.3269C29.519 12.0164 29.6375 11.3944 29.3269 10.9377C29.0164 10.481 28.3944 10.3625 27.9377 10.6731L29.0623 12.3269ZM25 28V27V28ZM7 28V29V28ZM29 12H28H29ZM29 24H30H29ZM3 12H2H3ZM3 24H4H3ZM25 8L25 9L25 8ZM7 8.00002L7 7.00002L7 8.00002ZM14.3131 17.6436L4.06231 10.6731L2.93769 12.3269L13.1884 19.2974L14.3131 17.6436ZM18.8115 19.2974L29.0623 12.3269L27.9377 10.6731L17.6869 17.6436L18.8115 19.2974ZM13.1884 19.2974C14.8852 20.4513 17.1147 20.4513 18.8115 19.2974L17.6869 17.6436C16.6688 18.3359 15.3311 18.3359 14.3131 17.6436L13.1884 19.2974ZM25 27L7 27V29L25 29V27ZM28 12V24H30V12H28ZM2 12L2 24H4L4 12H2ZM25 7L7 7.00002L7 9.00002L25 9L25 7ZM30 12C30 9.23857 27.7614 6.99999 25 7L25 9C26.6568 9 28 10.3431 28 12H30ZM4 12C4 10.3432 5.34314 9.00002 7 9.00002L7 7.00002C4.23857 7.00002 2 9.2386 2 12H4ZM7 27C5.34315 27 4 25.6569 4 24H2C2 26.7614 4.23858 29 7 29V27ZM25 29C27.7614 29 30 26.7614 30 24H28C28 25.6568 26.6569 27 25 27V29Z" fill="black"/>
</svg>
