<svg width="32" height="32" viewBox="0 0 32 32" fill="none" xmlns="http://www.w3.org/2000/svg">
<rect width="32" height="32" fill="white"/>
<path d="M26.1153 3.00002V4.00002V3.00002ZM5.88474 3L5.88474 2H5.88474V3ZM28.2498 7.82522L28.9897 8.4979L28.2498 7.82522ZM19 18L18.2601 17.3273L18 17.6134V18H19ZM13 18H14V17.6134L13.7399 17.3273L13 18ZM3.75021 7.82523L4.49015 7.15255L4.49015 7.15255L3.75021 7.82523ZM19 26.7639H20H19ZM13 25.7639H14H13ZM16.1056 28.5528L16.5528 27.6584H16.5528L16.1056 28.5528ZM14.1056 27.5528L14.5528 26.6584V26.6584L14.1056 27.5528ZM29 5.88474H28H29ZM3 5.88474H2H3ZM26.1153 2.00002L5.88474 2L5.88474 4L26.1153 4.00002V2.00002ZM27.5099 7.15255L18.2601 17.3273L19.7399 18.6727L28.9897 8.4979L27.5099 7.15255ZM13.7399 17.3273L4.49015 7.15255L3.01027 8.4979L12.2601 18.6727L13.7399 17.3273ZM18 18V26.7639H20V18H18ZM14 25.7639V18H12V25.7639H14ZM16.5528 27.6584L14.5528 26.6584L13.6584 28.4472L15.6584 29.4472L16.5528 27.6584ZM12 25.7639C12 26.9002 12.642 27.939 13.6584 28.4472L14.5528 26.6584C14.214 26.489 14 26.1427 14 25.7639H12ZM30 5.88474C30 3.73927 28.2607 2.00002 26.1153 2.00002V4.00002C27.1562 4.00002 28 4.84384 28 5.88474H30ZM4 5.88474C4 4.84383 4.84383 4 5.88474 4V2C3.73926 2 2 3.73926 2 5.88474H4ZM18 26.7639C18 27.5073 17.2177 27.9908 16.5528 27.6584L15.6584 29.4472C17.6531 30.4446 20 28.9941 20 26.7639H18ZM2 5.88474C2 6.85113 2.3602 7.78283 3.01027 8.4979L4.49015 7.15255C4.17476 6.80563 4 6.3536 4 5.88474H2ZM28 5.88474C28 6.3536 27.8252 6.80563 27.5099 7.15255L28.9897 8.4979C29.6398 7.78283 30 6.85113 30 5.88474H28Z" fill="black"/>
</svg>
