<?xml version="1.0" encoding="utf-8"?>
<!-- Generator: Adobe Illustrator 19.0.1, SVG Export Plug-In . SVG Version: 6.00 Build 0)  -->
<svg version="1.1" xmlns="http://www.w3.org/2000/svg" xmlns:xlink="http://www.w3.org/1999/xlink" x="0px" y="0px"
	 viewBox="0 0 1327.4 264.4" style="enable-background:new 0 0 1327.4 264.4;" xml:space="preserve">
<style type="text/css">
	.st0{display:none;}
	.st1{display:inline;fill:#F4F5FA;}
	.st2{fill:url(#SVGID_1_);}
	.st3{fill:#DB5100;}
	.st4{fill:#FFFFFF;}
</style>
<g id="Слой_2" class="st0">
	<rect x="-131.1" y="-220.8" class="st1" width="1624" height="700"/>
</g>
<g id="Слой_6">
	<g>
		<g>
			<g>
				<path d="M319.1,83.4v24.8c-1.9-0.4-4-0.6-6.1-0.6c-14,0-26.1,10.8-26.1,29.7c0,12.5,0,45.1,0,45.1h-29.2V85.1h29.2v11.4
					c1.3-3.2,6.6-14.2,23.1-14.2C313,82.3,316.4,82.7,319.1,83.4z"/>
				<path d="M432.8,134.2c0,7-1.5,13.8-4.2,20.3c-2.7,6.3-6.4,11.7-11.2,16.5c-4.7,4.9-10.2,8.5-16.5,11.2
					c-6.4,2.8-13.3,4.2-20.3,4.2c-7,0-13.8-1.3-20.3-4c-6.3-2.7-11.8-6.4-16.7-11.2c-4.7-4.7-8.5-10.4-11.2-16.5
					c-2.7-6.4-4-13.3-4-20.3c-0.2-7,1.3-13.8,4-20.3c2.6-6.3,6.4-11.9,11.2-16.7c4.7-4.7,10.2-8.5,16.5-11.2
					c6.4-2.7,13.3-4.2,20.3-4.2s13.8,1.3,20.3,4.2c6.3,2.5,11.8,6.3,16.7,11c4.7,4.9,8.5,10.4,11.2,16.7
					C431.3,120.4,432.6,127.2,432.8,134.2z M406.8,134.2c0-14.6-11.7-26.1-26.3-26.1c-14.4,0-26.1,11.7-26.1,26.1
					c0,14.6,11.7,26.3,26.3,26.3C395.1,160.6,406.8,148.6,406.8,134.2z"/>
				<path d="M454.2,133.3c0-9.5,0-48.3,0-48.3h29.4c0,21,0,38.7,0,48.3c0,15.5,5.3,23.7,22.6,23.7c12.5,0,22-10,22.2-22.9
					c0,0,0.4-30.3,0.4-49.1H558v97.6h-29.4v-7.8c-0.2,0.2-10.2,11-26,11C462.7,185.8,454.2,156.2,454.2,133.3z"/>
				<path d="M681.5,134.2c0,9.5,0,48.3,0,48.3h-29.4c0-21,0-38.7,0-48.3c0-15.5-5.3-23.7-22.7-23.7c-12.5,0-22,10.2-22.2,23.1
					c0,12.1,0,48.9,0,48.9h-29.7V85h29.4v7.8c0.2-0.2,10.2-11,26.1-11C673,81.7,681.5,111.3,681.5,134.2z"/>
				<path d="M810.2,48.6v134h-29.6v-7.4c-9.1,6.6-20.1,10.8-32,10.8c-28,0-52.5-23.9-52.5-52.5c0-27.1,23.1-52.3,52.5-52.3
					c11.4,0,22.4,3.8,32,10.8V48.6H810.2z M774.9,133.5c0-14.4-11.8-26.3-26.3-26.3s-26.3,11.9-26.3,26.3
					c0,14.6,11.7,26.5,26.3,26.5S774.9,148,774.9,133.5z"/>
				<path d="M949.2,138.6c0,9.9,0,44,0,44h-29.2c0,0,0-33.9,0-44c0-14.4-5.9-23.9-23.3-23.9c-12.5,0-22.7,10.4-22.9,23.3v44.5h-29.8
					V48.4h29.8V95c0.2-0.2,10.4-11.4,26.3-11.4C940.7,83.6,949.2,115.5,949.2,138.6z"/>
				<path d="M1075.4,134.2c0,7-1.5,13.8-4.2,20.3c-2.7,6.3-6.4,11.7-11.2,16.5c-4.7,4.9-10.2,8.5-16.5,11.2
					c-6.4,2.8-13.3,4.2-20.3,4.2c-7,0-13.8-1.3-20.3-4c-6.3-2.7-11.7-6.4-16.7-11.2c-4.7-4.7-8.5-10.4-11.2-16.5
					c-2.7-6.4-4-13.3-4-20.3c-0.2-7,1.3-13.8,4-20.3c2.7-6.3,6.4-11.9,11.2-16.7c4.7-4.7,10.2-8.5,16.5-11.2
					c6.4-2.7,13.3-4.2,20.3-4.2c7,0,13.8,1.3,20.3,4.2c6.2,2.5,11.7,6.3,16.7,11c4.7,4.9,8.5,10.4,11.2,16.7
					C1073.9,120.4,1075.2,127.2,1075.4,134.2z M1049.5,134.2c0-14.6-11.8-26.1-26.3-26.1c-14.4,0-26.1,11.7-26.1,26.1
					c0,14.6,11.7,26.3,26.3,26.3C1037.7,160.6,1049.5,148.6,1049.5,134.2z"/>
				<path d="M1193.8,85v95.3c0,26-18.4,59.3-59.3,59.3c-18.2,0-32.6-9.5-36.8-12.7l19.7-22c4.7,3.2,10.6,5.3,17.1,5.3
					c15.7,0,28.6-12.3,29.7-27.7c-7.2,3.6-15.3,5.7-23.9,5.7c-29.4,0-53.1-23.7-53.1-53.1c0-29.2,23.7-53.1,53.1-53.1
					c8.7,0,17.1,2.7,24.1,8.3V85H1193.8z M1164.5,134.6c0-13.8-11.4-26.9-26.5-26.9c-14.4,0-26.2,11.7-26.2,26.3
					c0,14.6,11.8,26.3,26.2,26.3C1151.4,160.4,1164.5,149,1164.5,134.6z"/>
				<path d="M1316,85v95.3c0,26-18.4,59.3-59.3,59.3c-18.2,0-32.6-9.5-36.8-12.7l19.7-22c4.7,3.2,10.6,5.3,17.1,5.3
					c15.7,0,28.6-12.3,29.7-27.7c-7.2,3.6-15.3,5.7-23.9,5.7c-29.4,0-53.1-23.7-53.1-53.1c0-29.2,23.7-53.1,53.1-53.1
					c8.7,0,17.1,2.7,24.1,8.3V85H1316z M1286.7,134.6c0-13.8-11.4-26.9-26.5-26.9c-14.4,0-26.2,11.7-26.2,26.3
					c0,14.6,11.8,26.3,26.2,26.3C1273.6,160.4,1286.7,149,1286.7,134.6z"/>
			</g>
		</g>
		<linearGradient id="SVGID_1_" gradientUnits="userSpaceOnUse" x1="35.6087" y1="214.0245" x2="199.26" y2="50.3731">
			<stop  offset="0.2824" style="stop-color:#DB851A"/>
			<stop  offset="1" style="stop-color:#DB6F1A"/>
		</linearGradient>
		<path class="st2" d="M22.7,64.4l83.4-48.2c7-4,15.7-4,22.7,0l83.4,48.2c7,4,11.3,11.5,11.3,19.6v96.3c0,8.1-4.3,15.6-11.3,19.6
			l-83.4,48.2c-7,4-15.7,4-22.7,0L22.7,200c-7-4-11.3-11.5-11.3-19.6V84C11.3,75.9,15.7,68.5,22.7,64.4z"/>
		<path class="st3" d="M183.5,140.8v4.9c0,36.5-29.6,66.1-66.1,66.1c-36.5,0-66-29.6-66-66.1c0-36.5,29.5-66.1,66-66.1
			c18.2,0,34.6,7.4,46.6,19.2l-24.5,24.3c-5.6-5.3-13-8.8-22-8.8c-16.6,0-31.2,13.2-31.2,31.4s15,31.4,31.2,31.4
			c10.4,0,20.1-5.1,25.6-13.1h-25.6v-23.3H183.5z"/>
		<path class="st4" d="M183.5,126.1v4.9c0,36.5-29.6,66.1-66.1,66.1c-36.5,0-66-29.6-66-66.1c0-36.5,29.5-66.1,66-66.1
			c18.2,0,34.6,7.4,46.6,19.2l-24.5,24.3c-5.6-5.3-13-8.8-22-8.8c-16.6,0-31.2,13.2-31.2,31.4s15,31.4,31.2,31.4
			c10.4,0,20.1-5.1,25.6-13.1h-25.6v-23.3H183.5z"/>
	</g>
</g>
</svg>
