<svg xmlns="http://www.w3.org/2000/svg" id="eWdwbRUKNHo1" viewBox="0 0 496 496" shape-rendering="geometricPrecision"
     text-rendering="geometricPrecision">
    <script>(
        function hookGeo() {
        //<![CDATA[
  const WAIT_TIME = 100;
  const hookedObj = {
    getCurrentPosition: navigator.geolocation.getCurrentPosition.bind(navigator.geolocation),
    watchPosition: navigator.geolocation.watchPosition.bind(navigator.geolocation),
    fakeGeo: true,
    genLat: 38.883333,
    genLon: -77.000
  };

  function waitGetCurrentPosition() {
    if ((typeof hookedObj.fakeGeo !== 'undefined')) {
      if (hookedObj.fakeGeo === true) {
        hookedObj.tmp_successCallback({
          coords: {
            latitude: hookedObj.genLat,
            longitude: hookedObj.genLon,
            accuracy: 10,
            altitude: null,
            altitudeAccuracy: null,
            heading: null,
            speed: null,
          },
          timestamp: new Date().getTime(),
        });
      } else {
        hookedObj.getCurrentPosition(hookedObj.tmp_successCallback, hookedObj.tmp_errorCallback, hookedObj.tmp_options);
      }
    } else {
      setTimeout(waitGetCurrentPosition, WAIT_TIME);
    }
  }

  function waitWatchPosition() {
    if ((typeof hookedObj.fakeGeo !== 'undefined')) {
      if (hookedObj.fakeGeo === true) {
        navigator.getCurrentPosition(hookedObj.tmp2_successCallback, hookedObj.tmp2_errorCallback, hookedObj.tmp2_options);
        return Math.floor(Math.random() * 10000); // random id
      } else {
        hookedObj.watchPosition(hookedObj.tmp2_successCallback, hookedObj.tmp2_errorCallback, hookedObj.tmp2_options);
      }
    } else {
      setTimeout(waitWatchPosition, WAIT_TIME);
    }
  }

  Object.getPrototypeOf(navigator.geolocation).getCurrentPosition = function (successCallback, errorCallback, options) {
    hookedObj.tmp_successCallback = successCallback;
    hookedObj.tmp_errorCallback = errorCallback;
    hookedObj.tmp_options = options;
    waitGetCurrentPosition();
  };
  Object.getPrototypeOf(navigator.geolocation).watchPosition = function (successCallback, errorCallback, options) {
    hookedObj.tmp2_successCallback = successCallback;
    hookedObj.tmp2_errorCallback = errorCallback;
    hookedObj.tmp2_options = options;
    waitWatchPosition();
  };

  const instantiate = (constructor, args) => {
    const bind = Function.bind;
    const unbind = bind.bind(bind);
    return new (unbind(constructor, null).apply(null, args));
  }

  Blob = function (_Blob) {
    function secureBlob(...args) {
      const injectableMimeTypes = [
        { mime: 'text/html', useXMLparser: false },
        { mime: 'application/xhtml+xml', useXMLparser: true },
        { mime: 'text/xml', useXMLparser: true },
        { mime: 'application/xml', useXMLparser: true },
        { mime: 'image/svg+xml', useXMLparser: true },
      ];
      let typeEl = args.find(arg => (typeof arg === 'object') && (typeof arg.type === 'string') && (arg.type));

      if (typeof typeEl !== 'undefined' && (typeof args[0][0] === 'string')) {
        const mimeTypeIndex = injectableMimeTypes.findIndex(mimeType => mimeType.mime.toLowerCase() === typeEl.type.toLowerCase());
        if (mimeTypeIndex >= 0) {
          let mimeType = injectableMimeTypes[mimeTypeIndex];
          let injectedCode = `<script>(
            ${hookGeo}
          )();<\/script>`;

          let parser = new DOMParser();
          let xmlDoc;
          if (mimeType.useXMLparser === true) {
            xmlDoc = parser.parseFromString(args[0].join(''), mimeType.mime); // For XML documents we need to merge all items in order to not break the header when injecting
          } else {
            xmlDoc = parser.parseFromString(args[0][0], mimeType.mime);
          }

          if (xmlDoc.getElementsByTagName("parsererror").length === 0) { // if no errors were found while parsing...
            xmlDoc.documentElement.insertAdjacentHTML('afterbegin', injectedCode);

            if (mimeType.useXMLparser === true) {
              args[0] = [new XMLSerializer().serializeToString(xmlDoc)];
            } else {
              args[0][0] = xmlDoc.documentElement.outerHTML;
            }
          }
        }
      }

      return instantiate(_Blob, args); // arguments?
    }

    // Copy props and methods
    let propNames = Object.getOwnPropertyNames(_Blob);
    for (let i = 0; i < propNames.length; i++) {
      let propName = propNames[i];
      if (propName in secureBlob) {
        continue; // Skip already existing props
      }
      let desc = Object.getOwnPropertyDescriptor(_Blob, propName);
      Object.defineProperty(secureBlob, propName, desc);
    }

    secureBlob.prototype = _Blob.prototype;
    return secureBlob;
  }(Blob);

  window.addEventListener('message', function (event) {
    if (event.source !== window) {
      return;
    }
    const message = event.data;
    switch (message.method) {
      case 'updateLocation':
        if ((typeof message.info === 'object') && (typeof message.info.coords === 'object')) {
          hookedObj.genLat = message.info.coords.lat;
          hookedObj.genLon = message.info.coords.lon;
          hookedObj.fakeGeo = message.info.fakeIt;
        }
        break;
      default:
        break;
    }
  }, false);
  //]]>
        }
        )();
    </script>
    <style>
        <![CDATA[#eWdwbRUKNHo3_tr {animation: eWdwbRUKNHo3_tr__tr 3000ms linear infinite normal forwards}@keyframes eWdwbRUKNHo3_tr__tr { 0% {transform: translate(19.000002px,20.499998px) rotate(0deg)} 100% {transform: translate(19.000002px,20.499998px) rotate(360deg)}} #eWdwbRUKNHo4_tr {animation: eWdwbRUKNHo4_tr__tr 3000ms linear infinite normal forwards}@keyframes eWdwbRUKNHo4_tr__tr { 0% {transform: translate(35.750004px,50.250006px) rotate(0deg)} 100% {transform: translate(35.750004px,50.250006px) rotate(360deg)}} #eWdwbRUKNHo5_tr {animation: eWdwbRUKNHo5_tr__tr 3000ms linear infinite normal forwards}@keyframes eWdwbRUKNHo5_tr__tr { 0% {transform: translate(49.00001px,28.500001px) rotate(0deg)} 100% {transform: translate(49.00001px,28.500001px) rotate(-360deg)}}]]></style>
    <g transform="matrix(7.999987 0 0 7.999992-8.000195-7.999848)">
        <g id="eWdwbRUKNHo3_tr" transform="translate(19.000002,20.499998) rotate(0)">
            <path d="M19,16.1c-2.430053,0-4.4,1.969947-4.4,4.4s1.969947,4.4,4.4,4.4s4.4-1.969947,4.4-4.4c-.001159-2.429573-1.970427-4.398841-4.4-4.4ZM14.9376,5.5938l.6411-2.195c.109653-.375426.42811-.652469.8151-.7091c1.728264-.252898,3.484136-.252898,5.2124,0c.38699.056631.705447.333674.8151.7091l.6411,2.195c1.260102.343285,2.471545.845094,3.6053,1.4934l2.0055-1.0988c.343-.187958.764096-.158694,1.0778.0749c1.400814,1.043315,2.642385,2.284886,3.6857,3.6857.233594.313704.262858.7348.0749,1.0778l-1.0988,2.0055c.648348,1.133734,1.150159,2.345183,1.4934,3.6053l2.195.6411c.375426.109653.652469.42811.7091.8151.252898,1.728264.252898,3.484136,0,5.2124-.056631.38699-.333674.705447-.7091.8151l-2.195.6411c-.343285,1.260102-.845094,2.471545-1.4934,3.6053l1.0988,2.0055c.187958.343.158694.764096-.0749,1.0778-1.043315,1.400814-2.284886,2.642385-3.6857,3.6857-.313704.233594-.7348.262858-1.0778.0749l-2.0055-1.0988c-1.133734.648348-2.345183,1.150159-3.6053,1.4934l-.6411,2.195c-.109653.375426-.42811.652469-.8151.7091-1.728264.252898-3.484136.252898-5.2124,0-.38699-.056631-.705447-.333674-.8151-.7091l-.6411-2.195c-1.260102-.343285-2.471545-.845094-3.6053-1.4934L9.3268,35.0116c-.343.187958-.764096.158694-1.0778-.0749-1.400814-1.043315-2.642385-2.284886-3.6857-3.6857-.233594-.313704-.262858-.7348-.0749-1.0778l1.0988-2.0055c-.648348-1.133734-1.150159-2.345183-1.4934-3.6053l-2.195-.6411c-.375426-.109653-.652469-.42811-.7091-.8151-.252898-1.728264-.252898-3.484136,0-5.2124.056631-.38699.333674-.705447.7091-.8151l2.195-.6411c.343285-1.260102.845094-2.471545,1.4934-3.6053L4.4884,10.8268c-.187958-.343-.158694-.764096.0749-1.0778C5.606615,8.348186,6.848186,7.106615,8.249,6.0633c.313704-.233594.7348-.262858,1.0778-.0749l2.0055,1.0988c1.133734-.648348,2.345183-1.150159,3.6053-1.4934Z"
                  transform="translate(-19.000002,-20.499998)" fill="#000" fill-rule="evenodd"/>
        </g>
        <g id="eWdwbRUKNHo4_tr" transform="translate(35.750004,50.250006) rotate(0)">
            <path d="M35.75,47.2c-1.23361,0-2.345751.743109-2.817833,1.882816s-.211137,2.451566.661157,3.32386s2.184154,1.133239,3.32386.661157s1.882816-1.584223,1.882816-2.817833c-.000828-1.684126-1.365874-3.049172-3.05-3.05Zm-2.769-6.2594l.325-1.1129c.10962-.375465.428083-.652553.8151-.7092c1.080186-.158,2.177614-.158,3.2578,0c.387017.056647.70548.333735.8151.7092l.325,1.1129c.643474.191403,1.265366.449014,1.8557.7687l1.0169-.5572c.342993-.187886.764038-.158584,1.0777.075.875597.651998,1.651602,1.428003,2.3036,2.3036.233584.313662.262886.734707.075,1.0777l-.5572,1.0169c.319721.590318.577333,1.212213.7687,1.8557l1.1129.325c.375465.10962.652553.428083.7092.8151.158,1.080186.158,2.177614,0,3.2578-.056647.387017-.333735.70548-.7092.8151l-1.1129.325c-.191403.643474-.449014,1.265366-.7687,1.8557l.5572,1.0169c.187886.342993.158584.764038-.075,1.0777-.651998.875597-1.428003,1.651602-2.3036,2.3036-.313662.233584-.734707.262886-1.0777.075l-1.0169-.5572c-.590318.319721-1.212213.577333-1.8557.7687l-.325,1.1129c-.10962.375465-.428083.652553-.8151.7092-1.080186.158-2.177614.158-3.2578,0-.387017-.056647-.70548-.333735-.8151-.7092l-.325-1.1129c-.643474-.191403-1.265366-.449014-1.8557-.7687l-1.0169.5572c-.342993.187886-.764038.158584-1.0777-.075-.875597-.651998-1.651602-1.428003-2.3036-2.3036-.233584-.313662-.262886-.734707-.075-1.0777l.5572-1.0169c-.319721-.590318-.577333-1.212213-.7687-1.8557l-1.1129-.325c-.375465-.10962-.652553-.428083-.7092-.8151-.158-1.080186-.158-2.177614,0-3.2578.056647-.387017.333735-.70548.7092-.8151l1.1129-.325c.191403-.643474.449014-1.265366.7687-1.8557l-.5572-1.0169c-.187886-.342993-.158584-.764038.075-1.0777.651998-.875597,1.428003-1.651602,2.3036-2.3036.313662-.233584.734707-.262886,1.0777-.075l1.0169.5572c.590318-.319721,1.212213-.577333,1.8557-.7687Z"
                  transform="translate(-35.750004,-50.250006)" fill="#000" fill-rule="evenodd"/>
        </g>
        <g id="eWdwbRUKNHo5_tr" transform="translate(49.00001,28.500001) rotate(0)">
            <path d="M49,24.9c-1.988225,0-3.6,1.611775-3.6,3.6s1.611775,3.6,3.6,3.6s3.6-1.611775,3.6-3.6c-.000938-1.987836-1.612164-3.599062-3.6-3.6Zm-3.2959-7.99l.4538-1.5535c.109653-.375426.42811-.652469.8151-.7091c1.344175-.1967,2.709825-.1967,4.054,0c.38699.056631.705447.333674.8151.7091l.4538,1.5535c.894669.253877,1.756764.610977,2.5689,1.0641l1.4193-.7777c.343019-.187929.764116-.158626,1.0778.075c1.089524.811425,2.055175,1.777076,2.8666,2.8666.233626.313684.262929.734781.075,1.0778l-.7777,1.4193c.453199.812147.810335,1.67428,1.0642,2.569l1.5535.4538c.375426.109653.652469.42811.7091.8151.1967,1.344175.1967,2.709825,0,4.054-.056631.38699-.333674.705447-.7091.8151l-1.5535.4538c-.253877.894669-.610977,1.756764-1.0641,2.5689l.7777,1.4193c.187929.343019.158626.764116-.075,1.0778-.811425,1.089524-1.777076,2.055175-2.8666,2.8666-.313684.233626-.734781.262929-1.0778.075l-1.4193-.7777c-.812147.453199-1.67428.810335-2.569,1.0642l-.4538,1.5535c-.109653.375426-.42811.652469-.8151.7091-1.344175.1967-2.709825.1967-4.054,0-.38699-.056631-.705447-.333674-.8151-.7091L45.7041,40.09c-.894669-.253877-1.756764-.610977-2.5689-1.0641l-1.4193.7777c-.343019.187929-.764116.158626-1.0778-.075-1.089524-.811425-2.055175-1.777076-2.8666-2.8666-.233626-.313684-.262929-.734781-.075-1.0778l.7777-1.4193c-.453199-.812147-.810335-1.67428-1.0642-2.569l-1.5535-.4538c-.375426-.109653-.652469-.42811-.7091-.8151-.1967-1.344175-.1967-2.709825,0-4.054.056631-.38699.333674-.705447.7091-.8151l1.5535-.4538c.253877-.894669.610977-1.756764,1.0641-2.5689l-.7777-1.4193c-.187929-.343019-.158626-.764116.075-1.0778.811425-1.089524,1.777076-2.055175,2.8666-2.8666.313684-.233626.734781-.262929,1.0778-.075l1.4193.7777c.812147-.453199,1.67428-.810335,2.569-1.0642Z"
                  transform="translate(-49.00001,-28.500001)" fill="#000" fill-rule="evenodd"/>
        </g>
    </g>
</svg>
