<svg width="16" height="16" viewBox="0 0 16 16" fill="none" xmlns="http://www.w3.org/2000/svg">
<rect width="16" height="16" fill="white"/>
<path fill-rule="evenodd" clip-rule="evenodd" d="M5.51904 1C4.96343 1 4.44627 1.24935 4.09409 1.66526L4.04958 1.71782L1.40919 5.88216C0.487039 7.06892 1.21734 9 2.8853 9H2.89466L2.87021 9.04692L2.86188 9.06276C2.82312 9.13634 2.75897 9.25814 2.70572 9.39132L1.49329 12.4232C1.49134 12.4281 1.48559 12.4414 1.46965 12.4732C1.46214 12.4882 1.45433 12.5034 1.44389 12.5237L1.44189 12.5277C1.43129 12.5483 1.41798 12.5743 1.40443 12.6015C1.35358 12.7038 1.26488 12.8894 1.22116 13.1206C1.06039 13.9706 1.6523 15 2.7506 15C2.79633 15 2.84185 14.998 2.88703 14.9939C3.24874 15.035 3.61343 14.8749 3.8249 14.5655L8.15038 11H11.8228L11.8346 10.9999C13.6279 10.9788 15 9.4651 15 7.69532C15 6.18758 14.0037 4.8654 12.6 4.49423C12.2681 3.40318 11.5842 2.46899 10.678 1.84092C10.3654 1.34991 9.82956 1 9.11465 1H5.51904ZM10.3836 4.39243L8.50529 7.05152C9.16518 7.21535 9.60223 7.7459 9.75457 8.29406C9.81622 8.51587 9.83666 8.75794 9.80854 8.99996H11.8159C12.4302 8.98988 13 8.45146 13 7.69532C13 6.9316 12.4194 6.39069 11.7975 6.39069L11.7875 6.39073L10.9153 6.39841L10.7892 5.53527C10.7283 5.11824 10.5868 4.7316 10.3836 4.39243ZM3.06851 7.00008L5.60475 3H8.92626C8.89517 3.03888 8.85394 3.09147 8.81394 3.14809L6.83772 5.94576C6.82783 5.95977 6.81717 5.97311 6.78169 6.01755L6.77041 6.03168C6.73466 6.07647 6.67264 6.15435 6.61287 6.24666C6.01225 7.17431 6.41603 8.57218 7.52972 8.91966L3.82812 11.971L4.56274 10.1339C4.57432 10.105 4.59165 10.0706 4.64086 9.97686L4.64479 9.96938C4.68566 9.89161 4.75348 9.76255 4.80904 9.61701C5.24042 8.48706 4.50497 7.01221 3.06851 7.00008Z" fill="black"/>
<path d="M11.6444 13.4473C11.8914 12.9533 11.6912 12.3526 11.1972 12.1056C10.7032 11.8586 10.1026 12.0589 9.85557 12.5528L9.35557 13.5528C9.10858 14.0468 9.30881 14.6475 9.80279 14.8945C10.2968 15.1415 10.8974 14.9412 11.1444 14.4473L11.6444 13.4473Z" fill="black"/>
</svg>
