<svg width="16" height="16" viewBox="0 0 16 16" fill="none" xmlns="http://www.w3.org/2000/svg">
<rect width="16" height="16" fill="white"/>
<path d="M10.1832 1.26985C10.5865 1.64721 10.6075 2.28003 10.2301 2.68328L9 3.9978L9 4V6.26804L10.6548 5.31262L11.506 3.31994C11.723 2.81205 12.3106 2.5762 12.8185 2.79315C13.3263 3.01009 13.5622 3.59769 13.3452 4.10558L12.887 5.17841L14.0454 5.31798C14.5937 5.38405 14.9846 5.88211 14.9186 6.43043C14.8525 6.97875 14.3544 7.36969 13.8061 7.30362L11.6552 7.04445L10.0001 8.00005L11.6754 8.96733L13.8263 8.70819C14.3747 8.64213 14.8727 9.03307 14.9388 9.58139C15.0048 10.1297 14.6139 10.6278 14.0656 10.6938L12.9073 10.8334L13.3656 11.9063C13.5826 12.4142 13.3467 13.0017 12.8388 13.2187C12.3309 13.4356 11.7433 13.1998 11.5264 12.6919L10.6752 10.6993L9 9.73207V11.6664L10.3001 13.3999C10.6315 13.8418 10.542 14.4686 10.1001 14.7999C9.65831 15.1313 9.03151 15.0418 8.70014 14.5999L8.00012 13.6666L7.30005 14.6C6.96867 15.0418 6.34187 15.1313 5.90005 14.7999C5.45823 14.4686 5.36869 13.8418 5.70007 13.3999L7 11.6667V9.73214L5.01366 10.879L4.49037 12.6015C4.32984 13.1299 3.77132 13.4282 3.24288 13.2677C2.71444 13.1071 2.41619 12.5486 2.57673 12.0202L2.90421 10.9422L1.80677 10.6868C1.26886 10.5616 0.934272 10.024 1.05945 9.48613C1.18463 8.94822 1.72217 8.61364 2.26008 8.73882L4.01367 9.1469L6.00007 8.00005L4.03584 6.86601L4.03388 6.86488L2.28037 7.273C1.74246 7.39819 1.20491 7.06362 1.07972 6.52571C0.954521 5.9878 1.28909 5.45025 1.827 5.32506L2.92446 5.06963L2.59695 3.99164C2.4364 3.46321 2.73463 2.90468 3.26307 2.74413C3.7915 2.58359 4.35003 2.88182 4.51058 3.41025L5.03393 5.13286L5.03584 5.13396L7 6.26797V4L7 3.9978L5.76986 2.68333C5.39249 2.28009 5.41346 1.64727 5.8167 1.2699C6.21995 0.892522 6.85277 0.913493 7.23014 1.31674L7.99999 2.13936L8.7698 1.31672C9.14717 0.91347 9.77999 0.892482 10.1832 1.26985Z" fill="black"/>
</svg>
