<svg width="16" height="16" viewBox="0 0 16 16" fill="none" xmlns="http://www.w3.org/2000/svg">
<g clip-path="url(#clip0)">
<rect width="16" height="16" fill="white"/>
<path d="M11.7071 3.70711L8.70711 6.70711C8.31658 7.09763 7.68342 7.09763 7.29289 6.70711L4.29289 3.70711C3.90237 3.31658 3.90237 2.68342 4.29289 2.29289C4.68342 1.90237 5.31658 1.90237 5.70711 2.29289L7 3.58579V1C7 0.447715 7.44772 0 8 0C8.55228 0 9 0.447715 9 1V3.58579L10.2929 2.29289C10.6834 1.90237 11.3166 1.90237 11.7071 2.29289C12.0976 2.68342 12.0976 3.31658 11.7071 3.70711Z" fill="black"/>
<path d="M9 10C9 10.5523 8.55228 11 8 11C7.44772 11 7 10.5523 7 10C7 9.44771 7.44772 9 8 9C8.55228 9 9 9.44771 9 10Z" fill="black"/>
<path d="M13.5 11.5C13.5 12.0523 13.0523 12.5 12.5 12.5C11.9477 12.5 11.5 12.0523 11.5 11.5C11.5 10.9477 11.9477 10.5 12.5 10.5C13.0523 10.5 13.5 10.9477 13.5 11.5Z" fill="black"/>
<path d="M6 16C6 14.8954 6.89543 14 8 14C9.10457 14 10 14.8954 10 16V18H12V16C12 13.7909 10.2091 12 8 12C5.79086 12 4 13.7909 4 16V18H6V16Z" fill="black"/>
<path d="M2 17C2.55228 17 3 16.5523 3 16C3 15.4477 2.55228 15 2 15C1.44772 15 1 15.4477 1 16C1 16.5523 1.44772 17 2 17Z" fill="black"/>
<path d="M14 17C14.5523 17 15 16.5523 15 16C15 15.4477 14.5523 15 14 15C13.4478 15 13 15.4477 13 16C13 16.5523 13.4478 17 14 17Z" fill="black"/>
<path d="M3.5 12.5C4.05228 12.5 4.5 12.0523 4.5 11.5C4.5 10.9477 4.05228 10.5 3.5 10.5C2.94772 10.5 2.5 10.9477 2.5 11.5C2.5 12.0523 2.94772 12.5 3.5 12.5Z" fill="black"/>
</g>
<defs>
<clipPath id="clip0">
<rect width="16" height="16" fill="white"/>
</clipPath>
</defs>
</svg>
