<svg width="16" height="16" viewBox="0 0 16 16" fill="none" xmlns="http://www.w3.org/2000/svg">
<rect width="16" height="16" fill="white"/>
<path d="M10.6828 1L10.6793 1.00001L10.6731 1C9.00878 1 7.70373 2.26014 7.41009 3.81435C7.30755 4.35703 7.66437 4.88008 8.20705 4.98262C8.74973 5.08515 9.27278 4.72834 9.37532 4.18565C9.51287 3.45762 10.0859 3 10.6731 3C11.3396 3 12 3.60279 12 4.5C12 5.40129 11.3401 6 10.6828 6H2C1.44772 6 1 6.44772 1 7C1 7.55228 1.44772 8 2 8H10.6828C12.585 8 14 6.36014 14 4.5C14 4.44187 13.9986 4.38396 13.9959 4.3263C13.9111 2.53897 12.5255 1 10.6828 1Z" fill="black"/>
<path d="M9.10411 15L9.10111 15L9.09615 15C7.99543 15 7.0603 14.3709 6.57104 13.4824C6.30464 12.9986 6.48086 12.3904 6.96465 12.124C7.44843 11.8576 8.05658 12.0339 8.32298 12.5176C8.49209 12.8247 8.78749 13 9.09615 13C9.54948 13 10 12.5993 10 12C10 11.3967 9.5492 11 9.10411 11H5C4.44772 11 4 10.5523 4 10C4 9.44772 4.44772 9 5 9H9.10411C10.7532 9 12 10.3942 12 12C12 12.0251 11.9997 12.0501 11.9991 12.0751C11.9609 13.649 10.7274 15 9.10411 15Z" fill="black"/>
</svg>
