<svg xmlns="http://www.w3.org/2000/svg" viewBox="0 0 100 100"><path d="M50.014 94.429a2.991 2.991 0 0 1-2.12-.879l-16.44-16.438a3 3 0 1 1 4.243-4.243l14.317 14.317L64.302 72.9a3 3 0 0 1 4.243 4.243L52.135 93.55a2.991 2.991 0 0 1-2.12.879Z"/><path d="M53 36.675V91.43c0 1.65-1.34 3-3 3s-3-1.35-3-3V36.675l3-3 3 3ZM47.173 30.848 11.14 66.872c-.59.59-1.35.88-2.12.88s-1.54-.29-2.12-.88a3 3 0 0 1 0-4.24l36.514-36.514c.33.97.89 1.86 1.64 2.61l2.12 2.12Z"/><path d="M31.612 68.909H8.365a3 3 0 0 1-3-3V42.703a3 3 0 0 1 6 0v20.206h20.247a3 3 0 0 1 0 6ZM90.994 67.767a2.99 2.99 0 0 1-2.121-.879L47.879 25.895a2.997 2.997 0 0 1-.88-2.121V8.569a3 3 0 0 1 6 0v13.962l40.116 40.115a2.999 2.999 0 0 1-2.121 5.121Z"/><path d="M91.635 68.909H68.387a3 3 0 0 1 0-6h20.248V42.703a3 3 0 0 1 6 0v23.206a3 3 0 0 1-3 3Z"/></svg>