<svg xmlns="http://www.w3.org/2000/svg" viewBox="0 0 100 100"><path d="M71.032 34.988c-.437-5.932-3.386-11.212-7.769-14.771a20.459 20.459 0 0 0-3.954-2.537 20.574 20.574 0 0 0-7.785-2.134c-3.822-.264-7.53.47-10.841 2.109a20.54 20.54 0 0 0-3.955 2.537c-.379.305-.75.626-1.104.956a21.178 21.178 0 0 0-6.714 15.438c0 3.724.98 7.381 2.843 10.578 2.15 3.699 6.211 5.997 10.602 5.997h15.29c4.374 0 8.428-2.274 10.578-5.948 2.15-3.69 3.122-7.917 2.809-12.225Z"/><path d="M63.296 9.672a9.26 9.26 0 0 0-7.776-4.21H44.48a9.26 9.26 0 0 0-7.776 4.21 9.253 9.253 0 0 0-.725 8.815l.75 1.705 2.084 4.745c.057-.057.123-.115.18-.173a16.182 16.182 0 0 1 3.675-2.578l-1.985-4.531-.462-1.038a4.59 4.59 0 0 1 .363-4.416 4.593 4.593 0 0 1 3.896-2.109h11.04c1.598 0 3.023.775 3.896 2.11a4.59 4.59 0 0 1 .363 4.415l-.47 1.063-1.985 4.522a16.19 16.19 0 0 1 3.855 2.752l2.084-4.737.758-1.73a9.253 9.253 0 0 0-.725-8.815ZM51.4 94.538a2.99 2.99 0 0 1-2.12-.88l-9.063-9.062a3 3 0 1 1 4.242-4.242l6.941 6.94 6.926-6.924a3 3 0 0 1 4.242 4.243l-9.047 9.046a2.992 2.992 0 0 1-2.12.879Z"/><path d="M54.39 69v21.87c0 1.66-1.34 3-3 3-1.65 0-3-1.34-3-3V68.99l3-2.99 3 3ZM48.57 63.18l-.18.18-30.314 30.325c-.59.59-1.36.88-2.12.88-.77 0-1.54-.29-2.12-.88a2.982 2.982 0 0 1 0-4.24L44.8 58.47l.01-.01c.33.97.89 1.85 1.63 2.59l2.13 2.13Z"/><path d="M28.768 94.538H15.95a3 3 0 0 1-3-3V78.744a3 3 0 1 1 6 0v9.794h9.817a3 3 0 1 1 0 6ZM88.929 93.639c-.59.59-1.35.88-2.12.88s-1.54-.29-2.12-.88L49.27 58.23c-.56-.57-.88-1.33-.88-2.13v-3.35h6v2.11l34.539 34.539a3 3 0 0 1 0 4.24Z"/><path d="M86.806 94.538H73.99a3 3 0 1 1 0-6h9.816v-9.794a3 3 0 1 1 6 0v12.794a3 3 0 0 1-3 3Z"/></svg>