<svg width="32" height="32" viewBox="0 0 32 32" fill="none" xmlns="http://www.w3.org/2000/svg">
<rect width="32" height="32" fill="white"/>
<path d="M16 29C23.1797 29 29 23.1797 29 16C29 8.8203 23.1797 3 16 3M16 29C8.8203 29 3 23.1797 3 16C3 8.8203 8.8203 3 16 3M16 29C12.6863 29 10 23.1797 10 16C10 8.8203 12.6863 3 16 3M16 29C19.3137 29 22 23.1797 22 16C22 8.8203 19.3137 3 16 3M3 15C3 16.6569 8.8203 18 16 18C23.1797 18 29 16.6569 29 15" stroke="black" stroke-width="2" stroke-linecap="round" stroke-linejoin="round"/>
</svg>
