<svg width="32" height="32" viewBox="0 0 32 32" fill="none" xmlns="http://www.w3.org/2000/svg">
<rect width="32" height="32" fill="white"/>
<path d="M3 10C3 6.13401 8.8203 3 16 3C23.1797 3 29 6.13401 29 10M3 10V23C3 25.4015 4.95646 27.5394 8 28.9121V15.9121C4.95646 14.5394 3 12.4015 3 10ZM29 10V23C29 25.4015 27.0435 27.5394 24 28.9121V15.9121C27.0435 14.5394 29 12.4015 29 10ZM8 21.5C10.1191 20.6927 13.2067 20 16 20C18.7933 20 21.8809 20.6927 24 21.5" stroke="black" stroke-width="2" stroke-linecap="round" stroke-linejoin="round"/>
</svg>
