<svg width="32" height="32" viewBox="0 0 32 32" fill="none" xmlns="http://www.w3.org/2000/svg">
<rect width="32" height="32" fill="white"/>
<path d="M16 29L15.3812 29.7855C15.7442 30.0715 16.2558 30.0715 16.6188 29.7855L16 29ZM12 12C11.4477 12 11 12.4477 11 13C11 13.5523 11.4477 14 12 14V12ZM20 14C20.5523 14 21 13.5523 21 13C21 12.4477 20.5523 12 20 12V14ZM17 9C17 8.44772 16.5523 8 16 8C15.4477 8 15 8.44772 15 9H17ZM15 17C15 17.5523 15.4477 18 16 18C16.5523 18 17 17.5523 17 17H15ZM25 12.6923C25 16.5449 22.693 20.3909 20.2294 23.3701C19.0143 24.8395 17.7966 26.0556 16.8822 26.9045C16.4256 27.3283 16.0463 27.659 15.7829 27.8823C15.6513 27.994 15.5487 28.0787 15.4801 28.1346C15.4458 28.1626 15.42 28.1834 15.4033 28.1968C15.395 28.2035 15.3889 28.2083 15.3852 28.2113C15.3833 28.2128 15.3821 28.2138 15.3814 28.2143C15.3811 28.2146 15.3809 28.2147 15.3808 28.2147C15.3808 28.2148 15.3809 28.2147 15.3809 28.2147C15.381 28.2146 15.3812 28.2145 16 29C16.6188 29.7855 16.6191 29.7853 16.6193 29.7851C16.6195 29.785 16.6198 29.7848 16.6201 29.7845C16.6207 29.7841 16.6214 29.7835 16.6223 29.7828C16.624 29.7814 16.6264 29.7796 16.6293 29.7772C16.6352 29.7726 16.6435 29.766 16.654 29.7575C16.6752 29.7405 16.7055 29.7161 16.7445 29.6843C16.8224 29.6208 16.9347 29.528 17.0764 29.4077C17.36 29.1673 17.7619 28.8167 18.2428 28.3703C19.2034 27.4786 20.4857 26.1984 21.7706 24.6446C24.307 21.5774 27 17.2696 27 12.6923H25ZM16 29C16.6188 28.2145 16.619 28.2146 16.6191 28.2147C16.6191 28.2147 16.6192 28.2148 16.6192 28.2147C16.6191 28.2147 16.6189 28.2146 16.6186 28.2143C16.6179 28.2138 16.6167 28.2128 16.6148 28.2113C16.6111 28.2083 16.605 28.2035 16.5967 28.1968C16.58 28.1834 16.5542 28.1626 16.5199 28.1346C16.4513 28.0787 16.3487 27.994 16.2171 27.8823C15.9537 27.659 15.5744 27.3283 15.1178 26.9045C14.2034 26.0556 12.9857 24.8395 11.7706 23.3701C9.30701 20.3909 7 16.5449 7 12.6923H5C5 17.2696 7.69299 21.5774 10.2294 24.6446C11.5143 26.1984 12.7966 27.4786 13.7572 28.3703C14.2381 28.8167 14.64 29.1673 14.9236 29.4077C15.0653 29.528 15.1776 29.6208 15.2555 29.6843C15.2945 29.7161 15.3248 29.7405 15.346 29.7575C15.3565 29.766 15.3648 29.7726 15.3707 29.7772C15.3736 29.7796 15.376 29.7814 15.3777 29.7828C15.3786 29.7835 15.3793 29.7841 15.3799 29.7845C15.3802 29.7848 15.3805 29.785 15.3807 29.7851C15.3809 29.7853 15.3812 29.7855 16 29ZM7 12.6923C7 7.92091 10.9997 4 16 4V2C9.95456 2 5 6.75788 5 12.6923H7ZM16 4C21.0003 4 25 7.92091 25 12.6923H27C27 6.75788 22.0454 2 16 2V4ZM12 14H20V12H12V14ZM15 9V17H17V9H15Z" fill="black"/>
</svg>
