<svg width="32" height="32" viewBox="0 0 32 32" fill="none" xmlns="http://www.w3.org/2000/svg">
<rect width="32" height="32" fill="white"/>
<path d="M21 7C21 6.44772 20.5523 6 20 6C19.4477 6 19 6.44772 19 7V23C19 23.5523 19.4477 24 20 24C20.5523 24 21 23.5523 21 23V7Z" fill="black"/>
<path d="M13 12.3333C13 11.781 12.5523 11.3333 12 11.3333C11.4477 11.3333 11 11.781 11 12.3333L11 23C11 23.5523 11.4477 24 12 24C12.5523 24 13 23.5523 13 23L13 12.3333Z" fill="black"/>
<path d="M4 16.6667C4.55228 16.6667 5 17.1144 5 17.6667L5 23C5 23.5523 4.55229 24 4 24C3.44772 24 3 23.5523 3 23L3 17.6667C3 17.1144 3.44772 16.6667 4 16.6667Z" fill="black"/>
<path d="M2 29C2 28.4477 2.44772 28 3 28H29C29.5523 28 30 28.4477 30 29C30 29.5523 29.5523 30 29 30H3C2.44772 30 2 29.5523 2 29Z" fill="black"/>
<path d="M28 11.3333C28.5523 11.3333 29 11.781 29 12.3333V23C29 23.5523 28.5523 24 28 24C27.4477 24 27 23.5523 27 23V12.3333C27 11.781 27.4477 11.3333 28 11.3333Z" fill="black"/>
</svg>
