<svg width="32" height="32" viewBox="0 0 32 32" fill="none" xmlns="http://www.w3.org/2000/svg">
<rect width="32" height="32" fill="white"/>
<path d="M28.669 10.7433C29.0795 10.3738 29.1128 9.74155 28.7433 9.33104C28.3738 8.92053 27.7415 8.88726 27.331 9.25671L18.0362 17.622L11.7071 11.2929C11.3166 10.9024 10.6834 10.9024 10.2929 11.2929L3.29289 18.2929C2.90237 18.6834 2.90237 19.3166 3.29289 19.7071C3.68342 20.0976 4.31658 20.0976 4.70711 19.7071L11 13.4142L17.2929 19.7071C17.669 20.0832 18.2736 20.0991 18.669 19.7433L28.669 10.7433Z" fill="black"/>
<path d="M3 28C2.44772 28 2 28.4477 2 29C2 29.5523 2.44772 30 3 30H29C29.5523 30 30 29.5523 30 29C30 28.4477 29.5523 28 29 28H3Z" fill="black"/>
</svg>
