<svg width="16" height="16" viewBox="0 0 16 16" fill="none" xmlns="http://www.w3.org/2000/svg">
<rect width="16" height="16" fill="white"/>
<path fill-rule="evenodd" clip-rule="evenodd" d="M9 6.82929C10.1652 6.41746 11 5.30622 11 4C11 2.34315 9.65685 1 8 1C6.34315 1 5 2.34315 5 4C5 5.30622 5.83481 6.41746 7 6.82929V12.9C4.71776 12.4367 3 10.419 3 8C3 7.44772 2.55228 7 2 7C1.44772 7 1 7.44772 1 8C1 11.866 4.13401 15 8 15C11.866 15 15 11.866 15 8C15 7.44772 14.5523 7 14 7C13.4477 7 13 7.44772 13 8C13 10.419 11.2822 12.4367 9 12.9V6.82929ZM7 4C7 3.44772 7.44772 3 8 3C8.55228 3 9 3.44772 9 4C9 4.55228 8.55228 5 8 5C7.44772 5 7 4.55228 7 4Z" fill="black"/>
</svg>
