<svg width="16" height="16" viewBox="0 0 16 16" fill="none" xmlns="http://www.w3.org/2000/svg">
<rect width="16" height="16" fill="white"/>
<path fill-rule="evenodd" clip-rule="evenodd" d="M12.4386 3.56138C11.6901 2.81287 10.4765 2.81287 9.72804 3.56138C9.33752 3.9519 8.70435 3.9519 8.31383 3.56137C7.92331 3.17085 7.92331 2.53768 8.31383 2.14716C9.84339 0.617614 12.3233 0.617614 13.8528 2.14716C15.3824 3.67671 15.3824 6.1566 13.8528 7.68615L7.68617 13.8528C6.15662 15.3824 3.67672 15.3824 2.14717 13.8528C0.617611 12.3233 0.617611 9.8434 2.14717 8.31385L2.14943 8.31159L4.7388 5.73875L4.74013 5.73741C5.68077 4.79816 7.21803 4.72239 8.20715 5.71152C9.17243 6.6768 9.17243 8.24182 8.20715 9.2071L6.43798 10.9763C6.04746 11.3668 5.4143 11.3668 5.02377 10.9763C4.63325 10.5857 4.63325 9.95258 5.02377 9.56206L6.79294 7.79289C6.97717 7.60866 6.97717 7.30996 6.79294 7.12573C6.63302 6.96581 6.362 6.94397 6.15301 7.15296L6.15075 7.15522L3.56138 9.72807L3.5604 9.72905C2.81287 10.4776 2.8132 11.6905 3.56138 12.4386C4.30988 13.1871 5.52345 13.1871 6.27195 12.4386L12.4386 6.27193C13.1871 5.52343 13.1871 4.30988 12.4386 3.56138Z" fill="black"/>
</svg>
