<svg width="16" height="16" viewBox="0 0 16 16" fill="none" xmlns="http://www.w3.org/2000/svg">
<rect width="16" height="16" fill="white"/>
<path fill-rule="evenodd" clip-rule="evenodd" d="M2.38604 1.21069C2.82199 0.871624 3.45027 0.950158 3.78934 1.38611L8 6.79981L12.2107 1.38611C12.5497 0.950158 13.178 0.871624 13.614 1.21069C14.0499 1.54976 14.1284 2.17804 13.7894 2.61399L9.26686 8.42864L10.186 9.61037C10.6898 9.22735 11.3183 9 12 9C13.6569 9 15 10.3431 15 12C15 13.6569 13.6569 15 12 15C10.3431 15 9 13.6569 9 12C9 11.8002 9.01953 11.605 9.05678 11.4162L8 10.0575L6.94322 11.4162C6.98047 11.605 7 11.8002 7 12C7 13.6569 5.65685 15 4 15C2.34315 15 1 13.6569 1 12C1 10.3431 2.34315 9 4 9C4.68167 9 5.31024 9.22735 5.81401 9.61037L6.73314 8.42864L2.21063 2.61399C1.87156 2.17804 1.9501 1.54976 2.38604 1.21069ZM3 12C3 11.4477 3.44772 11 4 11C4.55228 11 5 11.4477 5 12C5 12.5523 4.55228 13 4 13C3.44772 13 3 12.5523 3 12ZM11 12C11 11.4477 11.4477 11 12 11C12.5523 11 13 11.4477 13 12C13 12.5523 12.5523 13 12 13C11.4477 13 11 12.5523 11 12Z" fill="black"/>
</svg>
