<svg width="16" height="16" viewBox="0 0 16 16" fill="none" xmlns="http://www.w3.org/2000/svg">
<rect width="16" height="16" fill="white"/>
<path d="M14 3C14.5523 3 15 2.55228 15 2C15 1.44772 14.5523 1 14 1H2C1.44771 1 1 1.44772 1 2C1 2.55228 1.44771 3 2 3H14Z" fill="black"/>
<path d="M7 7C7.55228 7 8 6.55228 8 6C8 5.44772 7.55228 5 7 5H2C1.44771 5 1 5.44772 1 6C1 6.55228 1.44771 7 2 7H7Z" fill="black"/>
<path d="M15 10C15 10.5523 14.5523 11 14 11H2C1.44771 11 1 10.5523 1 10C1 9.44771 1.44771 9 2 9H14C14.5523 9 15 9.44771 15 10Z" fill="black"/>
<path d="M7 15C7.55228 15 8 14.5523 8 14C8 13.4477 7.55228 13 7 13H2C1.44771 13 1 13.4477 1 14C1 14.5523 1.44771 15 2 15H7Z" fill="black"/>
</svg>
