<svg width="16" height="16" viewBox="0 0 16 16" fill="none" xmlns="http://www.w3.org/2000/svg">
<rect width="16" height="16" fill="white"/>
<path d="M2 3C1.44772 3 1 2.55228 1 2C1 1.44772 1.44772 1 2 1H14C14.5523 1 15 1.44772 15 2C15 2.55228 14.5523 3 14 3H2Z" fill="black"/>
<path d="M9 7C8.44772 7 8 6.55228 8 6C8 5.44772 8.44772 5 9 5H14C14.5523 5 15 5.44772 15 6C15 6.55228 14.5523 7 14 7H9Z" fill="black"/>
<path d="M1 10C1 10.5523 1.44772 11 2 11H14C14.5523 11 15 10.5523 15 10C15 9.44771 14.5523 9 14 9H2C1.44772 9 1 9.44771 1 10Z" fill="black"/>
<path d="M9 15C8.44772 15 8 14.5523 8 14C8 13.4477 8.44772 13 9 13H14C14.5523 13 15 13.4477 15 14C15 14.5523 14.5523 15 14 15H9Z" fill="black"/>
</svg>
