<svg width="16" height="16" viewBox="0 0 16 16" fill="none" xmlns="http://www.w3.org/2000/svg">
<rect width="16" height="16" fill="white"/>
<path d="M3.46206 1.80861C3.43766 1.74964 3.40149 1.69439 3.35355 1.64645C3.30562 1.59851 3.25036 1.56234 3.19139 1.53794C3.13244 1.51349 3.06779 1.5 3 1.5C2.93221 1.5 2.86756 1.51349 2.80861 1.53794C2.74964 1.56234 2.69439 1.59851 2.64645 1.64645L1.64645 2.64645C1.45118 2.84171 1.45118 3.15829 1.64645 3.35355C1.84171 3.54882 2.15829 3.54882 2.35355 3.35355L2.5 3.20711V5C2.5 5.27614 2.72386 5.5 3 5.5C3.27614 5.5 3.5 5.27614 3.5 5V2C3.5 1.93221 3.48651 1.86756 3.46206 1.80861Z" fill="black"/>
<path d="M14 4C14.5523 4 15 3.55228 15 3C15 2.44772 14.5523 2 14 2H6C5.44771 2 5 2.44772 5 3C5 3.55228 5.44771 4 6 4H14Z" fill="black"/>
<path d="M15 8C15 8.55228 14.5523 9 14 9H6C5.44771 9 5 8.55228 5 8C5 7.44772 5.44771 7 6 7H14C14.5523 7 15 7.44772 15 8Z" fill="black"/>
<path d="M15 13C15 13.5523 14.5523 14 14 14H6C5.44771 14 5 13.5523 5 13C5 12.4477 5.44771 12 6 12H14C14.5523 12 15 12.4477 15 13Z" fill="black"/>
<path d="M2.75 7.5C2.61193 7.5 2.5 7.61193 2.5 7.75C2.5 8.02614 2.27614 8.25 2 8.25C1.72386 8.25 1.5 8.02614 1.5 7.75C1.5 7.05964 2.05964 6.5 2.75 6.5C3.05487 6.5 3.37246 6.59261 3.61906 6.81972C3.87238 7.05303 4 7.38175 4 7.75C4 7.93041 3.93499 8.08587 3.87641 8.19535C3.81488 8.31035 3.73527 8.42037 3.65606 8.51938C3.53092 8.6758 3.37176 8.8468 3.22257 9.00709C3.18674 9.04559 3.15147 9.08348 3.1174 9.12039C2.99437 9.25367 2.88122 9.37998 2.78474 9.5H3.5C3.77614 9.5 4 9.72386 4 10C4 10.2761 3.77614 10.5 3.5 10.5H2C1.72386 10.5 1.5 10.2761 1.5 10C1.5 9.65853 1.66451 9.35144 1.82077 9.1214C1.98446 8.88041 2.19499 8.64536 2.3826 8.44211C2.42465 8.39655 2.4653 8.35284 2.50444 8.31075C2.65057 8.1536 2.77577 8.01896 2.87519 7.89468L2.88721 7.87974C2.9647 7.7836 3.06049 7.66477 2.9416 7.55528C2.91675 7.53239 2.85934 7.5 2.75 7.5Z" fill="black"/>
<path d="M2 11.5C1.72386 11.5 1.5 11.7239 1.5 12C1.5 12.2761 1.72386 12.5 2 12.5H2.74982C2.64763 12.6361 2.53358 12.7662 2.40954 12.8838C2.20869 13.0706 2.19574 13.3843 2.38058 13.5869C2.48378 13.7001 2.5699 13.7901 2.64573 13.8693C2.73939 13.9672 2.81733 14.0487 2.89231 14.137C2.9516 14.2069 2.98336 14.2529 2.99917 14.2817C2.99333 14.3894 2.95819 14.4294 2.9416 14.4447C2.91675 14.4676 2.85934 14.5 2.75 14.5C2.61193 14.5 2.5 14.3881 2.5 14.25C2.5 13.9739 2.27614 13.75 2 13.75C1.72386 13.75 1.5 13.9739 1.5 14.25C1.5 14.9404 2.05964 15.5 2.75 15.5C3.05487 15.5 3.37246 15.4074 3.61906 15.1803C3.87238 14.947 4 14.6183 4 14.25C4 13.9158 3.78857 13.6476 3.65475 13.4899C3.59377 13.4181 3.51594 13.334 3.43383 13.247C3.46245 13.2124 3.49169 13.1759 3.52103 13.1378C3.62701 13.0003 3.74167 12.8324 3.83159 12.6493C3.91923 12.4709 4 12.2449 4 12C4 11.8674 3.94732 11.7402 3.85355 11.6464C3.75979 11.5527 3.63261 11.5 3.5 11.5H2Z" fill="black"/>
</svg>
