<svg width="16" height="16" viewBox="0 0 16 16" fill="none" xmlns="http://www.w3.org/2000/svg">
<rect width="16" height="16" fill="white"/>
<path fill-rule="evenodd" clip-rule="evenodd" d="M12.229 3.12134C11.8385 2.73086 11.2053 2.73086 10.8148 3.12134L6.93574 7.00011L8.99998 9.0642L12.8789 5.1854C13.2693 4.79495 13.2694 4.16178 12.8789 3.77121L12.229 3.12134ZM7.58574 10.4784L5.52151 8.41431L4.2606 9.67525C4.62428 10.0697 4.61163 10.6811 4.23221 11.0605L2.87059 12.422L3.57761 13.1292L4.92503 11.7821C5.30447 11.4027 5.91562 11.3904 6.30998 11.7541L7.58574 10.4784ZM7.72418 13.1683C7.21227 13.6801 6.49267 13.8564 5.83767 13.6978L4.99193 14.5434C4.21106 15.3243 2.94447 15.3246 2.16358 14.5436L1.45631 13.8365C0.675517 13.0555 0.675394 11.7892 1.45605 11.0081L2.31671 10.1475C2.15819 9.49216 2.33503 8.77281 2.84582 8.26161L9.40061 1.70712C10.5721 0.535634 12.4716 0.535604 13.6432 1.70709L14.2931 2.35693C15.4645 3.5285 15.4646 5.42806 14.2931 6.59961L7.72418 13.1683Z" fill="black"/>
</svg>
