<svg xmlns="http://www.w3.org/2000/svg" viewBox="0 0 100 100"><path d="M81.92 64.076H52.303a3 3 0 1 0 0 6h29.615a3 3 0 1 0 0-6Z"/><path d="M70.111 52.268a3 3 0 0 0-6 0v29.616c0 .828.336 1.578.88 2.121a3 3 0 0 0 5.121-2.122V52.269Z"/><path d="M67.111 94.538c-15.123 0-27.426-12.304-27.426-27.427s12.303-27.426 27.426-27.426 27.427 12.303 27.427 27.426S82.234 94.538 67.11 94.538Zm0-48.853c-11.814 0-21.426 9.612-21.426 21.426s9.612 21.427 21.426 21.427 21.427-9.612 21.427-21.427-9.612-21.426-21.427-21.426Z"/><path d="M35.69 67.11c0 1.35.09 2.68.25 3.98-3.72 4.14-7.22 11.15-2.72 21 .63 1.38-.73 2.84-2.17 2.35C22.93 91.67 5.46 83.57 5.46 65c0-22.38 17.63-18.86 17.63-38.19 0-1.85 2.08-2.94 3.59-1.86 2.47 1.79 5.59 4.27 8.06 6.97 1.81 1.97 5.06.81 5.15-1.86.22-5.87-.53-13.88-4.72-21.2-1.13-1.98 1.04-4.2 3.05-3.11 9.5 5.15 24.28 15.08 32.15 30.11-1.07-.11-2.16-.17-3.26-.17-17.33 0-31.42 14.09-31.42 31.42Z"/></svg>