<svg width="16" height="16" viewBox="0 0 16 16" fill="none" xmlns="http://www.w3.org/2000/svg">
<rect width="16" height="16" fill="white"/>
<path fill-rule="evenodd" clip-rule="evenodd" d="M12.2687 3.83414C11.1565 2.72196 9.35334 2.72195 8.24116 3.83413L3.4142 8.6611L7.44176 12.6887L12.2687 7.8617C13.3809 6.74952 13.3809 4.94632 12.2687 3.83414ZM6.82695 2.41992C8.72018 0.52669 11.7897 0.526695 13.6829 2.41992C15.5762 4.31315 15.5762 7.38268 13.6829 9.27591L8.37559 14.5833C7.85985 15.099 7.02367 15.099 6.50794 14.5833L4.72081 12.7961L2.71565 14.8013C2.32513 15.1918 1.69196 15.1918 1.30144 14.8013C0.910914 14.4108 0.910914 13.7776 1.30144 13.3871L3.3066 11.3819L1.51959 9.59492C1.00386 9.07919 1.00386 8.24301 1.51959 7.72727L6.82695 2.41992Z" fill="black"/>
</svg>
