<svg width="32" height="32" viewBox="0 0 32 32" fill="none" xmlns="http://www.w3.org/2000/svg">
<rect width="32" height="32" fill="white"/>
<path d="M13 14C12.4477 14 12 14.4477 12 15C12 15.5523 12.4477 16 13 16H19C19.5523 16 20 15.5523 20 15C20 14.4477 19.5523 14 19 14H13Z" fill="black"/>
<path fill-rule="evenodd" clip-rule="evenodd" d="M2 7C2 7.94227 2.43442 8.78308 3.1139 9.33307C3.04014 9.54167 3 9.76615 3 10L3 25C3 27.7614 5.23858 30 8 30L24 30C26.7614 30 29 27.7614 29 25L29 10C29 9.76617 28.9599 9.54168 28.8861 9.33308C29.5656 8.78309 30 7.94228 30 7V5.00001C30 3.34316 28.6569 2.00001 27 2.00001L5 2C3.34315 2 2 3.34315 2 5V7ZM28 7V5.00001C28 4.44773 27.5523 4.00001 27 4.00001L5 4C4.44772 4 4 4.44771 4 5L4 7C4 7.55228 4.44772 8 5 8H27C27.5523 8 28 7.55228 28 7ZM5 25L5 10L27 10L27 25C27 26.6569 25.6569 28 24 28L8 28C6.34315 28 5 26.6569 5 25Z" fill="black"/>
</svg>
