<svg width="32" height="32" viewBox="0 0 32 32" fill="none" xmlns="http://www.w3.org/2000/svg">
<rect width="32" height="32" fill="white"/>
<path fill-rule="evenodd" clip-rule="evenodd" d="M30 24L30 12C30 9.23857 27.7614 7 25 7L6.99999 7.00002C4.23857 7.00002 2 9.2386 2 12V24C2 26.7614 4.23858 29 7 29L25 29C27.7614 29 30 26.7614 30 24ZM28 13.0493L28 24C28 25.6568 26.6569 27 25 27L7 27C5.34314 27 4 25.6569 4 24L4 13.0493L13.1884 19.2974C14.8852 20.4512 17.1147 20.4512 18.8115 19.2974L28 13.0493ZM27.7505 10.8003C27.2876 9.7406 26.2303 9 25 9L7 9.00002C5.76968 9.00002 4.71234 9.74063 4.24948 10.8003L14.313 17.6436C15.3311 18.3359 16.6688 18.3359 17.6869 17.6436L27.7505 10.8003Z" fill="black"/>
</svg>
