<svg width="32" height="32" viewBox="0 0 32 32" fill="none" xmlns="http://www.w3.org/2000/svg">
<rect width="32" height="32" fill="white"/>
<path fill-rule="evenodd" clip-rule="evenodd" d="M30.4008 5.44578C31.3029 3.04025 28.9612 0.687655 26.5515 1.57858L3.73396 10.0148C1.32941 10.9039 1.07564 14.2042 3.31599 15.4504L11.2727 19.8763C11.4514 19.9757 11.5953 20.1274 11.685 20.3111L16.0625 29.2673C17.2184 31.6323 20.6425 31.4681 21.5668 29.0033L30.4008 5.44578ZM28.4645 4.91323L13.4893 19.448L17.8594 28.389C18.2447 29.1774 19.386 29.1226 19.6941 28.301L28.4645 4.91323ZM12.0747 18.0338L4.2882 13.7026C3.54142 13.2872 3.62601 12.1871 4.42752 11.8907L27.0041 3.54355L12.0747 18.0338Z" fill="black"/>
</svg>
