<svg width="32" height="32" viewBox="0 0 32 32" fill="none" xmlns="http://www.w3.org/2000/svg">
<rect width="32" height="32" fill="white"/>
<path fill-rule="evenodd" clip-rule="evenodd" d="M14 29C14 29.3629 14.1967 29.6974 14.5138 29.8738C14.831 30.0503 15.2188 30.0411 15.5272 29.8497L25.5272 23.6452C25.8149 23.4667 25.9928 23.1547 25.9998 22.8162C26.0068 22.4777 25.8421 22.1586 25.5621 21.9684L16.7384 15.9722L25.5882 9.53601C25.8625 9.33653 26.0169 9.01162 25.9985 8.67296C25.9801 8.33431 25.7913 8.02807 25.497 7.85951L15.497 2.13224C15.1875 1.95499 14.8071 1.95599 14.4985 2.13484C14.1899 2.3137 14 2.64335 14 3V13.9967L6.60106 8.43221C6.15967 8.10026 5.53275 8.18897 5.20079 8.63036C4.86884 9.07175 4.95756 9.69867 5.39895 10.0306L13.2285 15.919L5.47443 20.7092C5.00458 20.9994 4.85899 21.6156 5.14925 22.0855C5.43951 22.5554 6.05571 22.7009 6.52557 22.4107L14 17.7932V29ZM23.1624 8.82722L16 14.0362V4.72512L23.1624 8.82722ZM23.1647 22.7573L16 17.8886L16 27.2027L23.1647 22.7573Z" fill="black"/>
</svg>
