<svg width="32" height="32" viewBox="0 0 32 32" fill="none" xmlns="http://www.w3.org/2000/svg">
<rect width="32" height="32" fill="white"/>
<path d="M4 13.3294C4 10.0643 5.04207 7.04558 6.81195 4.58373C7.13433 4.1353 7.03215 3.51043 6.58373 3.18805C6.1353 2.86567 5.51043 2.96784 5.18805 3.41627C3.18176 6.20697 2 9.63168 2 13.3294C2 17.0272 3.18176 20.4519 5.18805 23.2426C5.51043 23.6911 6.1353 23.7932 6.58373 23.4708C7.03216 23.1485 7.13433 22.5236 6.81195 22.0752C5.04207 19.6133 4 16.5946 4 13.3294Z" fill="black"/>
<path d="M27.8115 13.3294C27.8115 10.0643 26.7694 7.04558 24.9996 4.58373C24.6772 4.1353 24.7794 3.51043 25.2278 3.18805C25.6762 2.86567 26.3011 2.96784 26.6235 3.41627C28.6298 6.20697 29.8115 9.63168 29.8115 13.3294C29.8115 17.0272 28.6298 20.4519 26.6235 23.2426C26.3011 23.6911 25.6762 23.7932 25.2278 23.4708C24.7794 23.1485 24.6772 22.5236 24.9996 22.0752C26.7694 19.6133 27.8115 16.5946 27.8115 13.3294Z" fill="black"/>
<path d="M21.1818 8.16294C22.2088 9.62496 22.8115 11.4054 22.8115 13.3296C22.8115 15.2538 22.2088 17.0342 21.1818 18.4962C20.8643 18.9482 20.9734 19.5719 21.4253 19.8893C21.8772 20.2068 22.5009 20.0978 22.8184 19.6458C24.0742 17.8581 24.8115 15.6785 24.8115 13.3296C24.8115 10.9807 24.0742 8.80107 22.8184 7.01333C22.5009 6.5614 21.8772 6.45239 21.4253 6.76985C20.9734 7.0873 20.8643 7.71101 21.1818 8.16294Z" fill="black"/>
<path fill-rule="evenodd" clip-rule="evenodd" d="M17 16.874C18.7252 16.4299 20 14.8638 20 13C20 10.7909 18.2091 9 16 9C13.7909 9 12 10.7909 12 13C12 14.8638 13.2748 16.4299 15 16.874L15 29C15 29.5523 15.4477 30 16 30C16.5523 30 17 29.5523 17 29L17 16.874ZM14 13C14 11.8954 14.8954 11 16 11C17.1046 11 18 11.8954 18 13C18 14.1046 17.1046 15 16 15C14.8954 15 14 14.1046 14 13Z" fill="black"/>
<path d="M10.6297 8.16294C9.60272 9.62496 9 11.4054 9 13.3296C9 15.2538 9.60272 17.0342 10.6297 18.4962C10.9472 18.9482 10.8382 19.5719 10.3862 19.8893C9.93431 20.2068 9.3106 20.0978 8.99314 19.6458C7.73734 17.8581 7 15.6785 7 13.3296C7 10.9807 7.73734 8.80107 8.99314 7.01333C9.3106 6.5614 9.93431 6.45239 10.3862 6.76985C10.8382 7.0873 10.9472 7.71101 10.6297 8.16294Z" fill="black"/>
</svg>
