<svg width="32" height="32" viewBox="0 0 32 32" fill="none" xmlns="http://www.w3.org/2000/svg">
<rect width="32" height="32" fill="white"/>
<path fill-rule="evenodd" clip-rule="evenodd" d="M23.3614 27.0445C24.3812 27.1052 25.2276 26.8349 25.9207 26.1418L28.8502 23.2123C28.8683 23.1942 28.8735 23.1774 28.8747 23.1676L24.6878 18.9807C24.6779 18.9818 24.6612 18.9871 24.6431 19.0052L21.7136 21.9346C21.5256 22.1226 21.2705 22.228 21.0046 22.2275L21.0065 21.2275C21.0046 22.2275 21.0016 22.2275 21.0016 22.2275L20.9987 22.2275L20.9927 22.2274L20.9804 22.2272L20.9545 22.2262C20.9367 22.2254 20.9178 22.2241 20.8977 22.2222C20.8575 22.2185 20.8127 22.2126 20.7631 22.2038C20.6638 22.1863 20.5448 22.157 20.4037 22.1102C20.1225 22.0168 19.7462 21.851 19.2529 21.5581C18.2703 20.9745 16.7791 19.8598 14.5964 17.715C12.4093 15.5659 11.2864 14.0675 10.7067 13.0634C10.4156 12.5591 10.255 12.1684 10.1681 11.873C10.1244 11.7247 10.099 11.5994 10.0853 11.495C10.0784 11.4428 10.0745 11.3958 10.0727 11.354C10.0718 11.3331 10.0714 11.3135 10.0714 11.2952C10.0714 11.2861 10.0715 11.2772 10.0717 11.2687L10.0721 11.2562L10.0724 11.2501L10.0725 11.2471C10.0725 11.2471 10.0726 11.2442 11.0715 11.2925L10.0726 11.2442C10.0846 10.996 10.1886 10.7611 10.3644 10.5854L13.2938 7.65591C13.3119 7.63782 13.3172 7.62108 13.3183 7.61122L9.13141 3.42432C9.12155 3.42547 9.10481 3.43071 9.08671 3.4488L6.15722 6.3783C5.46164 7.07388 5.18931 7.919 5.24559 8.9324C5.30389 9.98203 5.71871 11.2006 6.41705 12.5176C7.81259 15.1496 10.1875 17.8946 12.2782 19.9853C14.3558 22.0629 17.1104 24.4475 19.7555 25.8554C21.0794 26.5601 22.3056 26.9817 23.3614 27.0445ZM12.1922 11.586L14.708 9.07013C15.476 8.30217 15.5551 7.0196 14.7426 6.20711L10.5355 2C9.72302 1.18751 8.44045 1.26664 7.6725 2.03459L4.743 4.96409C3.58437 6.12272 3.16593 7.55357 3.24867 9.04332C3.3294 10.4968 3.88341 12.0086 4.65008 13.4545C6.18456 16.3485 8.7243 19.2598 10.864 21.3995C12.9913 23.5268 15.9109 26.0747 18.8158 27.6209C20.2669 28.3933 21.7846 28.9542 23.2426 29.041C24.7366 29.1299 26.1738 28.7171 27.3349 27.556L30.2644 24.6265C31.0324 23.8585 31.1115 22.576 30.299 21.7635L26.0919 17.5564C25.2794 16.7439 23.9968 16.823 23.2289 17.591L20.733 20.0868C20.6114 20.0286 20.4593 19.9484 20.2741 19.8384C19.4766 19.3649 18.1132 18.3667 15.9982 16.2884C13.8875 14.2144 12.8976 12.8582 12.4388 12.0635C12.3263 11.8685 12.2473 11.7102 12.1922 11.586Z" fill="black"/>
</svg>
