<svg width="32" height="32" viewBox="0 0 32 32" fill="none" xmlns="http://www.w3.org/2000/svg">
<rect width="32" height="32" fill="white"/>
<path fill-rule="evenodd" clip-rule="evenodd" d="M29 14.1707V10C29 8.34314 27.6569 7 26 7L7 7.00002C5.34315 7.00002 4 8.34317 4 10L4 24.1707C2.83481 24.5825 2 25.6938 2 27C2 28.6569 3.34315 30 5 30H22C22.1073 30 22.2107 29.9831 22.3076 29.9518C22.4823 29.9835 22.6623 30 22.8462 30H28C29.6568 30 31 28.6569 31 27L31 17C31 15.6938 30.1652 14.5825 29 14.1707ZM27 14V10C27 9.44771 26.5523 9 26 9L7 9.00002C6.44772 9.00002 6 9.44773 6 10L6 24H19.5C19.6217 24 19.7383 24.0217 19.8462 24.0615V17C19.8462 15.3431 21.1893 14 22.8462 14H27ZM20.0169 28C19.9063 27.6872 19.8462 27.3506 19.8462 27V25.9385C19.7383 25.9783 19.6217 26 19.5 26L5 26C4.44772 26 4 26.4477 4 27C4 27.5523 4.44772 28 5 28H20.0169ZM28 28H22.8462C22.2939 28 21.8462 27.5523 21.8462 27V17C21.8462 16.4477 22.2939 16 22.8462 16L28 16C28.5523 16 29 16.4477 29 17L29 27C29 27.5523 28.5523 28 28 28Z" fill="black"/>
</svg>
