<svg width="32" height="32" viewBox="0 0 32 32" fill="none" xmlns="http://www.w3.org/2000/svg">
<rect width="32" height="32" fill="white"/>
<path fill-rule="evenodd" clip-rule="evenodd" d="M29 24.1707C30.1652 24.5825 31 25.6938 31 27C31 28.6569 29.6569 30 28 30H5C3.34315 30 2 28.6569 2 27C2 25.6938 2.83481 24.5825 4 24.1707L4 10C4 8.34317 5.34315 7.00002 7 7.00002L26 7C27.6569 7 29 8.34314 29 10V24.1707ZM27 24V10C27 9.44771 26.5523 9 26 9L7 9.00002C6.44772 9.00002 6 9.44773 6 10L6 24H27ZM28 26C28.5523 26 29 26.4477 29 27C29 27.5523 28.5523 28 28 28H5C4.44772 28 4 27.5523 4 27C4 26.4477 4.44772 26 5 26L28 26Z" fill="black"/>
</svg>
