<svg width="32" height="32" viewBox="0 0 32 32" fill="none" xmlns="http://www.w3.org/2000/svg">
<rect width="32" height="32" fill="white"/>
<path fill-rule="evenodd" clip-rule="evenodd" d="M18.889 25.98L23.9799 20.889C27.5336 17.3354 27.5336 11.5739 23.98 8.02023C20.4263 4.46659 14.6648 4.46658 11.1111 8.02021L6.0202 13.1111C2.46657 16.6648 2.46657 22.4263 6.0202 25.98C9.57383 29.5336 15.3354 29.5336 18.889 25.98ZM20.9041 21.1365L17.4748 24.5657C14.7022 27.3383 10.207 27.3383 7.43441 24.5657C4.66184 21.7932 4.66184 17.2979 7.43441 14.5253L10.8637 11.0961L20.9041 21.1365ZM22.3183 19.7222L18.0052 15.4091L23.2234 10.1909C25.3175 12.9723 25.0983 16.9422 22.5657 19.4748L22.3183 19.7222ZM21.8092 8.7767L16.591 13.9949L12.2779 9.68185L12.5253 9.43443C15.0579 6.90187 19.0278 6.68263 21.8092 8.7767Z" fill="black"/>
</svg>
