<svg width="32" height="32" viewBox="0 0 32 32" fill="none" xmlns="http://www.w3.org/2000/svg">
<rect width="32" height="32" fill="white"/>
<path d="M6 24.5C6 23.9477 6.44772 23.5 7 23.5H10C10.5523 23.5 11 23.9477 11 24.5C11 25.0523 10.5523 25.5 10 25.5H7C6.44772 25.5 6 25.0523 6 24.5Z" fill="black"/>
<path fill-rule="evenodd" clip-rule="evenodd" d="M26.9855 15C26.7267 10.5383 23.0266 7 18.5 7C13.9734 7 10.2733 10.5383 10.0145 15L5 15C3.34314 15 2 16.3432 2 18V27C2 28.6569 3.34315 30 5 30H27C28.6569 30 30 28.6569 30 27L30 18C30 16.3431 28.6569 15 27 15H26.9855ZM12 15.5C12 11.9101 14.9102 9 18.5 9C22.0899 9 25 11.9101 25 15.5C25 19.0899 22.0899 22 18.5 22C14.9102 22 12 19.0899 12 15.5ZM10.1319 17L5 17C4.44771 17 4 17.4477 4 18L4 27C4 27.5523 4.44772 28 5 28H27C27.5523 28 28 27.5523 28 27L28 18C28 17.4477 27.5523 17 27 17H26.8681C26.1596 20.979 22.6826 24 18.5 24C14.3174 24 10.8404 20.979 10.1319 17Z" fill="black"/>
</svg>
