<svg width="32" height="32" viewBox="0 0 32 32" fill="none" xmlns="http://www.w3.org/2000/svg">
<rect width="32" height="32" fill="white"/>
<path fill-rule="evenodd" clip-rule="evenodd" d="M30 22C30 23.8738 28.9693 25.5068 27.4439 26.3631L28.832 28.4453C29.1384 28.9048 29.0142 29.5257 28.5547 29.8321C28.0952 30.1384 27.4743 30.0142 27.1679 29.5547L25.4514 26.9799C25.3027 26.9932 25.1521 27 25 27L7 27C6.84784 27 6.69727 26.9932 6.54857 26.9799L4.83203 29.5547C4.52568 30.0142 3.90481 30.1384 3.44528 29.8321C2.98575 29.5257 2.86158 28.9048 3.16793 28.4453L4.5561 26.3631C3.03071 25.5068 2 23.8738 2 22V7.00002C2 4.2386 4.23857 2.00002 6.99999 2.00002L25 2C27.7614 2 30 4.23857 30 7L30 21L30 22ZM28 7V20H4L4 7.00002C4 5.34317 5.34314 4.00002 7 4.00002L25 4C26.6568 4 28 5.34314 28 7ZM4 22C4 23.6569 5.34314 25 7 25L25 25C26.6569 25 28 23.6568 28 22L4 22Z" fill="black"/>
</svg>
