<svg width="16" height="16" viewBox="0 0 16 16" fill="none" xmlns="http://www.w3.org/2000/svg">
<rect width="16" height="16" fill="white"/>
<path d="M7.82199 12.4571L8.81988 12.3921L7.82199 12.4571ZM7.21432 3.12008L6.21643 3.18502V3.18502L7.21432 3.12008ZM9.70643 12.5207L10.6977 12.6528L9.70643 12.5207ZM10.5144 6.4581L11.5057 6.59021L10.5144 6.4581ZM11.4435 6.40579L12.4136 6.16326V6.16326L11.4435 6.40579ZM12.0837 8.96656L11.1136 9.2091L12.0837 8.96656ZM13.0028 9.68416V8.68416V9.68416ZM14.1578 10.6842C14.7101 10.6842 15.1578 10.2364 15.1578 9.68416C15.1578 9.13188 14.7101 8.68416 14.1578 8.68416V10.6842ZM5.33474 3.02431L4.34862 2.85827V2.85827L5.33474 3.02431ZM4.3464 8.89409L3.36028 8.72805V8.72805L4.3464 8.89409ZM3.41218 9.68416V10.6842H3.41218L3.41218 9.68416ZM1.84204 8.68416C1.28976 8.68416 0.842041 9.13188 0.842041 9.68416C0.842041 10.2364 1.28976 10.6842 1.84204 10.6842V8.68416ZM8.81988 12.3921L8.21221 3.05514L6.21643 3.18502L6.8241 12.522L8.81988 12.3921ZM10.6977 12.6528L11.5057 6.59021L9.52319 6.32599L8.71519 12.3886L10.6977 12.6528ZM10.4734 6.64833L11.1136 9.2091L13.0538 8.72403L12.4136 6.16326L10.4734 6.64833ZM13.0028 10.6842H14.1578V8.68416H13.0028V10.6842ZM4.34862 2.85827L3.36028 8.72805L5.33252 9.06013L6.32086 3.19035L4.34862 2.85827ZM3.41218 8.68416H1.84204V10.6842H3.41218V8.68416ZM11.1136 9.2091C11.3303 10.076 12.1092 10.6842 13.0028 10.6842V8.68416C13.0269 8.68416 13.048 8.7006 13.0538 8.72403L11.1136 9.2091ZM11.5057 6.59021C11.429 7.16553 10.6141 7.21138 10.4734 6.64833L12.4136 6.16326C12.0195 4.58667 9.73789 4.7151 9.52319 6.32599L11.5057 6.59021ZM3.36028 8.72805C3.36455 8.70271 3.38649 8.68416 3.41218 8.68416L3.41218 10.6842C4.36291 10.6842 5.17466 9.99766 5.33252 9.06013L3.36028 8.72805ZM6.8241 12.522C6.97685 14.869 10.3869 14.9842 10.6977 12.6528L8.71519 12.3886C8.71243 12.4093 8.70926 12.4076 8.71721 12.3937C8.72505 12.38 8.73693 12.3664 8.7503 12.3561C8.77415 12.3379 8.78297 12.3434 8.76914 12.3429C8.75531 12.3425 8.76448 12.3375 8.78704 12.3574C8.79969 12.3685 8.81063 12.3829 8.81752 12.3971C8.82452 12.4114 8.82124 12.413 8.81988 12.3921L6.8241 12.522ZM8.21221 3.05514C8.06208 0.748269 4.73246 0.578627 4.34862 2.85827L6.32086 3.19035C6.32408 3.17118 6.32687 3.17323 6.31879 3.18643C6.31085 3.19939 6.29908 3.21213 6.28602 3.22165C6.26264 3.2387 6.25388 3.23354 6.26628 3.23417C6.27867 3.2348 6.26944 3.23904 6.24791 3.21971C6.23588 3.20891 6.22547 3.19504 6.21889 3.18133C6.21219 3.16739 6.21517 3.16563 6.21643 3.18502L8.21221 3.05514Z" fill="black"/>
</svg>
