<svg width="16" height="16" viewBox="0 0 16 16" fill="none" xmlns="http://www.w3.org/2000/svg">
<rect width="16" height="16" fill="white"/>
<path d="M9 5C9 4.44771 8.55228 4 8 4C7.44772 4 7 4.44771 7 5H9ZM7 8C7 8.55228 7.44772 9 8 9C8.55228 9 9 8.55228 9 8H7ZM2 3H1H2ZM2 13H3H2ZM13 14V13V14ZM3 14V15H3L3 14ZM14 3.00002H15H14ZM14 13H13H14ZM13 2.00002L13 1.00002L13 2.00002ZM3 2L3 3H3L3 2ZM9 11C9 10.4477 8.55228 10 8 10C7.44772 10 7 10.4477 7 11H9ZM7 11.5C7 12.0523 7.44772 12.5 8 12.5C8.55228 12.5 9 12.0523 9 11.5H7ZM7 5V8H9V5H7ZM1 3L1 13H3L3 3H1ZM13 13L3 13L3 15L13 15V13ZM13 3.00002V13H15V3.00002H13ZM13 1.00002L3 1L3 3L13 3.00002L13 1.00002ZM15 3.00002C15 1.89545 14.1046 1.00002 13 1.00002L13 3.00002H13H15ZM3 3H3L3.00001 1C1.89543 0.999996 1 1.89543 1 3H3ZM1 13C1 14.1046 1.89543 15 3 15V13H1ZM13 15C14.1046 15 15 14.1046 15 13H13V15ZM7 11V11.5H9V11H7Z" fill="black"/>
</svg>
