<svg width="16" height="16" viewBox="0 0 16 16" fill="none" xmlns="http://www.w3.org/2000/svg">
<g clip-path="url(#clip0)">
<rect width="16" height="16" fill="white"/>
<path d="M8.99999 13H9.99999V12H8.99999V13ZM6.99999 13V12H5.99999V13H6.99999ZM11.9994 7.72202L11.0263 7.95237L11.0294 7.96561L11.0329 7.97875L11.9994 7.72202ZM12.9878 11.4431L13.9609 11.2127L13.9578 11.1995L13.9543 11.1863L12.9878 11.4431ZM3.01215 11.4431L2.04567 11.1863L2.04218 11.1995L2.03904 11.2127L3.01215 11.4431ZM4.0006 7.72202L4.96708 7.97875L4.97057 7.96561L4.97371 7.95237L4.0006 7.72202ZM4.29452 6.09178L3.32536 5.84537L4.29452 6.09178ZM11.7055 6.09178L12.6746 5.84537L12.6746 5.84537L11.7055 6.09178ZM6.60371 3.36364L5.60371 3.36364V3.36364H6.60371ZM6.60371 3.60987L6.94873 4.54846L7.60371 4.3077V3.60987H6.60371ZM9.39626 3.60987H8.39626V4.3077L9.05124 4.54846L9.39626 3.60987ZM0.0600032 6.08385C0.193939 6.61965 0.736866 6.94542 1.27266 6.81149C1.80846 6.67755 2.13424 6.13462 2.0003 5.59883L0.0600032 6.08385ZM3.99448 1.96153C4.52551 1.8098 4.833 1.25632 4.68128 0.725282C4.52955 0.194247 3.97607 -0.113244 3.44503 0.0384815L3.99448 1.96153ZM13.7496 5.59882C13.6157 6.13462 13.9414 6.67755 14.4772 6.81148C15.013 6.94542 15.556 6.61964 15.6899 6.08385L13.7496 5.59882ZM12.3049 0.0384766C11.7738 -0.113249 11.2204 0.194242 11.0686 0.725277C10.9169 1.25631 11.2244 1.8098 11.7554 1.96152L12.3049 0.0384766ZM7.99999 13V15C9.10456 15 9.99999 14.1046 9.99999 13H7.99999ZM7.99999 13H5.99999C5.99999 14.1046 6.89542 15 7.99999 15V13ZM6.99999 14H8.99999V12H6.99999V14ZM12.5344 11H3.46561V13H12.5344V11ZM11.0329 7.97875L12.0213 11.6998L13.9543 11.1863L12.9659 7.46528L11.0329 7.97875ZM3.97863 11.6998L4.96708 7.97875L3.03412 7.46528L2.04567 11.1863L3.97863 11.6998ZM3.46561 11C3.781 11 4.07347 11.3008 3.98526 11.6734L2.03904 11.2127C1.81596 12.1551 2.55147 13 3.46561 13V11ZM12.5344 13C13.4485 13 14.184 12.1551 13.9609 11.2127L12.0147 11.6734C11.9265 11.3008 12.219 11 12.5344 11V13ZM3.32536 5.84537C3.24305 6.16911 3.19497 6.49033 3.15506 6.75937C3.11281 7.04415 3.07932 7.27272 3.02749 7.49166L4.97371 7.95237C5.04904 7.63411 5.09449 7.31513 5.1334 7.05287C5.17465 6.77487 5.20995 6.54957 5.26369 6.33819L3.32536 5.84537ZM10.7363 6.33819C10.79 6.54957 10.8253 6.77487 10.8666 7.05287C10.9055 7.31513 10.9509 7.63411 11.0263 7.95237L12.9725 7.49166C12.9207 7.27272 12.8872 7.04415 12.8449 6.75937C12.805 6.49033 12.7569 6.16911 12.6746 5.84537L10.7363 6.33819ZM7.60371 3.36364C7.60371 3.18498 7.7587 3 7.99999 3V1C6.69899 1 5.60371 2.03607 5.60371 3.36364L7.60371 3.36364ZM7.99999 3C8.24127 3 8.39626 3.18498 8.39626 3.36364H10.3963C10.3963 2.03607 9.30098 1 7.99999 1V3ZM5.26369 6.33819C5.46476 5.54735 6.0864 4.86545 6.94873 4.54846L6.25869 2.67127C4.82866 3.19694 3.70188 4.36445 3.32536 5.84537L5.26369 6.33819ZM5.60371 3.36364V3.60987H7.60371V3.36364H5.60371ZM9.05124 4.54846C9.91358 4.86545 10.5352 5.54735 10.7363 6.33819L12.6746 5.84537C12.2981 4.36445 11.1713 3.19694 9.74128 2.67127L9.05124 4.54846ZM8.39626 3.36364V3.60987H10.3963V3.36364H8.39626ZM2.0003 5.59883C1.59299 3.96942 2.63124 2.35103 3.99448 1.96153L3.44503 0.0384815C1.04292 0.724804 -0.60844 3.40981 0.0600032 6.08385L2.0003 5.59883ZM15.6899 6.08385C16.3583 3.4098 14.707 0.724799 12.3049 0.0384766L11.7554 1.96152C13.1187 2.35102 14.1569 3.96941 13.7496 5.59882L15.6899 6.08385Z" fill="black"/>
</g>
<defs>
<clipPath id="clip0">
<rect width="16" height="16" fill="white"/>
</clipPath>
</defs>
</svg>
