<svg width="32" height="32" viewBox="0 0 32 32" fill="none" xmlns="http://www.w3.org/2000/svg">
<rect width="32" height="32" fill="white"/>
<path d="M26 9C27.6569 9 29 7.65685 29 6C29 4.34315 27.6569 3 26 3C24.3431 3 23 4.34315 23 6M26 9C24.3431 9 23 7.65685 23 6M26 9V23M23 6H9M23 26C23 27.6569 24.3431 29 26 29C27.6569 29 29 27.6569 29 26C29 24.3431 27.6569 23 26 23M23 26C23 24.3431 24.3431 23 26 23M23 26H9M9 6C9 7.65685 7.65685 9 6 9M9 6C9 4.34315 7.65685 3 6 3C4.34315 3 3 4.34315 3 6C3 7.65685 4.34315 9 6 9M6 9V23M9 26C9 27.6569 7.65685 29 6 29C4.34315 29 3 27.6569 3 26C3 24.3431 4.34315 23 6 23M9 26C9 24.3431 7.65685 23 6 23" stroke="black" stroke-width="2" stroke-linecap="round"/>
</svg>
