<svg width="32" height="32" viewBox="0 0 32 32" fill="none" xmlns="http://www.w3.org/2000/svg">
<rect width="32" height="32" fill="white"/>
<path d="M16 3V6M16 6C10.4772 6 6 10.4772 6 16M16 6C21.5228 6 26 10.4772 26 16M26 16C26 21.5228 21.5228 26 16 26M26 16H29M16 26C10.4772 26 6 21.5228 6 16M16 26V29M6 16H3M6.80762 6.80762L8.92894 8.92894M23.071 23.071L25.1924 25.1924M25.1924 6.80762L23.0711 8.92894M8.92896 23.071L6.80763 25.1924" stroke="black" stroke-width="2" stroke-linecap="round"/>
</svg>
