<svg width="32" height="32" viewBox="0 0 32 32" fill="none" xmlns="http://www.w3.org/2000/svg">
<rect width="32" height="32" fill="white"/>
<path fill-rule="evenodd" clip-rule="evenodd" d="M16 2C8.26801 2 2 8.26801 2 16C2 23.732 8.26801 30 16 30C23.732 30 30 23.732 30 16C30 8.26801 23.732 2 16 2ZM4 16C4 9.37258 9.37258 4 16 4C18.9696 4 21.6872 5.07865 23.7825 6.86553L6.86553 23.7825C5.07865 21.6872 4 18.9696 4 16ZM8.28492 25.1915C10.3709 26.9443 13.0622 28 16 28C22.6274 28 28 22.6274 28 16C28 13.0622 26.9443 10.3709 25.1915 8.28492L8.28492 25.1915Z" fill="black"/>
</svg>
