<svg width="32" height="32" viewBox="0 0 32 32" fill="none" xmlns="http://www.w3.org/2000/svg">
<rect width="32" height="32" fill="white"/>
<path d="M9.99999 7.5C9.99999 8.32843 9.32842 9 8.49999 9C7.67157 9 6.99999 8.32843 6.99999 7.5C6.99999 6.67157 7.67157 6 8.49999 6C9.32842 6 9.99999 6.67157 9.99999 7.5Z" fill="black"/>
<path d="M15 7.5C15 8.32843 14.3284 9 13.5 9C12.6716 9 12 8.32843 12 7.5C12 6.67157 12.6716 6 13.5 6C14.3284 6 15 6.67157 15 7.5Z" fill="black"/>
<path d="M18.5 9C19.3284 9 20 8.32843 20 7.5C20 6.67157 19.3284 6 18.5 6C17.6716 6 17 6.67157 17 7.5C17 8.32843 17.6716 9 18.5 9Z" fill="black"/>
<path fill-rule="evenodd" clip-rule="evenodd" d="M25 30H7C4.23858 30 2 27.7614 2 25L2 7C2 4.23857 4.23858 2 7 2H25C27.7614 2 30 4.23858 30 7.00001L30 25C29.9999 27.7614 27.7614 30 25 30ZM7 28H25C26.6568 28 28 26.6569 28 25L28 13.0001L4 13L4 25C4 26.6569 5.34315 28 7 28ZM3.99999 11L4 7C4 5.34314 5.34315 4 7 4L25 4C26.6569 4 28 5.34315 28 7.00001L28 11.0001L3.99999 11Z" fill="black"/>
</svg>
