<svg width="32" height="32" viewBox="0 0 32 32" fill="none" xmlns="http://www.w3.org/2000/svg">
<rect width="32" height="32" fill="white"/>
<path fill-rule="evenodd" clip-rule="evenodd" d="M13.1314 28C13.4361 28 13.7181 27.8381 13.8719 27.5746L13.878 27.5641L20.0405 17.5735V4L8.25943 4C7.8576 4 7.50986 4.27898 7.42273 4.67102L7.41926 4.68662L4.01845 17.9694C3.90863 18.5001 4.31399 19 4.85787 19H10.0405C10.838 19 11.6275 19.2665 12.1941 19.8196C12.7853 20.3966 13.0624 21.2223 12.884 22.1252L11.9256 26.9767C11.8209 27.5066 12.2264 28 12.7664 28H13.1314ZM22.0405 4V16.8571L27.0985 16.8571C27.5692 16.8571 27.952 16.4774 27.9556 16.0064L28.0405 4.86358C28.0442 4.38788 27.6594 4 27.1835 4L22.0405 4ZM21.5986 18.8571L15.5924 28.5944C15.0789 29.4648 14.1433 30 13.1314 30H12.7664C10.9661 30 9.61456 28.3551 9.96348 26.589L10.9219 21.7376C10.9704 21.4926 10.9013 21.3525 10.7972 21.2508C10.6684 21.1252 10.4133 21 10.0405 21H4.85787C3.02987 21 1.67229 19.307 2.06881 17.5228L2.07227 17.5072L5.47425 4.2199C5.77111 2.92164 6.92635 2 8.25943 2L27.1835 2C28.7698 2 30.0526 3.29247 30.0404 4.87882L29.9555 16.0217C29.9435 17.591 28.668 18.8571 27.0985 18.8571H21.5986Z" fill="black"/>
</svg>
