<svg width="32" height="32" viewBox="0 0 32 32" fill="none" xmlns="http://www.w3.org/2000/svg">
<rect width="32" height="32" fill="white"/>
<path fill-rule="evenodd" clip-rule="evenodd" d="M19.7929 3.74264C22.1164 1.41912 25.8836 1.41912 28.2071 3.74264C30.5306 6.06616 30.5306 9.83334 28.2071 12.1569L12.4142 27.9497L29 27.9497C29.5523 27.9497 30 28.3975 30 28.9497C30 29.502 29.5523 29.9497 29 29.9497L3 29.9497C2.44772 29.9497 2 29.502 2 28.9497L2 21.9497C2 21.6845 2.10536 21.4302 2.29289 21.2426L19.7929 3.74264ZM9.58578 27.9497L23.0858 14.4497L17.5 8.86396L4 22.364L4 27.9497H9.58578ZM18.9142 7.44975L24.5 13.0355L26.7929 10.7426C28.3354 9.20017 28.3354 6.69933 26.7929 5.15686C25.2504 3.61438 22.7496 3.61438 21.2071 5.15685L18.9142 7.44975Z" fill="black"/>
</svg>
