<svg width="32" height="32" viewBox="0 0 32 32" fill="none" xmlns="http://www.w3.org/2000/svg">
<rect width="32" height="32" fill="white"/>
<path fill-rule="evenodd" clip-rule="evenodd" d="M27.227 5.77455C24.8635 3.40848 21.0321 3.40848 18.6687 5.77455L16.7075 7.7379C16.5199 7.92568 16.2654 8.03119 16 8.03119C15.7346 8.03119 15.4801 7.92568 15.2925 7.7379L13.3313 5.77455C10.9679 3.40849 7.13647 3.40848 4.77304 5.77455C2.40899 8.14123 2.40899 11.9788 4.77304 14.3455C4.78249 14.355 4.79176 14.3647 4.80083 14.3745L16 26.5245L27.1992 14.3745C27.2082 14.3647 27.2175 14.355 27.227 14.3455C29.591 11.9788 29.591 8.14123 27.227 5.77455ZM17.2537 4.36112C20.3983 1.21296 25.4973 1.21296 28.642 4.36112C31.7811 7.50379 31.786 12.5956 28.6566 15.7443L16.7353 28.6777C16.546 28.8832 16.2793 29 16 29C15.7207 29 15.454 28.8832 15.2647 28.6777L3.34341 15.7443C0.213996 12.5956 0.218871 7.50379 3.35804 4.36112C6.5027 1.21296 11.6017 1.21296 14.7463 4.36112L16 5.61619L17.2537 4.36112Z" fill="black"/>
</svg>
