<svg width="32" height="32" viewBox="0 0 32 32" fill="none" xmlns="http://www.w3.org/2000/svg">
<rect width="32" height="32" fill="white"/>
<path fill-rule="evenodd" clip-rule="evenodd" d="M12.3229 3.51502C14.3032 1.36575 17.6968 1.36576 19.6771 3.51503L28.6771 13.2829C29.5278 14.2061 30 15.4156 30 16.6709V27C30 28.6568 28.6569 30 27 30L5 30C3.34314 30 2 28.6568 2 27L2 16.6709C2 15.4155 2.47224 14.2061 3.3229 13.2828L12.3229 3.51502ZM13 28L19 28L19 19L13 19L13 28ZM11 28L5 28C4.44772 28 4 27.5523 4 27L4 16.6709C4 15.9177 4.28334 15.192 4.79374 14.6381L13.7937 4.87024C14.9819 3.58068 17.0181 3.58069 18.2063 4.87025L27.2063 14.6381C27.7167 15.1921 28 15.9177 28 16.6709V27C28 27.5523 27.5523 28 27 28L21 28L21 19C21 17.8954 20.1046 17 19 17L13 17C11.8954 17 11 17.8954 11 19L11 28Z" fill="black"/>
</svg>
