<svg width="32" height="32" viewBox="0 0 32 32" fill="none" xmlns="http://www.w3.org/2000/svg">
<rect width="32" height="32" fill="white"/>
<path fill-rule="evenodd" clip-rule="evenodd" d="M10 29C10 28.4477 10.4477 28 11 28H21C21.5523 28 22 28.4477 22 29C22 29.5523 21.5523 30 21 30H11C10.4477 30 10 29.5523 10 29Z" fill="black"/>
<path fill-rule="evenodd" clip-rule="evenodd" d="M16 4C10.9703 4 7 7.44134 7 12.778C7 14.7956 7.88556 16.6544 8.9816 18.4835C9.51447 19.3728 10.0882 20.2371 10.6162 21.1293C11.1196 21.9799 11.5831 22.8651 11.8234 23.7522C11.8421 23.8212 11.9162 23.9829 11.9998 24L20 24C20.0833 23.9845 20.1582 23.8201 20.1766 23.7522C20.4169 22.8651 20.8804 21.9799 21.3838 21.1293C21.9118 20.2371 22.4855 19.3728 23.0184 18.4835C24.1144 16.6544 25 14.7956 25 12.778C25 7.44134 21.0297 4 16 4ZM5 12.778C5 6.22217 9.98397 2 16 2C22.016 2 27 6.22217 27 12.778C27 15.3698 25.8635 17.6264 24.734 19.5115C24.203 20.3977 23.6311 21.2589 23.1049 22.1479C22.6211 22.9655 22.2737 23.6598 22.107 24.2752C21.8832 25.1013 21.1365 26 20 26H12C10.8635 26 10.1168 25.1013 9.89302 24.2752C9.72628 23.6598 9.37892 22.9655 8.89507 22.1479C8.36891 21.2589 7.797 20.3977 7.26601 19.5115C6.13648 17.6264 5 15.3698 5 12.778Z" fill="black"/>
<path fill-rule="evenodd" clip-rule="evenodd" d="M13 16C13.5523 16 14 16.4477 14 17C14 18.1046 14.8954 19 16 19C17.1046 19 18 18.1046 18 17C18 16.4477 18.4477 16 19 16C19.5523 16 20 16.4477 20 17C20 19.2091 18.2091 21 16 21C13.7909 21 12 19.2091 12 17C12 16.4477 12.4477 16 13 16Z" fill="black"/>
</svg>
