<svg width="32" height="32" viewBox="0 0 32 32" fill="none" xmlns="http://www.w3.org/2000/svg">
<rect width="32" height="32" fill="white"/>
<path fill-rule="evenodd" clip-rule="evenodd" d="M18.9091 4C18.6044 4 18.3224 4.1619 18.1686 4.42539L18.1625 4.43593L12 14.4265V28H23.7811C24.1829 28 24.5307 27.721 24.6178 27.329L24.6213 27.3134L28.0221 14.0306C28.1319 13.4999 27.7265 13 27.1826 13H22C21.2026 13 20.413 12.7335 19.8464 12.1804C19.2552 11.6034 18.9781 10.7777 19.1565 9.87475L20.115 5.02333C20.2197 4.4934 19.8141 4 19.2742 4H18.9091ZM10 28V15.1429H4.94204C4.47133 15.1429 4.08856 15.5226 4.08493 15.9936L4.00003 27.1364C3.99637 27.6121 4.38113 28 4.85703 28H10ZM10.4419 13.1429L16.4481 3.4056C16.9617 2.5352 17.8973 2 18.9091 2H19.2742C21.0744 2 22.426 3.64486 22.077 5.41096L21.1186 10.2624C21.0702 10.5074 21.1392 10.6475 21.2434 10.7492C21.3721 10.8748 21.6272 11 22 11H27.1826C29.0107 11 30.3682 12.693 29.9717 14.4772L29.9682 14.4928L26.5663 27.7801C26.2694 29.0784 25.1142 30 23.7811 30H4.85703C3.27071 30 1.98792 28.7075 2.00009 27.1212L2.08498 15.9783C2.09701 14.409 3.37251 13.1429 4.94204 13.1429H10.4419Z" fill="black"/>
</svg>
