<svg width="32" height="32" viewBox="0 0 32 32" fill="none" xmlns="http://www.w3.org/2000/svg">
<rect width="32" height="32" fill="white"/>
<path fill-rule="evenodd" clip-rule="evenodd" d="M26.5312 5.31802C24.7738 3.56066 21.9246 3.56066 20.1672 5.31802L16.0838 9.40154L16.0826 9.40268C14.9268 10.5665 14.7482 11.5385 14.9032 12.4321C15.0794 13.4481 15.7007 14.4805 16.4761 15.7098C16.5083 15.7608 16.5408 15.8121 16.5735 15.8639C17.2736 16.9718 18.0904 18.2644 18.3687 19.6249C18.521 20.3693 18.5202 21.1554 18.2624 21.9632C18.0063 22.7661 17.5155 23.5301 16.7774 24.2643L16.7762 24.2655L13.0962 27.9455C10.5578 30.4839 6.44222 30.4839 3.90381 27.9455C1.3654 25.4071 1.3654 21.2915 3.90381 18.7531L6.37868 16.2782C6.76921 15.8877 7.40237 15.8877 7.7929 16.2782C8.18342 16.6687 8.18342 17.3019 7.7929 17.6924L5.31802 20.1673C3.56066 21.9247 3.56066 24.7739 5.31802 26.5313C7.07538 28.2886 9.92462 28.2886 11.682 26.5313L15.364 22.8493L15.366 22.8473C15.9262 22.2902 16.2175 21.7927 16.3571 21.3552C16.4953 20.9222 16.504 20.4886 16.4093 20.0257C16.2067 19.0351 15.5687 18.0199 14.7846 16.7768L14.7774 16.7655C14.0503 15.6128 13.1879 14.2455 12.9326 12.7739C12.6554 11.1753 13.1006 9.56651 14.665 7.99192L14.6673 7.98963L18.753 3.90381C21.2914 1.3654 25.407 1.3654 27.9454 3.9038C30.4838 6.44221 30.4838 10.5578 27.9454 13.0962L24.7635 16.2782C24.3729 16.6687 23.7398 16.6687 23.3493 16.2782C22.9587 15.8877 22.9587 15.2545 23.3492 14.864L26.5312 11.682C28.2886 9.92462 28.2886 7.07538 26.5312 5.31802Z" fill="black"/>
</svg>
