<svg width="32" height="32" viewBox="0 0 32 32" fill="none" xmlns="http://www.w3.org/2000/svg">
<rect width="32" height="32" fill="white"/>
<path fill-rule="evenodd" clip-rule="evenodd" d="M4 16C4 9.37258 9.37258 4 16 4C22.6274 4 28 9.37258 28 16C28 17.2897 27.762 19.1646 27.1895 20.6809C26.5822 22.2892 25.8103 23 25 23C24.1979 23 23.7688 22.7955 23.517 22.517C23.2456 22.2166 23 21.6333 23 20.5V11C23 10.4477 22.5523 10 22 10C21.4477 10 21 10.4477 21 11V11.101C19.7295 9.80447 17.9587 9 16 9C12.134 9 9 12.134 9 16C9 19.866 12.134 23 16 23C17.9629 23 19.7371 22.1921 21.0082 20.8906C21.0599 22.089 21.36 23.1131 22.0332 23.858C22.7982 24.7045 23.8691 25 25 25C27.1897 25 28.4178 23.0897 29.0605 21.3874C29.738 19.5931 30 17.468 30 16C30 8.26801 23.732 2 16 2C8.26801 2 2 8.26801 2 16C2 23.732 8.26801 30 16 30C16.5523 30 17 29.5523 17 29C17 28.4477 16.5523 28 16 28C9.37258 28 4 22.6274 4 16ZM21 16C21 13.2386 18.7614 11 16 11C13.2386 11 11 13.2386 11 16C11 18.7614 13.2386 21 16 21C18.7614 21 21 18.7614 21 16Z" fill="black"/>
</svg>
