<svg width="32" height="32" viewBox="0 0 32 32" fill="none" xmlns="http://www.w3.org/2000/svg">
<rect width="32" height="32" fill="white"/>
<path d="M6.20478 28.5814L6.80718 29.3796H6.80718L6.20478 28.5814ZM11.7952 24.3624L12.3976 25.1606L12.3976 25.1606L11.7952 24.3624ZM14.2048 24.3624L14.8072 23.5642H14.8072L14.2048 24.3624ZM19.7952 28.5814L20.3976 27.7832L19.7952 28.5814ZM2 6V26.985H4V6H2ZM6.80718 29.3796L12.3976 25.1606L11.1928 23.5642L5.60239 27.7832L6.80718 29.3796ZM13.6024 25.1606L19.1928 29.3796L20.3976 27.7832L14.8072 23.5642L13.6024 25.1606ZM24 26.985V12H22V26.985H24ZM24 12V5.76923H22V12H24ZM19.1928 29.3796C21.1694 30.8713 24 29.4613 24 26.985H22C22 27.8104 21.0565 28.2804 20.3976 27.7832L19.1928 29.3796ZM12.3976 25.1606C12.7541 24.8915 13.2459 24.8915 13.6024 25.1606L14.8072 23.5642C13.7376 22.757 12.2624 22.757 11.1928 23.5642L12.3976 25.1606ZM2 26.985C2 29.4613 4.83061 30.8713 6.80718 29.3796L5.60239 27.7832C4.94354 28.2804 4 27.8104 4 26.985H2ZM24 5.76923C24 4.86597 24.8186 4 26 4V2C23.8677 2 22 3.61368 22 5.76923H24ZM26 4C27.1814 4 28 4.86597 28 5.76923H30C30 3.61368 28.1323 2 26 2V4ZM28 5.76923V10H30V5.76923H28ZM27 11H23V13H27V11ZM28 10C28 10.5523 27.5523 11 27 11V13C28.6569 13 30 11.6569 30 10H28ZM4 6C4 4.84264 4.87457 4 5.83871 4V2C3.6673 2 2 3.84365 2 6H4ZM5.83871 4H26V2H5.83871V4Z" fill="black"/>
</svg>
