<svg width="32" height="32" viewBox="0 0 32 32" fill="none" xmlns="http://www.w3.org/2000/svg">
<rect width="32" height="32" fill="white"/>
<path d="M8 8.5C8.55228 8.5 9 8.05229 9 7.5C9 6.94772 8.55228 6.5 8 6.5V8.5ZM7 6.5C6.44772 6.5 6 6.94772 6 7.5C6 8.05229 6.44772 8.5 7 8.5L7 6.5ZM25 3V2V3ZM7 3V4V3ZM3 25H4H3ZM3 7H2V7L3 7ZM25 29V30V29ZM7 29V28V29ZM29 25L28 25L29 25ZM29 7.00001L30 7.00001L29 7.00001ZM3 11C2.44772 11 2 11.4477 2 12C2 12.5523 2.44772 13 3 13V11ZM29 13C29.5523 13 30 12.5523 30 12C30 11.4477 29.5523 11 29 11V13ZM12 8.5C12.5523 8.5 13 8.05228 13 7.5C13 6.94772 12.5523 6.5 12 6.5V8.5ZM11 6.5C10.4477 6.5 10 6.94772 10 7.5C10 8.05229 10.4477 8.5 11 8.5L11 6.5ZM16 8.5C16.5523 8.5 17 8.05228 17 7.5C17 6.94772 16.5523 6.5 16 6.5V8.5ZM15 6.5C14.4477 6.5 14 6.94772 14 7.5C14 8.05229 14.4477 8.5 15 8.5L15 6.5ZM8 6.5C7.17158 6.5 7.5 6.5 7 6.5L7 8.5C7.5 8.5 7.17157 8.5 8 8.5V6.5ZM25 2L7 2V4L25 4V2ZM4 25L4 7L2 7L2 25H4ZM25 28L7 28V30L25 30V28ZM30 25L30 7.00001L28 7.00001L28 25L30 25ZM25 30C27.7614 30 29.9999 27.7614 30 25L28 25C28 26.6569 26.6568 28 25 28V30ZM25 4C26.6569 4 28 5.34315 28 7.00001L30 7.00001C30 4.23859 27.7614 2 25 2V4ZM7 2C4.23858 2 2 4.23857 2 7H4C4 5.34314 5.34315 4 7 4V2ZM2 25C2 27.7614 4.23858 30 7 30V28C5.34315 28 4 26.6569 4 25H2ZM3 13H29V11H3V13ZM12 6.5C11.1716 6.5 11.5 6.5 11 6.5L11 8.5C11.5 8.5 11.1716 8.5 12 8.5V6.5ZM16 6.5C15.1716 6.5 15.5 6.5 15 6.5L15 8.5C15.5 8.5 15.1716 8.5 16 8.5V6.5Z" fill="black"/>
</svg>
