<svg width="32" height="32" viewBox="0 0 32 32" fill="none" xmlns="http://www.w3.org/2000/svg">
<rect width="32" height="32" fill="white"/>
<path d="M21.7693 11.7071C22.1598 11.3166 22.1598 10.6834 21.7693 10.2929C21.3787 9.90238 20.7456 9.90238 20.355 10.2929L21.7693 11.7071ZM10.2307 20.4173C9.84017 20.8078 9.84017 21.4409 10.2307 21.8315C10.6212 22.222 11.2544 22.222 11.6449 21.8315L10.2307 20.4173ZM20.355 21.8315C20.7456 22.222 21.3787 22.222 21.7693 21.8315C22.1598 21.4409 22.1598 20.8078 21.7693 20.4172L20.355 21.8315ZM11.6449 10.2929C11.2544 9.90237 10.6212 9.90237 10.2307 10.2929C9.84017 10.6834 9.84017 11.3166 10.2307 11.7071L11.6449 10.2929ZM20.355 10.2929L10.2307 20.4173L11.6449 21.8315L21.7693 11.7071L20.355 10.2929ZM21.7693 20.4172L11.6449 10.2929L10.2307 11.7071L20.355 21.8315L21.7693 20.4172ZM28 16C28 22.6274 22.6274 28 16 28V30C23.732 30 30 23.732 30 16H28ZM16 28C9.37258 28 4 22.6274 4 16H2C2 23.732 8.26801 30 16 30V28ZM4 16C4 9.37258 9.37258 4 16 4V2C8.26801 2 2 8.26801 2 16H4ZM16 4C22.6274 4 28 9.37258 28 16H30C30 8.26801 23.732 2 16 2V4Z" fill="black"/>
</svg>
