<svg width="32" height="32" viewBox="0 0 32 32" fill="none" xmlns="http://www.w3.org/2000/svg">
<rect width="32" height="32" fill="white"/>
<path d="M17.9612 5.06784L17.2537 4.36112V4.36112L17.9612 5.06784ZM27.9345 15.0522L27.227 14.3455C27.2175 14.355 27.2082 14.3647 27.1992 14.3745L27.9345 15.0522ZM16 28L15.2647 28.6777C15.454 28.8832 15.7207 29 16 29C16.2793 29 16.546 28.8832 16.7353 28.6777L16 28ZM4.06554 5.06784L4.77304 5.77455L4.06554 5.06784ZM4.06554 15.0522L4.80083 14.3745C4.79176 14.3647 4.78249 14.355 4.77304 14.3455L4.06554 15.0522ZM16 7.03119L15.2925 7.7379C15.4801 7.92568 15.7346 8.03119 16 8.03119C16.2654 8.03119 16.5199 7.92568 16.7075 7.7379L16 7.03119ZM14.0388 5.06784L13.3313 5.77455L13.3313 5.77455L14.0388 5.06784ZM18.6687 5.77455C21.0321 3.40848 24.8635 3.40848 27.227 5.77455L28.642 4.36113C25.4973 1.21296 20.3983 1.21296 17.2537 4.36112L18.6687 5.77455ZM27.227 5.77455C29.591 8.14123 29.591 11.9788 27.227 14.3455L28.642 15.759C31.786 12.6114 31.786 7.50868 28.642 4.36113L27.227 5.77455ZM27.1992 14.3745L15.2647 27.3223L16.7353 28.6777L28.6698 15.73L27.1992 14.3745ZM3.35804 4.36113C0.213988 7.50868 0.213988 12.6114 3.35804 15.759L4.77304 14.3455C2.40899 11.9788 2.40899 8.14123 4.77304 5.77455L3.35804 4.36113ZM3.33024 15.73L15.2647 28.6777L16.7353 27.3223L4.80083 14.3745L3.33024 15.73ZM17.2537 4.36112L15.2925 6.32448L16.7075 7.7379L18.6687 5.77455L17.2537 4.36112ZM14.7463 4.36112C11.6017 1.21296 6.5027 1.21296 3.35804 4.36113L4.77304 5.77455C7.13647 3.40848 10.9679 3.40849 13.3313 5.77455L14.7463 4.36112ZM16.7075 6.32448L14.7463 4.36112L13.3313 5.77455L15.2925 7.7379L16.7075 6.32448Z" fill="black"/>
</svg>
