<svg width="32" height="32" viewBox="0 0 32 32" fill="none" xmlns="http://www.w3.org/2000/svg">
<rect width="32" height="32" fill="white"/>
<path d="M3 16.6709H4H3ZM3 27H2H3ZM27 29V28V29ZM5 29V30H5L5 29ZM29 16.6709H28H29ZM29 27H30H29ZM27.9417 13.9605L27.2063 14.6381L27.9417 13.9605ZM18.9417 4.19264L18.2063 4.87025L18.9417 4.19264ZM13.0583 4.19263L13.7937 4.87024L13.0583 4.19263ZM4.05832 13.9605L3.3229 13.2828L3.3229 13.2828L4.05832 13.9605ZM12 19H13H12ZM12 28H11H12ZM19 29V28V29ZM13 29V30V29ZM20 19H21H20ZM20 28H19H20ZM19 18L19 19L19 18ZM13 18L13 19H13L13 18ZM2 16.6709L2 27H4L4 16.6709H2ZM27 28L5 28L5 30L27 30V28ZM28 16.6709V27H30V16.6709H28ZM28.6771 13.2829L19.6771 3.51503L18.2063 4.87025L27.2063 14.6381L28.6771 13.2829ZM12.3229 3.51502L3.3229 13.2828L4.79374 14.6381L13.7937 4.87024L12.3229 3.51502ZM19.6771 3.51503C17.6968 1.36576 14.3032 1.36575 12.3229 3.51502L13.7937 4.87024C14.9819 3.58068 17.0181 3.58069 18.2063 4.87025L19.6771 3.51503ZM30 16.6709C30 15.4156 29.5278 14.2061 28.6771 13.2829L27.2063 14.6381C27.7167 15.1921 28 15.9177 28 16.6709H30ZM4 16.6709C4 15.9177 4.28334 15.192 4.79374 14.6381L3.3229 13.2828C2.47224 14.2061 2 15.4155 2 16.6709H4ZM2 27C2 28.6568 3.34314 30 5 30V28C4.44771 28 4 27.5523 4 27H2ZM27 30C28.6569 30 30 28.6568 30 27H28C28 27.5523 27.5523 28 27 28V30ZM11 19L11 28H13L13 19H11ZM19 28H13V30H19V28ZM19 19L19 28H21L21 19H19ZM19 17L13 17L13 19L19 19L19 17ZM21 19C21 17.8954 20.1046 17 19 17L19 19H19H21ZM13 19H13L13 17C11.8954 17 11 17.8954 11 19H13ZM11 28C11 29.1045 11.8954 30 13 30V28V28H11ZM19 30C20.1046 30 21 29.1045 21 28H19L19 28V30Z" fill="black"/>
</svg>
