<svg width="32" height="32" viewBox="0 0 32 32" fill="none" xmlns="http://www.w3.org/2000/svg">
<rect width="32" height="32" fill="white"/>
<path d="M11 28C10.4477 28 10 28.4477 10 29C10 29.5523 10.4477 30 11 30V28ZM21 30C21.5523 30 22 29.5523 22 29C22 28.4477 21.5523 28 21 28V30ZM21.1418 24.0137L20.1766 23.7522L20.1766 23.7522L21.1418 24.0137ZM10.8582 24.0137L11.8234 23.7522L10.8582 24.0137ZM20 17C20 16.4477 19.5523 16 19 16C18.4477 16 18 16.4477 18 17H20ZM14 17C14 16.4477 13.5523 16 13 16C12.4477 16 12 16.4477 12 17H14ZM11 30L21 30V28L11 28V30ZM7 12.778C7 7.44134 10.9703 4 16 4V2C9.98397 2 5 6.22217 5 12.778H7ZM16 4C21.0297 4 25 7.44134 25 12.778H27C27 6.22217 22.016 2 16 2V4ZM25 12.778C25 14.7956 24.1144 16.6544 23.0184 18.4835C22.7468 18.9369 22.4682 19.3792 22.1902 19.8211C21.9146 20.2593 21.6386 20.6987 21.3838 21.1293C20.8804 21.9799 20.4169 22.8651 20.1766 23.7522L22.107 24.2752C22.2737 23.6598 22.6211 22.9655 23.1049 22.1479C23.3437 21.7444 23.6054 21.3276 23.8832 20.8859C24.1587 20.4479 24.4492 19.9868 24.734 19.5115C25.8635 17.6264 27 15.3698 27 12.778H25ZM11.8234 23.7522C11.5831 22.8651 11.1196 21.9799 10.6162 21.1293C10.3614 20.6987 10.0854 20.2593 9.80975 19.8211C9.53183 19.3792 9.25324 18.9369 8.9816 18.4835C7.88556 16.6544 7 14.7956 7 12.778H5C5 15.3698 6.13648 17.6264 7.26601 19.5115C7.55077 19.9868 7.8413 20.4479 8.11679 20.8859C8.3946 21.3276 8.65627 21.7444 8.89507 22.1479C9.37892 22.9655 9.72628 23.6598 9.89302 24.2752L11.8234 23.7522ZM20 24H12V26H20V24ZM9.89302 24.2752C10.1168 25.1013 10.8635 26 12 26V24C11.9997 24 11.9998 24 11.9998 24C11.9997 24 11.9979 23.9996 11.9944 23.9981C11.9871 23.9951 11.9706 23.9865 11.9481 23.9661C11.899 23.9216 11.8485 23.8447 11.8234 23.7522L9.89302 24.2752ZM20.1766 23.7522C20.1515 23.8447 20.101 23.9216 20.0519 23.9661C20.0294 23.9865 20.0129 23.9951 20.0056 23.9981C20.0021 23.9996 20.0003 24 20.0002 24C20.0002 24 20.0003 24 20 24V26C21.1365 26 21.8832 25.1013 22.107 24.2752L20.1766 23.7522ZM18 17C18 18.1046 17.1046 19 16 19V21C18.2091 21 20 19.2091 20 17H18ZM16 19C14.8954 19 14 18.1046 14 17H12C12 19.2091 13.7909 21 16 21V19Z" fill="black"/>
</svg>
