<svg width="32" height="32" viewBox="0 0 32 32" fill="none" xmlns="http://www.w3.org/2000/svg">
<rect width="32" height="32" fill="white"/>
<path d="M11 29H4.85703C3.82591 29 2.99212 28.1598 3.00006 27.1288L3.08495 15.9859C3.09277 14.9658 3.92191 14.1429 4.94204 14.1429H11M11 29H23.7811C24.6515 29 25.4051 28.3956 25.594 27.5459L28.9955 14.2602C29.2533 13.1004 28.3708 12 27.1826 12H22C20.8298 12 19.9107 11.2166 20.1375 10.0686L21.096 5.21715C21.3228 4.06913 20.4443 3 19.2742 3H18.9091C18.2486 3 17.6379 3.35093 17.305 3.92132L11 14.1429M11 29V14.1429" stroke="black" stroke-width="2"/>
</svg>
