<svg width="32" height="32" viewBox="0 0 32 32" fill="none" xmlns="http://www.w3.org/2000/svg">
<rect width="32" height="32" fill="white"/>
<path d="M23 17C23.5523 17 24 16.5523 24 16C24 15.4477 23.5523 15 23 15V17ZM9 15C8.44772 15 8 15.4477 8 16C8 16.5523 8.44772 17 9 17V15ZM15 23C15 23.5523 15.4477 24 16 24C16.5523 24 17 23.5523 17 23H15ZM17 9C17 8.44772 16.5523 8 16 8C15.4477 8 15 8.44772 15 9H17ZM23 15L9 15V17L23 17V15ZM17 23V9H15V23H17ZM28 16C28 22.6274 22.6274 28 16 28V30C23.732 30 30 23.732 30 16H28ZM16 28C9.37258 28 4 22.6274 4 16H2C2 23.732 8.26801 30 16 30V28ZM4 16C4 9.37258 9.37258 4 16 4V2C8.26801 2 2 8.26801 2 16H4ZM16 4C22.6274 4 28 9.37258 28 16H30C30 8.26801 23.732 2 16 2V4Z" fill="black"/>
</svg>
