<svg width="32" height="32" viewBox="0 0 32 32" fill="none" xmlns="http://www.w3.org/2000/svg">
<rect width="32" height="32" fill="white"/>
<path d="M28.2935 29.7078C28.6844 30.0979 29.3176 30.0973 29.7078 29.7065C30.0979 29.3156 30.0973 28.6824 29.7065 28.2922L28.2935 29.7078ZM22.6259 22.6376L21.9193 21.93L22.6259 22.6376ZM14.5 25C8.70101 25 4 20.299 4 14.5H2C2 21.4036 7.59644 27 14.5 27V25ZM4 14.5C4 8.70101 8.70101 4 14.5 4V2C7.59644 2 2 7.59644 2 14.5H4ZM14.5 4C20.299 4 25 8.70101 25 14.5H27C27 7.59644 21.4036 2 14.5 2V4ZM25 14.5C25 17.4025 23.8236 20.0283 21.9193 21.93L23.3325 23.3452C25.5972 21.0837 27 17.9547 27 14.5H25ZM21.9193 21.93C20.0185 23.828 17.3971 25 14.5 25V27C17.9483 27 21.072 25.6024 23.3325 23.3452L21.9193 21.93ZM21.9194 23.3453L28.2935 29.7078L29.7065 28.2922L23.3323 21.9298L21.9194 23.3453Z" fill="black"/>
</svg>
