<svg width="32" height="32" viewBox="0 0 32 32" fill="none" xmlns="http://www.w3.org/2000/svg">
<rect width="32" height="32" fill="white"/>
<path d="M26.9562 26.4802L27.4839 27.3296H27.4839L26.9562 26.4802ZM5.04379 26.4802L5.57147 25.6307L5.04379 26.4802ZM4.00974 24.2875L3.0134 24.202L4.00974 24.2875ZM27.9903 24.2875L26.9939 24.373V24.3731L27.9903 24.2875ZM26.7864 20.396L27.6823 19.9519V19.9519L26.7864 20.396ZM5.21365 20.396L6.10961 20.8401L5.21365 20.396ZM21 9C21 11.7614 18.7614 14 16 14V16C19.866 16 23 12.866 23 9H21ZM16 14C13.2386 14 11 11.7614 11 9H9C9 12.866 12.134 16 16 16V14ZM11 9C11 6.23858 13.2386 4 16 4V2C12.134 2 9 5.13401 9 9H11ZM16 4C18.7614 4 21 6.23858 21 9H23C23 5.13401 19.866 2 16 2V4ZM26.4285 25.6307C25.0023 26.5167 21.7615 28 16 28V30C22.1255 30 25.7332 28.4171 27.4839 27.3296L26.4285 25.6307ZM16 28C10.2385 28 6.99774 26.5167 5.57147 25.6307L4.51611 27.3296C6.26676 28.4171 9.87454 30 16 30V28ZM3.0134 24.202C2.9102 25.4044 3.41003 26.6425 4.51611 27.3296L5.57147 25.6307C5.19097 25.3943 4.95809 24.9321 5.00608 24.3731L3.0134 24.202ZM26.9939 24.3731C27.0419 24.9321 26.809 25.3943 26.4285 25.6307L27.4839 27.3296C28.59 26.6425 29.0898 25.4044 28.9866 24.202L26.9939 24.3731ZM25.8904 20.8401C26.3704 21.8085 26.886 23.1155 26.9939 24.373L28.9866 24.202C28.8472 22.578 28.2057 21.0076 27.6823 19.9519L25.8904 20.8401ZM5.00608 24.3731C5.11401 23.1155 5.62959 21.8085 6.10961 20.8401L4.31768 19.9519C3.79433 21.0076 3.15279 22.578 3.0134 24.202L5.00608 24.3731ZM24.3959 18H7.60406V20H24.3959V18ZM6.10961 20.8401C6.35989 20.3352 6.91938 20 7.60406 20V18C6.28427 18 4.95764 18.6608 4.31768 19.9519L6.10961 20.8401ZM27.6823 19.9519C27.0424 18.6608 25.7157 18 24.3959 18V20C25.0806 20 25.6401 20.3352 25.8904 20.8401L27.6823 19.9519Z" fill="black"/>
</svg>
