<svg width="32" height="32" viewBox="0 0 32 32" fill="none" xmlns="http://www.w3.org/2000/svg">
<rect width="32" height="32" fill="white"/>
<path d="M22 29C22.5523 29 23 28.5523 23 28C23 27.4477 22.5523 27 22 27V29ZM10 27C9.44772 27 9 27.4477 9 28C9 28.5523 9.44772 29 10 29V27ZM22 5C22.5523 5 23 4.55228 23 4C23 3.44772 22.5523 3 22 3V5ZM10 3C9.44772 3 9 3.44772 9 4C9 4.55228 9.44772 5 10 5V3ZM3 13H2H3ZM3 19H4H3ZM25 23V22V23ZM7 23V24V23ZM29 13H30H29ZM29 19H28H29ZM25 9.00003L25 8.00003L25 9.00003ZM7.00001 9L7 10L7.00001 9ZM22 27H10V29H22V27ZM22 3H10V5H22V3ZM2 13L2 19H4L4 13H2ZM25 22L7 22V24L25 24V22ZM28 13V19H30V13H28ZM25 8.00003L7.00001 8L7 10L25 10L25 8.00003ZM30 13C30 10.2386 27.7614 8.00003 25 8.00003L25 10C26.6569 10 28 11.3432 28 13H30ZM4 13C4 11.3431 5.34315 10 7 10L7.00001 8C4.23858 8 2 10.2386 2 13H4ZM2 19C2 21.7614 4.23858 24 7 24V22C5.34315 22 4 20.6569 4 19H2ZM25 24C27.7614 24 30 21.7614 30 19H28C28 20.6569 26.6569 22 25 22V24Z" fill="black"/>
</svg>
