<svg width="32" height="32" viewBox="0 0 32 32" fill="none" xmlns="http://www.w3.org/2000/svg">
<rect width="32" height="32" fill="white"/>
<path d="M29 7H21M29 24H21M13 7H3M8 2L8 12M12 28L4.00002 20M12 20L4.00002 28M26 20C26 20.5523 25.5523 21 25 21C24.4477 21 24 20.5523 24 20C24 19.4477 24.4477 19 25 19C25.5523 19 26 19.4477 26 20ZM26 28C26 28.5523 25.5523 29 25 29C24.4477 29 24 28.5523 24 28C24 27.4477 24.4477 27 25 27C25.5523 27 26 27.4477 26 28Z" stroke="black" stroke-width="2" stroke-linecap="round" stroke-linejoin="round"/>
</svg>
