<svg width="16" height="16" viewBox="0 0 16 16" fill="none" xmlns="http://www.w3.org/2000/svg">
<rect width="16" height="16" fill="white"/>
<path d="M14 5C14.5523 5 15 4.55228 15 4C15 3.44772 14.5523 3 14 3V5ZM10 3C9.44771 3 9 3.44772 9 4C9 4.55228 9.44771 5 10 5V3ZM14 13C14.5523 13 15 12.5523 15 12C15 11.4477 14.5523 11 14 11V13ZM10 11C9.44771 11 9 11.4477 9 12C9 12.5523 9.44771 13 10 13V11ZM7 5C7.55228 5 8 4.55228 8 4C8 3.44772 7.55228 3 7 3V5ZM1 3C0.447715 3 0 3.44772 0 4C0 4.55228 0.447715 5 1 5V3ZM5 1C5 0.447715 4.55228 0 4 0C3.44772 0 3 0.447715 3 1L5 1ZM3 7C3 7.55228 3.44772 8 4 8C4.55228 8 5 7.55228 5 7H3ZM5.29289 14.7071C5.68342 15.0976 6.31658 15.0976 6.70711 14.7071C7.09763 14.3166 7.09763 13.6834 6.70711 13.2929L5.29289 14.7071ZM2.70712 9.2929C2.31659 8.90238 1.68343 8.90238 1.2929 9.2929C0.90238 9.68343 0.90238 10.3166 1.2929 10.7071L2.70712 9.2929ZM6.70711 10.7071C7.09763 10.3166 7.09763 9.68342 6.70711 9.29289C6.31658 8.90237 5.68342 8.90237 5.29289 9.29289L6.70711 10.7071ZM1.2929 13.2929C0.90238 13.6834 0.90238 14.3166 1.2929 14.7071C1.68343 15.0976 2.31659 15.0976 2.70712 14.7071L1.2929 13.2929ZM12.5 11C13.0523 11 13.5 10.5523 13.5 9.99999C13.5 9.4477 13.0523 8.99999 12.5 9L12.5 11ZM11.5 9.00001C10.9477 9.00002 10.5 9.44774 10.5 10C10.5 10.5523 10.9477 11 11.5 11L11.5 9.00001ZM12.5 15C13.0523 15 13.5 14.5523 13.5 14C13.5 13.4477 13.0523 13 12.5 13L12.5 15ZM11.5 13C10.9477 13 10.5 13.4477 10.5 14C10.5 14.5523 10.9477 15 11.5 15L11.5 13ZM14 3H10V5H14V3ZM14 11H10V13H14V11ZM7 3H1V5H7V3ZM3 1L3 7H5V1L3 1ZM6.70711 13.2929L2.70712 9.2929L1.2929 10.7071L5.29289 14.7071L6.70711 13.2929ZM5.29289 9.29289L1.2929 13.2929L2.70712 14.7071L6.70711 10.7071L5.29289 9.29289ZM12.5 9L11.5 9.00001L11.5 11L12.5 11L12.5 9ZM12.5 13L11.5 13L11.5 15L12.5 15L12.5 13Z" fill="black"/>
</svg>
