<svg width="32" height="32" viewBox="0 0 32 32" fill="none" xmlns="http://www.w3.org/2000/svg">
<rect width="32" height="32" fill="white"/>
<path d="M15 22C15 22.5523 15.4477 23 16 23C16.5523 23 17 22.5523 17 22H15ZM17 10.5C17 9.9477 16.5523 9.49999 16 9.49999C15.4477 9.49999 15 9.9477 15 10.5H17ZM10.25 8.99999C9.69772 8.99999 9.25 9.4477 9.25 9.99999C9.25 10.5523 9.69772 11 10.25 11V8.99999ZM21.75 11C22.3023 11 22.75 10.5523 22.75 9.99999C22.75 9.4477 22.3023 8.99999 21.75 8.99999V11ZM8 4C8.55229 4 9 3.55229 9 3.00001C9 2.44772 8.55229 2 8.00001 2L8 4ZM7.00001 3L7.00001 4L7.00001 3ZM18 4.00002C18.5523 4.00002 19 3.55231 19 3.00002C19 2.44774 18.5523 2.00002 18 2.00002L18 4.00002ZM14 2.00001C13.4477 2.00001 13 2.44773 13 3.00001C13 3.5523 13.4477 4.00001 14 4.00001L14 2.00001ZM25 3.00003L25 4.00003L25 3.00003ZM24 2.00003C23.4477 2.00003 23 2.44775 23 3.00003C23 3.55231 23.4477 4.00003 24 4.00003L24 2.00003ZM3 7H4H3ZM2 7.99999C2 8.55227 2.44772 8.99999 3 8.99999C3.55229 8.99999 4 8.55227 4 7.99999H2ZM4 14C4 13.4477 3.55229 13 3 13C2.44772 13 2 13.4477 2 14H4ZM2 18C2 18.5523 2.44772 19 3 19C3.55229 19 4 18.5523 4 18H2ZM4 24C4 23.4477 3.55228 23 3 23C2.44771 23 2 23.4477 2 24L4 24ZM3 25H4V25L3 25ZM29 7.00003H30H29ZM28 7.99999C28 8.55227 28.4477 8.99999 29 8.99999C29.5523 8.99999 30 8.55227 30 7.99999H28ZM30 14C30 13.4477 29.5523 13 29 13C28.4477 13 28 13.4477 28 14H30ZM28 18C28 18.5523 28.4477 19 29 19C29.5523 19 30 18.5523 30 18H28ZM30 24C30 23.4477 29.5523 23 29 23C28.4477 23 28 23.4477 28 24H30ZM29 25H28H29ZM25 29V28H25L25 29ZM24 28C23.4477 28 23 28.4477 23 29C23 29.5523 23.4477 30 24 30L24 28ZM18 30C18.5523 30 19 29.5523 19 29C19 28.4477 18.5523 28 18 28V30ZM14 28C13.4477 28 13 28.4477 13 29C13 29.5523 13.4477 30 14 30V28ZM8 30C8.55229 30 9 29.5523 9 29C9 28.4477 8.55229 28 8 28V30ZM7 29V28H7L7 29ZM17 22V10.5H15V22H17ZM10.25 11H21.75V8.99999H10.25V11ZM8.00001 2L7.00002 2L7.00001 4L8 4L8.00001 2ZM18 2.00002L14 2.00001L14 4.00001L18 4.00002L18 2.00002ZM25 2.00003L24 2.00003L24 4.00003L25 4.00003L25 2.00003ZM2 7V7.99999H4V7H2ZM2 14L2 18H4V14H2ZM2 24L2 25L4 25L4 24L2 24ZM28 7.00003V7.99999H30V7.00003H28ZM28 14V18H30V14H28ZM28 24V25H30V24H28ZM25 28L24 28L24 30L25 30L25 28ZM18 28L14 28V30L18 30V28ZM8 28H7V30H8V28ZM25 4.00003C26.6569 4.00004 28 5.34318 28 7.00003H30C30 4.23862 27.7614 2.00004 25 2.00003L25 4.00003ZM7.00002 2C4.23859 1.99999 2 4.23857 2 7H4C4 5.34314 5.34315 4 7.00001 4L7.00002 2ZM2 25C2 27.7614 4.23858 30 7 30L7 28C5.34315 28 4 26.6568 4 25H2ZM28 25C28 26.6568 26.6569 28 25 28V30C27.7614 30 30 27.7614 30 25H28Z" fill="black"/>
</svg>
