<svg width="16" height="16" viewBox="0 0 16 16" fill="none" xmlns="http://www.w3.org/2000/svg">
<rect width="16" height="16" fill="white"/>
<path d="M7.5 14L6.87153 14.7778C7.23815 15.0741 7.76185 15.0741 8.12847 14.7778L7.5 14ZM8.5 6C8.5 5.44772 8.05228 5 7.5 5C6.94772 5 6.5 5.44772 6.5 6H8.5ZM6.5 6.5C6.5 7.05228 6.94772 7.5 7.5 7.5C8.05228 7.5 8.5 7.05228 8.5 6.5H6.5ZM11 6.47337C11 8.06496 10.0592 9.71903 8.97152 11.068C8.44324 11.7232 7.91257 12.267 7.51358 12.6468C7.31471 12.8362 7.15015 12.9833 7.0371 13.0816C6.98062 13.1308 6.93713 13.1676 6.90878 13.1913C6.89461 13.2032 6.88424 13.2117 6.87794 13.2169C6.87479 13.2195 6.87265 13.2212 6.87157 13.2221C6.87103 13.2226 6.87076 13.2228 6.87075 13.2228C6.87074 13.2228 6.8708 13.2228 6.87093 13.2226C6.871 13.2226 6.87115 13.2225 6.87118 13.2225C6.87134 13.2223 6.87153 13.2222 7.5 14C8.12847 14.7778 8.12869 14.7777 8.12892 14.7775C8.12902 14.7774 8.12928 14.7772 8.12948 14.777C8.12988 14.7767 8.13035 14.7763 8.13089 14.7759C8.13197 14.775 8.13333 14.7739 8.13495 14.7726C8.1382 14.7699 8.14252 14.7664 8.14788 14.762C8.15861 14.7532 8.1735 14.7409 8.19229 14.7251C8.22986 14.6937 8.28305 14.6486 8.34961 14.5907C8.48267 14.475 8.66967 14.3077 8.89267 14.0953C9.33743 13.6719 9.93176 13.0635 10.5285 12.3234C11.6908 10.8817 13 8.77248 13 6.47337H11ZM7.5 14C8.12847 13.2222 8.12866 13.2223 8.12882 13.2225C8.12885 13.2225 8.129 13.2226 8.12907 13.2226C8.1292 13.2228 8.12926 13.2228 8.12925 13.2228C8.12924 13.2228 8.12897 13.2226 8.12843 13.2221C8.12735 13.2212 8.12521 13.2195 8.12206 13.2169C8.11576 13.2117 8.10539 13.2032 8.09122 13.1913C8.06287 13.1676 8.01938 13.1308 7.9629 13.0816C7.84985 12.9833 7.68529 12.8362 7.48642 12.6468C7.08743 12.267 6.55676 11.7232 6.02848 11.068C4.94083 9.71903 4 8.06496 4 6.47337H2C2 8.77248 3.30917 10.8817 4.47152 12.3234C5.06824 13.0635 5.66257 13.6719 6.10733 14.0953C6.33033 14.3077 6.51733 14.475 6.65039 14.5907C6.71695 14.6486 6.77014 14.6937 6.80771 14.7251C6.8265 14.7409 6.84139 14.7532 6.85212 14.762C6.85748 14.7664 6.86181 14.7699 6.86505 14.7726C6.86667 14.7739 6.86803 14.775 6.86911 14.7759C6.86965 14.7763 6.87012 14.7767 6.87052 14.777C6.87072 14.7772 6.87098 14.7774 6.87108 14.7775C6.87131 14.7777 6.87153 14.7778 7.5 14ZM4 6.47337C4 4.56067 5.5614 3 7.5 3V1C4.46804 1 2 3.44493 2 6.47337H4ZM7.5 3C9.4386 3 11 4.56067 11 6.47337H13C13 3.44493 10.532 1 7.5 1V3ZM6.5 6V6.5H8.5V6H6.5Z" fill="black"/>
</svg>
