<svg width="16" height="16" viewBox="0 0 16 16" fill="none" xmlns="http://www.w3.org/2000/svg">
<rect width="16" height="16" fill="white"/>
<path d="M7 14C7 14.5523 7.44772 15 8 15C8.55228 15 9 14.5523 9 14H7ZM9 11C9 10.4477 8.55228 10 8 10C7.44772 10 7 10.4477 7 11H9ZM13 11V12C13.5523 12 14 11.5523 14 11H13ZM3 11H2C2 11.5523 2.44772 12 3 12V11ZM5 6.80988H6V6.80987L5 6.80988ZM5 3.89474H4V3.89474L5 3.89474ZM4.53567 7.65128L3.93157 6.85437L3.93157 6.85437L4.53567 7.65128ZM11.4643 7.65128L12.0684 6.85437V6.85437L11.4643 7.65128ZM9 14V11H7V14H9ZM13 10H3V12H13V10ZM7 3H9V1H7V3ZM10 3.89474V6.80988H12V3.89474H10ZM6 6.80987L6 3.89474L4 3.89474L4 6.80988L6 6.80987ZM9 3C9.60392 3 10 3.45084 10 3.89474H12C12 2.24576 10.6052 1 9 1V3ZM7 1C5.39478 1 4 2.24576 4 3.89474H6C6 3.45084 6.39608 3 7 3V1ZM3.93157 6.85437C2.62281 7.84649 2 9.32101 2 11H4C4 9.84247 4.40754 9.00326 5.13978 8.44818L3.93157 6.85437ZM10.8602 8.44818C11.5925 9.00326 12 9.84247 12 11H14C14 9.32102 13.3772 7.84649 12.0684 6.85437L10.8602 8.44818ZM4 6.80988C4 6.7811 4.00891 6.76979 4.00293 6.78024C3.99554 6.79313 3.97441 6.82189 3.93157 6.85437L5.13978 8.44818C5.58884 8.10777 6 7.53819 6 6.80988H4ZM10 6.80988C10 7.53819 10.4112 8.10777 10.8602 8.44818L12.0684 6.85437C12.0256 6.82189 12.0045 6.79313 11.9971 6.78024C11.9911 6.76979 12 6.7811 12 6.80988H10Z" fill="black"/>
</svg>
