<svg width="16" height="16" viewBox="0 0 16 16" fill="none" xmlns="http://www.w3.org/2000/svg">
<rect width="16" height="16" fill="white"/>
<path d="M2 6H3H2ZM2 13H1H2ZM13 14V13V14ZM3 14L3 15H3V14ZM14 6.00002H13H14ZM14 13H15H14ZM13 5.00002L13 6.00002L13 5.00002ZM3 5L3 4H3V5ZM9 10H10H9ZM8 9L8 10H8L8 9ZM8 11V10V11ZM1 6L1 13H3L3 6H1ZM13 13H3V15H13V13ZM13 6.00002V13H15V6.00002H13ZM13 4.00002L3 4L3 6L13 6.00002L13 4.00002ZM15 6.00002C15 4.89545 14.1046 4.00002 13 4.00002L13 6.00002H13H15ZM3 6L3 6V4C1.89543 4 1 4.89543 1 6H3ZM1 13C1 14.1046 1.89543 15 3 15L3 13H1ZM13 15C14.1046 15 15 14.1046 15 13H13V13V15ZM14 8L2 8L2 10L14 10V8ZM6 5C6 3.89543 6.89543 3 8 3V1C5.79086 1 4 2.79086 4 5H6ZM8 3C9.10457 3 10 3.89543 10 5H12C12 2.79086 10.2091 1 8 1V3ZM10 10C10 8.89543 9.10457 8 8.00001 8L8 10L8 10H10ZM8 10L8 10L8.00001 8C6.89543 8 6 8.89543 6 10H8ZM6 10C6 11.1046 6.89543 12 8 12V10L8 10H6ZM8 12C9.10457 12 10 11.1046 10 10H8L8 10V12Z" fill="black"/>
</svg>
