<svg width="16" height="16" viewBox="0 0 16 16" fill="none" xmlns="http://www.w3.org/2000/svg">
<rect width="16" height="16" fill="white"/>
<path d="M2 3L1 3L2 3ZM2 13H3H2ZM13 14V13V14ZM3 14L3 15H3L3 14ZM6.61538 3.00001C7.16767 3.00001 7.61538 2.5523 7.61538 2.00001C7.61539 1.44773 7.16767 1.00001 6.61539 1.00001L6.61538 3.00001ZM3 2L3 3H3L3 2ZM15 9.38463C15 8.83234 14.5523 8.38463 14 8.38463C13.4477 8.38463 13 8.83234 13 9.38463H15ZM14 13H15H14ZM6.05381 8.52458C5.66306 8.91487 5.66268 9.54803 6.05297 9.93879C6.44326 10.3295 7.07642 10.3299 7.46718 9.93964L6.05381 8.52458ZM13.7067 3.70758C14.0974 3.31729 14.0978 2.68412 13.7075 2.29337C13.3172 1.90261 12.6841 1.90223 12.2933 2.29252L13.7067 3.70758ZM10.5018 1.00005C9.94954 0.999041 9.50101 1.44594 9.5 1.99822C9.49898 2.5505 9.94588 2.99904 10.4982 3.00005L10.5018 1.00005ZM13.9675 2.0064L14.9675 2.0064C14.9675 1.45483 14.5209 1.00741 13.9694 1.0064L13.9675 2.0064ZM12.9675 5.46753C12.9675 6.01981 13.4152 6.46753 13.9675 6.46752C14.5198 6.46752 14.9675 6.01981 14.9675 5.46752L12.9675 5.46753ZM1 3L1 13H3L3 3L1 3ZM13 13L3 13L3 15L13 15V13ZM6.61539 1.00001L3.00001 1L3 3L6.61538 3.00001L6.61539 1.00001ZM13 9.38463V13H15V9.38463H13ZM3 3L3 3L3.00001 1C1.89543 0.999994 1 1.89543 1 3L3 3ZM1 13C1 14.1046 1.89543 15 3 15L3 13H1ZM13 15C14.1046 15 15 14.1046 15 13H13V15ZM7.46718 9.93964L13.7067 3.70758L12.2933 2.29252L6.05381 8.52458L7.46718 9.93964ZM10.4982 3.00005L13.9657 3.0064L13.9694 1.0064L10.5018 1.00005L10.4982 3.00005ZM12.9675 2.0064L12.9675 5.46753L14.9675 5.46752L14.9675 2.0064L12.9675 2.0064Z" fill="black"/>
</svg>
