<svg width="16" height="16" viewBox="0 0 16 16" fill="none" xmlns="http://www.w3.org/2000/svg">
<rect width="16" height="16" fill="white"/>
<path d="M4 3.75608L4.96394 4.02222L4.96998 4.00032L4.97503 3.97817L4 3.75608ZM6 3C6.55228 3 7 2.55228 7 2C7 1.44772 6.55228 1 6 1V3ZM1.03606 10.7339C0.889081 11.2662 1.2015 11.817 1.73386 11.9639C2.26623 12.1109 2.81695 11.7985 2.96394 11.2661L1.03606 10.7339ZM12 3.75608L11.025 3.97817L11.03 4.00032L11.0361 4.02222L12 3.75608ZM10 1C9.44772 1 9 1.44772 9 2C9 2.55228 9.44772 3 10 3V1ZM13.0361 11.2661C13.183 11.7985 13.7338 12.1109 14.2661 11.9639C14.7985 11.817 15.1109 11.2662 14.9639 10.7339L13.0361 11.2661ZM6 11.5C6 12.3284 5.32843 13 4.5 13V15C6.433 15 8 13.433 8 11.5H6ZM4.5 13C3.67157 13 3 12.3284 3 11.5H1C1 13.433 2.567 15 4.5 15V13ZM3 11.5C3 10.6716 3.67157 10 4.5 10V8C2.567 8 1 9.567 1 11.5H3ZM4.5 10C5.32843 10 6 10.6716 6 11.5H8C8 9.567 6.433 8 4.5 8V10ZM13 11.5C13 12.3284 12.3284 13 11.5 13V15C13.433 15 15 13.433 15 11.5H13ZM11.5 13C10.6716 13 10 12.3284 10 11.5H8C8 13.433 9.567 15 11.5 15V13ZM10 11.5C10 10.6716 10.6716 10 11.5 10V8C9.567 8 8 9.567 8 11.5H10ZM11.5 10C12.3284 10 13 10.6716 13 11.5H15C15 9.567 13.433 8 11.5 8V10ZM9 11H7V13H9V11ZM4.97503 3.97817C5.07002 3.56112 5.2175 3.32936 5.35369 3.20505C5.47433 3.09494 5.6599 3 6 3V1C5.23553 1 4.54611 1.23432 4.00539 1.72786C3.48022 2.20721 3.17998 2.85349 3.02498 3.53399L4.97503 3.97817ZM3.03607 3.48994L1.03606 10.7339L2.96394 11.2661L4.96394 4.02222L3.03607 3.48994ZM12.975 3.53399C12.82 2.85349 12.5198 2.20721 11.9946 1.72786C11.4539 1.23432 10.7645 1 10 1V3C10.3401 3 10.5257 3.09494 10.6463 3.20505C10.7825 3.32936 10.93 3.56112 11.025 3.97817L12.975 3.53399ZM11.0361 4.02222L13.0361 11.2661L14.9639 10.7339L12.9639 3.48994L11.0361 4.02222Z" fill="black"/>
</svg>
