<svg width="16" height="16" viewBox="0 0 16 16" fill="none" xmlns="http://www.w3.org/2000/svg">
<rect width="16" height="16" fill="white"/>
<path d="M2.01623 4.58394L1.01623 4.58187L2.01623 4.58394ZM2.00318 10.8841L3.00318 10.8862L2.00318 10.8841ZM11.4928 2.65721L11.2393 1.6899L11.4928 2.65721ZM8.7809 3.36812L8.52733 2.4008V2.4008L8.7809 3.36812ZM12.5063 12.8237L12.7594 13.7911L12.5063 12.8237ZM8.76882 13.8016L8.51567 12.8342L8.51567 12.8342L8.76882 13.8016ZM7.26203 3.36878L7.51475 2.40124L7.26203 3.36878ZM4.52166 2.65301L4.77438 1.68547H4.77438L4.52166 2.65301ZM7.25251 13.8023L7.5048 12.8346H7.5048L7.25251 13.8023ZM3.49859 12.8235L3.2463 13.7912H3.2463L3.49859 12.8235ZM8.99997 3.4661C8.99997 2.91381 8.55225 2.4661 7.99997 2.4661C7.44769 2.4661 6.99997 2.91381 6.99997 3.4661H8.99997ZM6.99997 14C6.99997 14.5523 7.44769 15 7.99997 15C8.55225 15 8.99997 14.5523 8.99997 14H6.99997ZM13 4.59185V10.8888H15V4.59185H13ZM1.01623 4.58187L1.00318 10.882L3.00318 10.8862L3.01623 4.58602L1.01623 4.58187ZM11.2393 1.6899L8.52733 2.4008L9.03447 4.33543L11.7464 3.62453L11.2393 1.6899ZM12.2531 11.8562L8.51567 12.8342L9.02196 14.7691L12.7594 13.7911L12.2531 11.8562ZM7.51475 2.40124L4.77438 1.68547L4.26894 3.62055L7.00931 4.33632L7.51475 2.40124ZM7.5048 12.8346L3.75088 11.8559L3.2463 13.7912L7.00021 14.7699L7.5048 12.8346ZM8.52733 2.4008C8.19543 2.4878 7.84673 2.48796 7.51475 2.40124L7.00931 4.33632C7.67327 4.50975 8.37067 4.50944 9.03447 4.33543L8.52733 2.4008ZM8.51567 12.8342C8.18431 12.9209 7.83624 12.9211 7.5048 12.8346L7.00021 14.7699C7.66309 14.9428 8.35924 14.9425 9.02196 14.7691L8.51567 12.8342ZM3.01623 4.58602C3.01758 3.93196 3.63612 3.45525 4.26894 3.62055L4.77438 1.68547C2.8759 1.18959 1.0203 2.6197 1.01623 4.58187L3.01623 4.58602ZM1.00318 10.882C1.00035 12.2497 1.92288 13.4461 3.2463 13.7912L3.75088 11.8559C3.30974 11.7409 3.00223 11.3421 3.00318 10.8862L1.00318 10.882ZM13 10.8888C13 11.3436 12.6931 11.7411 12.2531 11.8562L12.7594 13.7911C14.0793 13.4457 15 12.2532 15 10.8888H13ZM15 4.59185C15 2.62601 13.1408 1.19142 11.2393 1.6899L11.7464 3.62453C12.3803 3.45837 13 3.93657 13 4.59185H15ZM6.99997 3.4661V14H8.99997V3.4661H6.99997Z" fill="black"/>
</svg>
