<svg width="16" height="16" viewBox="0 0 16 16" fill="none" xmlns="http://www.w3.org/2000/svg">
<rect width="16" height="16" fill="white"/>
<path d="M11 13H13C13.5523 13 14 12.5523 14 12V7C14 6.44772 13.5523 6 13 6H3C2.44772 6 2 6.44772 2 7V12C2 12.5523 2.44772 13 3 13H4.5M4 6V3C4 2.44772 4.44772 2 5 2H11C11.5523 2 12 2.44772 12 3V6M11 12V14C11 14.5523 10.5523 15 10 15H6C5.44772 15 5 14.5523 5 14V12C5 11.4477 5.44772 11 6 11H10C10.5523 11 11 11.4477 11 12Z" stroke="black" stroke-width="2" stroke-linecap="round" stroke-linejoin="round"/>
</svg>
