<svg width="16" height="16" viewBox="0 0 16 16" fill="none" xmlns="http://www.w3.org/2000/svg">
<rect width="16" height="16" fill="white"/>
<path d="M2.88007 10.2759C2.71163 9.75442 2.62063 9.19818 2.62063 8.62068C2.62063 6.22727 4.18372 4.19894 6.34476 3.50082M4.79304 12.94C5.68852 13.6059 6.79821 14 7.99994 14C9.20166 14 10.3113 13.6059 11.2068 12.94M13.1198 10.2759C13.2882 9.75442 13.3792 9.19818 13.3792 8.62068C13.3792 6.22727 11.8162 4.19894 9.65511 3.50082M9.65513 3.65517C9.65513 4.5693 8.91408 5.31034 7.99996 5.31034C7.08583 5.31034 6.34479 4.5693 6.34479 3.65517C6.34479 2.74105 7.08583 2 7.99996 2C8.91408 2 9.65513 2.74105 9.65513 3.65517ZM5.31034 11.7241C5.31034 12.6382 4.5693 13.3793 3.65517 13.3793C2.74105 13.3793 2 12.6382 2 11.7241C2 10.81 2.74105 10.0689 3.65517 10.0689C4.5693 10.0689 5.31034 10.81 5.31034 11.7241ZM14 11.7241C14 12.6382 13.259 13.3793 12.3449 13.3793C11.4307 13.3793 10.6897 12.6382 10.6897 11.7241C10.6897 10.81 11.4307 10.0689 12.3449 10.0689C13.259 10.0689 14 10.81 14 11.7241Z" stroke="black" stroke-width="2"/>
</svg>
