<svg width="16" height="16" viewBox="0 0 16 16" fill="none" xmlns="http://www.w3.org/2000/svg">
<rect width="16" height="16" fill="white"/>
<path d="M3.00003 5.23077L2.32175 4.49597L2.00003 4.79294L2.00003 5.23077L3.00003 5.23077ZM6.50002 2V1H6.10903L5.82174 1.2652L6.50002 2ZM13 3H12V3L13 3ZM13 13H14H13ZM3 13L4 13V13L3 13ZM6 7C5.44772 7 5 7.44772 5 8C5 8.55228 5.44772 9 6 9V7ZM10 9C10.5523 9 11 8.55228 11 8C11 7.44772 10.5523 7 10 7V9ZM6 10C5.44772 10 5 10.4477 5 11C5 11.5523 5.44772 12 6 12V10ZM8 12C8.55228 12 9 11.5523 9 11C9 10.4477 8.55228 10 8 10V12ZM3.67831 5.96557L7.1783 2.7348L5.82174 1.2652L2.32175 4.49597L3.67831 5.96557ZM4.11111 15H11.8889V13H4.11111V15ZM12 3L12 13H14L14 3L12 3ZM4.11111 13C4.04749 13 4.00902 12.977 3.9944 12.9638C3.98757 12.9577 3.98887 12.9565 3.99235 12.9639C3.99638 12.9725 4 12.9858 4 13L2 13C1.99999 14.2011 3.04688 15 4.11111 15V13ZM11.8889 15C12.9531 15 14 14.2011 14 13H12C12 12.9858 12.0036 12.9725 12.0076 12.9639C12.0111 12.9565 12.0124 12.9577 12.0056 12.9638C11.991 12.977 11.9525 13 11.8889 13V15ZM11.8889 3C11.9525 3 11.991 3.02303 12.0056 3.03619C12.0124 3.04233 12.0111 3.04351 12.0076 3.03609C12.0036 3.02752 12 3.01425 12 3H14C14 1.79893 12.9531 1 11.8889 1V3ZM6 9H10V7H6V9ZM6 12H8V10H6V12ZM6.50002 3H11.8889V1H6.50002V3ZM2.00003 5.23077L2 13L4 13L4.00003 5.23077L2.00003 5.23077Z" fill="black"/>
</svg>
