<svg width="16" height="16" viewBox="0 0 16 16" fill="none" xmlns="http://www.w3.org/2000/svg">
<rect width="16" height="16" fill="white"/>
<path d="M3 14L3 13H3V14ZM13 14V15V14ZM2 3.00001H3H2ZM2 13H1H2ZM3 2.00001L3 3.00001L3 2.00001ZM10.8166 2L10.8166 3L10.8166 2ZM14 5.18343H15H14ZM14 13H13H14ZM11.5237 2.29289L10.8166 3V3L11.5237 2.29289ZM13.7071 4.47632L14.4142 3.76922V3.76922L13.7071 4.47632ZM6 4.99999C6 4.4477 5.55228 3.99999 5 3.99999C4.44772 3.99999 4 4.4477 4 4.99999H6ZM4 5.99999C4 6.55227 4.44772 6.99999 5 6.99999C5.55228 6.99999 6 6.55227 6 5.99999H4ZM3 15L13 15V13L3 13L3 15ZM1 3.00001L1 13H3L3 3.00001H1ZM3 3.00001L10.8166 3L10.8166 1L3 1.00001L3 3.00001ZM13 5.18343V13H15V5.18343H13ZM10.8166 3L13 5.18343L14.4142 3.76922L12.2308 1.58578L10.8166 3ZM15 5.18343C15 4.653 14.7893 4.14429 14.4142 3.76922L13 5.18343V5.18343H15ZM10.8166 3L10.8166 3L12.2308 1.58578C11.8557 1.21071 11.347 0.999999 10.8166 1L10.8166 3ZM3 3.00001H3L3 1.00001C1.89543 1.00001 1 1.89544 1 3.00001H3ZM13 15C14.1046 15 15 14.1046 15 13H13H13V15ZM3 13H1C1 14.1046 1.89543 15 3 15V13ZM4 4.99999V5.99999H6V4.99999H4ZM8 8.99999V11C9.10457 11 10 10.1046 10 8.99999H8ZM8 8.99999H6C6 10.1046 6.89543 11 8 11V8.99999ZM8 8.99999V6.99999C6.89543 6.99999 6 7.89542 6 8.99999H8ZM8 8.99999H10C10 7.89542 9.10457 6.99999 8 6.99999V8.99999Z" fill="black"/>
</svg>
