<svg width="32" height="32" viewBox="0 0 32 32" fill="none" xmlns="http://www.w3.org/2000/svg">
<rect width="32" height="32" fill="white"/>
<path d="M16.7071 1.29289C16.3166 0.902369 15.6834 0.902369 15.2929 1.29289L11.2929 5.29289C10.9024 5.68342 10.9024 6.31658 11.2929 6.70711C11.6834 7.09763 12.3166 7.09763 12.7071 6.70711L15 4.41421V10.5C15 11.0523 15.4477 11.5 16 11.5C16.5523 11.5 17 11.0523 17 10.5V4.41421L19.2929 6.70711C19.6834 7.09763 20.3166 7.09763 20.7071 6.70711C21.0976 6.31658 21.0976 5.68342 20.7071 5.29289L16.7071 1.29289Z" fill="black"/>
<path fill-rule="evenodd" clip-rule="evenodd" d="M15 18.0448V16C15 15.4477 15.4477 15 16 15C16.5523 15 17 15.4477 17 16V18.0448C19.2868 18.2509 21.3717 19.1568 23.0391 20.5467L24.4853 19.1005C24.8758 18.71 25.509 18.71 25.8995 19.1005C26.29 19.4911 26.29 20.1242 25.8995 20.5148L24.4533 21.961C25.8432 23.6283 26.7491 25.7133 26.9552 28H29C29.5523 28 30 28.4477 30 29C30 29.5523 29.5523 30 29 30H3C2.44772 30 2 29.5523 2 29C2 28.4477 2.44772 28 3 28H5.04484C5.25091 25.7132 6.15682 23.6283 7.54674 21.9609L6.10054 20.5147C5.71002 20.1242 5.71002 19.491 6.10054 19.1005C6.49106 18.71 7.12423 18.71 7.51475 19.1005L8.96096 20.5467C10.6283 19.1568 12.7133 18.2509 15 18.0448ZM16 20C18.4828 20 20.7308 21.0053 22.3591 22.6312L22.364 22.6361L22.369 22.6411C23.7734 24.0477 24.7148 25.9167 24.9451 28L7.05493 28C7.28523 25.9167 8.22664 24.0476 9.63106 22.641L9.63607 22.636L9.64093 22.6311C11.2692 21.0053 13.5172 20 16 20Z" fill="black"/>
</svg>
