<svg width="32" height="32" viewBox="0 0 32 32" fill="none" xmlns="http://www.w3.org/2000/svg">
<rect width="32" height="32" fill="white"/>
<path fill-rule="evenodd" clip-rule="evenodd" d="M22 2V3.00614C21.8994 3.00206 21.7982 3 21.6966 3C20.4557 3 19.2862 3.30656 18.262 3.84777L17.7071 3.29286C17.3166 2.90234 16.6834 2.90234 16.2929 3.29286C15.9024 3.68339 15.9024 4.31655 16.2929 4.70708L16.6189 5.03311C16.3084 5.33051 16.0244 5.65499 15.7708 6.00274C13.3653 6.06018 10.9833 7.01695 9.17836 8.55042C7.53982 9.94254 6.32814 11.856 6.05711 14.0641C3.17568 14.4619 1 16.6795 1 19.8146C1 20.9469 1.38471 22.2156 2.21401 23.2225C3.06483 24.2556 4.36026 24.9806 6.06881 25L25.9198 25.0001L25.9312 24.9999C27.6397 24.9805 28.9352 24.2556 29.786 23.2225C30.6153 22.2156 31 20.9469 31 19.8146C31 18.142 30.4108 16.6685 29.32 15.6143C28.8259 15.1368 28.2443 14.7601 27.5957 14.4911C28.1395 13.7547 28.5467 12.912 28.7789 12H30C30.5523 12 31 11.5523 31 11C31 10.4477 30.5523 10 30 10H28.9963C28.9559 8.70994 28.5746 7.50688 27.9395 6.4746L28.7071 5.70696C29.0976 5.31643 29.0976 4.68327 28.7071 4.29274C28.3166 3.90222 27.6834 3.90222 27.2929 4.29274L26.6598 4.9258C25.9037 4.23247 24.9993 3.69585 24 3.36722V2C24 1.44772 23.5523 1 23 1C22.4477 1 22 1.44772 22 2ZM21.6966 5C20.3773 5 19.1722 5.47448 18.2454 6.25846C19.9317 6.64538 21.5255 7.4492 22.8216 8.55042C24.3145 9.81874 25.453 11.5198 25.8486 13.4821C26.5708 12.5877 26.9999 11.4571 26.9999 10.2287C26.9999 7.35216 24.6368 5 21.6966 5ZM10.4733 10.0746C8.9554 11.3642 8 13.1028 8 15V16H7C4.65955 16 3 17.5559 3 19.8146C3 20.5262 3.24982 21.3342 3.75782 21.951C4.24352 22.5408 4.98654 22.9861 6.08613 23H25.9139C27.0135 22.9861 27.7565 22.5408 28.2422 21.951C28.7502 21.3342 29 20.5262 29 19.8146C29 18.6233 28.5892 17.6895 27.93 17.0524C27.2682 16.4127 26.2803 16 25 16H24V15C24 13.1028 23.0446 11.3642 21.5267 10.0746C20.005 8.78174 17.9816 8 16 8C14.0184 8 11.995 8.78174 10.4733 10.0746Z" fill="black"/>
<path d="M6.10557 29.5527C5.85858 30.0467 6.05881 30.6474 6.55279 30.8944C7.04676 31.1414 7.64744 30.9411 7.89443 30.4472L8.89443 28.4472C9.14142 27.9532 8.94119 27.3525 8.44721 27.1055C7.95324 26.8585 7.35256 27.0588 7.10557 27.5527L6.10557 29.5527Z" fill="black"/>
<path d="M13.0528 30.8944C12.5588 30.6474 12.3586 30.0467 12.6056 29.5527L13.6056 27.5527C13.8526 27.0588 14.4532 26.8585 14.9472 27.1055C15.4412 27.3525 15.6414 27.9532 15.3944 28.4472L14.3944 30.4472C14.1474 30.9411 13.5468 31.1414 13.0528 30.8944Z" fill="black"/>
<path d="M19.6056 29.5527C19.3586 30.0467 19.5588 30.6474 20.0528 30.8944C20.5468 31.1414 21.1474 30.9411 21.3944 30.4472L22.3944 28.4472C22.6414 27.9532 22.4412 27.3525 21.9472 27.1055C21.4532 26.8585 20.8526 27.0588 20.6056 27.5527L19.6056 29.5527Z" fill="black"/>
</svg>
