<svg width="32" height="32" viewBox="0 0 32 32" fill="none" xmlns="http://www.w3.org/2000/svg">
<rect width="32" height="32" fill="white"/>
<path fill-rule="evenodd" clip-rule="evenodd" d="M16 2C11.3074 2 7.38607 5.28103 6.34878 9.67986C3.32526 10.071 1 12.6755 1 15.8146C1 19.1986 3.70214 21.9617 7.06881 22L24.9198 22.0001L24.9312 21.9999C28.2979 21.9617 31 19.1986 31 15.8146C31 12.6755 28.6747 10.071 25.6512 9.67986C24.6139 5.28103 20.6926 2 16 2ZM8.17168 10.7791C8.754 6.93391 12.0441 4 16 4C19.9559 4 23.246 6.93391 23.8283 10.7791L23.9582 11.6367L24.8255 11.6293L24.8608 11.6291C27.1384 11.6291 29 13.4946 29 15.8146C29 18.1166 27.167 19.9715 24.9139 20H7.08613C4.83305 19.9715 3 18.1166 3 15.8146C3 13.4946 4.86162 11.6291 7.13924 11.6291L7.17446 11.6293L8.0418 11.6367L8.17168 10.7791Z" fill="black"/>
<path d="M5.10557 28.5527C4.85858 29.0467 5.05881 29.6474 5.55279 29.8944C6.04676 30.1414 6.64744 29.9411 6.89443 29.4472L8.89443 25.4472C9.14142 24.9532 8.94119 24.3525 8.44721 24.1055C7.95324 23.8585 7.35256 24.0588 7.10557 24.5527L5.10557 28.5527Z" fill="black"/>
<path d="M12.5528 29.8944C12.0588 29.6474 11.8586 29.0467 12.1056 28.5527L14.1056 24.5527C14.3526 24.0588 14.9532 23.8585 15.4472 24.1055C15.9412 24.3525 16.1414 24.9532 15.8944 25.4472L13.8944 29.4472C13.6474 29.9411 13.0468 30.1414 12.5528 29.8944Z" fill="black"/>
<path d="M19.1056 28.5527C18.8586 29.0467 19.0588 29.6474 19.5528 29.8944C20.0468 30.1414 20.6474 29.9411 20.8944 29.4472L22.8944 25.4472C23.1414 24.9532 22.9412 24.3525 22.4472 24.1055C21.9532 23.8585 21.3526 24.0588 21.1056 24.5527L19.1056 28.5527Z" fill="black"/>
</svg>
