<svg width="32" height="32" viewBox="0 0 32 32" fill="none" xmlns="http://www.w3.org/2000/svg">
<rect width="32" height="32" fill="white"/>
<path fill-rule="evenodd" clip-rule="evenodd" d="M6.34878 9.67986C7.38607 5.28103 11.3074 2 16 2C20.6926 2 24.6139 5.28103 25.6512 9.67986C28.6747 10.071 31 12.6755 31 15.8146C31 19.1986 28.2979 21.9617 24.9312 21.9999L24.9198 22.0001L7.06881 22C3.70214 21.9617 1 19.1986 1 15.8146C1 12.6755 3.32526 10.071 6.34878 9.67986ZM16 4C12.0441 4 8.754 6.93391 8.17168 10.7791L8.0418 11.6367L7.17446 11.6293L7.13924 11.6291C4.86162 11.6291 3 13.4946 3 15.8146C3 18.1166 4.83305 19.9715 7.08613 20H24.9139C27.167 19.9715 29 18.1166 29 15.8146C29 13.4946 27.1384 11.6291 24.8608 11.6291L24.8255 11.6293L23.9582 11.6367L23.8283 10.7791C23.246 6.93391 19.9559 4 16 4Z" fill="black"/>
<path d="M17.7071 24.2929C18.0976 24.6834 18.0976 25.3166 17.7071 25.7071L16.9142 26.5L17.7071 27.2929C18.0977 27.6834 18.0977 28.3166 17.7071 28.7071C17.3166 29.0976 16.6834 29.0976 16.2929 28.7071L15.5 27.9142L14.7071 28.7071C14.3166 29.0976 13.6834 29.0976 13.2929 28.7071C12.9024 28.3166 12.9024 27.6834 13.2929 27.2929L14.0858 26.5L13.2929 25.7071C12.9024 25.3166 12.9024 24.6834 13.2929 24.2929C13.6834 23.9024 14.3166 23.9024 14.7071 24.2929L15.5 25.0858L16.2929 24.2929C16.6834 23.9024 17.3166 23.9024 17.7071 24.2929Z" fill="black"/>
<path d="M8.70711 24.2929C9.09763 24.6834 9.09763 25.3166 8.70711 25.7071L7.91423 26.5L8.70712 27.2929C9.09765 27.6834 9.09766 28.3166 8.70714 28.7071C8.31661 29.0976 7.68345 29.0976 7.29292 28.7071L6.50001 27.9142L5.7071 28.7071C5.31657 29.0976 4.68341 29.0976 4.29289 28.7071C3.90236 28.3166 3.90236 27.6834 4.29289 27.2929L5.08579 26.5L4.2929 25.7071C3.90237 25.3166 3.90237 24.6834 4.29289 24.2929C4.68341 23.9024 5.31657 23.9024 5.7071 24.2929L6.50001 25.0858L7.29289 24.2929C7.68342 23.9024 8.31658 23.9024 8.70711 24.2929Z" fill="black"/>
<path d="M26.7071 24.2929C27.0976 24.6834 27.0976 25.3166 26.7071 25.7071L25.9142 26.5L26.7071 27.2929C27.0977 27.6834 27.0977 28.3166 26.7071 28.7071C26.3166 29.0976 25.6834 29.0976 25.2929 28.7071L24.5 27.9142L23.7071 28.7071C23.3166 29.0976 22.6834 29.0976 22.2929 28.7071C21.9024 28.3166 21.9024 27.6834 22.2929 27.2929L23.0858 26.5L22.2929 25.7071C21.9024 25.3166 21.9024 24.6834 22.2929 24.2929C22.6834 23.9024 23.3166 23.9024 23.7071 24.2929L24.5 25.0858L25.2929 24.2929C25.6834 23.9024 26.3166 23.9024 26.7071 24.2929Z" fill="black"/>
</svg>
