<svg width="32" height="32" viewBox="0 0 32 32" fill="none" xmlns="http://www.w3.org/2000/svg">
<rect width="32" height="32" fill="white"/>
<path fill-rule="evenodd" clip-rule="evenodd" d="M16 2C16.5523 2 17 2.44772 17 3V5.04484C19.2868 5.25091 21.3717 6.15682 23.0391 7.54674L24.4853 6.10054C24.8758 5.71002 25.509 5.71002 25.8995 6.10054C26.29 6.49106 26.29 7.12423 25.8995 7.51475L24.4533 8.96096C25.8432 10.6283 26.7491 12.7133 26.9552 15H29C29.5523 15 30 15.4477 30 16C30 16.5523 29.5523 17 29 17H26.9552C26.7491 19.2867 25.8432 21.3717 24.4533 23.039L25.8995 24.4853C26.29 24.8758 26.29 25.5089 25.8995 25.8995C25.509 26.29 24.8758 26.29 24.4853 25.8995L23.0391 24.4533C21.3717 25.8432 19.2868 26.7491 17 26.9552V29C17 29.5523 16.5523 30 16 30C15.4477 30 15 29.5523 15 29V26.9552C12.7133 26.7491 10.6283 25.8432 8.96096 24.4533L7.51474 25.8995C7.12422 26.29 6.49105 26.29 6.10053 25.8995C5.71 25.509 5.71 24.8758 6.10053 24.4853L7.54674 23.0391C6.15682 21.3717 5.25091 19.2868 5.04484 17H3C2.44772 17 2 16.5523 2 16C2 15.4477 2.44772 15 3 15H5.04484C5.25091 12.7132 6.15682 10.6283 7.54674 8.96093L6.10054 7.51472C5.71002 7.1242 5.71002 6.49103 6.10054 6.10051C6.49106 5.70999 7.12423 5.70999 7.51475 6.10051L8.96096 7.54672C10.6283 6.15681 12.7133 5.25091 15 5.04484V3C15 2.44772 15.4477 2 16 2ZM9.63924 22.3672L9.63606 22.364L9.63376 22.3617C8.00642 20.7332 7 18.4841 7 16C7 13.5173 8.00527 11.2694 9.63097 9.64111L9.63607 9.63604L9.64136 9.63072C11.2696 8.00517 13.5174 7 16 7C18.4827 7 20.7307 8.0053 22.359 9.63105L22.364 9.63607L22.369 9.64105C23.9947 11.2693 25 13.5173 25 16C25 18.4836 23.994 20.7323 22.3672 22.3607L22.364 22.3639L22.3617 22.3662C20.7332 23.9936 18.4841 25 16 25C13.5163 25 11.2677 23.994 9.63924 22.3672Z" fill="black"/>
</svg>
