<svg width="32" height="32" viewBox="0 0 32 32" fill="none" xmlns="http://www.w3.org/2000/svg">
<rect width="32" height="32" fill="white"/>
<path d="M19 24C19 23.4477 18.5523 23 18 23C17.4477 23 17 23.4477 17 24C17 24.5523 16.5523 25 16 25C15.4477 25 15 25.4477 15 26C15 26.5523 15.4477 27 16 27C17.6569 27 19 25.6569 19 24Z" fill="black"/>
<path fill-rule="evenodd" clip-rule="evenodd" d="M11 6C11 3.23858 13.2386 1 16 1C18.7614 1 21 3.23858 21 6V17.2927C21 18.3831 21.5248 19.4165 22.1721 20.6913L22.2462 20.8373C22.7286 21.7884 23 22.8639 23 24C23 27.866 19.866 31 16 31C12.134 31 9 27.866 9 24C9 22.8639 9.27139 21.7884 9.75376 20.8373L9.82787 20.6913C10.4752 19.4165 11 18.3831 11 17.2927L11 6ZM13 14H15C15.5523 14 16 13.5523 16 13C16 12.4477 15.5523 12 15 12H13V9H15C15.5523 9 16 8.55228 16 8C16 7.44772 15.5523 7 15 7H13V6C13 4.34315 14.3431 3 16 3C17.6569 3 19 4.34315 19 6V17.2927C19 18.8824 19.7381 20.3253 20.3285 21.4793C20.3742 21.5686 20.419 21.6562 20.4625 21.742C20.806 22.4191 21 23.1855 21 24C21 26.7614 18.7614 29 16 29C13.2386 29 11 26.7614 11 24C11 23.1855 11.194 22.4191 11.5375 21.742C11.581 21.6562 11.6258 21.5686 11.6715 21.4793C12.042 20.755 12.4708 19.9168 12.7387 19H15C15.5523 19 16 18.5523 16 18C16 17.4477 15.5523 17 15 17H13V14Z" fill="black"/>
</svg>
