<svg width="32" height="32" viewBox="0 0 32 32" fill="none" xmlns="http://www.w3.org/2000/svg">
<rect width="32" height="32" fill="white"/>
<path fill-rule="evenodd" clip-rule="evenodd" d="M21 2.5V4.06188C19.601 4.23629 18.3145 4.77185 17.2363 5.57228L16.1663 4.50221C15.7758 4.11169 15.1426 4.11169 14.7521 4.50221C14.3615 4.89274 14.3615 5.5259 14.7521 5.91643L15.7909 6.95531C15.0417 7.87648 14.4934 8.96757 14.2124 10.1618C10.3359 10.8726 7.25113 13.8533 6.34878 17.6799C3.32526 18.071 1 20.6755 1 23.8146C1 27.1986 3.70214 29.9617 7.06881 30L24.9198 30.0001L24.9312 29.9999C28.2979 29.9617 31 27.1986 31 23.8146C31 21.2337 29.4282 19.0142 27.1888 18.089C28.6695 16.826 29.6847 15.0317 29.9381 13H31C31.5523 13 32 12.5523 32 12C32 11.4477 31.5523 11 31 11H29.9381C29.7482 9.47746 29.1305 8.08778 28.2091 6.95509L29.2478 5.9164C29.6383 5.52588 29.6383 4.89271 29.2478 4.50219C28.8573 4.11166 28.2241 4.11166 27.8336 4.50219L26.7636 5.5722C25.6853 4.77183 24.3987 4.23631 23 4.06189V2.5C23 1.94772 22.5523 1.5 22 1.5C21.4477 1.5 21 1.94772 21 2.5ZM28 12C28 8.68629 25.3137 6 22 6C19.3862 6 17.161 7.67218 16.3391 10.0057C20.6075 10.1501 24.1841 13.0102 25.4392 16.9173C26.9888 15.8315 28 14.0331 28 12ZM8.17168 18.7791C8.754 14.9339 12.0441 12 16 12C19.9559 12 23.246 14.9339 23.8283 18.7791L23.9582 19.6367L24.8255 19.6293L24.8608 19.6291C27.1384 19.6291 29 21.4946 29 23.8146C29 26.1166 27.167 27.9715 24.9139 28H7.08613C4.83305 27.9715 3 26.1166 3 23.8146C3 21.4946 4.86162 19.6291 7.13924 19.6291L7.17446 19.6293L8.0418 19.6367L8.17168 18.7791Z" fill="black"/>
</svg>
