<svg width="32" height="32" viewBox="0 0 32 32" fill="none" xmlns="http://www.w3.org/2000/svg">
<rect width="32" height="32" fill="white"/>
<path d="M24 29V28V29ZM8 29V30V29ZM28 7.00002H27H28ZM28 25H29H28ZM4 7H5H4ZM4 25H3H4ZM24 3.00002L24 2.00002L24 3.00002ZM8.00001 3L8.00001 4L8.00001 3ZM22 9.99996H21H22ZM16 16V15V16ZM10 9.99996H9H10ZM11 7.99996C11 7.44768 10.5523 6.99996 10 6.99996C9.44771 6.99996 9 7.44768 9 7.99996H11ZM23 7.99996C23 7.44767 22.5523 6.99996 22 6.99996C21.4477 6.99996 21 7.44767 21 7.99996H23ZM24 28H8V30H24V28ZM27 7.00002L27 25H29L29 7.00002H27ZM3 7L3 25H5L5 7H3ZM24 2.00002L8.00001 2L8.00001 4L24 4.00002L24 2.00002ZM29 7.00002C29 4.2386 26.7614 2.00002 24 2.00002L24 4.00002C25.6569 4.00002 27 5.34317 27 7.00002H29ZM5 7C5 5.34314 6.34315 4 8.00001 4L8.00001 2C5.23858 2 3 4.23857 3 7H5ZM8 28C6.34315 28 5 26.6569 5 25H3C3 27.7614 5.23858 30 8 30V28ZM24 30C26.7614 30 29 27.7614 29 25H27C27 26.6569 25.6569 28 24 28V30ZM21 9.99996C21 12.7614 18.7614 15 16 15V17C19.866 17 23 13.866 23 9.99996H21ZM16 15C13.2386 15 11 12.7614 11 9.99996H9C9 13.866 12.134 17 16 17V15ZM11 9.99996V7.99996H9V9.99996H11ZM23 9.99996V7.99996H21V9.99996H23Z" fill="black"/>
</svg>
