<svg width="32" height="32" viewBox="0 0 32 32" fill="none" xmlns="http://www.w3.org/2000/svg">
<rect width="32" height="32" fill="white"/>
<path d="M5 6H27.0422C28.3102 6 29.2582 7.16496 29.0004 8.40654L27.9295 13.5648C27.7522 14.4192 27.0414 15.0599 26.1733 15.1481L7.93333 17M5 6L3 3M5 6L7.93333 17M26 21H13.1398C10.6986 21 8.56234 19.3588 7.93333 17M13 27C13 28.1046 12.1046 29 11 29C9.89543 29 9 28.1046 9 27C9 25.8954 9.89543 25 11 25C12.1046 25 13 25.8954 13 27ZM26 27C26 28.1046 25.1046 29 24 29C22.8954 29 22 28.1046 22 27C22 25.8954 22.8954 25 24 25C25.1046 25 26 25.8954 26 27Z" stroke="black" stroke-width="2" stroke-linecap="round"/>
</svg>
