<svg width="16" height="16" viewBox="0 0 16 16" fill="none" xmlns="http://www.w3.org/2000/svg">
<rect width="16" height="16" fill="white"/>
<path fill-rule="evenodd" clip-rule="evenodd" d="M6.24579 3.63613L6.8241 12.522C6.97685 14.869 10.3869 14.9842 10.6977 12.6528L11.1427 9.31344C11.3938 10.1244 12.1455 10.6842 13.0028 10.6842H14.1578C14.7101 10.6842 15.1578 10.2364 15.1578 9.68415C15.1578 9.13187 14.7101 8.68415 14.1578 8.68415H13.0439L12.4136 6.16325C12.0195 4.58667 9.73789 4.71509 9.52319 6.32598L8.78538 11.8619L8.21221 3.05513C8.06208 0.748264 4.73246 0.578614 4.34862 2.85826L3.36767 8.68415H1.84204C1.28976 8.68415 0.842041 9.13187 0.842041 9.68415C0.842041 10.2364 1.28976 10.6842 1.84204 10.6842H3.41218C4.36291 10.6842 5.17466 9.99765 5.33252 9.06012L6.24579 3.63613Z" fill="black"/>
</svg>
