<svg width="16" height="16" viewBox="0 0 16 16" fill="none" xmlns="http://www.w3.org/2000/svg">
<rect width="16" height="16" fill="white"/>
<path fill-rule="evenodd" clip-rule="evenodd" d="M9.1707 3H3C1.89543 3 1 3.89543 1 5V13C1 14.1046 1.89543 15 3 15L11 15C12.1046 15 13 14.1046 13 13V6.82929C14.1652 6.41746 15 5.30622 15 4C15 2.34315 13.6569 1 12 1C10.6938 1 9.58254 1.83481 9.1707 3ZM11 4C11 3.44772 11.4477 3 12 3C12.5523 3 13 3.44772 13 4C13 4.55228 12.5523 5 12 5C11.4477 5 11 4.55228 11 4ZM11 6.82929C10.1476 6.52801 9.47199 5.85241 9.1707 5L3 5L3 13L11 13V6.82929Z" fill="black"/>
</svg>
