<svg width="16" height="16" viewBox="0 0 16 16" fill="none" xmlns="http://www.w3.org/2000/svg">
<g clip-path="url(#clip0)">
<rect width="16" height="16" fill="white"/>
<path d="M4.85134 0.725168C5.00307 1.2562 4.69558 1.80969 4.16454 1.96141C2.80131 2.35091 1.76305 3.9693 2.17036 5.59871C2.3043 6.13451 1.97853 6.67744 1.44273 6.81137C0.906931 6.94531 0.364004 6.61953 0.230068 6.08374C-0.438375 3.40969 1.21299 0.724691 3.6151 0.038368C4.14613 -0.113358 4.69962 0.194133 4.85134 0.725168Z" fill="black"/>
<path fill-rule="evenodd" clip-rule="evenodd" d="M7.99994 0.999941C6.83816 0.999941 5.84042 1.82614 5.6402 2.94832C4.50903 3.5523 3.64564 4.58538 3.32531 5.84531C3.243 6.16904 3.19492 6.49026 3.155 6.7593L3.15234 6.77727C3.11213 7.04838 3.07946 7.2686 3.03037 7.47913L2.04213 11.1994L2.03899 11.2127C1.81591 12.1551 2.55141 12.9999 3.46556 12.9999H5.99994C5.99994 14.1045 6.89537 14.9999 7.99994 14.9999C9.10451 14.9999 9.99994 14.1045 9.99994 12.9999H12.5343C13.4485 12.9999 14.184 12.1551 13.9609 11.2127L13.9577 11.1994L12.9695 7.47912C12.9204 7.26859 12.8877 7.04837 12.8475 6.77726L12.8449 6.7593C12.805 6.49026 12.7569 6.16905 12.6746 5.84531C12.3542 4.58538 11.4908 3.5523 10.3597 2.94832C10.1594 1.82614 9.16172 0.999941 7.99994 0.999941ZM7.60366 3.36358C7.60366 3.18491 7.75865 2.99994 7.99994 2.99994C8.24122 2.99994 8.39621 3.18491 8.39621 3.36358L8.39621 4.30763L9.05119 4.5484C9.91352 4.86538 10.5352 5.54728 10.7362 6.33813C10.871 6.86811 10.9002 7.42 11.0262 7.95231L11.0294 7.96554L11.8354 10.9999H4.16447L4.97052 7.96554L4.97365 7.95231C5.09966 7.42 5.12889 6.86811 5.26364 6.33813C5.46471 5.54728 6.08635 4.86538 6.94868 4.5484L7.60366 4.30763V3.36358Z" fill="black"/>
<path d="M11.7554 1.96141C11.2244 1.80969 10.9169 1.2562 11.0686 0.725168C11.2204 0.194133 11.7739 -0.113358 12.3049 0.038368C14.707 0.724691 16.3584 3.40969 15.6899 6.08374C15.556 6.61953 15.0131 6.94531 14.4773 6.81137C13.9415 6.67744 13.6157 6.13451 13.7496 5.59871C14.1569 3.9693 13.1187 2.35091 11.7554 1.96141Z" fill="black"/>
</g>
<defs>
<clipPath id="clip0">
<rect width="16" height="16" fill="white"/>
</clipPath>
</defs>
</svg>
