<svg width="16" height="16" viewBox="0 0 16 16" fill="none" xmlns="http://www.w3.org/2000/svg">
<rect width="16" height="16" fill="white"/>
<path d="M10.7071 10.7071C10.3166 11.0976 9.68339 11.0976 9.29286 10.7071L8 9.41424L6.70714 10.7071C6.31661 11.0976 5.68345 11.0976 5.29292 10.7071C4.9024 10.3166 4.9024 9.68342 5.29292 9.29289L6.58579 8.00003L5.29286 6.70711C4.90234 6.31658 4.90234 5.68342 5.29286 5.29289C5.68339 4.90237 6.31655 4.90237 6.70708 5.29289L8 6.58582L9.29292 5.29289C9.68345 4.90237 10.3166 4.90237 10.7071 5.29289C11.0977 5.68342 11.0977 6.31658 10.7071 6.70711L9.41422 8.00003L10.7071 9.29289C11.0976 9.68342 11.0976 10.3166 10.7071 10.7071Z" fill="black"/>
<path fill-rule="evenodd" clip-rule="evenodd" d="M14.4142 4.23076C14.7893 4.60583 15 5.11454 15 5.64497V10.355C15 10.8854 14.7893 11.3941 14.4142 11.7692L11.7692 14.4142C11.3942 14.7893 10.8855 15 10.355 15L5.64498 15C5.11455 15 4.60584 14.7893 4.23077 14.4142L1.58579 11.7692C1.21071 11.3941 1 10.8854 1 10.355V5.64497C1 5.11454 1.21072 4.60583 1.58579 4.23075L4.23077 1.58578C4.60584 1.21071 5.11455 1 5.64498 1H10.355C10.8855 1 11.3942 1.21071 11.7692 1.58578L14.4142 4.23076ZM13 5.64497L10.355 3L5.64498 3L3 5.64497V10.355L5.64498 13L10.355 13L13 10.355V5.64497Z" fill="black"/>
</svg>
