<svg width="32" height="32" viewBox="0 0 32 32" fill="none" xmlns="http://www.w3.org/2000/svg">
<rect width="32" height="32" fill="white"/>
<path fill-rule="evenodd" clip-rule="evenodd" d="M28 21V7.00004C28 5.34318 26.6569 4.00004 25 4.00004L7.00001 4C5.34315 4 4 5.34314 4 7L4 28.0568L9.67953 24L25 24C26.6569 24 28 22.6568 28 21ZM30 7.00004V21C30 23.7614 27.7614 26 25 26L10.3205 26L5.16248 29.6843C3.83874 30.6298 2 29.6836 2 28.0568L2 7C2 4.23857 4.23858 1.99999 7.00001 2L25 2.00004C27.7614 2.00004 30 4.23862 30 7.00004Z" fill="black"/>
</svg>
