<svg width="32" height="32" viewBox="0 0 32 32" fill="none" xmlns="http://www.w3.org/2000/svg">
<rect width="32" height="32" fill="white"/>
<path d="M9 11C9 10.4477 9.44771 10 10 10L22 10C22.5523 10 23 10.4477 23 11C23 11.5523 22.5523 12 22 12L10 12C9.44771 12 9 11.5523 9 11Z" fill="black"/>
<path d="M10 16C9.44771 16 9 16.4477 9 17C9 17.5523 9.44771 18 10 18H18C18.5523 18 19 17.5523 19 17C19 16.4477 18.5523 16 18 16H10Z" fill="black"/>
<path fill-rule="evenodd" clip-rule="evenodd" d="M30 7.00004L30 21C30 23.7614 27.7614 26 25 26L10.3205 26L5.16248 29.6843C3.83874 30.6298 2 29.6836 2 28.0568V7C2 4.23857 4.23858 1.99999 7.00001 2L25 2.00004C27.7614 2.00004 30 4.23862 30 7.00004ZM28 21L28 7.00004C28 5.34318 26.6569 4.00004 25 4.00004L7.00001 4C5.34315 4 4 5.34314 4 7L4 28.0568L9.67953 24L25 24C26.6569 24 28 22.6568 28 21Z" fill="black"/>
</svg>
