<svg width="32" height="32" viewBox="0 0 32 32" fill="none" xmlns="http://www.w3.org/2000/svg">
<rect width="32" height="32" fill="white"/>
<path fill-rule="evenodd" clip-rule="evenodd" d="M25 7.00001C25 4.2386 22.7614 2.00004 20 2.00003L7.00001 2C4.23858 1.99999 2 4.23857 2 7V14.2379C2 16.1085 4.33891 16.9553 5.53644 15.5183L8.46838 12L20 12C22.7614 12 25 9.76142 25 7.00001ZM20 4.00003C21.6569 4.00004 23 5.34317 23 7.00001C23 8.65685 21.6569 9.99999 20 9.99999L7.53163 9.99999L4 14.2379L4 7C4 5.34314 5.34315 4 7.00001 4L20 4.00003Z" fill="black"/>
<path fill-rule="evenodd" clip-rule="evenodd" d="M7 21C7 18.2386 9.23856 16 12 16L25 16C27.7614 16 30 18.2386 30 21V27.5858C30 29.3676 27.8457 30.2599 26.5858 29L23.5858 26L12 26C9.23856 26 7 23.7614 7 21ZM12 18C10.3431 18 9 19.3432 9 21C9 22.6569 10.3431 24 12 24H24.4142L28 27.5858L28 21C28 19.3431 26.6568 18 25 18L12 18Z" fill="black"/>
</svg>
