<svg width="32" height="32" viewBox="0 0 32 32" fill="none" xmlns="http://www.w3.org/2000/svg">
<rect width="32" height="32" fill="white"/>
<path d="M16 9C16.5523 9 17 9.44772 17 10V18.3333C17 18.8856 16.5523 19.3333 16 19.3333C15.4477 19.3333 15 18.8856 15 18.3333V10C15 9.44772 15.4477 9 16 9Z" fill="black"/>
<path d="M17 22C17 22.5523 16.5523 23 16 23C15.4477 23 15 22.5523 15 22C15 21.4477 15.4477 21 16 21C16.5523 21 17 21.4477 17 22Z" fill="black"/>
<path fill-rule="evenodd" clip-rule="evenodd" d="M16 2C8.2728 2 2 8.23382 2 15.9343C2 23.6174 8.21385 30 15.9583 30C19.8404 30 23.6893 29.962 27.5679 29.9237L28.9681 29.91C29.2927 29.9068 29.5957 29.7462 29.7805 29.4793C29.9653 29.2123 30.0091 28.8722 29.8978 28.5672L27.9426 23.2092C29.2475 21.0914 30 18.5991 30 15.9343C30 8.23382 23.7272 2 16 2ZM4 15.9343C4 9.34793 9.3678 4 16 4C22.6322 4 28 9.34793 28 15.9343C28 18.3746 27.2646 20.6414 26.0019 22.5309C25.8247 22.796 25.7846 23.1297 25.8939 23.4293L27.534 27.9239C23.6591 27.9622 19.8251 28 15.9583 28C9.34343 28 4 22.538 4 15.9343Z" fill="black"/>
</svg>
