<svg width="32" height="32" viewBox="0 0 32 32" fill="none" xmlns="http://www.w3.org/2000/svg">
<rect width="32" height="32" fill="white"/>
<path d="M12 13C11.4477 13 11 13.4477 11 14C11 14.5523 11.4477 15 12 15H20C20.5523 15 21 14.5523 21 14C21 13.4477 20.5523 13 20 13H12Z" fill="black"/>
<path fill-rule="evenodd" clip-rule="evenodd" d="M30 21V7.00004C30 4.23862 27.7614 2.00004 25 2.00004L7.00001 2C4.23858 1.99999 2 4.23857 2 7V28.0568C2 29.6836 3.83874 30.6298 5.16248 29.6843L10.3205 26L25 26C27.7614 26 30 23.7614 30 21ZM28 7.00004V21C28 22.6568 26.6569 24 25 24L9.67953 24L4 28.0568L4 7C4 5.34314 5.34315 4 7.00001 4L25 4.00004C26.6569 4.00004 28 5.34318 28 7.00004Z" fill="black"/>
</svg>
