<svg width="32" height="32" viewBox="0 0 32 32" fill="none" xmlns="http://www.w3.org/2000/svg">
<rect width="32" height="32" fill="white"/>
<path d="M11 14C11 13.4477 11.4477 13 12 13H15V10C15 9.44772 15.4477 9 16 9C16.5523 9 17 9.44772 17 10V13H20C20.5523 13 21 13.4477 21 14C21 14.5523 20.5523 15 20 15H17V18C17 18.5523 16.5523 19 16 19C15.4477 19 15 18.5523 15 18V15H12C11.4477 15 11 14.5523 11 14Z" fill="black"/>
<path fill-rule="evenodd" clip-rule="evenodd" d="M30 7.00004V21C30 23.7614 27.7614 26 25 26L10.3205 26L5.16248 29.6843C3.83874 30.6298 2 29.6836 2 28.0568V7C2 4.23857 4.23858 1.99999 7.00001 2L25 2.00004C27.7614 2.00004 30 4.23862 30 7.00004ZM28 21V7.00004C28 5.34318 26.6569 4.00004 25 4.00004L7.00001 4C5.34315 4 4 5.34314 4 7L4 28.0568L9.67953 24L25 24C26.6569 24 28 22.6568 28 21Z" fill="black"/>
</svg>
