<svg width="32" height="32" viewBox="0 0 32 32" fill="none" xmlns="http://www.w3.org/2000/svg">
<rect width="32" height="32" fill="white"/>
<path d="M14.7755 10.4434L15.57 11.0507V11.0507L14.7755 10.4434ZM11.4568 14.7855L12.2513 15.3928L11.4568 14.7855ZM21.2721 14.7855L22.0667 14.1783L21.2721 14.7855ZM17.9535 10.4434L17.159 11.0507V11.0507L17.9535 10.4434ZM13.0459 18V17V18ZM19.6831 18V19V18ZM11.3645 20C10.8122 20 10.3645 20.4477 10.3645 21C10.3645 21.5523 10.8122 22 11.3645 22V20ZM21.3645 22C21.9168 22 22.3645 21.5523 22.3645 21C22.3645 20.4477 21.9168 20 21.3645 20V22ZM28 16C28 22.6274 22.6274 28 16 28V30C23.732 30 30 23.732 30 16H28ZM16 28C9.37258 28 4 22.6274 4 16H2C2 23.732 8.26801 30 16 30V28ZM4 16C4 9.37258 9.37258 4 16 4V2C8.26801 2 2 8.26801 2 16H4ZM16 4C22.6274 4 28 9.37258 28 16H30C30 8.26801 23.732 2 16 2V4ZM13.9809 9.8362L10.6623 14.1783L12.2513 15.3928L15.57 11.0507L13.9809 9.8362ZM22.0667 14.1783L18.748 9.8362L17.159 11.0507L20.4776 15.3928L22.0667 14.1783ZM13.0459 19H19.6831V17L13.0459 17V19ZM15.57 11.0507C15.9702 10.527 16.7588 10.527 17.159 11.0507L18.748 9.8362C17.5473 8.26519 15.1817 8.26518 13.9809 9.8362L15.57 11.0507ZM10.6623 14.1783C9.15348 16.1524 10.5611 19 13.0459 19V17C12.2176 17 11.7484 16.0508 12.2513 15.3928L10.6623 14.1783ZM20.4776 15.3928C20.9806 16.0508 20.5113 17 19.6831 17V19C22.1678 19 23.5755 16.1524 22.0667 14.1783L20.4776 15.3928ZM11.3645 22H21.3645V20H11.3645V22Z" fill="black"/>
</svg>
