<svg width="32" height="32" viewBox="0 0 32 32" fill="none" xmlns="http://www.w3.org/2000/svg">
<rect width="32" height="32" fill="white"/>
<path d="M28.3594 10.7679C28.7835 11.1217 29.4141 11.0647 29.7679 10.6406C30.1217 10.2165 30.0647 9.58594 29.6406 9.23214L28.3594 10.7679ZM2.35939 9.23214C1.93531 9.58594 1.87834 10.2165 2.23214 10.6406C2.58594 11.0647 3.21654 11.1217 3.64061 10.7679L2.35939 9.23214ZM27 18.5C27 18.49 26.9898 18.6214 26.843 18.9302C26.7089 19.2121 26.4978 19.5658 26.2064 19.97C25.6248 20.7769 24.7664 21.7261 23.6937 22.6317C21.5337 24.4553 18.6301 26 15.5 26V28C19.2735 28 22.6199 26.1558 24.9839 24.1599C26.1733 23.1558 27.1455 22.0876 27.8289 21.1394C28.1701 20.666 28.4501 20.2076 28.6491 19.7891C28.8353 19.3977 29 18.9405 29 18.5H27ZM15.5 26C12.3699 26 9.46633 24.4553 7.30626 22.6317C6.23359 21.7261 5.37518 20.7769 4.79356 19.97C4.50223 19.5658 4.29108 19.2121 4.15704 18.9302C4.01019 18.6214 4 18.49 4 18.5H2C2 18.9405 2.1647 19.3977 2.35087 19.7891C2.54985 20.2076 2.82986 20.666 3.17107 21.1394C3.85451 22.0876 4.82668 23.1558 6.01607 24.1599C8.38011 26.1558 11.7265 28 15.5 28V26ZM4 18.5C4 18.51 4.01019 18.3786 4.15704 18.0698C4.29108 17.7879 4.50223 17.4342 4.79356 17.03C5.37518 16.2231 6.23359 15.2739 7.30626 14.3683C9.46633 12.5447 12.3699 11 15.5 11V9C11.7265 9 8.38011 10.8442 6.01607 12.8401C4.82668 13.8442 3.85451 14.9124 3.17107 15.8606C2.82986 16.334 2.54985 16.7924 2.35087 17.2109C2.1647 17.6023 2 18.0595 2 18.5H4ZM15.5 11C18.6301 11 21.5337 12.5447 23.6937 14.3683C24.7664 15.2739 25.6248 16.2231 26.2064 17.03C26.4978 17.4342 26.7089 17.7879 26.843 18.0698C26.9898 18.3786 27 18.51 27 18.5H29C29 18.0595 28.8353 17.6023 28.6491 17.2109C28.4501 16.7924 28.1701 16.334 27.8289 15.8606C27.1455 14.9124 26.1733 13.8442 24.9839 12.8401C22.6199 10.8442 19.2735 9 15.5 9V11ZM20 15.5C20 17.9853 17.9853 20 15.5 20V22C19.0899 22 22 19.0899 22 15.5H20ZM15.5 20C13.0147 20 11 17.9853 11 15.5H9C9 19.0899 11.9101 22 15.5 22V20ZM11 15.5C11 13.0147 13.0147 11 15.5 11V9C11.9101 9 9 11.9101 9 15.5H11ZM15.5 11C17.9853 11 20 13.0147 20 15.5H22C22 11.9101 19.0899 9 15.5 9V11ZM16 6C20.4791 6 24.7034 7.71777 28.3594 10.7679L29.6406 9.23214C25.6819 5.92946 21.0164 4 16 4V6ZM3.64061 10.7679C7.29656 7.71777 11.5209 6 16 6V4C10.9836 4 6.31809 5.92946 2.35939 9.23214L3.64061 10.7679Z" fill="black"/>
</svg>
