<svg width="32" height="32" viewBox="0 0 32 32" fill="none" xmlns="http://www.w3.org/2000/svg">
<rect width="32" height="32" fill="white"/>
<path d="M8 25V26H8.00004L8 25ZM8 15.0001V16.0001H8.00004L8 15.0001ZM9.00007 25L9.00004 24H9.00003L9.00007 25ZM8.99993 15.0001L8.99996 16.0001L8.99993 15.0001ZM24 25L24 26H24V25ZM24 15.0001L24 16.0001H24V15.0001ZM22.9999 25L23 24L22.9999 25ZM23.0001 15.0001L23 16.0001L23.0001 15.0001ZM25.8 25.6C26.1314 25.1582 26.0418 24.5314 25.6 24.2C25.1582 23.8686 24.5314 23.9582 24.2 24.4L25.8 25.6ZM22.9 27.8L22.1 27.2L22.9 27.8ZM16 28C15.4477 28 15 28.4477 15 29C15 29.5523 15.4477 30 16 30V28ZM7 12.8268C7 7.96831 11.0129 4 16 4V2C9.94141 2 5 6.83095 5 12.8268H7ZM16 4C20.9871 4 25 7.96831 25 12.8268H27C27 6.83095 22.0586 2 16 2V4ZM25 12.8268V15.6111H27V12.8268H25ZM5 12.8268V15.6111H7V12.8268H5ZM8 24C5.79085 24 4 22.2092 4 20.0001H2C2 23.3137 4.6863 26 8 26V24ZM4 20.0001C4 17.791 5.79085 16.0001 8 16.0001V14.0001C4.6863 14.0001 2 16.6864 2 20.0001H4ZM8.00004 16.0001L8.99996 16.0001L8.99989 14.0001L7.99996 14.0001L8.00004 16.0001ZM10 17.0001V23H12V17.0001H10ZM9.00003 24L7.99996 24L8.00004 26L9.00011 26L9.00003 24ZM10 23C10 23.5522 9.55231 23.9999 9.00004 24L9.00011 26C10.6569 25.9999 12 24.6568 12 23H10ZM8.99996 16.0001C9.55226 16.0001 10 16.4478 10 17.0001H12C12 15.3432 10.6568 14 8.99989 14.0001L8.99996 16.0001ZM24 26C27.3137 26 30 23.3137 30 20.0001H28C28 22.2092 26.2091 24 24 24V26ZM30 20.0001C30 16.6864 27.3137 14.0001 24 14.0001V16.0001C26.2091 16.0001 28 17.791 28 20.0001H30ZM24 14.0001L23.0001 14.0001L23 16.0001L24 16.0001L24 14.0001ZM20 17.0001V23H22V17.0001H20ZM22.9999 26L24 26L24 24L23 24L22.9999 26ZM20 23C20 24.6568 21.3431 25.9999 22.9999 26L23 24C22.4477 23.9999 22 23.5522 22 23H20ZM23.0001 14.0001C21.3432 14 20 15.3432 20 17.0001H22C22 16.4478 22.4477 16.0001 23 16.0001L23.0001 14.0001ZM24.2 24.4L22.1 27.2L23.7 28.4L25.8 25.6L24.2 24.4ZM20.5 28H16V30H20.5V28ZM22.1 27.2C21.7223 27.7036 21.1295 28 20.5 28V30C21.759 30 22.9446 29.4072 23.7 28.4L22.1 27.2Z" fill="black"/>
</svg>
