<svg width="32" height="32" viewBox="0 0 32 32" fill="none" xmlns="http://www.w3.org/2000/svg">
<rect width="32" height="32" fill="white"/>
<path d="M10 24.5C10 25.0523 10.4477 25.5 11 25.5C11.5523 25.5 12 25.0523 12 24.5H10ZM11 8L10.7324 7.03648C10.2995 7.15671 10 7.55079 10 8H11ZM29 3H30C30 2.6875 29.8539 2.39297 29.6051 2.20387C29.3563 2.01477 29.0335 1.95284 28.7324 2.03648L29 3ZM28 21C28 21.5523 28.4477 22 29 22C29.5523 22 30 21.5523 30 21H28ZM10 25C10 26.6569 8.65685 28 7 28V30C9.76142 30 12 27.7614 12 25H10ZM7 28C5.34315 28 4 26.6569 4 25H2C2 27.7614 4.23858 30 7 30V28ZM4 25C4 23.3431 5.34315 22 7 22V20C4.23858 20 2 22.2386 2 25H4ZM7 22C8.65685 22 10 23.3431 10 25H12C12 22.2386 9.76142 20 7 20V22ZM28 22C28 23.6569 26.6569 25 25 25V27C27.7614 27 30 24.7614 30 22H28ZM25 25C23.3431 25 22 23.6569 22 22H20C20 24.7614 22.2386 27 25 27V25ZM22 22C22 20.3431 23.3431 19 25 19V17C22.2386 17 20 19.2386 20 22H22ZM25 19C26.6569 19 28 20.3431 28 22H30C30 19.2386 27.7614 17 25 17V19ZM12 24.5V8H10V24.5H12ZM11.2676 8.96352L29.2676 3.96352L28.7324 2.03648L10.7324 7.03648L11.2676 8.96352ZM28 3V21H30V3H28Z" fill="black"/>
</svg>
