<svg width="32" height="32" viewBox="0 0 32 32" fill="none" xmlns="http://www.w3.org/2000/svg">
<rect width="32" height="32" fill="white"/>
<path d="M12.3645 20C12.3645 20.5523 12.8122 21 13.3645 21C13.9168 21 14.3645 20.5523 14.3645 20H12.3645ZM14.3645 12C14.3645 11.4477 13.9168 11 13.3645 11C12.8122 11 12.3645 11.4477 12.3645 12H14.3645ZM18.3645 20C18.3645 20.5523 18.8122 21 19.3645 21C19.9168 21 20.3645 20.5523 20.3645 20H18.3645ZM20.3645 12C20.3645 11.4477 19.9168 11 19.3645 11C18.8122 11 18.3645 11.4477 18.3645 12H20.3645ZM28 16C28 22.6274 22.6274 28 16 28V30C23.732 30 30 23.732 30 16H28ZM16 28C9.37258 28 4 22.6274 4 16H2C2 23.732 8.26801 30 16 30V28ZM4 16C4 9.37258 9.37258 4 16 4V2C8.26801 2 2 8.26801 2 16H4ZM16 4C22.6274 4 28 9.37258 28 16H30C30 8.26801 23.732 2 16 2V4ZM14.3645 20V12H12.3645V20H14.3645ZM20.3645 20V12H18.3645V20H20.3645Z" fill="black"/>
</svg>
