<svg width="32" height="32" viewBox="0 0 32 32" fill="none" xmlns="http://www.w3.org/2000/svg">
<rect width="32" height="32" fill="white"/>
<path d="M28 16C28 22.6274 22.6274 28 16 28V30C23.732 30 30 23.732 30 16H28ZM16 28C9.37258 28 4 22.6274 4 16H2C2 23.732 8.26801 30 16 30V28ZM4 16C4 9.37258 9.37258 4 16 4V2C8.26801 2 2 8.26801 2 16H4ZM16 4C22.6274 4 28 9.37258 28 16H30C30 8.26801 23.732 2 16 2V4ZM13 12H19V10H13V12ZM20 13V19H22V13H20ZM19 20H13V22H19V20ZM12 19V13H10V19H12ZM13 20C12.4477 20 12 19.5523 12 19H10C10 20.6569 11.3431 22 13 22V20ZM20 19C20 19.5523 19.5523 20 19 20V22C20.6569 22 22 20.6569 22 19H20ZM19 12C19.5523 12 20 12.4477 20 13H22C22 11.3431 20.6569 10 19 10V12ZM13 10C11.3431 10 10 11.3431 10 13H12C12 12.4477 12.4477 12 13 12V10Z" fill="black"/>
</svg>
