<svg width="32" height="32" viewBox="0 0 32 32" fill="none" xmlns="http://www.w3.org/2000/svg">
<rect width="32" height="32" fill="white"/>
<path d="M13.4434 17.4535L14.0507 16.659L13.4434 17.4535ZM17.7855 20.7721L18.3927 19.9776L17.7855 20.7721ZM17.7855 10.9568L18.3927 11.7514L17.7855 10.9568ZM13.4434 14.2755L12.8362 13.4809L13.4434 14.2755ZM21 19.1831H20H21ZM10.0001 21C10.0001 21.5523 10.4478 22 11.0001 22C11.5524 22 12.0001 21.5523 12.0001 21H10.0001ZM12.0001 11C12.0001 10.4477 11.5524 10 11.0001 10C10.4478 10 10.0001 10.4477 10.0001 11H12.0001ZM28 16C28 22.6274 22.6274 28 16 28V30C23.732 30 30 23.732 30 16H28ZM16 28C9.37258 28 4 22.6274 4 16H2C2 23.732 8.26801 30 16 30V28ZM4 16C4 9.37258 9.37258 4 16 4V2C8.26801 2 2 8.26801 2 16H4ZM16 4C22.6274 4 28 9.37258 28 16H30C30 8.26801 23.732 2 16 2V4ZM12.8362 18.248L17.1782 21.5667L18.3927 19.9776L14.0507 16.659L12.8362 18.248ZM17.1782 10.1623L12.8362 13.4809L14.0507 15.07L18.3927 11.7514L17.1782 10.1623ZM22 19.1831V12.5459H20V19.1831H22ZM14.0507 16.659C13.527 16.2588 13.527 15.4702 14.0507 15.07L12.8362 13.4809C11.2652 14.6817 11.2652 17.0473 12.8362 18.248L14.0507 16.659ZM17.1782 21.5667C19.1524 23.0755 22 21.6678 22 19.1831H20C20 20.0114 19.0508 20.4806 18.3927 19.9776L17.1782 21.5667ZM18.3927 11.7514C19.0508 11.2484 20 11.7176 20 12.5459H22C22 10.0611 19.1524 8.65349 17.1782 10.1623L18.3927 11.7514ZM12.0001 21V11H10.0001V21H12.0001Z" fill="black"/>
</svg>
