<svg width="32" height="32" viewBox="0 0 32 32" fill="none" xmlns="http://www.w3.org/2000/svg">
<rect width="32" height="32" fill="white"/>
<path d="M5 7H4H5ZM5 25H6H5ZM23 29V28V29ZM9 29V30H9L9 29ZM27 7.00004H26H27ZM27 25H28H27ZM23 3.00004L23 2.00004L23 3.00004ZM9.00001 3L9.00001 4L9.00001 3ZM13 6.99999C12.4477 6.99999 12 7.44771 12 7.99999C12 8.55228 12.4477 8.99999 13 8.99999V6.99999ZM19 8.99999C19.5523 8.99999 20 8.55228 20 7.99999C20 7.44771 19.5523 6.99999 19 6.99999V8.99999ZM4 7L4 25H6L6 7H4ZM23 28L9 28L9 30L23 30V28ZM26 7.00004V25H28V7.00004H26ZM23 2.00004L9.00001 2L9.00001 4L23 4.00004L23 2.00004ZM28 7.00004C28 4.23862 25.7614 2.00004 23 2.00004L23 4.00004C24.6569 4.00004 26 5.34319 26 7.00004H28ZM6 7C6 5.34314 7.34315 4 9.00001 4L9.00001 2C6.23858 1.99999 4 4.23857 4 7H6ZM4 25C4 27.7614 6.23857 30 9 30V28C7.34314 28 6 26.6568 6 25H4ZM23 30C25.7614 30 28 27.7614 28 25H26C26 26.6568 24.6569 28 23 28V30ZM21 19C21 21.7614 18.7614 24 16 24V26C19.866 26 23 22.866 23 19H21ZM16 24C13.2386 24 11 21.7614 11 19H9C9 22.866 12.134 26 16 26V24ZM11 19C11 16.2386 13.2386 14 16 14V12C12.134 12 9 15.134 9 19H11ZM16 14C18.7614 14 21 16.2386 21 19H23C23 15.134 19.866 12 16 12V14ZM13 8.99999H19V6.99999H13V8.99999Z" fill="black"/>
</svg>
