<svg width="32" height="32" viewBox="0 0 32 32" fill="none" xmlns="http://www.w3.org/2000/svg">
<rect width="32" height="32" fill="white"/>
<path d="M3 7H2H3ZM3 25H4H3ZM25 29V28V29ZM7 29V30V29ZM29 7.00004H30H29ZM29 25H28H29ZM25 3.00004L25 2.00004L25 3.00004ZM7.00001 3L7.00001 4L7.00001 3ZM9 28.566C9 29.1183 9.44772 29.566 10 29.566C10.5523 29.566 11 29.1183 11 28.566H9ZM11 3.00001C11 2.44772 10.5523 2.00001 10 2.00001C9.44771 2.00001 9 2.44772 9 3.00001L11 3.00001ZM21 28.566C21 29.1183 21.4477 29.566 22 29.566C22.5523 29.566 23 29.1183 23 28.566H21ZM23 3.00003C23 2.44775 22.5523 2.00003 22 2.00003C21.4477 2.00003 21 2.44775 21 3.00003H23ZM10 22C10.5523 22 11 21.5523 11 21C11 20.4477 10.5523 20 10 20V22ZM3 20C2.44772 20 2 20.4477 2 21C2 21.5523 2.44772 22 3 22V20ZM10 12C10.5523 12 11 11.5523 11 11C11 10.4477 10.5523 9.99999 10 9.99999V12ZM3 9.99999C2.44772 9.99999 2 10.4477 2 11C2 11.5523 2.44772 12 3 12L3 9.99999ZM28 22C28.5523 22 29 21.5523 29 21C29 20.4477 28.5523 20 28 20V22ZM22 20C21.4477 20 21 20.4477 21 21C21 21.5523 21.4477 22 22 22V20ZM28 12C28.5523 12 29 11.5523 29 11C29 10.4477 28.5523 9.99999 28 9.99999V12ZM22 9.99999C21.4477 9.99999 21 10.4477 21 11C21 11.5523 21.4477 12 22 12V9.99999ZM2 7L2 25H4L4 7H2ZM25 28L7 28V30L25 30V28ZM28 7.00004L28 25H30L30 7.00004H28ZM25 2.00004L7.00001 2L7.00001 4L25 4.00004L25 2.00004ZM30 7.00004C30 4.23862 27.7614 2.00005 25 2.00004L25 4.00004C26.6569 4.00004 28 5.34319 28 7.00004H30ZM4 7C4 5.34314 5.34315 4 7.00001 4L7.00001 2C4.23859 1.99999 2 4.23857 2 7H4ZM2 25C2 27.7614 4.23857 30 7 30V28C5.34315 28 4 26.6568 4 25H2ZM25 30C27.7614 30 30 27.7614 30 25H28C28 26.6568 26.6569 28 25 28V30ZM11 28.566L11 3.00001L9 3.00001L9 28.566H11ZM23 28.566V3.00003H21V28.566H23ZM10 20H3V22H10V20ZM10 9.99999L3 9.99999L3 12L10 12V9.99999ZM28 20H22V22H28V20ZM28 9.99999L22 9.99999V12L28 12V9.99999Z" fill="black"/>
</svg>
