<svg width="32" height="32" viewBox="0 0 32 32" fill="none" xmlns="http://www.w3.org/2000/svg">
<rect width="32" height="32" fill="white"/>
<path d="M5.25887 25.8375L4.44514 25.2563H4.44514L5.25887 25.8375ZM25.1136 29V28V29ZM6.88634 29V30V29ZM26.741 25.8375L25.9273 26.4188L26.741 25.8375ZM26 14C26 19.5228 21.5228 24 16 24V26C22.6274 26 28 20.6274 28 14H26ZM16 24C10.4771 24 5.99996 19.5228 5.99996 14H3.99996C3.99996 20.6274 9.37254 26 16 26V24ZM5.99996 14C5.99996 8.47715 10.4771 4 16 4V2C9.37254 2 3.99996 7.37258 3.99996 14H5.99996ZM16 4C21.5228 4 26 8.47715 26 14H28C28 7.37258 22.6274 2 16 2V4ZM20 14C20 16.2091 18.2091 18 16 18V20C19.3137 20 22 17.3137 22 14H20ZM16 18C13.7908 18 12 16.2091 12 14H9.99996C9.99996 17.3137 12.6863 20 16 20V18ZM12 14C12 11.7909 13.7908 10 16 10V8C12.6863 8 9.99996 10.6863 9.99996 14H12ZM16 10C18.2091 10 20 11.7909 20 14H22C22 10.6863 19.3137 8 16 8V10ZM7.18623 21.4188L4.44514 25.2563L6.0726 26.4188L8.81369 22.5812L7.18623 21.4188ZM25.1136 28L6.88634 28V30L25.1136 30V28ZM23.1862 22.5813L25.9273 26.4188L27.5548 25.2563L24.8137 21.4188L23.1862 22.5813ZM4.44514 25.2563C3.02685 27.2419 4.44622 30 6.88634 30V28C6.07297 28 5.59984 27.0806 6.0726 26.4188L4.44514 25.2563ZM25.1136 30C27.5537 30 28.9731 27.2419 27.5548 25.2563L25.9273 26.4188C26.4001 27.0806 25.9269 28 25.1136 28V30Z" fill="black"/>
</svg>
