<svg width="16" height="16" viewBox="0 0 16 16" fill="none" xmlns="http://www.w3.org/2000/svg">
<rect width="16" height="16" fill="white"/>
<path d="M8.80234 9.75524L9.44868 7.81623C9.62333 7.29228 9.34017 6.72597 8.81622 6.55132C8.29228 6.37667 7.72596 6.65983 7.55131 7.18377L6.90503 9.12263C6.37257 9.35294 6 9.88296 6 10.5C6 11.3284 6.67157 12 7.5 12C8.32843 12 9 11.3284 9 10.5C9 10.2289 8.9281 9.97468 8.80234 9.75524Z" fill="black"/>
<path d="M7.5 5C5.96911 5 5 6.0345 5 7C5 7.55228 4.55228 8 4 8C3.44772 8 3 7.55228 3 7C3 4.65179 5.16489 3 7.5 3C9.83511 3 12 4.65179 12 7C12 7.55228 11.5523 8 11 8C10.4477 8 10 7.55228 10 7C10 6.0345 9.03089 5 7.5 5Z" fill="black"/>
<path fill-rule="evenodd" clip-rule="evenodd" d="M7.5 0C3.35786 0 0 3.35786 0 7.5C0 11.6421 3.35786 15 7.5 15C11.6421 15 15 11.6421 15 7.5C15 3.35786 11.6421 0 7.5 0ZM2 7.5C2 4.46243 4.46243 2 7.5 2C10.5376 2 13 4.46243 13 7.5C13 10.5376 10.5376 13 7.5 13C4.46243 13 2 10.5376 2 7.5Z" fill="black"/>
</svg>
