<svg width="16" height="16" viewBox="0 0 16 16" fill="none" xmlns="http://www.w3.org/2000/svg">
<rect width="16" height="16" fill="white"/>
<path fill-rule="evenodd" clip-rule="evenodd" d="M14 4C14 3.36029 13.6718 2.85204 13.2942 2.49495C12.9187 2.13987 12.4291 1.86616 11.9069 1.65731C10.8571 1.23738 9.47536 1 8 1C6.52464 1 5.1429 1.23738 4.09308 1.65731C3.57094 1.86616 3.08129 2.13987 2.70582 2.49495C2.32823 2.85204 2 3.36029 2 4V12C2 12.6397 2.32823 13.148 2.70582 13.505C3.08129 13.8601 3.57094 14.1338 4.09308 14.3427C5.1429 14.7626 6.52464 15 8 15C9.47536 15 10.8571 14.7626 11.9069 14.3427C12.4291 14.1338 12.9187 13.8601 13.2942 13.505C13.6718 13.148 14 12.6397 14 12V4ZM4.08003 4.05193C4.0587 4.03176 4.04225 4.01445 4.02965 4C4.04225 3.98555 4.0587 3.96824 4.08003 3.94807C4.21059 3.8246 4.45317 3.66734 4.83586 3.51426C5.59568 3.21033 6.71394 3 8 3C9.28606 3 10.4043 3.21033 11.1641 3.51426C11.5468 3.66734 11.7894 3.8246 11.92 3.94807C11.9413 3.96823 11.9577 3.98555 11.9704 4C11.9577 4.01445 11.9413 4.03177 11.92 4.05193C11.7894 4.1754 11.5468 4.33266 11.1641 4.48574C10.4043 4.78967 9.28606 5 8 5C6.71394 5 5.59568 4.78967 4.83586 4.48574C4.45317 4.33266 4.21059 4.1754 4.08003 4.05193ZM8 7C6.52464 7 5.1429 6.76262 4.09308 6.34269C4.06193 6.33023 4.0309 6.31754 4 6.30462V7.96177C4.01109 7.9787 4.0344 8.00878 4.08003 8.05193C4.21059 8.1754 4.45317 8.33266 4.83586 8.48574C5.59568 8.78967 6.71394 9 8 9C9.28606 9 10.4043 8.78967 11.1641 8.48574C11.5468 8.33266 11.7894 8.1754 11.92 8.05193C11.9656 8.00878 11.9889 7.9787 12 7.96177V6.30462C11.9691 6.31754 11.9381 6.33023 11.9069 6.34269C10.8571 6.76262 9.47536 7 8 7ZM4 11.9618V10.3046C4.0309 10.3175 4.06193 10.3302 4.09308 10.3427C5.1429 10.7626 6.52464 11 8 11C9.47536 11 10.8571 10.7626 11.9069 10.3427C11.9381 10.3302 11.9691 10.3175 12 10.3046V11.9618C11.9889 11.9787 11.9656 12.0088 11.92 12.0519C11.7894 12.1754 11.5468 12.3327 11.1641 12.4857C10.4043 12.7897 9.28606 13 8 13C6.71394 13 5.59568 12.7897 4.83586 12.4857C4.45317 12.3327 4.21059 12.1754 4.08003 12.0519C4.0344 12.0088 4.01109 11.9787 4 11.9618Z" fill="black"/>
</svg>
