<svg width="16" height="16" viewBox="0 0 16 16" fill="none" xmlns="http://www.w3.org/2000/svg">
<rect width="16" height="16" fill="white"/>
<path fill-rule="evenodd" clip-rule="evenodd" d="M8 3C6.62834 3 5.45876 3.8762 5.02534 5.10248L4.78905 5.77103L4.07692 5.76923C3.48215 5.76923 3 6.25138 3 6.84615C3 7.44093 3.48215 7.92308 4.07692 7.92308C4.09685 7.92308 4.14874 7.92361 4.21256 7.92426C4.27985 7.92494 4.3604 7.92576 4.43072 7.92624C4.50632 7.92676 4.57801 7.92698 4.63376 7.92663C4.66193 7.92646 4.6822 7.92615 4.69505 7.92582C5.22952 7.88574 5.70378 8.27617 5.76317 8.81315C5.82388 9.36209 5.42809 9.85631 4.87916 9.91702C4.80049 9.92572 4.6979 9.9263 4.6531 9.92655L4.64636 9.92659C4.57739 9.92703 4.49536 9.92673 4.4171 9.9262C4.3204 9.92554 4.23599 9.92462 4.17424 9.92396C4.12698 9.92344 4.09299 9.92308 4.07692 9.92308C2.37758 9.92308 1 8.5455 1 6.84615C1 5.38267 2.02172 4.15783 3.39077 3.84602C4.2369 2.15932 5.98202 1 8 1C9.82256 1 11.4227 1.94616 12.3384 3.37078C13.856 3.67131 15 5.0097 15 6.61538C15 8.44217 13.5191 9.92308 11.6923 9.92308H10.7692C10.2169 9.92308 9.76923 9.47536 9.76923 8.92308C9.76923 8.37079 10.2169 7.92308 10.7692 7.92308H11.6923C12.4145 7.92308 13 7.3376 13 6.61538C13 5.89889 12.4236 5.31685 11.7095 5.3078L11.0985 5.30005L10.8266 4.75286C10.3094 3.7119 9.23691 3 8 3ZM4.70554 7.92546C4.70554 7.92546 4.70425 7.92554 4.70123 7.92564L4.70554 7.92546ZM8 6.53846C8.55229 6.53846 9 6.98618 9 7.53846V11.5858L9.60059 10.9852C9.99111 10.5947 10.6243 10.5947 11.0148 10.9852C11.4053 11.3757 11.4053 12.0089 11.0148 12.3994L8.70711 14.7071C8.31658 15.0976 7.68342 15.0976 7.29289 14.7071L4.9852 12.3994C4.59468 12.0089 4.59468 11.3757 4.9852 10.9852C5.37573 10.5947 6.00889 10.5947 6.39941 10.9852L7 11.5858L7 7.53846C7 6.98618 7.44772 6.53846 8 6.53846Z" fill="black"/>
</svg>
