<svg width="16" height="16" viewBox="0 0 16 16" fill="none" xmlns="http://www.w3.org/2000/svg">
<rect width="16" height="16" fill="white"/>
<path fill-rule="evenodd" clip-rule="evenodd" d="M8 5C6.34315 5 5 6.34315 5 8C5 9.65685 6.34315 11 8 11C9.65685 11 11 9.65685 11 8C11 6.34315 9.65685 5 8 5ZM7 8C7 7.44772 7.44772 7 8 7C8.55228 7 9 7.44772 9 8C9 8.55228 8.55228 9 8 9C7.44772 9 7 8.55228 7 8Z" fill="black"/>
<path fill-rule="evenodd" clip-rule="evenodd" d="M9.36546 1.32655C8.51499 0.89115 7.48502 0.891151 6.63455 1.32655L2.44736 3.51001L2.44071 3.51355C1.58982 3.96545 1.0087 4.82343 1.00001 5.81116L0.999969 10.18L1.00005 10.1888C1.00874 11.1766 1.5898 12.0346 2.4407 12.4865L6.62786 14.67L6.63456 14.6735C7.48503 15.1088 8.51501 15.1089 9.36547 14.6735L13.5527 12.49L13.5593 12.4865C14.4102 12.0346 14.9913 11.1766 15 10.1888L15 5.81996L15 5.81116C14.9913 4.82343 14.4102 3.96543 13.5593 3.51352L9.37216 1.32997L9.36546 1.32655ZM3.37607 5.28135L7.54869 3.10542C7.82553 2.96486 8.17448 2.96486 8.45132 3.10542L12.6239 5.28135C12.8879 5.42264 12.9972 5.64283 13 5.82562V10.1744C12.9972 10.3572 12.8879 10.5773 12.624 10.7186L8.4513 12.8946C8.17448 13.0351 7.82556 13.0351 7.54874 12.8946L3.37607 10.7187C3.11214 10.5774 3.00285 10.3572 3.00001 10.1744V5.82558C3.00285 5.6428 3.11214 5.42263 3.37607 5.28135Z" fill="black"/>
</svg>
