<svg width="16" height="16" viewBox="0 0 16 16" fill="none" xmlns="http://www.w3.org/2000/svg">
<rect width="16" height="16" fill="white"/>
<path d="M12.2426 3.75736L11.5355 4.46447L12.2426 3.75736ZM3.75736 3.75736L3.05025 3.05025L3.05025 3.05025L3.75736 3.75736ZM2.08312 7.00458L3.06926 7.17048L2.08312 7.00458ZM3 8L3 7L3 8ZM13.9169 7.00458L14.903 6.83867L13.9169 7.00458ZM5 12.134C5 11.5817 4.55228 11.134 4 11.134C3.44771 11.134 3 11.5817 3 12.134H5ZM14.903 6.83867C14.6632 5.41299 13.9855 4.08605 12.9497 3.05025L11.5355 4.46447C12.2753 5.20427 12.7594 6.15208 12.9307 7.17048L14.903 6.83867ZM12.9497 3.05025C11.637 1.7375 9.85652 1 8 1V3C9.32608 3 10.5979 3.52678 11.5355 4.46447L12.9497 3.05025ZM8 1C6.14348 1 4.36301 1.7375 3.05025 3.05025L4.46447 4.46447C5.40215 3.52678 6.67392 3 8 3V1ZM3.05025 3.05025C2.01446 4.08605 1.33683 5.41299 1.09698 6.83867L3.06926 7.17048C3.24059 6.15208 3.72466 5.20427 4.46447 4.46447L3.05025 3.05025ZM3 9L8 9V7L3 7L3 9ZM8 9H13V7H8V9ZM1.09698 6.83867C0.883558 8.10727 1.9505 9 3 9L3 7C2.99457 7 3.00573 6.99738 3.0253 7.01799C3.03634 7.02962 3.05125 7.05041 3.06136 7.0816C3.0721 7.11473 3.0732 7.14707 3.06926 7.17048L1.09698 6.83867ZM12.9307 7.17048C12.9268 7.14707 12.9279 7.11473 12.9386 7.0816C12.9487 7.05041 12.9637 7.02962 12.9747 7.01799C12.9943 6.99738 13.0054 7 13 7V9C14.0495 9 15.1164 8.10728 14.903 6.83867L12.9307 7.17048ZM7 8V12.134H9V8H7ZM7 12.134C7 12.5481 6.61872 13 6 13V15C7.59042 15 9 13.781 9 12.134H7ZM6 13C5.38128 13 5 12.5481 5 12.134H3C3 13.781 4.40958 15 6 15V13Z" fill="black"/>
</svg>
