<svg width="16" height="16" viewBox="0 0 16 16" fill="none" xmlns="http://www.w3.org/2000/svg">
<rect width="16" height="16" fill="white"/>
<path d="M5 15C5.55228 15 6 14.5523 6 14C6 13.4477 5.55228 13 5 13V15ZM3 11C3 10.4477 2.55228 10 2 10C1.44772 10 1 10.4477 1 11H3ZM2 3H3H2ZM1 5C1 5.55228 1.44772 6 2 6C2.55228 6 3 5.55228 3 5H1ZM5 3C5.55228 3 6 2.55228 6 2C6 1.44772 5.55228 1 5 1V3ZM3 2V1V2ZM11 13C10.4477 13 10 13.4477 10 14C10 14.5523 10.4477 15 11 15V13ZM15 11C15 10.4477 14.5523 10 14 10C13.4477 10 13 10.4477 13 11H15ZM14 3H15H14ZM13 5C13 5.55228 13.4477 6 14 6C14.5523 6 15 5.55228 15 5H13ZM11 1C10.4477 1 10 1.44772 10 2C10 2.55228 10.4477 3 11 3V1ZM13 2V1V2ZM5.1538 7.07702C5.1538 7.6293 5.60151 8.07701 6.1538 8.07701C6.70608 8.07701 7.1538 7.6293 7.1538 7.07701L5.1538 7.07702ZM7.15379 5.6924C7.15379 5.14011 6.70608 4.6924 6.15379 4.6924C5.60151 4.6924 5.15379 5.14011 5.15379 5.6924L7.15379 5.6924ZM8.8461 7.07702C8.84611 7.6293 9.29382 8.07701 9.84611 8.07701C10.3984 8.07701 10.8461 7.6293 10.8461 7.07701L8.8461 7.07702ZM10.8461 5.69239C10.8461 5.14011 10.3984 4.6924 9.8461 4.6924C9.29382 4.6924 8.8461 5.14011 8.8461 5.6924L10.8461 5.69239ZM5.59999 9.2C5.15816 8.86863 4.53136 8.95818 4.2 9.40001C3.86863 9.84184 3.95818 10.4686 4.40001 10.8L5.59999 9.2ZM11.6 10.8C12.0418 10.4686 12.1314 9.84183 11.8 9.4C11.4686 8.95817 10.8418 8.86863 10.4 9.2L11.6 10.8ZM3 15H5V13H3V15ZM1 11V13H3V11H1ZM3 13H3H1C1 14.1046 1.89543 15 3 15V13ZM1 3L1 5H3L3 3H1ZM5 1L3 1V3L5 3V1ZM3 3V3V1C1.89543 1 1 1.89543 1 3H3ZM13 13H11V15H13V13ZM13 11V13H15V11H13ZM13 15C14.1046 15 15 14.1046 15 13H13V15ZM13 3V5H15V3H13ZM11 3L13 3V1L11 1V3ZM15 3C15 1.89543 14.1046 1 13 1V3V3H15ZM7.1538 7.07701L7.15379 5.6924L5.15379 5.6924L5.1538 7.07702L7.1538 7.07701ZM10.8461 7.07701L10.8461 5.69239L8.8461 5.6924L8.8461 7.07702L10.8461 7.07701ZM4.40001 10.8C5.52917 11.6469 6.7345 12.125 8 12.125C9.2655 12.125 10.4708 11.6469 11.6 10.8L10.4 9.2C9.52917 9.85312 8.7345 10.125 8 10.125C7.2655 10.125 6.47083 9.85311 5.59999 9.2L4.40001 10.8Z" fill="black"/>
</svg>
