<svg width="32" height="32" viewBox="0 0 32 32" fill="none" xmlns="http://www.w3.org/2000/svg">
<rect width="32" height="32" fill="white"/>
<path d="M4 5L4 27C4 28.1046 4.89543 29 6 29L26 29C27.1046 29 28 28.1046 28 27L28 5C28 3.89543 27.1045 3 26 3L6 3C4.89543 3 4 3.89543 4 5Z" fill="white"/>
<path d="M16 13.0667C16 14.6867 14.6569 16 13 16C12.8841 16 12.7697 15.9936 12.6572 15.9811C11.1618 15.8148 10 14.5734 10 13.0667C10 10.78 13 8 13 8C13 8 16 10.78 16 13.0667Z" fill="white"/>
<path d="M4 27H5H4ZM4 5H3H4ZM26 29V30V29ZM6 29V28V29ZM26 3V2V3ZM6 3L6 4H6V3ZM28 27L27 27L28 27ZM28 5L29 5V5L28 5ZM14.1429 22C13.5906 22 13.1429 22.4477 13.1429 23C13.1429 23.5523 13.5906 24 14.1429 24V22ZM19.8571 24C20.4094 24 20.8571 23.5523 20.8571 23C20.8571 22.4477 20.4094 22 19.8571 22V24ZM13 8L13.6797 7.2665L13 6.63666L12.3203 7.2665L13 8ZM5 27L5 5H3L3 27H5ZM26 28L6 28V30L26 30V28ZM26 2L6 2V4L26 4V2ZM29 27L29 5L27 5L27 27L29 27ZM26 30C27.6569 30 29 28.6568 29 27L27 27C27 27.5523 26.5523 28 26 28V30ZM26 4C26.5523 4 27 4.44771 27 5L29 5C29 3.34314 27.6568 2 26 2V4ZM5 5C5 4.44771 5.44771 4 6 4L6 2C4.34314 2 3 3.34315 3 5H5ZM3 27C3 28.6569 4.34315 30 6 30V28C5.44772 28 5 27.5523 5 27H3ZM21 13.6667C21 15.6278 19.2752 17.3333 17 17.3333V19.3333C20.2476 19.3333 23 16.8601 23 13.6667H21ZM16 18.3333V23H18V18.3333H16ZM17 22H14.1429V24H17V22ZM17 24H19.8571V22H17V24ZM23 13.6667V12H21V13.6667H23ZM23 12C23 10.8954 22.1046 10 21 10V12V12H23ZM15 13.0667C15 14.1133 14.1259 15 13 15V17C15.1878 17 17 15.2601 17 13.0667H15ZM11 13.0667C11 12.7026 11.1231 12.2546 11.3692 11.7453C11.6114 11.2439 11.9444 10.7409 12.2944 10.2832C12.6422 9.82834 12.9925 9.43678 13.2566 9.15848C13.3881 9.01992 13.4969 8.9109 13.5714 8.83774C13.6087 8.80119 13.6373 8.77369 13.6558 8.75603C13.6651 8.7472 13.6719 8.74084 13.6759 8.73705C13.6779 8.73516 13.6793 8.7339 13.6799 8.73331C13.6802 8.73301 13.6804 8.73287 13.6803 8.7329C13.6803 8.73292 13.6803 8.73298 13.6801 8.73307C13.6801 8.73312 13.68 8.73323 13.68 8.73325C13.6798 8.73337 13.6797 8.73349 13 8C12.3203 7.2665 12.3201 7.26665 12.32 7.26681C12.3199 7.26688 12.3197 7.26704 12.3196 7.26718C12.3193 7.26744 12.319 7.26776 12.3186 7.26811C12.3178 7.26881 12.3169 7.26969 12.3158 7.27074C12.3135 7.27283 12.3105 7.2756 12.3069 7.27903C12.2996 7.2859 12.2895 7.29543 12.2768 7.30752C12.2514 7.3317 12.2155 7.36616 12.1708 7.4101C12.0813 7.4979 11.9557 7.62392 11.8059 7.78171C11.5075 8.09612 11.1078 8.54246 10.7056 9.06839C10.3056 9.59159 9.8886 10.2123 9.56832 10.8753C9.25188 11.5303 9 12.2874 9 13.0667H11ZM13 8C12.3203 8.73349 12.3202 8.73337 12.32 8.73325C12.32 8.73323 12.3199 8.73312 12.3199 8.73307C12.3197 8.73297 12.3197 8.73292 12.3197 8.7329C12.3196 8.73287 12.3198 8.73301 12.3201 8.73331C12.3207 8.7339 12.3221 8.73516 12.3241 8.73705C12.3281 8.74084 12.3349 8.7472 12.3442 8.75603C12.3627 8.77369 12.3913 8.80119 12.4286 8.83774C12.5031 8.9109 12.6119 9.01992 12.7434 9.15848C13.0075 9.43678 13.3578 9.82834 13.7056 10.2832C14.0556 10.7409 14.3886 11.2439 14.6308 11.7453C14.8769 12.2546 15 12.7026 15 13.0667H17C17 12.2874 16.7481 11.5303 16.4317 10.8753C16.1114 10.2123 15.6944 9.59159 15.2944 9.06839C14.8922 8.54246 14.4925 8.09612 14.1941 7.78171C14.0443 7.62392 13.9187 7.4979 13.8292 7.4101C13.7845 7.36616 13.7486 7.3317 13.7232 7.30752C13.7105 7.29543 13.7004 7.2859 13.6931 7.27903C13.6895 7.2756 13.6865 7.27283 13.6842 7.27074C13.6831 7.26969 13.6822 7.26881 13.6814 7.26811C13.681 7.26776 13.6807 7.26745 13.6804 7.26718C13.6803 7.26704 13.6801 7.26688 13.68 7.26681C13.6799 7.26665 13.6797 7.2665 13 8ZM21 10H15.3718V12H21V10ZM13 15C12.9211 15 12.8436 14.9956 12.7678 14.9872L12.5467 16.9749C12.6958 16.9915 12.8471 17 13 17V15ZM12.7678 14.9872C11.7551 14.8746 11 14.0405 11 13.0667H9C9 15.1063 10.5685 16.7549 12.5467 16.9749L12.7678 14.9872ZM17 17.3333C15.4808 17.3333 14.1854 16.5604 13.5098 15.4584L11.8047 16.5037C12.8522 18.2123 14.801 19.3333 17 19.3333V17.3333Z" fill="black"/>
</svg>
