<svg width="32" height="32" viewBox="0 0 32 32" fill="none" xmlns="http://www.w3.org/2000/svg">
<rect width="32" height="32" fill="white"/>
<path d="M21.5348 19.1761L20.5873 19.4959L21.5348 19.1761ZM23.0067 29.1156C23.0706 29.6642 23.567 30.0572 24.1156 29.9933C24.6642 29.9294 25.0571 29.433 24.9933 28.8844L23.0067 29.1156ZM2.03277 23.2596C1.89255 23.7938 2.21192 24.3405 2.7461 24.4807C3.28029 24.6209 3.82701 24.3016 3.96723 23.7674L2.03277 23.2596ZM8.98909 6.39166L9.80032 6.97638V6.97638L8.98909 6.39166ZM9.36422 6.08555L8.91196 5.19367L8.91196 5.19367L9.36422 6.08555ZM15.0577 3.64857L14.7383 2.70097L15.0577 3.64857ZM23.9751 5.5706L24.2091 6.54284V6.54284L23.9751 5.5706ZM26.4587 4.90808L26.1769 3.94861L26.1769 3.94861L26.4587 4.90808ZM28.2181 5.57787L27.3139 6.00498L27.3139 6.00498L28.2181 5.57787ZM28.2167 11.0812L28.8459 11.8584L28.2167 11.0812ZM23.0525 14.7644L23.6019 15.6L23.0525 14.7644ZM18.4908 3.79086L19.1006 2.99828V2.99828L18.4908 3.79086ZM17.4453 20.168C16.9858 20.4743 16.8616 21.0952 17.1679 21.5547C17.4743 22.0142 18.0952 22.1384 18.5547 21.8321L17.4453 20.168ZM8 10.5C8 9.94772 7.55228 9.5 7 9.5C6.44772 9.5 6 9.94772 6 10.5H8ZM20.5873 19.4959C21.4704 22.1126 22.6453 26.0106 23.0067 29.1156L24.9933 28.8844C24.6058 25.5557 23.3704 21.4876 22.4823 18.8563L20.5873 19.4959ZM3.96723 23.7674C7.33965 10.92 9.35858 7.58924 9.80032 6.97638L8.17785 5.80694C7.50378 6.74214 5.41182 10.387 2.03277 23.2596L3.96723 23.7674ZM9.81648 6.97744C10.5493 6.60582 12.9973 5.39849 15.3772 4.59617L14.7383 2.70097C12.2166 3.55109 9.6638 4.81242 8.91196 5.19367L9.81648 6.97744ZM24.2091 6.54284C25.2245 6.29846 26.0975 6.05641 26.7405 5.86756L26.1769 3.94861C25.5594 4.12995 24.7188 4.36305 23.7411 4.59836L24.2091 6.54284ZM27.3139 6.00498C27.6884 6.79786 27.9557 7.79735 27.995 8.67913C28.037 9.62105 27.8137 10.1208 27.5875 10.304L28.8459 11.8584C29.8398 11.0538 30.0426 9.70249 29.993 8.59C29.9407 7.41735 29.5986 6.15908 29.1223 5.15077L27.3139 6.00498ZM27.5875 10.304C26.5457 11.1473 24.6413 12.5229 22.5031 13.9288L23.6019 15.6C25.7705 14.174 27.7342 12.7584 28.8459 11.8584L27.5875 10.304ZM15.3772 4.59617C16.2102 4.31532 16.5764 4.18117 16.9089 4.16701C17.1218 4.15793 17.3799 4.19789 17.881 4.58343L19.1006 2.99828C18.3466 2.41823 17.6385 2.13411 16.8238 2.16882C16.1286 2.19844 15.4057 2.47594 14.7383 2.70097L15.3772 4.59617ZM26.7405 5.86756C26.9007 5.8205 27.0476 5.83045 27.1484 5.86611C27.2389 5.89814 27.2858 5.94557 27.3139 6.00498L29.1223 5.15077C28.5466 3.9321 27.1946 3.64972 26.1769 3.94861L26.7405 5.86756ZM22.4823 18.8563C22.0743 17.6474 22.5378 16.2996 23.6019 15.6L22.5031 13.9288C20.6771 15.1294 19.8893 17.4276 20.5873 19.4959L22.4823 18.8563ZM17.881 4.58343C18.6189 5.15111 19.6834 5.73923 20.7801 6.13895C21.8432 6.52647 23.1198 6.805 24.2091 6.54284L23.7411 4.59836C23.2366 4.71978 22.4207 4.60823 21.465 4.25988C20.5427 3.92373 19.662 3.43018 19.1006 2.99828L17.881 4.58343ZM9.80032 6.97638C9.78881 6.99235 9.78008 6.9992 9.78098 6.99849C9.78251 6.99727 9.79284 6.98943 9.81649 6.97744L8.91196 5.19367C8.6686 5.31708 8.39336 5.50794 8.17785 5.80694L9.80032 6.97638ZM18.5547 21.8321C20.0135 20.8595 21.8638 19.6679 22.4701 17.2425L20.5299 16.7575C20.1362 18.3321 18.9865 19.1405 17.4453 20.168L18.5547 21.8321ZM13 16.5C13 17.8807 11.8807 19 10.5 19V21C12.9853 21 15 18.9853 15 16.5H13ZM10.5 19C9.11929 19 8 17.8807 8 16.5H6C6 18.9853 8.01472 21 10.5 21V19ZM15 16.5C15 14.8676 14.8886 12.1253 14.1941 9.76089C13.847 8.57944 13.3319 7.41181 12.5447 6.52431C11.7314 5.60747 10.6317 5 9.22727 5V7C9.98415 7 10.5616 7.30261 11.0485 7.85148C11.5614 8.4297 11.9693 9.28343 12.2751 10.3246C12.8863 12.4052 13 14.913 13 16.5H15ZM8 16.5V10.5H6V16.5H8Z" fill="black"/>
</svg>
