<svg width="32" height="32" viewBox="0 0 32 32" fill="none" xmlns="http://www.w3.org/2000/svg">
<rect width="32" height="32" fill="white"/>
<path d="M11.0901 27.6384L10.1557 27.2824L11.0901 27.6384ZM14 11.5C14 12.8807 12.8807 14 11.5 14V16C13.9853 16 16 13.9853 16 11.5H14ZM11.5 14C10.1193 14 9 12.8807 9 11.5H7C7 13.9853 9.01472 16 11.5 16V14ZM9 11.5C9 10.1193 10.1193 9 11.5 9V7C9.01472 7 7 9.01472 7 11.5H9ZM11.5 9C12.8807 9 14 10.1193 14 11.5H16C16 9.01472 13.9853 7 11.5 7V9ZM28 12.7143C28 14.4077 26.5357 15.9885 23.6235 17.1935C20.7925 18.365 16.9733 19 13.1739 19V21C17.1582 21 21.2521 20.3393 24.3882 19.0416C27.4432 17.7774 30 15.7153 30 12.7143H28ZM13.1739 19C10.0364 19 7.74987 18.105 6.26035 16.7666C4.77666 15.4334 4 13.5872 4 11.5H2C2 14.1072 2.98365 16.511 4.9236 18.2542C6.85772 19.9922 9.6581 21 13.1739 21V19ZM4 11.5C4 9.41278 4.77666 7.56662 6.26035 6.23341C7.74987 4.89497 10.0364 4 13.1739 4V2C9.6581 2 6.85772 3.00782 4.9236 4.74577C2.98365 6.48896 2 8.8928 2 11.5H4ZM13.1739 4C16.516 4 20.3407 4.73582 23.3012 5.9719C24.7827 6.59049 25.994 7.31218 26.8185 8.08427C27.6435 8.85687 28 9.59777 28 10.2857H30C30 8.84866 29.2448 7.61635 28.1855 6.62443C27.1257 5.63202 25.6802 4.79791 24.0717 4.12631C20.8522 2.78204 16.7638 2 13.1739 2V4ZM28 10.2857C28 10.2874 28 10.289 28 10.2907C28 10.2924 28 10.294 28 10.2957C28 10.2973 28 10.299 28 10.3007C28 10.3023 28 10.304 28 10.3056C28 10.3073 28 10.309 28 10.3106C28 10.3123 28 10.3139 28 10.3156C28 10.3173 28 10.3189 28 10.3206C28 10.3222 28 10.3239 28 10.3256C28 10.3272 28 10.3289 28 10.3305C28 10.3322 28 10.3339 28 10.3355C28 10.3372 28 10.3388 28 10.3405C28 10.3422 28 10.3438 28 10.3455C28 10.3471 28 10.3488 28 10.3505C28 10.3521 28 10.3538 28 10.3554C28 10.3571 28 10.3588 28 10.3604C28 10.3621 28 10.3638 28 10.3654C28 10.3671 28 10.3687 28 10.3704C28 10.3721 28 10.3737 28 10.3754C28 10.377 28 10.3787 28 10.3804C28 10.382 28 10.3837 28 10.3853C28 10.387 28 10.3887 28 10.3903C28 10.392 28 10.3936 28 10.3953C28 10.397 28 10.3986 28 10.4003C28 10.4019 28 10.4036 28 10.4053C28 10.4069 28 10.4086 28 10.4102C28 10.4119 28 10.4136 28 10.4152C28 10.4169 28 10.4185 28 10.4202C28 10.4219 28 10.4235 28 10.4252C28 10.4268 28 10.4285 28 10.4302C28 10.4318 28 10.4335 28 10.4351C28 10.4368 28 10.4385 28 10.4401C28 10.4418 28 10.4434 28 10.4451C28 10.4468 28 10.4484 28 10.4501C28 10.4518 28 10.4534 28 10.4551C28 10.4567 28 10.4584 28 10.4601C28 10.4617 28 10.4634 28 10.465C28 10.4667 28 10.4684 28 10.47C28 10.4717 28 10.4733 28 10.475C28 10.4767 28 10.4783 28 10.48C28 10.4816 28 10.4833 28 10.485C28 10.4866 28 10.4883 28 10.4899C28 10.4916 28 10.4933 28 10.4949C28 10.4966 28 10.4982 28 10.4999C28 10.5016 28 10.5032 28 10.5049C28 10.5065 28 10.5082 28 10.5099C28 10.5115 28 10.5132 28 10.5148C28 10.5165 28 10.5181 28 10.5198C28 10.5215 28 10.5231 28 10.5248C28 10.5264 28 10.5281 28 10.5298C28 10.5314 28 10.5331 28 10.5347C28 10.5364 28 10.5381 28 10.5397C28 10.5414 28 10.543 28 10.5447C28 10.5464 28 10.548 28 10.5497C28 10.5513 28 10.553 28 10.5547C28 10.5563 28 10.558 28 10.5596C28 10.5613 28 10.5629 28 10.5646C28 10.5663 28 10.5679 28 10.5696C28 10.5712 28 10.5729 28 10.5746C28 10.5762 28 10.5779 28 10.5795C28 10.5812 28 10.5829 28 10.5845C28 10.5862 28 10.5878 28 10.5895C28 10.5911 28 10.5928 28 10.5945C28 10.5961 28 10.5978 28 10.5994C28 10.6011 28 10.6028 28 10.6044C28 10.6061 28 10.6077 28 10.6094C28 10.611 28 10.6127 28 10.6144C28 10.616 28 10.6177 28 10.6193C28 10.621 28 10.6227 28 10.6243C28 10.626 28 10.6276 28 10.6293C28 10.6309 28 10.6326 28 10.6343C28 10.6359 28 10.6376 28 10.6392C28 10.6409 28 10.6425 28 10.6442C28 10.6459 28 10.6475 28 10.6492C28 10.6508 28 10.6525 28 10.6541C28 10.6558 28 10.6575 28 10.6591C28 10.6608 28 10.6624 28 10.6641C28 10.6657 28 10.6674 28 10.6691C28 10.6707 28 10.6724 28 10.674C28 10.6757 28 10.6773 28 10.679C28 10.6807 28 10.6823 28 10.684C28 10.6856 28 10.6873 28 10.6889C28 10.6906 28 10.6923 28 10.6939C28 10.6956 28 10.6972 28 10.6989C28 10.7005 28 10.7022 28 10.7038C28 10.7055 28 10.7072 28 10.7088C28 10.7105 28 10.7121 28 10.7138C28 10.7154 28 10.7171 28 10.7188C28 10.7204 28 10.7221 28 10.7237C28 10.7254 28 10.727 28 10.7287C28 10.7303 28 10.732 28 10.7336C28 10.7353 28 10.737 28 10.7386C28 10.7403 28 10.7419 28 10.7436C28 10.7452 28 10.7469 28 10.7485C28 10.7502 28 10.7519 28 10.7535C28 10.7552 28 10.7568 28 10.7585C28 10.7601 28 10.7618 28 10.7634C28 10.7651 28 10.7667 28 10.7684C28 10.77 28 10.7717 28 10.7734C28 10.775 28 10.7767 28 10.7783C28 10.78 28 10.7816 28 10.7833C28 10.7849 28 10.7866 28 10.7882C28 10.7899 28 10.7915 28 10.7932C28 10.7949 28 10.7965 28 10.7982C28 10.7998 28 10.8015 28 10.8031C28 10.8048 28 10.8064 28 10.8081C28 10.8097 28 10.8114 28 10.813C28 10.8147 28 10.8163 28 10.818C28 10.8196 28 10.8213 28 10.8229C28 10.8246 28 10.8263 28 10.8279C28 10.8296 28 10.8312 28 10.8329C28 10.8345 28 10.8362 28 10.8378C28 10.8395 28 10.8411 28 10.8428C28 10.8444 28 10.8461 28 10.8477C28 10.8494 28 10.851 28 10.8527C28 10.8543 28 10.856 28 10.8576C28 10.8593 28 10.8609 28 10.8626C28 10.8642 28 10.8659 28 10.8675C28 10.8692 28 10.8708 28 10.8725C28 10.8741 28 10.8758 28 10.8774C28 10.8791 28 10.8807 28 10.8824C28 10.884 28 10.8857 28 10.8873C28 10.889 28 10.8906 28 10.8923C28 10.8939 28 10.8956 28 10.8972C28 10.8989 28 10.9005 28 10.9022C28 10.9038 28 10.9055 28 10.9071C28 10.9088 28 10.9104 28 10.9121C28 10.9137 28 10.9154 28 10.917C28 10.9187 28 10.9203 28 10.922C28 10.9236 28 10.9253 28 10.9269C28 10.9286 28 10.9302 28 10.9319C28 10.9335 28 10.9351 28 10.9368C28 10.9384 28 10.9401 28 10.9417C28 10.9434 28 10.945 28 10.9467C28 10.9483 28 10.95 28 10.9516C28 10.9533 28 10.9549 28 10.9566C28 10.9582 28 10.9599 28 10.9615C28 10.9631 28 10.9648 28 10.9664C28 10.9681 28 10.9697 28 10.9714C28 10.973 28 10.9747 28 10.9763C28 10.978 28 10.9796 28 10.9812C28 10.9829 28 10.9845 28 10.9862C28 10.9878 28 10.9895 28 10.9911C28 10.9928 28 10.9944 28 10.9961C28 10.9977 28 10.9993 28 11.001C28 11.0026 28 11.0043 28 11.0059C28 11.0076 28 11.0092 28 11.0108C28 11.0125 28 11.0141 28 11.0158C28 11.0174 28 11.0191 28 11.0207C28 11.0224 28 11.024 28 11.0256C28 11.0273 28 11.0289 28 11.0306C28 11.0322 28 11.0339 28 11.0355C28 11.0371 28 11.0388 28 11.0404C28 11.0421 28 11.0437 28 11.0454C28 11.047 28 11.0486 28 11.0503C28 11.0519 28 11.0536 28 11.0552C28 11.0568 28 11.0585 28 11.0601C28 11.0618 28 11.0634 28 11.065C28 11.0667 28 11.0683 28 11.07C28 11.0716 28 11.0732 28 11.0749C28 11.0765 28 11.0782 28 11.0798C28 11.0815 28 11.0831 28 11.0847C28 11.0864 28 11.088 28 11.0896C28 11.0913 28 11.0929 28 11.0946C28 11.0962 28 11.0978 28 11.0995C28 11.1011 28 11.1028 28 11.1044C28 11.106 28 11.1077 28 11.1093C28 11.111 28 11.1126 28 11.1142C28 11.1159 28 11.1175 28 11.1191C28 11.1208 28 11.1224 28 11.1241C28 11.1257 28 11.1273 28 11.129C28 11.1306 28 11.1322 28 11.1339C28 11.1355 28 11.1371 28 11.1388C28 11.1404 28 11.1421 28 11.1437C28 11.1453 28 11.147 28 11.1486C28 11.1502 28 11.1519 28 11.1535C28 11.1551 28 11.1568 28 11.1584C28 11.16 28 11.1617 28 11.1633C28 11.165 28 11.1666 28 11.1682C28 11.1699 28 11.1715 28 11.1731C28 11.1748 28 11.1764 28 11.178C28 11.1797 28 11.1813 28 11.1829C28 11.1846 28 11.1862 28 11.1878C28 11.1895 28 11.1911 28 11.1927C28 11.1944 28 11.196 28 11.1976C28 11.1993 28 11.2009 28 11.2025C28 11.2042 28 11.2058 28 11.2074C28 11.2091 28 11.2107 28 11.2123C28 11.2139 28 11.2156 28 11.2172C28 11.2188 28 11.2205 28 11.2221C28 11.2237 28 11.2254 28 11.227C28 11.2286 28 11.2303 28 11.2319C28 11.2335 28 11.2351 28 11.2368C28 11.2384 28 11.24 28 11.2417C28 11.2433 28 11.2449 28 11.2466C28 11.2482 28 11.2498 28 11.2514C28 11.2531 28 11.2547 28 11.2563C28 11.258 28 11.2596 28 11.2612C28 11.2628 28 11.2645 28 11.2661C28 11.2677 28 11.2693 28 11.271C28 11.2726 28 11.2742 28 11.2759C28 11.2775 28 11.2791 28 11.2807C28 11.2824 28 11.284 28 11.2856C28 11.2872 28 11.2889 28 11.2905C28 11.2921 28 11.2937 28 11.2954C28 11.297 28 11.2986 28 11.3002C28 11.3019 28 11.3035 28 11.3051C28 11.3067 28 11.3084 28 11.31C28 11.3116 28 11.3132 28 11.3149C28 11.3165 28 11.3181 28 11.3197C28 11.3214 28 11.323 28 11.3246C28 11.3262 28 11.3278 28 11.3295C28 11.3311 28 11.3327 28 11.3343C28 11.336 28 11.3376 28 11.3392C28 11.3408 28 11.3425 28 11.3441C28 11.3457 28 11.3473 28 11.3489C28 11.3506 28 11.3522 28 11.3538C28 11.3554 28 11.357 28 11.3587C28 11.3603 28 11.3619 28 11.3635C28 11.3651 28 11.3668 28 11.3684C28 11.37 28 11.3716 28 11.3732C28 11.3749 28 11.3765 28 11.3781C28 11.3797 28 11.3813 28 11.3829C28 11.3846 28 11.3862 28 11.3878C28 11.3894 28 11.391 28 11.3927C28 11.3943 28 11.3959 28 11.3975C28 11.3991 28 11.4007 28 11.4024C28 11.404 28 11.4056 28 11.4072C28 11.4088 28 11.4104 28 11.4121C28 11.4137 28 11.4153 28 11.4169C28 11.4185 28 11.4201 28 11.4217C28 11.4234 28 11.425 28 11.4266C28 11.4282 28 11.4298 28 11.4314C28 11.433 28 11.4347 28 11.4363C28 11.4379 28 11.4395 28 11.4411C28 11.4427 28 11.4443 28 11.446C28 11.4476 28 11.4492 28 11.4508C28 11.4524 28 11.454 28 11.4556C28 11.4572 28 11.4589 28 11.4605C28 11.4621 28 11.4637 28 11.4653C28 11.4669 28 11.4685 28 11.4701C28 11.4717 28 11.4734 28 11.475C28 11.4766 28 11.4782 28 11.4798C28 11.4814 28 11.483 28 11.4846C28 11.4862 28 11.4878 28 11.4894C28 11.4911 28 11.4927 28 11.4943C28 11.4959 28 11.4975 28 11.4991C28 11.5007 28 11.5023 28 11.5039C28 11.5055 28 11.5071 28 11.5087C28 11.5103 28 11.512 28 11.5136C28 11.5152 28 11.5168 28 11.5184C28 11.52 28 11.5216 28 11.5232C28 11.5248 28 11.5264 28 11.528C28 11.5296 28 11.5312 28 11.5328C28 11.5344 28 11.536 28 11.5376C28 11.5392 28 11.5408 28 11.5425C28 11.5441 28 11.5457 28 11.5473C28 11.5489 28 11.5505 28 11.5521C28 11.5537 28 11.5553 28 11.5569C28 11.5585 28 11.5601 28 11.5617C28 11.5633 28 11.5649 28 11.5665C28 11.5681 28 11.5697 28 11.5713C28 11.5729 28 11.5745 28 11.5761C28 11.5777 28 11.5793 28 11.5809C28 11.5825 28 11.5841 28 11.5857C28 11.5873 28 11.5889 28 11.5905C28 11.5921 28 11.5937 28 11.5953C28 11.5969 28 11.5985 28 11.6001C28 11.6017 28 11.6033 28 11.6049C28 11.6065 28 11.6081 28 11.6097C28 11.6113 28 11.6129 28 11.6144C28 11.616 28 11.6176 28 11.6192C28 11.6208 28 11.6224 28 11.624C28 11.6256 28 11.6272 28 11.6288C28 11.6304 28 11.632 28 11.6336C28 11.6352 28 11.6368 28 11.6384C28 11.64 28 11.6416 28 11.6432C28 11.6447 28 11.6463 28 11.6479C28 11.6495 28 11.6511 28 11.6527C28 11.6543 28 11.6559 28 11.6575C28 11.6591 28 11.6607 28 11.6623C28 11.6638 28 11.6654 28 11.667C28 11.6686 28 11.6702 28 11.6718C28 11.6734 28 11.675 28 11.6766C28 11.6782 28 11.6797 28 11.6813C28 11.6829 28 11.6845 28 11.6861C28 11.6877 28 11.6893 28 11.6909C28 11.6925 28 11.694 28 11.6956C28 11.6972 28 11.6988 28 11.7004C28 11.702 28 11.7036 28 11.7051C28 11.7067 28 11.7083 28 11.7099C28 11.7115 28 11.7131 28 11.7147C28 11.7162 28 11.7178 28 11.7194C28 11.721 28 11.7226 28 11.7242C28 11.7258 28 11.7273 28 11.7289C28 11.7305 28 11.7321 28 11.7337C28 11.7353 28 11.7368 28 11.7384C28 11.74 28 11.7416 28 11.7432C28 11.7447 28 11.7463 28 11.7479C28 11.7495 28 11.7511 28 11.7526C28 11.7542 28 11.7558 28 11.7574C28 11.759 28 11.7605 28 11.7621C28 11.7637 28 11.7653 28 11.7669C28 11.7684 28 11.77 28 11.7716C28 11.7732 28 11.7748 28 11.7763C28 11.7779 28 11.7795 28 11.7811C28 11.7826 28 11.7842 28 11.7858C28 11.7874 28 11.789 28 11.7905C28 11.7921 28 11.7937 28 11.7953C28 11.7968 28 11.7984 28 11.8C28 11.8016 28 11.8031 28 11.8047C28 11.8063 28 11.8079 28 11.8094C28 11.811 28 11.8126 28 11.8141C28 11.8157 28 11.8173 28 11.8189C28 11.8204 28 11.822 28 11.8236C28 11.8252 28 11.8267 28 11.8283C28 11.8299 28 11.8314 28 11.833C28 11.8346 28 11.8361 28 11.8377C28 11.8393 28 11.8409 28 11.8424C28 11.844 28 11.8456 28 11.8471C28 11.8487 28 11.8503 28 11.8518C28 11.8534 28 11.855 28 11.8565C28 11.8581 28 11.8597 28 11.8612C28 11.8628 28 11.8644 28 11.8659C28 11.8675 28 11.8691 28 11.8706C28 11.8722 28 11.8738 28 11.8753C28 11.8769 28 11.8785 28 11.88C28 11.8816 28 11.8832 28 11.8847C28 11.8863 28 11.8879 28 11.8894C28 11.891 28 11.8925 28 11.8941C28 11.8957 28 11.8972 28 11.8988C28 11.9004 28 11.9019 28 11.9035C28 11.905 28 11.9066 28 11.9082C28 11.9097 28 11.9113 28 11.9128C28 11.9144 28 11.916 28 11.9175C28 11.9191 28 11.9206 28 11.9222C28 11.9238 28 11.9253 28 11.9269C28 11.9284 28 11.93 28 11.9316C28 11.9331 28 11.9347 28 11.9362C28 11.9378 28 11.9393 28 11.9409C28 11.9424 28 11.944 28 11.9456C28 11.9471 28 11.9487 28 11.9502C28 11.9518 28 11.9533 28 11.9549C28 11.9564 28 11.958 28 11.9596C28 11.9611 28 11.9627 28 11.9642C28 11.9658 28 11.9673 28 11.9689C28 11.9704 28 11.972 28 11.9735C28 11.9751 28 11.9766 28 11.9782C28 11.9797 28 11.9813 28 11.9828C28 11.9844 28 11.9859 28 11.9875C28 11.989 28 11.9906 28 11.9921C28 11.9937 28 11.9952 28 11.9968C28 11.9983 28 11.9999 28 12.0014C28 12.003 28 12.0045 28 12.0061C28 12.0076 28 12.0092 28 12.0107C28 12.0122 28 12.0138 28 12.0153C28 12.0169 28 12.0184 28 12.02C28 12.0215 28 12.0231 28 12.0246C28 12.0262 28 12.0277 28 12.0292C28 12.0308 28 12.0323 28 12.0339C28 12.0354 28 12.037 28 12.0385C28 12.04 28 12.0416 28 12.0431C28 12.0447 28 12.0462 28 12.0477C28 12.0493 28 12.0508 28 12.0524C28 12.0539 28 12.0554 28 12.057C28 12.0585 28 12.0601 28 12.0616C28 12.0631 28 12.0647 28 12.0662C28 12.0678 28 12.0693 28 12.0708C28 12.0724 28 12.0739 28 12.0754C28 12.077 28 12.0785 28 12.0801C28 12.0816 28 12.0831 28 12.0847C28 12.0862 28 12.0877 28 12.0893C28 12.0908 28 12.0923 28 12.0939C28 12.0954 28 12.0969 28 12.0985C28 12.1 28 12.1015 28 12.1031C28 12.1046 28 12.1061 28 12.1077C28 12.1092 28 12.1107 28 12.1123C28 12.1138 28 12.1153 28 12.1168C28 12.1184 28 12.1199 28 12.1214C28 12.123 28 12.1245 28 12.126C28 12.1276 28 12.1291 28 12.1306C28 12.1321 28 12.1337 28 12.1352C28 12.1367 28 12.1382 28 12.1398C28 12.1413 28 12.1428 28 12.1444C28 12.1459 28 12.1474 28 12.1489C28 12.1505 28 12.152 28 12.1535C28 12.155 28 12.1566 28 12.1581C28 12.1596 28 12.1611 28 12.1626C28 12.1642 28 12.1657 28 12.1672C28 12.1687 28 12.1703 28 12.1718C28 12.1733 28 12.1748 28 12.1763C28 12.1779 28 12.1794 28 12.1809C28 12.1824 28 12.1839 28 12.1855C28 12.187 28 12.1885 28 12.19C28 12.1915 28 12.1931 28 12.1946C28 12.1961 28 12.1976 28 12.1991C28 12.2006 28 12.2022 28 12.2037C28 12.2052 28 12.2067 28 12.2082C28 12.2097 28 12.2112 28 12.2128C28 12.2143 28 12.2158 28 12.2173C28 12.2188 28 12.2203 28 12.2218C28 12.2234 28 12.2249 28 12.2264C28 12.2279 28 12.2294 28 12.2309C28 12.2324 28 12.2339 28 12.2354C28 12.237 28 12.2385 28 12.24C28 12.2415 28 12.243 28 12.2445C28 12.246 28 12.2475 28 12.249C28 12.2505 28 12.2521 28 12.2536C28 12.2551 28 12.2566 28 12.2581C28 12.2596 28 12.2611 28 12.2626C28 12.2641 28 12.2656 28 12.2671C28 12.2686 28 12.2701 28 12.2716C28 12.2731 28 12.2746 28 12.2761C28 12.2776 28 12.2791 28 12.2807C28 12.2822 28 12.2837 28 12.2852C28 12.2867 28 12.2882 28 12.2897C28 12.2912 28 12.2927 28 12.2942C28 12.2957 28 12.2972 28 12.2987C28 12.3002 28 12.3017 28 12.3032C28 12.3047 28 12.3062 28 12.3077C28 12.3092 28 12.3107 28 12.3122C28 12.3136 28 12.3151 28 12.3166C28 12.3181 28 12.3196 28 12.3211C28 12.3226 28 12.3241 28 12.3256C28 12.3271 28 12.3286 28 12.3301C28 12.3316 28 12.3331 28 12.3346C28 12.3361 28 12.3376 28 12.3391C28 12.3405 28 12.342 28 12.3435C28 12.345 28 12.3465 28 12.348C28 12.3495 28 12.351 28 12.3525C28 12.354 28 12.3555 28 12.3569C28 12.3584 28 12.3599 28 12.3614C28 12.3629 28 12.3644 28 12.3659C28 12.3674 28 12.3688 28 12.3703C28 12.3718 28 12.3733 28 12.3748C28 12.3763 28 12.3778 28 12.3792C28 12.3807 28 12.3822 28 12.3837C28 12.3852 28 12.3867 28 12.3882C28 12.3896 28 12.3911 28 12.3926C28 12.3941 28 12.3956 28 12.397C28 12.3985 28 12.4 28 12.4015C28 12.403 28 12.4044 28 12.4059C28 12.4074 28 12.4089 28 12.4104C28 12.4118 28 12.4133 28 12.4148C28 12.4163 28 12.4178 28 12.4192C28 12.4207 28 12.4222 28 12.4237C28 12.4251 28 12.4266 28 12.4281C28 12.4296 28 12.431 28 12.4325C28 12.434 28 12.4355 28 12.4369C28 12.4384 28 12.4399 28 12.4414C28 12.4428 28 12.4443 28 12.4458C28 12.4472 28 12.4487 28 12.4502C28 12.4517 28 12.4531 28 12.4546C28 12.4561 28 12.4575 28 12.459C28 12.4605 28 12.4619 28 12.4634C28 12.4649 28 12.4664 28 12.4678C28 12.4693 28 12.4708 28 12.4722C28 12.4737 28 12.4752 28 12.4766C28 12.4781 28 12.4796 28 12.481C28 12.4825 28 12.4839 28 12.4854C28 12.4869 28 12.4883 28 12.4898C28 12.4913 28 12.4927 28 12.4942C28 12.4957 28 12.4971 28 12.4986C28 12.5 28 12.5015 28 12.503C28 12.5044 28 12.5059 28 12.5073C28 12.5088 28 12.5103 28 12.5117C28 12.5132 28 12.5146 28 12.5161C28 12.5175 28 12.519 28 12.5205C28 12.5219 28 12.5234 28 12.5248C28 12.5263 28 12.5277 28 12.5292C28 12.5307 28 12.5321 28 12.5336C28 12.535 28 12.5365 28 12.5379C28 12.5394 28 12.5408 28 12.5423C28 12.5437 28 12.5452 28 12.5466C28 12.5481 28 12.5495 28 12.551C28 12.5524 28 12.5539 28 12.5553C28 12.5568 28 12.5582 28 12.5597C28 12.5611 28 12.5626 28 12.564C28 12.5655 28 12.5669 28 12.5684C28 12.5698 28 12.5713 28 12.5727C28 12.5742 28 12.5756 28 12.577C28 12.5785 28 12.5799 28 12.5814C28 12.5828 28 12.5843 28 12.5857C28 12.5872 28 12.5886 28 12.59C28 12.5915 28 12.5929 28 12.5944C28 12.5958 28 12.5972 28 12.5987C28 12.6001 28 12.6016 28 12.603C28 12.6044 28 12.6059 28 12.6073C28 12.6088 28 12.6102 28 12.6116C28 12.6131 28 12.6145 28 12.6159C28 12.6174 28 12.6188 28 12.6202C28 12.6217 28 12.6231 28 12.6246C28 12.626 28 12.6274 28 12.6289C28 12.6303 28 12.6317 28 12.6332C28 12.6346 28 12.636 28 12.6375C28 12.6389 28 12.6403 28 12.6417C28 12.6432 28 12.6446 28 12.646C28 12.6475 28 12.6489 28 12.6503C28 12.6518 28 12.6532 28 12.6546C28 12.656 28 12.6575 28 12.6589C28 12.6603 28 12.6617 28 12.6632C28 12.6646 28 12.666 28 12.6674C28 12.6689 28 12.6703 28 12.6717C28 12.6731 28 12.6746 28 12.676C28 12.6774 28 12.6788 28 12.6803C28 12.6817 28 12.6831 28 12.6845C28 12.6859 28 12.6874 28 12.6888C28 12.6902 28 12.6916 28 12.693C28 12.6945 28 12.6959 28 12.6973C28 12.6987 28 12.7001 28 12.7015C28 12.703 28 12.7044 28 12.7058C28 12.7072 28 12.7086 28 12.71C28 12.7115 28 12.7129 28 12.7143H30C30 12.7129 30 12.7115 30 12.71C30 12.7086 30 12.7072 30 12.7058C30 12.7044 30 12.703 30 12.7015C30 12.7001 30 12.6987 30 12.6973C30 12.6959 30 12.6945 30 12.693C30 12.6916 30 12.6902 30 12.6888C30 12.6874 30 12.6859 30 12.6845C30 12.6831 30 12.6817 30 12.6803C30 12.6788 30 12.6774 30 12.676C30 12.6746 30 12.6731 30 12.6717C30 12.6703 30 12.6689 30 12.6674C30 12.666 30 12.6646 30 12.6632C30 12.6617 30 12.6603 30 12.6589C30 12.6575 30 12.656 30 12.6546C30 12.6532 30 12.6518 30 12.6503C30 12.6489 30 12.6475 30 12.646C30 12.6446 30 12.6432 30 12.6417C30 12.6403 30 12.6389 30 12.6375C30 12.636 30 12.6346 30 12.6332C30 12.6317 30 12.6303 30 12.6289C30 12.6274 30 12.626 30 12.6246C30 12.6231 30 12.6217 30 12.6202C30 12.6188 30 12.6174 30 12.6159C30 12.6145 30 12.6131 30 12.6116C30 12.6102 30 12.6088 30 12.6073C30 12.6059 30 12.6044 30 12.603C30 12.6016 30 12.6001 30 12.5987C30 12.5972 30 12.5958 30 12.5944C30 12.5929 30 12.5915 30 12.59C30 12.5886 30 12.5872 30 12.5857C30 12.5843 30 12.5828 30 12.5814C30 12.5799 30 12.5785 30 12.577C30 12.5756 30 12.5742 30 12.5727C30 12.5713 30 12.5698 30 12.5684C30 12.5669 30 12.5655 30 12.564C30 12.5626 30 12.5611 30 12.5597C30 12.5582 30 12.5568 30 12.5553C30 12.5539 30 12.5524 30 12.551C30 12.5495 30 12.5481 30 12.5466C30 12.5452 30 12.5437 30 12.5423C30 12.5408 30 12.5394 30 12.5379C30 12.5365 30 12.535 30 12.5336C30 12.5321 30 12.5307 30 12.5292C30 12.5277 30 12.5263 30 12.5248C30 12.5234 30 12.5219 30 12.5205C30 12.519 30 12.5175 30 12.5161C30 12.5146 30 12.5132 30 12.5117C30 12.5103 30 12.5088 30 12.5073C30 12.5059 30 12.5044 30 12.503C30 12.5015 30 12.5 30 12.4986C30 12.4971 30 12.4957 30 12.4942C30 12.4927 30 12.4913 30 12.4898C30 12.4883 30 12.4869 30 12.4854C30 12.4839 30 12.4825 30 12.481C30 12.4796 30 12.4781 30 12.4766C30 12.4752 30 12.4737 30 12.4722C30 12.4708 30 12.4693 30 12.4678C30 12.4664 30 12.4649 30 12.4634C30 12.4619 30 12.4605 30 12.459C30 12.4575 30 12.4561 30 12.4546C30 12.4531 30 12.4517 30 12.4502C30 12.4487 30 12.4472 30 12.4458C30 12.4443 30 12.4428 30 12.4414C30 12.4399 30 12.4384 30 12.4369C30 12.4355 30 12.434 30 12.4325C30 12.431 30 12.4296 30 12.4281C30 12.4266 30 12.4251 30 12.4237C30 12.4222 30 12.4207 30 12.4192C30 12.4178 30 12.4163 30 12.4148C30 12.4133 30 12.4118 30 12.4104C30 12.4089 30 12.4074 30 12.4059C30 12.4044 30 12.403 30 12.4015C30 12.4 30 12.3985 30 12.397C30 12.3956 30 12.3941 30 12.3926C30 12.3911 30 12.3896 30 12.3882C30 12.3867 30 12.3852 30 12.3837C30 12.3822 30 12.3807 30 12.3792C30 12.3778 30 12.3763 30 12.3748C30 12.3733 30 12.3718 30 12.3703C30 12.3688 30 12.3674 30 12.3659C30 12.3644 30 12.3629 30 12.3614C30 12.3599 30 12.3584 30 12.3569C30 12.3555 30 12.354 30 12.3525C30 12.351 30 12.3495 30 12.348C30 12.3465 30 12.345 30 12.3435C30 12.342 30 12.3405 30 12.3391C30 12.3376 30 12.3361 30 12.3346C30 12.3331 30 12.3316 30 12.3301C30 12.3286 30 12.3271 30 12.3256C30 12.3241 30 12.3226 30 12.3211C30 12.3196 30 12.3181 30 12.3166C30 12.3151 30 12.3136 30 12.3122C30 12.3107 30 12.3092 30 12.3077C30 12.3062 30 12.3047 30 12.3032C30 12.3017 30 12.3002 30 12.2987C30 12.2972 30 12.2957 30 12.2942C30 12.2927 30 12.2912 30 12.2897C30 12.2882 30 12.2867 30 12.2852C30 12.2837 30 12.2822 30 12.2807C30 12.2791 30 12.2776 30 12.2761C30 12.2746 30 12.2731 30 12.2716C30 12.2701 30 12.2686 30 12.2671C30 12.2656 30 12.2641 30 12.2626C30 12.2611 30 12.2596 30 12.2581C30 12.2566 30 12.2551 30 12.2536C30 12.2521 30 12.2505 30 12.249C30 12.2475 30 12.246 30 12.2445C30 12.243 30 12.2415 30 12.24C30 12.2385 30 12.237 30 12.2354C30 12.2339 30 12.2324 30 12.2309C30 12.2294 30 12.2279 30 12.2264C30 12.2249 30 12.2234 30 12.2218C30 12.2203 30 12.2188 30 12.2173C30 12.2158 30 12.2143 30 12.2128C30 12.2112 30 12.2097 30 12.2082C30 12.2067 30 12.2052 30 12.2037C30 12.2022 30 12.2006 30 12.1991C30 12.1976 30 12.1961 30 12.1946C30 12.1931 30 12.1915 30 12.19C30 12.1885 30 12.187 30 12.1855C30 12.1839 30 12.1824 30 12.1809C30 12.1794 30 12.1779 30 12.1763C30 12.1748 30 12.1733 30 12.1718C30 12.1703 30 12.1687 30 12.1672C30 12.1657 30 12.1642 30 12.1626C30 12.1611 30 12.1596 30 12.1581C30 12.1566 30 12.155 30 12.1535C30 12.152 30 12.1505 30 12.1489C30 12.1474 30 12.1459 30 12.1444C30 12.1428 30 12.1413 30 12.1398C30 12.1382 30 12.1367 30 12.1352C30 12.1337 30 12.1321 30 12.1306C30 12.1291 30 12.1276 30 12.126C30 12.1245 30 12.123 30 12.1214C30 12.1199 30 12.1184 30 12.1168C30 12.1153 30 12.1138 30 12.1123C30 12.1107 30 12.1092 30 12.1077C30 12.1061 30 12.1046 30 12.1031C30 12.1015 30 12.1 30 12.0985C30 12.0969 30 12.0954 30 12.0939C30 12.0923 30 12.0908 30 12.0893C30 12.0877 30 12.0862 30 12.0847C30 12.0831 30 12.0816 30 12.0801C30 12.0785 30 12.077 30 12.0754C30 12.0739 30 12.0724 30 12.0708C30 12.0693 30 12.0678 30 12.0662C30 12.0647 30 12.0631 30 12.0616C30 12.0601 30 12.0585 30 12.057C30 12.0554 30 12.0539 30 12.0524C30 12.0508 30 12.0493 30 12.0477C30 12.0462 30 12.0447 30 12.0431C30 12.0416 30 12.04 30 12.0385C30 12.037 30 12.0354 30 12.0339C30 12.0323 30 12.0308 30 12.0292C30 12.0277 30 12.0262 30 12.0246C30 12.0231 30 12.0215 30 12.02C30 12.0184 30 12.0169 30 12.0153C30 12.0138 30 12.0122 30 12.0107C30 12.0092 30 12.0076 30 12.0061C30 12.0045 30 12.003 30 12.0014C30 11.9999 30 11.9983 30 11.9968C30 11.9952 30 11.9937 30 11.9921C30 11.9906 30 11.989 30 11.9875C30 11.9859 30 11.9844 30 11.9828C30 11.9813 30 11.9797 30 11.9782C30 11.9766 30 11.9751 30 11.9735C30 11.972 30 11.9704 30 11.9689C30 11.9673 30 11.9658 30 11.9642C30 11.9627 30 11.9611 30 11.9596C30 11.958 30 11.9564 30 11.9549C30 11.9533 30 11.9518 30 11.9502C30 11.9487 30 11.9471 30 11.9456C30 11.944 30 11.9424 30 11.9409C30 11.9393 30 11.9378 30 11.9362C30 11.9347 30 11.9331 30 11.9316C30 11.93 30 11.9284 30 11.9269C30 11.9253 30 11.9238 30 11.9222C30 11.9206 30 11.9191 30 11.9175C30 11.916 30 11.9144 30 11.9128C30 11.9113 30 11.9097 30 11.9082C30 11.9066 30 11.905 30 11.9035C30 11.9019 30 11.9004 30 11.8988C30 11.8972 30 11.8957 30 11.8941C30 11.8925 30 11.891 30 11.8894C30 11.8879 30 11.8863 30 11.8847C30 11.8832 30 11.8816 30 11.88C30 11.8785 30 11.8769 30 11.8753C30 11.8738 30 11.8722 30 11.8706C30 11.8691 30 11.8675 30 11.8659C30 11.8644 30 11.8628 30 11.8612C30 11.8597 30 11.8581 30 11.8565C30 11.855 30 11.8534 30 11.8518C30 11.8503 30 11.8487 30 11.8471C30 11.8456 30 11.844 30 11.8424C30 11.8409 30 11.8393 30 11.8377C30 11.8361 30 11.8346 30 11.833C30 11.8314 30 11.8299 30 11.8283C30 11.8267 30 11.8252 30 11.8236C30 11.822 30 11.8204 30 11.8189C30 11.8173 30 11.8157 30 11.8141C30 11.8126 30 11.811 30 11.8094C30 11.8079 30 11.8063 30 11.8047C30 11.8031 30 11.8016 30 11.8C30 11.7984 30 11.7968 30 11.7953C30 11.7937 30 11.7921 30 11.7905C30 11.789 30 11.7874 30 11.7858C30 11.7842 30 11.7826 30 11.7811C30 11.7795 30 11.7779 30 11.7763C30 11.7748 30 11.7732 30 11.7716C30 11.77 30 11.7684 30 11.7669C30 11.7653 30 11.7637 30 11.7621C30 11.7605 30 11.759 30 11.7574C30 11.7558 30 11.7542 30 11.7526C30 11.7511 30 11.7495 30 11.7479C30 11.7463 30 11.7447 30 11.7432C30 11.7416 30 11.74 30 11.7384C30 11.7368 30 11.7353 30 11.7337C30 11.7321 30 11.7305 30 11.7289C30 11.7273 30 11.7258 30 11.7242C30 11.7226 30 11.721 30 11.7194C30 11.7178 30 11.7162 30 11.7147C30 11.7131 30 11.7115 30 11.7099C30 11.7083 30 11.7067 30 11.7051C30 11.7036 30 11.702 30 11.7004C30 11.6988 30 11.6972 30 11.6956C30 11.694 30 11.6925 30 11.6909C30 11.6893 30 11.6877 30 11.6861C30 11.6845 30 11.6829 30 11.6813C30 11.6797 30 11.6782 30 11.6766C30 11.675 30 11.6734 30 11.6718C30 11.6702 30 11.6686 30 11.667C30 11.6654 30 11.6638 30 11.6623C30 11.6607 30 11.6591 30 11.6575C30 11.6559 30 11.6543 30 11.6527C30 11.6511 30 11.6495 30 11.6479C30 11.6463 30 11.6447 30 11.6432C30 11.6416 30 11.64 30 11.6384C30 11.6368 30 11.6352 30 11.6336C30 11.632 30 11.6304 30 11.6288C30 11.6272 30 11.6256 30 11.624C30 11.6224 30 11.6208 30 11.6192C30 11.6176 30 11.616 30 11.6144C30 11.6129 30 11.6113 30 11.6097C30 11.6081 30 11.6065 30 11.6049C30 11.6033 30 11.6017 30 11.6001C30 11.5985 30 11.5969 30 11.5953C30 11.5937 30 11.5921 30 11.5905C30 11.5889 30 11.5873 30 11.5857C30 11.5841 30 11.5825 30 11.5809C30 11.5793 30 11.5777 30 11.5761C30 11.5745 30 11.5729 30 11.5713C30 11.5697 30 11.5681 30 11.5665C30 11.5649 30 11.5633 30 11.5617C30 11.5601 30 11.5585 30 11.5569C30 11.5553 30 11.5537 30 11.5521C30 11.5505 30 11.5489 30 11.5473C30 11.5457 30 11.5441 30 11.5425C30 11.5408 30 11.5392 30 11.5376C30 11.536 30 11.5344 30 11.5328C30 11.5312 30 11.5296 30 11.528C30 11.5264 30 11.5248 30 11.5232C30 11.5216 30 11.52 30 11.5184C30 11.5168 30 11.5152 30 11.5136C30 11.512 30 11.5103 30 11.5087C30 11.5071 30 11.5055 30 11.5039C30 11.5023 30 11.5007 30 11.4991C30 11.4975 30 11.4959 30 11.4943C30 11.4927 30 11.4911 30 11.4894C30 11.4878 30 11.4862 30 11.4846C30 11.483 30 11.4814 30 11.4798C30 11.4782 30 11.4766 30 11.475C30 11.4734 30 11.4717 30 11.4701C30 11.4685 30 11.4669 30 11.4653C30 11.4637 30 11.4621 30 11.4605C30 11.4589 30 11.4572 30 11.4556C30 11.454 30 11.4524 30 11.4508C30 11.4492 30 11.4476 30 11.446C30 11.4443 30 11.4427 30 11.4411C30 11.4395 30 11.4379 30 11.4363C30 11.4347 30 11.433 30 11.4314C30 11.4298 30 11.4282 30 11.4266C30 11.425 30 11.4234 30 11.4217C30 11.4201 30 11.4185 30 11.4169C30 11.4153 30 11.4137 30 11.4121C30 11.4104 30 11.4088 30 11.4072C30 11.4056 30 11.404 30 11.4024C30 11.4007 30 11.3991 30 11.3975C30 11.3959 30 11.3943 30 11.3927C30 11.391 30 11.3894 30 11.3878C30 11.3862 30 11.3846 30 11.3829C30 11.3813 30 11.3797 30 11.3781C30 11.3765 30 11.3749 30 11.3732C30 11.3716 30 11.37 30 11.3684C30 11.3668 30 11.3651 30 11.3635C30 11.3619 30 11.3603 30 11.3587C30 11.357 30 11.3554 30 11.3538C30 11.3522 30 11.3506 30 11.3489C30 11.3473 30 11.3457 30 11.3441C30 11.3425 30 11.3408 30 11.3392C30 11.3376 30 11.336 30 11.3343C30 11.3327 30 11.3311 30 11.3295C30 11.3278 30 11.3262 30 11.3246C30 11.323 30 11.3214 30 11.3197C30 11.3181 30 11.3165 30 11.3149C30 11.3132 30 11.3116 30 11.31C30 11.3084 30 11.3067 30 11.3051C30 11.3035 30 11.3019 30 11.3002C30 11.2986 30 11.297 30 11.2954C30 11.2937 30 11.2921 30 11.2905C30 11.2889 30 11.2872 30 11.2856C30 11.284 30 11.2824 30 11.2807C30 11.2791 30 11.2775 30 11.2759C30 11.2742 30 11.2726 30 11.271C30 11.2693 30 11.2677 30 11.2661C30 11.2645 30 11.2628 30 11.2612C30 11.2596 30 11.258 30 11.2563C30 11.2547 30 11.2531 30 11.2514C30 11.2498 30 11.2482 30 11.2466C30 11.2449 30 11.2433 30 11.2417C30 11.24 30 11.2384 30 11.2368C30 11.2351 30 11.2335 30 11.2319C30 11.2303 30 11.2286 30 11.227C30 11.2254 30 11.2237 30 11.2221C30 11.2205 30 11.2188 30 11.2172C30 11.2156 30 11.2139 30 11.2123C30 11.2107 30 11.2091 30 11.2074C30 11.2058 30 11.2042 30 11.2025C30 11.2009 30 11.1993 30 11.1976C30 11.196 30 11.1944 30 11.1927C30 11.1911 30 11.1895 30 11.1878C30 11.1862 30 11.1846 30 11.1829C30 11.1813 30 11.1797 30 11.178C30 11.1764 30 11.1748 30 11.1731C30 11.1715 30 11.1699 30 11.1682C30 11.1666 30 11.165 30 11.1633C30 11.1617 30 11.16 30 11.1584C30 11.1568 30 11.1551 30 11.1535C30 11.1519 30 11.1502 30 11.1486C30 11.147 30 11.1453 30 11.1437C30 11.1421 30 11.1404 30 11.1388C30 11.1371 30 11.1355 30 11.1339C30 11.1322 30 11.1306 30 11.129C30 11.1273 30 11.1257 30 11.1241C30 11.1224 30 11.1208 30 11.1191C30 11.1175 30 11.1159 30 11.1142C30 11.1126 30 11.111 30 11.1093C30 11.1077 30 11.106 30 11.1044C30 11.1028 30 11.1011 30 11.0995C30 11.0978 30 11.0962 30 11.0946C30 11.0929 30 11.0913 30 11.0896C30 11.088 30 11.0864 30 11.0847C30 11.0831 30 11.0815 30 11.0798C30 11.0782 30 11.0765 30 11.0749C30 11.0732 30 11.0716 30 11.07C30 11.0683 30 11.0667 30 11.065C30 11.0634 30 11.0618 30 11.0601C30 11.0585 30 11.0568 30 11.0552C30 11.0536 30 11.0519 30 11.0503C30 11.0486 30 11.047 30 11.0454C30 11.0437 30 11.0421 30 11.0404C30 11.0388 30 11.0371 30 11.0355C30 11.0339 30 11.0322 30 11.0306C30 11.0289 30 11.0273 30 11.0256C30 11.024 30 11.0224 30 11.0207C30 11.0191 30 11.0174 30 11.0158C30 11.0141 30 11.0125 30 11.0108C30 11.0092 30 11.0076 30 11.0059C30 11.0043 30 11.0026 30 11.001C30 10.9993 30 10.9977 30 10.9961C30 10.9944 30 10.9928 30 10.9911C30 10.9895 30 10.9878 30 10.9862C30 10.9845 30 10.9829 30 10.9812C30 10.9796 30 10.978 30 10.9763C30 10.9747 30 10.973 30 10.9714C30 10.9697 30 10.9681 30 10.9664C30 10.9648 30 10.9631 30 10.9615C30 10.9599 30 10.9582 30 10.9566C30 10.9549 30 10.9533 30 10.9516C30 10.95 30 10.9483 30 10.9467C30 10.945 30 10.9434 30 10.9417C30 10.9401 30 10.9384 30 10.9368C30 10.9351 30 10.9335 30 10.9319C30 10.9302 30 10.9286 30 10.9269C30 10.9253 30 10.9236 30 10.922C30 10.9203 30 10.9187 30 10.917C30 10.9154 30 10.9137 30 10.9121C30 10.9104 30 10.9088 30 10.9071C30 10.9055 30 10.9038 30 10.9022C30 10.9005 30 10.8989 30 10.8972C30 10.8956 30 10.8939 30 10.8923C30 10.8906 30 10.889 30 10.8873C30 10.8857 30 10.884 30 10.8824C30 10.8807 30 10.8791 30 10.8774C30 10.8758 30 10.8741 30 10.8725C30 10.8708 30 10.8692 30 10.8675C30 10.8659 30 10.8642 30 10.8626C30 10.8609 30 10.8593 30 10.8576C30 10.856 30 10.8543 30 10.8527C30 10.851 30 10.8494 30 10.8477C30 10.8461 30 10.8444 30 10.8428C30 10.8411 30 10.8395 30 10.8378C30 10.8362 30 10.8345 30 10.8329C30 10.8312 30 10.8296 30 10.8279C30 10.8263 30 10.8246 30 10.8229C30 10.8213 30 10.8196 30 10.818C30 10.8163 30 10.8147 30 10.813C30 10.8114 30 10.8097 30 10.8081C30 10.8064 30 10.8048 30 10.8031C30 10.8015 30 10.7998 30 10.7982C30 10.7965 30 10.7949 30 10.7932C30 10.7915 30 10.7899 30 10.7882C30 10.7866 30 10.7849 30 10.7833C30 10.7816 30 10.78 30 10.7783C30 10.7767 30 10.775 30 10.7734C30 10.7717 30 10.77 30 10.7684C30 10.7667 30 10.7651 30 10.7634C30 10.7618 30 10.7601 30 10.7585C30 10.7568 30 10.7552 30 10.7535C30 10.7519 30 10.7502 30 10.7485C30 10.7469 30 10.7452 30 10.7436C30 10.7419 30 10.7403 30 10.7386C30 10.737 30 10.7353 30 10.7336C30 10.732 30 10.7303 30 10.7287C30 10.727 30 10.7254 30 10.7237C30 10.7221 30 10.7204 30 10.7188C30 10.7171 30 10.7154 30 10.7138C30 10.7121 30 10.7105 30 10.7088C30 10.7072 30 10.7055 30 10.7038C30 10.7022 30 10.7005 30 10.6989C30 10.6972 30 10.6956 30 10.6939C30 10.6923 30 10.6906 30 10.6889C30 10.6873 30 10.6856 30 10.684C30 10.6823 30 10.6807 30 10.679C30 10.6773 30 10.6757 30 10.674C30 10.6724 30 10.6707 30 10.6691C30 10.6674 30 10.6657 30 10.6641C30 10.6624 30 10.6608 30 10.6591C30 10.6575 30 10.6558 30 10.6541C30 10.6525 30 10.6508 30 10.6492C30 10.6475 30 10.6459 30 10.6442C30 10.6425 30 10.6409 30 10.6392C30 10.6376 30 10.6359 30 10.6343C30 10.6326 30 10.6309 30 10.6293C30 10.6276 30 10.626 30 10.6243C30 10.6227 30 10.621 30 10.6193C30 10.6177 30 10.616 30 10.6144C30 10.6127 30 10.611 30 10.6094C30 10.6077 30 10.6061 30 10.6044C30 10.6028 30 10.6011 30 10.5994C30 10.5978 30 10.5961 30 10.5945C30 10.5928 30 10.5911 30 10.5895C30 10.5878 30 10.5862 30 10.5845C30 10.5829 30 10.5812 30 10.5795C30 10.5779 30 10.5762 30 10.5746C30 10.5729 30 10.5712 30 10.5696C30 10.5679 30 10.5663 30 10.5646C30 10.5629 30 10.5613 30 10.5596C30 10.558 30 10.5563 30 10.5547C30 10.553 30 10.5513 30 10.5497C30 10.548 30 10.5464 30 10.5447C30 10.543 30 10.5414 30 10.5397C30 10.5381 30 10.5364 30 10.5347C30 10.5331 30 10.5314 30 10.5298C30 10.5281 30 10.5264 30 10.5248C30 10.5231 30 10.5215 30 10.5198C30 10.5181 30 10.5165 30 10.5148C30 10.5132 30 10.5115 30 10.5099C30 10.5082 30 10.5065 30 10.5049C30 10.5032 30 10.5016 30 10.4999C30 10.4982 30 10.4966 30 10.4949C30 10.4933 30 10.4916 30 10.4899C30 10.4883 30 10.4866 30 10.485C30 10.4833 30 10.4816 30 10.48C30 10.4783 30 10.4767 30 10.475C30 10.4733 30 10.4717 30 10.47C30 10.4684 30 10.4667 30 10.465C30 10.4634 30 10.4617 30 10.4601C30 10.4584 30 10.4567 30 10.4551C30 10.4534 30 10.4518 30 10.4501C30 10.4484 30 10.4468 30 10.4451C30 10.4434 30 10.4418 30 10.4401C30 10.4385 30 10.4368 30 10.4351C30 10.4335 30 10.4318 30 10.4302C30 10.4285 30 10.4268 30 10.4252C30 10.4235 30 10.4219 30 10.4202C30 10.4185 30 10.4169 30 10.4152C30 10.4136 30 10.4119 30 10.4102C30 10.4086 30 10.4069 30 10.4053C30 10.4036 30 10.4019 30 10.4003C30 10.3986 30 10.397 30 10.3953C30 10.3936 30 10.392 30 10.3903C30 10.3887 30 10.387 30 10.3853C30 10.3837 30 10.382 30 10.3804C30 10.3787 30 10.377 30 10.3754C30 10.3737 30 10.3721 30 10.3704C30 10.3687 30 10.3671 30 10.3654C30 10.3638 30 10.3621 30 10.3604C30 10.3588 30 10.3571 30 10.3554C30 10.3538 30 10.3521 30 10.3505C30 10.3488 30 10.3471 30 10.3455C30 10.3438 30 10.3422 30 10.3405C30 10.3388 30 10.3372 30 10.3355C30 10.3339 30 10.3322 30 10.3305C30 10.3289 30 10.3272 30 10.3256C30 10.3239 30 10.3222 30 10.3206C30 10.3189 30 10.3173 30 10.3156C30 10.3139 30 10.3123 30 10.3106C30 10.309 30 10.3073 30 10.3056C30 10.304 30 10.3023 30 10.3007C30 10.299 30 10.2973 30 10.2957C30 10.294 30 10.2924 30 10.2907C30 10.289 30 10.2874 30 10.2857H28ZM13.0655 19.644L10.1557 27.2824L12.0246 27.9944L14.9345 20.356L13.0655 19.644ZM8 26.8857V18.5304H6V26.8857H8ZM9.11433 28C8.4989 28 8 27.5011 8 26.8857H6C6 28.6057 7.39433 30 9.11433 30V28ZM10.1557 27.2824C9.99106 27.7145 9.57671 28 9.11433 28V30C10.4066 30 11.5646 29.202 12.0246 27.9944L10.1557 27.2824Z" fill="black"/>
</svg>
