<svg width="32" height="32" viewBox="0 0 32 32" fill="none" xmlns="http://www.w3.org/2000/svg">
<rect width="32" height="32" fill="white"/>
<path d="M24.9532 6.57655C25.0199 6.48611 25.0959 6.40288 25.1705 6.31883C26.293 5.05491 25.409 3 23.6662 3H15.5275C14.9545 3 14.4091 3.24572 14.0295 3.67485L8.06792 12.6749C6.92602 13.9657 7.84248 16 9.56592 16H9.94017C11.5239 16 12.4419 17.729 11.6602 19.0229C11.5622 19.185 11.459 19.3454 11.386 19.5202L8.39193 26.6869C8.3189 26.8617 8.21176 27.0205 8.12766 27.1903C7.73051 27.992 8.30168 29 9.261 29C9.4997 29 9.73348 28.9321 9.93507 28.8043L22.2168 19.1135C23.6441 18.2083 23.0029 16 21.3128 16C19.8511 16 19.1052 14.2873 20.0256 13.219C20.099 13.1339 20.1755 13.0507 20.2423 12.9603L24.9532 6.57655Z" stroke="black" stroke-width="2"/>
</svg>
