<svg width="32" height="32" viewBox="0 0 32 32" fill="none" xmlns="http://www.w3.org/2000/svg">
<rect width="32" height="32" fill="white"/>
<path d="M9 21C8.44772 21 8 21.4477 8 22C8 22.5523 8.44772 23 9 23V21ZM23 23C23.5523 23 24 22.5523 24 22C24 21.4477 23.5523 21 23 21V23ZM9 22C9 22.5523 9.44772 23 10 23C10.5523 23 11 22.5523 11 22H9ZM21 22C21 22.5523 21.4477 23 22 23C22.5523 23 23 22.5523 23 22H21ZM15 22C15 22.5523 15.4477 23 16 23C16.5523 23 17 22.5523 17 22H15ZM2 29C2 29.5523 2.44772 30 3 30C3.55228 30 4 29.5523 4 29H2ZM3 26.9718L2.00774 26.8476L2 26.9094V26.9718H3ZM5.78079 4.75164L4.78853 4.62746L5.78079 4.75164ZM28 29C28 29.5523 28.4477 30 29 30C29.5523 30 30 29.5523 30 29H28ZM29 26.9718H30V26.9094L29.9923 26.8476L29 26.9718ZM26.2192 4.75164L25.227 4.87582V4.87582L26.2192 4.75164ZM3 26C2.44772 26 2 26.4477 2 27C2 27.5523 2.44772 28 3 28L3 26ZM29 28C29.5523 28 30 27.5523 30 27C30 26.4477 29.5523 26 29 26V28ZM11 15C11 12.2386 13.2386 10 16 10V8C12.134 8 9 11.134 9 15H11ZM16 10C18.7614 10 21 12.2386 21 15H23C23 11.134 19.866 8 16 8V10ZM9 23L23 23V21L9 21V23ZM9 15V22H11V15H9ZM21 15V22H23V15H21ZM15 9V22H17V9H15ZM4 29V26.9718H2V29H4ZM3.99226 27.0959L6.77305 4.87582L4.78853 4.62746L2.00774 26.8476L3.99226 27.0959ZM7.76531 4H24.2347V2H7.76531V4ZM30 29V26.9718H28V29H30ZM29.9923 26.8476L27.2115 4.62746L25.227 4.87582L28.0077 27.0959L29.9923 26.8476ZM24.2347 4C24.739 4 25.1643 4.37546 25.227 4.87582L27.2115 4.62747C27.0236 3.12637 25.7475 2 24.2347 2V4ZM6.77305 4.87582C6.83567 4.37546 7.26104 4 7.76531 4V2C6.2525 2 4.97638 3.12637 4.78853 4.62746L6.77305 4.87582ZM3 28L29 28V26L3 26L3 28Z" fill="black"/>
</svg>
