<svg width="32" height="32" viewBox="0 0 32 32" fill="none" xmlns="http://www.w3.org/2000/svg">
<rect width="32" height="32" fill="white"/>
<path d="M22.848 14.0515L22.1409 13.3444L22.848 14.0515ZM9.3639 27.5356L10.071 28.2427L9.3639 27.5356ZM20.7267 9.10171L20.0196 9.80882V9.80882L20.7267 9.10171ZM22.848 11.223L23.5551 10.5159L22.848 11.223ZM4.41416 25.4142L3.70705 26.1213H3.70705L4.41416 25.4142ZM6.53547 27.5355L7.24258 26.8284H7.24258L6.53547 27.5355ZM17.8982 9.10171L17.1911 8.39461H17.1911L17.8982 9.10171ZM4.41416 22.5858L5.12126 23.2929L4.41416 22.5858ZM9.20706 18.2929C8.81653 17.9024 8.18337 17.9024 7.79285 18.2929C7.40232 18.6834 7.40232 19.3166 7.79285 19.7071L9.20706 18.2929ZM12.2928 24.2071C12.6834 24.5976 13.3165 24.5976 13.7071 24.2071C14.0976 23.8166 14.0976 23.1834 13.7071 22.7929L12.2928 24.2071ZM26.2071 1.29289C25.8165 0.902369 25.1834 0.902369 24.7928 1.29289C24.4023 1.68342 24.4023 2.31658 24.7928 2.70711L26.2071 1.29289ZM29.2928 7.20711C29.6834 7.59763 30.3165 7.59763 30.7071 7.20711C31.0976 6.81658 31.0976 6.18342 30.7071 5.79289L29.2928 7.20711ZM23.2071 4.29289C22.8165 3.90237 22.1834 3.90237 21.7928 4.29289C21.4023 4.68342 21.4023 5.31658 21.7928 5.70711L23.2071 4.29289ZM26.2928 10.2071C26.6834 10.5976 27.3165 10.5976 27.7071 10.2071C28.0976 9.81658 28.0976 9.18342 27.7071 8.79289L26.2928 10.2071ZM22.1409 13.3444L8.65679 26.8284L10.071 28.2427L23.5551 14.7586L22.1409 13.3444ZM20.0196 9.80882L22.1409 11.9301L23.5551 10.5159L21.4338 8.39461L20.0196 9.80882ZM3.70705 26.1213L5.82836 28.2427L7.24258 26.8284L5.12126 24.7071L3.70705 26.1213ZM17.1911 8.39461L3.70705 21.8787L5.12126 23.2929L18.6053 9.80882L17.1911 8.39461ZM21.4338 8.39461C20.2622 7.22303 18.3627 7.22304 17.1911 8.39461L18.6053 9.80882C18.9959 9.4183 19.629 9.4183 20.0196 9.80882L21.4338 8.39461ZM5.12126 24.7071C4.73074 24.3166 4.73074 23.6834 5.12126 23.2929L3.70705 21.8787C2.53548 23.0503 2.53548 24.9498 3.70705 26.1213L5.12126 24.7071ZM8.65679 26.8284C8.26627 27.219 7.6331 27.219 7.24258 26.8284L5.82836 28.2427C6.99993 29.4142 8.89943 29.4142 10.071 28.2427L8.65679 26.8284ZM23.5551 14.7586C24.7267 13.587 24.7267 11.6875 23.5551 10.5159L22.1409 11.9301C22.5314 12.3207 22.5314 12.9538 22.1409 13.3444L23.5551 14.7586ZM7.79285 19.7071L12.2928 24.2071L13.7071 22.7929L9.20706 18.2929L7.79285 19.7071ZM24.7928 2.70711L29.2928 7.20711L30.7071 5.79289L26.2071 1.29289L24.7928 2.70711ZM21.7928 5.70711L26.2928 10.2071L27.7071 8.79289L23.2071 4.29289L21.7928 5.70711Z" fill="black"/>
</svg>
