<svg width="32" height="32" viewBox="0 0 32 32" fill="none" xmlns="http://www.w3.org/2000/svg">
<rect width="32" height="32" fill="white"/>
<path d="M27 29V30H27L27 29ZM5 29V30V29ZM29 5H30H29ZM29 27H28H29ZM3 5.00003H2H3ZM3 27H4H3ZM27 3L27 4L27 3ZM5 3.00003L5 4.00003L5 3.00003ZM17 9C17 8.44771 16.5523 8 16 8C15.4477 8 15 8.44771 15 9H17ZM15 23C15 23.5523 15.4477 24 16 24C16.5523 24 17 23.5523 17 23H15ZM13 12C13 11.4477 12.5523 11 12 11C11.4477 11 11 11.4477 11 12H13ZM11 20C11 20.5523 11.4477 21 12 21C12.5523 21 13 20.5523 13 20H11ZM21 12C21 11.4477 20.5523 11 20 11C19.4477 11 19 11.4477 19 12H21ZM19 20C19 20.5523 19.4477 21 20 21C20.5523 21 21 20.5523 21 20H19ZM25 15C25 14.4477 24.5523 14 24 14C23.4477 14 23 14.4477 23 15H25ZM23 17C23 17.5523 23.4477 18 24 18C24.5523 18 25 17.5523 25 17H23ZM9 15C9 14.4477 8.55228 14 8 14C7.44771 14 7 14.4477 7 15H9ZM7 17C7 17.5523 7.44771 18 8 18C8.55228 18 9 17.5523 9 17H7ZM7 6C6.44771 6 6 6.44771 6 7C6 7.55228 6.44771 8 7 8V6ZM10 8C10.5523 8 11 7.55228 11 7C11 6.44771 10.5523 6 10 6V8ZM27 28H5V30H27V28ZM28 5L28 27H30L30 5L28 5ZM2 5.00003L2 27H4L4 5.00003H2ZM27 2L5 2.00003L5 4.00003L27 4L27 2ZM30 5C30 3.34314 28.6568 2 27 2L27 4C27.5523 4 28 4.44771 28 5L30 5ZM4 5.00003C4 4.44774 4.44772 4.00003 5 4.00003L5 2.00003C3.34314 2.00003 2 3.34318 2 5.00003H4ZM5 28C4.44772 28 4 27.5523 4 27H2C2 28.6568 3.34314 30 5 30V28ZM27 30C28.6568 30 30 28.6569 30 27H28C28 27.5523 27.5523 28 27 28L27 30ZM15 9V23H17V9H15ZM11 12V20H13V12H11ZM19 12V20H21V12H19ZM23 15V17H25V15H23ZM7 15L7 17H9L9 15H7ZM7 8H10V6H7V8Z" fill="black"/>
</svg>
