<svg width="32" height="32" viewBox="0 0 32 32" fill="none" xmlns="http://www.w3.org/2000/svg">
<rect width="32" height="32" fill="white"/>
<path d="M4 27H5H4ZM4 5H3H4ZM26 29V30V29ZM6 29V28V29ZM26 3V2V3ZM6 3L6 4H6V3ZM28 27L27 27L28 27ZM28 5L29 5V5L28 5ZM22.9291 16C23.4814 16 23.9291 15.5523 23.9291 15C23.9291 14.4477 23.4814 14 22.9291 14V16ZM9.07089 17L8.08097 17.1416L9.07089 17ZM5 27L5 5H3L3 27H5ZM26 28L6 28V30L26 30V28ZM26 2L6 2V4L26 4V2ZM29 27L29 5L27 5L27 27L29 27ZM26 30C27.6569 30 29 28.6568 29 27L27 27C27 27.5523 26.5523 28 26 28V30ZM26 4C26.5523 4 27 4.44771 27 5L29 5C29 3.34314 27.6568 2 26 2V4ZM5 5C5 4.44771 5.44771 4 6 4L6 2C4.34314 2 3 3.34315 3 5H5ZM3 27C3 28.6569 4.34315 30 6 30V28C5.44772 28 5 27.5523 5 27H3ZM22 16C22 19.3137 19.3137 22 16 22V24C20.4183 24 24 20.4183 24 16H22ZM10 16C10 12.6863 12.6863 10 16 10V8C11.5817 8 8 11.5817 8 16H10ZM16 10C19.3137 10 22 12.6863 22 16H24C24 11.5817 20.4183 8 16 8V10ZM14.3333 14C13.0063 14 12.1293 14.7447 11.5383 15.2221C10.8912 15.7447 10.5302 16 10 16V18C11.327 18 12.204 17.2553 12.795 16.7779C13.4421 16.2553 13.8032 16 14.3333 16V14ZM14.3333 16C14.8635 16 15.2246 16.2553 15.8717 16.7779C16.4627 17.2553 17.3397 18 18.6667 18V16C18.1365 16 17.7754 15.7447 17.1283 15.2221C16.5374 14.7447 15.6603 14 14.3333 14V16ZM22.9291 14C21.595 14 20.7347 14.752 20.1585 15.2311C19.532 15.752 19.1897 16 18.6667 16V18C20.0008 18 20.8611 17.248 21.4372 16.7689C22.0637 16.248 22.4061 16 22.9291 16V14ZM16 22C12.9782 22 10.4766 19.7651 10.0608 16.8584L8.08097 17.1416C8.63565 21.0194 11.9689 24 16 24V22ZM10.0608 16.8584C10.0208 16.5786 10 16.292 10 16H8C8 16.387 8.02756 16.7682 8.08097 17.1416L10.0608 16.8584ZM10 16H9.07089V18H10V16Z" fill="black"/>
</svg>
