<svg width="32" height="32" viewBox="0 0 32 32" fill="none" xmlns="http://www.w3.org/2000/svg">
<rect width="32" height="32" fill="white"/>
<path d="M8 29C8 29.5523 8.44772 30 9 30C9.55228 30 10 29.5523 10 29H8ZM10 26C10 25.4477 9.55228 25 9 25C8.44772 25 8 25.4477 8 26H10ZM22.5 29C22.5 29.5523 22.9477 30 23.5 30C24.0523 30 24.5 29.5523 24.5 29H22.5ZM24.5 26C24.5 25.4477 24.0523 25 23.5 25C22.9477 25 22.5 25.4477 22.5 26H24.5ZM4.83809 22.1232L5.76191 21.7404L4.83809 22.1232ZM23.5267 17.0905L24.5107 17.2687L23.5267 17.0905ZM23.6008 16.4604L24.5947 16.5706L23.6008 16.4604ZM27.1619 22.1232L28.0857 22.5061L27.1619 22.1232ZM8.47329 17.0905L9.45729 16.9124L8.47329 17.0905ZM8.39918 16.4604L9.39309 16.3502L8.39918 16.4604ZM26 7H25H26ZM25 14C25 14.5523 25.4477 15 26 15C26.5523 15 27 14.5523 27 14H25ZM6 7.00001H5H6ZM5 14C5 14.5523 5.44771 15 6 15C6.55228 15 7 14.5523 7 14H5ZM22 3L22 2L22 3ZM10 3.00001L10 4.00001L10 3.00001ZM10 29V26H8V29H10ZM24.5 29V26H22.5V29H24.5ZM9.39309 16.3502C9.18625 14.4849 7.63472 13 5.70833 13V15C6.56422 15 7.30503 15.6666 7.40528 16.5706L9.39309 16.3502ZM11.9567 21H20.0433V19H11.9567V21ZM26.2917 13C24.3653 13 22.8138 14.4849 22.6069 16.3502L24.5947 16.5706C24.695 15.6666 25.4358 15 26.2917 15V13ZM30 16.7778C30 14.7153 28.3634 13 26.2917 13V15C27.2114 15 28 15.7719 28 16.7778H30ZM5.70833 13C3.63657 13 2 14.7153 2 16.7778H4C4 15.7719 4.78856 15 5.70833 15V13ZM22.2917 25H9.70834V27H22.2917V25ZM2 16.7778C2 17.8645 2.31814 18.8656 2.69764 19.7856C2.88772 20.2464 3.10238 20.7076 3.30981 21.1544C3.52034 21.6077 3.72552 22.0506 3.91428 22.5061L5.76191 21.7404C5.5547 21.2404 5.33214 20.7607 5.12379 20.312C4.91233 19.8567 4.71696 19.4362 4.54651 19.0229C4.20494 18.1949 4 17.4787 4 16.7778H2ZM28.0857 22.5061C28.2745 22.0506 28.4797 21.6077 28.6902 21.1544C28.8976 20.7076 29.1123 20.2464 29.3024 19.7856C29.6819 18.8656 30 17.8645 30 16.7778H28C28 17.4787 27.7951 18.1949 27.4535 19.0229C27.283 19.4362 27.0877 19.8567 26.8762 20.312C26.6679 20.7607 26.4453 21.2404 26.2381 21.7404L28.0857 22.5061ZM9.70834 25C8.07584 25 6.53157 23.5977 5.76191 21.7404L3.91428 22.5061C4.83608 24.7305 6.92256 27 9.70834 27V25ZM24.5107 17.2687C24.5564 17.0165 24.5787 16.7152 24.5947 16.5706L22.6069 16.3502C22.5763 16.626 22.5724 16.7484 22.5427 16.9124L24.5107 17.2687ZM20.0433 21C22.2387 21 24.1196 19.429 24.5107 17.2687L22.5427 16.9124C22.3239 18.1211 21.2716 19 20.0433 19V21ZM22.2917 27C25.0775 27 27.1639 24.7305 28.0857 22.5061L26.2381 21.7404C25.4684 23.5977 23.9242 25 22.2917 25V27ZM7.48928 17.2687C7.88038 19.429 9.76129 21 11.9567 21V19C10.7284 19 9.6761 18.1211 9.45729 16.9124L7.48928 17.2687ZM7.40528 16.5706C7.42131 16.7152 7.44363 17.0165 7.48928 17.2687L9.45729 16.9124C9.4276 16.7484 9.42368 16.626 9.39309 16.3502L7.40528 16.5706ZM25 7V14H27V7H25ZM5 7.00001L5 14H7L7 7.00001H5ZM22 2L10 2.00001L10 4.00001L22 4L22 2ZM27 7C27 4.23857 24.7614 2 22 2L22 4C23.6569 4 25 5.34314 25 7H27ZM7 7.00001C7 5.34316 8.34314 4.00002 10 4.00001L10 2.00001C7.23857 2.00002 5 4.23859 5 7.00001H7Z" fill="black"/>
</svg>
