<svg width="32" height="32" viewBox="0 0 32 32" fill="none" xmlns="http://www.w3.org/2000/svg">
<rect width="32" height="32" fill="white"/>
<path fill-rule="evenodd" clip-rule="evenodd" d="M28.7071 2.29289C29.0976 2.68342 29.0976 3.31658 28.7071 3.70711L28.0066 4.40761L28.0134 4.41388C28.0327 4.43172 28.0517 4.45001 28.0705 4.46875L30.6446 7.0429C31.0351 7.43343 31.0351 8.06659 30.6446 8.45712C30.2541 8.84764 29.6209 8.84764 29.2304 8.45711L26.6563 5.88296L23.883 8.65625L26.4571 11.2304C26.8476 11.6209 26.8476 12.2541 26.4571 12.6446C26.0666 13.0351 25.4334 13.0351 25.0429 12.6446L22.4688 10.0705C22.4478 10.0495 22.4274 10.0282 22.4076 10.0066L17.5677 14.8465C19.0762 16.4559 20 18.6201 20 21C20 25.9706 15.9706 30 11 30C6.02944 30 2 25.9706 2 21C2 16.0294 6.02944 12 11 12C12.8683 12 14.6036 12.5693 16.042 13.5438L27.2929 2.29289C27.6834 1.90237 28.3166 1.90237 28.7071 2.29289ZM4 21C4 17.134 7.13401 14 11 14C14.866 14 18 17.134 18 21C18 24.866 14.866 28 11 28C7.13401 28 4 24.866 4 21Z" fill="black"/>
</svg>
