<svg width="32" height="32" viewBox="0 0 32 32" fill="none" xmlns="http://www.w3.org/2000/svg">
<rect width="32" height="32" fill="white"/>
<path d="M17 18C17 17.4477 16.5523 17 16 17C15.4477 17 15 17.4477 15 18V22C15 22.5523 15.4477 23 16 23C16.5523 23 17 22.5523 17 22V18Z" fill="black"/>
<path fill-rule="evenodd" clip-rule="evenodd" d="M16 2C20.9706 2 25 6.02944 25 11C27.7614 11 30 13.2386 30 16L30 25C30 27.7614 27.7614 30 25 30H7C4.23858 30 2 27.7614 2 25V16C2 13.2386 4.23858 11 7 11C7 6.02944 11.0294 2 16 2ZM16 4C12.134 4 9 7.13401 9 11H23C23 7.13401 19.866 4 16 4ZM28 25L28 16C28 14.3432 26.6569 13 25 13L7.00001 13C5.34315 13 4 14.3431 4 16L4 25C4 26.6569 5.34314 28 7 28H25C26.6569 28 28 26.6568 28 25Z" fill="black"/>
</svg>
