<svg width="32" height="32" viewBox="0 0 32 32" fill="none" xmlns="http://www.w3.org/2000/svg">
<rect width="32" height="32" fill="white"/>
<path fill-rule="evenodd" clip-rule="evenodd" d="M5 2C3.34315 2 2 3.34315 2 5V16C2 23.732 8.26803 30 16 30C23.732 30 30 23.732 30 16V5C30 3.34315 28.6569 2 27 2H24C22.3431 2 21 3.34315 21 5V16C21 18.7614 18.7614 21 16 21C13.2386 21 11 18.7614 11 16V5C11 3.34315 9.65685 2 8 2H5ZM9 8V5C9 4.44772 8.55228 4 8 4H5C4.44772 4 4 4.44772 4 5V8H9ZM4 10H9V16C9 19.866 12.134 23 16 23C19.866 23 23 19.866 23 16V10H28V16C28 22.6274 22.6274 28 16 28C9.3726 28 4 22.6274 4 16V10ZM28 8V5C28 4.44772 27.5523 4 27 4H24C23.4477 4 23 4.44772 23 5V8H28Z" fill="black"/>
</svg>
