<svg width="32" height="32" viewBox="0 0 32 32" fill="none" xmlns="http://www.w3.org/2000/svg">
<rect width="32" height="32" fill="white"/>
<path d="M15.6243 24.8538L14.6265 24.9188L15.6243 24.8538ZM14.3415 5.14243L13.3436 5.20738V5.20738L14.3415 5.14243ZM19.6026 24.9882L18.6114 24.8561H18.6114L19.6026 24.9882ZM21.3084 12.1894L22.2996 12.3215L21.3084 12.1894ZM23.2697 12.0789L22.2996 12.3215L23.2697 12.0789ZM24.6213 17.485L25.5914 17.2425L24.6213 17.485ZM26.5616 18.9999V17.9999V18.9999ZM29 19.9999C29.5523 19.9999 30 19.5522 30 18.9999C30 18.4477 29.5523 17.9999 29 17.9999V19.9999ZM10.3735 4.94024L9.38735 4.7742V4.77421L10.3735 4.94024ZM8.28699 17.332L7.30087 17.166V17.166L8.28699 17.332ZM6.31475 18.9999V19.9999V18.9999ZM3 17.9999C2.44772 17.9999 2 18.4477 2 18.9999C2 19.5522 2.44772 19.9999 3 19.9999V17.9999ZM16.6222 24.7889L15.3394 5.07749L13.3436 5.20738L14.6265 24.9188L16.6222 24.7889ZM20.5938 25.1203L22.2996 12.3215L20.3171 12.0573L18.6114 24.8561L20.5938 25.1203ZM22.2996 12.3215L23.6511 17.7275L25.5914 17.2425L24.2399 11.8364L22.2996 12.3215ZM26.5616 19.9999H29V17.9999H26.5616V19.9999ZM9.38735 4.77421L7.30087 17.166L9.2731 17.4981L11.3596 5.10628L9.38735 4.77421ZM6.31475 17.9999H3V19.9999H6.31475V17.9999ZM23.6511 17.7275C23.985 19.063 25.185 19.9999 26.5616 19.9999V17.9999C26.1027 17.9999 25.7027 17.6876 25.5914 17.2425L23.6511 17.7275ZM22.2996 12.3215C22.3011 12.3104 22.3029 12.3042 22.3036 12.302C22.3043 12.2999 22.3042 12.3005 22.3029 12.303C22.3015 12.3055 22.2995 12.3087 22.2967 12.3122C22.2939 12.3156 22.2911 12.3184 22.2885 12.3206C22.2833 12.3251 22.2809 12.3255 22.2833 12.3246C22.2861 12.3235 22.2919 12.3219 22.2996 12.3215C22.3073 12.321 22.3132 12.322 22.3161 12.3227C22.3187 12.3234 22.3162 12.3232 22.3106 12.3194C22.3077 12.3175 22.3046 12.315 22.3015 12.3119C22.2983 12.3088 22.2959 12.3058 22.2943 12.3035C22.2926 12.3012 22.2926 12.3006 22.2935 12.3026C22.2944 12.3047 22.2969 12.3106 22.2996 12.3215L24.2399 11.8364C23.705 9.69676 20.6085 9.87104 20.3171 12.0573L22.2996 12.3215ZM7.30087 17.166C7.21981 17.6474 6.80296 17.9999 6.31475 17.9999V19.9999C7.77938 19.9999 9.02992 18.9424 9.2731 17.4981L7.30087 17.166ZM14.6265 24.9188C14.8618 28.5345 20.1152 28.7118 20.5938 25.1203L18.6114 24.8561C18.4518 26.0533 16.7007 25.9941 16.6222 24.7889L14.6265 24.9188ZM15.3394 5.07749C15.1081 1.52367 9.97867 1.26233 9.38735 4.7742L11.3596 5.10628C11.5567 3.93564 13.2665 4.02278 13.3436 5.20738L15.3394 5.07749Z" fill="black"/>
</svg>
