<svg width="16" height="16" viewBox="0 0 16 16" fill="none" xmlns="http://www.w3.org/2000/svg">
<rect width="16" height="16" fill="white"/>
<path d="M11 9C11 9.55229 10.5523 10 10 10H9V11C9 11.5523 8.55228 12 8 12C7.44772 12 7 11.5523 7 11V10H6C5.44772 10 5 9.55228 5 9C5 8.44771 5.44772 8 6 8H7V7C7 6.44772 7.44772 6 8 6C8.55229 6 9 6.44772 9 7V8H10C10.5523 8 11 8.44772 11 9Z" fill="black"/>
<path fill-rule="evenodd" clip-rule="evenodd" d="M5.26285 1.32428C5.45226 1.11765 5.71969 1 6 1H13C13.5523 1 14 1.44772 14 2L14 14C14 14.2652 13.8946 14.5196 13.7071 14.7071C13.5196 14.8946 13.2652 15 13 15H3C2.44772 15 2 14.5523 2 14V5.27273C2 5.02254 2.09379 4.78143 2.26285 4.597L5.26285 1.32428ZM6.4399 3L4 5.66171V13H12L12 3H6.4399Z" fill="black"/>
</svg>
