<svg width="16" height="16" viewBox="0 0 16 16" fill="none" xmlns="http://www.w3.org/2000/svg">
<rect width="16" height="16" fill="white"/>
<path d="M3 5.27273L2.26285 4.597C2.09379 4.78143 2 5.02254 2 5.27273H3ZM6 2V1C5.71969 1 5.45226 1.11765 5.26285 1.32428L6 2ZM3 14H2C2 14.5523 2.44772 15 3 15V14ZM13 14V15C13.2652 15 13.5196 14.8946 13.7071 14.7071C13.8946 14.5196 14 14.2652 14 14H13ZM13 2L14 2C14 1.44772 13.5523 1 13 1V2ZM6 8C5.44772 8 5 8.44772 5 9C5 9.55228 5.44772 10 6 10V8ZM10 10C10.5523 10 11 9.55228 11 9C11 8.44772 10.5523 8 10 8V10ZM9 7C9 6.44772 8.55229 6 8 6C7.44772 6 7 6.44772 7 7H9ZM7 11C7 11.5523 7.44772 12 8 12C8.55228 12 9 11.5523 9 11H7ZM3.73715 5.94845L6.73715 2.67572L5.26285 1.32428L2.26285 4.597L3.73715 5.94845ZM3 15H13V13H3V15ZM6 3H13V1H6V3ZM12 2L12 14H14L14 2L12 2ZM2 5.27273V14H4V5.27273H2ZM6 10H10V8H6V10ZM7 7L7 11H9L9 7H7Z" fill="black"/>
</svg>
