<svg width="16" height="16" viewBox="0 0 16 16" fill="none" xmlns="http://www.w3.org/2000/svg">
<rect width="16" height="16" fill="white"/>
<path d="M9 7C9 6.44772 8.55228 6 8 6C7.44772 6 7 6.44772 7 7H9ZM7 9C7 9.55228 7.44772 10 8 10C8.55228 10 9 9.55228 9 9H7ZM12.5449 15V14V15ZM3.45513 15V16V15ZM8.79896 2.46248L9.66611 1.96443V1.96443L8.79896 2.46248ZM14.2792 12.0039L13.412 12.5019L14.2792 12.0039ZM7.20104 2.46248L8.06819 2.96053V2.96053L7.20104 2.46248ZM1.72084 12.0039L2.58799 12.5019L1.72084 12.0039ZM8 2V3V2ZM9 12.0039C9 11.4516 8.55228 11.0039 8 11.0039C7.44772 11.0039 7 11.4516 7 12.0039H9ZM7 12.5C7 13.0523 7.44772 13.5 8 13.5C8.55228 13.5 9 13.0523 9 12.5H7ZM7 7V9H9V7H7ZM12.5449 14H3.45513V16H12.5449V14ZM7.93182 2.96053L13.412 12.5019L15.1463 11.5058L9.66611 1.96443L7.93182 2.96053ZM6.33389 1.96442L0.853695 11.5058L2.58799 12.5019L8.06819 2.96053L6.33389 1.96442ZM8 1C7.31202 1 6.67654 1.36784 6.33389 1.96443L8.06819 2.96053C8.05416 2.98495 8.02816 3 8 3V1ZM9.66611 1.96443C9.32346 1.36785 8.68798 1 8 1V3C7.97184 3 7.94584 2.98495 7.93182 2.96053L9.66611 1.96443ZM3.45513 14C2.68633 14 2.20508 13.1686 2.58799 12.5019L0.853695 11.5058C-0.295019 13.5058 1.14873 16 3.45513 16V14ZM12.5449 16C14.8513 16 16.295 13.5058 15.1463 11.5058L13.412 12.5019C13.7949 13.1686 13.3137 14 12.5449 14V16ZM7 12.0039V12.5H9V12.0039H7Z" fill="black"/>
</svg>
