<svg width="16" height="16" viewBox="0 0 16 16" fill="none" xmlns="http://www.w3.org/2000/svg">
<rect width="16" height="16" fill="white"/>
<path d="M8 10C7.44771 10 7 9.55228 7 9V7C7 6.44772 7.44772 6 8 6C8.55228 6 9 6.44772 9 7V9C9 9.55229 8.55228 10 8 10Z" fill="black"/>
<path d="M8 13C8.55228 13 9 12.5523 9 12C9 11.4477 8.55228 11 8 11C7.44772 11 7 11.4477 7 12C7 12.5523 7.44772 13 8 13Z" fill="black"/>
<path fill-rule="evenodd" clip-rule="evenodd" d="M15.1463 11.5058C16.295 13.5058 14.8513 16 12.5449 16L3.45513 16C1.14873 16 -0.295018 13.5058 0.853695 11.5058L6.33389 1.96442C6.67654 1.36784 7.31202 1 8 1C8.68798 1 9.32346 1.36784 9.66611 1.96442L15.1463 11.5058ZM12.5449 14C13.3137 14 13.7949 13.1686 13.412 12.5019L8 3.07925L2.58799 12.5019C2.20508 13.1686 2.68633 14 3.45513 14L12.5449 14Z" fill="black"/>
</svg>
