<svg width="32" height="32" viewBox="0 0 32 32" fill="none" xmlns="http://www.w3.org/2000/svg">
<rect width="32" height="32" fill="white"/>
<path d="M17 23C17 22.4477 16.5523 22 16 22C15.4477 22 15 22.4477 15 23L17 23ZM15 24C15 24.5523 15.4477 25 16 25C16.5523 25 17 24.5523 17 24L15 24ZM17 12C17 11.4477 16.5523 11 16 11C15.4477 11 15 11.4477 15 12H17ZM15 19.5C15 20.0523 15.4477 20.5 16 20.5C16.5523 20.5 17 20.0523 17 19.5H15ZM27.6516 29V28V29ZM4.34844 29V30V29ZM17.4741 3.88047L16.5936 4.35457V4.35457L17.4741 3.88047ZM29.4125 26.0518L30.293 25.5777H30.293L29.4125 26.0518ZM14.5259 3.88047L15.4064 4.35457L15.4064 4.35457L14.5259 3.88047ZM2.58749 26.0518L3.46796 26.5259L2.58749 26.0518ZM15 23L15 24L17 24L17 23L15 23ZM15 12L15 19.5H17L17 12H15ZM27.6516 28H4.34844V30H27.6516V28ZM16.5936 4.35457L28.532 26.5259L30.293 25.5777L18.3546 3.40637L16.5936 4.35457ZM13.6454 3.40637L1.70702 25.5777L3.46796 26.5259L15.4064 4.35457L13.6454 3.40637ZM16 2C15.0162 2 14.1118 2.54017 13.6454 3.40637L15.4064 4.35457C15.524 4.13619 15.752 4 16 4V2ZM18.3546 3.40637C17.8882 2.54017 16.9838 2 16 2V4C16.248 4 16.476 4.13619 16.5936 4.35457L18.3546 3.40637ZM4.34844 28C3.59176 28 3.10922 27.1921 3.46796 26.5259L1.70702 25.5777C0.630802 27.5764 2.07841 30 4.34844 30V28ZM27.6516 30C29.9216 30 31.3692 27.5764 30.293 25.5777L28.532 26.5259C28.8908 27.1921 28.4082 28 27.6516 28V30Z" fill="black"/>
</svg>
