<svg width="32" height="32" viewBox="0 0 32 32" fill="none" xmlns="http://www.w3.org/2000/svg">
<rect width="32" height="32" fill="white"/>
<path fill-rule="evenodd" clip-rule="evenodd" d="M16 25C15.4477 25 15 24.5523 15 24V23C15 22.4477 15.4477 22 16 22C16.5523 22 17 22.4477 17 23V24C17 24.5523 16.5523 25 16 25Z" fill="black"/>
<path fill-rule="evenodd" clip-rule="evenodd" d="M16 20.5C15.4477 20.5 15 20.0523 15 19.5V12C15 11.4477 15.4477 11 16 11C16.5523 11 17 11.4477 17 12V19.5C17 20.0523 16.5523 20.5 16 20.5Z" fill="black"/>
<path fill-rule="evenodd" clip-rule="evenodd" d="M30.293 25.5777C31.3692 27.5764 29.9216 30 27.6516 30H4.34844C2.07841 30 0.630805 27.5764 1.70702 25.5777L13.6454 3.40637C14.1119 2.54017 15.0162 2 16 2C16.9838 2 17.8882 2.54017 18.3546 3.40637L30.293 25.5777ZM27.6516 28C28.4082 28 28.8908 27.1921 28.532 26.5259L16.5936 4.35457C16.476 4.13619 16.248 4 16 4C15.752 4 15.524 4.13619 15.4064 4.35457L3.46797 26.5259C3.10923 27.1921 3.59176 28 4.34844 28H27.6516Z" fill="black"/>
</svg>
