<svg width="32" height="32" viewBox="0 0 32 32" fill="none" xmlns="http://www.w3.org/2000/svg">
<rect width="32" height="32" fill="white"/>
<path d="M17 21C17 20.4477 16.5523 20 16 20C15.4477 20 15 20.4477 15 21H17ZM15 22C15 22.5523 15.4477 23 16 23C16.5523 23 17 22.5523 17 22H15ZM17 9C17 8.44772 16.5523 8 16 8C15.4477 8 15 8.44772 15 9H17ZM15 17C15 17.5523 15.4477 18 16 18C16.5523 18 17 17.5523 17 17H15ZM28 16C28 22.6274 22.6274 28 16 28V30C23.732 30 30 23.732 30 16H28ZM16 28C9.37258 28 4 22.6274 4 16H2C2 23.732 8.26801 30 16 30V28ZM4 16C4 9.37258 9.37258 4 16 4V2C8.26801 2 2 8.26801 2 16H4ZM16 4C22.6274 4 28 9.37258 28 16H30C30 8.26801 23.732 2 16 2V4ZM15 21V22H17V21H15ZM15 9V17H17V9H15Z" fill="black"/>
</svg>
