<svg width="16" height="16" viewBox="0 0 16 16" fill="none" xmlns="http://www.w3.org/2000/svg">
<rect width="16" height="16" fill="white"/>
<path d="M8 9C7.44772 9 7 8.55228 7 8V5C7 4.44772 7.44772 4 8 4C8.55228 4 9 4.44772 9 5V8C9 8.55228 8.55228 9 8 9Z" fill="black"/>
<path d="M9 11C9 11.5523 8.55228 12 8 12C7.44772 12 7 11.5523 7 11C7 10.4477 7.44772 10 8 10C8.55228 10 9 10.4477 9 11Z" fill="black"/>
<path fill-rule="evenodd" clip-rule="evenodd" d="M15 13L15 3.00002C15 1.89545 14.1046 1.00002 13 1.00002L3 1C1.89543 0.999998 1 1.89543 1 3V13C1 14.1046 1.89543 15 3 15L13 15C14.1046 15 15 14.1046 15 13ZM13 3.00002L13 13L3 13L3 3L13 3.00002Z" fill="black"/>
</svg>
