<svg width="32" height="32" viewBox="0 0 32 32" fill="none" xmlns="http://www.w3.org/2000/svg">
<rect width="32" height="32" fill="white"/>
<path d="M16 18C15.4477 18 15 17.5523 15 17V9C15 8.44771 15.4477 8 16 8C16.5523 8 17 8.44771 17 9V17C17 17.5523 16.5523 18 16 18Z" fill="black"/>
<path d="M16 23C15.4477 23 15 22.5523 15 22V21C15 20.4477 15.4477 20 16 20C16.5523 20 17 20.4477 17 21V22C17 22.5523 16.5523 23 16 23Z" fill="black"/>
<path fill-rule="evenodd" clip-rule="evenodd" d="M30 11.6568C30 10.3307 29.4732 9.05897 28.5355 8.12129L23.8787 3.46446C22.941 2.52678 21.6692 2 20.3432 2H11.6569C10.3308 2 9.05901 2.52678 8.12132 3.46446L3.46447 8.12129C2.52679 9.05897 2 10.3307 2 11.6568V20.3431C2 21.6692 2.52679 22.941 3.46447 23.8787L8.12132 28.5355C9.059 29.4732 10.3308 30 11.6569 30H20.3431C21.6692 30 22.941 29.4732 23.8787 28.5355L28.5355 23.8787C29.4732 22.941 30 21.6692 30 20.3431V11.6568ZM27.1213 9.53551C27.6839 10.0981 28 10.8612 28 11.6568V20.3431C28 21.1388 27.6839 21.9018 27.1213 22.4644L22.4645 27.1213C21.9019 27.6839 21.1388 28 20.3431 28H11.6569C10.8612 28 10.0981 27.6839 9.53553 27.1213L4.87868 22.4644C4.31607 21.9018 4 21.1388 4 20.3431L4 11.6568C4 10.8612 4.31607 10.0981 4.87868 9.53551L9.53554 4.87867C10.0981 4.31607 10.8612 4 11.6569 4L20.3432 4C21.1388 4 21.9019 4.31607 22.4645 4.87868L27.1213 9.53551Z" fill="black"/>
</svg>
