<svg width="16" height="16" viewBox="0 0 16 16" fill="none" xmlns="http://www.w3.org/2000/svg">
<rect width="16" height="16" fill="white"/>
<path d="M8 4.99999V7.99999M8 11V11.5M10.355 2C10.6202 2 10.8746 2.10536 11.0621 2.29289L13.7071 4.93786C13.8946 5.1254 14 5.37975 14 5.64497V10.355C14 10.6202 13.8946 10.8746 13.7071 11.0621L11.0621 13.7071C10.8746 13.8946 10.6202 14 10.355 14L5.64498 14C5.37977 14 5.12541 13.8946 4.93788 13.7071L2.29289 11.0621C2.10536 10.8746 2 10.6202 2 10.355L2 5.64497C2 5.37975 2.10536 5.1254 2.2929 4.93786L4.93788 2.29289C5.12541 2.10536 5.37977 2 5.64498 2H10.355Z" stroke="black" stroke-width="2" stroke-linecap="round" stroke-linejoin="round"/>
</svg>
