<svg width="16" height="16" viewBox="0 0 16 16" fill="none" xmlns="http://www.w3.org/2000/svg">
<rect width="16" height="16" fill="white"/>
<path d="M8 9C7.44772 9 7 8.55228 7 8V5C7 4.44772 7.44772 4 8 4C8.55229 4 9 4.44772 9 5V8C9 8.55228 8.55229 9 8 9Z" fill="black"/>
<path d="M9 11C9 11.5523 8.55229 12 8 12C7.44772 12 7 11.5523 7 11C7 10.4477 7.44772 10 8 10C8.55229 10 9 10.4477 9 11Z" fill="black"/>
<path fill-rule="evenodd" clip-rule="evenodd" d="M15 5.64497C15 5.11454 14.7893 4.60583 14.4142 4.23076L11.7692 1.58578C11.3942 1.21071 10.8855 1 10.355 1H5.64498C5.11455 1 4.60584 1.21071 4.23077 1.58578L1.58579 4.23075C1.21072 4.60583 1 5.11454 1 5.64497V10.355C1 10.8854 1.21071 11.3941 1.58579 11.7692L4.23077 14.4142C4.60584 14.7893 5.11455 15 5.64498 15L10.355 15C10.8855 15 11.3942 14.7893 11.7692 14.4142L14.4142 11.7692C14.7893 11.3941 15 10.8854 15 10.355V5.64497ZM10.355 3L13 5.64497V10.355L10.355 13L5.64498 13L3 10.355V5.64497L5.64498 3L10.355 3Z" fill="black"/>
</svg>
