<svg width="32" height="32" viewBox="0 0 32 32" fill="none" xmlns="http://www.w3.org/2000/svg">
<rect width="32" height="32" fill="white"/>
<path d="M16 29V11M16 29C22.8151 29 28.4053 24.1593 28.9556 17.9995C29.0047 17.4494 28.5523 17 28 17H26M16 29C9.18492 29 3.59468 24.1593 3.04445 17.9995C2.99531 17.4494 3.44772 17 4 17H6M16 11C18.2091 11 20 9.20914 20 7C20 4.79086 18.2091 3 16 3C13.7909 3 12 4.79086 12 7C12 9.20914 13.7909 11 16 11Z" stroke="black" stroke-width="2" stroke-linecap="round" stroke-linejoin="round"/>
</svg>
