<svg width="16" height="16" viewBox="0 0 16 16" fill="none" xmlns="http://www.w3.org/2000/svg">
<rect width="16" height="16" fill="white"/>
<path d="M1 2C1 1.44772 1.44772 1 2 1H14C14.5523 1 15 1.44772 15 2C15 2.55228 14.5523 3 14 3H2C1.44772 3 1 2.55228 1 2Z" fill="black"/>
<path fill-rule="evenodd" clip-rule="evenodd" d="M1 8C1 6.34315 2.34315 5 4 5H12C13.6569 5 15 6.34315 15 8C15 9.65685 13.6569 11 12 11H4C2.34315 11 1 9.65685 1 8ZM4 7C3.44772 7 3 7.44772 3 8C3 8.55228 3.44772 9 4 9H12C12.5523 9 13 8.55228 13 8C13 7.44772 12.5523 7 12 7H4Z" fill="black"/>
<path d="M2 13C1.44772 13 1 13.4477 1 14C1 14.5523 1.44772 15 2 15H14C14.5523 15 15 14.5523 15 14C15 13.4477 14.5523 13 14 13H2Z" fill="black"/>
</svg>
