<svg width="32" height="32" viewBox="0 0 32 32" fill="none" xmlns="http://www.w3.org/2000/svg">
<rect width="32" height="32" fill="white"/>
<path fill-rule="evenodd" clip-rule="evenodd" d="M2 5C2 3.34315 3.34315 2 5 2H27C28.6569 2 30 3.34315 30 5V6C30 7.65685 28.6569 9 27 9H5C3.34315 9 2 7.65685 2 6V5ZM5 4C4.44772 4 4 4.44772 4 5V6C4 6.55228 4.44772 7 5 7H27C27.5523 7 28 6.55228 28 6V5C28 4.44772 27.5523 4 27 4H5Z" fill="black"/>
<path fill-rule="evenodd" clip-rule="evenodd" d="M2 14C2 12.3431 3.34315 11 5 11H27C28.6569 11 30 12.3431 30 14V18C30 19.6569 28.6569 21 27 21H5C3.34315 21 2 19.6569 2 18V14ZM5 13C4.44772 13 4 13.4477 4 14V18C4 18.5523 4.44772 19 5 19H27C27.5523 19 28 18.5523 28 18V14C28 13.4477 27.5523 13 27 13H5Z" fill="black"/>
<path fill-rule="evenodd" clip-rule="evenodd" d="M5 23C3.34315 23 2 24.3431 2 26V27C2 28.6569 3.34315 30 5 30H27C28.6569 30 30 28.6569 30 27V26C30 24.3431 28.6569 23 27 23H5ZM4 26C4 25.4477 4.44772 25 5 25H27C27.5523 25 28 25.4477 28 26V27C28 27.5523 27.5523 28 27 28H5C4.44772 28 4 27.5523 4 27V26Z" fill="black"/>
</svg>
