<svg width="32" height="32" viewBox="0 0 32 32" fill="none" xmlns="http://www.w3.org/2000/svg">
<rect width="32" height="32" fill="white"/>
<path d="M22 29V28V29ZM7 29V30V29ZM3 10H2H3ZM3 25H4H3ZM20 7.00003C20.5523 7.00003 21 6.55231 21 6.00003C21 5.44774 20.5523 5.00003 20 5.00003V7.00003ZM7 6.00003V7.00003V6.00003ZM27 12C27 11.4477 26.5523 11 26 11C25.4477 11 25 11.4477 25 12H27ZM26 25H27H26ZM28 7.5C28 9.433 26.433 11 24.5 11V13C27.5376 13 30 10.5376 30 7.5H28ZM24.5 11C22.567 11 21 9.433 21 7.5H19C19 10.5376 21.4624 13 24.5 13V11ZM21 7.5C21 5.567 22.567 4 24.5 4V2C21.4624 2 19 4.46243 19 7.5H21ZM24.5 4C26.433 4 28 5.567 28 7.5H30C30 4.46243 27.5376 2 24.5 2V4ZM22 28L7 28V30L22 30V28ZM2 10L2 25H4L4 10H2ZM20 5.00003H7V7.00003H20V5.00003ZM25 12V25H27V12H25ZM4 10C4 8.34317 5.34315 7.00003 7 7.00003V5.00003C4.23858 5.00003 2 7.23861 2 10H4ZM7 28C5.34314 28 4 26.6569 4 25H2C2 27.7614 4.23858 30 7 30V28ZM22 30C24.7614 30 27 27.7614 27 25H25C25 26.6569 23.6569 28 22 28V30Z" fill="black"/>
</svg>
