<svg width="16" height="16" viewBox="0 0 16 16" fill="none" xmlns="http://www.w3.org/2000/svg">
<rect width="16" height="16" fill="white"/>
<path d="M11 14V13V14ZM3 14V15H3L3 14ZM2 5.00001H1H2ZM2 13H3H2ZM9.82609 5.00001C10.3784 5.00001 10.8261 4.5523 10.8261 4.00001C10.8261 3.44773 10.3784 3.00001 9.82609 3.00001V5.00001ZM3 4.00001V5.00001V4.00001ZM13 6.17391C13 5.62163 12.5523 5.17391 12 5.17391C11.4477 5.17391 11 5.62163 11 6.17391H13ZM12 13H13H12ZM13 4C13 4.55228 12.5523 5 12 5V7C13.6569 7 15 5.65685 15 4H13ZM12 5C11.4477 5 11 4.55228 11 4H9C9 5.65685 10.3431 7 12 7V5ZM11 4C11 3.44772 11.4477 3 12 3V1C10.3431 1 9 2.34315 9 4H11ZM12 3C12.5523 3 13 3.44772 13 4H15C15 2.34315 13.6569 1 12 1V3ZM11 13L3 13L3 15L11 15V13ZM1 5.00001L1 13H3L3 5.00001H1ZM9.82609 3.00001H3V5.00001H9.82609V3.00001ZM11 6.17391V13H13V6.17391H11ZM3 5.00001H3V3.00001C1.89543 3.00001 1 3.89544 1 5.00001H3ZM3 13V13H1C1 14.1046 1.89543 15 3 15V13ZM11 15C12.1046 15 13 14.1046 13 13H11V13V15Z" fill="black"/>
</svg>
