<svg width="16" height="16" viewBox="0 0 16 16" fill="none" xmlns="http://www.w3.org/2000/svg">
<rect width="16" height="16" fill="white"/>
<path fill-rule="evenodd" clip-rule="evenodd" d="M15 2.00001C15 1.61199 14.7755 1.259 14.4242 1.09442C14.0728 0.929843 13.6579 0.983388 13.3598 1.23179L7.97824 5.71644L5.61378 3.87821C5.22049 3.57246 4.66214 3.6028 4.3043 3.94936L1.3043 6.85485C1.1098 7.04323 1 7.30242 1 7.57319L1.00001 10C1.00001 10.5523 1.44773 11 2.00001 11H14C14.5523 11 15 10.5523 15 10V2.00001ZM8.64018 7.76823L13 4.13505V9.00001H3.00001L3 7.9968L5.07186 5.99022L7.38623 7.78949C7.75727 8.07796 8.27913 8.06911 8.64018 7.76823Z" fill="black"/>
<path d="M2 13C1.44772 13 1 13.4477 1 14C1 14.5523 1.44772 15 2 15H14C14.5523 15 15 14.5523 15 14C15 13.4477 14.5523 13 14 13H2Z" fill="black"/>
</svg>
