<svg width="32" height="32" viewBox="0 0 32 32" fill="none" xmlns="http://www.w3.org/2000/svg">
<rect width="32" height="32" fill="white"/>
<path d="M28.5812 3.81372C29.0306 3.49271 29.1347 2.86816 28.8137 2.41875C28.4927 1.96934 27.8681 1.86524 27.4187 2.18625L14.0144 11.7608L10.6 9.19998C10.2292 8.92187 9.71589 8.93503 9.35981 9.23176L3.35981 14.2318C2.93554 14.5853 2.87821 15.2159 3.23178 15.6402C3.58534 16.0644 4.21591 16.1218 4.64018 15.7682L10.0327 11.2745L13.4 13.8C13.7487 14.0615 14.2266 14.067 14.5812 13.8137L28.5812 3.81372Z" fill="black"/>
<path fill-rule="evenodd" clip-rule="evenodd" d="M28.4576 9.11084C28.7906 9.28224 29 9.62542 29 10V23.992C29 24.5443 28.5523 24.992 28 24.992H4.00002C3.44774 24.992 3.00003 24.5443 3.00002 23.992L3 22C3 21.7032 3.13182 21.4218 3.35982 21.2318L9.35982 16.2318C9.71589 15.935 10.2292 15.9219 10.6 16.2L14.0144 18.7608L27.4187 9.18627C27.7235 8.96855 28.1245 8.93943 28.4576 9.11084ZM27 11.9432L14.5812 20.8137C14.2266 21.0671 13.7487 21.0615 13.4 20.8L10.0327 18.2745L5.00001 22.4684L5.00001 22.992H27V11.9432Z" fill="black"/>
<path d="M2 29C2 28.4477 2.44772 28 3 28H29C29.5523 28 30 28.4477 30 29C30 29.5523 29.5523 30 29 30H3C2.44772 30 2 29.5523 2 29Z" fill="black"/>
</svg>
