<svg width="32" height="32" viewBox="0 0 32 32" fill="none" xmlns="http://www.w3.org/2000/svg">
<rect width="32" height="32" fill="white"/>
<path d="M12.435 19.5061C12.0445 19.8966 12.0445 20.5298 12.435 20.9203C12.8255 21.3108 13.4587 21.3108 13.8492 20.9203L12.435 19.5061ZM19.1525 14.2028L18.4454 13.4957L19.1525 14.2028ZM5.74713 12.0518C5.35661 12.4423 5.35661 13.0755 5.74713 13.466C6.13766 13.8565 6.77082 13.8565 7.16135 13.466L5.74713 12.0518ZM14.9099 4.30327L15.617 5.01037L14.9099 4.30327ZM14.1421 26.2842L13.435 25.5771H13.435L14.1421 26.2842ZM7.07103 19.2132L6.36776 18.5022L6.36393 18.5061L7.07103 19.2132ZM15.6632 10.7135L16.3665 11.4244L16.3703 11.4206L15.6632 10.7135ZM7.07103 26.2842L7.77814 25.5771H7.77814L7.07103 26.2842ZM13.8492 20.9203L19.8596 14.9099L18.4454 13.4957L12.435 19.5061L13.8492 20.9203ZM7.16135 13.466L15.617 5.01037L14.2028 3.59616L5.74713 12.0518L7.16135 13.466ZM14.8492 26.9913L26.2236 15.617L24.8094 14.2028L13.435 25.5771L14.8492 26.9913ZM7.7743 19.9241L16.3665 11.4244L14.96 10.0026L6.36777 18.5022L7.7743 19.9241ZM16.3703 11.4206C16.9809 10.8101 17.8839 10.8129 18.4454 11.3744L19.8596 9.96014C18.4685 8.56899 16.2982 8.66433 14.9561 10.0064L16.3703 11.4206ZM18.4454 11.3744C19.0312 11.9601 19.0312 12.9099 18.4454 13.4957L19.8596 14.9099C21.2265 13.5431 21.2265 11.327 19.8596 9.96014L18.4454 11.3744ZM15.617 5.01037C18.1554 2.47197 22.271 2.47197 24.8094 5.01037L26.2236 3.59616C22.9041 0.276703 17.5222 0.276703 14.2028 3.59616L15.617 5.01037ZM24.8094 5.01037C27.3478 7.54878 27.3478 11.6644 24.8094 14.2028L26.2236 15.617C29.543 12.2975 29.543 6.91562 26.2236 3.59616L24.8094 5.01037ZM13.435 25.5771C11.8729 27.1392 9.34024 27.1392 7.77814 25.5771L6.36393 26.9913C8.70707 29.3345 12.5061 29.3345 14.8492 26.9913L13.435 25.5771ZM7.77814 25.5771C6.21604 24.015 6.21604 21.4824 7.77814 19.9203L6.36393 18.5061C4.02078 20.8492 4.02078 24.6482 6.36393 26.9913L7.77814 25.5771Z" fill="black"/>
</svg>
