<svg width="16" height="16" viewBox="0 0 16 16" fill="none" xmlns="http://www.w3.org/2000/svg">
<rect width="16" height="16" fill="white"/>
<path d="M13 14V13V14ZM3 14L3 15H3V14ZM14 6.00001H13H14ZM14 13H15H14ZM2 6H1H2ZM2 13H3H2ZM13 5.00001L13 6.00001L13 5.00001ZM3 5L3 4H3V5ZM10 7C10 7.55228 10.4477 8 11 8C11.5523 8 12 7.55228 12 7H10ZM4 7C4 7.55228 4.44771 8 5 8C5.55228 8 6 7.55228 6 7H4ZM13 13H3V15H13V13ZM13 6.00001V13H15V6.00001H13ZM1 6L1 13H3L3 6H1ZM13 4.00001L3 4L3 6L13 6.00001L13 4.00001ZM15 6.00001C15 4.89544 14.1046 4.00001 13 4.00001L13 6.00001H13H15ZM3 6L3 6V4C1.89543 4 1 4.89543 1 6H3ZM3 13H1C1 14.1046 1.89543 15 3 15L3 13ZM13 15C14.1046 15 15 14.1046 15 13H13V13V15ZM6 5C6 3.89543 6.89543 3 8 3V1C5.79086 1 4 2.79086 4 5H6ZM8 3C9.10457 3 10 3.89543 10 5H12C12 2.79086 10.2091 1 8 1V3ZM10 5V7H12V5H10ZM4 5V7H6V5H4Z" fill="black"/>
</svg>
