<svg width="16" height="16" viewBox="0 0 16 16" fill="none" xmlns="http://www.w3.org/2000/svg">
<rect width="16" height="16" fill="white"/>
<path fill-rule="evenodd" clip-rule="evenodd" d="M4.12602 4C4.57006 2.27477 6.13616 1 8 1C9.86384 1 11.4299 2.27478 11.874 4.00001L13 4.00001C14.1046 4.00001 15 4.89544 15 6.00001V13C15 14.1046 14.1046 15 13 15H3C1.89543 15 1 14.1046 1 13V6C1 4.89543 1.89543 4 3 4L4.12602 4ZM6.26756 4C6.61337 3.4022 7.25972 3 8 3C8.74028 3 9.38663 3.4022 9.73244 4.00001L6.26756 4ZM4 6V7C4 7.55228 4.44771 8 5 8C5.55228 8 6 7.55228 6 7V6L10 6.00001V7C10 7.55228 10.4477 8 11 8C11.5523 8 12 7.55228 12 7V6.00001L13 6.00001V13L3 13L3 6L4 6Z" fill="black"/>
</svg>
