<svg width="32" height="32" viewBox="0 0 32 32" fill="none" xmlns="http://www.w3.org/2000/svg">
<rect width="32" height="32" fill="white"/>
<path d="M21 9.99997C21 12.7614 18.7614 15 16 15C13.2386 15 11 12.7614 11 9.99997L11 7.99997C11 7.44769 10.5523 6.99997 10 6.99997C9.44771 6.99997 9 7.44769 9 7.99997L9 9.99997C9 13.866 12.134 17 16 17C19.866 17 23 13.866 23 9.99997L23 7.99997C23 7.44769 22.5523 6.99997 22 6.99997C21.4477 6.99997 21 7.44769 21 7.99997V9.99997Z" fill="black"/>
<path fill-rule="evenodd" clip-rule="evenodd" d="M29 25V7.00002C29 4.2386 26.7614 2.00002 24 2.00002L8.00001 2C5.23858 2 3 4.23857 3 7V25C3 27.7614 5.23858 30 8 30H24C26.7614 30 29 27.7614 29 25ZM27 7.00002V25C27 26.6569 25.6569 28 24 28H8C6.34315 28 5 26.6568 5 25L5 7C5 5.34314 6.34315 4 8.00001 4L24 4.00002C25.6569 4.00002 27 5.34317 27 7.00002Z" fill="black"/>
</svg>
