<svg width="16" height="16" viewBox="0 0 16 16" fill="none" xmlns="http://www.w3.org/2000/svg">
<rect width="16" height="16" fill="white"/>
<path d="M4 3C4.55228 3 5 2.55228 5 2C5 1.44772 4.55228 1 4 1H2C1.44772 1 1 1.44772 1 2C1 2.55228 1.44772 3 2 3H4Z" fill="black"/>
<path d="M2 13C1.44772 13 1 13.4477 1 14C1 14.5523 1.44772 15 2 15H14C14.5523 15 15 14.5523 15 14C15 13.4477 14.5523 13 14 13H2Z" fill="black"/>
<path d="M8 6C8 6.55228 7.55228 7 7 7H2C1.44772 7 1 6.55228 1 6C1 5.44772 1.44772 5 2 5H7C7.55228 5 8 5.44772 8 6Z" fill="black"/>
<path d="M10 11C10.5523 11 11 10.5523 11 10C11 9.44772 10.5523 9 10 9H2C1.44771 9 1 9.44772 1 10C1 10.5523 1.44771 11 2 11H10Z" fill="black"/>
</svg>
