<svg width="32" height="32" viewBox="0 0 32 32" fill="none" xmlns="http://www.w3.org/2000/svg">
<rect width="32" height="32" fill="white"/>
<path d="M16 18C16.5523 18 17 18.4477 17 19V23C17 23.5523 16.5523 24 16 24C15.4477 24 15 23.5523 15 23V19C15 18.4477 15.4477 18 16 18Z" fill="black"/>
<path d="M22 19C22 18.4477 21.5523 18 21 18C20.4477 18 20 18.4477 20 19V23C20 23.5523 20.4477 24 21 24C21.5523 24 22 23.5523 22 23V19Z" fill="black"/>
<path d="M11 18C11.5523 18 12 18.4477 12 19V23C12 23.5523 11.5523 24 11 24C10.4477 24 10 23.5523 10 23V19C10 18.4477 10.4477 18 11 18Z" fill="black"/>
<path fill-rule="evenodd" clip-rule="evenodd" d="M20.932 11L18.0637 3.35112C17.8698 2.834 18.1318 2.25759 18.6489 2.06367C19.166 1.86975 19.7424 2.13175 19.9363 2.64887L22.9363 10.6489C22.9797 10.7646 23.0003 10.8833 23.0003 11H26.9852C26.9942 10.9999 27.0032 10.9999 27.0123 11H29C29.5523 11 30 11.4477 30 12C30 12.5523 29.5523 13 29 13H27.9053L26.6614 25.4953C26.4069 28.0522 24.2557 30 21.686 30L10.3138 30C7.7442 30 5.59295 28.0522 5.3384 25.4953L4.09453 13H3C2.44772 13 2 12.5523 2 12C2 11.4477 2.44772 11 3 11H8.99973C8.99972 10.8833 9.02028 10.7646 9.06367 10.6489L12.0637 2.6489C12.2576 2.13178 12.834 1.86977 13.3511 2.06369C13.8682 2.25761 14.1302 2.83402 13.9363 3.35114L11.068 11H20.932ZM7.32857 25.2971L6.10441 13H25.8954L24.6713 25.2971C24.5186 26.8313 23.2278 28 21.686 28H10.3138C8.77205 28 7.48129 26.8313 7.32857 25.2971Z" fill="black"/>
</svg>
