<svg width="16" height="16" viewBox="0 0 16 16" fill="none" xmlns="http://www.w3.org/2000/svg">
<rect width="16" height="16" fill="white"/>
<path fill-rule="evenodd" clip-rule="evenodd" d="M6.64932 2.16795C7.10885 2.47429 7.23303 3.09515 6.92668 3.55467L5.96315 4.99995L10.226 4.99994L9.26249 3.55474C8.95613 3.09521 9.08031 2.47435 9.53984 2.16801C9.99937 1.86167 10.6203 1.98584 10.9266 2.44536L12.6297 4.99994L12.8779 4.99994C14.0733 4.99994 15.0018 6.04167 14.8647 7.22919L14.1724 13.2292C14.056 14.2384 13.2015 14.9999 12.1856 14.9999L3.81427 14.9999C2.79839 14.9999 1.94389 14.2384 1.82745 13.2292L1.13514 7.2292C0.998119 6.04168 1.92656 4.99995 3.12196 4.99995L3.55944 4.99995L5.26254 2.44532C5.5689 1.9858 6.18978 1.86161 6.64932 2.16795ZM12.0823 6.99994C12.0911 7.00006 12.0999 7.00006 12.1087 6.99994L12.8779 6.99994L12.1856 12.9999L3.81427 12.9999L3.12196 6.99995L4.08049 6.99995C4.08929 7.00007 4.0981 7.00006 4.10689 6.99995L12.0823 6.99994Z" fill="black"/>
</svg>
