<svg width="32" height="32" viewBox="0 0 32 32" fill="none" xmlns="http://www.w3.org/2000/svg">
<rect width="32" height="32" fill="white"/>
<path d="M21.6861 29V28V29ZM10.3139 29V30V29ZM27.9951 12.0991C28.0498 11.5495 27.6486 11.0596 27.0991 11.0049C26.5495 10.9502 26.0596 11.3514 26.0049 11.9009L27.9951 12.0991ZM25.6664 25.3962L26.6615 25.4953L25.6664 25.3962ZM5.99508 11.901C5.94037 11.3514 5.45051 10.9502 4.90094 11.0049C4.35137 11.0597 3.95021 11.5495 4.00492 12.0991L5.99508 11.901ZM6.33356 25.3962L7.32864 25.2972L6.33356 25.3962ZM17 19C17 18.4477 16.5523 18 16 18C15.4477 18 15 18.4477 15 19H17ZM15 23C15 23.5523 15.4477 24 16 24C16.5523 24 17 23.5523 17 23H15ZM22 19C22 18.4477 21.5523 18 21 18C20.4477 18 20 18.4477 20 19H22ZM20 23C20 23.5523 20.4477 24 21 24C21.5523 24 22 23.5523 22 23H20ZM12 19C12 18.4477 11.5523 18 11 18C10.4477 18 10 18.4477 10 19H12ZM10 23C10 23.5523 10.4477 24 11 24C11.5523 24 12 23.5523 12 23H10ZM13.932 3.36247C14.1322 2.84774 13.8772 2.2682 13.3624 2.06802C12.8477 1.86785 12.2682 2.12285 12.068 2.63758L13.932 3.36247ZM8.568 11.6376C8.36782 12.1523 8.62282 12.7318 9.13755 12.932C9.65228 13.1322 10.2318 12.8772 10.432 12.3624L8.568 11.6376ZM3 11C2.44772 11 2 11.4477 2 12C2 12.5523 2.44772 13 3 13V11ZM29 13C29.5523 13 30 12.5523 30 12C30 11.4477 29.5523 11 29 11V13ZM19.932 2.63756C19.7318 2.12282 19.1523 1.86782 18.6376 2.06799C18.1228 2.26817 17.8678 2.84771 18.068 3.36244L19.932 2.63756ZM21.568 12.3624C21.7682 12.8772 22.3477 13.1322 22.8624 12.932C23.3772 12.7318 23.6322 12.1523 23.432 11.6376L21.568 12.3624ZM21.6861 28L10.3139 28V30L21.6861 30V28ZM26.0049 11.9009L24.6714 25.2972L26.6615 25.4953L27.9951 12.0991L26.0049 11.9009ZM4.00492 12.0991L5.33848 25.4953L7.32864 25.2972L5.99508 11.901L4.00492 12.0991ZM10.3139 28C8.77212 28 7.48137 26.8314 7.32864 25.2972L5.33848 25.4953C5.59302 28.0523 7.74428 30 10.3139 30V28ZM21.6861 30C24.2557 30 26.407 28.0523 26.6615 25.4953L24.6714 25.2972C24.5186 26.8314 23.2279 28 21.6861 28V30ZM15 19V23H17V19H15ZM20 19V23H22V19H20ZM10 19V23H12V19H10ZM12.068 2.63758L8.568 11.6376L10.432 12.3624L13.932 3.36247L12.068 2.63758ZM3 13H29V11H3V13ZM18.068 3.36244L21.568 12.3624L23.432 11.6376L19.932 2.63756L18.068 3.36244Z" fill="black"/>
</svg>
