<svg width="16" height="16" viewBox="0 0 16 16" fill="none" xmlns="http://www.w3.org/2000/svg">
<rect width="16" height="16" fill="white"/>
<path fill-rule="evenodd" clip-rule="evenodd" d="M4 1C2.89543 1 2 1.89543 2 3V7.26756C1.4022 7.61337 1 8.25972 1 9V14C1 14.5523 1.44772 15 2 15C2.55228 15 3 14.5523 3 14H13C13 14.5523 13.4477 15 14 15C14.5523 15 15 14.5523 15 14V9C15 8.25972 14.5978 7.61337 14 7.26756V3C14 1.89543 13.1046 1 12 1H4ZM13 12V9H3V12H13ZM9 7H7V6H9V7ZM11 6V7H12V3H4V7H5V6C5 4.89543 5.89543 4 7 4H9C10.1046 4 11 4.89543 11 6Z" fill="black"/>
</svg>
