<svg width="16" height="16" viewBox="0 0 16 16" fill="none" xmlns="http://www.w3.org/2000/svg">
<rect width="16" height="16" fill="white"/>
<path d="M9 13C9 13.5523 8.55228 14 8 14C7.44772 14 7 13.5523 7 13H9Z" stroke="black" stroke-width="2"/>
<path d="M3.46563 12H12.5344C12.8338 12 13.0553 11.7279 12.9878 11.4431L11.9994 7.72201C11.8722 7.18481 11.8415 6.6269 11.7055 6.09178C11.4167 4.9559 10.5425 4.03119 9.39628 3.60986L9.39628 3.36364C9.39628 2.61052 8.77114 2 8 2C7.22886 2 6.60373 2.61052 6.60372 3.36364V3.60986C5.45754 4.03119 4.58333 4.9559 4.29454 6.09178C4.15848 6.6269 4.12778 7.18481 4.00061 7.72201L3.01216 11.4431C2.94473 11.7279 3.16624 12 3.46563 12Z" stroke="black" stroke-width="2"/>
</svg>
