<svg width="16" height="16" viewBox="0 0 16 16" fill="none" xmlns="http://www.w3.org/2000/svg">
<rect width="16" height="16" fill="white"/>
<path fill-rule="evenodd" clip-rule="evenodd" d="M7.99999 1C6.83821 1 5.84047 1.8262 5.64025 2.94838C4.50908 3.55236 3.64569 4.58544 3.32536 5.84537C3.18851 6.38362 3.15629 6.93941 3.03042 7.47919L2.04218 11.1995L2.03904 11.2127C1.81596 12.1551 2.55146 13 3.46561 13H6C6 14.1046 6.89543 15 8 15C9.10457 15 10 14.1046 10 13H12.5344C13.4485 13 14.184 12.1551 13.9609 11.2127L13.9578 11.1995L12.9696 7.47918C12.8437 6.93941 12.8115 6.38361 12.6746 5.84537C12.3543 4.58544 11.4909 3.55236 10.3597 2.94838C10.1595 1.8262 9.16177 1 7.99999 1ZM7.60371 3.36364C7.60371 3.18497 7.7587 3 7.99999 3C8.24127 3 8.39626 3.18497 8.39626 3.36364L8.39626 4.30769L9.05124 4.54846C9.91358 4.86544 10.5352 5.54734 10.7363 6.33818C10.871 6.86817 10.9003 7.42006 11.0263 7.95237L11.0294 7.9656L11.8354 11H4.16452L4.97057 7.9656L4.9737 7.95237C5.09971 7.42006 5.12894 6.86817 5.26369 6.33818C5.46476 5.54734 6.0864 4.86544 6.94873 4.54846L7.60371 4.30769V3.36364Z" fill="black"/>
</svg>
