<svg width="16" height="16" viewBox="0 0 16 16" fill="none" xmlns="http://www.w3.org/2000/svg">
<rect width="16" height="16" fill="white"/>
<path d="M9 13H10C10 12.7348 9.89464 12.4804 9.70711 12.2929L9 13ZM7 13L6.29289 12.2929L6 12.5858V13H7ZM8 12L8.70711 11.2929C8.31658 10.9024 7.68342 10.9024 7.29289 11.2929L8 12ZM3.01216 11.4431L2.04568 11.1863L2.04219 11.1995L2.03906 11.2127L3.01216 11.4431ZM5.60373 3.36364C5.60373 3.91592 6.05144 4.36364 6.60373 4.36364C7.15601 4.36364 7.60373 3.91592 7.60373 3.36364H5.60373ZM9.39628 3.60986H8.39628C8.39628 4.02909 8.65777 4.40382 9.05126 4.54846L9.39628 3.60986ZM10.7363 6.33819C10.8724 6.87344 11.4166 7.19703 11.9519 7.06094C12.4871 6.92486 12.8107 6.38063 12.6746 5.84537L10.7363 6.33819ZM7.5 13C8.05229 13 8.5 12.5523 8.5 12C8.5 11.4477 8.05229 11 7.5 11V13ZM4.62761 9.25673C4.7694 8.72296 4.45164 8.17531 3.91786 8.03352C3.38409 7.89173 2.83644 8.20949 2.69465 8.74327L4.62761 9.25673ZM2.70711 1.29289C2.31658 0.902369 1.68342 0.902369 1.29289 1.29289C0.902369 1.68342 0.902369 2.31658 1.29289 2.70711L2.70711 1.29289ZM13.2929 14.7071C13.6834 15.0976 14.3166 15.0976 14.7071 14.7071C15.0976 14.3166 15.0976 13.6834 14.7071 13.2929L13.2929 14.7071ZM8 13V15C9.10457 15 10 14.1046 10 13H8ZM8 13H6C6 14.1046 6.89543 15 8 15V13ZM7.70711 13.7071L8.70711 12.7071L7.29289 11.2929L6.29289 12.2929L7.70711 13.7071ZM7.29289 12.7071L8.29289 13.7071L9.70711 12.2929L8.70711 11.2929L7.29289 12.7071ZM3.46563 11C3.78101 11 4.07349 11.3008 3.98527 11.6734L2.03906 11.2127C1.81597 12.1551 2.55148 13 3.46563 13V11ZM7.60373 3.36364C7.60373 3.18497 7.75871 3 8 3V1C6.699 1 5.60373 2.03607 5.60373 3.36364H7.60373ZM8 3C8.24129 3 8.39628 3.18497 8.39628 3.36364H10.3963C10.3963 2.03607 9.301 1 8 1V3ZM9.05126 4.54846C9.91359 4.86544 10.5352 5.54734 10.7363 6.33819L12.6746 5.84537C12.2981 4.36445 11.1713 3.19693 9.74129 2.67127L9.05126 4.54846ZM8.39628 3.36364V3.60986H10.3963V3.36364H8.39628ZM7.5 11H3.46563V13H7.5V11ZM3.97864 11.6998L4.62761 9.25673L2.69465 8.74327L2.04568 11.1863L3.97864 11.6998ZM1.29289 2.70711L13.2929 14.7071L14.7071 13.2929L2.70711 1.29289L1.29289 2.70711Z" fill="black"/>
</svg>
