<svg width="16" height="16" viewBox="0 0 16 16" fill="none" xmlns="http://www.w3.org/2000/svg">
<rect width="16" height="16" fill="white"/>
<path d="M13.2929 14.7071C13.6834 15.0976 14.3166 15.0976 14.7071 14.7071C15.0976 14.3166 15.0976 13.6834 14.7071 13.2929L2.70711 1.29289C2.31658 0.902369 1.68342 0.902369 1.29289 1.29289C0.902369 1.68342 0.902369 2.31658 1.29289 2.70711L13.2929 14.7071Z" fill="black"/>
<path d="M8.00002 3C7.75873 3 7.60374 3.18497 7.60374 3.36364C7.60374 3.91592 7.15603 4.36364 6.60374 4.36364C6.05146 4.36364 5.60374 3.91592 5.60374 3.36364C5.60374 2.03607 6.69902 1 8.00002 1C9.16179 1 10.1595 1.8262 10.3598 2.94838C11.4909 3.55236 12.3543 4.58544 12.6746 5.84537C12.8107 6.38062 12.4871 6.92486 11.9519 7.06094C11.4166 7.19703 10.8724 6.87344 10.7363 6.33818C10.5352 5.54734 9.9136 4.86544 9.05127 4.54846L8.39629 4.30769V3.36364C8.39629 3.18497 8.2413 3 8.00002 3Z" fill="black"/>
<path d="M3.91788 8.03352C4.45165 8.17531 4.76942 8.72296 4.62763 9.25673L4.16455 11H7.50002C7.5864 11 7.67023 11.011 7.75019 11.0315C8.08142 10.9464 8.44778 11.0335 8.70712 11.2929L9.70712 12.2929C9.89466 12.4804 10 12.7348 10 13C10 14.1046 9.10459 15 8.00002 15C6.89545 15 6.00002 14.1046 6.00002 13H3.46564C2.55149 13 1.81599 12.1551 2.03907 11.2127L2.0422 11.1995L2.69466 8.74327C2.83645 8.20949 3.38411 7.89173 3.91788 8.03352Z" fill="black"/>
</svg>
