<svg width="16" height="16" viewBox="0 0 16 16" fill="none" xmlns="http://www.w3.org/2000/svg">
<rect width="16" height="16" fill="white"/>
<path d="M5.23205 12C4.9559 12.4783 4.34431 12.6421 3.86602 12.366C3.38773 12.0899 3.22385 11.4783 3.5 11L5.23205 12Z" stroke="black" stroke-width="2"/>
<path d="M2.07316 9.19688L9.92693 13.7313C10.1862 13.8809 10.5141 13.7561 10.5981 13.4757L11.6026 9.75891C11.7611 9.2301 12.0134 8.73158 12.1632 8.20013C12.481 7.07203 12.1863 5.8341 11.4043 4.89613L11.5274 4.68289C11.904 4.03068 11.6679 3.18938 11 2.80381C10.3322 2.41824 9.48558 2.6344 9.10902 3.28662L8.9859 3.49986C7.78262 3.29164 6.56317 3.65536 5.74513 4.49466C5.35975 4.89006 5.05419 5.35788 4.67547 5.75953L1.95892 8.48783C1.75808 8.70082 1.81389 9.04719 2.07316 9.19688Z" stroke="black" stroke-width="2"/>
</svg>
