<svg width="32" height="32" viewBox="0 0 32 32" fill="none" xmlns="http://www.w3.org/2000/svg">
<rect width="32" height="32" fill="white"/>
<path d="M16.0001 3C14.8955 3 14.0001 3.89543 14.0001 5V6.24909L13.3961 6.50958C13.0907 6.64131 12.8061 6.79479 12.5407 6.96534C12.0761 7.26395 11.4574 7.12939 11.1588 6.66479C10.8602 6.20019 10.9948 5.58149 11.4594 5.28288C11.633 5.17128 11.8132 5.06491 12.0002 4.96462C12.0192 2.77177 13.8027 1 16.0001 1C18.1974 1 19.9809 2.77173 19.9999 4.96454C21.891 5.97845 23.0731 7.60415 23.7831 8.96653C24.1778 9.72378 24.4386 10.4218 24.6014 10.9321C24.7309 11.3382 24.8413 11.8215 24.8572 11.9011V17.6871L26.0664 19.43C26.3812 19.8837 26.2686 20.5068 25.8148 20.8216C25.3611 21.1364 24.738 21.0238 24.4232 20.57L22.8572 18.3129V12.1108C22.7901 11.83 22.5438 10.916 22.0096 9.89089C21.3423 8.61054 20.2702 7.22822 18.604 6.50959L18.0001 6.24909V5C18.0001 3.89543 17.1046 3 16.0001 3Z" fill="black"/>
<path fill-rule="evenodd" clip-rule="evenodd" d="M8.04213 13.005C8.59166 13.0601 8.99246 13.5503 8.93735 14.0998L8.51539 18.3073L6.00709 22.7788C5.95227 22.8765 5.93966 22.9275 5.93709 22.9451C5.87974 23.3384 5.96048 23.6254 6.06352 23.7805C6.14303 23.9001 6.26725 24 6.54119 24H19.743C20.2952 24 20.743 24.4477 20.743 25C20.743 27.7614 18.5044 30 15.743 30C13.324 30 11.3062 28.2822 10.843 26H6.54119C5.61367 26 4.85678 25.5782 4.3977 24.8873C3.96214 24.2317 3.8468 23.4192 3.95803 22.6565C4.00827 22.312 4.13859 22.0217 4.26279 21.8003L6.567 17.6927L6.94734 13.9002C7.00245 13.3507 7.4926 12.9499 8.04213 13.005ZM12.9137 26H18.5722C18.1604 27.1652 17.0492 28 15.743 28C14.4367 28 13.3255 27.1652 12.9137 26Z" fill="black"/>
<path d="M28.2929 29.7071C28.6834 30.0976 29.3166 30.0976 29.7071 29.7071C30.0976 29.3166 30.0976 28.6834 29.7071 28.2929L3.70711 2.29289C3.31658 1.90237 2.68342 1.90237 2.29289 2.29289C1.90237 2.68342 1.90237 3.31658 2.29289 3.70711L28.2929 29.7071Z" fill="black"/>
</svg>
