<svg width="32" height="32" viewBox="0 0 32 32" fill="none" xmlns="http://www.w3.org/2000/svg">
<rect width="32" height="32" fill="white"/>
<path fill-rule="evenodd" clip-rule="evenodd" d="M10.8429 26H6.54116C5.61363 26 4.85674 25.5782 4.39766 24.8873C3.9621 24.2317 3.84676 23.4192 3.95799 22.6565C4.00823 22.312 4.13855 22.0217 4.26275 21.8003L6.56696 17.6927L7.15273 11.8518C7.21491 11.5406 7.30233 11.2343 7.39871 10.9321C7.56151 10.4218 7.82227 9.72377 8.21694 8.96653C8.92699 7.60414 10.1091 5.97844 12.0002 4.96453C12.0192 2.77172 13.8027 1 16 1C18.1973 1 19.9808 2.77173 19.9999 4.96454C21.891 5.97845 23.0731 7.60415 23.7831 8.96653C24.1778 9.72378 24.4385 10.4218 24.6013 10.9321C24.683 11.1881 24.7406 11.3989 24.7785 11.549C24.8081 11.6659 24.8336 11.783 24.8572 11.9011V17.6871L27.6087 21.653C27.8033 21.9334 28.0067 22.3177 28.0589 22.7873C28.1414 23.5291 28.0065 24.3135 27.5648 24.9424C27.1005 25.6034 26.358 26 25.4589 26H20.6429C20.1796 28.2822 18.1619 30 15.7429 30C13.324 30 11.3062 28.2822 10.8429 26ZM14 5C14 3.89543 14.8955 3 16 3C17.1046 3 18 3.89543 18 5V6.24909L18.604 6.50959C20.2702 7.22822 21.3422 8.61054 22.0095 9.89089C22.3399 10.5248 22.5596 11.1124 22.6959 11.5399C22.7639 11.7529 22.8105 11.9241 22.8394 12.0388C22.8463 12.0661 22.8522 12.0902 22.8572 12.1108V18.3129L25.9655 22.7931C26.0525 22.9185 26.0688 22.987 26.0711 23.0083C26.1128 23.3832 26.0285 23.6499 25.9281 23.7929C25.8502 23.9038 25.7275 24 25.4589 24H6.54116C6.26721 24 6.14299 23.9001 6.06348 23.7805C5.96045 23.6254 5.8797 23.3384 5.93705 22.9451C5.93962 22.9275 5.95223 22.8765 6.00705 22.7788L8.51535 18.3073L9.1322 12.1565C9.15218 12.0688 9.20592 11.8478 9.30412 11.5399C9.44048 11.1124 9.66013 10.5248 9.99051 9.89088C10.6578 8.61053 11.7299 7.22821 13.3961 6.50958L14 6.24909V5ZM18.5722 26H12.9136C13.3255 27.1652 14.4367 28 15.7429 28C17.0491 28 18.1604 27.1652 18.5722 26Z" fill="black"/>
<path d="M23.0386 2.72526C22.8868 3.25629 23.1943 3.80978 23.7254 3.9615C26.7058 4.81307 28.8993 8.27976 28.0299 11.7575C27.896 12.2933 28.2218 12.8362 28.7575 12.9702C29.2933 13.1041 29.8363 12.7783 29.9702 12.2425C31.1007 7.72015 28.2941 3.18684 24.2748 2.03846C23.7438 1.88673 23.1903 2.19422 23.0386 2.72526Z" fill="black"/>
<path d="M8.1899 3.9615C8.72093 3.80978 9.02842 3.25629 8.8767 2.72526C8.72497 2.19422 8.17149 1.88673 7.64045 2.03846C3.62113 3.18684 0.814577 7.72015 1.94506 12.2425C2.07899 12.7783 2.62192 13.1041 3.15772 12.9702C3.69351 12.8362 4.01929 12.2933 3.88535 11.7575C3.01601 8.27976 5.20945 4.81307 8.1899 3.9615Z" fill="black"/>
</svg>
