<svg width="16" height="16" viewBox="0 0 16 16" fill="none" xmlns="http://www.w3.org/2000/svg">
<g clip-path="url(#clip0)">
<rect width="16" height="16" fill="white"/>
<path fill-rule="evenodd" clip-rule="evenodd" d="M11.4999 1.93784C10.4938 1.35695 9.21662 1.5736 8.48213 2.44532C7.20052 2.4028 5.93626 2.86578 5.02888 3.79674C4.79573 4.03595 4.59348 4.29009 4.4244 4.50313L4.41311 4.51736C4.24273 4.73203 4.10432 4.90642 3.95654 5.0642L1.24055 7.79195L1.23122 7.80184C0.566825 8.50644 0.781352 9.60589 1.57303 10.063L2.56286 10.6344C2.11328 11.5684 2.45361 12.7054 3.36594 13.2321C4.27827 13.7588 5.43309 13.4851 6.01712 12.6288L9.42679 14.5973C10.2185 15.0544 11.2779 14.6905 11.5559 13.7628L11.5598 13.7498L12.5641 10.0338C12.6268 9.82689 12.7087 9.61984 12.8094 9.36494L12.8161 9.34806C12.916 9.09511 13.035 8.79289 13.1256 8.47137C13.4781 7.22007 13.2469 5.8937 12.5693 4.80506C12.957 3.73311 12.506 2.51873 11.4999 1.93784ZM9.97491 3.78667C10.0642 3.63195 10.291 3.54925 10.4999 3.66989C10.7089 3.79054 10.7506 4.02822 10.6613 4.18295L10.1892 5.00053L10.6361 5.53653C11.2244 6.24221 11.4218 7.14357 11.2005 7.929C11.0522 8.45535 10.8016 8.94792 10.6446 9.47191L10.6407 9.48494L9.82152 12.5158L3.1783 8.68037L5.39356 6.45552L5.40289 6.44563C5.77817 6.04764 6.07943 5.5843 6.46112 5.1927C7.03067 4.60834 7.90997 4.32862 8.81527 4.48527L9.50288 4.60425L9.97491 3.78667Z" fill="black"/>
</g>
<defs>
<clipPath id="clip0">
<rect width="16" height="16" fill="white"/>
</clipPath>
</defs>
</svg>
