<svg width="16" height="16" viewBox="0 0 16 16" fill="none" xmlns="http://www.w3.org/2000/svg">
<rect width="16" height="16" fill="white"/>
<path d="M12.861 4.58203C13.2515 4.19151 13.2515 3.55834 12.861 3.16782C12.4705 2.77729 11.8373 2.77729 11.4468 3.16782L12.861 4.58203ZM3.13908 11.4755C2.74856 11.866 2.74856 12.4992 3.13908 12.8897C3.52961 13.2802 4.16277 13.2802 4.5533 12.8897L3.13908 11.4755ZM11.4468 3.16782L3.13908 11.4755L4.5533 12.8897L12.861 4.58203L11.4468 3.16782ZM13 8C13 10.7614 10.7614 13 8 13V15C11.866 15 15 11.866 15 8H13ZM8 13C5.23858 13 3 10.7614 3 8H1C1 11.866 4.13401 15 8 15V13ZM3 8C3 5.23858 5.23858 3 8 3V1C4.13401 1 1 4.13401 1 8H3ZM8 3C10.7614 3 13 5.23858 13 8H15C15 4.13401 11.866 1 8 1V3Z" fill="black"/>
</svg>
