<svg width="32" height="32" viewBox="0 0 32 32" fill="none" xmlns="http://www.w3.org/2000/svg">
<rect width="32" height="32" fill="white"/>
<path d="M25.7071 7.76936C26.0976 7.37884 26.0976 6.74567 25.7071 6.35515C25.3166 5.96462 24.6834 5.96462 24.2929 6.35515L25.7071 7.76936ZM6.29289 24.3551C5.90237 24.7457 5.90237 25.3788 6.29289 25.7694C6.68342 26.1599 7.31658 26.1599 7.70711 25.7694L6.29289 24.3551ZM24.2929 6.35515L6.29289 24.3551L7.70711 25.7694L25.7071 7.76936L24.2929 6.35515ZM28 16C28 22.6274 22.6274 28 16 28V30C23.732 30 30 23.732 30 16H28ZM16 28C9.37258 28 4 22.6274 4 16H2C2 23.732 8.26801 30 16 30V28ZM4 16C4 9.37258 9.37258 4 16 4V2C8.26801 2 2 8.26801 2 16H4ZM16 4C22.6274 4 28 9.37258 28 16H30C30 8.26801 23.732 2 16 2V4Z" fill="black"/>
</svg>
