<svg width="32" height="32" viewBox="0 0 32 32" fill="none" xmlns="http://www.w3.org/2000/svg">
<rect width="32" height="32" fill="white"/>
<path d="M25 22.7955L25.5272 23.6452C25.8149 23.4667 25.9928 23.1547 25.9998 22.8162C26.0068 22.4777 25.8421 22.1586 25.5621 21.9684L25 22.7955ZM15 29H14C14 29.3629 14.1966 29.6974 14.5138 29.8738C14.831 30.0503 15.2188 30.0411 15.5272 29.8497L15 29ZM15 3L15.497 2.13224C15.1875 1.95499 14.807 1.95599 14.4985 2.13484C14.1899 2.3137 14 2.64336 14 3L15 3ZM25 8.72727L25.5882 9.53601C25.8625 9.33653 26.0169 9.01162 25.9985 8.67296C25.9801 8.33431 25.7913 8.02807 25.497 7.85951L25 8.72727ZM6.60106 8.43221C6.15967 8.10026 5.53275 8.18898 5.20079 8.63037C4.86884 9.07176 4.95755 9.69868 5.39894 10.0306L6.60106 8.43221ZM5.47443 20.7092C5.00457 20.9994 4.85899 21.6156 5.14925 22.0855C5.43951 22.5554 6.05571 22.7009 6.52557 22.4107L5.47443 20.7092ZM24.4728 21.9457L14.4728 28.1503L15.5272 29.8497L25.5272 23.6452L24.4728 21.9457ZM16 29V16H14V29H16ZM16 16L16 3L14 3L14 16H16ZM25.5621 21.9684L15.5621 15.1729L14.4379 16.8271L24.4379 23.6226L25.5621 21.9684ZM15.5882 16.8087L25.5882 9.53601L24.4118 7.91854L14.4118 15.1913L15.5882 16.8087ZM25.497 7.85951L15.497 2.13224L14.503 3.86776L24.503 9.59503L25.497 7.85951ZM15.6011 15.2008L6.60106 8.43221L5.39894 10.0306L14.3989 16.7992L15.6011 15.2008ZM6.52557 22.4107L15.5256 16.8507L14.4744 15.1492L5.47443 20.7092L6.52557 22.4107Z" fill="black"/>
</svg>
