<svg width="16" height="16" viewBox="0 0 16 16" fill="none" xmlns="http://www.w3.org/2000/svg">
<rect width="16" height="16" fill="white"/>
<path d="M7 13L6 13C6 13.3566 6.18994 13.6863 6.4985 13.8652C6.80705 14.044 7.18751 14.045 7.49699 13.8678L7 13ZM7 1L7.39994 0.0834598C7.09079 -0.0514441 6.73446 -0.0214033 6.45225 0.163356C6.17005 0.348115 6 0.662693 6 1L7 1ZM12 10.1364L12.497 11.0041C12.8019 10.8295 12.9928 10.5077 12.9998 10.1564C13.0068 9.80514 12.829 9.47593 12.5314 9.28923L12 10.1364ZM7 7L6 7L7 7ZM12 3.18182L12.6069 3.97659C12.8885 3.76154 13.0353 3.41352 12.9928 3.06175C12.9502 2.70998 12.7247 2.40699 12.3999 2.26528L12 3.18182ZM11.503 9.26861L6.50301 12.1322L7.49699 13.8678L12.497 11.0041L11.503 9.26861ZM8 13L8 7L6 7L6 13L8 13ZM8 7L8 1L6 1L6 7L8 7ZM12.5314 9.28923L7.53138 6.15287L6.46862 7.84713L11.4686 10.9835L12.5314 9.28923ZM7.60691 7.79477L12.6069 3.97659L11.3931 2.38705L6.39309 6.20523L7.60691 7.79477ZM12.3999 2.26528L7.39994 0.0834598L6.60006 1.91654L11.6001 4.09836L12.3999 2.26528Z" fill="black"/>
<path d="M7 7.29412L7.57265 6.47432C7.85582 6.67212 8.01686 7.00205 7.9986 7.34698C7.98034 7.6919 7.78537 8.00299 7.48291 8.16979L7 7.29412ZM2.42735 5.3198C1.97458 5.00353 1.86393 4.38011 2.1802 3.92735C2.49647 3.47458 3.11989 3.36393 3.57265 3.6802L2.42735 5.3198ZM3.48291 10.3757C2.99929 10.6424 2.39103 10.4665 2.12433 9.98291C1.85763 9.49929 2.03347 8.89103 2.51709 8.62433L3.48291 10.3757ZM6.42735 8.11392L2.42735 5.3198L3.57265 3.6802L7.57265 6.47432L6.42735 8.11392ZM2.51709 8.62433L6.51709 6.41845L7.48291 8.16979L3.48291 10.3757L2.51709 8.62433Z" fill="black"/>
</svg>
