<svg width="32" height="32" viewBox="0 0 32 32" fill="none" xmlns="http://www.w3.org/2000/svg">
<rect width="32" height="32" fill="white"/>
<path fill-rule="evenodd" clip-rule="evenodd" d="M11 7H17.5C19.433 7 21 8.567 21 10.5C21 12.433 19.433 14 17.5 14H11V7ZM13 9V12H17.5C18.3284 12 19 11.3284 19 10.5C19 9.67157 18.3284 9 17.5 9H13Z" fill="black"/>
<path fill-rule="evenodd" clip-rule="evenodd" d="M11 18H17.5C19.433 18 21 19.567 21 21.5C21 23.433 19.433 25 17.5 25H11V18ZM13 20V23H17.5C18.3284 23 19 22.3284 19 21.5C19 20.6716 18.3284 20 17.5 20H13Z" fill="black"/>
<path fill-rule="evenodd" clip-rule="evenodd" d="M8 2C6.89543 2 6 2.89543 6 4V28C6 29.1046 6.89543 30 8 30H19C23.4183 30 27 26.4183 27 22C27 19.3591 25.7203 17.0184 23.7498 15.5622C25.1418 14.1233 26 12.1619 26 10C26 5.58175 22.4183 2 18 2H8ZM8 4H18C21.3137 4 24 6.68632 24 10C24 12.0153 23.0073 13.7988 21.4797 14.8885C21.1926 15.0934 21.0346 15.4343 21.0639 15.7858C21.0932 16.1373 21.3055 16.4473 21.6227 16.6017C23.6242 17.5763 25 19.6284 25 22C25 25.3137 22.3137 28 19 28H8V4Z" fill="black"/>
</svg>
