<svg width="32" height="32" viewBox="0 0 32 32" fill="none" xmlns="http://www.w3.org/2000/svg">
<rect width="32" height="32" fill="white"/>
<path d="M12 8V7H11V8H12ZM12 13H11V14H12V13ZM12 19V18H11V19H12ZM12 24H11V25H12V24ZM22.0604 15.7026L21.4797 14.8885C21.1926 15.0934 21.0346 15.4343 21.0639 15.7858C21.0932 16.1373 21.3055 16.4473 21.6227 16.6017L22.0604 15.7026ZM12 9H17.5V7H12V9ZM17.5 12H12V14H17.5V12ZM13 13V8H11V13H13ZM19 10.5C19 11.3284 18.3284 12 17.5 12V14C19.433 14 21 12.433 21 10.5H19ZM17.5 9C18.3284 9 19 9.67157 19 10.5H21C21 8.567 19.433 7 17.5 7V9ZM12 20H17.5V18H12V20ZM17.5 23H12V25H17.5V23ZM13 24V19H11V24H13ZM19 21.5C19 22.3284 18.3284 23 17.5 23V25C19.433 25 21 23.433 21 21.5H19ZM17.5 20C18.3284 20 19 20.6716 19 21.5H21C21 19.567 19.433 18 17.5 18V20ZM18 2H8V4H18V2ZM6 4V28H8V4H6ZM8 30H19V28H8V30ZM6 28C6 29.1046 6.89543 30 8 30V28H6ZM8 2C6.89543 2 6 2.89543 6 4H8H8V2ZM24 10C24 12.0153 23.0073 13.7988 21.4797 14.8885L22.6412 16.5167C24.6723 15.0679 26 12.689 26 10H24ZM18 4C21.3137 4 24 6.68632 24 10H26C26 5.58175 22.4183 2 18 2V4ZM25 22C25 25.3137 22.3137 28 19 28V30C23.4183 30 27 26.4183 27 22H25ZM21.6227 16.6017C23.6242 17.5763 25 19.6284 25 22H27C27 18.8345 25.1613 16.1002 22.4982 14.8035L21.6227 16.6017Z" fill="black"/>
</svg>
