<svg width="16" height="16" viewBox="0 0 16 16" fill="none" xmlns="http://www.w3.org/2000/svg">
<rect width="16" height="16" fill="white"/>
<path d="M10.6039 7.79C11.5739 7.12 12.0039 6.02 12.0039 5C12.0039 2.74 10.25 1 8 1H4C3.44772 1 3 1.44772 3 2V14C3 14.5523 3.44772 15 4 15H8.5C10.9561 15 12.5 13.5 12.5 11C12.5 9.48 11.8939 8.39 10.6039 7.79ZM5.5 3.8C5.5 3.63431 5.63431 3.5 5.8 3.5H7.5C8.5 3.5 9.5 3.84375 9.5 5C9.5 6 9 6.5 8 6.5H5.8C5.63431 6.5 5.5 6.36569 5.5 6.2V3.8ZM8 12.5H5.8C5.63431 12.5 5.5 12.3657 5.5 12.2V9.8C5.5 9.63431 5.63431 9.5 5.8 9.5H8.5C9.5 9.5 10 10.0391 10 11C10 12.0781 9.32031 12.5 8 12.5Z" fill="black"/>
</svg>
