<svg width="32" height="32" viewBox="0 0 32 32" fill="none" xmlns="http://www.w3.org/2000/svg">
<rect width="32" height="32" fill="white"/>
<path fill-rule="evenodd" clip-rule="evenodd" d="M5.83871 4C4.87457 4 4 4.84264 4 6V26.985C4 27.8104 4.94354 28.2804 5.60239 27.7832L11.1928 23.5642C12.2624 22.757 13.7376 22.757 14.8072 23.5642L20.3976 27.7832C21.0565 28.2804 22 27.8104 22 26.985V5.76923C22 5.12071 22.1691 4.52124 22.4635 4H5.83871ZM26 2H5.83871C3.6673 2 2 3.84365 2 6V26.985C2 29.4613 4.83061 30.8713 6.80718 29.3796L12.3976 25.1606C12.7541 24.8915 13.2459 24.8915 13.6024 25.1606L19.1928 29.3796C21.1694 30.8713 24 29.4613 24 26.985V13H27C28.6569 13 30 11.6569 30 10V5.76923C30 3.61368 28.1323 2 26 2ZM24 11H27C27.5523 11 28 10.5523 28 10V5.76923C28 4.86597 27.1814 4 26 4C24.8186 4 24 4.86597 24 5.76923V11Z" fill="black"/>
</svg>
