<svg width="16" height="16" viewBox="0 0 16 16" fill="none" xmlns="http://www.w3.org/2000/svg">
<rect width="16" height="16" fill="white"/>
<path d="M3 13H4H3ZM12 14V13V14ZM4 14V15H4L4 14ZM13 5V4V5ZM13 13H14H13ZM2 3H1H2ZM2 4H3H2ZM14 3.00001H13H14ZM14 4H15H14ZM13 2.00001L13 3.00001L13 2.00001ZM3 2L3 1H3V2ZM9 9C9.55228 9 10 8.55229 10 8C10 7.44772 9.55228 7 9 7V9ZM7 7C6.44772 7 6 7.44772 6 8C6 8.55229 6.44772 9 7 9V7ZM2 5L2 13H4L4 5H2ZM12 13L4 13L4 15L12 15V13ZM12 5V13H14V5H12ZM2 13C2 14.1046 2.89543 15 4 15V13H4H2ZM12 15C13.1046 15 14 14.1046 14 13H12V15ZM1 3L1 4H3V3H1ZM13 4H3V6H13V4ZM13 3.00001V4H15V3.00001H13ZM13 1.00001L3 1L3 3L13 3.00001L13 1.00001ZM15 3.00001C15 1.89544 14.1046 1.00001 13 1.00001L13 3.00001L13 3.00001H15ZM3 3L3 3V1C1.89543 1 1 1.89543 1 3H3ZM1 4C1 5.10457 1.89543 6 3 6L3 4V4H1ZM13 6C14.1046 6 15 5.10457 15 4H13V4V6ZM9 7H7V9H9V7ZM13 4C9.66665 4.00014 6.3334 4 3 4L3 6C6.33327 6 9.66669 6.00014 13 6L13 4Z" fill="black"/>
</svg>
