<svg width="32" height="32" viewBox="0 0 32 32" fill="none" xmlns="http://www.w3.org/2000/svg">
<rect width="32" height="32" fill="white"/>
<path d="M4 10H3H4ZM4 25H5H4ZM24 29V28V29ZM8 29V30V29ZM28 10H27H28ZM28 25H29H28ZM27 9.00004L27 10H27V9.00004ZM5 9L5.00001 8H5V9ZM3 5H2H3ZM3 7H4H3ZM29 5.00001H28H29ZM29 7H30H29ZM27 3.00001V4.00001V3.00001ZM5 3L5 2H5V3ZM19 16C19.5523 16 20 15.5523 20 15C20 14.4477 19.5523 14 19 14V16ZM13 14C12.4477 14 12 14.4477 12 15C12 15.5523 12.4477 16 13 16V14ZM3 10L3 25H5L5 10H3ZM24 28L8 28V30L24 30V28ZM27 10V25H29V10H27ZM27 8.00004L5.00001 8L5 10L27 10L27 8.00004ZM29 10C29 8.89547 28.1046 8.00004 27 8.00004L27 10H27H29ZM5 10L5 10V8C3.89543 8 3 8.89543 3 10H5ZM3 25C3 27.7614 5.23858 30 8 30V28C6.34315 28 5 26.6569 5 25H3ZM24 30C26.7614 30 29 27.7614 29 25H27C27 26.6569 25.6569 28 24 28V30ZM2 5L2 7H4L4 5H2ZM28 5.00001V7H30V5.00001H28ZM27 2.00001L5 2L5 4L27 4.00001V2.00001ZM30 5.00001C30 3.34316 28.6569 2.00001 27 2.00001V4.00001C27.5523 4.00001 28 4.44773 28 5.00001H30ZM4 5C4 4.44772 4.44772 4 5 4V2C3.34315 2 2 3.34315 2 5H4ZM2 7C2 8.65686 3.34315 10 5 10V8C4.44772 8 4 7.55228 4 7H2ZM27 10C28.6569 10 30 8.65683 30 7H28C28 7.55231 27.5523 8.00004 27 8.00004V10ZM19 14H13V16H19V14Z" fill="black"/>
</svg>
