<svg width="16" height="16" viewBox="0 0 16 16" fill="none" xmlns="http://www.w3.org/2000/svg">
<rect width="16" height="16" fill="white"/>
<path d="M13 14V13V14ZM3 14V15H3L3 14ZM13 2.00002L13 3.00002L13 2.00002ZM3 2L3 3H3L3 2ZM2 3L3 3L2 3ZM2 6.00001H1H2ZM2 13H3H2ZM14 3.00002H13H14ZM14 13H15H14ZM13 13L3 13L3 15L13 15V13ZM13 1.00002L3 1L3 3L13 3.00002L13 1.00002ZM1 3L1 6.00001H3L3 3L1 3ZM1 6.00001L1 13H3L3 6.00001H1ZM13 3.00002V6.00002H15V3.00002H13ZM13 6.00002V13H15V6.00002H13ZM2 7.00001L14 7.00002L14 5.00002L2 5.00001L2 7.00001ZM13 3.00002L13 3.00002H15C15 1.89545 14.1046 1.00002 13 1.00002L13 3.00002ZM3.00001 1C1.89543 0.999995 1 1.89543 1 3L3 3L3 3L3.00001 1ZM3 13V13H1C1 14.1046 1.89543 15 3 15V13ZM13 15C14.1046 15 15 14.1046 15 13H13V13V15Z" fill="black"/>
</svg>
