<svg width="32" height="32" viewBox="0 0 32 32" fill="none" xmlns="http://www.w3.org/2000/svg">
<rect width="32" height="32" fill="white"/>
<path d="M23.8937 12.0057C23.3446 12.0644 22.947 12.5571 23.0057 13.1063C23.0644 13.6554 23.5571 14.053 24.1063 13.9943L23.8937 12.0057ZM30 8C30 7.44772 29.5523 7 29 7C28.4477 7 28 7.44772 28 8H30ZM7.89373 13.9943C8.44289 14.053 8.93565 13.6554 8.99434 13.1063C9.05303 12.5571 8.65543 12.0644 8.10627 12.0057L7.89373 13.9943ZM4 8C4 7.44772 3.55228 7 3 7C2.44772 7 2 7.44772 2 8H4ZM24 24L24.0852 23.0036L24.0427 23H24V24ZM28 28C28 28.5523 28.4477 29 29 29C29.5523 29 30 28.5523 30 28H28ZM8 24V23H7.95733L7.91481 23.0036L8 24ZM2 28C2 28.5523 2.44772 29 3 29C3.55228 29 4 28.5523 4 28H2ZM8 19C8.55228 19 9 18.5523 9 18C9 17.4477 8.55228 17 8 17V19ZM4 17C3.44772 17 3 17.4477 3 18C3 18.5523 3.44772 19 4 19V17ZM24 17C23.4477 17 23 17.4477 23 18C23 18.5523 23.4477 19 24 19V17ZM28 19C28.5523 19 29 18.5523 29 18C29 17.4477 28.5523 17 28 17V19ZM15.0001 22.8572C15.0001 23.4095 15.4478 23.8572 16.0001 23.8572C16.5524 23.8572 17.0001 23.4095 17.0001 22.8572L15.0001 22.8572ZM17.0001 14.2858C17.0001 13.7335 16.5524 13.2858 16.0001 13.2858C15.4478 13.2858 15.0001 13.7335 15.0001 14.2858L17.0001 14.2858ZM19 7V9H21V7H19ZM13 9V7H11V9H13ZM16 4C17.6569 4 19 5.34315 19 7H21C21 4.23858 18.7614 2 16 2V4ZM16 2C13.2386 2 11 4.23858 11 7H13C13 5.34315 14.3431 4 16 4V2ZM24.1063 13.9943C28.3529 13.5405 30 10.0726 30 8H28C28 9.26124 26.927 11.6815 23.8937 12.0057L24.1063 13.9943ZM8.10627 12.0057C5.07302 11.6815 4 9.26124 4 8H2C2 10.0726 3.64714 13.5405 7.89373 13.9943L8.10627 12.0057ZM23.9148 24.9964C27.1167 25.2701 28 27.2618 28 28H30C30 26.0712 28.1631 23.3523 24.0852 23.0036L23.9148 24.9964ZM7.91481 23.0036C3.83691 23.3523 2 26.0712 2 28H4C4 27.2618 4.88325 25.2701 8.08519 24.9964L7.91481 23.0036ZM8 17H4V19H8V17ZM24 19H28V17H24V19ZM12.4799 10H19.5201V8H12.4799V10ZM23 13.4799V21H25V13.4799H23ZM9 21V13.4799H7V21H9ZM19.5201 10C21.442 10 23 11.558 23 13.4799H25C25 10.4535 22.5465 8 19.5201 8V10ZM12.4799 8C9.45345 8 7 10.4535 7 13.4799H9C9 11.558 10.558 10 12.4799 10V8ZM17.0001 22.8572L17.0001 14.2858L15.0001 14.2858L15.0001 22.8572L17.0001 22.8572ZM16 28C13.0639 28 10.5476 26.192 9.50846 23.6248L7.65458 24.3752C8.98896 27.6717 12.2214 30 16 30V28ZM9.50846 23.6248C9.18088 22.8155 9 21.9301 9 21H7C7 22.1917 7.23213 23.3316 7.65458 24.3752L9.50846 23.6248ZM8 25H8.58152V23H8V25ZM23 21C23 21.9301 22.8191 22.8155 22.4915 23.6248L24.3454 24.3752C24.7679 23.3316 25 22.1917 25 21H23ZM22.4915 23.6248C21.4524 26.192 18.9361 28 16 28V30C19.7786 30 23.011 27.6717 24.3454 24.3752L22.4915 23.6248ZM24 23H23.4185V25H24V23Z" fill="black"/>
</svg>
