<svg width="32" height="32" viewBox="0 0 32 32" fill="none" xmlns="http://www.w3.org/2000/svg">
<rect width="32" height="32" fill="white"/>
<path d="M17.0001 14.2858C17.0001 13.7335 16.5524 13.2858 16.0001 13.2858C15.4478 13.2858 15.0001 13.7335 15.0001 14.2858L15.0001 22.8572C15.0001 23.4095 15.4478 23.8572 16.0001 23.8572C16.5524 23.8572 17.0001 23.4095 17.0001 22.8572L17.0001 14.2858Z" fill="black"/>
<path fill-rule="evenodd" clip-rule="evenodd" d="M11 7C11 4.23858 13.2386 2 16 2C18.7614 2 21 4.23858 21 7V8.20217C22.7855 8.7018 24.2027 10.0831 24.7526 11.847C27.1325 11.2051 28 9.13404 28 8C28 7.44772 28.4477 7 29 7C29.5523 7 30 7.44772 30 8C30 9.92042 28.5858 13.0388 25 13.8474V17H28C28.5523 17 29 17.4477 29 18C29 18.5523 28.5523 19 28 19H25V21C25 21.7178 24.916 22.416 24.7572 23.0852C28.3655 23.658 30 26.1805 30 28C30 28.5523 29.5523 29 29 29C28.4477 29 28 28.5523 28 28C28 27.273 27.1434 25.3305 24.0595 25.0101C22.5849 27.968 19.5297 30 16 30C12.4703 30 9.41514 27.968 7.94052 25.0101C4.85656 25.3305 4 27.273 4 28C4 28.5523 3.55228 29 3 29C2.44772 29 2 28.5523 2 28C2 26.1805 3.63454 23.658 7.24279 23.0852C7.08403 22.416 7 21.7178 7 21V19H4C3.44771 19 3 18.5523 3 18C3 17.4477 3.44771 17 4 17H7V13.8474C3.41414 13.0388 2.00001 9.92042 2.00001 8C2.00001 7.44772 2.44772 7 3.00001 7C3.55229 7 4.00001 7.44772 4.00001 8C4.00001 9.13404 4.8675 11.2051 7.24743 11.847C7.79733 10.0831 9.21454 8.7018 11 8.20217V7ZM19 7V8H13V7C13 5.34315 14.3431 4 16 4C17.6569 4 19 5.34315 19 7ZM12.4799 10C10.558 10 9 11.558 9 13.4799V21C9 24.866 12.134 28 16 28C19.866 28 23 24.866 23 21V13.4799C23 11.558 21.442 10 19.5201 10H12.4799Z" fill="black"/>
</svg>
