<svg width="16" height="16" viewBox="0 0 16 16" fill="none" xmlns="http://www.w3.org/2000/svg">
<rect width="16" height="16" fill="white"/>
<path d="M9.00002 7.99998C9.00002 7.4477 8.55231 6.99998 8.00003 6.99997C7.44774 6.99997 7.00002 7.44768 7.00002 7.99996L7 9.99999C6.99999 10.5523 7.44771 11 7.99999 11C8.55227 11 8.99999 10.5523 9 10L9.00002 7.99998Z" fill="black"/>
<path fill-rule="evenodd" clip-rule="evenodd" d="M5.00002 4C5.00002 2.34315 6.34317 1 8.00002 1C9.65688 1 11 2.34315 11 4V4.1754C11.7323 4.43734 12.3337 4.9744 12.6798 5.66204C12.7113 5.6308 12.7397 5.59882 12.7654 5.5667C12.9461 5.34094 13 5.09871 13 5C13 4.44772 13.4478 4 14 4C14.5523 4 15 4.44772 15 5C15 5.90158 14.4127 7.2477 13 7.78473V10C13 10.4017 12.9526 10.7924 12.8632 11.1667C14.3749 11.6665 15 13.0698 15 14C15 14.5523 14.5523 15 14 15C13.4478 15 13 14.5523 13 14C13 13.9013 12.9461 13.6591 12.7654 13.4333C12.619 13.2504 12.385 13.0722 11.9944 13.0079C11.0818 14.2179 9.63227 15 8.00002 15C6.36777 15 4.9182 14.2179 4.00563 13.0079C3.61504 13.0722 3.38108 13.2504 3.23465 13.4333C3.0539 13.6591 3 13.9013 3 14C3 14.5523 2.55228 15 2 15C1.44772 15 1 14.5523 1 14C1 13.0698 1.62519 11.6665 3.13687 11.1667C3.0474 10.7924 3.00002 10.4017 3.00002 10V7.78473C1.58736 7.2477 1 5.90158 1 5C1 4.44772 1.44772 4 2 4C2.55228 4 3 4.44772 3 5C3 5.09871 3.0539 5.34094 3.23465 5.5667C3.26037 5.59882 3.28878 5.6308 3.32027 5.66204C3.66632 4.97439 4.26775 4.43734 5.00002 4.1754V4ZM8.00002 3C8.55231 3 9.00002 3.44772 9.00002 4H7.00002C7.00002 3.44772 7.44774 3 8.00002 3ZM6.016 6C5.45489 6 5.00002 6.45487 5.00002 7.01597V10C5.00002 11.6569 6.34317 13 8.00002 13C9.65688 13 11 11.6569 11 10V7.01597C11 6.45487 10.5452 6 9.98405 6H6.016Z" fill="black"/>
</svg>
