<svg width="32" height="32" viewBox="0 0 32 32" fill="none" xmlns="http://www.w3.org/2000/svg">
<rect width="32" height="32" fill="white"/>
<path d="M3 15C2.44772 15 2 15.4477 2 16C2 16.5523 2.44772 17 3 17V15ZM29 17C29.5523 17 30 16.5523 30 16C30 15.4477 29.5523 15 29 15V17ZM17 9H18C18 8.68389 17.8505 8.3864 17.5969 8.19771C17.3433 8.00901 17.0154 7.95134 16.7127 8.04217L17 9ZM11.7127 9.54217C11.1837 9.70087 10.8835 10.2584 11.0422 10.7873C11.2009 11.3163 11.7584 11.6165 12.2873 11.4578L11.7127 9.54217ZM16 23C16 23.5523 16.4477 24 17 24C17.5523 24 18 23.5523 18 23H16ZM7 4H25V2H7V4ZM28 7V25H30V7H28ZM25 28H7V30H25V28ZM4 25V7H2V25H4ZM7 28C5.34315 28 4 26.6569 4 25H2C2 27.7614 4.23858 30 7 30V28ZM28 25C28 26.6569 26.6569 28 25 28V30C27.7614 30 30 27.7614 30 25H28ZM25 4C26.6569 4 28 5.34315 28 7H30C30 4.23858 27.7614 2 25 2V4ZM7 2C4.23858 2 2 4.23858 2 7H4C4 5.34315 5.34315 4 7 4V2ZM3 17H29V15H3V17ZM16.7127 8.04217L11.7127 9.54217L12.2873 11.4578L17.2873 9.95783L16.7127 8.04217ZM16 9L16 23H18L18 9H16Z" fill="black"/>
</svg>
