<svg width="16" height="16" viewBox="0 0 16 16" fill="none" xmlns="http://www.w3.org/2000/svg">
<rect width="16" height="16" fill="white"/>
<path fill-rule="evenodd" clip-rule="evenodd" d="M15 8L15 3.00002C15 1.89545 14.1046 1.00002 13 1.00002L3 1C1.89543 0.999998 1 1.89543 1 3V13C1 14.1046 1.89543 15 3 15L13 15C14.1046 15 15 14.1046 15 13L15 8ZM13 13V9H10V11C10 11.5523 9.55228 12 9 12C8.44772 12 8 11.5523 8 11V9L3 9L3 13L13 13ZM10 7V5C10 4.44772 9.55228 4 9 4H7C6.44772 4 6 4.44772 6 5C6 5.55228 6.44772 6 7 6H8V7L3 7L3 3L13 3.00002V7H10Z" fill="black"/>
</svg>
