<svg width="32" height="32" viewBox="0 0 32 32" fill="none" xmlns="http://www.w3.org/2000/svg">
<rect width="32" height="32" fill="white"/>
<path d="M12 21H20C20.5523 21 21 20.5523 21 20C21 19.4477 20.5523 19 20 19H12C11.4477 19 11 19.4477 11 20C11 20.5523 11.4477 21 12 21Z" fill="black"/>
<path fill-rule="evenodd" clip-rule="evenodd" d="M11 3C11 2.44772 10.5523 2 10 2C9.44771 2 9 2.44772 9 3V4.00001L7.00001 4.00001C4.23858 4 2 6.23858 2 9.00001V25C2 27.7614 4.23857 30 7 30L25 30C27.7614 30 30 27.7614 30 25V9.00004C30 6.23862 27.7614 4.00005 25 4.00004L23 4.00004V3C23 2.44771 22.5523 2 22 2C21.4477 2 21 2.44772 21 3V4.00004L11 4.00002V3ZM7.00001 6.00001L9 6.00001V7C9 7.55228 9.44771 8 10 8C10.5523 8 11 7.55228 11 7V6.00002L21 6.00004V7C21 7.55229 21.4477 8 22 8C22.5523 8 23 7.55228 23 7V6.00004L25 6.00004C26.6569 6.00005 28 7.34319 28 9.00004V11L4 11L4 9.00001C4 7.34315 5.34315 6 7.00001 6.00001ZM4 13L28 13V25C28 26.6569 26.6569 28 25 28L7 28C5.34314 28 4 26.6569 4 25L4 13Z" fill="black"/>
</svg>
