<svg width="32" height="32" viewBox="0 0 32 32" fill="none" xmlns="http://www.w3.org/2000/svg">
<rect width="32" height="32" fill="white"/>
<path d="M3 9.00001H4H3ZM3 25H2H3ZM25 29V28V29ZM7 29V30V29ZM29 9.00004H28H29ZM29 25H30H29ZM25 5.00004L25 6.00004L25 5.00004ZM7.00001 5.00001L7.00001 4.00001L7.00001 5.00001ZM29 13C29.5523 13 30 12.5523 30 12C30 11.4477 29.5523 11 29 11V13ZM3 11C2.44772 11 2 11.4477 2 12C2 12.5523 2.44772 13 3 13V11ZM9 7C9 7.55228 9.44771 8 10 8C10.5523 8 11 7.55228 11 7H9ZM11 3C11 2.44772 10.5523 2 10 2C9.44771 2 9 2.44772 9 3H11ZM21 7C21 7.55229 21.4477 8 22 8C22.5523 8 23 7.55228 23 7L21 7ZM23 3C23 2.44771 22.5523 2 22 2C21.4477 2 21 2.44772 21 3L23 3ZM9 17C8.44771 17 8 17.4477 8 18C8 18.5523 8.44771 19 9 19V17ZM11 19C11.5523 19 12 18.5523 12 18C12 17.4477 11.5523 17 11 17V19ZM15 17C14.4477 17 14 17.4477 14 18C14 18.5523 14.4477 19 15 19V17ZM17 19C17.5523 19 18 18.5523 18 18C18 17.4477 17.5523 17 17 17V19ZM21 17C20.4477 17 20 17.4477 20 18C20 18.5523 20.4477 19 21 19V17ZM23 19C23.5523 19 24 18.5523 24 18C24 17.4477 23.5523 17 23 17V19ZM9 22C8.44771 22 8 22.4477 8 23C8 23.5523 8.44771 24 9 24V22ZM11 24C11.5523 24 12 23.5523 12 23C12 22.4477 11.5523 22 11 22V24ZM15 22C14.4477 22 14 22.4477 14 23C14 23.5523 14.4477 24 15 24V22ZM17 24C17.5523 24 18 23.5523 18 23C18 22.4477 17.5523 22 17 22V24ZM21 22C20.4477 22 20 22.4477 20 23C20 23.5523 20.4477 24 21 24V22ZM23 24C23.5523 24 24 23.5523 24 23C24 22.4477 23.5523 22 23 22V24ZM2 9.00001L2 25H4L4 9.00001H2ZM25 28L7 28V30L25 30V28ZM28 9.00004V25H30V9.00004H28ZM25 4.00004L7.00001 4.00001L7.00001 6.00001L25 6.00004L25 4.00004ZM30 9.00004C30 6.23862 27.7614 4.00005 25 4.00004L25 6.00004C26.6569 6.00005 28 7.34319 28 9.00004H30ZM4 9.00001C4 7.34315 5.34315 6 7.00001 6.00001L7.00001 4.00001C4.23858 4 2 6.23858 2 9.00001H4ZM2 25C2 27.7614 4.23857 30 7 30V28C5.34314 28 4 26.6569 4 25H2ZM25 30C27.7614 30 30 27.7614 30 25H28C28 26.6569 26.6569 28 25 28V30ZM29 11H3V13H29V11ZM11 7V3H9V7H11ZM23 7L23 3L21 3L21 7L23 7ZM9 19H11V17H9V19ZM15 19H17V17H15V19ZM21 19H23V17H21V19ZM9 24H11V22H9V24ZM15 24H17V22H15V24ZM21 24H23V22H21V24Z" fill="black"/>
</svg>
