<svg width="32" height="32" viewBox="0 0 32 32" fill="none" xmlns="http://www.w3.org/2000/svg">
<rect width="32" height="32" fill="white"/>
<path d="M14.0355 6.91421L9.82841 2.70711C9.43789 2.31658 8.78923 2.33207 8.37961 2.74169L5.45011 5.67119C1.74169 9.37961 7.34076 16.4621 11.5711 20.6924C15.7761 24.8974 22.9194 30.5573 26.6278 26.8489L29.5573 23.9194C29.9669 23.5097 29.9824 22.8611 29.5919 22.4706L25.3848 18.2635C24.9942 17.8729 24.3456 17.8884 23.936 18.2981L21.0065 21.2275C21.0065 21.2275 19.595 21.2248 15.2973 17.0017C10.9996 12.7786 11.0715 11.2925 11.0715 11.2925L14.0009 8.36301C14.4106 7.95339 14.426 7.30474 14.0355 6.91421Z" stroke="black" stroke-width="2" stroke-linecap="round" stroke-linejoin="round"/>
</svg>
