<svg width="16" height="16" viewBox="0 0 16 16" fill="none" xmlns="http://www.w3.org/2000/svg">
<rect width="16" height="16" fill="white"/>
<path fill-rule="evenodd" clip-rule="evenodd" d="M11.7961 13.5394C12.1641 13.5613 12.4184 13.4681 12.6307 13.2557L13.691 12.1954L12.3955 10.9L11.5661 11.7131C11.2512 12.0217 10.7713 12.0877 10.3848 11.8755C9.64783 11.4709 8.51436 10.4645 7.54859 9.49268C7.04855 8.98951 6.56219 8.4639 6.15713 7.98061C5.76622 7.51419 5.40374 7.03195 5.19773 6.62668C5.00158 6.2408 5.07597 5.77252 5.38206 5.46643C5.6036 5.24489 5.87498 4.98921 6.09968 4.77942C6.1313 4.7499 6.16157 4.72168 6.1904 4.69482L4.90979 3.41421L3.8495 4.4745C3.6347 4.6893 3.54147 4.94429 3.56171 5.30866C3.58396 5.70924 3.74758 6.21986 4.06606 6.8205C4.70187 8.01963 5.8025 9.29808 6.79627 10.2918C7.78361 11.2792 9.06693 12.3848 10.273 13.0268C10.8773 13.3485 11.3921 13.5153 11.7961 13.5394ZM9.33328 14.7923C7.86745 14.012 6.4191 12.7431 5.38206 11.7061C4.33926 10.6633 3.07384 9.21859 2.29908 7.75741C1.91227 7.0279 1.60947 6.22406 1.56479 5.41957C1.51809 4.57886 1.75743 3.73815 2.43528 3.06029L3.84561 1.64996C4.40114 1.09443 5.34734 1.02333 5.95731 1.63331L7.98271 3.65871C8.59268 4.26868 8.5216 5.21488 7.96607 5.77041C7.90645 5.83003 7.77319 5.954 7.62398 6.09281C7.57196 6.14121 7.518 6.19141 7.46454 6.24132C7.43801 6.26609 7.41113 6.29122 7.38403 6.31661C7.473 6.43197 7.575 6.55875 7.68996 6.69591C8.05116 7.12688 8.49771 7.61045 8.9672 8.08288C9.62046 8.74022 10.2642 9.32146 10.7544 9.70812L11.3393 9.13473C11.8954 8.58326 12.8382 8.51416 13.4465 9.12251L15.4719 11.1479C16.0819 11.7579 16.0108 12.7041 15.4553 13.2596L14.0449 14.6699C13.3646 15.3502 12.5195 15.586 11.6773 15.5358C10.8711 15.4878 10.0649 15.1817 9.33328 14.7923Z" fill="black"/>
</svg>
