<svg width="16" height="16" viewBox="0 0 16 16" fill="none" xmlns="http://www.w3.org/2000/svg">
<rect width="16" height="16" fill="white"/>
<path d="M2 4H3H2ZM2 12H1H2ZM13 13V14H13L13 13ZM3 13L3 14H3L3 13ZM14 4.00002H13H14ZM14 12H15H14ZM13 3.00002L13 4.00002L13 3.00002ZM3 3L3 2H3V3ZM2 6C1.44772 6 1 6.44772 1 7C1 7.55229 1.44772 8 2 8V6ZM14 8C14.5523 8 15 7.55229 15 7C15 6.44772 14.5523 6 14 6V8ZM1 4L1 12H3L3 4H1ZM13 12L3 12L3 14L13 14V12ZM13 4.00002V12H15V4.00002H13ZM13 2.00002L3 2L3 4L13 4.00002L13 2.00002ZM15 4.00002C15 2.89545 14.1046 2.00002 13 2.00002L13 4.00002L13 4.00002H15ZM3 4L3 4V2C1.89543 2 1 2.89543 1 4H3ZM1 12C1 13.1046 1.89543 14 3 14L3 12H1ZM13 14C14.1046 14 15 13.1046 15 12H13L13 12L13 14ZM2 8H14V6H2V8Z" fill="black"/>
</svg>
