<svg width="32" height="32" viewBox="0 0 32 32" fill="none" xmlns="http://www.w3.org/2000/svg">
<rect width="32" height="32" fill="white"/>
<path fill-rule="evenodd" clip-rule="evenodd" d="M30 9.00003L30 23C30 25.7614 27.7614 28 25 28L7 28C4.23857 28 2 25.7614 2 23V9C2 6.23857 4.23858 3.99999 7.00001 4L25 4.00003C27.7614 4.00004 30 6.23861 30 9.00003ZM28 16V12H4V16H28ZM28 18H4L4 23C4 24.6568 5.34314 26 7 26L25 26C26.6569 26 28 24.6568 28 23V18ZM28 9.00003L28 10H4L4 9C4 7.34314 5.34315 6 7.00001 6L25 6.00003C26.6569 6.00004 28 7.34318 28 9.00003Z" fill="black"/>
</svg>
