<svg width="32" height="32" viewBox="0 0 32 32" fill="none" xmlns="http://www.w3.org/2000/svg">
<rect width="32" height="32" fill="white"/>
<path d="M3 9H4H3ZM25 27V28V27ZM7 27V28V27ZM29 9.00003H28H29ZM29 23H30H29ZM25 5.00003L25 6.00003L25 5.00003ZM7.00001 5L7.00001 4L7.00001 5ZM3 9.99999C2.44772 9.99999 2 10.4477 2 11C2 11.5523 2.44772 12 3 12V9.99999ZM29 12C29.5523 12 30 11.5523 30 11C30 10.4477 29.5523 9.99999 29 9.99999V12ZM3 16C2.44772 16 2 16.4477 2 17C2 17.5523 2.44772 18 3 18V16ZM29 18C29.5523 18 30 17.5523 30 17C30 16.4477 29.5523 16 29 16V18ZM2 9L2 23H4L4 9H2ZM25 26H7V28H25V26ZM28 9.00003V23H30V9.00003H28ZM25 4.00003L7.00001 4L7.00001 6L25 6.00003L25 4.00003ZM30 9.00003C30 6.23861 27.7614 4.00004 25 4.00003L25 6.00003C26.6569 6.00004 28 7.34318 28 9.00003H30ZM4 9C4 7.34314 5.34315 6 7.00001 6L7.00001 4C4.23858 3.99999 2 6.23857 2 9H4ZM2 23C2 25.7614 4.23858 28 7 28V26C5.34315 26 4 24.6568 4 23H2ZM25 28C27.7614 28 30 25.7614 30 23H28C28 24.6568 26.6569 26 25 26V28ZM3 12H29V9.99999H3V12ZM3 18H29V16H3V18Z" fill="black"/>
</svg>
