<svg width="32" height="32" viewBox="0 0 32 32" fill="none" xmlns="http://www.w3.org/2000/svg">
<rect width="32" height="32" fill="white"/>
<path fill-rule="evenodd" clip-rule="evenodd" d="M3.83203 2.44531C3.52568 1.98579 2.90481 1.86161 2.44528 2.16796C1.98576 2.47432 1.86158 3.09519 2.16793 3.55471L4.07631 6.41728L6.96708 17.2577C7.71283 20.0542 10.2455 22 13.1398 22H26C26.5523 22 27 21.5523 27 21C27 20.4477 26.5523 20 26 20H13.1398C11.5655 20 10.1469 19.1619 9.3702 17.8593L26.2743 16.143C27.5764 16.0108 28.6426 15.0496 28.9086 13.7681L29.9795 8.60982C30.3661 6.74745 28.9442 5.00001 27.0421 5.00001H5.53517L3.83203 2.44531ZM8.68001 15.9191L6.3016 7.00001H27.0421C27.6762 7.00001 28.1501 7.58249 28.0213 8.20328L26.9504 13.3616C26.8617 13.7887 26.5063 14.1091 26.0723 14.1532L8.68001 15.9191Z" fill="black"/>
<path fill-rule="evenodd" clip-rule="evenodd" d="M8 27C8 25.3431 9.34315 24 11 24C12.6569 24 14 25.3431 14 27C14 28.6569 12.6569 30 11 30C9.34315 30 8 28.6569 8 27ZM11 26C10.4477 26 10 26.4477 10 27C10 27.5523 10.4477 28 11 28C11.5523 28 12 27.5523 12 27C12 26.4477 11.5523 26 11 26Z" fill="black"/>
<path fill-rule="evenodd" clip-rule="evenodd" d="M21 27C21 25.3431 22.3431 24 24 24C25.6569 24 27 25.3431 27 27C27 28.6569 25.6569 30 24 30C22.3431 30 21 28.6569 21 27ZM24 26C23.4477 26 23 26.4477 23 27C23 27.5523 23.4477 28 24 28C24.5523 28 25 27.5523 25 27C25 26.4477 24.5523 26 24 26Z" fill="black"/>
</svg>
