<svg width="16" height="16" viewBox="0 0 16 16" fill="none" xmlns="http://www.w3.org/2000/svg">
<rect width="16" height="16" fill="white"/>
<path d="M12.0805 6.46512L12.8419 5.8169L12.8369 5.81097L12.8317 5.80512L12.0805 6.46512ZM12.9579 7.46352L12.217 8.1351L12.217 8.1351L12.9579 7.46352ZM10.2076 10.3077V9.30769H10.1539L10.1005 9.31343L10.2076 10.3077ZM9.38194 12.1818L10.3547 11.9501V11.9501L9.38194 12.1818ZM8.99388 14.4587C9.2472 14.9494 9.8504 15.1419 10.3412 14.8886C10.8319 14.6353 11.0244 14.0321 10.7711 13.5413L8.99388 14.4587ZM8.506 4.62434L7.55097 4.92085L7.70474 5.41611L8.19812 5.57577L8.506 4.62434ZM8.25572 2H9.25572C9.25572 1.6611 9.08407 1.34527 8.79971 1.16091C8.51535 0.976554 8.15696 0.948763 7.84758 1.08708L8.25572 2ZM2.00326 12.3435C1.9587 12.894 2.36883 13.3764 2.91932 13.4209C3.4698 13.4655 3.95218 13.0554 3.99674 12.5049L2.00326 12.3435ZM13.0708 9.5755L13.8387 10.2161L13.0708 9.5755ZM10.3283 11.3039C10.8785 11.2561 11.2858 10.7713 11.238 10.2211C11.1902 9.6709 10.7054 9.26362 10.1552 9.31142L10.3283 11.3039ZM8.33004 8.87009C8.04589 8.39651 7.43163 8.24295 6.95805 8.52709C6.48447 8.81124 6.3309 9.4255 6.61505 9.89908L8.33004 8.87009ZM12.0805 6.46512C11.319 7.11333 11.319 7.11335 11.319 7.11336C11.3191 7.11337 11.3191 7.11339 11.3191 7.1134C11.3191 7.11343 11.3191 7.11347 11.3192 7.11352C11.3193 7.11361 11.3194 7.11373 11.3195 7.11389C11.3198 7.11419 11.3201 7.11462 11.3206 7.11517C11.3215 7.11626 11.3228 7.11782 11.3246 7.11984C11.328 7.12389 11.333 7.12978 11.3395 7.13738C11.3525 7.15257 11.3714 7.17464 11.3955 7.20259C11.4435 7.25848 11.5121 7.33802 11.595 7.43335C11.7604 7.62355 11.9846 7.87869 12.217 8.1351L13.6988 6.79194C13.4788 6.54919 13.2643 6.30512 13.1041 6.12091C13.0242 6.02904 12.9583 5.95257 12.9125 5.89925C12.8896 5.8726 12.8717 5.85176 12.8597 5.83771C12.8537 5.83068 12.8491 5.82535 12.8461 5.82184C12.8447 5.82009 12.8435 5.81879 12.8428 5.81796C12.8425 5.81755 12.8422 5.81725 12.8421 5.81707C12.842 5.81698 12.842 5.81692 12.8419 5.8169C12.8419 5.81688 12.8419 5.81687 12.8419 5.81688C12.8419 5.81688 12.8419 5.81688 12.8419 5.81688C12.8419 5.81689 12.8419 5.8169 12.0805 6.46512ZM11.5065 9.30769H10.2076V11.3077H11.5065V9.30769ZM10.1005 9.31343C9.04223 9.42734 7.98954 10.6522 8.40916 12.4136L10.3547 11.9501C10.2596 11.5508 10.3504 11.3778 10.3821 11.3286C10.4046 11.2936 10.4262 11.2767 10.4333 11.2719C10.4503 11.2605 10.4161 11.291 10.3146 11.302L10.1005 9.31343ZM8.40916 12.4136C8.56165 13.0536 8.68021 13.5035 8.76804 13.8093C8.84292 14.0701 8.9187 14.313 8.99388 14.4587L10.7711 13.5413C10.8002 13.5977 10.8037 13.6207 10.777 13.541C10.7576 13.4833 10.7289 13.3916 10.6903 13.2573C10.6134 12.9894 10.5026 12.5706 10.3547 11.9501L8.40916 12.4136ZM8.19812 5.57577C8.59642 5.70465 8.94472 5.77856 9.22538 5.8389C9.5171 5.90162 9.71697 5.94631 9.91208 6.01644C10.2476 6.13703 10.6631 6.36691 11.3292 7.12512L12.8317 5.80512C12.007 4.86634 11.3236 4.39854 10.5886 4.13435C10.2485 4.01209 9.92035 3.94261 9.64575 3.88358C9.36011 3.82217 9.10383 3.76674 8.81388 3.67291L8.19812 5.57577ZM7.25572 2C7.25572 2.93695 7.24762 3.9438 7.55097 4.92085L9.46103 4.32783C9.26381 3.69259 9.25572 3.00245 9.25572 2H7.25572ZM3.99674 12.5049C4.11429 11.0528 4.64392 8.89231 5.50967 6.93929C5.94046 5.96748 6.44132 5.07728 6.99244 4.36438C7.5487 3.64483 8.11593 3.15788 8.66385 2.91292L7.84758 1.08708C6.89136 1.51458 6.08147 2.27274 5.41013 3.14115C4.73366 4.01619 4.15646 5.05679 3.68126 6.12878C2.73504 8.26335 2.14095 10.6425 2.00326 12.3435L3.99674 12.5049ZM12.3029 8.93494C12.1058 9.17114 11.8141 9.30769 11.5065 9.30769V11.3077C12.4073 11.3077 13.2617 10.9078 13.8387 10.2161L12.3029 8.93494ZM12.217 8.1351C12.1791 8.09331 12.2017 8.09983 12.2364 8.21054C12.2668 8.30751 12.291 8.43594 12.2996 8.57552C12.3083 8.71597 12.2995 8.83795 12.2824 8.92362C12.2623 9.02452 12.246 9.00306 12.3029 8.93494L13.8387 10.2161C14.0799 9.92684 14.1901 9.58417 14.2439 9.31428C14.3007 9.02917 14.3131 8.73079 14.2958 8.45186C14.2784 8.17205 14.2294 7.88207 14.1448 7.61213C14.0644 7.35593 13.9301 7.04706 13.6988 6.79194L12.217 8.1351ZM10.1552 9.31142C9.62938 9.3571 9.27341 9.39165 8.95683 9.32879C8.71666 9.28109 8.51622 9.1804 8.33004 8.87009L6.61505 9.89908C7.12118 10.7426 7.83241 11.1446 8.5673 11.2905C9.22578 11.4212 9.90827 11.3404 10.3283 11.3039L10.1552 9.31142Z" fill="black"/>
</svg>
