<svg width="32" height="32" viewBox="0 0 32 32" fill="none" xmlns="http://www.w3.org/2000/svg">
<rect width="32" height="32" fill="white"/>
<path d="M24.6374 12.6744L25.3834 12.0084L25.3781 12.0025L25.3728 11.9968L24.6374 12.6744ZM27.341 15.5717L28.0533 14.8698L28.0533 14.8698L27.341 15.5717ZM27.5488 18.6585L26.7962 18L27.5488 18.6585ZM26.3964 19.9755L27.149 20.634L27.149 20.634L26.3964 19.9755ZM20.3808 21V20H20.3296L20.2787 20.0052L20.3808 21ZM18.7626 29.4761C19.0256 29.9618 19.6325 30.1423 20.1181 29.8794C20.6038 29.6164 20.7843 29.0095 20.5214 28.5239L18.7626 29.4761ZM16.5136 8.68607L15.5628 8.99573L15.7234 9.48878L16.2189 9.64163L16.5136 8.68607ZM15.9448 3H16.9448C16.9448 2.66421 16.7763 2.35084 16.4961 2.16571C16.216 1.98058 15.8616 1.94841 15.5527 2.08007L15.9448 3ZM3.00359 25.5011C2.95686 26.0515 3.36509 26.5354 3.91539 26.5822C4.4657 26.6289 4.94969 26.2207 4.99641 25.6704L3.00359 25.5011ZM20.0866 21.9962C20.6368 21.9484 21.044 21.4636 20.9962 20.9134C20.9484 20.3632 20.4637 19.9559 19.9134 20.0037L20.0866 21.9962ZM14.8575 18.4854C14.5733 18.0119 13.9591 17.8583 13.4855 18.1424C13.0119 18.4266 12.8584 19.0409 13.1425 19.5144L14.8575 18.4854ZM24.6374 12.6744C23.8915 13.3405 23.8916 13.3405 23.8916 13.3405C23.8916 13.3405 23.8916 13.3406 23.8917 13.3406C23.8917 13.3407 23.8918 13.3408 23.8919 13.3409C23.8921 13.3411 23.8924 13.3415 23.8928 13.3419C23.8936 13.3428 23.8947 13.344 23.8962 13.3457C23.8991 13.349 23.9035 13.3538 23.9091 13.3601C23.9204 13.3728 23.9371 13.3913 23.9586 13.4153C24.0016 13.4632 24.0643 13.5329 24.1433 13.6203C24.3012 13.7951 24.5247 14.0413 24.7872 14.3271C25.311 14.8972 25.9959 15.6314 26.6287 16.2735L28.0533 14.8698C27.4446 14.252 26.7777 13.5375 26.2601 12.974C26.002 12.693 25.7823 12.4511 25.6273 12.2796C25.5498 12.1938 25.4886 12.1257 25.4468 12.0792C25.4259 12.0559 25.4099 12.0381 25.3992 12.0261C25.3939 12.0201 25.3898 12.0156 25.3872 12.0126C25.3858 12.0111 25.3848 12.01 25.3842 12.0093C25.3839 12.009 25.3837 12.0087 25.3835 12.0085C25.3834 12.0085 25.3834 12.0084 25.3834 12.0084C25.3834 12.0084 25.3833 12.0084 25.3833 12.0084C25.3833 12.0084 25.3834 12.0084 24.6374 12.6744ZM26.7962 18L25.6438 19.317L27.149 20.634L28.3014 19.317L26.7962 18ZM24.1387 20H20.3808V22H24.1387V20ZM20.2787 20.0052C18.7843 20.1586 16.7129 22.0162 17.5342 25.303L19.4746 24.8181C18.9308 22.6423 20.2709 22.0165 20.4829 21.9948L20.2787 20.0052ZM17.5342 25.303C17.8781 26.6788 18.143 27.6361 18.3361 28.2773C18.5154 28.8724 18.6569 29.2809 18.7626 29.4761L20.5214 28.5239C20.5323 28.544 20.4463 28.3485 20.2511 27.7005C20.0698 27.0986 19.8133 26.1736 19.4746 24.8181L17.5342 25.303ZM16.2189 9.64163C17.0532 9.89902 17.7844 10.0476 18.4255 10.179C19.0774 10.3126 19.6157 10.4249 20.1539 10.6093C21.1761 10.9597 22.2908 11.6036 23.9021 13.3521L25.3728 11.9968C23.5959 10.0685 22.2128 9.20076 20.8023 8.71736C20.1241 8.48495 19.4622 8.34989 18.8271 8.21971C18.1811 8.08731 17.5383 7.95567 16.8084 7.73051L16.2189 9.64163ZM14.9448 3C14.9448 5.0671 14.936 7.07114 15.5628 8.99573L17.4645 8.37641C16.9536 6.8077 16.9448 5.13495 16.9448 3H14.9448ZM4.99641 25.6704C5.27537 22.385 6.51696 17.5807 8.53283 13.2454C10.5713 8.86143 13.2784 5.22346 16.3369 3.91993L15.5527 2.08007C11.7742 3.69051 8.79896 7.92957 6.7193 12.4021C4.61704 16.9232 3.30471 21.9548 3.00359 25.5011L4.99641 25.6704ZM25.6439 19.317C25.2641 19.751 24.7154 20 24.1387 20V22C25.2921 22 26.3894 21.5021 27.149 20.634L25.6439 19.317ZM26.6287 16.2735C26.6271 16.272 26.6447 16.29 26.673 16.3407C26.7005 16.39 26.7315 16.4583 26.7617 16.5462C26.8228 16.7241 26.8682 16.9456 26.8861 17.1789C26.9042 17.4131 26.8922 17.628 26.8591 17.7941C26.8231 17.9747 26.7783 18.0205 26.7962 18L28.3014 19.317C28.6022 18.9732 28.7482 18.548 28.8206 18.1848C28.8958 17.8072 28.9095 17.4055 28.8802 17.0254C28.8509 16.6442 28.7759 16.2535 28.6531 15.8962C28.5349 15.5521 28.3485 15.1693 28.0533 14.8698L26.6287 16.2735ZM19.9134 20.0037C18.8358 20.0973 17.8741 20.1992 16.9887 20.0234C16.1798 19.8627 15.4475 19.4688 14.8575 18.4854L13.1425 19.5144C14.0525 21.0311 15.2955 21.7262 16.5992 21.9851C17.8265 22.2288 19.1147 22.0806 20.0866 21.9962L19.9134 20.0037Z" fill="black"/>
</svg>
