<svg width="32" height="32" viewBox="0 0 32 32" fill="none" xmlns="http://www.w3.org/2000/svg">
<rect width="32" height="32" fill="white"/>
<path d="M5 5C4.44772 5 4 4.55228 4 4C4 3.44772 4.44772 3 5 3H27C27.5523 3 28 3.44772 28 4C28 4.55228 27.5523 5 27 5H5Z" fill="black"/>
<path d="M5 21C4.44772 21 4 20.5523 4 20C4 19.4477 4.44772 19 5 19H27C27.5523 19 28 19.4477 28 20C28 20.5523 27.5523 21 27 21H5Z" fill="black"/>
<path d="M10 28C10 28.5523 10.4477 29 11 29H22C22.5523 29 23 28.5523 23 28C23 27.4477 22.5523 27 22 27H11C10.4477 27 10 27.4477 10 28Z" fill="black"/>
<path d="M11 13C10.4477 13 10 12.5523 10 12C10 11.4477 10.4477 11 11 11H22C22.5523 11 23 11.4477 23 12C23 12.5523 22.5523 13 22 13H11Z" fill="black"/>
</svg>
