<svg width="16" height="16" viewBox="0 0 16 16" fill="none" xmlns="http://www.w3.org/2000/svg">
<rect width="16" height="16" fill="white"/>
<path d="M2 3C1.44772 3 1 2.55228 1 2C1 1.44772 1.44772 1 2 1H14C14.5523 1 15 1.44772 15 2C15 2.55228 14.5523 3 14 3H2Z" fill="black"/>
<path d="M5 7C4.44772 7 4 6.55228 4 6C4 5.44772 4.44772 5 5 5H11C11.5523 5 12 5.44772 12 6C12 6.55228 11.5523 7 11 7H5Z" fill="black"/>
<path d="M1 10C1 10.5523 1.44772 11 2 11H14C14.5523 11 15 10.5523 15 10C15 9.44771 14.5523 9 14 9H2C1.44772 9 1 9.44771 1 10Z" fill="black"/>
<path d="M5 15C4.44772 15 4 14.5523 4 14C4 13.4477 4.44772 13 5 13H11C11.5523 13 12 13.4477 12 14C12 14.5523 11.5523 15 11 15H5Z" fill="black"/>
</svg>
