<svg width="16" height="16" viewBox="0 0 16 16" fill="none" xmlns="http://www.w3.org/2000/svg">
<rect width="16" height="16" fill="white"/>
<path d="M7.5 9.5L6.79289 10.2071C7.18342 10.5976 7.81658 10.5976 8.20711 10.2071L7.5 9.5ZM6.70711 7.29289C6.31658 6.90237 5.68342 6.90237 5.29289 7.29289C4.90237 7.68342 4.90237 8.31658 5.29289 8.70711L6.70711 7.29289ZM11.2071 7.20711C11.5976 6.81658 11.5976 6.18342 11.2071 5.79289C10.8166 5.40237 10.1834 5.40237 9.79289 5.79289L11.2071 7.20711ZM8.20711 8.79289L6.70711 7.29289L5.29289 8.70711L6.79289 10.2071L8.20711 8.79289ZM13 8C13 10.7614 10.7614 13 8 13V15C11.866 15 15 11.866 15 8H13ZM8 13C5.23858 13 3 10.7614 3 8H1C1 11.866 4.13401 15 8 15V13ZM3 8C3 5.23858 5.23858 3 8 3V1C4.13401 1 1 4.13401 1 8H3ZM8 3C10.7614 3 13 5.23858 13 8H15C15 4.13401 11.866 1 8 1V3ZM8.20711 10.2071L11.2071 7.20711L9.79289 5.79289L6.79289 8.79289L8.20711 10.2071Z" fill="black"/>
</svg>
