<svg width="16" height="16" viewBox="0 0 16 16" fill="none" xmlns="http://www.w3.org/2000/svg">
<rect width="16" height="16" fill="white"/>
<path fill-rule="evenodd" clip-rule="evenodd" d="M8 3C5.23858 3 3 5.23858 3 8C3 10.7614 5.23858 13 8 13C10.7614 13 13 10.7614 13 8C13 5.23858 10.7614 3 8 3ZM1 8C1 4.13401 4.13401 1 8 1C11.866 1 15 4.13401 15 8C15 11.866 11.866 15 8 15C4.13401 15 1 11.866 1 8ZM11.2071 5.79289C11.5976 6.18342 11.5976 6.81658 11.2071 7.20711L8.20711 10.2071C7.81658 10.5976 7.18342 10.5976 6.79289 10.2071L5.29289 8.70711C4.90237 8.31658 4.90237 7.68342 5.29289 7.29289C5.68342 6.90237 6.31658 6.90237 6.70711 7.29289L7.5 8.08579L9.79289 5.79289C10.1834 5.40237 10.8166 5.40237 11.2071 5.79289Z" fill="black"/>
</svg>
