<svg width="16" height="16" viewBox="0 0 16 16" fill="none" xmlns="http://www.w3.org/2000/svg">
<rect width="16" height="16" transform="matrix(1 0 0 -1 0 16)" fill="white"/>
<path d="M14.6402 13.2318L8.64021 8.23178C8.26937 7.92274 7.73069 7.92274 7.35984 8.23178L1.35984 13.2318C0.935564 13.5853 0.87824 14.2159 1.2318 14.6402C1.58537 15.0645 2.21593 15.1218 2.64021 14.7682L8.00003 10.3017L13.3598 14.7682C13.7841 15.1218 14.4147 15.0645 14.7682 14.6402C15.1218 14.2159 15.0645 13.5853 14.6402 13.2318Z" fill="black"/>
<path d="M14.6402 7.23178L8.64021 2.23178C8.26937 1.92274 7.73069 1.92274 7.35984 2.23178L1.35984 7.23178C0.935564 7.58534 0.87824 8.21591 1.2318 8.64018C1.58537 9.06446 2.21593 9.12178 2.64021 8.76822L8.00003 4.30171L13.3598 8.76822C13.7841 9.12178 14.4147 9.06446 14.7682 8.64018C15.1218 8.21591 15.0645 7.58534 14.6402 7.23178Z" fill="black"/>
</svg>
