<svg width="16" height="16" viewBox="0 0 16 16" fill="none" xmlns="http://www.w3.org/2000/svg">
<rect width="16" height="16" transform="matrix(1 0 0 -1 0 16)" fill="white"/>
<path d="M8.64021 14.7682C8.26936 15.0773 7.73069 15.0773 7.35984 14.7682L1.35984 9.76825C0.935564 9.41468 0.87824 8.78412 1.2318 8.35984C1.58537 7.93556 2.21593 7.87824 2.64021 8.2318L8.00003 12.6983L13.3598 8.2318C13.7841 7.87824 14.4147 7.93556 14.7682 8.35984C15.1218 8.78412 15.0645 9.41468 14.6402 9.76825L8.64021 14.7682Z" fill="black"/>
<path d="M14.6402 3.76825L8.64021 8.76825C8.26936 9.07728 7.73069 9.07728 7.35984 8.76825L1.35984 3.76825C0.935564 3.41468 0.87824 2.78412 1.2318 2.35984C1.58537 1.93556 2.21593 1.87824 2.64021 2.2318L8.00003 6.69832L13.3598 2.2318C13.7841 1.87824 14.4147 1.93556 14.7682 2.35984C15.1218 2.78412 15.0645 3.41468 14.6402 3.76825Z" fill="black"/>
</svg>
