<svg width="16" height="16" viewBox="0 0 16 16" fill="none" xmlns="http://www.w3.org/2000/svg">
<rect width="16" height="16" fill="white"/>
<path d="M13.5 3C14.0523 3 14.5 2.55228 14.5 2C14.5 1.44772 14.0523 1 13.5 1H3C2.44771 1 2 1.44772 2 2C2 2.55228 2.44771 3 3 3H7.75489L6.61619 6.28473L3.67829 3.57282C3.27246 3.19822 2.63981 3.22352 2.2652 3.62934C1.8906 4.03516 1.9159 4.66782 2.32172 5.04243L5.90137 8.34671L4.05514 13.6724C3.87424 14.1942 4.15061 14.7639 4.67243 14.9448C5.19425 15.1256 5.76391 14.8493 5.94481 14.3275L7.50498 9.82697L10.3217 12.427C10.7275 12.8016 11.3602 12.7763 11.7348 12.3705C12.1094 11.9647 12.0841 11.332 11.6783 10.9574L8.2198 7.76499L9.87166 3H13.5Z" fill="black"/>
</svg>
