<svg width="32" height="32" viewBox="0 0 32 32" fill="none" xmlns="http://www.w3.org/2000/svg">
<rect width="32" height="32" fill="white"/>
<path d="M27 4C27.5523 4 28 3.55228 28 3C28 2.44772 27.5523 2 27 2H6C5.44772 2 5 2.44772 5 3C5 3.55228 5.44772 4 6 4H16.95L14.5476 11.5077C14.3792 12.0338 14.6692 12.5966 15.1952 12.7649C15.7212 12.9333 16.2841 12.6433 16.4524 12.1173L18.9524 4.3048C18.9848 4.20354 19.0002 4.10091 19.0002 4H27Z" fill="black"/>
<path d="M12.8048 20.2351C12.2787 20.0668 11.7159 20.3567 11.5476 20.8827L9.04755 28.6952C8.87923 29.2213 9.16919 29.7841 9.6952 29.9524C10.2212 30.1208 10.7841 29.8308 10.9524 29.3048L13.4524 21.4923C13.6207 20.9663 13.3308 20.4034 12.8048 20.2351Z" fill="black"/>
<path d="M5.29289 7.29289C5.68342 6.90237 6.31658 6.90237 6.70711 7.29289L22.7071 23.2929C23.0976 23.6834 23.0976 24.3166 22.7071 24.7071C22.3166 25.0976 21.6834 25.0976 21.2929 24.7071L5.29289 8.70711C4.90237 8.31658 4.90237 7.68342 5.29289 7.29289Z" fill="black"/>
</svg>
