<svg width="32" height="32" viewBox="0 0 32 32" fill="none" xmlns="http://www.w3.org/2000/svg">
<rect width="32" height="32" fill="white"/>
<path d="M10 17C10 16.4477 10.4477 16 11 16H19C19.5523 16 20 16.4477 20 17C20 17.5523 19.5523 18 19 18H11C10.4477 18 10 17.5523 10 17Z" fill="black"/>
<path d="M11 21C10.4477 21 10 21.4477 10 22C10 22.5523 10.4477 23 11 23H15C15.5523 23 16 22.5523 16 22C16 21.4477 15.5523 21 15 21H11Z" fill="black"/>
<path fill-rule="evenodd" clip-rule="evenodd" d="M16 2C14.863 2 13.8753 2.63288 13.3673 3.56085C13.2719 3.73504 13.1684 3.86636 13.0789 3.94311C13.0324 3.98294 13.0047 3.99616 12.9939 4H11C10.236 4 9.572 4.42841 9.23522 5.05812C6.83681 5.42625 5 7.49862 5 10L5.00002 25C5.00002 27.7614 7.2386 30 10 30L22 30C24.7614 30 27 27.7614 27 25L27 10C27 7.49862 25.1632 5.42625 22.7648 5.05812C22.428 4.42841 21.764 4 21 4H19.0061C18.9953 3.99616 18.9676 3.98294 18.9211 3.94311C18.8316 3.86636 18.7281 3.73504 18.6327 3.56085C18.1247 2.63288 17.137 2 16 2ZM15.1216 4.5212C15.2928 4.20846 15.6228 4 16 4C16.3772 4 16.7072 4.20846 16.8784 4.5212C17.0482 4.83146 17.2907 5.17963 17.6191 5.46125C17.9525 5.74723 18.4196 6 19 6H21V8H11V6H13C13.5804 6 14.0474 5.74723 14.3809 5.46125C14.7093 5.17963 14.9518 4.83146 15.1216 4.5212ZM23 7.17071V8C23 9.10457 22.1046 10 21 10H11C9.89543 10 9 9.10457 9 8V7.17071C7.8348 7.58254 7 8.69378 7 10L7.00002 25C7.00002 26.6569 8.34316 28 10 28L22 28C23.6569 28 25 26.6569 25 25L25 10C25 8.69378 24.1652 7.58254 23 7.17071Z" fill="black"/>
</svg>
