<svg width="16" height="16" viewBox="0 0 16 16" fill="none" xmlns="http://www.w3.org/2000/svg">
<rect width="16" height="16" fill="white"/>
<path d="M7.39028 9.25424C7.14419 9.06494 6.99998 8.77208 6.99998 8.46162L6.99997 5.00006C6.99997 4.44777 7.44769 4.00006 7.99997 4.00005C8.55226 4.00005 8.99997 4.44777 8.99997 5.00005L8.99998 7.96921L10.6097 9.20742C11.0474 9.54415 11.1293 10.172 10.7926 10.6098C10.4559 11.0475 9.82801 11.1294 9.39026 10.7927L7.39028 9.25424Z" fill="black"/>
<path fill-rule="evenodd" clip-rule="evenodd" d="M8 1C4.13401 1 1 4.13401 1 8C1 11.866 4.13401 15 8 15C11.866 15 15 11.866 15 8C15 4.13401 11.866 1 8 1ZM3 8C3 5.23858 5.23858 3 8 3C10.7614 3 13 5.23858 13 8C13 10.7614 10.7614 13 8 13C5.23858 13 3 10.7614 3 8Z" fill="black"/>
</svg>
