<svg width="16" height="16" viewBox="0 0 16 16" fill="none" xmlns="http://www.w3.org/2000/svg">
<rect width="16" height="16" fill="white"/>
<path d="M8 13C7.44772 13 7 13.4477 7 14C7 14.5523 7.44772 15 8 15V13ZM1 8C1 8.55228 1.44772 9 2 9C2.55228 9 3 8.55228 3 8H1ZM9 5C9 4.44772 8.55229 4 8 4C7.44772 4 7 4.44771 7 5L9 5ZM7.99999 8.46156L8.6097 9.25418C8.85578 9.06489 8.99999 8.77203 8.99999 8.46156L7.99999 8.46156ZM5.3903 9.20736C4.95255 9.5441 4.87065 10.1719 5.20738 10.6097C5.54411 11.0475 6.17196 11.1293 6.60972 10.7926L5.3903 9.20736ZM8 15C11.866 15 15 11.866 15 8H13C13 10.7614 10.7614 13 8 13V15ZM15 8C15 4.13401 11.866 1 8 1V3C10.7614 3 13 5.23858 13 8H15ZM8 1C4.13401 1 1 4.13401 1 8H3C3 5.23858 5.23858 3 8 3V1ZM7 5L6.99999 8.46155L8.99999 8.46156L9 5L7 5ZM7.39028 7.66893L5.3903 9.20736L6.60972 10.7926L8.6097 9.25418L7.39028 7.66893Z" fill="black"/>
</svg>
