<svg width="16" height="16" viewBox="0 0 16 16" fill="none" xmlns="http://www.w3.org/2000/svg">
<rect width="16" height="16" fill="white"/>
<path d="M13 8C13 5.23858 10.7614 3 8 3C5.23858 3 3 5.23858 3 8C3 8.55228 2.55229 9 2 9C1.44771 9 1 8.55228 1 8C1 4.13401 4.13401 1 8 1C11.866 1 15 4.13401 15 8C15 11.866 11.866 15 8 15C7.44772 15 7 14.5523 7 14C7 13.4477 7.44772 13 8 13C10.7614 13 13 10.7614 13 8Z" fill="black"/>
<path d="M8.60972 9.25424C8.85581 9.06494 9.00002 8.77208 9.00002 8.46162L9.00003 5.00006C9.00003 4.44777 8.55231 4.00006 8.00003 4.00005C7.44774 4.00005 7.00003 4.44777 7.00003 5.00005L7.00002 7.96921L5.39033 9.20742C4.95257 9.54415 4.87068 10.172 5.20741 10.6098C5.54414 11.0475 6.17199 11.1294 6.60974 10.7927L8.60972 9.25424Z" fill="black"/>
</svg>
