<svg width="16" height="16" viewBox="0 0 16 16" fill="none" xmlns="http://www.w3.org/2000/svg">
<rect width="16" height="16" fill="white"/>
<path fill-rule="evenodd" clip-rule="evenodd" d="M8 3C5.23858 3 3 5.23858 3 8C3 10.7614 5.23858 13 8 13C10.7614 13 13 10.7614 13 8C13 5.23858 10.7614 3 8 3ZM1 8C1 4.13401 4.13401 1 8 1C11.866 1 15 4.13401 15 8C15 11.866 11.866 15 8 15C4.13401 15 1 11.866 1 8ZM5.29289 5.29289C5.68342 4.90237 6.31658 4.90237 6.70711 5.29289L8 6.58579L9.29289 5.29289C9.68342 4.90237 10.3166 4.90237 10.7071 5.29289C11.0976 5.68342 11.0976 6.31658 10.7071 6.70711L9.41421 8L10.7071 9.29289C11.0976 9.68342 11.0976 10.3166 10.7071 10.7071C10.3166 11.0976 9.68342 11.0976 9.29289 10.7071L8 9.41421L6.70711 10.7071C6.31658 11.0976 5.68342 11.0976 5.29289 10.7071C4.90237 10.3166 4.90237 9.68342 5.29289 9.29289L6.58579 8L5.29289 6.70711C4.90237 6.31658 4.90237 5.68342 5.29289 5.29289Z" fill="black"/>
</svg>
