<svg width="32" height="32" viewBox="0 0 32 32" fill="none" xmlns="http://www.w3.org/2000/svg">
<rect width="32" height="32" fill="white"/>
<path d="M20.5837 3.25998C20.7273 2.72668 20.4114 2.17797 19.8781 2.03439C19.3448 1.89081 18.7961 2.20674 18.6525 2.74003L11.6525 28.74C11.5089 29.2733 11.8248 29.822 12.3581 29.9656C12.8914 30.1092 13.4401 29.7933 13.5837 29.26L20.5837 3.25998Z" fill="black"/>
<path d="M9.70706 24.7071C9.31654 25.0976 8.68337 25.0976 8.29285 24.7071L3.12126 19.5355C1.16864 17.5829 1.16865 14.4171 3.12127 12.4645L8.29285 7.29288C8.68337 6.90236 9.31654 6.90236 9.70706 7.29288C10.0976 7.68341 10.0976 8.31657 9.70706 8.7071L4.53548 13.8787C3.36391 15.0503 3.36391 16.9497 4.53548 18.1213L9.70706 23.2929C10.0976 23.6834 10.0976 24.3166 9.70706 24.7071Z" fill="black"/>
<path d="M22.4839 24.5161C22.8745 24.9066 23.5076 24.9066 23.8981 24.5161L28.8787 19.5355C30.8313 17.5829 30.8313 14.4171 28.8787 12.4645L23.8981 7.48389C23.5076 7.09337 22.8745 7.09337 22.4839 7.48389C22.0934 7.87442 22.0934 8.50758 22.4839 8.89811L27.4645 13.8787C28.6361 15.0503 28.6361 16.9498 27.4645 18.1213L22.4839 23.1019C22.0934 23.4924 22.0934 24.1256 22.4839 24.5161Z" fill="black"/>
</svg>
