<svg width="32" height="32" viewBox="0 0 32 32" fill="none" xmlns="http://www.w3.org/2000/svg">
<rect width="32" height="32" fill="white"/>
<path d="M9.70706 8.7071C10.0976 8.31657 10.0976 7.68341 9.70706 7.29288C9.31654 6.90236 8.68337 6.90236 8.29285 7.29288L9.70706 8.7071ZM3.82837 13.1716L3.12127 12.4645L3.82837 13.1716ZM8.29285 24.7071C8.68337 25.0976 9.31654 25.0976 9.70706 24.7071C10.0976 24.3166 10.0976 23.6834 9.70706 23.2929L8.29285 24.7071ZM3.82837 18.8284L3.12126 19.5355H3.12126L3.82837 18.8284ZM23.8981 7.48389C23.5076 7.09337 22.8744 7.09337 22.4839 7.48389C22.0934 7.87442 22.0934 8.50758 22.4839 8.89811L23.8981 7.48389ZM28.1716 13.1716L27.4645 13.8787L28.1716 13.1716ZM22.4839 23.1019C22.0934 23.4924 22.0934 24.1256 22.4839 24.5161C22.8744 24.9066 23.5076 24.9066 23.8981 24.5161L22.4839 23.1019ZM28.1716 18.8284L28.8787 19.5355L28.1716 18.8284ZM20.5837 3.25997C20.7273 2.72668 20.4114 2.17796 19.8781 2.03438C19.3448 1.8908 18.7961 2.20673 18.6525 2.74003L20.5837 3.25997ZM11.6525 28.74C11.5089 29.2733 11.8248 29.822 12.3581 29.9656C12.8914 30.1092 13.4401 29.7933 13.5837 29.26L11.6525 28.74ZM8.29285 7.29288L3.12127 12.4645L4.53548 13.8787L9.70706 8.7071L8.29285 7.29288ZM9.70706 23.2929L4.53548 18.1213L3.12126 19.5355L8.29285 24.7071L9.70706 23.2929ZM3.12127 12.4645C1.16865 14.4171 1.16864 17.5829 3.12126 19.5355L4.53548 18.1213C3.36391 16.9497 3.36391 15.0503 4.53548 13.8787L3.12127 12.4645ZM22.4839 8.89811L27.4645 13.8787L28.8787 12.4645L23.8981 7.48389L22.4839 8.89811ZM23.8981 24.5161L28.8787 19.5355L27.4645 18.1213L22.4839 23.1019L23.8981 24.5161ZM27.4645 13.8787C28.6361 15.0503 28.6361 16.9498 27.4645 18.1213L28.8787 19.5355C30.8313 17.5829 30.8313 14.4171 28.8787 12.4645L27.4645 13.8787ZM18.6525 2.74003L11.6525 28.74L13.5837 29.26L20.5837 3.25997L18.6525 2.74003Z" fill="black"/>
</svg>
