<svg width="16" height="16" viewBox="0 0 16 16" fill="none" xmlns="http://www.w3.org/2000/svg">
<rect width="16" height="16" fill="white"/>
<path d="M5 7C5 6.44772 5.44771 6 6 6H7V5C7 4.44772 7.44771 4 8 4C8.55228 4 9 4.44772 9 5V6H10C10.5523 6 11 6.44772 11 7C11 7.55228 10.5523 8 10 8H9V9C9 9.55228 8.55228 10 8 10C7.44771 10 7 9.55228 7 9V8H6C5.44771 8 5 7.55228 5 7Z" fill="black"/>
<path fill-rule="evenodd" clip-rule="evenodd" d="M15 3.00002V11C15 12.1046 14.1046 13 13 13H6.33333L4.2 14.6C2.88153 15.5889 1 14.6481 1 13V3C1 1.89543 1.89543 0.999998 3 1L13 1.00002C14.1046 1.00002 15 1.89545 15 3.00002ZM13 11V3.00002L3 3L3 13L5.13333 11.4C5.47952 11.1404 5.90059 11 6.33333 11L13 11Z" fill="black"/>
</svg>
