<svg width="32" height="32" viewBox="0 0 32 32" fill="none" xmlns="http://www.w3.org/2000/svg">
<rect width="32" height="32" fill="white"/>
<path d="M3 7H2H3ZM29 7.00004H28H29ZM29 21H30H29ZM25 3.00004L25 4.00004L25 3.00004ZM7.00001 3L7.00001 2L7.00001 3ZM10 25V24H9.67953L9.41876 24.1863L10 25ZM4.58124 28.8705L4 28.0568L4 28.0568L4.58124 28.8705ZM25 25V24V25ZM12 13C11.4477 13 11 13.4477 11 14C11 14.5523 11.4477 15 12 15V13ZM20 15C20.5523 15 21 14.5523 21 14C21 13.4477 20.5523 13 20 13V15ZM17 9.99999C17 9.44771 16.5523 8.99999 16 8.99999C15.4477 8.99999 15 9.44771 15 9.99999H17ZM15 18C15 18.5523 15.4477 19 16 19C16.5523 19 17 18.5523 17 18H15ZM2 7L2 28.0568H4L4 7H2ZM28 7.00004V21H30V7.00004H28ZM25 2.00004L7.00001 2L7.00001 4L25 4.00004L25 2.00004ZM9.41876 24.1863L4 28.0568L5.16248 29.6843L10.5812 25.8137L9.41876 24.1863ZM25 24L10 24V26L25 26V24ZM30 7.00004C30 4.23862 27.7614 2.00004 25 2.00004L25 4.00004C26.6569 4.00004 28 5.34318 28 7.00004H30ZM4 7C4 5.34314 5.34315 4 7.00001 4L7.00001 2C4.23858 1.99999 2 4.23857 2 7H4ZM2 28.0568C2 29.6835 3.83874 30.6298 5.16248 29.6843L4 28.0568H4H2ZM28 21C28 22.6568 26.6569 24 25 24V26C27.7614 26 30 23.7614 30 21H28ZM12 15H20V13H12V15ZM15 9.99999V18H17V9.99999H15Z" fill="black"/>
</svg>
