<svg width="16" height="16" viewBox="0 0 16 16" fill="none" xmlns="http://www.w3.org/2000/svg">
<rect width="16" height="16" fill="white"/>
<path fill-rule="evenodd" clip-rule="evenodd" d="M13 12V3.00002L3 3L3 13.382L5.34164 12.2111C5.61935 12.0723 5.92558 12 6.23607 12L13 12ZM15 3.00002V12C15 13.1046 14.1046 14 13 14H6.23607L3.89443 15.1708C2.56462 15.8357 1 14.8687 1 13.382V3C1 1.89543 1.89543 0.999998 3 1L13 1.00002C14.1046 1.00002 15 1.89545 15 3.00002ZM5 6C5 5.44772 5.44771 5 6 5H10C10.5523 5 11 5.44772 11 6C11 6.55228 10.5523 7 10 7H6C5.44771 7 5 6.55228 5 6ZM6 8C5.44771 8 5 8.44772 5 9C5 9.55229 5.44771 10 6 10H8C8.55228 10 9 9.55229 9 9C9 8.44772 8.55228 8 8 8H6Z" fill="black"/>
</svg>
