<svg width="16" height="16" viewBox="0 0 16 16" fill="none" xmlns="http://www.w3.org/2000/svg">
<rect width="16" height="16" fill="white"/>
<path d="M6 7C5.44771 7 5 7.44772 5 8C5 8.55229 5.44771 9 6 9H10C10.5523 9 11 8.55229 11 8C11 7.44772 10.5523 7 10 7H6Z" fill="black"/>
<path fill-rule="evenodd" clip-rule="evenodd" d="M1 7.96967C1 4.11566 4.13879 1 8 1C11.8612 1 15 4.11566 15 7.96967C15 9.20773 14.675 10.3723 14.1054 11.381L14.939 13.656C15.0513 13.9627 15.0068 14.3049 14.8198 14.5727C14.6327 14.8405 14.3266 15 14 15H7.98078C4.10228 15 1 11.8063 1 7.96967ZM8 3C5.23379 3 3 5.22977 3 7.96967C3 10.7269 5.23186 13 7.98077 13H12.5686L12.061 11.6147C11.9512 11.3149 11.9911 10.9806 12.1686 10.7151C12.6941 9.92865 13 8.98603 13 7.96967C13 5.22977 10.7662 3 8 3Z" fill="black"/>
</svg>
