<svg width="16" height="16" viewBox="0 0 16 16" fill="none" xmlns="http://www.w3.org/2000/svg">
<rect width="16" height="16" fill="white"/>
<path d="M8 4C8.55228 4 9 4.44772 9 5V8C9 8.55229 8.55228 9 8 9C7.44771 9 7 8.55229 7 8V5C7 4.44772 7.44771 4 8 4Z" fill="black"/>
<path d="M8 12C8.55228 12 9 11.5523 9 11C9 10.4477 8.55228 10 8 10C7.44771 10 7 10.4477 7 11C7 11.5523 7.44771 12 8 12Z" fill="black"/>
<path fill-rule="evenodd" clip-rule="evenodd" d="M8 1C4.13879 1 1 4.11566 1 7.96967C1 11.8063 4.10228 15 7.98078 15H14C14.3266 15 14.6327 14.8405 14.8198 14.5727C15.0068 14.3049 15.0513 13.9627 14.939 13.656L14.1054 11.381C14.675 10.3723 15 9.20773 15 7.96967C15 4.11566 11.8612 1 8 1ZM3 7.96967C3 5.22977 5.23379 3 8 3C10.7662 3 13 5.22977 13 7.96967C13 8.98603 12.6941 9.92865 12.1686 10.7151C11.9911 10.9806 11.9512 11.3149 12.061 11.6147L12.5686 13H7.98077C5.23186 13 3 10.7269 3 7.96967Z" fill="black"/>
</svg>
