<svg width="16" height="16" viewBox="0 0 16 16" fill="none" xmlns="http://www.w3.org/2000/svg">
<rect width="16" height="16" fill="white"/>
<path fill-rule="evenodd" clip-rule="evenodd" d="M12 3.00002C12 1.89544 11.1045 1 9.99996 1H2.99998C1.89541 1 0.999981 1.89543 0.999979 3L0.999969 6.79288C0.999967 8.12924 2.61569 8.79849 3.56064 7.85354L4.41418 6.99998H9.99994C11.1045 6.99998 11.9999 6.10456 11.9999 4.99999L12 3.00002ZM9.99996 3L9.99994 4.99998H4.41418C3.88375 4.99998 3.37504 5.21069 2.99997 5.58576L2.99998 3L9.99996 3Z" fill="black"/>
<path fill-rule="evenodd" clip-rule="evenodd" d="M4 10C4 8.89545 4.89543 8.00002 6 8.00002L13 8C14.1046 8 15 8.89543 15 10V13.9192C15 15.294 13.3047 15.9445 12.3851 14.9227L11.5546 14H6C4.89543 14 4 13.1046 4 12L4 10ZM6 10V12H11.5546C12.1014 12 12.6233 12.2238 13 12.6176V10L6 10Z" fill="black"/>
</svg>
