<svg width="32" height="32" viewBox="0 0 32 32" fill="none" xmlns="http://www.w3.org/2000/svg">
<rect width="32" height="32" fill="white"/>
<path d="M15.9583 29V30V29ZM29 15.9343H30H29ZM28.9583 28.91L28.9681 29.91C29.2927 29.9068 29.5957 29.7462 29.7805 29.4793C29.9653 29.2123 30.0091 28.8722 29.8978 28.5672L28.9583 28.91ZM26.8333 23.0865L26.0019 22.5309C25.8247 22.796 25.7846 23.1297 25.8939 23.4293L26.8333 23.0865ZM16.9583 10C16.9583 9.44772 16.5106 9 15.9583 9C15.4061 9 14.9583 9.44772 14.9583 10H16.9583ZM14.9583 18.3333C14.9583 18.8856 15.4061 19.3333 15.9583 19.3333C16.5106 19.3333 16.9583 18.8856 16.9583 18.3333H14.9583ZM17 22C17 21.4477 16.5523 21 16 21C15.4477 21 15 21.4477 15 22H17ZM15 23C15 23.5523 15.4477 24 16 24C16.5523 24 17 23.5523 17 23H15ZM30 15.9343C30 8.23382 23.7272 2 16 2V4C22.6322 4 28 9.34793 28 15.9343H30ZM16 2C8.2728 2 2 8.23382 2 15.9343H4C4 9.34793 9.3678 4 16 4V2ZM2 15.9343C2 23.6174 8.21385 30 15.9583 30V28C9.34343 28 4 22.538 4 15.9343H2ZM27.6648 23.6421C29.1401 21.4344 30 18.783 30 15.9343H28C28 18.3746 27.2646 20.6414 26.0019 22.5309L27.6648 23.6421ZM29.8978 28.5672L27.7727 22.7437L25.8939 23.4293L28.0189 29.2528L29.8978 28.5672ZM15.9583 30C20.307 30 24.6143 29.9523 28.9681 29.91L28.9486 27.9101C24.5904 27.9525 20.2949 28 15.9583 28V30ZM14.9583 10V18.3333H16.9583V10H14.9583ZM15 22V23H17V22H15Z" fill="black"/>
</svg>
