<svg width="32" height="32" viewBox="0 0 32 32" fill="none" xmlns="http://www.w3.org/2000/svg">
<rect width="32" height="32" fill="white"/>
<path d="M15.9583 29V28V29ZM29 15.9343H30H29ZM29 29V30C29.3266 30 29.6327 29.8405 29.8198 29.5727C30.0068 29.3049 30.0513 28.9627 29.939 28.656L29 29ZM26.8333 23.0865L26.0019 22.5309C25.8245 22.7964 25.7845 23.1307 25.8944 23.4305L26.8333 23.0865ZM12 13C11.4477 13 11 13.4477 11 14C11 14.5523 11.4477 15 12 15V13ZM20 15C20.5523 15 21 14.5523 21 14C21 13.4477 20.5523 13 20 13V15ZM12 18C11.4477 18 11 18.4477 11 19C11 19.5523 11.4477 20 12 20V18ZM16 20C16.5523 20 17 19.5523 17 19C17 18.4477 16.5523 18 16 18V20ZM30 15.9343C30 8.23382 23.7272 2 16 2V4C22.6322 4 28 9.34793 28 15.9343H30ZM16 2C8.2728 2 2 8.23382 2 15.9343H4C4 9.34793 9.3678 4 16 4V2ZM2 15.9343C2 23.6174 8.21385 30 15.9583 30V28C9.34343 28 4 22.538 4 15.9343H2ZM27.6648 23.6421C29.1401 21.4344 30 18.783 30 15.9343H28C28 18.3746 27.2646 20.6414 26.0019 22.5309L27.6648 23.6421ZM29.939 28.656L27.7723 22.7425L25.8944 23.4305L28.061 29.344L29.939 28.656ZM15.9583 30H29V28H15.9583V30ZM12 15H20V13H12V15ZM12 20H16V18H12V20Z" fill="black"/>
</svg>
