<svg width="16" height="16" viewBox="0 0 16 16" fill="none" xmlns="http://www.w3.org/2000/svg">
<rect width="16" height="16" fill="white"/>
<mask id="path-2-inside-1" fill="white">
<path d="M7.98077 14H14L13 11.2707C13.6318 10.3252 14 9.19021 14 7.96967C14 4.67271 11.3137 2 8 2C4.68629 2 2 4.67271 2 7.96967C2 11.2666 4.66707 14 7.98077 14Z"/>
</mask>
<path d="M9 5.5C9 4.94772 8.55228 4.5 8 4.5C7.44772 4.5 7 4.94772 7 5.5H9ZM7 7C7 7.55228 7.44772 8 8 8C8.55228 8 9 7.55228 9 7H7ZM9 10C9 9.44771 8.55228 9 8 9C7.44771 9 7 9.44772 7 10L9 10ZM7 10.5C7 11.0523 7.44772 11.5 8 11.5C8.55229 11.5 9 11.0523 9 10.5L7 10.5ZM7 5.5V7H9V5.5H7ZM7 10L7 10.5L9 10.5L9 10L7 10ZM7.98077 14V12V14ZM14 7.96967H16H14ZM14 14V16C14.6533 16 15.2654 15.6809 15.6395 15.1454C16.0137 14.6099 16.1027 13.9254 15.8779 13.3119L14 14ZM13 11.2707L11.3371 10.1594C10.9823 10.6905 10.9024 11.359 11.1221 11.9587L13 11.2707ZM16 7.96967C16 3.5586 12.4087 -2.38419e-07 8 0V4C10.2187 4 12 5.78683 12 7.96967H16ZM8 0C3.59129 2.38419e-07 -2.38419e-07 3.5586 0 7.96967H4C4 5.78683 5.78129 4 8 4V0ZM0 7.96967C2.38419e-07 12.346 3.53748 16 7.98077 16V12C5.79665 12 4 10.1872 4 7.96967H0ZM14.6629 12.3819C15.5073 11.1183 16 9.59856 16 7.96967H12C12 8.78186 11.7564 9.53211 11.3371 10.1594L14.6629 12.3819ZM15.8779 13.3119L14.8779 10.5826L11.1221 11.9587L12.1221 14.6881L15.8779 13.3119ZM7.98077 16H14V12H7.98077V16Z" fill="black" mask="url(#path-2-inside-1)"/>
</svg>
