<svg width="32" height="32" viewBox="0 0 32 32" fill="none" xmlns="http://www.w3.org/2000/svg">
<rect width="32" height="32" fill="white"/>
<path fill-rule="evenodd" clip-rule="evenodd" d="M4 15.9343C4 9.34793 9.3678 4 16 4C22.6322 4 28 9.34793 28 15.9343C28 18.3746 27.2646 20.6414 26.0019 22.5309C25.8245 22.7964 25.7845 23.1307 25.8944 23.4305L27.5686 28H15.9583C9.34343 28 4 22.538 4 15.9343ZM16 2C8.2728 2 2 8.23382 2 15.9343C2 23.6174 8.21385 30 15.9583 30H29C29.3266 30 29.6327 29.8405 29.8198 29.5727C30.0068 29.3049 30.0513 28.9627 29.939 28.656L27.9431 23.2085C29.2476 21.0909 30 18.5988 30 15.9343C30 8.23382 23.7272 2 16 2Z" fill="black"/>
</svg>
