<svg width="32" height="32" viewBox="0 0 32 32" fill="none" xmlns="http://www.w3.org/2000/svg">
<rect width="32" height="32" fill="white"/>
<path fill-rule="evenodd" clip-rule="evenodd" d="M12.5779 8.19673C12.2559 7.92915 11.8013 7.89046 11.4387 8.09979C11.0761 8.30912 10.8823 8.72215 10.9531 9.13479L12.4162 17.669C12.4565 17.9039 12.5794 18.1167 12.7627 18.2691L19.4219 23.8033C19.7439 24.0709 20.1985 24.1096 20.5611 23.9002C20.9237 23.6909 21.1175 23.2779 21.0467 22.8652L19.5836 14.331C19.5433 14.0961 19.4204 13.8833 19.2371 13.7309L12.5779 8.19673ZM18.618 20.5346L14.325 16.967L13.3818 11.4654L17.6748 15.033L18.618 20.5346Z" fill="black"/>
<path fill-rule="evenodd" clip-rule="evenodd" d="M16 2C8.26801 2 2 8.26801 2 16C2 23.732 8.26801 30 16 30C23.732 30 30 23.732 30 16C30 8.26801 23.732 2 16 2ZM4 16C4 9.37258 9.37258 4 16 4C22.6274 4 28 9.37258 28 16C28 22.6274 22.6274 28 16 28C9.37258 28 4 22.6274 4 16Z" fill="black"/>
</svg>
