<svg width="16" height="16" viewBox="0 0 16 16" fill="none" xmlns="http://www.w3.org/2000/svg">
<rect width="16" height="16" fill="white"/>
<path d="M7.11431 4.56883C6.79226 4.28325 6.3236 4.23579 5.95084 4.45101C5.57808 4.66622 5.38485 5.09582 5.47114 5.51751L6.12583 8.71683C6.16921 8.9288 6.28017 9.12099 6.44206 9.26455L8.8854 11.4312C9.20745 11.7168 9.67611 11.7642 10.0489 11.549C10.4216 11.3338 10.6149 10.9042 10.5286 10.4825L9.87388 7.28319C9.8305 7.07121 9.71954 6.87902 9.55765 6.73547L7.11431 4.56883Z" fill="black"/>
<path fill-rule="evenodd" clip-rule="evenodd" d="M8 1C4.13401 1 1 4.13401 1 8C1 11.866 4.13401 15 8 15C11.866 15 15 11.866 15 8C15 4.13401 11.866 1 8 1ZM3 8C3 5.23858 5.23858 3 8 3C10.7614 3 13 5.23858 13 8C13 10.7614 10.7614 13 8 13C5.23858 13 3 10.7614 3 8Z" fill="black"/>
</svg>
