<svg width="16" height="16" viewBox="0 0 16 16" fill="none" xmlns="http://www.w3.org/2000/svg">
<rect width="16" height="16" fill="white"/>
<path fill-rule="evenodd" clip-rule="evenodd" d="M4.54063 1C3.99985 1 3.48211 1.21899 3.10547 1.60705L1.56484 3.19437C1.2026 3.56758 1 4.06722 1 4.58732V9C1 10.1046 1.89543 11 3 11H7C8.10457 11 9 10.1046 9 9L9 3C9 1.89543 8.10457 1 7 1H4.54063ZM4.54063 3L7 3V9L3 9V4.58732L4.54063 3Z" fill="black"/>
<path d="M13 6C13 5.44772 12.5523 5 12 5C11.4477 5 11 5.44772 11 6V13H7C6.44772 13 6 13.4477 6 14C6 14.5523 6.44772 15 7 15H11C12.1046 15 13 14.1046 13 13V6Z" fill="black"/>
</svg>
