<svg width="16" height="16" viewBox="0 0 16 16" fill="none" xmlns="http://www.w3.org/2000/svg">
<rect width="16" height="16" fill="white"/>
<path d="M2.28242 3.89084L1.56484 3.19437H1.56484L2.28242 3.89084ZM3.82305 2.30352L4.54063 3L4.54063 3L3.82305 2.30352ZM8 3H7V3L8 3ZM8 9H9H8ZM7 13C6.44772 13 6 13.4477 6 14C6 14.5523 6.44772 15 7 15V13ZM13 6C13 5.44772 12.5523 5 12 5C11.4477 5 11 5.44772 11 6H13ZM3 4.58732L4.54063 3L3.10547 1.60705L1.56484 3.19437L3 4.58732ZM3 11H7V9H3V11ZM4.54063 3H7V1H4.54063V3ZM7 3L7 9H9L9 3L7 3ZM1 4.58732V9H3V4.58732H1ZM3 9V9H1C1 10.1046 1.89543 11 3 11V9ZM1.56484 3.19437C1.2026 3.56758 1 4.06722 1 4.58732H3L1.56484 3.19437ZM4.54063 3L4.54063 3V1C3.99985 1 3.48211 1.21899 3.10547 1.60705L4.54063 3ZM7 11C8.10457 11 9 10.1046 9 9H7V11ZM7 3L7 3H9C9 1.89543 8.10457 1 7 1V3ZM7 15H11V13H7V15ZM11 6V13H13V6H11ZM11 15C12.1046 15 13 14.1046 13 13H11V15Z" fill="black"/>
</svg>
