<svg width="16" height="16" viewBox="0 0 16 16" fill="none" xmlns="http://www.w3.org/2000/svg">
<rect width="16" height="16" fill="white"/>
<path d="M9.21065 11.6139C9.54972 12.0499 10.178 12.1284 10.6139 11.7894C11.0499 11.4503 11.1284 10.822 10.7894 10.3861L9.21065 11.6139ZM3.78935 1.38606C3.45028 0.950112 2.82201 0.871578 2.38606 1.21065C1.95011 1.54972 1.87158 2.17799 2.21065 2.61394L3.78935 1.38606ZM5.21065 10.3861C4.87158 10.822 4.95011 11.4503 5.38606 11.7894C5.82201 12.1284 6.45028 12.0499 6.78935 11.6139L5.21065 10.3861ZM13.7894 2.61394C14.1284 2.17799 14.0499 1.54972 13.6139 1.21065C13.178 0.871578 12.5497 0.950112 12.2106 1.38606L13.7894 2.61394ZM13 12C13 12.5523 12.5523 13 12 13V15C13.6569 15 15 13.6569 15 12H13ZM12 13C11.4477 13 11 12.5523 11 12H9C9 13.6569 10.3431 15 12 15V13ZM11 12C11 11.4477 11.4477 11 12 11V9C10.3431 9 9 10.3431 9 12H11ZM12 11C12.5523 11 13 11.4477 13 12H15C15 10.3431 13.6569 9 12 9V11ZM5 12C5 12.5523 4.55228 13 4 13V15C5.65685 15 7 13.6569 7 12H5ZM4 13C3.44772 13 3 12.5523 3 12H1C1 13.6569 2.34315 15 4 15V13ZM3 12C3 11.4477 3.44772 11 4 11V9C2.34315 9 1 10.3431 1 12H3ZM4 11C4.55228 11 5 11.4477 5 12H7C7 10.3431 5.65685 9 4 9V11ZM10.7894 10.3861L3.78935 1.38606L2.21065 2.61394L9.21065 11.6139L10.7894 10.3861ZM6.78935 11.6139L13.7894 2.61394L12.2106 1.38606L5.21065 10.3861L6.78935 11.6139Z" fill="black"/>
</svg>
