<svg width="32" height="32" viewBox="0 0 32 32" fill="none" xmlns="http://www.w3.org/2000/svg">
<rect width="32" height="32" fill="white"/>
<path d="M18.1616 23.545C18.4625 24.008 19.0819 24.1394 19.545 23.8384C20.008 23.5375 20.1394 22.9181 19.8384 22.455L18.1616 23.545ZM6.83844 2.45501C6.53745 1.99195 5.91807 1.86057 5.45501 2.16156C4.99195 2.46255 4.86057 3.08193 5.16156 3.54499L6.83844 2.45501ZM12.1616 22.455C11.8606 22.9181 11.992 23.5375 12.455 23.8384C12.9181 24.1394 13.5375 24.008 13.8384 23.545L12.1616 22.455ZM26.8384 3.54499C27.1394 3.08193 27.008 2.46255 26.545 2.16156C26.0819 1.86057 25.4625 1.99195 25.1616 2.45501L26.8384 3.54499ZM28 24C28 26.2091 26.2091 28 24 28V30C27.3137 30 30 27.3137 30 24H28ZM24 28C21.7909 28 20 26.2091 20 24H18C18 27.3137 20.6863 30 24 30V28ZM20 24C20 21.7909 21.7909 20 24 20V18C20.6863 18 18 20.6863 18 24H20ZM24 20C26.2091 20 28 21.7909 28 24H30C30 20.6863 27.3137 18 24 18V20ZM12 24C12 26.2091 10.2091 28 8 28V30C11.3137 30 14 27.3137 14 24H12ZM8 28C5.79086 28 4 26.2091 4 24H2C2 27.3137 4.68629 30 8 30V28ZM4 24C4 21.7909 5.79086 20 8 20V18C4.68629 18 2 20.6863 2 24H4ZM8 20C10.2091 20 12 21.7909 12 24H14C14 20.6863 11.3137 18 8 18V20ZM19.8384 22.455L6.83844 2.45501L5.16156 3.54499L18.1616 23.545L19.8384 22.455ZM13.8384 23.545L26.8384 3.54499L25.1616 2.45501L12.1616 22.455L13.8384 23.545Z" fill="black"/>
</svg>
