<svg width="32" height="32" viewBox="0 0 32 32" fill="none" xmlns="http://www.w3.org/2000/svg">
<rect width="32" height="32" fill="white"/>
<path d="M6.00003 10L5.29293 9.29289L5.00003 9.58579L5.00003 10L6.00003 10ZM13 3V2H12.5858L12.2929 2.29289L13 3ZM26 7H25H26ZM26 20V21H27V20H26ZM6 20L5 20L5 21H6L6 20ZM14 11V12H15V11H14ZM3 19C2.44772 19 2 19.4477 2 20C2 20.5523 2.44772 21 3 21V19ZM29 21C29.5523 21 30 20.5523 30 20C30 19.4477 29.5523 19 29 19V21ZM7 26C7 26.5523 7.44772 27 8 27C8.55228 27 9 26.5523 9 26H7ZM9 24C9 23.4477 8.55228 23 8 23C7.44772 23 7 23.4477 7 24H9ZM12 29C12 29.5523 12.4477 30 13 30C13.5523 30 14 29.5523 14 29H12ZM14 24C14 23.4477 13.5523 23 13 23C12.4477 23 12 23.4477 12 24H14ZM17 26C17 26.5523 17.4477 27 18 27C18.5523 27 19 26.5523 19 26H17ZM19 24C19 23.4477 18.5523 23 18 23C17.4477 23 17 23.4477 17 24H19ZM22 29C22 29.5523 22.4477 30 23 30C23.5523 30 24 29.5523 24 29H22ZM24 24C24 23.4477 23.5523 23 23 23C22.4477 23 22 23.4477 22 24H24ZM6.70714 10.7071L13.7071 3.70711L12.2929 2.29289L5.29293 9.29289L6.70714 10.7071ZM25 7L25 20H27L27 7L25 7ZM22 4C23.6569 4 25 5.34315 25 7H27C27 4.23858 24.7615 2 22 2V4ZM13 4H14V2H13V4ZM14 4H22V2H14V4ZM5.00003 10L5.00003 11L7.00003 11L7.00003 10L5.00003 10ZM5.00003 11L5 20L7 20L7.00003 11L5.00003 11ZM13 3V11H15V3H13ZM14 10H6.00003V12H14V10ZM6 21L26 21V19L6 19L6 21ZM3 21H29V19H3V21ZM9 26V24H7V26H9ZM14 29V24H12V29H14ZM19 26V24H17V26H19ZM24 29V24H22V29H24Z" fill="black"/>
</svg>
