<svg width="16" height="16" viewBox="0 0 16 16" fill="none" xmlns="http://www.w3.org/2000/svg">
<rect width="16" height="16" fill="white"/>
<path fill-rule="evenodd" clip-rule="evenodd" d="M5.26756 2C5.61337 1.4022 6.25972 1 7 1H9C9.74028 1 10.3866 1.4022 10.7324 2H14C14.5523 2 15 2.44772 15 3C15 3.55228 14.5523 4 14 4V12C14 13.6569 12.6569 15 11 15H5C3.34315 15 2 13.6569 2 12V4C1.44772 4 1 3.55228 1 3C1 2.44772 1.44772 2 2 2H5.26756ZM4 4V12C4 12.5523 4.44772 13 5 13H11C11.5523 13 12 12.5523 12 12V4H4ZM8 6C8.55228 6 9 6.44772 9 7V10C9 10.5523 8.55228 11 8 11C7.44772 11 7 10.5523 7 10V7C7 6.44772 7.44772 6 8 6Z" fill="black"/>
</svg>
