<svg width="16" height="16" viewBox="0 0 16 16" fill="none" xmlns="http://www.w3.org/2000/svg">
<rect width="16" height="16" fill="white"/>
<path d="M15.5 2C15.5 2.55228 15.0523 3 14.5 3H1.5C0.947716 3 0.5 2.55228 0.5 2C0.5 1.44772 0.947716 1 1.5 1H14.5C15.0523 1 15.5 1.44772 15.5 2Z" fill="black"/>
<path d="M14.5 11C15.0523 11 15.5 10.5523 15.5 10C15.5 9.44771 15.0523 9 14.5 9H7.5C6.94772 9 6.5 9.44771 6.5 10C6.5 10.5523 6.94772 11 7.5 11H14.5Z" fill="black"/>
<path d="M14.5 15C15.0523 15 15.5 14.5523 15.5 14C15.5 13.4477 15.0523 13 14.5 13H1.5C0.947716 13 0.5 13.4477 0.5 14C0.5 14.5523 0.947716 15 1.5 15H14.5Z" fill="black"/>
<path d="M14.5 7C15.0523 7 15.5 6.55228 15.5 6C15.5 5.44772 15.0523 5 14.5 5H7.5C6.94772 5 6.5 5.44772 6.5 6C6.5 6.55228 6.94772 7 7.5 7H14.5Z" fill="black"/>
<path d="M0.792893 7.29292C0.402369 7.68345 0.402369 8.31661 0.792893 8.70714L2.79289 10.7071C3.18342 11.0977 3.81658 11.0977 4.20711 10.7071C4.59763 10.3166 4.59763 9.68345 4.20711 9.29292L2.91421 8.00003L4.20714 6.70711C4.59766 6.31658 4.59766 5.68342 4.20714 5.29289C3.81661 4.90237 3.18345 4.90237 2.79292 5.29289L0.792893 7.29292C0.792747 7.29307 0.79304 7.29278 0.792893 7.29292Z" fill="black"/>
</svg>
