<svg width="32" height="32" viewBox="0 0 32 32" fill="none" xmlns="http://www.w3.org/2000/svg">
<rect width="32" height="32" fill="white"/>
<path d="M30 4C30 4.55228 29.5523 5 29 5H3C2.44772 5 2 4.55228 2 4C2 3.44772 2.44772 3 3 3H29C29.5523 3 30 3.44772 30 4Z" fill="black"/>
<path d="M29 21C29.5523 21 30 20.5523 30 20C30 19.4477 29.5523 19 29 19H15C14.4477 19 14 19.4477 14 20C14 20.5523 14.4477 21 15 21H29Z" fill="black"/>
<path d="M29 29C29.5523 29 30 28.5523 30 28C30 27.4477 29.5523 27 29 27H3C2.44772 27 2 27.4477 2 28C2 28.5523 2.44772 29 3 29H29Z" fill="black"/>
<path d="M29 13C29.5523 13 30 12.5523 30 12C30 11.4477 29.5523 11 29 11H15C14.4477 11 14 11.4477 14 12C14 12.5523 14.4477 13 15 13H29Z" fill="black"/>
<path d="M4.04536 16.2985C4.09196 16.448 4.17447 16.5887 4.29289 16.7071L8.29289 20.7071C8.68342 21.0977 9.31658 21.0977 9.70711 20.7071C10.0976 20.3166 10.0976 19.6834 9.70711 19.2929L6.4142 16L9.70711 12.7071C10.0976 12.3166 10.0976 11.6834 9.70711 11.2929C9.31658 10.9024 8.68342 10.9024 8.29289 11.2929L4.29289 15.2929C4.14644 15.4393 4.05491 15.6199 4.01831 15.809C3.98689 15.9713 3.99591 16.1398 4.04536 16.2985Z" fill="black"/>
</svg>
