<svg width="16" height="16" viewBox="0 0 16 16" fill="none" xmlns="http://www.w3.org/2000/svg">
<rect width="16" height="16" transform="matrix(1 0 0 -1 0 16)" fill="white"/>
<path d="M6 15C5.44772 15 5 14.5523 5 14L5 12.4142L2.70711 14.7071C2.31658 15.0976 1.68342 15.0976 1.29289 14.7071C0.902369 14.3166 0.902369 13.6834 1.29289 13.2929L3.58579 11L2 11C1.44771 11 1 10.5523 1 10C1 9.44772 1.44772 9 2 9L6 9C6.55228 9 7 9.44772 7 10L7 14C7 14.5523 6.55228 15 6 15Z" fill="black"/>
<path d="M5 2C5 1.44772 5.44772 1 6 1C6.55228 1 7 1.44772 7 2L7 6C7 6.55228 6.55228 7 6 7L2 7C1.44772 7 1 6.55229 1 6C1 5.44772 1.44771 5 2 5L3.58579 5L1.29289 2.70711C0.902369 2.31658 0.902369 1.68342 1.29289 1.29289C1.68342 0.902369 2.31658 0.902369 2.70711 1.29289L5 3.58579L5 2Z" fill="black"/>
<path d="M10 1C10.5523 1 11 1.44772 11 2V3.58579L13.2929 1.29289C13.6834 0.902369 14.3166 0.902369 14.7071 1.29289C15.0976 1.68342 15.0976 2.31658 14.7071 2.70711L12.4142 5L14 5C14.5523 5 15 5.44772 15 6C15 6.55229 14.5523 7 14 7L10 7C9.44772 7 9 6.55228 9 6V2C9 1.44772 9.44771 1 10 1Z" fill="black"/>
<path d="M10 15C10.5523 15 11 14.5523 11 14V12.4142L13.2929 14.7071C13.6834 15.0976 14.3166 15.0976 14.7071 14.7071C15.0976 14.3166 15.0976 13.6834 14.7071 13.2929L12.4142 11L14 11C14.5523 11 15 10.5523 15 10C15 9.44772 14.5523 9 14 9L10 9C9.44772 9 9 9.44772 9 10V14C9 14.5523 9.44771 15 10 15Z" fill="black"/>
</svg>
