<svg width="16" height="16" viewBox="0 0 16 16" fill="none" xmlns="http://www.w3.org/2000/svg">
<rect width="16" height="16" transform="matrix(1 0 0 -1 0 16)" fill="white"/>
<path d="M3 10C3 9.44772 2.55228 9 2 9C1.44772 9 1 9.44772 1 10V14C1 14.5523 1.44772 15 2 15H6C6.55228 15 7 14.5523 7 14C7 13.4477 6.55229 13 6 13H4.41421L8 9.41421L11.5858 13H10C9.44771 13 9 13.4477 9 14C9 14.5523 9.44772 15 10 15H14C14.5523 15 15 14.5523 15 14L15 10C15 9.44772 14.5523 9 14 9C13.4477 9 13 9.44772 13 10L13 11.5858L9.41421 8L13 4.41421V6C13 6.55229 13.4477 7 14 7C14.5523 7 15 6.55228 15 6V2C15 1.44772 14.5523 1 14 1L10 1C9.44772 1 9 1.44771 9 2C9 2.55228 9.44771 3 10 3L11.5858 3L8 6.58579L4.41421 3H6C6.55229 3 7 2.55228 7 2C7 1.44771 6.55229 1 6 1H2C1.44772 1 1 1.44771 1 2V6C1 6.55228 1.44772 7 2 7C2.55228 7 3 6.55229 3 6L3 4.41421L6.58579 8L3 11.5858L3 10Z" fill="black"/>
</svg>
