<svg width="32" height="32" viewBox="0 0 32 32" fill="none" xmlns="http://www.w3.org/2000/svg">
<rect width="32" height="32" fill="white"/>
<path d="M3 16C2.44772 16 2 15.5523 2 15V3C2 2.44771 2.44772 2 3 2H15C15.5523 2 16 2.44772 16 3C16 3.55229 15.5523 4 15 4L5.41895 4L28 26.5904V17C28 16.4477 28.4477 16 29 16C29.5523 16 30 16.4477 30 17V29C30 29.5523 29.5523 30 29 30L17 30C16.4477 30 16 29.5523 16 29C16 28.4477 16.4477 28 17 28H26.5811L4 5.40947L4 15C4 15.5523 3.55228 16 3 16Z" fill="black"/>
</svg>
