<svg width="16" height="16" viewBox="0 0 16 16" fill="none" xmlns="http://www.w3.org/2000/svg">
<rect width="16" height="16" transform="matrix(1 0 0 -1 0 16)" fill="white"/>
<path d="M2 9C1.44772 9 1 8.55228 1 8V2C1 1.44771 1.44772 1 2 1H8C8.55228 1 9 1.44772 9 2C9 2.55228 8.55228 3 8 3L4.41355 3L13 11.5904V8C13 7.44772 13.4477 7 14 7C14.5523 7 15 7.44772 15 8V14C15 14.5523 14.5523 15 14 15L8 15C7.44772 15 7 14.5523 7 14C7 13.4477 7.44772 13 8 13H11.5812L3 4.41488L3 8C3 8.55228 2.55228 9 2 9Z" fill="black"/>
</svg>
