<svg width="32" height="32" viewBox="0 0 32 32" fill="none" xmlns="http://www.w3.org/2000/svg">
<rect width="32" height="32" fill="white"/>
<path d="M7 16C7 16.5523 7.44772 17 8 17C8.55228 17 9 16.5523 9 16H7ZM16 9C16.5523 9 17 8.55228 17 8C17 7.44772 16.5523 7 16 7V9ZM28 16C28 22.6274 22.6274 28 16 28V30C23.732 30 30 23.732 30 16H28ZM16 28C9.37258 28 4 22.6274 4 16H2C2 23.732 8.26801 30 16 30V28ZM4 16C4 9.37258 9.37258 4 16 4V2C8.26801 2 2 8.26801 2 16H4ZM16 4C22.6274 4 28 9.37258 28 16H30C30 8.26801 23.732 2 16 2V4ZM18 16C18 17.1046 17.1046 18 16 18V20C18.2091 20 20 18.2091 20 16H18ZM16 18C14.8954 18 14 17.1046 14 16H12C12 18.2091 13.7909 20 16 20V18ZM14 16C14 14.8954 14.8954 14 16 14V12C13.7909 12 12 13.7909 12 16H14ZM16 14C17.1046 14 18 14.8954 18 16H20C20 13.7909 18.2091 12 16 12V14ZM9 16C9 12.134 12.134 9 16 9V7C11.0294 7 7 11.0294 7 16H9Z" fill="black"/>
</svg>
