<svg width="16" height="16" viewBox="0 0 16 16" fill="none" xmlns="http://www.w3.org/2000/svg">
<rect width="16" height="16" fill="white"/>
<path d="M2 12H3H2ZM2 4H1H2ZM12 14V15V14ZM4 14V13V14ZM12 2V1V2ZM4 2L4 3H4V2ZM14 12L13 12V12L14 12ZM14 4L13 4L14 4ZM6.28571 10C5.73343 10 5.28571 10.4477 5.28571 11C5.28571 11.5523 5.73343 12 6.28571 12V10ZM9.71429 12C10.2666 12 10.7143 11.5523 10.7143 11C10.7143 10.4477 10.2666 10 9.71429 10V12ZM3 12L3 4L1 4L1 12H3ZM12 13L4 13L4 15L12 15V13ZM12 1L4 1V3L12 3V1ZM15 12L15 4L13 4L13 12L15 12ZM12 15C13.6569 15 15 13.6569 15 12L13 12C13 12.5523 12.5523 13 12 13V15ZM12 3C12.5523 3 13 3.44771 13 4L15 4C15 2.34314 13.6568 1 12 1V3ZM3 4C3 3.44771 3.44771 3 4 3L4 1C2.34314 1 1 2.34315 1 4H3ZM1 12C1 13.6569 2.34315 15 4 15V13C3.44772 13 3 12.5523 3 12H1ZM10 6.33333C10 6.85039 9.35301 7.66667 8 7.66667V9.66667C9.9607 9.66667 12 8.3936 12 6.33333H10ZM8 7.66667C6.64699 7.66667 6 6.85039 6 6.33333H4C4 8.3936 6.0393 9.66667 8 9.66667V7.66667ZM7 8.66667V11H9V8.66667H7ZM8 10H6.28571V12H8V10ZM8 12H9.71429V10H8V12ZM12 6.33333V6H10V6.33333H12ZM10 4H6V6H10V4ZM4 6V6.33333H6V6H4ZM6 4C4.89543 4 4 4.89543 4 6H6V6V4ZM12 6C12 4.89543 11.1046 4 10 4V6V6H12Z" fill="black"/>
</svg>
