<svg width="16" height="16" viewBox="0 0 16 16" fill="none" xmlns="http://www.w3.org/2000/svg">
<rect width="16" height="16" fill="white"/>
<path fill-rule="evenodd" clip-rule="evenodd" d="M6 4C4.89543 4 4 4.89543 4 6V6.33333C4 8.04206 5.40275 9.2093 7 9.55789V10H6.28571C5.73343 10 5.28571 10.4477 5.28571 11C5.28571 11.5523 5.73343 12 6.28571 12H9.71428C10.2666 12 10.7143 11.5523 10.7143 11C10.7143 10.4477 10.2666 10 9.71428 10H9V9.55789C10.5972 9.2093 12 8.04206 12 6.33333V6C12 4.89543 11.1046 4 10 4H6ZM6 6H10V6.33333C10 6.85039 9.35301 7.66667 8 7.66667C6.64699 7.66667 6 6.85039 6 6.33333V6Z" fill="black"/>
<path fill-rule="evenodd" clip-rule="evenodd" d="M4 15H12C13.6569 15 15 13.6569 15 12L15 4C15 2.34314 13.6568 1 12 1H4C2.34314 1 1 2.34315 1 4V12C1 13.6569 2.34315 15 4 15ZM12 13H4C3.44772 13 3 12.5523 3 12L3 4C3 3.44771 3.44771 3 4 3L12 3C12.5523 3 13 3.44771 13 4L13 12C13 12.5523 12.5523 13 12 13Z" fill="black"/>
</svg>
