<svg width="16" height="16" viewBox="0 0 16 16" fill="none" xmlns="http://www.w3.org/2000/svg">
<rect width="16" height="16" fill="white"/>
<path fill-rule="evenodd" clip-rule="evenodd" d="M6.70751 12.7733L7.90371 10.7226C8.43895 9.80503 8.72099 8.76178 8.72099 7.69948L8.72099 3L4.51987 3L3.04249 8.71429H5.24947C6.41967 8.71429 7.29821 9.78342 7.07141 10.9314L6.70751 12.7733ZM10.721 3L10.721 7.85714L12.9619 7.85714L12.9989 3L10.721 3ZM10.4245 9.85714C10.2417 10.5099 9.97583 11.1397 9.63128 11.7303L8.2615 14.0786C7.92873 14.6488 7.31802 15 6.65736 15H6.48885C5.31866 15 4.44017 13.9308 4.66697 12.7829L5.07565 10.7143H2.85748C1.66923 10.7143 0.78686 9.61384 1.04458 8.45416L1.04831 8.43741L2.60037 2.43428C2.79649 1.59494 3.54524 1 4.40873 1L13.1429 1C14.174 1 15.0078 1.84008 15 2.87125L14.9608 8.01411C14.9529 9.03412 14.1239 9.85714 13.1037 9.85714H10.4245Z" fill="black"/>
</svg>
