<svg width="16" height="16" viewBox="0 0 16 16" fill="none" xmlns="http://www.w3.org/2000/svg">
<rect width="16" height="16" fill="white"/>
<path d="M9.72098 2L13.1429 2C13.6188 2 14.0036 2.38777 14 2.86363L13.9608 8.00649C13.9572 8.47733 13.5745 8.85714 13.1037 8.85714L9.72098 8.85714L9.72098 2ZM9.72098 2L9.72098 7.69948C9.72098 8.93883 9.39194 10.156 8.76749 11.2265L7.3977 13.5748C7.24406 13.838 6.96219 14 6.65735 14H6.48885C5.94881 14 5.54332 13.5066 5.648 12.9767L6.09037 10.7376C6.19505 10.2077 5.78956 9.71429 5.24947 9.71429H2.85748C2.30912 9.71429 1.9018 9.2064 2.02076 8.67111L3.57201 2.67111C3.65917 2.27895 4.00701 2 4.40873 2L9.72098 2Z" stroke="black" stroke-width="2"/>
</svg>
