<svg width="32" height="32" viewBox="0 0 32 32" fill="none" xmlns="http://www.w3.org/2000/svg">
<rect width="32" height="32" fill="white"/>
<path d="M21.0405 3L27.1835 3C28.2146 3 29.0484 3.84016 29.0405 4.8712L28.9556 16.0141C28.9477 17.0342 28.1186 17.8571 27.0985 17.8571L21.0405 17.8571M21.0405 3L8.25942 3C7.38903 3 6.63538 3.60439 6.44654 4.45407L3.04498 17.7398C2.78723 18.8996 3.66976 20 4.85787 20H10.0405C11.2107 20 12.1298 20.7834 11.903 21.9314L10.9445 26.7829C10.7177 27.9309 11.5963 29 12.7663 29H13.1314C13.7919 29 14.4026 28.6491 14.7355 28.0787L21.0405 17.8571M21.0405 3V17.8571" stroke="black" stroke-width="2"/>
</svg>
