<svg width="16" height="16" viewBox="0 0 16 16" fill="none" xmlns="http://www.w3.org/2000/svg">
<rect width="16" height="16" fill="white"/>
<path fill-rule="evenodd" clip-rule="evenodd" d="M7.35044 3.44019C7.77584 3.27673 8.02904 3.25362 8.19337 3.2786C8.32965 3.29932 8.50815 3.36792 8.75622 3.63591C9.16057 4.07272 9.74131 4.43806 10.3237 4.66946C10.8899 4.89441 11.6251 5.05893 12.3162 4.88905C12.5913 4.82145 12.8418 4.75492 13.0595 4.69435C13.1098 4.97173 13.124 5.27728 13.0948 5.54499C13.0796 5.68523 13.0589 5.84489 12.9871 5.96993C12.7968 6.11508 12.3494 6.36019 11.6728 6.69952C9.41191 7.83335 8.79343 10.4519 9.39256 12.6034C9.53042 13.0985 9.6403 13.6112 9.69901 14.1156C9.76287 14.6642 10.2593 15.0571 10.8079 14.9933C11.3565 14.9294 11.7495 14.433 11.6856 13.8844C11.6122 13.2542 11.4781 12.6373 11.3192 12.0668C10.8932 10.5368 11.4142 9.0666 12.5694 8.4873C13.2072 8.16743 13.8866 7.81553 14.2677 7.50703C14.8417 7.04234 15.025 6.2953 15.0831 5.76151C15.1473 5.17174 15.0938 4.5249 14.9448 3.96648C14.7909 3.38948 14.3837 3.00125 13.9202 2.81312C13.4793 2.63415 12.9979 2.63437 12.577 2.75259C12.3645 2.81224 12.115 2.87898 11.8388 2.94687C11.7236 2.9752 11.4471 2.96372 11.0622 2.81079C10.6935 2.66429 10.3837 2.44985 10.2239 2.27728C9.73961 1.7541 9.17214 1.40441 8.49395 1.30132C7.27934 1.11668 6.0163 1.75714 4.93017 2.30789C4.81761 2.36497 4.70696 2.42108 4.59845 2.47521C4.35309 2.59761 4.06577 2.7972 3.85526 3.12462C3.43388 3.78002 2.48187 5.69349 1.03277 11.2139C0.892546 11.748 1.21192 12.2948 1.7461 12.435C2.28029 12.5752 2.82701 12.2558 2.96723 11.7217C3.14494 11.0447 3.31426 10.426 3.47501 9.86094C3.90656 10.5273 4.61096 11 5.5 11C7.01978 11 8 9.61861 8 8.25C8 8.08827 8.00507 7.88953 8.01078 7.66604C8.02931 6.94042 8.05449 5.95401 7.93428 5.12744C7.85447 4.5786 7.69615 3.95441 7.33722 3.44528C7.34163 3.44358 7.34603 3.44189 7.35044 3.44019ZM5.39863 4.44563C5.30002 4.6292 5.16673 4.90237 5 5.29778V8.25C5 8.50387 5.08847 8.70817 5.1986 8.83665C5.30692 8.96302 5.4166 9 5.5 9C5.5834 9 5.69308 8.96302 5.8014 8.83665C5.91153 8.70817 6 8.50387 6 8.25C6 7.99118 6.00667 7.72468 6.0134 7.45551C6.03067 6.76491 6.04838 6.05668 5.9551 5.41527C5.89425 4.99679 5.80782 4.5519 5.39863 4.44563Z" fill="black"/>
</svg>
