<svg width="16" height="16" viewBox="0 0 16 16" fill="none" xmlns="http://www.w3.org/2000/svg">
<rect width="16" height="16" fill="white"/>
<path d="M10.3559 12.3351L11.3192 12.0668L10.3559 12.3351ZM9.69901 14.1156C9.76287 14.6642 10.2593 15.0571 10.8079 14.9933C11.3565 14.9294 11.7495 14.433 11.6856 13.8844L9.69901 14.1156ZM1.03277 11.2139C0.892545 11.748 1.21192 12.2948 1.7461 12.435C2.28029 12.5752 2.82701 12.2558 2.96723 11.7217L1.03277 11.2139ZM4.69641 3.66542L3.85526 3.12462L3.85526 3.12462L4.69641 3.66542ZM5.04485 3.37004L4.59845 2.47521V2.47521L5.04485 3.37004ZM6.99175 2.50674L6.63306 1.57328L6.63306 1.57328L6.99175 2.50674ZM12.0775 3.91796L12.3162 4.88905V4.88905L12.0775 3.91796ZM12.8473 3.71534L13.1177 4.6781L13.1177 4.6781L12.8473 3.71534ZM13.9786 4.22423L13.0124 4.48198V4.48198L13.9786 4.22423ZM13.6385 6.72978L13.0093 5.95254V5.95254L13.6385 6.72978ZM12.1211 7.59341L12.5694 8.4873L12.1211 7.59341ZM9.49007 2.95659L8.75622 3.63591V3.63591L9.49007 2.95659ZM5 5.25C5 4.69771 4.55228 4.25 4 4.25C3.44772 4.25 3 4.69771 3 5.25H5ZM9.39255 12.6034C9.53042 13.0985 9.6403 13.6112 9.69901 14.1156L11.6856 13.8844C11.6122 13.2542 11.4781 12.6373 11.3192 12.0668L9.39255 12.6034ZM2.96723 11.7217C4.40563 6.24203 5.29461 4.58409 5.53756 4.20622L3.85526 3.12462C3.43388 3.78002 2.48186 5.69349 1.03277 11.2139L2.96723 11.7217ZM5.49126 4.26487C5.83323 4.09427 6.5643 3.74228 7.35044 3.44019L6.63306 1.57328C5.76186 1.90805 4.96662 2.29154 4.59845 2.47521L5.49126 4.26487ZM12.3162 4.88905C12.6161 4.81534 12.8868 4.74293 13.1177 4.6781L12.577 2.75258C12.3645 2.81224 12.115 2.87897 11.8388 2.94686L12.3162 4.88905ZM13.0124 4.48198C13.0993 4.80793 13.1317 5.20668 13.0948 5.54499C13.0767 5.71192 13.0446 5.83579 13.0126 5.91549C12.9789 5.99972 12.9639 5.98929 13.0093 5.95254L14.2677 7.50703C14.8417 7.04233 15.025 6.2953 15.0831 5.76151C15.1473 5.17173 15.0938 4.5249 14.9448 3.96648L13.0124 4.48198ZM13.0093 5.95254C12.8332 6.09509 12.3772 6.34625 11.6728 6.69952L12.5694 8.4873C13.2072 8.16742 13.8866 7.81552 14.2677 7.50703L13.0093 5.95254ZM7.35044 3.44019C7.77583 3.27673 8.02903 3.25362 8.19336 3.2786C8.32965 3.29932 8.50814 3.36792 8.75622 3.63591L10.2239 2.27728C9.73961 1.75409 9.17213 1.40441 8.49395 1.30131C7.84381 1.20248 7.21404 1.35003 6.63306 1.57328L7.35044 3.44019ZM13.1177 4.6781C13.1414 4.67145 13.1614 4.66986 13.1742 4.67029C13.1874 4.67073 13.1844 4.67293 13.1681 4.66629C13.1505 4.65917 13.1166 4.64117 13.0815 4.60323C13.0443 4.56312 13.022 4.51801 13.0124 4.48198L14.9448 3.96648C14.7909 3.38948 14.3837 3.00125 13.9202 2.81311C13.4793 2.63415 12.9979 2.63437 12.577 2.75258L13.1177 4.6781ZM11.3192 12.0668C10.8932 10.5368 11.4142 9.0666 12.5694 8.4873L11.6728 6.69952C9.41191 7.83334 8.79343 10.4519 9.39255 12.6034L11.3192 12.0668ZM8.75622 3.63591C9.16057 4.07271 9.7413 4.43806 10.3237 4.66946C10.8899 4.89441 11.6251 5.05893 12.3162 4.88905L11.8388 2.94686C11.7236 2.9752 11.4471 2.96372 11.0622 2.81078C10.6935 2.66429 10.3837 2.44984 10.2239 2.27728L8.75622 3.63591ZM5.53756 4.20622C5.4959 4.27102 5.45723 4.28185 5.49126 4.26487L4.59845 2.47521C4.35309 2.59761 4.06577 2.7972 3.85526 3.12462L5.53756 4.20622ZM6 8.25C6 8.50387 5.91153 8.70817 5.8014 8.83665C5.69308 8.96302 5.5834 9 5.5 9V11C7.01978 11 8 9.61861 8 8.25H6ZM5.5 9C5.4166 9 5.30692 8.96302 5.1986 8.83665C5.08847 8.70817 5 8.50387 5 8.25H3C3 9.61861 3.98022 11 5.5 11V9ZM8 8.25C8 7.56317 8.09152 6.2086 7.93428 5.12744C7.85398 4.57523 7.6942 3.94674 7.33059 3.43592C6.92606 2.86761 6.30443 2.5 5.5 2.5V4.5C5.62183 4.5 5.65082 4.52492 5.70122 4.59572C5.79253 4.72401 5.89198 4.9812 5.9551 5.41527C6.08474 6.30669 6 7.32712 6 8.25H8ZM5 8.25V5.25H3V8.25H5Z" fill="black"/>
</svg>
