<svg width="32" height="32" viewBox="0 0 32 32" fill="none" xmlns="http://www.w3.org/2000/svg">
<rect width="32" height="32" fill="white"/>
<path fill-rule="evenodd" clip-rule="evenodd" d="M15.6007 4.52061L15.3772 4.59616C14.1779 5.00046 12.9614 5.50761 11.9557 5.95884C12.1665 6.12962 12.3628 6.31923 12.5447 6.52431C13.3319 7.41181 13.847 8.57944 14.1941 9.76088C14.8886 12.1253 15 14.8676 15 16.5C15 18.9853 12.9853 21 10.5 21C8.04023 21 6.04141 19.0264 6.00064 16.5764C5.39042 18.5583 4.71181 20.9309 3.96723 23.7674C3.82701 24.3016 3.28029 24.6209 2.7461 24.4807C2.21192 24.3405 1.89255 23.7938 2.03277 23.2596C3.66558 17.0394 4.99785 12.9738 6.01484 10.3274C6.03787 10.195 6.08693 10.0716 6.15655 9.96255C7.16584 7.3922 7.84486 6.26893 8.17785 5.80693C8.39336 5.50794 8.6686 5.31707 8.91196 5.19367C8.99561 5.15125 9.10156 5.09794 9.22727 5.03551V5C9.2509 5 9.27444 5.00017 9.29789 5.00051C10.3347 4.48776 12.5482 3.43928 14.7383 2.70096C14.8204 2.67326 14.9035 2.64476 14.9872 2.61603C15.5833 2.41137 16.2142 2.19479 16.8238 2.16882C17.6385 2.1341 18.3466 2.41823 19.1006 2.99828C19.662 3.43018 20.5427 3.92372 21.465 4.25988C22.4207 4.60823 23.2366 4.71978 23.7411 4.59836C24.7188 4.36305 25.5594 4.12995 26.1769 3.94861C27.1946 3.64972 28.5466 3.9321 29.1223 5.15077C29.5986 6.15907 29.9407 7.41735 29.993 8.58999C30.0426 9.70249 29.8398 11.0538 28.8459 11.8584C27.7342 12.7584 25.7705 14.174 23.6019 15.5999C22.7946 16.1308 22.6203 16.8309 22.3522 17.6529C22.3086 18.0505 22.3488 18.4609 22.4823 18.8563C23.3704 21.4876 24.6058 25.5557 24.9933 28.8844C25.0571 29.433 24.6642 29.9294 24.1156 29.9933C23.567 30.0571 23.0706 29.6642 23.0067 29.1156C22.673 26.2486 21.6457 22.7053 20.795 20.1191C20.1118 20.7948 19.3369 21.311 18.6419 21.7739L18.5547 21.8321C18.0952 22.1384 17.4743 22.0142 17.1679 21.5547C16.8616 21.0952 16.9858 20.4743 17.4453 20.1679C18.8407 19.2377 19.9152 18.487 20.3981 17.1846C20.61 15.8844 21.3493 14.6875 22.5031 13.9288C24.6413 12.5229 26.5457 11.1473 27.5875 10.304C27.8137 10.1208 28.037 9.62105 27.995 8.67912C27.9693 8.10217 27.8196 6.10357 27.1484 5.8661C27.0476 5.83045 26.9007 5.8205 26.7405 5.86756C26.0975 6.0564 25.2245 6.29845 24.2091 6.54283C23.1198 6.80499 21.8432 6.52646 20.7801 6.13895C19.6834 5.73922 18.6189 5.15111 17.881 4.58343C17.3799 4.19789 17.1218 4.15793 16.9089 4.167C16.6077 4.17983 16.279 4.29109 15.6007 4.52061ZM9.74714 7.0525C9.49158 7.42863 8.90188 8.43507 8 10.7399V16.5C8 17.8807 9.11929 19 10.5 19C11.8807 19 13 17.8807 13 16.5C13 14.913 12.8863 12.4052 12.2751 10.3246C11.9693 9.28343 11.5614 8.4297 11.0485 7.85148C10.6796 7.43561 10.2587 7.16111 9.74714 7.0525Z" fill="black"/>
</svg>
