<svg width="32" height="32" viewBox="0 0 32 32" fill="none" xmlns="http://www.w3.org/2000/svg">
<rect width="32" height="32" fill="white"/>
<path d="M17 15C17 14.4477 16.5523 14 16 14C15.4477 14 15 14.4477 15 15H17ZM16 29L15.2929 29.7071C15.6834 30.0976 16.3166 30.0976 16.7071 29.7071L16 29ZM21.7071 24.7071C22.0976 24.3166 22.0976 23.6834 21.7071 23.2929C21.3166 22.9024 20.6834 22.9024 20.2929 23.2929L21.7071 24.7071ZM11.7071 23.2929C11.3166 22.9024 10.6834 22.9024 10.2929 23.2929C9.90237 23.6834 9.90237 24.3166 10.2929 24.7071L11.7071 23.2929ZM9.10992 18.9939C9.65886 18.9332 10.0546 18.439 9.99394 17.8901C9.93323 17.3411 9.43901 16.9454 8.89008 17.0061L9.10992 18.9939ZM7.5 9L7.50253 8H7.5V9ZM7.51208 9.00003L7.50956 10L8.21864 10.0018L8.45493 9.33327L7.51208 9.00003ZM24.0647 8.0004L23.1692 8.44538L23.441 8.99257L24.052 9.00032L24.0647 8.0004ZM22 17C21.4477 17 21 17.4477 21 18C21 18.5523 21.4477 19 22 19V17ZM15 15L15 29H17L17 15H15ZM20.2929 23.2929L15.2929 28.2929L16.7071 29.7071L21.7071 24.7071L20.2929 23.2929ZM16.7071 28.2929L11.7071 23.2929L10.2929 24.7071L15.2929 29.7071L16.7071 28.2929ZM8.89008 17.0061C8.913 17.0035 8.87093 17.0067 8.71383 17.0077C8.58532 17.0085 8.42396 17.008 8.25862 17.0068C7.94212 17.0047 7.58644 17 7.5 17V19C7.58256 19 7.8948 19.0044 8.245 19.0068C8.41301 19.0079 8.5847 19.0085 8.72643 19.0076C8.83956 19.0069 9.00491 19.0056 9.10992 18.9939L8.89008 17.0061ZM7.5 17C5.56699 17 4 15.433 4 13.5H2C2 16.5376 4.46242 19 7.5 19V17ZM4 13.5C4 11.567 5.56699 10 7.5 10V8C4.46242 8 2 10.4624 2 13.5H4ZM7.49747 10L7.50956 10L7.51461 8.00003L7.50253 8L7.49747 10ZM8.45493 9.33327C9.5536 6.22475 12.5183 4 16 4V2C11.6443 2 7.94152 4.78416 6.56924 8.66679L8.45493 9.33327ZM16 4C19.1398 4 21.859 5.80861 23.1692 8.44538L24.9602 7.55542C23.3252 4.26488 19.928 2 16 2V4ZM24.052 9.00032C26.237 9.02802 28 10.8082 28 13H30C30 9.71216 27.3556 7.04205 24.0774 7.00048L24.052 9.00032ZM28 13C28 15.2091 26.2091 17 24 17V19C27.3137 19 30 16.3137 30 13H28ZM24 17H22V19H24V17Z" fill="black"/>
</svg>
