<svg width="16" height="16" viewBox="0 0 16 16" fill="none" xmlns="http://www.w3.org/2000/svg">
<rect width="16" height="16" fill="white"/>
<path d="M8 9C8 9.55228 7.55229 10 7 10C6.44772 10 6 10.4477 6 11C6 11.5523 6.44771 12 7 12C8.65685 12 10 10.6569 10 9C10 8.44772 9.55229 8 9 8C8.44772 8 8 8.44771 8 9Z" fill="black"/>
<path fill-rule="evenodd" clip-rule="evenodd" d="M7.5 1C7.21594 1 6.98971 1.11451 6.91611 1.15195C6.80195 1.21002 6.69101 1.28139 6.59104 1.35188C6.38821 1.49491 6.15704 1.68661 5.91485 1.90957C5.42746 2.35826 4.8414 2.98349 4.2747 3.72193C3.17007 5.16135 2 7.21168 2 9.32C2 12.4196 4.42583 15 7.5 15C10.5742 15 13 12.4196 13 9.32C13 7.21168 11.8299 5.16135 10.7253 3.72193C10.1586 2.98349 9.57254 2.35826 9.08515 1.90957C8.84296 1.68661 8.61179 1.49491 8.40896 1.35188C8.30899 1.28139 8.19805 1.21002 8.08389 1.15195C8.01029 1.11451 7.78406 1 7.5 1ZM4 9.32C4 7.88362 4.83729 6.27395 5.86134 4.93955C6.35898 4.29108 6.86759 3.75094 7.26944 3.38099C7.35355 3.30356 7.43069 3.2357 7.5 3.17728C7.56931 3.2357 7.64645 3.30356 7.73056 3.38099C8.13241 3.75094 8.64102 4.29108 9.13866 4.93955C10.1627 6.27395 11 7.88362 11 9.32C11 11.3897 9.39639 13 7.5 13C5.60361 13 4 11.3897 4 9.32Z" fill="black"/>
</svg>
