<svg width="32" height="32" viewBox="0 0 32 32" fill="none" xmlns="http://www.w3.org/2000/svg">
<rect width="32" height="32" fill="white"/>
<path d="M21 19C21 21.7614 18.7614 24 16 24C15.4477 24 15 24.4477 15 25C15 25.5523 15.4477 26 16 26C19.866 26 23 22.866 23 19C23 18.4477 22.5523 18 22 18C21.4477 18 21 18.4477 21 19Z" fill="black"/>
<path fill-rule="evenodd" clip-rule="evenodd" d="M16 2C15.7865 2 15.6103 2.05872 15.5045 2.10111C15.3881 2.14774 15.2812 2.20592 15.1895 2.26186C15.0061 2.37362 14.8128 2.51993 14.6203 2.68045C14.2316 3.00455 13.7648 3.45509 13.2565 3.99167C12.2362 5.06883 10.9925 6.55258 9.78662 8.2121C8.58176 9.87022 7.39823 11.7264 6.51169 13.5479C5.63599 15.3472 5 17.2126 5 18.86C5 24.9993 9.91181 30 16 30C22.0882 30 27 24.9993 27 18.86C27 17.2126 26.364 15.3472 25.4883 13.5479C24.6018 11.7264 23.4182 9.87022 22.2134 8.2121C21.0075 6.55258 19.7638 5.06883 18.7435 3.99167C18.2352 3.45509 17.7684 3.00455 17.3797 2.68045C17.1872 2.51993 16.9939 2.37362 16.8105 2.26186C16.7188 2.20592 16.6119 2.14774 16.4955 2.10111C16.3897 2.05872 16.2135 2 16 2ZM7 18.86C7 17.6673 7.47921 16.1302 8.31001 14.4232C9.12997 12.7384 10.2442 10.9846 11.4046 9.38777C12.5639 7.79231 13.7528 6.3761 14.7086 5.36704C15.1884 4.8605 15.5955 4.47136 15.9011 4.21656C15.9364 4.18709 15.9694 4.16028 16 4.13598C16.0306 4.16028 16.0636 4.18709 16.0989 4.21656C16.4045 4.47136 16.8116 4.8605 17.2914 5.36704C18.2472 6.3761 19.4361 7.79231 20.5954 9.38777C21.7558 10.9846 22.87 12.7384 23.69 14.4232C24.5208 16.1302 25 17.6673 25 18.86C25 23.921 20.9575 28 16 28C11.0425 28 7 23.921 7 18.86Z" fill="black"/>
</svg>
