<svg width="16" height="16" viewBox="0 0 16 16" fill="none" xmlns="http://www.w3.org/2000/svg">
<rect width="16" height="16" fill="white"/>
<path fill-rule="evenodd" clip-rule="evenodd" d="M8.00006 2.99999C8.31481 2.99999 8.6112 3.14818 8.80006 3.39999L11.8001 7.39999C12.0273 7.70301 12.0639 8.10842 11.8945 8.4472C11.7251 8.78598 11.3788 8.99999 11.0001 8.99999H5.00006C4.62128 8.99999 4.27502 8.78598 4.10563 8.4472C3.93624 8.10842 3.97279 7.70301 4.20006 7.39999L7.20006 3.39999C7.38891 3.14818 7.6853 2.99999 8.00006 2.99999ZM9.00006 6.99999L8.00006 5.66665L7.00005 6.99999L9.00006 6.99999Z" fill="black"/>
<path d="M5 12C4.44772 12 4 11.5523 4 11C4 10.4477 4.44772 10 5 10H11C11.5523 10 12 10.4477 12 11C12 11.5523 11.5523 12 11 12H5Z" fill="black"/>
<path fill-rule="evenodd" clip-rule="evenodd" d="M0 8C0 3.58172 3.58172 0 8 0C12.4183 0 16 3.58172 16 8C16 12.4183 12.4183 16 8 16C3.58172 16 0 12.4183 0 8ZM8 2C4.68629 2 2 4.68629 2 8C2 11.3137 4.68629 14 8 14C11.3137 14 14 11.3137 14 8C14 4.68629 11.3137 2 8 2Z" fill="black"/>
</svg>
