<svg width="16" height="16" viewBox="0 0 16 16" fill="none" xmlns="http://www.w3.org/2000/svg">
<rect width="16" height="16" fill="white"/>
<path d="M8 4L8.8 3.4C8.61115 3.14819 8.31476 3 8 3C7.68524 3 7.38885 3.14819 7.2 3.4L8 4ZM11 8V9C11.3788 9 11.725 8.786 11.8944 8.44721C12.0638 8.10843 12.0273 7.70302 11.8 7.4L11 8ZM5 8L4.2 7.4C3.97274 7.70302 3.93618 8.10843 4.10557 8.44721C4.27496 8.786 4.62123 9 5 9V8ZM5 10C4.44772 10 4 10.4477 4 11C4 11.5523 4.44772 12 5 12V10ZM11 12C11.5523 12 12 11.5523 12 11C12 10.4477 11.5523 10 11 10V12ZM7.2 4.6L10.2 8.6L11.8 7.4L8.8 3.4L7.2 4.6ZM5.8 8.6L8.8 4.6L7.2 3.4L4.2 7.4L5.8 8.6ZM11 7H5V9H11V7ZM14 8C14 11.3137 11.3137 14 8 14V16C12.4183 16 16 12.4183 16 8H14ZM8 14C4.68629 14 2 11.3137 2 8H0C0 12.4183 3.58172 16 8 16V14ZM2 8C2 4.68629 4.68629 2 8 2V0C3.58172 0 0 3.58172 0 8H2ZM8 2C11.3137 2 14 4.68629 14 8H16C16 3.58172 12.4183 0 8 0V2ZM5 12H11V10H5V12Z" fill="black"/>
</svg>
