<svg width="32" height="32" viewBox="0 0 32 32" fill="none" xmlns="http://www.w3.org/2000/svg">
<rect width="32" height="32" fill="white"/>
<path fill-rule="evenodd" clip-rule="evenodd" d="M18.748 9.83619C17.5473 8.26517 15.1817 8.26517 13.981 9.83619L10.6623 14.1782C9.1535 16.1524 10.5612 19 13.0459 19L19.6831 19C22.1678 19 23.5755 16.1524 22.0667 14.1782L18.748 9.83619ZM15.57 11.0507C15.9702 10.527 16.7588 10.527 17.159 11.0507L20.4776 15.3927C20.9806 16.0508 20.5114 17 19.6831 17L13.0459 17C12.2176 17 11.7484 16.0508 12.2514 15.3927L15.57 11.0507Z" fill="black"/>
<path d="M21.3645 20C21.9168 20 22.3645 20.4477 22.3645 21C22.3645 21.5523 21.9168 22 21.3645 22H11.3645C10.8122 22 10.3645 21.5523 10.3645 21C10.3645 20.4477 10.8122 20 11.3645 20H21.3645Z" fill="black"/>
<path fill-rule="evenodd" clip-rule="evenodd" d="M2 16C2 8.26801 8.26801 2 16 2C23.732 2 30 8.26801 30 16C30 23.732 23.732 30 16 30C8.26801 30 2 23.732 2 16ZM16 4C9.37258 4 4 9.37258 4 16C4 22.6274 9.37258 28 16 28C22.6274 28 28 22.6274 28 16C28 9.37258 22.6274 4 16 4Z" fill="black"/>
</svg>
