<svg width="32" height="32" viewBox="0 0 32 32" fill="none" xmlns="http://www.w3.org/2000/svg">
<rect width="32" height="32" fill="white"/>
<path fill-rule="evenodd" clip-rule="evenodd" d="M29.713 10.7987C29.6692 10.754 29.6219 10.7142 29.5718 10.6793L17.77 2.05494C16.7157 1.2845 15.2842 1.2845 14.2299 2.05494L2.4272 10.68C2.38134 10.712 2.33782 10.7482 2.29721 10.7884C2.1025 10.9802 2.00009 11.2385 1.99988 11.5C1.99981 11.5838 2.01023 11.6678 2.03147 11.7502C2.01092 11.83 2 11.9138 2 12L2 25C2 27.7614 4.23858 30 7 30L25 30C27.7614 30 30 27.7614 30 25L30 12C30 11.9137 29.9891 11.8299 29.9685 11.7499C29.9873 11.6769 29.9976 11.6024 29.9996 11.528C30.0069 11.2617 29.9078 10.9963 29.713 10.7987ZM4.72494 11.478L14.2923 18.1016C15.3197 18.8128 16.6803 18.8128 17.7076 18.1016L27.275 11.478L16.59 3.66972C16.2385 3.41291 15.7614 3.41291 15.4099 3.66972L4.72494 11.478ZM28 13.4086L18.846 19.746C17.1338 20.9313 14.8661 20.9313 13.1539 19.746L4 13.4086L4 25C4 26.6569 5.34314 28 7 28L25 28C26.6569 28 28 26.6569 28 25L28 13.4086Z" fill="black"/>
</svg>
