<svg width="16" height="16" viewBox="0 0 16 16" fill="none" xmlns="http://www.w3.org/2000/svg">
<rect width="16" height="16" fill="white"/>
<path d="M7.47166 3L4.00002 6.56066L4 13L13 13C13 14.1046 12.1046 15 11 15H4C2.89543 15 2 14.1046 2 13L2.00002 6.56066C2.00002 6.039 2.20384 5.53798 2.56801 5.16447L6.03965 1.6038C6.41608 1.21773 6.93244 1 7.47166 1H11C12.1046 1 13 1.89543 13 3L7.47166 3Z" fill="black"/>
<path d="M9.41421 9L9.70711 9.29289C10.0976 9.68342 10.0976 10.3166 9.70711 10.7071C9.31658 11.0976 8.68342 11.0976 8.29289 10.7071L6.29289 8.70711C6.10536 8.51957 6 8.26522 6 8C6 7.73478 6.10536 7.48043 6.29289 7.29289L8.29289 5.29289C8.68342 4.90237 9.31658 4.90237 9.70711 5.29289C10.0976 5.68342 10.0976 6.31658 9.70711 6.70711L9.41421 7L14 7C14.5523 7 15 7.44771 15 8C15 8.55228 14.5523 9 14 9L9.41421 9Z" fill="black"/>
</svg>
