<svg width="32" height="32" viewBox="0 0 32 32" fill="none" xmlns="http://www.w3.org/2000/svg">
<rect width="32" height="32" fill="white"/>
<path d="M25 19C25.5523 19 26 18.5523 26 18C26 17.4477 25.5523 17 25 17V19ZM14 18L13.2929 17.2929C12.9024 17.6834 12.9024 18.3166 13.2929 18.7071L14 18ZM18.7071 14.7071C19.0976 14.3166 19.0976 13.6834 18.7071 13.2929C18.3166 12.9024 17.6834 12.9024 17.2929 13.2929L18.7071 14.7071ZM17.2929 22.7071C17.6834 23.0976 18.3166 23.0976 18.7071 22.7071C19.0976 22.3166 19.0976 21.6834 18.7071 21.2929L17.2929 22.7071ZM6.00003 10L5.29293 9.29289C5.10539 9.48043 5.00003 9.73478 5.00003 10L6.00003 10ZM13 3V2C12.7348 2 12.4805 2.10536 12.2929 2.29289L13 3ZM6 25L7 25L6 25ZM27 25C27 24.4477 26.5523 24 26 24C25.4478 24 25 24.4477 25 25H27ZM26 7H25V7L26 7ZM6.00003 11L5.00003 11L6.00003 11ZM14 11V12C14.5523 12 15 11.5523 15 11H14ZM25 11C25 11.5523 25.4478 12 26 12C26.5523 12 27 11.5523 27 11L25 11ZM25 17H14V19H25V17ZM14.7071 18.7071L18.7071 14.7071L17.2929 13.2929L13.2929 17.2929L14.7071 18.7071ZM13.2929 18.7071L17.2929 22.7071L18.7071 21.2929L14.7071 17.2929L13.2929 18.7071ZM6.70714 10.7071L13.7071 3.70711L12.2929 2.29289L5.29293 9.29289L6.70714 10.7071ZM10 30H22V28H10V30ZM10 28C8.34314 28 7 26.6569 7 25L5 25C4.99999 27.7614 7.23857 30 10 30V28ZM22 30C24.7615 30 27 27.7614 27 25H25C25 26.6569 23.6569 28 22 28V30ZM22 4C23.6569 4 25 5.34315 25 7H27C27 4.23858 24.7615 2 22 2V4ZM13 4H14V2H13V4ZM14 4H22V2H14V4ZM5.00003 10L5.00003 11L7.00003 11L7.00003 10L5.00003 10ZM5.00003 11L5 25L7 25L7.00003 11L5.00003 11ZM13 3V11H15V3H13ZM14 10H6.00003V12H14V10ZM25 7L25 11L27 11L27 7L25 7Z" fill="black"/>
</svg>
