<svg width="16" height="16" viewBox="0 0 16 16" fill="none" xmlns="http://www.w3.org/2000/svg">
<rect width="16" height="16" fill="white"/>
<path fill-rule="evenodd" clip-rule="evenodd" d="M8 5C6.34315 5 5 6.34315 5 8C5 9.65685 6.34315 11 8 11C9.65685 11 11 9.65685 11 8C11 6.34315 9.65685 5 8 5ZM7 8C7 7.44772 7.44772 7 8 7C8.55228 7 9 7.44772 9 8C9 8.55228 8.55228 9 8 9C7.44772 9 7 8.55228 7 8Z" fill="black"/>
<path fill-rule="evenodd" clip-rule="evenodd" d="M16 8C16 7.81214 15.9471 7.62808 15.8473 7.4689L15.8456 7.46615L15.8427 7.46156L15.8334 7.44704C15.8258 7.43501 15.815 7.41834 15.8013 7.39734C15.7739 7.35535 15.7346 7.29598 15.6839 7.2217C15.5827 7.07325 15.4357 6.86464 15.2477 6.61586C14.873 6.11998 14.3288 5.45592 13.6521 4.7882C12.3402 3.49364 10.3441 2 8 2C5.65591 2 3.65978 3.49364 2.34787 4.7882C1.67121 5.45592 1.12699 6.11998 0.75227 6.61586C0.564274 6.86464 0.417316 7.07325 0.316069 7.2217C0.265409 7.29598 0.226085 7.35535 0.198683 7.39734C0.184979 7.41834 0.174246 7.43501 0.166559 7.44704L0.157316 7.46156L0.154422 7.46615L0.152688 7.4689C0.152553 7.46918 0.157602 7.47198 1 8L0.152688 7.4689C0.0529168 7.62808 0 7.81214 0 8C0 8.69242 0.310407 9.40627 0.710985 10.0242C1.12748 10.6667 1.71198 11.3148 2.41466 11.8933C3.81359 13.0451 5.78093 14 8 14C10.2191 14 12.1864 13.0451 13.5853 11.8933C14.288 11.3148 14.8725 10.6667 15.289 10.0242C15.6896 9.40627 16 8.69242 16 8ZM2.3892 8.93627C2.19973 8.64399 2.09605 8.40835 2.04434 8.23863C2.12355 8.12536 2.22537 7.98382 2.34792 7.82164C2.68164 7.38002 3.16255 6.79408 3.75264 6.2118C4.97423 5.00636 6.4781 4 8 4C9.5219 4 11.0258 5.00636 12.2474 6.2118C12.8375 6.79408 13.3184 7.38002 13.6521 7.82164C13.7746 7.98381 13.8765 8.12536 13.9557 8.23863C13.9039 8.40834 13.8003 8.64399 13.6108 8.93627C13.3188 9.38663 12.8782 9.88491 12.3142 10.3493C11.1796 11.2834 9.64692 12 8 12C6.35308 12 4.82042 11.2834 3.68585 10.3493C3.12177 9.88491 2.68115 9.38663 2.3892 8.93627ZM15 8L15.8473 7.4689C15.8475 7.46917 15.8473 7.4689 15 8Z" fill="black"/>
</svg>
