<svg width="32" height="32" viewBox="0 0 32 32" fill="none" xmlns="http://www.w3.org/2000/svg">
<rect width="32" height="32" fill="white"/>
<path fill-rule="evenodd" clip-rule="evenodd" d="M23.332 6.98774C24.6956 5.79398 26.4131 5.74503 27.7571 6.50606C29.0816 7.25599 30 8.75544 30 10.5765V22.4236C30 24.2446 29.0816 25.7441 27.7571 26.494C26.4131 27.2551 24.6956 27.2061 23.332 26.0124L17 20.4692V22.4236C17 24.2446 16.0816 25.7441 14.7571 26.494C13.4131 27.2551 11.6956 27.2061 10.332 26.0124L3.56543 20.0888C1.47819 18.2616 1.47819 14.7385 3.56543 12.9113L10.332 6.98774C11.6956 5.79398 13.4131 5.74503 14.7571 6.50606C16.0816 7.25599 17 8.75544 17 10.5765V12.5309L23.332 6.98774ZM17 16.5C17 17.2844 17.2943 18.0687 17.8828 18.584L24.6493 24.5075C25.3366 25.1092 26.1239 25.1205 26.7717 24.7536C27.4392 24.3757 28 23.5593 28 22.4236V10.5765C28 9.4408 27.4392 8.62437 26.7717 8.24645C26.1239 7.87963 25.3366 7.89088 24.6493 8.49258L17.8828 14.4161C17.2943 14.9313 17 15.7157 17 16.5ZM15 10.5765C15 9.4408 14.4392 8.62437 13.7717 8.24645C13.1239 7.87963 12.3366 7.89088 11.6493 8.49257L4.8828 14.4161C3.70573 15.4466 3.70573 17.5535 4.8828 18.584L11.6493 24.5075C12.3366 25.1092 13.1239 25.1205 13.7717 24.7536C14.4392 24.3757 15 23.5593 15 22.4236V10.5765Z" fill="black"/>
</svg>
