<svg width="16" height="16" viewBox="0 0 16 16" fill="none" xmlns="http://www.w3.org/2000/svg">
<rect width="16" height="16" fill="white"/>
<path d="M2 8L1.4 7.2C1.14153 7.39385 0.992639 7.70065 1.00028 8.02365C1.00792 8.34665 1.17115 8.64606 1.4385 8.82748L2 8ZM8 12.0714L7.4385 12.8989C7.74488 13.1068 8.14107 13.1284 8.46824 12.955C8.79541 12.7817 9 12.4417 9 12.0714H8ZM8 3.5L9 3.5C9 3.12123 8.786 2.77496 8.44721 2.60557C8.10843 2.43618 7.70302 2.47274 7.4 2.7L8 3.5ZM8 8L7.4 7.2C7.14153 7.39385 6.99264 7.70065 7.00028 8.02365C7.00792 8.34665 7.17115 8.64606 7.4385 8.82748L8 8ZM14 12.0714L13.4385 12.8989C13.7449 13.1068 14.1411 13.1284 14.4682 12.955C14.7954 12.7817 15 12.4417 15 12.0714H14ZM14 3.5L15 3.5C15 3.12123 14.786 2.77496 14.4472 2.60557C14.1084 2.43618 13.703 2.47274 13.4 2.7L14 3.5ZM1.4385 8.82748L7.4385 12.8989L8.5615 11.244L2.5615 7.17252L1.4385 8.82748ZM7.4 2.7L1.4 7.2L2.6 8.8L8.6 4.3L7.4 2.7ZM9 12.0714L9 3.5L7 3.5L7 12.0714H9ZM7.4385 8.82748L13.4385 12.8989L14.5615 11.244L8.5615 7.17252L7.4385 8.82748ZM13.4 2.7L7.4 7.2L8.6 8.8L14.6 4.3L13.4 2.7ZM15 12.0714L15 3.5L13 3.5L13 12.0714H15Z" fill="black"/>
</svg>
