<svg width="16" height="16" viewBox="0 0 16 16" fill="none" xmlns="http://www.w3.org/2000/svg">
<rect width="16" height="16" fill="white"/>
<path d="M14 8.00003L14.5615 8.82751C14.8289 8.64609 14.9921 8.34668 14.9997 8.02368C15.0074 7.70068 14.8585 7.39389 14.6 7.20003L14 8.00003ZM8 12.0715H7C7 12.4417 7.20459 12.7817 7.53176 12.9551C7.85893 13.1284 8.25512 13.1068 8.5615 12.8989L8 12.0715ZM8 3.50003L8.6 2.70003C8.29698 2.47277 7.89157 2.43621 7.55279 2.60561C7.214 2.775 7 3.12126 7 3.50003L8 3.50003ZM8 7.92859L8.5615 8.75606C8.82885 8.57465 8.99208 8.27524 8.99972 7.95224C9.00736 7.62924 8.85847 7.32244 8.6 7.12859L8 7.92859ZM2 12H1C1 12.3703 1.20459 12.7102 1.53176 12.8836C1.85893 13.057 2.25512 13.0354 2.5615 12.8275L2 12ZM2 3.42859L2.6 2.62859C2.29698 2.40133 1.89157 2.36477 1.55279 2.53416C1.214 2.70355 1 3.04982 1 3.42859L2 3.42859ZM13.4385 7.17256L7.4385 11.244L8.5615 12.8989L14.5615 8.82751L13.4385 7.17256ZM7.4 4.30003L13.4 8.80003L14.6 7.20003L8.6 2.70003L7.4 4.30003ZM9 12.0715L9 3.50003L7 3.50003L7 12.0715H9ZM7.4385 7.10111L1.4385 11.1725L2.5615 12.8275L8.5615 8.75606L7.4385 7.10111ZM1.4 4.22859L7.4 8.72859L8.6 7.12859L2.6 2.62859L1.4 4.22859ZM3 12L3 3.42859L1 3.42859L1 12H3Z" fill="black"/>
</svg>
