<svg width="16" height="16" viewBox="0 0 16 16" fill="none" xmlns="http://www.w3.org/2000/svg">
<rect width="16" height="16" fill="white"/>
<path fill-rule="evenodd" clip-rule="evenodd" d="M7 9.81554L2.5615 12.8274C2.25512 13.0353 1.85893 13.0569 1.53176 12.8835C1.20459 12.7101 1 12.3702 1 11.9999V3.42847C1 3.0497 1.214 2.70344 1.55279 2.53405C1.89157 2.36465 2.29698 2.40121 2.6 2.62847L7 5.92847V3.50001C7 3.12123 7.214 2.77497 7.55279 2.60558C7.89157 2.43619 8.29698 2.47274 8.6 2.70001L14.6 7.20001C14.8585 7.39386 15.0074 7.70065 14.9997 8.02365C14.9921 8.34666 14.8289 8.64606 14.5615 8.82748L8.5615 12.8989C8.25512 13.1068 7.85893 13.1284 7.53176 12.955C7.20459 12.7817 7 12.4417 7 12.0714V9.81554ZM3 10.1128V5.42847L6.27905 7.88776L3 10.1128ZM9 10.1844L9 5.50001L12.2791 7.9593L9 10.1844Z" fill="black"/>
</svg>
