<svg width="32" height="32" viewBox="0 0 32 32" fill="none" xmlns="http://www.w3.org/2000/svg">
<rect width="32" height="32" fill="white"/>
<path fill-rule="evenodd" clip-rule="evenodd" d="M12.2929 2.29289C12.4805 2.10536 12.7348 2 13 2H22C24.7615 2 27 4.23858 27 7L27 25C27 27.7614 24.7615 30 22 30H10C7.23857 30 4.99999 27.7614 5 25L5.00003 10C5.00003 9.73478 5.10539 9.48043 5.29293 9.29289L12.2929 2.29289ZM13 4.41425V10H7.41425L13 4.41425ZM7.00003 12H14C14.5523 12 15 11.5523 15 11V4H22C23.6569 4 25 5.34315 25 7L25 25C25 26.6569 23.6569 28 22 28H10C8.34314 28 7 26.6569 7 25L7.00003 12Z" fill="black"/>
</svg>
