<svg width="32" height="32" viewBox="0 0 32 32" fill="none" xmlns="http://www.w3.org/2000/svg">
<rect width="32" height="32" fill="white"/>
<path fill-rule="evenodd" clip-rule="evenodd" d="M26.1153 2.00001C28.2607 2.00002 30 3.73927 30 5.88474C30 6.85113 29.6398 7.78282 28.9897 8.49789L20 18.3866V26.7639C20 28.9941 17.6531 30.4446 15.6584 29.4472L13.6584 28.4472C12.642 27.939 12 26.9002 12 25.7639V18.3866L3.01027 8.4979C2.3602 7.78283 2 6.85113 2 5.88474C2 3.73926 3.73926 2 5.88474 2L26.1153 2.00001ZM28 5.88474C28 4.84384 27.1562 4.00002 26.1153 4.00001L5.88474 4C4.84383 4 4 4.84383 4 5.88474C4 6.3536 4.17476 6.80562 4.49015 7.15255L14 17.6134V25.7639C14 26.1427 14.214 26.489 14.5528 26.6584L16.5528 27.6584C17.2177 27.9908 18 27.5073 18 26.7639V17.6134L27.5099 7.15255C27.8252 6.80562 28 6.3536 28 5.88474Z" fill="black"/>
</svg>
