<svg width="16" height="16" viewBox="0 0 16 16" fill="none" xmlns="http://www.w3.org/2000/svg">
<rect width="16" height="16" fill="white"/>
<path fill-rule="evenodd" clip-rule="evenodd" d="M12 3.23352V3.00001L4 3V3.23352L6.65969 7.18895C6.88152 7.51885 7 7.90739 7 8.30494L7 12.5938L9 13.1708L9 8.30494C9 7.90739 9.11848 7.51885 9.34032 7.18895L12 3.23352ZM14 3.00001V3.23352C14 3.63107 13.8815 4.01961 13.6597 4.34951L11 8.30494V13.1708C11 14.5016 9.72441 15.4613 8.44568 15.0924L6.44568 14.5155C5.58951 14.2685 5 13.4849 5 12.5938L5 8.30494L2.34031 4.34951C2.11848 4.01961 2 3.63107 2 3.23352L2 3C2 1.89543 2.89543 0.999999 4 1L12 1.00001C13.1046 1.00001 14 1.89544 14 3.00001Z" fill="black"/>
</svg>
