<svg width="16" height="16" viewBox="0 0 16 16" fill="none" xmlns="http://www.w3.org/2000/svg">
<rect width="16" height="16" fill="white"/>
<path fill-rule="evenodd" clip-rule="evenodd" d="M5 2C5 1.44772 4.55228 1 4 1C3.44772 1 3 1.44772 3 2V6H2C1.44772 6 1 6.44772 1 7V13C1 13.5523 1.44772 14 2 14H3L3 14.5C3 15.0523 3.44772 15.5 4 15.5C4.55228 15.5 5 15.0523 5 14.5V14H6C6.55228 14 7 13.5523 7 13V7C7 6.44772 6.55228 6 6 6H5V2ZM5 12H3V8H5V12Z" fill="black"/>
<path fill-rule="evenodd" clip-rule="evenodd" d="M11 15.5C10.4477 15.5 10 15.0523 10 14.5L10 10H9C8.44771 10 8 9.55228 8 9L8 3C8 2.44772 8.44772 2 9 2H10C10 1.44772 10.4477 1 11 1C11.5523 1 12 1.44772 12 2L13 2C13.5523 2 14 2.44772 14 3L14 9C14 9.55229 13.5523 10 13 10H12L12 14.5C12 15.0523 11.5523 15.5 11 15.5ZM11.0007 4H12L12 8L10 8V4H10.9993C10.9995 4 10.9991 4 10.9993 4C10.9995 4 11.0005 4 11.0007 4Z" fill="black"/>
</svg>
