<svg width="32" height="32" viewBox="0 0 32 32" fill="none" xmlns="http://www.w3.org/2000/svg">
<rect width="32" height="32" fill="white"/>
<path fill-rule="evenodd" clip-rule="evenodd" d="M9 3C9 2.44772 8.55228 2 8 2C7.44772 2 7 2.44772 7 3V12H6C4.34315 12 3 13.3431 3 15V23C3 24.6569 4.34315 26 6 26H7L7 29C7 29.5523 7.44772 30 8 30C8.55228 30 9 29.5523 9 29L9 26H10C11.6569 26 13 24.6569 13 23V15C13 13.3431 11.6569 12 10 12H9V3ZM6 14C5.44772 14 5 14.4477 5 15V23C5 23.5523 5.44772 24 6 24H10C10.5523 24 11 23.5523 11 23V15C11 14.4477 10.5523 14 10 14H6Z" fill="black"/>
<path fill-rule="evenodd" clip-rule="evenodd" d="M22 30C21.4477 30 21 29.5523 21 29L21 20H20C18.3431 20 17 18.6569 17 17L17 9C17 7.34315 18.3431 6 20 6L21 6L21 3C21 2.44772 21.4477 2 22 2C22.5523 2 23 2.44772 23 3L23 6H24C25.6569 6 27 7.34315 27 9L27 17C27 18.6569 25.6569 20 24 20H23L23 29C23 29.5523 22.5523 30 22 30ZM25 17C25 17.5523 24.5523 18 24 18L20 18C19.4477 18 19 17.5523 19 17L19 9C19 8.44772 19.4477 8 20 8H24C24.5523 8 25 8.44772 25 9L25 17Z" fill="black"/>
</svg>
