<svg width="32" height="32" viewBox="0 0 32 32" fill="none" xmlns="http://www.w3.org/2000/svg">
<rect width="32" height="32" fill="white"/>
<path fill-rule="evenodd" clip-rule="evenodd" d="M5.00031 2.99989C5.00032 2.44761 4.55261 1.99988 4.00032 1.99988C3.44804 1.99987 3.00032 2.44758 3.00031 2.99987L3.0003 3.97545C3.0001 3.98366 3 3.9919 3 4.00016C3 4.00841 3.0001 4.01664 3.0003 4.02485L3.00006 23.989C3.00002 23.9927 3 23.9964 3 24.0002C3 24.0039 3.00002 24.0076 3.00006 24.0113L3 29.0001C3 29.5524 3.44771 30.0001 3.99999 30.0001C4.55227 30.0001 5 29.5524 5 29.0001L5.00005 25.0002L24.9892 25.0002C27.6995 25.0002 29.0204 21.6909 27.055 19.8247L21.6847 14.7253C21.2695 14.331 21.2695 13.6693 21.6847 13.275L27.055 8.17564C29.0204 6.30939 27.6995 3.00016 24.9892 3.00016L5.00031 2.99989ZM5.00029 5.00016L5.00007 23.0002L24.9892 23.0002C25.8927 23.0002 26.3329 21.8971 25.6778 21.275L20.3075 16.1756C19.0619 14.9928 19.0619 13.0075 20.3075 11.8247L25.6778 6.72532C26.3329 6.10323 25.8927 5.00016 24.9892 5.00016L5.00029 5.00016Z" fill="black"/>
</svg>
