<svg width="16" height="16" viewBox="0 0 16 16" fill="none" xmlns="http://www.w3.org/2000/svg">
<rect width="16" height="16" fill="white"/>
<path fill-rule="evenodd" clip-rule="evenodd" d="M3.77749 12L13.7777 12C14.1623 12 14.5128 11.7794 14.6792 11.4326C14.8456 11.0858 14.7984 10.6744 14.5577 10.3743L11.4502 6.5L14.5577 2.62569C14.7984 2.32564 14.8456 1.91416 14.6792 1.56738C14.5128 1.22061 14.1623 1 13.7777 1H2.77766C2.22538 1 1.77766 1.44772 1.77766 2C1.77766 2.08629 1.78859 2.17003 1.80914 2.2499C1.78855 2.32984 1.7776 2.41365 1.7776 2.50001L1.77747 14.0554C1.77746 14.6076 2.22517 15.0554 2.77745 15.0554C3.32974 15.0554 3.77746 14.6077 3.77747 14.0554L3.77749 12ZM3.77751 10H11.6937L9.38821 7.12569C9.09498 6.7601 9.09498 6.2399 9.38821 5.87431L11.6937 3L3.7776 3L3.77751 10Z" fill="black"/>
</svg>
