<svg width="32" height="32" viewBox="0 0 32 32" fill="none" xmlns="http://www.w3.org/2000/svg">
<rect width="32" height="32" fill="white"/>
<path fill-rule="evenodd" clip-rule="evenodd" d="M6.34878 9.67986C7.38607 5.28103 11.3074 2 16 2C20.6926 2 24.6139 5.28103 25.6512 9.67986C28.6747 10.071 31 12.6755 31 15.8146C31 19.1986 28.2979 21.9617 24.9312 21.9999L24.9198 22.0001L7.06881 22C3.70214 21.9617 1 19.1986 1 15.8146C1 12.6755 3.32526 10.071 6.34878 9.67986ZM16 4C12.0441 4 8.754 6.93391 8.17168 10.7791L8.0418 11.6367L7.17446 11.6293L7.13924 11.6291C4.86162 11.6291 3 13.4946 3 15.8146C3 18.1166 4.83305 19.9715 7.08613 20H24.9139C27.167 19.9715 29 18.1166 29 15.8146C29 13.4946 27.1384 11.6291 24.8608 11.6291L24.8255 11.6293L23.9582 11.6367L23.8283 10.7791C23.246 6.93391 19.9559 4 16 4Z" fill="black"/>
<path d="M6 25C6 24.4477 6.44771 24 7 24H26C26.5523 24 27 24.4477 27 25C27 25.5523 26.5523 26 26 26L7 26C6.44771 26 6 25.5523 6 25Z" fill="black"/>
<path d="M11 28C10.4477 28 10 28.4477 10 29C10 29.5523 10.4477 30 11 30L22 30C22.5523 30 23 29.5523 23 29C23 28.4477 22.5523 28 22 28H11Z" fill="black"/>
</svg>
