<svg width="16" height="16" viewBox="0 0 16 16" fill="none" xmlns="http://www.w3.org/2000/svg">
<g clip-path="url(#clip0)">
<rect width="16" height="16" fill="white"/>
<path d="M15 6H14H15ZM15 12H16H15ZM14 5V4V5ZM9.98549 5V6V5ZM9.1633 4.56921L9.98549 4V4L9.1633 4.56921ZM8.37516 3.43079L7.55297 4V4L8.37516 3.43079ZM7.55297 3V4V3ZM4 3V2V3ZM3 4H4H3ZM14 13V12V13ZM0.9087 9.5145L0.0512072 10.029L0.9087 9.5145ZM2.7087 12.5145L3.56619 12L3.56619 12L2.7087 12.5145ZM12.9194 13V12V13ZM3.56619 13V14V13ZM11.3002 8.37531L12.0811 7.75061V7.75061L11.3002 8.37531ZM13.7002 11.3753L12.9194 12L13.7002 11.3753ZM10.5194 8V7V8ZM1.76619 8V9V8ZM14 6V12H16V6H14ZM14 4H9.98549V6H14V4ZM9.98549 4L9.19736 2.86158L7.55297 4L8.34111 5.13842L9.98549 4ZM7.55297 2L4 2V4L7.55297 4V2ZM2 4L2 8H4L4 4H2ZM14 12H12V14H14V12ZM9.19736 2.86158C8.82379 2.32199 8.20926 2 7.55297 2V4L7.55297 4L9.19736 2.86158ZM9.98549 4L9.98549 4L8.34111 5.13842C8.71468 5.67802 9.3292 6 9.98549 6V4ZM16 6C16 4.89543 15.1046 4 14 4V6H16ZM4 2C2.89543 2 2 2.89543 2 4H4L4 4V2ZM14 12V12V14C15.1046 14 16 13.1046 16 12H14ZM0.0512072 10.029L1.85121 13.029L3.56619 12L1.76619 9L0.0512072 10.029ZM12.9194 12L3.56619 12V14L12.9194 14V12ZM10.5194 9L12.9194 12L14.4811 10.7506L12.0811 7.75061L10.5194 9ZM10.5194 7H1.76619V9H10.5194V7ZM12.0811 7.75061C11.7016 7.27618 11.1269 7 10.5194 7V9V9L12.0811 7.75061ZM1.76619 9L1.76619 9V7C0.211601 7 -0.748621 8.69594 0.0512072 10.029L1.76619 9ZM1.85121 13.029C2.21265 13.6314 2.86367 14 3.56619 14V12H3.56619L1.85121 13.029ZM12.9194 14C14.5964 14 15.5287 12.0601 14.4811 10.7506L12.9194 12V14Z" fill="black"/>
</g>
<defs>
<clipPath id="clip0">
<rect width="16" height="16" fill="white"/>
</clipPath>
</defs>
</svg>
