<svg width="32" height="32" viewBox="0 0 32 32" fill="none" xmlns="http://www.w3.org/2000/svg">
<rect width="32" height="32" fill="white"/>
<path d="M25 7.99999V6.99999V7.99999ZM17 7.99999L16.1425 8.51449L16.4338 8.99999H17V7.99999ZM14 3L14.8575 2.4855L14.5662 2L14 2V3ZM7 3V2V3ZM3 7H2H3ZM29 12H28H29ZM28 20.5C28 21.0523 28.4477 21.5 29 21.5C29.5523 21.5 30 21.0523 30 20.5H28ZM3 20H2H3ZM3 25H4H3ZM25 29V28V29ZM7.00001 29L7.00001 30L7.00001 29ZM29 20H28H29ZM29 25H30H29ZM25 16V15V16ZM7 16L7 17L7 16ZM25 6.99999H17V8.99999H25V6.99999ZM17.8575 7.4855L14.8575 2.4855L13.1425 3.5145L16.1425 8.51449L17.8575 7.4855ZM14 2L7 2V4L14 4V2ZM2 7L2 20.5H4L4 7H2ZM28 12V20.5H30V12H28ZM25 8.99999C26.6569 8.99999 28 10.3431 28 12H30C30 9.23857 27.7614 6.99999 25 6.99999V8.99999ZM7 2C4.23858 2 2 4.23858 2 7H4C4 5.34315 5.34315 4 7 4V2ZM2 20L2 25H4L4 20H2ZM25 28L7.00001 28L7.00001 30L25 30V28ZM28 20V25H30V20H28ZM25 15L7 15L7 17L25 17V15ZM30 20C30 17.2386 27.7614 15 25 15V17C26.6569 17 28 18.3431 28 20H30ZM4 20C4 18.3432 5.34315 17 7 17L7 15C4.23858 15 2 17.2386 2 20H4ZM2 25C2 27.7614 4.23858 30 7.00001 30L7.00001 28C5.34315 28 4 26.6569 4 25H2ZM25 30C27.7614 30 30 27.7614 30 25H28C28 26.6569 26.6569 28 25 28V30Z" fill="black"/>
</svg>
