<svg width="16" height="16" viewBox="0 0 16 16" fill="none" xmlns="http://www.w3.org/2000/svg">
<rect width="16" height="16" fill="white"/>
<path d="M14 6H13H14ZM14 12H15H14ZM13 5V4V5ZM8.98549 5V6V5ZM8.1633 4.56921L8.98549 4V4L8.1633 4.56921ZM7.37516 3.43079L6.55297 4V4L7.37516 3.43079ZM6.55297 3V4V3ZM3 3V2V3ZM2 4H1V4L2 4ZM2 12H3H2ZM13 13V12V13ZM3 13V14H3L3 13ZM13 6V12H15V6H13ZM13 4H8.98549V6H13V4ZM8.98549 4L8.19736 2.86158L6.55297 4L7.34111 5.13842L8.98549 4ZM6.55297 2L3 2V4L6.55297 4V2ZM8.19736 2.86158C7.82379 2.32199 7.20926 2 6.55297 2V4L6.55297 4L8.19736 2.86158ZM8.98549 4L8.98549 4L7.34111 5.13842C7.71467 5.67802 8.3292 6 8.98549 6V4ZM15 6C15 4.89543 14.1046 4 13 4V6H15ZM3 2C1.89543 2 1 2.89543 1 4H3L3 4V2ZM1 12C1 13.1046 1.89543 14 3 14V12H1ZM13 12L13 12V14C14.1046 14 15 13.1046 15 12H13ZM1 4L1 12H3L3 4L1 4ZM13 12L3 12L3 14L13 14V12Z" fill="black"/>
</svg>
