<svg width="32" height="32" viewBox="0 0 32 32" fill="none" xmlns="http://www.w3.org/2000/svg">
<rect width="32" height="32" fill="white"/>
<path fill-rule="evenodd" clip-rule="evenodd" d="M2.05035 25.5H2V7C2 4.23858 4.23858 2 7 2H14.5662L17.5662 6.99999L25 6.99999C27.7614 6.99999 30 9.23857 30 12L30 16.0195C31.4934 17.1601 32.3079 19.113 31.8438 21.1243L30.6899 26.1243C30.1664 28.3929 28.1462 30 25.818 30L7.02823 30C4.37827 30 2.29603 27.9684 2.05035 25.5ZM25 8.99999C26.6569 8.99999 28 10.3431 28 12L28 15.1049C27.6694 15.0362 27.3257 15 26.9718 15L8.18207 15C6.45845 15 4.9037 15.8807 4 17.2586L4 7C4 5.34315 5.34315 4 7 4L13.4338 4L16.4338 8.99999H25ZM26.9718 17C28.9011 17 30.3288 18.7947 29.895 20.6746L28.7411 25.6746C28.427 27.0358 27.2149 28 25.818 28L7.02823 28C5.09897 28 3.67124 26.2053 4.10505 24.3254L5.2589 19.3254C5.57302 17.9642 6.7851 17 8.18207 17L26.9718 17Z" fill="black"/>
</svg>
