<svg width="16" height="16" viewBox="0 0 16 16" fill="none" xmlns="http://www.w3.org/2000/svg">
<rect width="16" height="16" fill="white"/>
<path fill-rule="evenodd" clip-rule="evenodd" d="M1 3.5C1 2.11929 2.11929 1 3.5 1C4.31791 1 5.04408 1.39278 5.50018 2H10.4998C10.9559 1.39278 11.6821 1 12.5 1C13.8807 1 15 2.11929 15 3.5C15 4.31791 14.6072 5.04408 14 5.50018L14 10.4998C14.6072 10.9559 15 11.6821 15 12.5C15 13.8807 13.8807 15 12.5 15C11.6821 15 10.9559 14.6072 10.4998 14H5.50018C5.04408 14.6072 4.31791 15 3.5 15C2.11929 15 1 13.8807 1 12.5C1 11.6821 1.39278 10.9559 2 10.4998L2 5.50018C1.39278 5.04408 1 4.31791 1 3.5ZM3.5 3C3.22386 3 3 3.22386 3 3.5C3 3.77614 3.22386 4 3.5 4C3.77614 4 4 3.77614 4 3.5C4 3.22386 3.77614 3 3.5 3ZM12 10.05L12 5.94999C11.0204 5.75115 10.2488 4.97957 10.05 4H5.94999C5.75115 4.97956 4.97957 5.75115 4 5.94999L4 10.05C4.97957 10.2488 5.75115 11.0204 5.94999 12H10.05C10.2488 11.0204 11.0204 10.2488 12 10.05ZM12 3.5C12 3.22386 12.2239 3 12.5 3C12.7761 3 13 3.22386 13 3.5C13 3.77614 12.7761 4 12.5 4C12.2239 4 12 3.77614 12 3.5ZM12 12.5C12 12.2239 12.2239 12 12.5 12C12.7761 12 13 12.2239 13 12.5C13 12.7761 12.7761 13 12.5 13C12.2239 13 12 12.7761 12 12.5ZM3 12.5C3 12.2239 3.22386 12 3.5 12C3.77614 12 4 12.2239 4 12.5C4 12.7761 3.77614 13 3.5 13C3.22386 13 3 12.7761 3 12.5Z" fill="black"/>
</svg>
