<svg width="32" height="32" viewBox="0 0 32 32" fill="none" xmlns="http://www.w3.org/2000/svg">
<rect width="32" height="32" fill="white"/>
<path fill-rule="evenodd" clip-rule="evenodd" d="M9.87398 5C9.42994 3.27477 7.86384 2 6 2C3.79086 2 2 3.79086 2 6C2 7.86384 3.27477 9.42994 5 9.87398L5 22.126C3.27477 22.5701 2 24.1362 2 26C2 28.2091 3.79086 30 6 30C7.86384 30 9.42994 28.7252 9.87398 27H22.126C22.5701 28.7252 24.1362 30 26 30C28.2091 30 30 28.2091 30 26C30 24.1362 28.7252 22.5701 27 22.126L27 9.87398C28.7252 9.42994 30 7.86384 30 6C30 3.79086 28.2091 2 26 2C24.1362 2 22.5701 3.27477 22.126 5H9.87398ZM6 4C4.89543 4 4 4.89543 4 6C4 7.10457 4.89543 8 6 8C7.10457 8 8 7.10457 8 6C8 4.89543 7.10457 4 6 4ZM25 9.87398C23.5944 9.51221 22.4878 8.40561 22.126 7H9.87398C9.5122 8.40561 8.40561 9.5122 7 9.87398L7 22.126C8.40561 22.4878 9.5122 23.5944 9.87398 25H22.126C22.4878 23.5944 23.5944 22.4878 25 22.126L25 9.87398ZM26 24C24.8954 24 24 24.8954 24 26C24 27.1046 24.8954 28 26 28C27.1046 28 28 27.1046 28 26C28 24.8954 27.1046 24 26 24ZM4 26C4 24.8954 4.89543 24 6 24C7.10457 24 8 24.8954 8 26C8 27.1046 7.10457 28 6 28C4.89543 28 4 27.1046 4 26ZM24 6C24 7.10457 24.8954 8 26 8C27.1046 8 28 7.10457 28 6C28 4.89543 27.1046 4 26 4C24.8954 4 24 4.89543 24 6Z" fill="black"/>
</svg>
