<svg width="16" height="16" viewBox="0 0 16 16" fill="none" xmlns="http://www.w3.org/2000/svg">
<rect width="16" height="16" fill="white"/>
<path fill-rule="evenodd" clip-rule="evenodd" d="M13.2261 13C13.5597 13 13.8168 12.7059 13.7723 12.3753L12.7435 4.73318C12.6099 3.74068 11.7628 3 10.7614 3L5.23859 3C4.23714 3 3.39007 3.74068 3.25646 4.73318L2.22771 12.3753C2.18321 12.7059 2.44032 13 2.77391 13C2.97513 13 3.16036 12.8903 3.25713 12.7139L4.93839 9.6483C5.46511 8.68789 6.4734 8.0909 7.56876 8.09089L8.43119 8.09089C9.52657 8.09088 10.5349 8.68788 11.0616 9.6483L12.7429 12.7139C12.8396 12.8903 13.0248 13 13.2261 13ZM15.7544 12.1085C15.9604 13.6389 14.7702 15 13.226 15C12.2946 15 11.4372 14.4923 10.9893 13.6756L9.308 10.61C9.13243 10.2899 8.79633 10.0909 8.4312 10.0909L7.56877 10.0909C7.20365 10.0909 6.86755 10.2899 6.69198 10.61L5.01071 13.6756C4.5628 14.4923 3.70538 15 2.77391 15C1.22972 15 0.0395796 13.6389 0.245591 12.1085L1.27434 4.46635C1.54155 2.48136 3.23569 1 5.23859 1L10.7614 1C12.7643 1 14.4584 2.48136 14.7256 4.46635L15.7544 12.1085Z" fill="black"/>
</svg>
