<svg width="32" height="32" viewBox="0 0 32 32" fill="none" xmlns="http://www.w3.org/2000/svg">
<rect width="32" height="32" fill="white"/>
<path fill-rule="evenodd" clip-rule="evenodd" d="M25.6966 26C26.838 26 27.7171 24.993 27.5628 23.8621L25.5989 9.45958C25.3286 7.47764 23.6358 6.00003 21.6355 6.00003L10.3645 6.00003C8.36417 6.00003 6.67139 7.47764 6.40113 9.45958L4.43716 23.862C4.28294 24.9929 5.162 26 6.30336 26C6.98737 26 7.61762 25.6292 7.94981 25.0312L11.5543 18.5431C12.0834 17.5907 13.0873 17 14.1768 17L17.8232 17C18.9127 17 19.9166 17.5907 20.4457 18.5431L24.0502 25.0312C24.3824 25.6292 25.0126 26 25.6966 26ZM29.5445 23.5919C29.8625 25.9236 28.0499 28 25.6966 28C24.2863 28 22.9868 27.2354 22.3019 26.0025L18.6974 19.5144C18.521 19.1969 18.1864 19 17.8232 19L14.1768 19C13.8136 19 13.479 19.1969 13.3027 19.5144L9.69812 26.0025C9.01319 27.2354 7.71371 28 6.30336 28C3.95003 28 2.13753 25.9236 2.4555 23.5918L4.41947 9.18935C4.82486 6.21644 7.36403 4.00003 10.3645 4.00003L21.6355 4.00003C24.636 4.00003 27.1751 6.21644 27.5805 9.18935L29.5445 23.5919Z" fill="black"/>
</svg>
