<svg width="32" height="32" viewBox="0 0 32 32" fill="none" xmlns="http://www.w3.org/2000/svg">
<rect width="32" height="32" fill="white"/>
<path d="M26.5897 9.32447L27.5805 9.18935L26.5897 9.32447ZM28.5537 23.727L27.5628 23.8621L28.5537 23.727ZM5.4103 9.32447L6.40113 9.45958V9.45958L5.4103 9.32447ZM3.44633 23.7269L4.43716 23.862L3.44633 23.7269ZM21.6355 5.00003V4.00003V5.00003ZM12.4285 19.0287L13.3027 19.5144L13.3027 19.5144L12.4285 19.0287ZM8.82396 25.5169L7.94981 25.0312L7.94981 25.0312L8.82396 25.5169ZM23.1761 25.5169L22.3019 26.0025L23.1761 25.5169ZM19.5715 19.0287L18.6974 19.5144H18.6974L19.5715 19.0287ZM17.8232 18L17.8232 19L17.8232 18ZM14.1768 18L14.1768 17L14.1768 18ZM6.30336 27V26V27ZM25.6966 27L25.6966 28L25.6966 27ZM25.5989 9.45958L27.5628 23.8621L29.5445 23.5919L27.5805 9.18935L25.5989 9.45958ZM4.41947 9.18935L2.4555 23.5918L4.43716 23.862L6.40113 9.45958L4.41947 9.18935ZM21.6355 4.00003L10.3645 4.00003V6.00003L21.6355 6.00003V4.00003ZM11.5543 18.5431L7.94981 25.0312L9.69812 26.0025L13.3027 19.5144L11.5543 18.5431ZM24.0502 25.0312L20.4457 18.5431L18.6974 19.5144L22.3019 26.0025L24.0502 25.0312ZM17.8232 17L14.1768 17L14.1768 19L17.8232 19L17.8232 17ZM20.4457 18.5431C19.9166 17.5907 18.9127 17 17.8232 17L17.8232 19C18.1864 19 18.521 19.1969 18.6974 19.5144L20.4457 18.5431ZM7.94981 25.0312C7.61762 25.6292 6.98737 26 6.30336 26V28C7.71371 28 9.01319 27.2354 9.69812 26.0025L7.94981 25.0312ZM25.6966 26C25.0126 26 24.3824 25.6292 24.0502 25.0312L22.3019 26.0025C22.9868 27.2354 24.2863 28 25.6966 28L25.6966 26ZM13.3027 19.5144C13.479 19.1969 13.8136 19 14.1768 19L14.1768 17C13.0873 17 12.0834 17.5907 11.5543 18.5431L13.3027 19.5144ZM27.5805 9.18935C27.1751 6.21644 24.636 4.00003 21.6355 4.00003V6.00003C23.6358 6.00003 25.3286 7.47764 25.5989 9.45958L27.5805 9.18935ZM6.40113 9.45958C6.67139 7.47764 8.36417 6.00003 10.3645 6.00003V4.00003C7.36403 4.00003 4.82486 6.21644 4.41947 9.18935L6.40113 9.45958ZM2.4555 23.5918C2.13753 25.9236 3.95003 28 6.30336 28V26C5.162 26 4.28294 24.9929 4.43716 23.862L2.4555 23.5918ZM27.5628 23.8621C27.7171 24.993 26.838 26 25.6966 26L25.6966 28C28.05 28 29.8625 25.9236 29.5445 23.5919L27.5628 23.8621Z" fill="black"/>
</svg>
