<svg width="16" height="16" viewBox="0 0 16 16" fill="none" xmlns="http://www.w3.org/2000/svg">
<rect width="16" height="16" fill="white"/>
<path d="M13.7346 4.59976L12.7435 4.73318V4.73318L13.7346 4.59976ZM14.7633 12.2419L15.7544 12.1085L14.7633 12.2419ZM2.26541 4.59976L3.25647 4.73318V4.73318L2.26541 4.59976ZM1.23666 12.2419L0.245601 12.1085L1.23666 12.2419ZM10.7614 2V1V2ZM5.2386 2V3V2ZM5.8152 10.1292L4.9384 9.6483L4.9384 9.6483L5.8152 10.1292ZM4.13393 13.1947L3.25713 12.7139H3.25713L4.13393 13.1947ZM11.8661 13.1947L10.9893 13.6756L11.8661 13.1947ZM10.1848 10.1292L11.0616 9.6483L10.1848 10.1292ZM8.43121 9.09089L8.4312 8.09089H8.4312L8.43121 9.09089ZM7.56877 9.0909L7.56878 10.0909H7.56878L7.56877 9.0909ZM2.77392 14V13V14ZM13.2261 14L13.2261 15H13.2261L13.2261 14ZM12.7435 4.73318L13.7723 12.3753L15.7544 12.1085L14.7256 4.46635L12.7435 4.73318ZM1.27435 4.46635L0.245601 12.1085L2.22772 12.3753L3.25647 4.73318L1.27435 4.46635ZM10.7614 1L5.2386 1V3L10.7614 3V1ZM4.9384 9.6483L3.25713 12.7139L5.01072 13.6756L6.69199 10.61L4.9384 9.6483ZM12.7429 12.7139L11.0616 9.6483L9.30801 10.61L10.9893 13.6756L12.7429 12.7139ZM8.4312 8.09089L7.56877 8.0909L7.56878 10.0909L8.43121 10.0909L8.4312 8.09089ZM11.0616 9.6483C10.5349 8.68788 9.52658 8.09089 8.4312 8.09089L8.43121 10.0909C8.79634 10.0909 9.13244 10.2899 9.30801 10.61L11.0616 9.6483ZM3.25713 12.7139C3.16037 12.8903 2.97514 13 2.77392 13V15C3.70539 15 4.56281 14.4923 5.01072 13.6756L3.25713 12.7139ZM13.2261 13C13.0249 13 12.8396 12.8903 12.7429 12.7139L10.9893 13.6756C11.4372 14.4923 12.2946 15 13.2261 15L13.2261 13ZM6.69199 10.61C6.86756 10.2899 7.20366 10.0909 7.56878 10.0909L7.56877 8.0909C6.47341 8.0909 5.46512 8.68789 4.9384 9.6483L6.69199 10.61ZM14.7256 4.46635C14.4584 2.48136 12.7643 1 10.7614 1V3C11.7628 3 12.6099 3.74068 12.7435 4.73318L14.7256 4.46635ZM3.25647 4.73318C3.39008 3.74068 4.23715 3 5.2386 3V1C3.2357 1 1.54156 2.48136 1.27435 4.46635L3.25647 4.73318ZM0.245601 12.1085C0.0395888 13.6389 1.22974 15 2.77392 15V13C2.44032 13 2.18322 12.7059 2.22772 12.3753L0.245601 12.1085ZM13.7723 12.3753C13.8168 12.7059 13.5597 13 13.2261 13L13.2261 15C14.7702 15 15.9604 13.6389 15.7544 12.1085L13.7723 12.3753Z" fill="black"/>
</svg>
