<svg width="16" height="16" viewBox="0 0 16 16" fill="none" xmlns="http://www.w3.org/2000/svg">
<rect width="16" height="16" fill="white"/>
<path fill-rule="evenodd" clip-rule="evenodd" d="M15 8C15 11.866 11.866 15 8 15C4.13401 15 1 11.866 1 8C1 4.13401 4.13401 1 8 1C11.866 1 15 4.13401 15 8ZM10.9738 7C10.9069 5.7345 10.7141 4.56971 10.4218 3.62462C11.6797 4.32234 12.605 5.54672 12.9 7H10.9738ZM8.9707 7C8.90168 5.83767 8.7157 4.8241 8.46553 4.07359C8.30662 3.59686 8.13922 3.27937 8 3.09935C7.86078 3.27937 7.69338 3.59686 7.53447 4.07359C7.2843 4.8241 7.09832 5.83767 7.0293 7H8.9707ZM7.0293 9H8.9707C8.90168 10.1623 8.7157 11.1759 8.46553 11.9264C8.30662 12.4031 8.13922 12.7206 8 12.9006C7.86078 12.7206 7.69338 12.4031 7.53447 11.9264C7.2843 11.1759 7.09832 10.1623 7.0293 9ZM5.02618 7C5.09309 5.7345 5.28591 4.56971 5.57819 3.62462C4.32033 4.32234 3.39502 5.54673 3.10002 7H5.02618ZM3.10002 9H5.02618C5.09309 10.2655 5.28592 11.4303 5.57819 12.3754C4.32033 11.6777 3.39502 10.4533 3.10002 9ZM10.9738 9H12.9C12.605 10.4533 11.6797 11.6777 10.4218 12.3754C10.7141 11.4303 10.9069 10.2655 10.9738 9Z" fill="black"/>
</svg>
