<svg width="32" height="32" viewBox="0 0 32 32" fill="none" xmlns="http://www.w3.org/2000/svg">
<rect width="32" height="32" fill="white"/>
<path fill-rule="evenodd" clip-rule="evenodd" d="M27 13.0684C28.7244 13.4067 30 14.957 30 16.7778C30 17.8645 29.6819 18.8656 29.3024 19.7856C29.1161 20.2372 28.9062 20.6891 28.7027 21.1275L28.6902 21.1544C28.4797 21.6077 28.2745 22.0506 28.0857 22.5061C27.4276 24.0941 26.176 25.7051 24.5 26.4969V29C24.5 29.5523 24.0523 30 23.5 30C22.9477 30 22.5 29.5523 22.5 29V26.9958C22.431 26.9986 22.3616 27 22.2917 27H10V29C10 29.5523 9.55228 30 9 30C8.44772 30 8 29.5523 8 29V26.7036C6.0727 26.0182 4.63626 24.2483 3.91428 22.5061C3.72552 22.0506 3.52034 21.6077 3.30981 21.1544L3.29752 21.1279C3.09391 20.6894 2.88396 20.2373 2.69764 19.7856C2.31814 18.8656 2 17.8645 2 16.7778C2 14.957 3.27555 13.4067 5 13.0684L5 7.00001C5 4.23859 7.23857 2.00002 9.99999 2.00001L22 2C24.7614 2 27 4.23857 27 7V13.0684ZM25 13.2348C23.7063 13.724 22.7648 14.9262 22.6069 16.3502C22.596 16.4483 22.5885 16.5269 22.582 16.595C22.5703 16.7183 22.5618 16.8067 22.5427 16.9124C22.3239 18.1211 21.2716 19 20.0433 19H11.9567C10.7284 19 9.6761 18.1211 9.45729 16.9124C9.43816 16.8067 9.42972 16.7183 9.41796 16.5949C9.41147 16.5269 9.40396 16.4482 9.39309 16.3502C9.23519 14.9262 8.29369 13.724 7 13.2348V7.00001C7 5.34316 8.34314 4.00002 10 4.00001L22 4C23.6569 4 25 5.34314 25 7V13.2348ZM5.70833 15C4.78856 15 4 15.7719 4 16.7778C4 17.4787 4.20494 18.1949 4.54651 19.023C4.71611 19.4341 4.91036 19.8524 5.12059 20.3052L5.12379 20.312C5.33214 20.7608 5.5547 21.2404 5.76191 21.7404C6.53157 23.5977 8.07584 25 9.70834 25H22.2917C23.9242 25 25.4684 23.5977 26.2381 21.7404C26.4453 21.2404 26.6679 20.7608 26.8762 20.312L26.8794 20.3052C27.0896 19.8524 27.2839 19.4341 27.4535 19.023C27.7951 18.1949 28 17.4787 28 16.7778C28 15.7719 27.2114 15 26.2917 15C25.4358 15 24.695 15.6666 24.5947 16.5706C24.5909 16.6052 24.5867 16.6487 24.5819 16.6983C24.5667 16.8564 24.5455 17.0768 24.5107 17.2687C24.1196 19.429 22.2387 21 20.0433 21H11.9567C9.76129 21 7.88038 19.429 7.48928 17.2687C7.45454 17.0768 7.43331 16.8564 7.41808 16.6983C7.4133 16.6487 7.4091 16.6051 7.40528 16.5706C7.30503 15.6666 6.56422 15 5.70833 15Z" fill="black"/>
</svg>
