<svg width="16" height="16" viewBox="0 0 16 16" fill="none" xmlns="http://www.w3.org/2000/svg">
<rect width="16" height="16" fill="white"/>
<path fill-rule="evenodd" clip-rule="evenodd" d="M14 6.3977C14.624 6.84339 15 7.60656 15 8.38889C15 9.19946 14.7119 9.92408 14.466 10.5064C14.4291 10.5936 14.3929 10.6785 14.3574 10.7615C14.137 11.277 13.9473 11.7209 13.8372 12.2224C13.6603 13.028 13.0009 13.8643 12 13.9851V14.3846C12 14.9369 11.5523 15.3846 11 15.3846C10.4477 15.3846 10 14.9369 10 14.3846V14H6V14.5C6 15.0523 5.55228 15.5 5 15.5C4.44772 15.5 4 15.0523 4 14.5V13.9851C2.99907 13.8643 2.33975 13.028 2.16283 12.2224C2.0527 11.7209 1.86295 11.277 1.64262 10.7615C1.60714 10.6785 1.57088 10.5936 1.53402 10.5064C1.28805 9.92408 1 9.19946 1 8.38889C1 7.60656 1.376 6.84339 2 6.3977L2 3.00001C2 1.89544 2.89543 1.00001 4 1.00001L12 1C13.1046 1 14 1.89543 14 3V6.3977ZM12 6.16708C11.7889 6.26222 11.6073 6.38576 11.4594 6.50428C11.1482 6.75358 10.8738 7.07068 10.6427 7.37047C10.4077 7.67534 10.1856 8.00486 9.99032 8.29869L9.89817 8.43755C9.75646 8.65128 9.63238 8.83843 9.51728 9H6.48272C6.36757 8.83836 6.24362 8.65141 6.10184 8.43757L6.00968 8.29869C5.81441 8.00486 5.5923 7.67534 5.35729 7.37047C5.12618 7.07068 4.85177 6.75358 4.54059 6.50428C4.39265 6.38576 4.21115 6.26222 4 6.16708L4 3.00001L12 3L12 6.16708ZM11.7497 12L11 12L4.25026 12L4.24839 11.9993C4.24414 11.9975 4.23162 11.9912 4.21389 11.9747C4.17489 11.9384 4.13384 11.8734 4.11628 11.7934C3.96231 11.0923 3.69044 10.4599 3.47251 9.95294C3.43898 9.87496 3.40674 9.79995 3.37639 9.72811C3.12896 9.14238 3 8.7531 3 8.38889C3 8.24855 3.05102 8.14064 3.10941 8.07576C3.14589 8.03522 3.17998 8.01551 3.20835 8.0066C3.22684 8.01784 3.25393 8.03616 3.2901 8.06513C3.4199 8.16913 3.58135 8.34253 3.7733 8.59154C3.96134 8.83547 4.14949 9.11303 4.34399 9.40569L4.42896 9.53381C4.5905 9.7776 4.76034 10.0339 4.91983 10.2519C5.30177 10.7741 5.89264 11 6.43528 11H9.56472C10.1074 11 10.6982 10.7741 11.0802 10.2519C11.2397 10.0339 11.4095 9.7776 11.571 9.53381L11.656 9.40569C11.8505 9.11304 12.0387 8.83547 12.2267 8.59154C12.4186 8.34253 12.5801 8.16913 12.7099 8.06513C12.7461 8.03616 12.7732 8.01784 12.7916 8.0066C12.82 8.01551 12.8541 8.03522 12.8906 8.07576C12.949 8.14064 13 8.24855 13 8.38889C13 8.7531 12.871 9.14238 12.6236 9.72811C12.5933 9.79994 12.561 9.87496 12.5275 9.95293C12.3096 10.4599 12.0377 11.0923 11.8837 11.7934C11.8662 11.8734 11.8251 11.9384 11.7861 11.9747C11.7684 11.9912 11.7559 11.9975 11.7516 11.9993L11.7497 12ZM9.56518 8.99998C9.56518 8.99998 9.56526 8.99998 9.56518 8.99998V8.99998Z" fill="black"/>
</svg>
