<svg width="16" height="16" viewBox="0 0 16 16" fill="none" xmlns="http://www.w3.org/2000/svg">
<rect width="16" height="16" fill="white"/>
<path fill-rule="evenodd" clip-rule="evenodd" d="M7.00002 3.75C7.00002 3.49613 7.0885 3.29183 7.19862 3.16335C7.30695 3.03698 7.41663 3 7.50002 3C7.58342 3 7.6931 3.03698 7.80143 3.16335C7.91155 3.29183 8.00002 3.49613 8.00002 3.75C8.00002 4.30228 8.44774 4.75 9.00002 4.75C9.55231 4.75 10 4.30228 10 3.75C10 2.38139 9.0198 1 7.50002 1C5.98025 1 5.00002 2.38139 5.00002 3.75C5.00002 4.43274 5.26857 5.03545 5.64894 5.48862C5.78191 5.64704 5.89762 5.77652 6.00329 5.89477C6.16932 6.08054 6.31059 6.23863 6.45514 6.43771C6.49973 6.49911 6.53704 6.55511 6.56815 6.6062C6.41145 6.68942 6.26346 6.79492 6.12885 6.9227L1.17338 11.6264C-0.141621 12.8746 0.749593 15.0882 2.56263 15.0769L12.492 15.0155C14.3012 15.0043 15.1669 12.7879 13.8442 11.5535L8.87037 6.91117C8.81662 6.861 8.76081 6.81436 8.70321 6.77121C8.64276 6.14868 8.34595 5.6378 8.0735 5.26259C7.87579 4.99029 7.60728 4.68741 7.3994 4.45291C7.31289 4.35532 7.23687 4.26957 7.18083 4.20281C7.05775 4.05617 7.00002 3.89678 7.00002 3.75ZM7.50573 8.37328L12.4796 13.0156L2.55027 13.077L7.50573 8.37328Z" fill="black"/>
</svg>
