<svg width="16" height="16" viewBox="0 0 16 16" fill="none" xmlns="http://www.w3.org/2000/svg">
<rect width="16" height="16" fill="white"/>
<path d="M4.14286 11V12H4.14292L4.14286 11ZM4.14286 6.00005V7.00005H4.14292L4.14286 6.00005ZM5 6H6C6 5.73477 5.89463 5.48041 5.70708 5.29287C5.51953 5.10533 5.26517 4.99998 4.99994 5L5 6ZM5 10.9999L5.00006 11.9999C5.55232 11.9999 6 11.5522 6 10.9999H5ZM11.8571 11L11.8571 12H11.8571V11ZM11.8571 6.00005L11.8571 7.00005H11.8571V6.00005ZM11 6L11.0001 5C10.7348 4.99998 10.4805 5.10533 10.2929 5.29287C10.1054 5.48041 10 5.73477 10 6H11ZM11 10.9999H10C10 11.5522 10.4477 11.9999 10.9999 11.9999L11 10.9999ZM9 14V15H9L9 14ZM8 13C7.44772 13 7 13.4477 7 14C7 14.5523 7.44772 15 8 15V13ZM13 11C13 10.4477 12.5523 10 12 10C11.4477 10 11 10.4477 11 11H13ZM5 5.8961C5 4.32127 6.31817 3 8 3V1C5.26355 1 3 3.16741 3 5.8961H5ZM8 3C9.68183 3 11 4.32127 11 5.8961H13C13 3.16741 10.7365 1 8 1V3ZM11 5.8961V6.00552H13V5.8961H11ZM3 5.8961V6.00552H5V5.8961H3ZM4.14286 10C3.65073 10 3 9.4786 3 8.50003H1C1 10.2828 2.26805 12 4.14286 12V10ZM3 8.50003C3 7.52145 3.65073 7.00005 4.14286 7.00005V5.00005C2.26805 5.00005 1 6.71721 1 8.50003H3ZM4.14292 7.00005L5.00006 7L4.99994 5L4.14279 5.00005L4.14292 7.00005ZM4 6V10.9999H6V6H4ZM4.99994 9.99995L4.14279 10L4.14292 12L5.00006 11.9999L4.99994 9.99995ZM11.8571 12C13.732 12 15 10.2828 15 8.50003H13C13 9.4786 12.3493 10 11.8571 10V12ZM15 8.50003C15 6.71721 13.732 5.00005 11.8571 5.00005V7.00005C12.3493 7.00005 13 7.52145 13 8.50003H15ZM11.8572 5.00005L11.0001 5L10.9999 7L11.8571 7.00005L11.8572 5.00005ZM10 6V10.9999H12V6H10ZM10.9999 11.9999L11.8571 12L11.8572 10L11.0001 9.99995L10.9999 11.9999ZM9 13H8V15H9V13ZM9 15C11.2091 15 13 13.2091 13 11H11C11 12.1046 10.1046 13 9 13L9 15Z" fill="black"/>
</svg>
