<svg width="16" height="16" viewBox="0 0 16 16" fill="none" xmlns="http://www.w3.org/2000/svg">
<g clip-path="url(#clip0)">
<rect width="16" height="16" fill="white"/>
<path fill-rule="evenodd" clip-rule="evenodd" d="M13.2743 3.71356C12.2843 2.76215 10.6635 2.76215 9.67352 3.71356L8.69293 4.65597C8.30587 5.02797 7.69414 5.02797 7.30707 4.65597L6.32648 3.71356C5.33652 2.76215 3.71566 2.76215 2.7257 3.71356C1.7581 4.6435 1.7581 6.13414 2.7257 7.06407C2.73536 7.07335 2.74483 7.08283 2.7541 7.09249L8 12.5561L13.2459 7.09249C13.2552 7.08283 13.2646 7.07335 13.2743 7.06407C14.2419 6.13414 14.2419 4.6435 13.2743 3.71356ZM8.28765 2.27156C10.0517 0.576146 12.8961 0.576147 14.6602 2.27156C16.4415 3.98353 16.4466 6.77311 14.6755 8.49127L8.72134 14.6926C8.53277 14.889 8.27227 15 8 15C7.72773 15 7.46723 14.889 7.27867 14.6926L1.32449 8.49126C-0.446597 6.7731 -0.441482 3.98353 1.33984 2.27156C3.10393 0.576147 5.94826 0.576148 7.71235 2.27156L8 2.54801L8.28765 2.27156Z" fill="black"/>
</g>
<defs>
<clipPath id="clip0">
<rect width="16" height="16" fill="white"/>
</clipPath>
</defs>
</svg>
