<svg width="16" height="16" viewBox="0 0 16 16" fill="none" xmlns="http://www.w3.org/2000/svg">
<rect width="16" height="16" fill="white"/>
<path d="M7 10C6.44772 10 6 10.4477 6 11C6 11.5523 6.44772 12 7 12H9C9.55228 12 10 11.5523 10 11C10 10.4477 9.55228 10 9 10H7Z" fill="black"/>
<path d="M6 5C6 4.44772 6.44772 4 7 4H9C9.55228 4 10 4.44772 10 5C10 5.55228 9.55228 6 9 6H7C6.44772 6 6 5.55228 6 5Z" fill="black"/>
<path fill-rule="evenodd" clip-rule="evenodd" d="M1 3C1 1.89543 1.89543 1 3 1H13C14.1046 1 15 1.89543 15 3V15C15 15.5523 14.5523 16 14 16C13.4477 16 13 15.5523 13 15H3C3 15.5523 2.55228 16 2 16C1.44772 16 1 15.5523 1 15V3ZM3 9V13H13V9H3ZM13 7H3V3H13V7Z" fill="black"/>
</svg>
