<svg width="32" height="32" viewBox="0 0 32 32" fill="none" xmlns="http://www.w3.org/2000/svg">
<rect width="32" height="32" fill="white"/>
<path fill-rule="evenodd" clip-rule="evenodd" d="M23.8053 2.21287L12.7011 9.5H5.71798C5.16614 9.5 4.62122 9.62284 4.12275 9.85961C2.82623 10.4755 2 11.7826 2 13.218V17.782C2 19.2174 2.82623 20.5245 4.12275 21.1404C4.44058 21.2914 4.77729 21.396 5.12264 21.452L5.88107 26.9127C6.08706 28.3959 7.35516 29.5 8.85255 29.5H10C11.6569 29.5 13 28.1568 13 26.5V21.6961L23.8053 28.7871C26.4654 30.5328 30 28.6246 30 25.4429V5.55706C30 2.37539 26.4653 0.46723 23.8053 2.21287ZM28 5.55706C28 3.96623 26.2326 3.01214 24.9026 3.88497L13.5619 11.3273C13.4018 11.4363 13.2083 11.5 13 11.5H5.71798C5.46299 11.5 5.21119 11.5568 4.98087 11.6662C4.38178 11.9507 4 12.5547 4 13.218V17.782C4 18.4453 4.38178 19.0493 4.98087 19.3338C5.21119 19.4432 5.46299 19.5 5.71798 19.5H13C13.2083 19.5 13.4017 19.5637 13.5618 19.6726L24.9026 27.115C26.2327 27.9879 28 27.0338 28 25.4429V5.55706ZM11 21.5H7.1485L7.86205 26.6376C7.93072 27.1319 8.35342 27.5 8.85255 27.5H10C10.5523 27.5 11 27.0523 11 26.5V21.5Z" fill="black"/>
</svg>
