<svg width="32" height="32" viewBox="0 0 32 32" fill="none" xmlns="http://www.w3.org/2000/svg">
<rect width="32" height="32" fill="white"/>
<path d="M4.55181 10.7629L4.98087 11.6662L4.55181 10.7629ZM4.55181 20.2372L4.12275 21.1404L4.12275 21.1404L4.55181 20.2372ZM24.354 3.04897L23.8054 2.21292V2.21292L24.354 3.04897ZM24.354 27.9511L24.9027 27.1151L24.354 27.9511ZM6.87155 26.7752L7.86204 26.6376L6.87155 26.7752ZM13.2498 20.664L13.7985 19.8279L13.2498 20.664ZM13.2498 10.3361L13.7985 11.1721L13.2498 10.3361ZM4 17.7821V13.218H2V17.7821H4ZM5.71798 11.5H12.7012V9.50005H5.71798V11.5ZM12.7012 19.5H5.71798V21.5H12.7012V19.5ZM4.98087 11.6662C5.21119 11.5568 5.46299 11.5 5.71798 11.5V9.50005C5.16614 9.50005 4.62122 9.62289 4.12275 9.85966L4.98087 11.6662ZM2 17.7821C2 19.2174 2.82623 20.5246 4.12275 21.1404L4.98087 19.3339C4.38178 19.0493 4 18.4453 4 17.7821H2ZM5.71798 19.5C5.46299 19.5 5.21119 19.4433 4.98087 19.3339L4.12275 21.1404C4.62122 21.3772 5.16614 21.5 5.71798 21.5V19.5ZM4 13.218C4 12.5548 4.38178 11.9508 4.98087 11.6662L4.12275 9.85966C2.82623 10.4755 2 11.7827 2 13.218H4ZM13.7985 11.1721L24.9027 3.88501L23.8054 2.21292L12.7012 9.50005L13.7985 11.1721ZM28 5.55711V25.443H30V5.55711H28ZM24.9027 27.1151L13.7985 19.8279L12.7012 21.5L23.8054 28.7872L24.9027 27.1151ZM28 25.443C28 27.0338 26.2327 27.9879 24.9027 27.1151L23.8054 28.7872C26.4654 30.5328 30 28.6247 30 25.443H28ZM24.9027 3.88501C26.2327 3.01219 28 3.96628 28 5.55711H30C30 2.37544 26.4654 0.467278 23.8054 2.21292L24.9027 3.88501ZM11 20.5V26.5H13V20.5H11ZM10 27.5H8.85253V29.5H10V27.5ZM7.86204 26.6376L6.99049 20.3625L5.00951 20.6376L5.88105 26.9128L7.86204 26.6376ZM8.85253 27.5C8.3534 27.5 7.9307 27.132 7.86204 26.6376L5.88105 26.9128C6.08705 28.3959 7.35515 29.5 8.85253 29.5V27.5ZM11 26.5C11 27.0523 10.5523 27.5 10 27.5V29.5C11.6569 29.5 13 28.1569 13 26.5H11ZM12.7012 21.5H12.7012L13.7985 19.8279C13.4725 19.614 13.0911 19.5 12.7012 19.5V21.5ZM12.7012 11.5C13.0911 11.5 13.4725 11.3861 13.7985 11.1721L12.7012 9.50005V11.5Z" fill="black"/>
</svg>
