<svg width="16" height="16" viewBox="0 0 16 16" fill="none" xmlns="http://www.w3.org/2000/svg">
<rect width="16" height="16" fill="white"/>
<path d="M7.53405 3.12703L8.24116 3.83413L7.53405 3.12703ZM12.9758 8.56881L13.6829 9.27591L12.9758 8.56881ZM2.2267 8.88781L1.51959 9.59492L1.51959 9.59492L2.2267 8.88781ZM2.2267 8.43438L2.93381 9.14149L2.2267 8.43438ZM7.21504 13.8762L7.92215 13.1691L7.21504 13.8762ZM7.66848 13.8762L6.96137 13.1691L7.66848 13.8762ZM1.30144 13.3871C0.910914 13.7776 0.910914 14.4108 1.30144 14.8013C1.69196 15.1918 2.32513 15.1918 2.71565 14.8013L1.30144 13.3871ZM5.30243 12.2145C5.69296 11.824 5.69296 11.1908 5.30243 10.8003C4.91191 10.4098 4.27874 10.4098 3.88822 10.8003L5.30243 12.2145ZM7.92215 13.1691L2.93381 8.18071L1.51959 9.59492L6.50794 14.5833L7.92215 13.1691ZM2.93381 9.14149L8.24116 3.83413L6.82695 2.41992L1.51959 7.72727L2.93381 9.14149ZM12.2687 7.8617L6.96137 13.1691L8.37559 14.5833L13.6829 9.27591L12.2687 7.8617ZM8.24116 3.83413C9.35334 2.72195 11.1565 2.72196 12.2687 3.83414L13.6829 2.41992C11.7897 0.526695 8.72018 0.52669 6.82695 2.41992L8.24116 3.83413ZM13.6829 9.27591C15.5762 7.38268 15.5762 4.31315 13.6829 2.41992L12.2687 3.83414C13.3809 4.94632 13.3809 6.74952 12.2687 7.8617L13.6829 9.27591ZM2.93381 8.18071C3.19912 8.44602 3.19912 8.87617 2.93381 9.14149L1.51959 7.72727C1.00386 8.24301 1.00386 9.07919 1.51959 9.59492L2.93381 8.18071ZM6.50794 14.5833C7.02367 15.099 7.85985 15.099 8.37559 14.5833L6.96137 13.1691C7.22668 12.9037 7.65684 12.9037 7.92215 13.1691L6.50794 14.5833ZM2.71565 14.8013L5.30243 12.2145L3.88822 10.8003L1.30144 13.3871L2.71565 14.8013Z" fill="black"/>
</svg>
