<svg width="32" height="32" viewBox="0 0 32 32" fill="none" xmlns="http://www.w3.org/2000/svg">
<rect width="32" height="32" fill="white"/>
<path d="M13.6049 5.36395L14.3121 6.07105L13.6049 5.36395ZM26.3329 18.0919L25.6258 17.3848L26.3329 18.0919ZM3.53038 16.4991L2.82327 17.2062L3.53038 16.4991ZM3.53038 15.4385L2.82327 14.7314H2.82327L3.53038 15.4385ZM15.1978 28.1664L15.9049 27.4593L15.1978 28.1664ZM16.2583 28.1664L15.5512 27.4593L16.2583 28.1664ZM2.3134 27.9695C1.92288 28.36 1.92288 28.9932 2.3134 29.3837C2.70393 29.7742 3.33709 29.7742 3.72761 29.3837L2.3134 27.9695ZM9.77791 23.3334C10.1684 22.9429 10.1684 22.3097 9.77791 21.9192C9.38738 21.5286 8.75422 21.5286 8.36369 21.9192L9.77791 23.3334ZM12.3637 13.9199C11.9731 14.3105 11.9731 14.9436 12.3637 15.3341C12.7542 15.7247 13.3874 15.7247 13.7779 15.3341L12.3637 13.9199ZM18.6781 10.434C19.0686 10.0434 19.0686 9.41028 18.6781 9.01976C18.2875 8.62923 17.6544 8.62923 17.2638 9.01976L18.6781 10.434ZM16.4132 17.9695C16.0227 18.36 16.0227 18.9932 16.4132 19.3837C16.8038 19.7742 17.4369 19.7742 17.8274 19.3837L16.4132 17.9695ZM22.7276 14.4835C23.1181 14.093 23.1181 13.4598 22.7276 13.0693C22.3371 12.6788 21.7039 12.6788 21.3134 13.0693L22.7276 14.4835ZM15.9049 27.4593L4.23749 15.792L2.82327 17.2062L14.4906 28.8735L15.9049 27.4593ZM4.23749 16.1456L14.3121 6.07105L12.8978 4.65684L2.82327 14.7314L4.23749 16.1456ZM25.6258 17.3848L15.5512 27.4593L16.9654 28.8735L27.04 18.799L25.6258 17.3848ZM14.3121 6.07105C17.4363 2.94686 22.5016 2.94685 25.6258 6.07105L27.04 4.65683C23.1347 0.75159 16.8031 0.751599 12.8978 4.65684L14.3121 6.07105ZM27.04 18.799C30.9452 14.8937 30.9452 8.56208 27.04 4.65683L25.6258 6.07105C28.75 9.19524 28.75 14.2606 25.6258 17.3848L27.04 18.799ZM4.23749 15.792C4.33515 15.8896 4.33515 16.048 4.23749 16.1456L2.82327 14.7314C2.13989 15.4148 2.13989 16.5228 2.82327 17.2062L4.23749 15.792ZM14.4906 28.8735C15.174 29.5569 16.282 29.5569 16.9654 28.8735L15.5512 27.4593C15.6489 27.3617 15.8072 27.3617 15.9049 27.4593L14.4906 28.8735ZM3.72761 29.3837L9.77791 23.3334L8.36369 21.9192L2.3134 27.9695L3.72761 29.3837ZM13.7779 15.3341L18.6781 10.434L17.2638 9.01976L12.3637 13.9199L13.7779 15.3341ZM17.8274 19.3837L22.7276 14.4835L21.3134 13.0693L16.4132 17.9695L17.8274 19.3837Z" fill="black"/>
</svg>
