<svg width="32" height="32" viewBox="0 0 32 32" fill="none" xmlns="http://www.w3.org/2000/svg">
<rect width="32" height="32" fill="white"/>
<path fill-rule="evenodd" clip-rule="evenodd" d="M13 2C12.7348 2 12.4805 2.10536 12.2929 2.29289L5.29293 9.29289C5.10539 9.48043 5.00003 9.73478 5.00003 10L5 25C4.99999 27.7614 7.23857 30 10 30H22C24.7615 30 27 27.7614 27 25C27 24.4477 26.5523 24 26 24C25.4478 24 25 24.4477 25 25C25 26.6569 23.6569 28 22 28H10C8.34314 28 7 26.6569 7 25L7.00003 12H14C14.5523 12 15 11.5523 15 11V4H22C23.6569 4 25 5.34315 25 7L25 11C25 11.5523 25.4478 12 26 12C26.5523 12 27 11.5523 27 11L27 7C27 4.23858 24.7615 2 22 2H13ZM13 10H7.41425L13 4.41425V10Z" fill="black"/>
<path d="M21.7071 13.2929C21.3166 12.9024 20.6834 12.9024 20.2929 13.2929C19.9024 13.6834 19.9024 14.3166 20.2929 14.7071L22.5858 17H14C13.4477 17 13 17.4477 13 18C13 18.5523 13.4477 19 14 19H22.5858L20.2929 21.2929C19.9024 21.6834 19.9024 22.3166 20.2929 22.7071C20.6834 23.0976 21.3166 23.0976 21.7071 22.7071L25.7071 18.7071C26.0976 18.3166 26.0976 17.6834 25.7071 17.2929L21.7071 13.2929Z" fill="black"/>
</svg>
