<svg width="16" height="16" viewBox="0 0 16 16" fill="none" xmlns="http://www.w3.org/2000/svg">
<rect width="16" height="16" fill="white"/>
<path d="M3.28401 5.86257L4.00002 6.56067L4.00002 6.56066L3.28401 5.86257ZM6.75565 2.3019L6.03965 1.6038L6.03965 1.6038L6.75565 2.3019ZM3.00002 6.56066L4.00002 6.56066L3.00002 6.56066ZM3 13L4 13V13L3 13ZM13 13C13 12.4477 12.5523 12 12 12C11.4477 12 11 12.4477 11 13H13ZM11 3C11 3.55229 11.4477 4 12 4C12.5523 4 13 3.55228 13 3L11 3ZM7 7C6.44771 7 6 7.44772 6 8C6 8.55228 6.44771 9 7 9V7ZM12 9C12.5523 9 13 8.55228 13 8C13 7.44772 12.5523 7 12 7V9ZM12.7071 5.29289C12.3166 4.90237 11.6834 4.90237 11.2929 5.29289C10.9024 5.68342 10.9024 6.31658 11.2929 6.70711L12.7071 5.29289ZM14 8L14.7071 8.70711C15.0976 8.31658 15.0976 7.68342 14.7071 7.29289L14 8ZM11.2929 9.29289C10.9024 9.68342 10.9024 10.3166 11.2929 10.7071C11.6834 11.0976 12.3166 11.0976 12.7071 10.7071L11.2929 9.29289ZM4.00002 6.56066L7.47166 3L6.03965 1.6038L2.56801 5.16447L4.00002 6.56066ZM4 15H11V13H4V15ZM7.47166 3H11V1H7.47166V3ZM2.00002 6.56066L2 13L4 13L4.00002 6.56066L2.00002 6.56066ZM4 13V13L2 13C2 14.1046 2.89543 15 4 15V13ZM2.56801 5.16447C2.20384 5.53798 2.00002 6.039 2.00002 6.56066L4.00002 6.56066L4.00002 6.56067L2.56801 5.16447ZM7.47166 3L7.47166 3V1C6.93244 1 6.41608 1.21773 6.03965 1.6038L7.47166 3ZM11 15C12.1046 15 13 14.1046 13 13H11H11V15ZM11 3L11 3L13 3C13 1.89543 12.1046 1 11 1V3ZM7 9H12V7H7V9ZM11.2929 6.70711L13.2929 8.70711L14.7071 7.29289L12.7071 5.29289L11.2929 6.70711ZM13.2929 7.29289L11.2929 9.29289L12.7071 10.7071L14.7071 8.70711L13.2929 7.29289Z" fill="black"/>
</svg>
