<svg width="16" height="16" viewBox="0 0 16 16" fill="none" xmlns="http://www.w3.org/2000/svg">
<rect width="16" height="16" fill="white"/>
<path d="M7.47166 3L4.00002 6.56066L4 13L13 13C13 14.1046 12.1046 15 11 15H4C2.89543 15 2 14.1046 2 13L2.00002 6.56066C2.00002 6.039 2.20384 5.53798 2.56801 5.16447L6.03965 1.6038C6.41608 1.21773 6.93244 1 7.47166 1H11C12.1046 1 13 1.89543 13 3L7.47166 3Z" fill="black"/>
<path d="M11.5858 7L7 7C6.44771 7 6 7.44771 6 8C6 8.55228 6.44771 9 7 9L11.5858 9L11.2929 9.29289C10.9024 9.68342 10.9024 10.3166 11.2929 10.7071C11.6834 11.0976 12.3166 11.0976 12.7071 10.7071L14.7071 8.70711C14.8946 8.51957 15 8.26522 15 8C15 7.73478 14.8946 7.48043 14.7071 7.29289L12.7071 5.29289C12.3166 4.90237 11.6834 4.90237 11.2929 5.29289C10.9024 5.68342 10.9024 6.31658 11.2929 6.70711L11.5858 7Z" fill="black"/>
</svg>
