<svg width="16" height="16" viewBox="0 0 16 16" fill="none" xmlns="http://www.w3.org/2000/svg">
<rect width="16" height="16" fill="white"/>
<path d="M4 2C4 2.55228 4.44772 3 5 3H11C11.5523 3 12 2.55228 12 2C12 1.44772 11.5523 1 11 1H5C4.44772 1 4 1.44772 4 2Z" fill="black"/>
<path d="M4 14C4 14.5523 4.44772 15 5 15H11C11.5523 15 12 14.5523 12 14C12 13.4477 11.5523 13 11 13H5C4.44772 13 4 13.4477 4 14Z" fill="black"/>
<path fill-rule="evenodd" clip-rule="evenodd" d="M3 4C1.89543 4 1 4.89543 1 6V10C1 11.1046 1.89543 12 3 12H13C14.1046 12 15 11.1046 15 10V6C15 4.89543 14.1046 4 13 4H3ZM3 6H13V10H3V6Z" fill="black"/>
</svg>
