<svg width="16" height="16" viewBox="0 0 16 16" fill="none" xmlns="http://www.w3.org/2000/svg">
<rect width="16" height="16" fill="white"/>
<path d="M15.5 2C15.5 2.55228 15.0523 3 14.5 3H1.5C0.947716 3 0.5 2.55228 0.5 2C0.5 1.44772 0.947716 1 1.5 1H14.5C15.0523 1 15.5 1.44772 15.5 2Z" fill="black"/>
<path d="M14.5 11C15.0523 11 15.5 10.5523 15.5 10C15.5 9.44771 15.0523 9 14.5 9H7.5C6.94772 9 6.5 9.44771 6.5 10C6.5 10.5523 6.94772 11 7.5 11H14.5Z" fill="black"/>
<path d="M14.5 15C15.0523 15 15.5 14.5523 15.5 14C15.5 13.4477 15.0523 13 14.5 13H1.5C0.947716 13 0.5 13.4477 0.5 14C0.5 14.5523 0.947716 15 1.5 15H14.5Z" fill="black"/>
<path d="M14.5 7C15.0523 7 15.5 6.55228 15.5 6C15.5 5.44772 15.0523 5 14.5 5H7.5C6.94772 5 6.5 5.44772 6.5 6C6.5 6.55228 6.94772 7 7.5 7H14.5Z" fill="black"/>
<path d="M4.70708 7.29289L2.70708 5.29289C2.31655 4.90237 1.68339 4.90237 1.29286 5.29289C0.90234 5.68342 0.90234 6.31658 1.29286 6.70711L2.58579 8.00003L1.29289 9.29292C0.902368 9.68345 0.902368 10.3166 1.29289 10.7071C1.68342 11.0977 2.31658 11.0977 2.70711 10.7071L4.70711 8.70714C5.09763 8.31661 5.0976 7.68342 4.70708 7.29289Z" fill="black"/>
</svg>
