<svg width="32" height="32" viewBox="0 0 32 32" fill="none" xmlns="http://www.w3.org/2000/svg">
<rect width="32" height="32" fill="white"/>
<path d="M11 24C10.4477 24 9.99999 24.4477 9.99999 25C9.99999 25.5523 10.4477 26 11 26H20C20.5523 26 21 25.5523 21 25C21 24.4477 20.5523 24 20 24H11Z" fill="black"/>
<path fill-rule="evenodd" clip-rule="evenodd" d="M11 30H20C22.7614 30 25 27.7614 25 25L25 7.00001C25 4.23858 22.7614 2 20 2H11C8.23858 2 6 4.23858 6 7V25C6 27.7614 8.23858 30 11 30ZM20 28H11C9.34315 28 8 26.6569 8 25L8 7C8 5.34315 9.34314 4 11 4L20 4C21.6569 4 23 5.34315 23 7.00001L23 25C23 26.6569 21.6568 28 20 28Z" fill="black"/>
</svg>
