<svg width="16" height="16" viewBox="0 0 16 16" fill="none" xmlns="http://www.w3.org/2000/svg">
<rect width="16" height="16" fill="white"/>
<path d="M7 10C6.44771 10 6 10.4477 6 11C6 11.5523 6.44771 12 7 12H10C10.5523 12 11 11.5523 11 11C11 10.4477 10.5523 10 10 10H7Z" fill="black"/>
<path fill-rule="evenodd" clip-rule="evenodd" d="M5 15H12C13.1045 15 14 14.1046 14 13L14 3C14 1.89543 13.1046 1 12 1H5C3.89543 1 3 1.89543 3 3V13C3 14.1046 3.89543 15 5 15ZM12 13H5L5 3L12 3L12 13Z" fill="black"/>
</svg>
