<svg width="32" height="32" viewBox="0 0 32 32" fill="none" xmlns="http://www.w3.org/2000/svg">
<rect width="32" height="32" fill="white"/>
<path d="M25.0379 12.6396C25.4257 13.0329 26.0589 13.0373 26.4521 12.6496C26.8454 12.2618 26.8498 11.6286 26.4621 11.2354L25.0379 12.6396ZM23.148 7.87445C22.7602 7.48119 22.1271 7.47675 21.7338 7.86452C21.3406 8.25229 21.3361 8.88544 21.7239 9.2787L23.148 7.87445ZM29.2254 8.45213C29.6132 8.84539 30.2464 8.84984 30.6396 8.46207C31.0329 8.07429 31.0373 7.44114 30.6495 7.04789L29.2254 8.45213ZM27.3355 3.68696C26.9477 3.2937 26.3146 3.28925 25.9213 3.67702C25.5281 4.0648 25.5236 4.69794 25.9114 5.0912L27.3355 3.68696ZM28.7079 3.70631C29.098 3.31535 29.0973 2.68218 28.7063 2.2921C28.3153 1.90201 27.6822 1.90273 27.2921 2.29369L28.7079 3.70631ZM15.4414 14.171C15.0514 14.562 15.0521 15.1951 15.443 15.5852C15.834 15.9753 16.4672 15.9746 16.8572 15.5836L15.4414 14.171ZM26.4621 11.2354L23.148 7.87445L21.7239 9.2787L25.0379 12.6396L26.4621 11.2354ZM30.6495 7.04789L27.3355 3.68696L25.9114 5.0912L29.2254 8.45213L30.6495 7.04789ZM18 21C18 24.866 14.866 28 11 28V30C15.9706 30 20 25.9706 20 21H18ZM11 28C7.13401 28 4 24.866 4 21H2C2 25.9706 6.02944 30 11 30V28ZM4 21C4 17.134 7.13401 14 11 14V12C6.02944 12 2 16.0294 2 21H4ZM11 14C14.866 14 18 17.134 18 21H20C20 16.0294 15.9706 12 11 12V14ZM27.2921 2.29369L15.4414 14.171L16.8572 15.5836L28.7079 3.70631L27.2921 2.29369Z" fill="black"/>
</svg>
