<svg width="16" height="16" viewBox="0 0 16 16" fill="none" xmlns="http://www.w3.org/2000/svg">
<rect width="16" height="16" fill="white"/>
<path d="M10.7395 6.77435C11.0982 7.19434 11.7294 7.24405 12.1494 6.8854C12.5694 6.52674 12.6191 5.89553 12.2604 5.47555L10.7395 6.77435ZM10.8728 3.8506C10.5141 3.43062 9.8829 3.3809 9.46291 3.73955C9.04293 4.09821 8.99322 4.72942 9.35187 5.1494L10.8728 3.8506ZM12.6919 4.86401C13.0629 5.27313 13.6953 5.30404 14.1044 4.93305C14.5135 4.56205 14.5445 3.92964 14.1735 3.52052L12.6919 4.86401ZM12.8695 2.08256C12.4985 1.67343 11.8661 1.64253 11.457 2.01352C11.0479 2.38451 11.0169 3.01692 11.3879 3.42605L12.8695 2.08256ZM13.6545 2.75603C14.0721 2.39455 14.1175 1.76301 13.756 1.34547C13.3945 0.927921 12.763 0.882478 12.3455 1.24397L13.6545 2.75603ZM5.84547 6.87131C5.42792 7.2328 5.38248 7.86433 5.74397 8.28188C6.10545 8.69942 6.73699 8.74487 7.15453 8.38338L5.84547 6.87131ZM12.2604 5.47555L10.8728 3.8506L9.35187 5.1494L10.7395 6.77435L12.2604 5.47555ZM14.1735 3.52052L12.8695 2.08256L11.3879 3.42605L12.6919 4.86401L14.1735 3.52052ZM7 10.5C7 11.8807 5.88071 13 4.5 13V15C6.98528 15 9 12.9853 9 10.5H7ZM4.5 13C3.11929 13 2 11.8807 2 10.5H0C0 12.9853 2.01472 15 4.5 15V13ZM2 10.5C2 9.11929 3.11929 8 4.5 8V6C2.01472 6 0 8.01472 0 10.5H2ZM4.5 8C5.88071 8 7 9.11929 7 10.5H9C9 8.01472 6.98528 6 4.5 6V8ZM12.3455 1.24397L5.84547 6.87131L7.15453 8.38338L13.6545 2.75603L12.3455 1.24397Z" fill="black"/>
</svg>
