<svg width="16" height="16" viewBox="0 0 16 16" fill="none" xmlns="http://www.w3.org/2000/svg">
<rect width="16" height="16" fill="white"/>
<path fill-rule="evenodd" clip-rule="evenodd" d="M13.6402 2.76825C14.0645 2.41468 14.1218 1.78412 13.7682 1.35984C13.4147 0.935564 12.7841 0.87824 12.3598 1.2318L11.1381 2.24993C10.9077 2.34742 10.6918 2.49005 10.504 2.67784L9.98557 3.19631C9.96311 3.21877 9.94129 3.24164 9.92012 3.26488L6.35981 6.2318C6.31622 6.26813 6.2765 6.30738 6.2407 6.34904C5.70524 6.12423 5.11713 6 4.5 6C2.01472 6 0 8.01472 0 10.5C0 12.9853 2.01472 15 4.5 15C6.98528 15 9 12.9853 9 10.5C9 9.37232 8.5852 8.34152 7.89986 7.55185L9.87548 5.90549C9.91027 5.94635 9.94696 5.98614 9.98557 6.02474L10.7929 6.83206C11.1834 7.22258 11.8166 7.22258 12.2071 6.83206C12.5976 6.44153 12.5976 5.80837 12.2071 5.41784L11.4133 4.62401L11.9789 4.15267L12.7256 4.89937C13.1161 5.28989 13.7493 5.28989 14.1398 4.89937C14.5303 4.50885 14.5303 3.87568 14.1398 3.48516L13.5217 2.86702L13.6402 2.76825ZM4.5 8C3.11929 8 2 9.11929 2 10.5C2 11.8807 3.11929 13 4.5 13C5.88071 13 7 11.8807 7 10.5C7 9.11929 5.88071 8 4.5 8Z" fill="black"/>
</svg>
