<svg width="16" height="16" viewBox="0 0 16 16" fill="none" xmlns="http://www.w3.org/2000/svg">
<rect width="16" height="16" fill="white"/>
<path d="M4 5C4 5.55228 4.44771 6 5 6C5.55228 6 6 5.55229 6 5L4 5ZM6 4.5C6 3.94772 5.55229 3.5 5 3.5C4.44772 3.5 4 3.94771 4 4.5L6 4.5ZM2 3H1H2ZM2 13H3H2ZM13 14V13V14ZM3 14L3 15H3L3 14ZM14 3.00002H13H14ZM14 13H15H14ZM13 2.00002L13 3.00002H13V2.00002ZM3 2L3 1H3L3 2ZM11 12C11.5523 12 12 11.5523 12 11C12 10.4477 11.5523 10 11 10V12ZM5 10C4.44771 10 4 10.4477 4 11C4 11.5523 4.44771 12 5 12L5 10ZM4 8C4 8.55228 4.44771 9 5 9C5.55228 9 6 8.55229 6 8L4 8ZM6 7.5C6 6.94772 5.55229 6.5 5 6.5C4.44772 6.5 4 6.94771 4 7.5L6 7.5ZM7 5C7 5.55228 7.44771 6 8 6C8.55228 6 9 5.55229 9 5L7 5ZM9 4.5C9 3.94772 8.55229 3.5 8 3.5C7.44772 3.5 7 3.94771 7 4.5L9 4.5ZM7 8C7 8.55228 7.44771 9 8 9C8.55228 9 9 8.55229 9 8L7 8ZM9 7.5C9 6.94772 8.55229 6.5 8 6.5C7.44772 6.5 7 6.94771 7 7.5L9 7.5ZM10 5C10 5.55228 10.4477 6 11 6C11.5523 6 12 5.55229 12 5L10 5ZM12 4.5C12 3.94772 11.5523 3.5 11 3.5C10.4477 3.5 10 3.94771 10 4.5L12 4.5ZM10 8C10 8.55228 10.4477 9 11 9C11.5523 9 12 8.55229 12 8L10 8ZM12 7.5C12 6.94772 11.5523 6.5 11 6.5C10.4477 6.5 10 6.94771 10 7.5L12 7.5ZM1 3L1 13H3L3 3H1ZM13 13L3 13L3 15L13 15V13ZM13 3.00002V13H15V3.00002H13ZM15 3.00002C15 1.89545 14.1046 1.00002 13 1.00002V3.00002H15ZM3 3L3 3L3 1C1.89543 1 1 1.89543 1 3H3ZM1 13C1 14.1046 1.89543 15 3 15L3 13L3 13H1ZM13 15C14.1046 15 15 14.1046 15 13H13V15ZM11 10L5 10L5 12L11 12V10ZM13 1.00002L3 1L3 3L13 3.00002L13 1.00002ZM6 5L6 4.5L4 4.5L4 5L6 5ZM6 8L6 7.5L4 7.5L4 8L6 8ZM9 5L9 4.5L7 4.5L7 5L9 5ZM9 8L9 7.5L7 7.5L7 8L9 8ZM12 5L12 4.5L10 4.5L10 5L12 5ZM12 8L12 7.5L10 7.5L10 8L12 8Z" fill="black"/>
</svg>
