<svg width="32" height="32" viewBox="0 0 32 32" fill="none" xmlns="http://www.w3.org/2000/svg">
<rect width="32" height="32" fill="white"/>
<path d="M10 11.5001C10 12.3286 9.32843 13.0001 8.5 13.0001C7.67157 13.0001 7 12.3286 7 11.5001C7 10.6717 7.67157 10.0001 8.5 10.0001C9.32843 10.0001 10 10.6717 10 11.5001Z" fill="black"/>
<path d="M8.5 18.0001C9.32843 18.0001 10 17.3286 10 16.5001C10 15.6717 9.32843 15.0001 8.5 15.0001C7.67158 15.0001 7 15.6717 7 16.5001C7 17.3286 7.67158 18.0001 8.5 18.0001Z" fill="black"/>
<path d="M15 16.5001C15 17.3286 14.3284 18.0001 13.5 18.0001C12.6716 18.0001 12 17.3286 12 16.5001C12 15.6717 12.6716 15.0001 13.5 15.0001C14.3284 15.0001 15 15.6717 15 16.5001Z" fill="black"/>
<path d="M15 11.5001C15 12.3286 14.3284 13.0001 13.5 13.0001C12.6716 13.0001 12 12.3286 12 11.5001C12 10.6717 12.6716 10.0001 13.5 10.0001C14.3284 10.0001 15 10.6717 15 11.5001Z" fill="black"/>
<path d="M20 16.5001C20 17.3286 19.3284 18.0001 18.5 18.0001C17.6716 18.0001 17 17.3286 17 16.5001C17 15.6717 17.6716 15.0001 18.5 15.0001C19.3284 15.0001 20 15.6717 20 16.5001Z" fill="black"/>
<path d="M20 11.5001C20 12.3286 19.3284 13.0001 18.5 13.0001C17.6716 13.0001 17 12.3286 17 11.5001C17 10.6717 17.6716 10.0001 18.5 10.0001C19.3284 10.0001 20 10.6717 20 11.5001Z" fill="black"/>
<path d="M25 16.5001C25 17.3286 24.3284 18.0001 23.5 18.0001C22.6716 18.0001 22 17.3286 22 16.5001C22 15.6717 22.6716 15.0001 23.5 15.0001C24.3284 15.0001 25 15.6717 25 16.5001Z" fill="black"/>
<path d="M25 11.5001C25 12.3286 24.3284 13.0001 23.5 13.0001C22.6716 13.0001 22 12.3286 22 11.5001C22 10.6717 22.6716 10.0001 23.5 10.0001C24.3284 10.0001 25 10.6717 25 11.5001Z" fill="black"/>
<path d="M8 21.0001C7.44772 21.0001 7 21.4478 7 22.0001C7 22.5524 7.44772 23.0001 8 23.0001L24 23.0001C24.5523 23.0001 25 22.5524 25 22.0001C25 21.4478 24.5523 21.0001 24 21.0001L8 21.0001Z" fill="black"/>
<path fill-rule="evenodd" clip-rule="evenodd" d="M30 9.00004L30 23C30 25.7614 27.7614 28 25 28L7 28C4.23857 28 2 25.7614 2 23V9C2 6.23858 4.23858 4 7 4L25 4.00004C27.7614 4.00004 30 6.23862 30 9.00004ZM28 23L28 9.00004C28 7.34318 26.6569 6.00004 25 6.00004L7 6C5.34315 6 4 7.34315 4 9L4 23C4 24.6569 5.34314 26 7 26L25 26C26.6569 26 28 24.6569 28 23Z" fill="black"/>
</svg>
