<svg width="16" height="16" viewBox="0 0 16 16" fill="none" xmlns="http://www.w3.org/2000/svg">
<rect width="16" height="16" fill="white"/>
<path fill-rule="evenodd" clip-rule="evenodd" d="M9.30699 1C10.1407 1 10.8869 1.51714 11.1796 2.29774L13.4297 8.29773C13.92 9.60524 12.9535 11 11.5571 11H9.00005L9.00005 14C9.00005 14.5523 8.55234 15 8.00005 15C7.44777 15 7.00005 14.5523 7.00005 14L7.00005 11H6.00005V12C6.00005 12.5523 5.55234 13 5.00005 13C4.44777 13 4.00005 12.5523 4.00005 12V10.9515C2.852 10.6948 2.13395 9.4617 2.57044 8.29775L4.82046 2.29775C5.11319 1.51715 5.85943 1 6.69312 1H9.30699ZM4.99906 9C4.99874 9 4.99939 9 4.99906 9C4.99939 9 5.00071 9 5.00104 9H11.5571L9.30698 3.00001L6.69312 3L4.44309 9H4.99906Z" fill="black"/>
</svg>
