<svg width="32" height="32" viewBox="0 0 32 32" fill="none" xmlns="http://www.w3.org/2000/svg">
<rect width="32" height="32" fill="white"/>
<path fill-rule="evenodd" clip-rule="evenodd" d="M6.42579 9.3752C7.56844 5.13109 11.4162 2 16.0001 2C20.6928 2 24.614 5.28103 25.6513 9.67986C28.6749 10.071 31.0001 12.6755 31.0001 15.8146C31.0001 19.1986 28.298 21.9617 24.9313 21.9999L24.92 22.0001L13.7018 22C13.5519 22.2185 13.3562 22.4169 13.1118 22.5831L4.28946 29.6691L4.24595 29.6971C3.94048 29.8943 3.58451 30 3.2197 30C1.7918 30 0.989941 28.5535 1.44361 27.3849C1.50145 27.2359 1.57222 27.1045 1.61464 27.0258L1.61833 27.0189C1.66955 26.9238 1.68725 26.8896 1.69915 26.8606L3.79163 21.7622C3.86651 21.5797 4.00115 21.3421 4.06369 21.2317C4.07849 21.2055 4.08928 21.1865 4.09425 21.1771C4.16776 21.0374 4.16275 20.8661 4.07794 20.7187C3.99817 20.58 3.87123 20.5 3.70729 20.5H3.43861C1.33522 20.5 0.276143 18.0409 1.55831 16.4735L5.8427 9.88958L5.88822 9.83721C6.0456 9.6561 6.22702 9.50096 6.42579 9.3752ZM8.65559 9C9.83173 6.0642 12.6817 4 16.0001 4C19.956 4 23.2461 6.93391 23.8284 10.7791L23.9583 11.6367L24.8257 11.6293L24.8609 11.6291C27.1385 11.6291 29.0001 13.4946 29.0001 15.8146C29.0001 18.1166 27.1671 19.9715 24.914 20H13.9619C13.6853 19.1708 12.9481 18.5 11.8718 18.5C11.8161 18.5 11.7839 18.4856 11.7615 18.4704C11.7348 18.4523 11.7055 18.4209 11.6841 18.3746C11.6388 18.277 11.6543 18.1857 11.7046 18.1216C11.7219 18.0996 11.7384 18.0799 11.7649 18.0483L11.7932 18.0145C11.8315 17.9686 11.8856 17.9032 11.9397 17.8285L15.2679 13.2377C15.2922 13.2043 15.3077 13.1862 15.3362 13.153C15.3596 13.1258 15.3917 13.0884 15.4444 13.024C16.7059 11.4861 15.6932 9 13.5613 9H8.65559ZM3.1635 17.6737L7.43251 11.1134C7.51319 11.039 7.61541 11 7.71843 11H13.5613C13.7427 11 13.8785 11.0947 13.9533 11.26C14.032 11.4337 14.0108 11.6182 13.8981 11.7556C13.8932 11.7616 13.8841 11.7724 13.8719 11.7867C13.8215 11.846 13.7191 11.9666 13.6487 12.0638L10.3205 16.6546C10.3089 16.6706 10.2918 16.6921 10.2581 16.7326L10.242 16.7518C10.2131 16.7862 10.1711 16.8363 10.1325 16.8854C9.03563 18.2802 9.94851 20.5 11.8718 20.5C11.9422 20.5 11.9754 20.5197 11.9963 20.5368C12.0246 20.5599 12.0563 20.6024 12.0739 20.6639C12.0914 20.7253 12.0878 20.7819 12.0742 20.8225C12.0634 20.8549 12.0414 20.8944 11.9784 20.9351L11.9349 20.9631L3.4955 27.7415C3.51379 27.7029 3.53214 27.662 3.54939 27.62L5.64187 22.5215C5.66854 22.4565 5.68754 22.424 5.72204 22.3649C5.75226 22.3131 5.79438 22.2409 5.86397 22.1088C6.68252 20.554 5.62449 18.5 3.70729 18.5H3.43861C3.09422 18.5 2.83745 18.0489 3.11799 17.726L3.1635 17.6737Z" fill="black"/>
<path d="M20.1056 28.5527C19.8586 29.0467 20.0588 29.6474 20.5528 29.8944C21.0468 30.1414 21.6474 29.9411 21.8944 29.4472L23.8944 25.4472C24.1414 24.9532 23.9412 24.3525 23.4472 24.1055C22.9532 23.8585 22.3526 24.0588 22.1056 24.5527L20.1056 28.5527Z" fill="black"/>
<path d="M13.5528 29.8944C13.0588 29.6474 12.8586 29.0467 13.1056 28.5527L15.1056 24.5527C15.3526 24.0588 15.9532 23.8585 16.4472 24.1055C16.9412 24.3525 17.1414 24.9532 16.8944 25.4472L14.8944 29.4472C14.6474 29.9411 14.0468 30.1414 13.5528 29.8944Z" fill="black"/>
</svg>
