<svg width="32" height="32" viewBox="0 0 32 32" fill="none" xmlns="http://www.w3.org/2000/svg">
<rect width="32" height="32" fill="white"/>
<path fill-rule="evenodd" clip-rule="evenodd" d="M13.2805 3.01228C13.8499 2.36858 14.668 2 15.5275 2H23.6662C26.2849 2 27.6047 5.08388 25.9183 6.98285C25.9104 6.99173 25.9029 7.00016 25.8958 7.00817C25.8223 7.09085 25.788 7.12946 25.7578 7.17033L21.0469 13.554C20.9674 13.6618 20.8703 13.7723 20.8136 13.837C20.8014 13.8509 20.7911 13.8626 20.7832 13.8718C20.4109 14.3038 20.7224 15 21.3128 15C23.9853 15 25.0108 18.4674 22.7998 19.9273L10.5141 29.6212L10.4706 29.6488C10.1089 29.8782 9.68935 30 9.261 30C7.53121 30 6.51798 28.1869 7.23159 26.7464C7.27908 26.6505 7.33396 26.5536 7.37156 26.4871C7.37905 26.4739 7.38586 26.4619 7.39178 26.4513C7.43551 26.3733 7.45636 26.3322 7.46921 26.3015L10.4632 19.1347C10.5584 18.907 10.689 18.694 10.7711 18.5602C10.7833 18.5402 10.7945 18.522 10.8043 18.5058C11.193 17.8623 10.7266 17 9.94017 17H9.56592C7.00622 17 5.63327 14.0084 7.26922 12.0698L13.2343 3.0645L13.2805 3.01228ZM14.818 4.29524L8.86311 13.2852L8.81692 13.3374C8.24597 13.9829 8.7042 15 9.56592 15H9.94017C12.3212 15 13.6908 17.5956 12.5161 19.54C12.4991 19.5682 12.4834 19.5941 12.469 19.6178C12.3817 19.7618 12.3402 19.8302 12.3087 19.9057L9.31464 27.0724C9.25448 27.2164 9.18524 27.3421 9.13612 27.4297C9.12304 27.453 9.11149 27.4735 9.10113 27.4919C9.06616 27.5539 9.04468 27.5919 9.02373 27.6342C8.98959 27.7031 8.98987 27.7932 9.04128 27.8782C9.08738 27.9544 9.15787 28 9.261 28C9.29929 28 9.33695 27.9915 9.37134 27.9753L21.6378 18.2965L21.6812 18.2689C22.263 17.9 22.0016 17 21.3128 17C18.9797 17 17.7994 14.2707 19.2681 12.5663C19.3007 12.5284 19.326 12.4994 19.3466 12.4759C19.3903 12.4259 19.4125 12.4005 19.4376 12.3665L24.1485 5.98277C24.2373 5.86248 24.3366 5.75134 24.3999 5.68051C24.4082 5.67123 24.4159 5.66263 24.4228 5.6548C24.9813 5.02595 24.5331 4 23.6662 4H15.5275C15.2603 4 15.0051 4.10683 14.818 4.29524Z" fill="black"/>
</svg>
