<svg width="16" height="16" viewBox="0 0 16 16" fill="none" xmlns="http://www.w3.org/2000/svg">
<rect width="16" height="16" fill="white"/>
<path fill-rule="evenodd" clip-rule="evenodd" d="M6.71704 1.70307C7.09703 1.25699 7.65353 1 8.23952 1H14C14.4044 1 14.7691 1.24364 14.9238 1.61732C15.0786 1.99099 14.9931 2.42111 14.7071 2.70711L10.3515 7.06263C11.7386 7.43592 12.1658 9.38081 10.8407 10.2534L4.02563 14.7414C3.76949 14.9101 3.46953 15 3.16284 15C1.85741 15 1.12309 13.4986 1.92454 12.4681L4.62383 8.99762C3.0251 8.92128 2.18284 7.02582 3.23954 5.78534L6.71704 1.70307ZM11.5857 3L8.23952 3L4.82984 7.00267C6.38595 7.08164 7.23775 8.89451 6.26334 10.1473L5.10615 11.6351L9.2616 8.89863C8.10478 8.48965 7.64895 6.93679 8.61214 5.97361L11.5857 3Z" fill="black"/>
</svg>
