<svg width="16" height="16" viewBox="0 0 16 16" fill="none" xmlns="http://www.w3.org/2000/svg">
<rect width="16" height="16" fill="white"/>
<path d="M14.0001 2L14.7072 2.70711C14.9932 2.42111 15.0787 1.99099 14.9239 1.61732C14.7692 1.24364 14.4045 1 14.0001 1V2ZM10.2909 9.41826L10.8408 10.2534L10.2909 9.41826ZM2.714 13.0821L3.50335 13.696L2.714 13.0821ZM5.47409 9.53339L4.68474 8.91945L5.47409 9.53339ZM4.00089 6.43381L3.23964 5.78534L3.23964 5.78534L4.00089 6.43381ZM3.47575 13.9063L2.92576 13.0711H2.92576L3.47575 13.9063ZM7.47838 2.35153L8.23962 3L7.47838 2.35153ZM8.23962 3H14.0001V1H8.23962V3ZM4.76213 7.08228L8.23962 3L6.71714 1.70307L3.23964 5.78534L4.76213 7.08228ZM3.50335 13.696L6.26344 10.1473L4.68474 8.91945L1.92465 12.4681L3.50335 13.696ZM9.74086 8.58309L2.92576 13.0711L4.02574 14.7414L10.8408 10.2534L9.74086 8.58309ZM13.293 1.29289L8.61224 5.97361L10.0265 7.38782L14.7072 2.70711L13.293 1.29289ZM9.86581 7C10.0682 7 10.1696 7.24471 10.0265 7.38782L8.61224 5.97361C7.49542 7.09042 8.28639 9 9.86581 9V7ZM10.8408 10.2534C12.3101 9.28587 11.625 7 9.86581 7V9C9.83086 9 9.77416 8.98531 9.72363 8.94515C9.67971 8.91025 9.65789 8.87039 9.64819 8.83804C9.6385 8.80568 9.6348 8.7604 9.65228 8.70709C9.6724 8.64576 9.71168 8.6023 9.74086 8.58309L10.8408 10.2534ZM1.92465 12.4681C1.12319 13.4986 1.85751 15 3.16294 15V13C3.52181 13 3.72367 13.4127 3.50335 13.696L1.92465 12.4681ZM4.72413 9C4.72634 9 4.72286 9.0002 4.71571 8.99806C4.7088 8.99598 4.70189 8.99274 4.69585 8.98879C4.68446 8.98134 4.68051 8.97449 4.6793 8.97202C4.67809 8.96954 4.6751 8.96222 4.67622 8.94865C4.67681 8.94146 4.6785 8.93401 4.6811 8.92729C4.68379 8.92033 4.68609 8.9177 4.68474 8.91945L6.26344 10.1473C7.25972 8.8664 6.3469 7 4.72413 7V9ZM3.23964 5.78534C2.16107 7.05149 3.06087 9 4.72413 9V7C4.7213 7 4.72474 6.99971 4.73222 7.00201C4.73944 7.00422 4.74668 7.0077 4.75297 7.01192C4.7648 7.01987 4.7685 7.02693 4.76945 7.02899C4.7704 7.03104 4.77337 7.03844 4.77175 7.0526C4.77089 7.06012 4.76884 7.06789 4.76584 7.07482C4.76274 7.082 4.76029 7.08443 4.76213 7.08228L3.23964 5.78534ZM3.16294 15C3.46963 15 3.7696 14.9101 4.02574 14.7414L2.92576 13.0711C2.99617 13.0247 3.07863 13 3.16294 13V15ZM8.23962 1C7.65364 1 7.09713 1.25699 6.71714 1.70307L8.23962 3V3V1Z" fill="black"/>
</svg>
