<svg width="32" height="32" viewBox="0 0 32 32" fill="none" xmlns="http://www.w3.org/2000/svg">
<rect width="32" height="32" fill="white"/>
<path d="M24.817 10.6293L23.8283 10.7791L23.9576 11.6329L24.8212 11.6293L24.817 10.6293ZM24.8608 10.6291V9.62913L24.8566 9.62915L24.8608 10.6291ZM24.9198 21L24.9198 22.0001L24.9312 21.9999L24.9198 21ZM20.1056 28.5528C19.8586 29.0468 20.0588 29.6474 20.5528 29.8944C21.0468 30.1414 21.6474 29.9412 21.8944 29.4472L20.1056 28.5528ZM23.8944 25.4472C24.1414 24.9532 23.9412 24.3526 23.4472 24.1056C22.9532 23.8586 22.3526 24.0588 22.1056 24.5528L23.8944 25.4472ZM13.1056 28.5528C12.8586 29.0468 13.0588 29.6474 13.5528 29.8944C14.0468 30.1414 14.6474 29.9412 14.8944 29.4472L13.1056 28.5528ZM16.8944 25.4472C17.1414 24.9532 16.9412 24.3526 16.4472 24.1056C15.9532 23.8586 15.3526 24.0588 15.1056 24.5528L16.8944 25.4472ZM12.5208 21.7752L11.9784 20.9351L11.9349 20.9631L11.8945 20.9956L12.5208 21.7752ZM3.70363 28.857L4.24597 29.6971L4.28947 29.6691L4.32984 29.6366L3.70363 28.857ZM2.3632 17.0701L3.118 17.726L3.16351 17.6737L3.20136 17.6155L2.3632 17.0701ZM6.64303 10.4932L5.88823 9.83721L5.84271 9.88958L5.80486 9.94774L6.64303 10.4932ZM4.71676 22.1418L3.79165 21.7622L3.79165 21.7622L4.71676 22.1418ZM4.97912 21.6429L4.09426 21.1771L4.97912 21.6429ZM2.62428 27.2403L3.5494 27.62L3.5494 27.62L2.62428 27.2403ZM2.37585 27.7468L1.44363 27.3849L1.44363 27.3849L2.37585 27.7468ZM14.4583 12.6507L13.6487 12.0638L14.4583 12.6507ZM14.6713 12.3898L15.4445 13.024L14.6713 12.3898ZM11.1301 17.2416L11.9398 17.8285L11.1301 17.2416ZM10.9185 17.5035L11.7046 18.1216L10.9185 17.5035ZM16 4C19.9559 4 23.246 6.93391 23.8283 10.7791L25.8058 10.4796C25.0796 5.68469 20.9729 2 16 2V4ZM24.8212 11.6293L24.8649 11.6291L24.8566 9.62915L24.8129 9.62933L24.8212 11.6293ZM24.8608 11.6291C27.1384 11.6291 29 13.4946 29 15.8146H31C31 12.4069 28.2598 9.62914 24.8608 9.62914V11.6291ZM29 15.8146C29 18.1184 27.164 19.9744 24.9085 20.0001L24.9312 21.9999C28.2979 21.9617 31 19.1986 31 15.8146H29ZM24.9198 20H12.5V22H24.9198V20ZM8.27683 10.2194C9.07909 6.65206 12.2387 4 16 4V2C11.2713 2 7.32601 5.33199 6.32556 9.78059L8.27683 10.2194ZM21.8944 29.4472L23.8944 25.4472L22.1056 24.5528L20.1056 28.5528L21.8944 29.4472ZM14.8944 29.4472L16.8944 25.4472L15.1056 24.5528L13.1056 28.5528L14.8944 29.4472ZM7.71845 11H13.5613V9H7.71845V11ZM3.20136 17.6155L7.48119 11.0386L5.80486 9.94774L1.52504 16.5247L3.20136 17.6155ZM3.7073 18.5H3.43862V20.5H3.7073V18.5ZM3.5494 27.62L5.64188 22.5215L3.79165 21.7622L1.69916 26.8606L3.5494 27.62ZM11.8945 20.9956L3.07743 28.0773L4.32984 29.6366L13.147 22.5549L11.8945 20.9956ZM13.6487 12.0638L10.3205 16.6546L11.9398 17.8285L15.268 13.2377L13.6487 12.0638ZM11.8718 18.5C11.8161 18.5 11.7839 18.4856 11.7615 18.4704C11.7348 18.4523 11.7056 18.4209 11.6841 18.3746C11.6389 18.277 11.6543 18.1857 11.7046 18.1216L10.1325 16.8854C9.03564 18.2802 9.94852 20.5 11.8718 20.5V18.5ZM13.0631 22.6154C14.8907 21.4356 14.1234 18.5 11.8718 18.5V20.5C11.9422 20.5 11.9754 20.5197 11.9963 20.5368C12.0246 20.5599 12.0563 20.6024 12.0739 20.6639C12.0914 20.7253 12.0878 20.7819 12.0742 20.8225C12.0634 20.8549 12.0414 20.8944 11.9784 20.9351L13.0631 22.6154ZM3.21972 30C3.58453 30 3.9405 29.8943 4.24597 29.6971L3.1613 28.0168C3.17733 28.0065 3.19763 28 3.21972 28V30ZM1.44363 27.3849C0.989953 28.5535 1.79181 30 3.21972 30V28C3.22992 28 3.25105 28.0037 3.2728 28.0161C3.29196 28.027 3.30192 28.0391 3.30629 28.0458C3.31124 28.0535 3.32115 28.075 3.30807 28.1087L1.44363 27.3849ZM3.7073 20.5C3.87124 20.5 3.99818 20.58 4.07795 20.7187C4.16277 20.8661 4.16777 21.0374 4.09426 21.1771L5.86399 22.1088C6.68253 20.554 5.6245 18.5 3.7073 18.5V20.5ZM1.6084 16.4141C0.249374 17.9779 1.30847 20.5 3.43862 20.5V18.5C3.09423 18.5 2.83746 18.0489 3.118 17.726L1.6084 16.4141ZM13.5613 11C13.7427 11 13.8785 11.0947 13.9534 11.26C14.032 11.4337 14.0108 11.6182 13.8981 11.7556L15.4445 13.024C16.7059 11.4861 15.6932 9 13.5613 9V11ZM7.71845 9C7.01424 9 6.34848 9.3076 5.88823 9.83721L7.39783 11.1491C7.48263 11.0515 7.60001 11 7.71845 11V9ZM5.64188 22.5215C5.69191 22.3996 5.71494 22.3919 5.86399 22.1088L4.09426 21.1771C4.0683 21.2264 3.88426 21.5365 3.79165 21.7622L5.64188 22.5215ZM1.69916 26.8606C1.68726 26.8896 1.66956 26.9238 1.61834 27.0189C1.57643 27.0968 1.50318 27.2315 1.44363 27.3849L3.30807 28.1087C3.31649 28.087 3.33179 28.0553 3.37928 27.9671C3.41745 27.8963 3.48998 27.7648 3.5494 27.62L1.69916 26.8606ZM15.268 13.2377C15.3121 13.1768 15.3273 13.1669 15.4445 13.024L13.8981 11.7556C13.873 11.7862 13.7362 11.9431 13.6487 12.0638L15.268 13.2377ZM10.3205 16.6546C10.3089 16.6706 10.2918 16.6921 10.2581 16.7326C10.2306 16.7655 10.1791 16.8261 10.1325 16.8854L11.7046 18.1216C11.7273 18.0927 11.7487 18.0678 11.7932 18.0145C11.8315 17.9686 11.8856 17.9032 11.9398 17.8285L10.3205 16.6546Z" fill="black"/>
</svg>
