<svg width="16" height="16" viewBox="0 0 16 16" fill="none" xmlns="http://www.w3.org/2000/svg">
<rect width="16" height="16" fill="white"/>
<path fill-rule="evenodd" clip-rule="evenodd" d="M9.29249 3.22668L8.0963 5.27737C7.56105 6.19497 7.27902 7.23822 7.27902 8.30052V13H11.4801L12.9575 7.28571H10.7505C9.58034 7.28571 8.70179 6.21658 8.92859 5.0686L9.29249 3.22668ZM5.27902 13V8.14286H3.0381L3.00109 13H5.27902ZM5.57548 6.14286C5.75832 5.49007 6.02417 4.86034 6.36872 4.26966L7.73851 1.92137C8.07127 1.35122 8.68198 1 9.34265 1H9.51115C10.6813 1 11.5598 2.06917 11.333 3.21712L10.9244 5.28571H13.1425C14.3308 5.28571 15.2131 6.38616 14.9554 7.54584L14.9517 7.56259L13.3996 13.5657C13.2035 14.4051 12.4548 15 11.5913 15H2.85709C1.82599 15 0.992162 14.1599 1.00006 13.1288L1.03924 7.98589C1.04706 6.96588 1.8761 6.14286 2.89633 6.14286H5.57548Z" fill="black"/>
</svg>
