<svg width="16" height="16" viewBox="0 0 16 16" fill="none" xmlns="http://www.w3.org/2000/svg">
<rect width="16" height="16" fill="white"/>
<path d="M6.27902 14H2.85709C2.38119 14 1.99636 13.6122 2.00003 13.1364L2.03921 7.99351C2.04282 7.52267 2.4255 7.14286 2.89633 7.14286H6.27902V14ZM6.27902 14V8.30052C6.27902 7.06117 6.60806 5.84405 7.23251 4.77352L8.6023 2.42522C8.75594 2.16197 9.03781 2 9.34265 2H9.51115C10.0512 2 10.4567 2.49344 10.352 3.0233L9.90963 5.26242C9.80495 5.79227 10.2104 6.28571 10.7505 6.28571H13.1425C13.6909 6.28571 14.0982 6.7936 13.9792 7.32889L12.428 13.3289C12.3408 13.7211 11.993 14 11.5913 14H6.27902Z" stroke="black" stroke-width="2"/>
</svg>
