<svg width="32" height="32" viewBox="0 0 32 32" fill="none" xmlns="http://www.w3.org/2000/svg">
<rect width="32" height="32" fill="white"/>
<path d="M20.1672 5.31802C21.9246 3.56066 24.7738 3.56066 26.5312 5.31802C28.2886 7.07538 28.2886 9.92462 26.5312 11.682L23.3492 14.864C22.9587 15.2545 22.9587 15.8877 23.3493 16.2782C23.7398 16.6687 24.3729 16.6687 24.7635 16.2782L27.9454 13.0962C30.4838 10.5578 30.4838 6.44221 27.9454 3.90381C25.407 1.3654 21.2914 1.3654 18.753 3.90381L14.6673 7.98963C14.2767 8.38016 14.2767 9.01332 14.6673 9.40384C15.0578 9.79436 15.691 9.79436 16.0815 9.40383L20.1672 5.31802Z" fill="black"/>
<path d="M9.2071 16.2782C9.59763 15.8877 9.59763 15.2545 9.2071 14.864C8.81658 14.4735 8.18341 14.4735 7.79289 14.864L3.90381 18.7531C1.3654 21.2915 1.3654 25.4071 3.90381 27.9455C6.44221 30.4839 10.5578 30.4839 13.0962 27.9455L17.1924 23.8493C17.5829 23.4588 17.5829 22.8256 17.1924 22.4351C16.8019 22.0445 16.1687 22.0445 15.7782 22.4351L11.682 26.5313C9.92462 28.2886 7.07538 28.2886 5.31802 26.5313C3.56066 24.7739 3.56066 21.9247 5.31802 20.1673L9.2071 16.2782Z" fill="black"/>
<path d="M20.7071 12.7071C21.0976 12.3166 21.0976 11.6834 20.7071 11.2929C20.3166 10.9024 19.6834 10.9024 19.2929 11.2929L11.2929 19.2929C10.9024 19.6834 10.9024 20.3166 11.2929 20.7071C11.6834 21.0977 12.3166 21.0977 12.7071 20.7071L20.7071 12.7071Z" fill="black"/>
</svg>
