<svg width="16" height="16" viewBox="0 0 16 16" fill="none" xmlns="http://www.w3.org/2000/svg">
<rect width="16" height="16" fill="white"/>
<path fill-rule="evenodd" clip-rule="evenodd" d="M12.5451 3.45494C11.9385 2.84835 10.955 2.84835 10.3484 3.45494L8.45395 5.3494C8.45359 5.34977 8.45323 5.35013 8.45287 5.35049C8.0261 5.78049 8.01451 6.06107 8.05371 6.28709C8.11412 6.63541 8.33667 7.02386 8.70919 7.61443C8.72778 7.6439 8.74691 7.6741 8.76648 7.70501C9.08074 8.20119 9.50988 8.87877 9.65953 9.6104C9.74564 10.0314 9.7474 10.4908 9.59571 10.9662C9.44557 11.4367 9.16433 11.8627 8.77404 12.251C8.77372 12.2514 8.77339 12.2517 8.77307 12.252L7.06581 13.9593C5.67817 15.3469 3.42837 15.3469 2.04073 13.9593C0.65309 12.5716 0.65309 10.3218 2.04073 8.9342L3.18964 7.78529C3.58017 7.39476 4.21333 7.39476 4.60386 7.78529C4.99438 8.17581 4.99438 8.80898 4.60385 9.1995L3.45494 10.3484C2.84835 10.955 2.84835 11.9385 3.45494 12.5451C4.06153 13.1516 5.04501 13.1516 5.6516 12.5451L7.36089 10.8358L7.36291 10.8337C7.57517 10.6227 7.65682 10.4633 7.69036 10.3582C7.72248 10.2575 7.72862 10.1507 7.70009 10.0112C7.62979 9.66745 7.3988 9.28579 7.0176 8.68145C7.00962 8.66879 7.00155 8.65601 6.9934 8.6431C6.66915 8.12942 6.21997 7.41782 6.08313 6.62888C5.92168 5.69801 6.19972 4.78065 7.03517 3.93977L7.03745 3.93748L8.93419 2.04073C10.3218 0.653094 12.5716 0.653089 13.9593 2.04072C15.3469 3.42836 15.3469 5.67816 13.9593 7.0658L12.4821 8.54298C12.0916 8.9335 11.4584 8.93351 11.0679 8.54299C10.6774 8.15247 10.6774 7.5193 11.0679 7.12877L12.5451 5.65159C13.1516 5.045 13.1516 4.06153 12.5451 3.45494Z" fill="black"/>
</svg>
