<svg width="16" height="16" viewBox="0 0 16 16" fill="none" xmlns="http://www.w3.org/2000/svg">
<rect width="16" height="16" fill="white"/>
<path d="M8.93039 5.57207L9.98518 4.51726C10.6749 3.82758 11.7931 3.82758 12.4827 4.51726C13.1724 5.20693 13.1724 6.32514 12.4827 7.01482L11.8825 7.61511C11.492 8.00564 11.492 8.63881 11.8825 9.02932C12.273 9.41984 12.9062 9.41982 13.2967 9.02929L13.897 8.429C15.3677 6.95827 15.3677 4.57376 13.897 3.10304C12.4262 1.63231 10.0417 1.63232 8.57096 3.10305L7.51616 4.15787C7.12564 4.5484 7.12565 5.18157 7.51618 5.57209C7.90671 5.9626 8.53987 5.9626 8.93039 5.57207Z" fill="black"/>
<path d="M5.47315 9.0293C5.86367 8.63878 5.86367 8.00562 5.47315 7.61509C5.08262 7.22457 4.44946 7.22457 4.05893 7.61509L3.10305 8.57097C1.63232 10.0417 1.63232 12.4262 3.10305 13.8969C4.57378 15.3677 6.9583 15.3677 8.42903 13.8969L9.48908 12.8369C9.8796 12.4464 9.8796 11.8132 9.48908 11.4227C9.09856 11.0322 8.46539 11.0322 8.07487 11.4227L7.01482 12.4827C6.32514 13.1724 5.20694 13.1724 4.51726 12.4827C3.82758 11.7931 3.82758 10.6749 4.51726 9.98519L5.47315 9.0293Z" fill="black"/>
<path d="M10.9415 7.38633C11.332 6.99581 11.332 6.36265 10.9415 5.97212C10.551 5.5816 9.91779 5.5816 9.52727 5.97212L6.12291 9.37648C5.73239 9.767 5.73239 10.4002 6.12291 10.7907C6.51343 11.1812 7.1466 11.1812 7.53712 10.7907L10.9415 7.38633Z" fill="black"/>
</svg>
