<svg width="16" height="16" viewBox="0 0 16 16" fill="none" xmlns="http://www.w3.org/2000/svg">
<rect width="16" height="16" fill="white"/>
<path d="M14 6H13V6L14 6ZM14 13H15H14ZM4.00001 14V15H4.00001L4.00001 14ZM13 14V13V14ZM3 6H2V6L3 6ZM3.00001 13L4.00001 13L3.00001 13ZM7.46964 2.43063L8.18873 3.12555L7.46964 2.43063ZM9.53036 2.43063L8.81127 3.12555L9.53036 2.43063ZM13 6L13 13H15L15 6L13 6ZM4.00001 15L13 15V13L4.00001 13L4.00001 15ZM2 6L2.00001 13L4.00001 13L4 6L2 6ZM12 6H13V4H12V6ZM4 6H5V4H4V6ZM4 6L4 6V4C2.89543 4 2 4.89543 2 6H4ZM4.00001 13L2.00001 13C2.00001 14.1046 2.89545 15 4.00001 15V13ZM13 13L13 13V15C14.1046 15 15 14.1046 15 13H13ZM15 6C15 4.89543 14.1046 4 13 4V6L13 6H15ZM8.5 3C8.6332 3 8.74157 3.05343 8.81127 3.12555L10.2494 1.7357C9.80743 1.27833 9.18198 1 8.5 1V3ZM8.18873 3.12555C8.25843 3.05343 8.3668 3 8.5 3V1C7.81801 1 7.19257 1.27833 6.75056 1.7357L8.18873 3.12555ZM6 4.33333H6.1V2.33333H6V4.33333ZM6 5V4.33333H4V5H6ZM11 5H6V7H11V5ZM11 4.33333V5H13V4.33333H11ZM10.9 4.33333H11V2.33333H10.9V4.33333ZM13 4.33333C13 3.22876 12.1046 2.33333 11 2.33333V4.33333H11H13ZM11 7C12.1046 7 13 6.10457 13 5H11V7ZM4 5C4 6.10457 4.89543 7 6 7V5H4ZM6 2.33333C4.89543 2.33333 4 3.22877 4 4.33333H6L6 4.33333V2.33333ZM6.75056 1.7357C6.52371 1.97044 6.38672 2.12233 6.23249 2.24278C6.08974 2.35427 6.05829 2.33333 6.1 2.33333V4.33333C6.694 4.33333 7.15547 4.05961 7.46352 3.81903C7.76009 3.58741 8.03178 3.28795 8.18873 3.12555L6.75056 1.7357ZM8.81127 3.12555C8.96822 3.28795 9.23991 3.58741 9.53648 3.81903C9.84453 4.05961 10.306 4.33333 10.9 4.33333V2.33333C10.9417 2.33333 10.9103 2.35427 10.7675 2.24278C10.6133 2.12233 10.4763 1.97044 10.2494 1.7357L8.81127 3.12555Z" fill="black"/>
</svg>
