<svg width="32" height="32" viewBox="0 0 32 32" fill="none" xmlns="http://www.w3.org/2000/svg">
<rect width="32" height="32" fill="white"/>
<path d="M12 24C11.4477 24 11 24.4477 11 25C11 25.5523 11.4477 26 12 26V24ZM29 26C29.5523 26 30 25.5523 30 25C30 24.4477 29.5523 24 29 24V26ZM12 15C11.4477 15 11 15.4477 11 16C11 16.5523 11.4477 17 12 17V15ZM29 17C29.5523 17 30 16.5523 30 16C30 15.4477 29.5523 15 29 15V17ZM12 6C11.4477 6 11 6.44772 11 7C11 7.55228 11.4477 8 12 8V6ZM29 8C29.5523 8 30 7.55228 30 7C30 6.44772 29.5523 6 29 6V8ZM6 7C6 7.55228 5.55228 8 5 8V10C6.65685 10 8 8.65685 8 7H6ZM5 8C4.44772 8 4 7.55228 4 7H2C2 8.65685 3.34315 10 5 10V8ZM4 7C4 6.44772 4.44772 6 5 6V4C3.34315 4 2 5.34315 2 7H4ZM5 6C5.55228 6 6 6.44772 6 7H8C8 5.34315 6.65685 4 5 4V6ZM6 16C6 16.5523 5.55228 17 5 17V19C6.65685 19 8 17.6569 8 16H6ZM5 17C4.44772 17 4 16.5523 4 16H2C2 17.6569 3.34315 19 5 19V17ZM4 16C4 15.4477 4.44772 15 5 15V13C3.34315 13 2 14.3431 2 16H4ZM5 15C5.55228 15 6 15.4477 6 16H8C8 14.3431 6.65685 13 5 13V15ZM6 25C6 25.5523 5.55228 26 5 26V28C6.65685 28 8 26.6569 8 25H6ZM5 26C4.44772 26 4 25.5523 4 25H2C2 26.6569 3.34315 28 5 28V26ZM4 25C4 24.4477 4.44772 24 5 24V22C3.34315 22 2 23.3431 2 25H4ZM5 24C5.55228 24 6 24.4477 6 25H8C8 23.3431 6.65685 22 5 22V24ZM12 26H29V24H12V26ZM12 17H29V15H12V17ZM12 8H29V6H12V8Z" fill="black"/>
</svg>
