<svg width="32" height="32" viewBox="0 0 32 32" fill="none" xmlns="http://www.w3.org/2000/svg">
<rect width="32" height="32" fill="white"/>
<path fill-rule="evenodd" clip-rule="evenodd" d="M5 4C3.34315 4 2 5.34315 2 7C2 8.65685 3.34315 10 5 10C6.65685 10 8 8.65685 8 7C8 5.34315 6.65685 4 5 4ZM4 7C4 6.44772 4.44772 6 5 6C5.55228 6 6 6.44772 6 7C6 7.55228 5.55228 8 5 8C4.44772 8 4 7.55228 4 7Z" fill="black"/>
<path fill-rule="evenodd" clip-rule="evenodd" d="M5 13C3.34315 13 2 14.3431 2 16C2 17.6569 3.34315 19 5 19C6.65685 19 8 17.6569 8 16C8 14.3431 6.65685 13 5 13ZM4 16C4 15.4477 4.44772 15 5 15C5.55228 15 6 15.4477 6 16C6 16.5523 5.55228 17 5 17C4.44772 17 4 16.5523 4 16Z" fill="black"/>
<path fill-rule="evenodd" clip-rule="evenodd" d="M2 25C2 23.3431 3.34315 22 5 22C6.65685 22 8 23.3431 8 25C8 26.6569 6.65685 28 5 28C3.34315 28 2 26.6569 2 25ZM5 24C4.44772 24 4 24.4477 4 25C4 25.5523 4.44772 26 5 26C5.55228 26 6 25.5523 6 25C6 24.4477 5.55228 24 5 24Z" fill="black"/>
<path d="M29 26C29.5523 26 30 25.5523 30 25C30 24.4477 29.5523 24 29 24H12C11.4477 24 11 24.4477 11 25C11 25.5523 11.4477 26 12 26H29Z" fill="black"/>
<path d="M30 16C30 16.5523 29.5523 17 29 17H12C11.4477 17 11 16.5523 11 16C11 15.4477 11.4477 15 12 15H29C29.5523 15 30 15.4477 30 16Z" fill="black"/>
<path d="M29 8C29.5523 8 30 7.55228 30 7C30 6.44772 29.5523 6 29 6H12C11.4477 6 11 6.44772 11 7C11 7.55228 11.4477 8 12 8H29Z" fill="black"/>
</svg>
