<svg width="16" height="16" viewBox="0 0 16 16" fill="none" xmlns="http://www.w3.org/2000/svg">
<rect width="16" height="16" fill="white"/>
<path d="M15 3C15 3.55228 14.5523 4 14 4H7C6.44772 4 6 3.55228 6 3C6 2.44772 6.44772 2 7 2H14C14.5523 2 15 2.44772 15 3Z" fill="black"/>
<path d="M15 8C15 8.55228 14.5523 9 14 9H7C6.44772 9 6 8.55228 6 8C6 7.44772 6.44772 7 7 7H14C14.5523 7 15 7.44772 15 8Z" fill="black"/>
<path d="M3 14C3.55228 14 4 13.5523 4 13C4 12.4477 3.55228 12 3 12H2C1.44772 12 1 12.4477 1 13C1 13.5523 1.44772 14 2 14H3Z" fill="black"/>
<path d="M14 14C14.5523 14 15 13.5523 15 13C15 12.4477 14.5523 12 14 12H7C6.44772 12 6 12.4477 6 13C6 13.5523 6.44772 14 7 14H14Z" fill="black"/>
<path d="M3 9C3.55228 9 4 8.55228 4 8C4 7.44772 3.55228 7 3 7H2C1.44772 7 1 7.44772 1 8C1 8.55228 1.44772 9 2 9H3Z" fill="black"/>
<path d="M3 4C3.55228 4 4 3.55228 4 3C4 2.44772 3.55228 2 3 2H2C1.44772 2 1 2.44772 1 3C1 3.55228 1.44772 4 2 4H3Z" fill="black"/>
</svg>
