<svg width="32" height="32" viewBox="0 0 32 32" fill="none" xmlns="http://www.w3.org/2000/svg">
<rect width="32" height="32" fill="white"/>
<path d="M3 15C2.44772 15 2 15.4477 2 16C2 16.5523 2.44772 17 3 17V15ZM29 17C29.5523 17 30 16.5523 30 16C30 15.4477 29.5523 15 29 15V17ZM17 3C17 2.44772 16.5523 2 16 2C15.4477 2 15 2.44772 15 3H17ZM15 29C15 29.5523 15.4477 30 16 30C16.5523 30 17 29.5523 17 29H15ZM25 16C25 20.9706 20.9706 25 16 25V27C22.0751 27 27 22.0751 27 16H25ZM16 25C11.0294 25 7 20.9706 7 16H5C5 22.0751 9.92487 27 16 27V25ZM7 16C7 11.0294 11.0294 7 16 7V5C9.92487 5 5 9.92487 5 16H7ZM16 7C20.9706 7 25 11.0294 25 16H27C27 9.92487 22.0751 5 16 5V7ZM3 17H6V15H3V17ZM26 17H29V15H26V17ZM15 3V6H17V3H15ZM15 26V29H17V26H15ZM18 16C18 17.1046 17.1046 18 16 18V20C18.2091 20 20 18.2091 20 16H18ZM16 18C14.8954 18 14 17.1046 14 16H12C12 18.2091 13.7909 20 16 20V18ZM14 16C14 14.8954 14.8954 14 16 14V12C13.7909 12 12 13.7909 12 16H14ZM16 14C17.1046 14 18 14.8954 18 16H20C20 13.7909 18.2091 12 16 12V14Z" fill="black"/>
</svg>
