<svg width="32" height="32" viewBox="0 0 32 32" fill="none" xmlns="http://www.w3.org/2000/svg">
<rect width="32" height="32" fill="white"/>
<path fill-rule="evenodd" clip-rule="evenodd" d="M16 12C13.7909 12 12 13.7909 12 16C12 18.2091 13.7909 20 16 20C18.2091 20 20 18.2091 20 16C20 13.7909 18.2091 12 16 12ZM14 16C14 14.8954 14.8954 14 16 14C17.1046 14 18 14.8954 18 16C18 17.1046 17.1046 18 16 18C14.8954 18 14 17.1046 14 16Z" fill="black"/>
<path fill-rule="evenodd" clip-rule="evenodd" d="M17 3C17 2.44772 16.5523 2 16 2C15.4477 2 15 2.44772 15 3V5.04484C9.72286 5.52039 5.52039 9.72286 5.04484 15H3C2.44772 15 2 15.4477 2 16C2 16.5523 2.44772 17 3 17H5.04484C5.52039 22.2771 9.72286 26.4796 15 26.9552V29C15 29.5523 15.4477 30 16 30C16.5523 30 17 29.5523 17 29V26.9552C22.2771 26.4796 26.4796 22.2771 26.9552 17H29C29.5523 17 30 16.5523 30 16C30 15.4477 29.5523 15 29 15H26.9552C26.4796 9.72286 22.2771 5.52039 17 5.04484V3ZM25 16C25 20.9706 20.9706 25 16 25C11.0294 25 7 20.9706 7 16C7 11.0294 11.0294 7 16 7C20.9706 7 25 11.0294 25 16Z" fill="black"/>
</svg>
