<svg width="32" height="32" viewBox="0 0 32 32" fill="none" xmlns="http://www.w3.org/2000/svg">
<rect width="32" height="32" fill="white"/>
<path d="M21 13C21 12.4477 20.5523 12 20 12C19.4477 12 19 12.4477 19 13V17C19 17.5523 19.4477 18 20 18C20.5523 18 21 17.5523 21 17V13Z" fill="black"/>
<path d="M12 12C12.5523 12 13 12.4477 13 13V17C13 17.5523 12.5523 18 12 18C11.4477 18 11 17.5523 11 17V13C11 12.4477 11.4477 12 12 12Z" fill="black"/>
<path fill-rule="evenodd" clip-rule="evenodd" d="M2 3C2 1.89543 2.89543 1 4 1H28C29.1046 1 30 1.89543 30 3V29C30 29.5523 29.5523 30 29 30C28.4477 30 28 29.5523 28 29V28H4V29C4 29.5523 3.55228 30 3 30C2.44772 30 2 29.5523 2 29V3ZM28 3V26H17V3H28ZM15 3V26H4V3L15 3Z" fill="black"/>
</svg>
