<svg width="16" height="16" viewBox="0 0 16 16" fill="none" xmlns="http://www.w3.org/2000/svg">
<rect width="16" height="16" fill="white"/>
<path d="M9 9C9 8.44772 8.55229 8 8 8C7.44772 8 7 8.44772 7 9V11C7 11.5523 7.44772 12 8 12C8.55229 12 9 11.5523 9 11V9Z" fill="black"/>
<path fill-rule="evenodd" clip-rule="evenodd" d="M8 1C5.5297 1 3.47781 2.79146 3.07263 5.14608C1.86965 5.53671 1 6.6668 1 8V12C1 13.6569 2.34315 15 4 15H12C13.6569 15 15 13.6569 15 12L15 8.00001C15 6.66681 14.1303 5.53673 12.9274 5.1461C12.5222 2.79146 10.4703 1 8 1ZM8 3C6.69378 3 5.58254 3.83481 5.17071 5L10.8293 5.00001C10.4175 3.83481 9.30622 3 8 3ZM13 12L13 8.00001C13 7.44773 12.5523 7.00001 12 7.00001L4 7C3.44772 7 3 7.44771 3 8L3 12C3 12.5523 3.44771 13 4 13H12C12.5523 13 13 12.5523 13 12Z" fill="black"/>
</svg>
