<svg width="16" height="16" viewBox="0 0 16 16" fill="none" xmlns="http://www.w3.org/2000/svg">
<rect width="16" height="16" fill="white"/>
<path d="M12 8C12 7.44772 11.5523 7 11 7C10.4477 7 10 7.44772 10 8V9C10 9.55229 10.4477 10 11 10C11.5523 10 12 9.55229 12 9V8Z" fill="black"/>
<path d="M5 7C5.55228 7 6 7.44772 6 8V9C6 9.55229 5.55228 10 5 10C4.44772 10 4 9.55229 4 9V8C4 7.44772 4.44772 7 5 7Z" fill="black"/>
<path fill-rule="evenodd" clip-rule="evenodd" d="M1 3C1 1.89543 1.89543 1 3 1H13C14.1046 1 15 1.89543 15 3V15C15 15.5523 14.5523 16 14 16C13.4477 16 13 15.5523 13 15H3C3 15.5523 2.55228 16 2 16C1.44772 16 1 15.5523 1 15V3ZM13 3V13H9V3H13ZM3 3H7V13H3V3Z" fill="black"/>
</svg>
