<svg width="32" height="32" viewBox="0 0 32 32" fill="none" xmlns="http://www.w3.org/2000/svg">
<rect width="32" height="32" fill="white"/>
<path fill-rule="evenodd" clip-rule="evenodd" d="M24 22C24 21.4477 23.5523 21 23 21V15C23 11.134 19.866 8 16 8C12.134 8 9 11.134 9 15V21C8.44772 21 8 21.4477 8 22C8 22.5523 8.44772 23 9 23L23 23C23.5523 23 24 22.5523 24 22ZM15 10.1C12.7178 10.5633 11 12.581 11 15V21H15V10.1ZM17 10.1V21H21V15C21 12.581 19.2822 10.5633 17 10.1Z" fill="black"/>
<path fill-rule="evenodd" clip-rule="evenodd" d="M28 28V29C28 29.5523 28.4477 30 29 30C29.5523 30 30 29.5523 30 29V26.9094L27.2115 4.62746C27.0236 3.12637 25.7475 2 24.2347 2H7.76531C6.2525 2 4.97638 3.12637 4.78853 4.62746L2 26.9094V29C2 29.5523 2.44772 30 3 30C3.55228 30 4 29.5523 4 29V28L28 28ZM7.76531 4C7.26104 4 6.83567 4.37546 6.77305 4.87582L4.12941 26L27.8706 26L25.227 4.87582C25.1643 4.37546 24.739 4 24.2347 4H7.76531Z" fill="black"/>
</svg>
