<svg width="16" height="16" viewBox="0 0 16 16" fill="none" xmlns="http://www.w3.org/2000/svg">
<rect width="16" height="16" fill="white"/>
<path d="M4 14C4 13.4477 4.44772 13 5 13H13L13 3L5 3C4.44771 3 4 2.55228 4 2C4 1.44771 4.44771 1 5 1H13C14.1046 1 15 1.89543 15 3L15 13C15 14.1046 14.1046 15 13 15H5C4.44772 15 4 14.5523 4 14Z" fill="black"/>
<path d="M8.58579 9L7.29289 10.2929C6.90237 10.6834 6.90237 11.3166 7.29289 11.7071C7.68342 12.0976 8.31658 12.0976 8.70711 11.7071L11.7071 8.70711C12.0976 8.31658 12.0976 7.68342 11.7071 7.29289L8.70711 4.29289C8.31658 3.90237 7.68342 3.90237 7.29289 4.29289C6.90237 4.68342 6.90237 5.31658 7.29289 5.70711L8.58579 7L2 7C1.44771 7 1 7.44771 1 8C1 8.55228 1.44771 9 2 9L8.58579 9Z" fill="black"/>
</svg>
