<svg width="16" height="16" viewBox="0 0 16 16" fill="none" xmlns="http://www.w3.org/2000/svg">
<rect width="16" height="16" fill="white"/>
<path d="M5 15C4.44772 15 4 14.5523 4 14C4 13.4477 4.44771 13 5 13H13L13 3L5 3C4.44771 3 4 2.55228 4 2C4 1.44771 4.44771 1 5 1H13C14.1046 1 15 1.89543 15 3L15 13C15 14.1046 14.1046 15 13 15H5Z" fill="black"/>
<path d="M4.41421 7L5.70711 5.70711C6.09763 5.31658 6.09763 4.68342 5.70711 4.29289C5.31658 3.90237 4.68342 3.90237 4.29289 4.29289L1.29289 7.29289C0.902369 7.68342 0.902369 8.31658 1.29289 8.70711L4.29289 11.7071C4.68342 12.0976 5.31658 12.0976 5.70711 11.7071C6.09763 11.3166 6.09763 10.6834 5.70711 10.2929L4.41421 9L11 9C11.5523 9 12 8.55228 12 8C12 7.44771 11.5523 7 11 7L4.41421 7Z" fill="black"/>
</svg>
