<svg width="16" height="16" viewBox="0 0 16 16" fill="none" xmlns="http://www.w3.org/2000/svg">
<rect width="16" height="16" fill="white"/>
<path fill-rule="evenodd" clip-rule="evenodd" d="M7.13484 5.07972C7.58355 3.33595 9.11655 2 11 2C13.255 2 15 3.9058 15 6.15165C15 7.30353 14.5459 8.35749 13.801 9.11593C14.5384 9.72887 15 10.6691 15 11.6954C15 13.4651 13.6279 14.9788 11.8346 14.9999L11.8228 15.0001L4.16543 15C2.37207 14.9789 1 13.4651 1 11.6954C1 10.1875 1.9965 8.8652 3.40034 8.49417C3.9285 6.76279 5.3483 5.41359 7.13484 5.07972ZM9.22324 5.16141C9.56368 4.45475 10.2503 4 11 4C12.0587 4 13 4.91628 13 6.15165C13 6.80697 12.7298 7.38112 12.3169 7.77035C11.7066 6.5035 10.5898 5.53063 9.22324 5.16141ZM5.21077 9.53531C5.42547 8.06513 6.62389 7 8 7C9.37611 7 10.5745 8.06513 10.7892 9.53531L10.9153 10.3985L11.7875 10.3908L11.7975 10.3907C12.4194 10.3907 13 10.9316 13 11.6954C13 12.4515 12.4302 12.9899 11.8159 13H4.18406C3.56978 12.9899 3 12.4515 3 11.6954C3 10.9316 3.58061 10.3907 4.20253 10.3907L4.21246 10.3908L5.08472 10.3985L5.21077 9.53531Z" fill="black"/>
</svg>
