<svg width="16" height="16" viewBox="0 0 16 16" fill="none" xmlns="http://www.w3.org/2000/svg">
<rect width="16" height="16" fill="white"/>
<path d="M12.2857 9C13.2993 8.49418 14 7.40888 14 6.15165C14 4.41104 12.6569 3 11 3C9.56381 3 8.36333 4.06022 8.06904 5.47629C8.02382 5.69386 8 5.91983 8 6.15165M4.17722 14C2.97245 13.9858 2 12.9593 2 11.6954C2 10.4225 2.98611 9.39073 4.20253 9.39073C4.20878 9.39073 4.21503 9.39075 4.22127 9.39081C4.50165 7.4708 6.08668 6 8 6C9.91332 6 11.4983 7.4708 11.7787 9.39081C11.785 9.39075 11.7912 9.39073 11.7975 9.39073C13.0139 9.39073 14 10.4225 14 11.6954C14 12.9593 13.0275 13.9858 11.8228 14H4.17722Z" stroke="black" stroke-width="2"/>
</svg>
