<svg width="32" height="32" viewBox="0 0 32 32" fill="none" xmlns="http://www.w3.org/2000/svg">
<rect width="32" height="32" fill="white"/>
<path d="M15.1611 10.5L16.1381 10.7133L16.1381 10.7133L15.1611 10.5ZM7.08017 29L7.06881 30H7.08017V29ZM7.18295 18.6293L7.17446 19.6293L8.0418 19.6367L8.17168 18.7791L7.18295 18.6293ZM24.817 18.6293L23.8283 18.7791L23.9582 19.6367L24.8255 19.6293L24.817 18.6293ZM24.9198 29L24.9198 30.0001L24.9312 29.9999L24.9198 29ZM21 4.5C21 5.05228 21.4477 5.5 22 5.5C22.5523 5.5 23 5.05228 23 4.5H21ZM23 2.5C23 1.94772 22.5523 1.5 22 1.5C21.4477 1.5 21 1.94772 21 2.5H23ZM31 13C31.5523 13 32 12.5523 32 12C32 11.4477 31.5523 11 31 11V13ZM16.1664 7.33064C16.5569 7.72117 17.1901 7.72117 17.5806 7.33064C17.9711 6.94012 17.9711 6.30695 17.5806 5.91643L16.1664 7.33064ZM16.1664 4.50221C15.7758 4.11169 15.1427 4.11169 14.7522 4.50221C14.3616 4.89274 14.3616 5.5259 14.7522 5.91643L16.1664 4.50221ZM26.4194 5.91643C26.0289 6.30695 26.0289 6.94012 26.4194 7.33064C26.8099 7.72117 27.4431 7.72117 27.8336 7.33064L26.4194 5.91643ZM29.2478 5.91643C29.6384 5.5259 29.6384 4.89274 29.2478 4.50222C28.8573 4.11169 28.2242 4.11169 27.8336 4.50222L29.2478 5.91643ZM22 6C25.3137 6 28 8.68629 28 12H30C30 7.58172 26.4183 4 22 4V6ZM28 12C28 14.392 26.6003 16.459 24.5709 17.4231L25.4291 19.2296C28.1296 17.9468 30 15.1928 30 12H28ZM16 12C16 11.5573 16.0478 11.1269 16.1381 10.7133L14.1841 10.2867C14.0634 10.8396 14 11.4129 14 12H16ZM16.1381 10.7133C16.7266 8.01768 19.1288 6 22 6V4C18.1689 4 14.9689 6.69196 14.1841 10.2867L16.1381 10.7133ZM7.09153 28.0001C4.83598 27.9744 3 26.1184 3 23.8146H1C1 27.1986 3.70214 29.9617 7.06881 29.9999L7.09153 28.0001ZM3 23.8146C3 21.4946 4.86162 19.6291 7.13924 19.6291V17.6291C3.74022 17.6291 1 20.4069 1 23.8146H3ZM7.13924 19.6291C7.1512 19.6291 7.16293 19.6292 7.17446 19.6293L7.19145 17.6294C7.17386 17.6292 7.15645 17.6291 7.13924 17.6291V19.6291ZM8.17168 18.7791C8.754 14.9339 12.0441 12 16 12V10C11.0271 10 6.92038 13.6847 6.19423 18.4796L8.17168 18.7791ZM16 12C19.9559 12 23.246 14.9339 23.8283 18.7791L25.8058 18.4796C25.0796 13.6847 20.9729 10 16 10V12ZM24.8255 19.6293C24.8371 19.6292 24.8488 19.6291 24.8608 19.6291V17.6291C24.8436 17.6291 24.8261 17.6292 24.8085 17.6294L24.8255 19.6293ZM24.8608 19.6291C27.1384 19.6291 29 21.4946 29 23.8146H31C31 20.4069 28.2598 17.6291 24.8608 17.6291V19.6291ZM29 23.8146C29 26.1184 27.164 27.9744 24.9085 28.0001L24.9312 29.9999C28.2979 29.9617 31 27.1986 31 23.8146H29ZM24.9198 28H7.08017V30H24.9198V28ZM23 4.5V2.5H21V4.5H23ZM29 13H31V11H29V13ZM17.5806 5.91643L16.1664 4.50221L14.7522 5.91643L16.1664 7.33064L17.5806 5.91643ZM27.8336 7.33064L29.2478 5.91643L27.8336 4.50222L26.4194 5.91643L27.8336 7.33064Z" fill="black"/>
</svg>
