<svg width="16" height="16" viewBox="0 0 16 16" fill="none" xmlns="http://www.w3.org/2000/svg">
<rect width="16" height="16" fill="white"/>
<path d="M13 11V10V11ZM3 11L3 12H3L3 11ZM14 3H13H14ZM14 10H15H14ZM2 3.00001L1 3.00001V3.00001L2 3.00001ZM2 10H3H2ZM13 2V1H13L13 2ZM3 2.00001L3 3.00001L3 2.00001ZM11 15C11.5523 15 12 14.5523 12 14C12 13.4477 11.5523 13 11 13V15ZM5 13C4.44771 13 4 13.4477 4 14C4 14.5523 4.44771 15 5 15V13ZM5 14C5 14.5523 5.44771 15 6 15C6.55228 15 7 14.5523 7 14H5ZM7 11C7 10.4477 6.55228 10 6 10C5.44771 10 5 10.4477 5 11H7ZM9 14C9 14.5523 9.44771 15 10 15C10.5523 15 11 14.5523 11 14H9ZM11 11C11 10.4477 10.5523 10 10 10C9.44771 10 9 10.4477 9 11H11ZM13 10L3 10L3 12L13 12V10ZM13 3V10H15V3H13ZM1 3.00001L1 10H3L3 3.00001L1 3.00001ZM13 1L3 1.00001L3 3.00001L13 3L13 1ZM15 3C15 1.89543 14.1046 1 13 1V3L13 3L15 3ZM3 3.00001L3 3.00001L3 1.00001C1.89543 1.00001 1 1.89544 1 3.00001L3 3.00001ZM3 10L3 10H1C1 11.1046 1.89543 12 3 12L3 10ZM13 12C14.1046 12 15 11.1046 15 10H13L13 10V12ZM11 13H5V15H11V13ZM7 14V11H5V14H7ZM11 14V11H9V14H11Z" fill="black"/>
</svg>
