<svg width="32" height="32" viewBox="0 0 32 32" fill="none" xmlns="http://www.w3.org/2000/svg">
<rect width="32" height="32" fill="white"/>
<path d="M27 23V22V23ZM5 23V24V23ZM29 5L30 5L29 5ZM29 21H28H29ZM3 5.00002H2H3ZM3 21H4H3ZM27 3L27 4L27 3ZM5 3.00002L5 2.00002L5 3.00002ZM29 19C29.5523 19 30 18.5523 30 18C30 17.4477 29.5523 17 29 17V19ZM3 17C2.44772 17 2 17.4477 2 18C2 18.5523 2.44772 19 3 19L3 17ZM22 30C22.5523 30 23 29.5523 23 29C23 28.4477 22.5523 28 22 28V30ZM10 28C9.44771 28 9 28.4477 9 29C9 29.5523 9.44771 30 10 30V28ZM11 29C11 29.5523 11.4477 30 12 30C12.5523 30 13 29.5523 13 29H11ZM13 23C13 22.4477 12.5523 22 12 22C11.4477 22 11 22.4477 11 23H13ZM19 29C19 29.5523 19.4477 30 20 30C20.5523 30 21 29.5523 21 29H19ZM21 23C21 22.4477 20.5523 22 20 22C19.4477 22 19 22.4477 19 23H21ZM27 22L5 22V24L27 24V22ZM28 5L28 21H30L30 5L28 5ZM2 5.00002L2 21H4L4 5.00002H2ZM27 2L5 2.00002L5 4.00002L27 4L27 2ZM30 5C30 3.34314 28.6568 2 27 2L27 4C27.5523 4 28 4.44772 28 5L30 5ZM4 5.00002C4 4.44774 4.44771 4.00002 5 4.00002L5 2.00002C3.34314 2.00002 2 3.34317 2 5.00002H4ZM5 22C4.44771 22 4 21.5523 4 21H2C2 22.6569 3.34315 24 5 24V22ZM27 24C28.6569 24 30 22.6568 30 21H28C28 21.5523 27.5523 22 27 22V24ZM29 17L3 17L3 19L29 19V17ZM22 28H10V30H22V28ZM13 29V23H11V29H13ZM21 29V23H19V29H21Z" fill="black"/>
</svg>
