<svg width="32" height="32" viewBox="0 0 32 32" fill="none" xmlns="http://www.w3.org/2000/svg">
<rect width="32" height="32" fill="white"/>
<path fill-rule="evenodd" clip-rule="evenodd" d="M21 24H27C28.6569 24 30 22.6568 30 21L30 18L30 5C30 3.34314 28.6568 2 27 2L5 2.00002C3.34314 2.00002 2 3.34317 2 5.00002V21C2 22.6569 3.34315 24 5 24H11V28H10C9.44771 28 9 28.4477 9 29C9 29.5523 9.44771 30 10 30H22C22.5523 30 23 29.5523 23 29C23 28.4477 22.5523 28 22 28H21V24ZM28 21V19H4L4 21C4 21.5523 4.44771 22 5 22L27 22C27.5523 22 28 21.5523 28 21ZM19 24H13V28H19V24ZM4 5.00002L4 17L28 17V5C28 4.44772 27.5523 4 27 4L5 4.00002C4.44771 4.00002 4 4.44774 4 5.00002Z" fill="black"/>
</svg>
