<svg width="16" height="16" viewBox="0 0 16 16" fill="none" xmlns="http://www.w3.org/2000/svg">
<rect width="16" height="16" fill="white"/>
<path d="M15 15C15.5523 15 16 14.5523 16 14C16 13.4477 15.5523 13 15 13V15ZM1 13C0.447715 13 0 13.4477 0 14C0 14.5523 0.447715 15 1 15V13ZM14 5L15 5L14 5ZM13 14C13 14.5523 13.4477 15 14 15C14.5523 15 15 14.5523 15 14H13ZM2 5.00001L1 5.00001V5.00001H2ZM1 14C1 14.5523 1.44772 15 2 15C2.55229 15 3 14.5523 3 14H1ZM13 4V3H13L13 4ZM3 4.00001L3 5.00001L3 4.00001ZM15 13H1V15H15V13ZM13 5L13 14H15L15 5L13 5ZM1 5.00001L1 14H3L3 5.00001H1ZM13 3L3 3.00001L3 5.00001L13 5L13 3ZM15 5C15 3.89543 14.1046 3 13 3V5L13 5L15 5ZM3 5.00001L3 5.00001L3 3.00001C1.89543 3.00001 1 3.89544 1 5.00001L3 5.00001Z" fill="black"/>
</svg>
