<svg width="16" height="16" viewBox="0 0 16 16" fill="none" xmlns="http://www.w3.org/2000/svg">
<rect width="16" height="16" fill="white"/>
<path fill-rule="evenodd" clip-rule="evenodd" d="M8.49342 14.87C8.6711 14.8483 8.84769 14.8147 9.02196 14.7691L12.7594 13.7911C14.0793 13.4458 15 12.2532 15 10.8889V4.59188C15 2.62605 13.1408 1.19145 11.2393 1.68993L8.52733 2.40084C8.19543 2.48784 7.84673 2.48799 7.51475 2.40128L4.77438 1.68551C2.8759 1.18963 1.0203 2.61974 1.01623 4.58191L1.00318 10.8821C1.00035 12.2497 1.92288 13.4462 3.2463 13.7912L7.00021 14.77C7.16553 14.8131 7.33291 14.8454 7.50133 14.867C7.64812 14.9516 7.81841 15 8 15C8.17943 15 8.34783 14.9527 8.49342 14.87ZM3.01623 4.58605C3.01758 3.932 3.63612 3.45529 4.26894 3.62058L7 4.33393V12.7031L3.75088 11.8559C3.30974 11.7409 3.00223 11.3421 3.00318 10.8862L3.01623 4.58605ZM9 12.7075V4.34434C9.0115 4.34144 9.02299 4.33848 9.03447 4.33547L11.7464 3.62457C12.3803 3.45841 13 3.9366 13 4.59188V10.8889C13 11.3436 12.6931 11.7412 12.2531 11.8563L9 12.7075Z" fill="black"/>
</svg>
