<svg width="32" height="32" viewBox="0 0 32 32" fill="none" xmlns="http://www.w3.org/2000/svg">
<rect width="32" height="32" fill="white"/>
<path fill-rule="evenodd" clip-rule="evenodd" d="M5.79963 2.68551C3.90115 2.18963 2.04554 3.61974 2.04147 5.58191L2.00321 24.0537C2.00038 25.4214 2.9229 26.6178 4.24632 26.9629L15.0128 29.77C15.6757 29.9428 16.3718 29.9425 17.0346 29.7691L27.7594 26.9628C29.0794 26.6174 30 25.4248 30 24.0605V5.59188C30 3.62605 28.1409 2.19145 26.2393 2.68993L16.5525 5.22921C16.2206 5.31621 15.8719 5.31637 15.54 5.22965L5.79963 2.68551ZM4.04147 5.58605C4.04282 4.932 4.66136 4.45529 5.29419 4.62058L15 7.15572V27.6998L4.75091 25.0276C4.30977 24.9125 4.00226 24.5137 4.00321 24.0578L4.04147 5.58605ZM17 27.7108L27.2531 25.0279C27.6931 24.9128 28 24.5153 28 24.0605V5.59188C28 4.9366 27.3803 4.45841 26.7464 4.62457L17.0597 7.16384C17.0398 7.16905 17.0199 7.1741 17 7.179V27.7108Z" fill="black"/>
</svg>
