<svg width="16" height="16" viewBox="0 0 16 16" fill="none" xmlns="http://www.w3.org/2000/svg">
<rect width="16" height="16" fill="white"/>
<path d="M2 5C1.44772 5 1 5.44772 1 6C1 6.55228 1.44772 7 2 7V5ZM6 7C6.55228 7 7 6.55228 7 6C7 5.44772 6.55228 5 6 5V7ZM10 5C9.44772 5 9 5.44772 9 6C9 6.55228 9.44772 7 10 7V5ZM14 7C14.5523 7 15 6.55228 15 6C15 5.44772 14.5523 5 14 5V7ZM2 7H6V5H2V7ZM10 7H14V5H10V7ZM3 3H5V1H3V3ZM3 8V3H1V8H3ZM8 13C5.23858 13 3 10.7614 3 8H1C1 11.866 4.13401 15 8 15V13ZM13 8C13 10.7614 10.7614 13 8 13V15C11.866 15 15 11.866 15 8H13ZM13 3V8H15V3H13ZM11 3H13V1H11V3ZM9 3V8H11V3H9ZM9 8C9 8.32502 8.92162 8.5023 8.85545 8.60155C8.78511 8.70706 8.68416 8.78989 8.55279 8.85557C8.4175 8.92322 8.27011 8.96202 8.1481 8.98236C8.08947 8.99213 8.04279 8.99663 8.01469 8.99863C8.00081 8.99963 7.992 8.99997 7.98915 9.00007C7.98773 9.00011 7.98785 9.0001 7.98961 9.00007C7.99049 9.00005 7.99179 9.00004 7.99351 9.00002C7.99438 9.00002 7.99535 9.00001 7.99643 9.00001C7.99697 9 7.99754 9 7.99813 9C7.99843 9 7.9989 9 7.99904 9C7.99952 9 8 9 8 10C8 11 8.0005 11 8.001 11C8.00118 11 8.00169 11 8.00205 11C8.00277 11 8.00352 11 8.0043 11C8.00587 11 8.00756 11 8.00939 11C8.01303 10.9999 8.0172 10.9999 8.02186 10.9998C8.03119 10.9997 8.04254 10.9994 8.05578 10.999C8.08222 10.9981 8.11638 10.9965 8.15718 10.9936C8.23846 10.9877 8.34803 10.9766 8.4769 10.9551C8.72989 10.913 9.0825 10.8268 9.44721 10.6444C9.81584 10.4601 10.2149 10.1679 10.5196 9.71095C10.8284 9.2477 11 8.67498 11 8H9ZM8 10C8 9 8.00048 9 8.00096 9C8.0011 9 8.00157 9 8.00187 9C8.00246 9 8.00303 9 8.00357 9.00001C8.00465 9.00001 8.00562 9.00002 8.00649 9.00002C8.00821 9.00004 8.00951 9.00005 8.01039 9.00007C8.01215 9.0001 8.01227 9.00011 8.01085 9.00007C8.008 8.99997 7.99919 8.99963 7.98531 8.99863C7.95721 8.99663 7.91053 8.99213 7.8519 8.98236C7.72989 8.96202 7.5825 8.92322 7.44721 8.85557C7.31584 8.78989 7.21489 8.70706 7.14455 8.60155C7.07838 8.5023 7 8.32502 7 8H5C5 8.67498 5.17162 9.2477 5.48045 9.71095C5.78511 10.1679 6.18416 10.4601 6.55279 10.6444C6.9175 10.8268 7.27011 10.913 7.5231 10.9551C7.65197 10.9766 7.76154 10.9877 7.84282 10.9936C7.88362 10.9965 7.91778 10.9981 7.94422 10.999C7.95746 10.9994 7.96881 10.9997 7.97814 10.9998C7.9828 10.9999 7.98697 10.9999 7.99061 11C7.99244 11 7.99413 11 7.9957 11C7.99648 11 7.99723 11 7.99795 11C7.99831 11 7.99882 11 7.999 11C7.9995 11 8 11 8 10ZM7 8V3H5V8H7ZM11 1C9.89543 1 9 1.89543 9 3H11V1ZM5 3V3H7C7 1.89543 6.10457 1 5 1V3ZM15 3C15 1.89543 14.1046 1 13 1V3H15ZM3 1C1.89543 1 1 1.89543 1 3H3V3V1Z" fill="black"/>
</svg>
