<svg width="32" height="32" viewBox="0 0 32 32" fill="none" xmlns="http://www.w3.org/2000/svg">
<rect width="32" height="32" fill="white"/>
<path d="M3 8C2.44772 8 2 8.44772 2 9C2 9.55228 2.44772 10 3 10V8ZM10 10C10.5523 10 11 9.55228 11 9C11 8.44772 10.5523 8 10 8V10ZM22 8C21.4477 8 21 8.44772 21 9C21 9.55228 21.4477 10 22 10V8ZM29 10C29.5523 10 30 9.55228 30 9C30 8.44772 29.5523 8 29 8V10ZM3 10H10V8H3V10ZM22 10H29V8H22V10ZM5 4H8V2H5V4ZM4 16V5H2V16H4ZM16 28C9.3726 28 4 22.6274 4 16H2C2 23.732 8.26803 30 16 30V28ZM28 16C28 22.6274 22.6274 28 16 28V30C23.732 30 30 23.732 30 16H28ZM28 5V16H30V5H28ZM24 4H27V2H24V4ZM21 5V16H23V5H21ZM21 16C21 18.7614 18.7614 21 16 21V23C19.866 23 23 19.866 23 16H21ZM16 21C13.2386 21 11 18.7614 11 16H9C9 19.866 12.134 23 16 23V21ZM11 16V5H9V16H11ZM24 2C22.3431 2 21 3.34315 21 5H23C23 4.44772 23.4477 4 24 4V2ZM8 4C8.55228 4 9 4.44772 9 5H11C11 3.34315 9.65685 2 8 2V4ZM30 5C30 3.34315 28.6569 2 27 2V4C27.5523 4 28 4.44772 28 5H30ZM5 2C3.34315 2 2 3.34315 2 5H4C4 4.44772 4.44772 4 5 4V2Z" fill="black"/>
</svg>
