<svg width="32" height="32" viewBox="0 0 32 32" fill="none" xmlns="http://www.w3.org/2000/svg">
<rect width="32" height="32" fill="white"/>
<path d="M12.0306 3L12.4016 2.07136L11.0326 1.52448L11.0306 2.99865L12.0306 3ZM26.2557 4.10022L26.6279 5.0284L26.2557 4.10022ZM21.6449 5.94878L21.2728 5.02059L21.6449 5.94878ZM27.7431 26.1075L27.3715 25.179L27.3715 25.179L27.7431 26.1075ZM21.6279 28.5547L21.9995 29.4831L21.9995 29.4831L21.6279 28.5547ZM19.4156 5.95016L19.0447 6.87881L19.4156 5.95016ZM19.4021 28.5561L19.7725 27.6272L19.4021 28.5561ZM12 3H13V1.55299L11.6464 2.06459L12 3ZM4.95408 5.66311L4.60053 4.7277L4.95408 5.66311ZM7.0621 27.4674L6.70911 26.5318H6.70911L7.0621 27.4674ZM3.01474 8.4672L4.01474 8.46792L3.01474 8.4672ZM3.00311 24.6584L2.00311 24.6577L3.00311 24.6584ZM21 6.11731C21 5.56502 20.5523 5.11731 20 5.11731C19.4477 5.11731 19 5.56502 19 6.11731H21ZM19 28.7253C19 29.2775 19.4477 29.7253 20 29.7253C20.5523 29.7253 21 29.2775 21 28.7253H19ZM28 5.95659V24.2506H30V5.95659H28ZM11.0306 2.99865L11 25.6031L13 25.6058L13.0306 3.00135L11.0306 2.99865ZM25.8836 3.17204L21.2728 5.02059L22.0171 6.87696L26.6279 5.0284L25.8836 3.17204ZM27.3715 25.179L21.2564 27.6263L21.9995 29.4831L28.1146 27.0359L27.3715 25.179ZM19.7866 5.02152L12.4016 2.07136L11.6596 3.92864L19.0447 6.87881L19.7866 5.02152ZM19.7725 27.6272L12.3704 24.6756L11.6296 26.5333L19.0317 29.485L19.7725 27.6272ZM21.2564 27.6263C20.7801 27.8169 20.2489 27.8172 19.7725 27.6272L19.0317 29.485C19.9846 29.865 21.047 29.8643 21.9995 29.4831L21.2564 27.6263ZM28 24.2506C28 24.6595 27.7511 25.0271 27.3715 25.179L28.1146 27.0359C29.2534 26.5802 30 25.4772 30 24.2506H28ZM21.2728 5.02059C20.7959 5.21179 20.2637 5.21212 19.7866 5.02152L19.0447 6.87881C19.9989 7.26001 21.0633 7.25935 22.0171 6.87696L21.2728 5.02059ZM30 5.95659C30 3.83318 27.8545 2.38186 25.8836 3.17204L26.6279 5.0284C27.2848 4.76501 28 5.24878 28 5.95659H30ZM11 3V25.6045H13V3H11ZM11.6464 2.06459L4.60053 4.7277L5.30764 6.59852L12.3535 3.93541L11.6464 2.06459ZM11.647 24.6688L6.70911 26.5318L7.4151 28.4031L12.353 26.5401L11.647 24.6688ZM2.01474 8.46648L2.00311 24.6577L4.00311 24.6591L4.01474 8.46792L2.01474 8.46648ZM4.60053 4.7277C3.04538 5.31549 2.01594 6.80395 2.01474 8.46648L4.01474 8.46792C4.01534 7.63665 4.53006 6.89242 5.30764 6.59852L4.60053 4.7277ZM6.70911 26.5318C5.40043 27.0256 4.00211 26.0578 4.00311 24.6591L2.00311 24.6577C2.0011 27.4551 4.79774 29.3905 7.4151 28.4031L6.70911 26.5318ZM19 6.11731V28.7253H21V6.11731H19Z" fill="black"/>
</svg>
