<svg width="16" height="16" viewBox="0 0 16 16" fill="none" xmlns="http://www.w3.org/2000/svg">
<rect width="16" height="16" fill="white"/>
<path d="M14 2H15C15 1.66921 14.8364 1.35983 14.5631 1.17358C14.2897 0.987331 13.9419 0.948314 13.6341 1.06936L14 2ZM14 12.4328L14.3654 13.3637C14.7482 13.2134 15 12.8441 15 12.4328H14ZM6.01441 2L6.3792 1.06891C6.07164 0.948411 5.72442 0.987567 5.45142 1.17354C5.17842 1.35951 5.01486 1.66829 5.01441 1.99862L6.01441 2ZM10.0072 14L9.64296 14.9313C9.87753 15.0231 10.1381 15.0229 10.3725 14.9309L10.0072 14ZM6 2L7 2C7 1.66932 6.83653 1.36003 6.56331 1.17375C6.29009 0.98748 5.94245 0.948318 5.63463 1.06914L6 2ZM2.00722 3.56718L1.64185 2.63631C1.25925 2.78648 1.0075 3.15547 1.00722 3.56649L2.00722 3.56718ZM2 14L1 13.9993C0.999771 14.33 1.16304 14.6394 1.43615 14.8259C1.70926 15.0123 2.05689 15.0517 2.36479 14.9311L2 14ZM9 13.9986C8.99924 14.5509 9.44634 14.9992 9.99862 15C10.5509 15.0008 10.9992 14.5537 11 14.0014L9 13.9986ZM13 2V12.4328H15V2H13ZM5.01441 1.99862L5 12.4314L7 12.4342L7.01441 2.00138L5.01441 1.99862ZM13.6341 1.06936L9.64845 2.63654L10.3803 4.49782L14.3659 2.93064L13.6341 1.06936ZM13.6346 11.502L9.64182 13.0691L10.3725 14.9309L14.3654 13.3637L13.6346 11.502ZM10.3792 2.63609L6.3792 1.06891L5.64961 2.93109L9.64959 4.49826L10.3792 2.63609ZM10.3714 13.0687L6.36423 11.5015L5.63577 13.3641L9.64296 14.9313L10.3714 13.0687ZM5 2L5 12.4328H7V2L5 2ZM5.63463 1.06914L1.64185 2.63631L2.37258 4.49804L6.36537 2.93086L5.63463 1.06914ZM5.63521 11.5017L1.63521 13.0689L2.36479 14.9311L6.36479 13.3639L5.63521 11.5017ZM1.00722 3.56649L1 13.9993L3 14.0007L3.00722 3.56787L1.00722 3.56649ZM9.01439 3.5658L9 13.9986L11 14.0014L11.0144 3.56856L9.01439 3.5658Z" fill="black"/>
</svg>
