<svg width="32" height="32" viewBox="0 0 32 32" fill="none" xmlns="http://www.w3.org/2000/svg">
<rect width="32" height="32" fill="white"/>
<path fill-rule="evenodd" clip-rule="evenodd" d="M7.4151 28.4031L11.99 26.677L19.0317 29.485C19.9846 29.865 21.047 29.8643 21.9995 29.4831L28.1146 27.0359C29.2534 26.5802 30 25.4772 30 24.2506V5.95659C30 3.83318 27.8545 2.38187 25.8836 3.17204L21.2728 5.0206C20.7959 5.21179 20.2638 5.21212 19.7866 5.02152L12.4016 2.07136C12.277 2.02159 12.1457 1.99811 12.0153 2.00012C11.8911 1.99821 11.7659 2.01943 11.6464 2.06459L4.60053 4.7277C3.04538 5.31549 2.01594 6.80396 2.01475 8.46649L2.00311 24.6577C2.00111 27.4551 4.79774 29.3906 7.4151 28.4031ZM13.0286 4.47552L13.0009 24.927L19 27.3192V7C19 6.95408 19.0031 6.90887 19.0091 6.86459L13.0286 4.47552ZM21 7.13636V27.7094C21.0868 27.6876 21.1724 27.6599 21.2564 27.6263L27.3716 25.179C27.7511 25.0271 28 24.6595 28 24.2506V5.95659C28 5.24879 27.2848 4.76502 26.6279 5.02841L22.0171 6.87696C21.6882 7.00882 21.3461 7.09529 21 7.13636ZM11 4.44702L5.30764 6.59853C4.53006 6.89243 4.01534 7.63666 4.01475 8.46792L4.00312 24.6591C4.00211 26.0578 5.40043 27.0256 6.70911 26.5318L11 24.9129V4.44702Z" fill="black"/>
</svg>
