<svg width="16" height="16" viewBox="0 0 16 16" fill="none" xmlns="http://www.w3.org/2000/svg">
<rect width="16" height="16" fill="white"/>
<path d="M5.52148 7L10.1077 2.41412C10.8887 1.63312 12.1551 1.63312 12.9361 2.41412L13.586 3.06396C14.367 3.84503 14.367 5.11139 13.586 5.8924L9 10.4783M5.52148 7L9 10.4783M5.52148 7L3.55322 8.96832C3.17285 9.349 3.16284 9.96063 3.52515 10.3533L2.16333 11.715C1.77295 12.1055 1.77295 12.7387 2.16333 13.1292L2.87061 13.8363C3.26099 14.2269 3.89429 14.2269 4.28467 13.8363L5.63208 12.4891C6.02393 12.8511 6.63574 12.8423 7.01709 12.4611L9 10.4783" stroke="black" stroke-width="2" stroke-linecap="round" stroke-linejoin="round"/>
</svg>
