<svg width="32" height="32" viewBox="0 0 32 32" fill="none" xmlns="http://www.w3.org/2000/svg">
<rect width="32" height="32" fill="white"/>
<path d="M9 8V12C9 12.5523 8.55229 13 8 13C7.44772 13 7 12.5523 7 12V8H3C2.44771 8 2 7.55228 2 7C2 6.44772 2.44771 6 3 6H7V2C7 1.44772 7.44772 1 8 1C8.55229 1 9 1.44772 9 2V6H13C13.5523 6 14 6.44772 14 7C14 7.55228 13.5523 8 13 8H9Z" fill="black"/>
<path d="M29 6C29.5523 6 30 6.44772 30 7C30 7.55228 29.5523 8 29 8H21C20.4477 8 20 7.55228 20 7C20 6.44772 20.4477 6 21 6H29Z" fill="black"/>
<path d="M29 23C29.5523 23 30 23.4477 30 24C30 24.5523 29.5523 25 29 25H21C20.4477 25 20 24.5523 20 24C20 23.4477 20.4477 23 21 23H29Z" fill="black"/>
<path d="M12.7071 28.7071C13.0976 28.3166 13.0976 27.6834 12.7071 27.2929L9.41421 24L12.7071 20.7071C13.0976 20.3166 13.0976 19.6834 12.7071 19.2929C12.3166 18.9024 11.6834 18.9024 11.2929 19.2929L8 22.5858L4.7071 19.2929C4.31658 18.9024 3.68341 18.9024 3.29289 19.2929C2.90236 19.6834 2.90236 20.3166 3.29289 20.7071L6.58579 24L3.29292 27.2929C2.90239 27.6834 2.90239 28.3166 3.29292 28.7071C3.68344 29.0976 4.31661 29.0976 4.70713 28.7071L8 25.4142L11.2929 28.7071C11.6834 29.0976 12.3166 29.0976 12.7071 28.7071Z" fill="black"/>
<path d="M26 20C26 20.5523 25.5523 21 25 21C24.4477 21 24 20.5523 24 20C24 19.4477 24.4477 19 25 19C25.5523 19 26 19.4477 26 20Z" fill="black"/>
<path d="M25 29C25.5523 29 26 28.5523 26 28C26 27.4477 25.5523 27 25 27C24.4477 27 24 27.4477 24 28C24 28.5523 24.4477 29 25 29Z" fill="black"/>
</svg>
