<svg width="32" height="32" viewBox="0 0 32 32" fill="none" xmlns="http://www.w3.org/2000/svg">
<rect width="32" height="32" fill="white"/>
<path d="M23 11C23 10.4477 22.5523 10 22 10C21.4477 10 21 10.4477 21 11H23ZM16 30C16.5523 30 17 29.5523 17 29C17 28.4477 16.5523 28 16 28V30ZM16 21C13.2386 21 11 18.7614 11 16H9C9 19.866 12.134 23 16 23V21ZM21 16C21 18.7614 18.7614 21 16 21V23C19.866 23 23 19.866 23 16H21ZM16 11C18.7614 11 21 13.2386 21 16H23C23 12.134 19.866 9 16 9V11ZM16 9C12.134 9 9 12.134 9 16H11C11 13.2386 13.2386 11 16 11V9ZM21 11V20.5H23V11H21ZM25 23C24.1979 23 23.7688 22.7955 23.517 22.517C23.2456 22.2166 23 21.6333 23 20.5H21C21 21.8667 21.2879 23.0334 22.0332 23.858C22.7982 24.7045 23.8691 25 25 25V23ZM16 28C9.37258 28 4 22.6274 4 16H2C2 23.732 8.26801 30 16 30V28ZM4 16C4 9.37258 9.37258 4 16 4V2C8.26801 2 2 8.26801 2 16H4ZM16 4C22.6274 4 28 9.37258 28 16H30C30 8.26801 23.732 2 16 2V4ZM28 16C28 17.2897 27.762 19.1646 27.1895 20.6809C26.5822 22.2892 25.8103 23 25 23V25C27.1897 25 28.4178 23.0897 29.0605 21.3874C29.738 19.5931 30 17.468 30 16H28Z" fill="black"/>
</svg>
