<svg width="32" height="32" viewBox="0 0 32 32" fill="none" xmlns="http://www.w3.org/2000/svg">
<rect width="32" height="32" fill="white"/>
<path d="M4.01474 22.5703L4.83776 23.1383L4.01474 22.5703ZM4.63894 27.8313L3.93183 28.5384L3.93183 28.5384L4.63894 27.8313ZM4.4784 27.6707L5.1855 26.9636L5.1855 26.9636L4.4784 27.6707ZM21.5932 20.8051C22.0379 20.4774 22.1327 19.8514 21.8051 19.4068C21.4775 18.9622 20.8515 18.8673 20.4068 19.1949L21.5932 20.8051ZM9.84016 28.2231L9.24696 27.418L9.84016 28.2231ZM15.7071 4.79286C15.3166 4.40234 14.6834 4.40234 14.2929 4.79286C13.9024 5.18339 13.9024 5.81655 14.2929 6.20707L15.7071 4.79286ZM25.8033 17.7175C26.1939 18.108 26.827 18.108 27.2175 17.7175C27.6081 17.327 27.6081 16.6938 27.2175 16.3033L25.8033 17.7175ZM11.177 10.432L3.19172 22.0023L4.83776 23.1383L12.8231 11.568L11.177 10.432ZM5.34604 27.1242L5.1855 26.9636L3.77129 28.3778L3.93183 28.5384L5.34604 27.1242ZM20.4068 19.1949L9.24696 27.418L10.4334 29.0281L21.5932 20.8051L20.4068 19.1949ZM3.19172 22.0023C1.82072 23.9888 2.06455 26.6711 3.77129 28.3779L5.1855 26.9636C4.16146 25.9396 4.01516 24.3302 4.83776 23.1383L3.19172 22.0023ZM3.93183 28.5384C5.67992 30.2865 8.44312 30.4946 10.4334 29.0281L9.24696 27.418C8.05282 28.2979 6.3949 28.173 5.34604 27.1242L3.93183 28.5384ZM28 11.5C28 15.6421 24.6422 19 20.5 19V21C25.7467 21 30 16.7467 30 11.5H28ZM20.5 19C16.3579 19 13 15.6421 13 11.5H11C11 16.7467 15.2533 21 20.5 21V19ZM13 11.5C13 7.35786 16.3579 4 20.5 4V2C15.2533 2 11 6.25329 11 11.5H13ZM20.5 4C24.6422 4 28 7.35786 28 11.5H30C30 6.25329 25.7467 2 20.5 2V4ZM14.2929 6.20707L25.8033 17.7175L27.2175 16.3033L15.7071 4.79286L14.2929 6.20707Z" fill="black"/>
</svg>
