<svg width="32" height="32" viewBox="0 0 32 32" fill="none" xmlns="http://www.w3.org/2000/svg">
<rect width="32" height="32" fill="white"/>
<path fill-rule="evenodd" clip-rule="evenodd" d="M30 11.5C30 16.4487 26.2161 20.5137 21.3838 20.9594L10.4334 29.0282C8.44314 30.4947 5.67994 30.2865 3.93184 28.5384L3.77131 28.3779C2.06457 26.6712 1.82073 23.9888 3.19174 22.0023L11.0392 10.6318C11.4776 5.79199 15.546 2 20.5 2C25.7467 2 30 6.25329 30 11.5ZM14.7593 6.67337C13.6614 7.97778 13 9.66165 13 11.5C13 15.6421 16.3579 19 20.5 19C22.3384 19 24.0222 18.3386 25.3266 17.2408L14.7593 6.67337ZM16.2405 5.32614L26.6739 15.7596C27.5102 14.5497 28 13.0821 28 11.5C28 7.35786 24.6422 4 20.5 4C18.918 4 17.4503 4.48985 16.2405 5.32614ZM4.83778 23.1383L11.281 13.8025C12.1354 17.2347 14.8563 19.9288 18.3035 20.7448L9.24697 27.4181C8.05283 28.2979 6.39491 28.1731 5.34606 27.1242L5.18552 26.9637C4.16148 25.9396 4.01518 24.3302 4.83778 23.1383Z" fill="black"/>
</svg>
