<svg width="16" height="16" viewBox="0 0 16 16" fill="none" xmlns="http://www.w3.org/2000/svg">
<rect width="16" height="16" fill="white"/>
<path fill-rule="evenodd" clip-rule="evenodd" d="M10.5253 13.4344L13.4344 10.5253C15.6324 8.3273 15.6324 4.76364 13.4344 2.56564C11.2364 0.367626 7.67274 0.36762 5.47473 2.56563L2.56564 5.47471C0.367642 7.67271 0.367646 11.2364 2.56565 13.4344C4.76365 15.6324 8.32731 15.6324 10.5253 13.4344ZM10.7676 10.3636L9.1111 12.0202C7.69415 13.4371 5.39682 13.4371 3.97986 12.0202C2.56291 10.6032 2.56291 8.30588 3.97986 6.88892L5.63638 5.23241L10.7676 10.3636ZM12.1768 8.94442C13.2086 7.77585 13.3592 6.10174 12.6286 4.7856L10.3233 7.0909L12.1768 8.94442ZM11.2144 3.3714L8.90908 5.67669L7.0556 3.8232C8.22416 2.79144 9.89824 2.64084 11.2144 3.3714Z" fill="black"/>
</svg>
