<svg width="16" height="16" viewBox="0 0 16 16" fill="none" xmlns="http://www.w3.org/2000/svg">
<rect width="16" height="16" fill="white"/>
<path d="M6.1818 3.27274L5.4747 2.56563L6.1818 3.27274ZM3.27272 6.18182L3.97983 6.88893L3.27272 6.18182ZM12.7273 9.81819L13.4344 10.5253L12.7273 9.81819ZM9.81817 12.7273L9.11107 12.0202L9.81817 12.7273ZM12.7273 3.27275L13.4344 2.56564V2.56564L12.7273 3.27275ZM3.27272 12.7273L3.97983 12.0202H3.97983L3.27272 12.7273ZM5.4747 2.56563L2.56561 5.47471L3.97983 6.88893L6.88891 3.97984L5.4747 2.56563ZM12.0202 9.11108L9.11107 12.0202L10.5253 13.4344L13.4344 10.5253L12.0202 9.11108ZM13.4344 10.5253C15.6324 8.3273 15.6324 4.76365 13.4344 2.56564L12.0202 3.97985C13.4371 5.39681 13.4371 7.69414 12.0202 9.11109L13.4344 10.5253ZM6.88891 3.97984C8.30587 2.56289 10.6032 2.56289 12.0202 3.97985L13.4344 2.56564C11.2364 0.36763 7.6727 0.367624 5.4747 2.56563L6.88891 3.97984ZM2.56561 5.47471C0.367612 7.67272 0.367615 11.2364 2.56562 13.4344L3.97983 12.0202C2.56288 10.6032 2.56288 8.30588 3.97983 6.88893L2.56561 5.47471ZM2.56562 13.4344C4.76362 15.6324 8.32728 15.6324 10.5253 13.4344L9.11107 12.0202C7.69412 13.4371 5.39678 13.4371 3.97983 12.0202L2.56562 13.4344ZM12.0202 2.56564L8.20196 6.38379L9.61617 7.79801L13.4344 3.97986L12.0202 2.56564ZM8.20196 7.79801L11.4747 11.0707L12.8889 9.65652L9.61617 6.38379L8.20196 7.79801ZM9.61617 6.38379L6.34344 3.11107L4.92923 4.52528L8.20196 7.79801L9.61617 6.38379Z" fill="black"/>
</svg>
