<svg width="32" height="32" viewBox="0 0 32 32" fill="none" xmlns="http://www.w3.org/2000/svg">
<rect width="32" height="32" fill="white"/>
<path d="M11.8182 8.72732L11.1111 8.02021L11.8182 8.72732ZM6.72731 13.8182L7.43441 14.5253L6.72731 13.8182ZM23.2728 20.1819L22.5657 19.4748L23.2728 20.1819ZM18.1819 25.2728L18.889 25.98L18.1819 25.2728ZM23.2728 8.72734L23.98 8.02024L23.2728 8.72734ZM6.72731 25.2728L7.43441 24.5657H7.43441L6.72731 25.2728ZM11.1111 8.02021L6.0202 13.1111L7.43441 14.5253L12.5253 9.43443L11.1111 8.02021ZM22.5657 19.4748L17.4748 24.5657L18.889 25.98L23.9799 20.889L22.5657 19.4748ZM23.9799 20.889C27.5336 17.3354 27.5336 11.5739 23.98 8.02024L22.5657 9.43444C25.3383 12.207 25.3383 16.7022 22.5657 19.4748L23.9799 20.889ZM12.5253 9.43443C15.2979 6.66185 19.7932 6.66185 22.5657 9.43444L23.98 8.02024C20.4263 4.46659 14.6648 4.46658 11.1111 8.02021L12.5253 9.43443ZM6.0202 13.1111C2.46657 16.6648 2.46657 22.4263 6.0202 25.98L7.43441 24.5657C4.66184 21.7932 4.66184 17.2979 7.43441 14.5253L6.0202 13.1111ZM6.0202 25.98C9.57383 29.5336 15.3354 29.5336 18.889 25.98L17.4748 24.5657C14.7022 27.3383 10.207 27.3383 7.43441 24.5657L6.0202 25.98ZM22.2475 8.33833L15.8839 14.702L17.2981 16.1162L23.6617 9.75254L22.2475 8.33833ZM15.8839 16.1162L21.6112 21.8435L23.0254 20.4293L17.2981 14.702L15.8839 16.1162ZM17.2981 14.702L11.5708 8.9747L10.1565 10.3889L15.8839 16.1162L17.2981 14.702Z" fill="black"/>
</svg>
