<svg width="32" height="32" viewBox="0 0 32 32" fill="none" xmlns="http://www.w3.org/2000/svg">
<rect width="32" height="32" fill="white"/>
<path fill-rule="evenodd" clip-rule="evenodd" d="M30 3.00001C30 2.68751 29.8539 2.39298 29.6051 2.20388C29.3563 2.01478 29.0335 1.95285 28.7324 2.03649L10.7324 7.03649C10.2995 7.15672 10 7.5508 10 8.00001V20.9996C9.16434 20.3719 8.12561 20 7 20C4.23858 20 2 22.2386 2 25C2 27.7614 4.23858 30 7 30C9.76142 30 12 27.7614 12 25C12 24.8837 11.996 24.7683 11.9882 24.654C11.996 24.6038 12 24.5524 12 24.5V8.76009L28 4.31565V17.9996C27.1643 17.3719 26.1256 17 25 17C22.2386 17 20 19.2386 20 22C20 24.7614 22.2386 27 25 27C27.7614 27 30 24.7614 30 22C30 21.7646 29.9837 21.533 29.9523 21.3062C29.9833 21.2097 30 21.1068 30 21V3.00001ZM25 19C23.3431 19 22 20.3431 22 22C22 23.6569 23.3431 25 25 25C26.6569 25 28 23.6569 28 22C28 20.3431 26.6569 19 25 19ZM7 22C5.34315 22 4 23.3431 4 25C4 26.6569 5.34315 28 7 28C8.65685 28 10 26.6569 10 25C10 23.3431 8.65685 22 7 22Z" fill="black"/>
</svg>
