<svg width="32" height="32" viewBox="0 0 32 32" fill="none" xmlns="http://www.w3.org/2000/svg">
<rect width="32" height="32" fill="white"/>
<path d="M13.982 4.56184L13.3093 3.8219L13.3093 3.8219L13.982 4.56184ZM13.982 27.4382L13.3093 28.1781H13.3093L13.982 27.4382ZM23.7071 12.2929C23.3166 11.9024 22.6834 11.9024 22.2929 12.2929C21.9024 12.6834 21.9024 13.3166 22.2929 13.7071L23.7071 12.2929ZM28.2929 19.7071C28.6834 20.0976 29.3166 20.0976 29.7071 19.7071C30.0976 19.3166 30.0976 18.6834 29.7071 18.2929L28.2929 19.7071ZM29.7071 13.7071C30.0976 13.3166 30.0976 12.6834 29.7071 12.2929C29.3166 11.9024 28.6834 11.9024 28.2929 12.2929L29.7071 13.7071ZM22.2929 18.2929C21.9024 18.6834 21.9024 19.3166 22.2929 19.7071C22.6834 20.0976 23.3166 20.0976 23.7071 19.7071L22.2929 18.2929ZM8.28607 22.2601L8.95874 21.5201L8.28607 22.2601ZM8.28607 9.73994L7.61339 9L8.28607 9.73994ZM4 18V14H2V18H4ZM7 11H7.61339V9H7V11ZM7.61339 21H7V23H7.61339V21ZM2 18C2 20.7614 4.23858 23 7 23V21C5.34315 21 4 19.6569 4 18H2ZM4 14C4 12.3431 5.34315 11 7 11V9C4.23858 9 2 11.2386 2 14H4ZM8.95874 10.4799L14.6547 5.30178L13.3093 3.8219L7.61339 9L8.95874 10.4799ZM18 6.78166V25.2183H20V6.78166H18ZM14.6547 26.6982L8.95874 21.5201L7.61339 23L13.3093 28.1781L14.6547 26.6982ZM18 25.2183C18 26.9546 15.9394 27.8662 14.6547 26.6982L13.3093 28.1781C15.8788 30.514 20 28.6909 20 25.2183H18ZM14.6546 5.30178C15.9394 4.13383 18 5.04538 18 6.78166H20C20 3.30909 15.8788 1.486 13.3093 3.8219L14.6546 5.30178ZM22.2929 13.7071L28.2929 19.7071L29.7071 18.2929L23.7071 12.2929L22.2929 13.7071ZM28.2929 12.2929L22.2929 18.2929L23.7071 19.7071L29.7071 13.7071L28.2929 12.2929ZM7.61339 23H7.61339L8.95874 21.5201C8.5906 21.1854 8.11093 21 7.61339 21V23ZM7.61339 11C8.11093 11 8.59059 10.8146 8.95874 10.4799L7.61339 9V11Z" fill="black"/>
</svg>
