<svg width="16" height="16" viewBox="0 0 16 16" fill="none" xmlns="http://www.w3.org/2000/svg">
<rect width="16" height="16" fill="white"/>
<path fill-rule="evenodd" clip-rule="evenodd" d="M9.99994 3.08066C9.99994 1.40365 8.06007 0.4713 6.75055 1.51892L3.61929 4.02393C2.14219 4.211 1 5.47211 1 7V9C1 10.5279 2.14214 11.7889 3.61919 11.9761L6.75055 14.4811C8.06007 15.5288 9.99994 14.5964 9.99994 12.9194V3.08066ZM4.63528 10.2277L7.99994 12.9194V3.08066L4.63188 5.77511C4.45964 5.91569 4.23966 6 4 6C3.44772 6 3 6.44772 3 7V9C3 9.55228 3.44772 10 4 10C4.24125 10 4.46254 10.0854 4.63528 10.2277Z" fill="black"/>
<path d="M12.7071 6.29289C12.3166 5.90237 11.6834 5.90237 11.2929 6.29289C10.9024 6.68342 10.9024 7.31658 11.2929 7.70711L12.0858 8.5L11.2929 9.29289C10.9024 9.68342 10.9024 10.3166 11.2929 10.7071C11.6834 11.0976 12.3166 11.0976 12.7071 10.7071L13.5 9.91421L14.2929 10.7071C14.6834 11.0976 15.3166 11.0976 15.7071 10.7071C16.0976 10.3166 16.0976 9.68342 15.7071 9.29289L14.9142 8.5L15.7071 7.70711C16.0976 7.31658 16.0976 6.68342 15.7071 6.29289C15.3166 5.90237 14.6834 5.90237 14.2929 6.29289L13.5 7.08579L12.7071 6.29289Z" fill="black"/>
</svg>
