<svg width="32" height="32" viewBox="0 0 32 32" fill="none" xmlns="http://www.w3.org/2000/svg">
<rect width="32" height="32" fill="white"/>
<path fill-rule="evenodd" clip-rule="evenodd" d="M7.61339 9.00002L13.3093 3.82192C15.8788 1.48602 20 3.3091 20 6.78167V25.2184C20 28.6909 15.8788 30.514 13.3093 28.1781L7.61339 23H7C4.23858 23 2 20.7614 2 18V14C2 11.2386 4.23858 9.00002 7 9.00002H7.61339ZM14.6546 5.3018C15.9394 4.13384 18 5.04539 18 6.78167V25.2184C18 26.9546 15.9394 27.8662 14.6547 26.6982L8.67524 21.2624C8.49733 21.0995 8.26027 21 8 21H7C5.34315 21 4 19.6569 4 18V14C4 12.3432 5.34315 11 7 11H8C8.26031 11 8.49738 10.9006 8.6753 10.7376L14.6546 5.3018Z" fill="black"/>
<path d="M22.2929 12.2929C22.6834 11.9024 23.3166 11.9024 23.7071 12.2929L26 14.5858L28.2929 12.2929C28.6834 11.9024 29.3166 11.9024 29.7071 12.2929C30.0976 12.6834 30.0976 13.3166 29.7071 13.7071L27.4142 16L29.7071 18.2929C30.0976 18.6834 30.0976 19.3166 29.7071 19.7071C29.3166 20.0976 28.6834 20.0976 28.2929 19.7071L26 17.4142L23.7071 19.7071C23.3166 20.0976 22.6834 20.0976 22.2929 19.7071C21.9024 19.3166 21.9024 18.6834 22.2929 18.2929L24.5858 16L22.2929 13.7071C21.9024 13.3166 21.9024 12.6834 22.2929 12.2929Z" fill="black"/>
</svg>
