<svg width="32" height="32" viewBox="0 0 32 32" fill="none" xmlns="http://www.w3.org/2000/svg">
<rect width="32" height="32" fill="white"/>
<path d="M12 7C11.4477 7 11 7.44772 11 8C11 8.55228 11.4477 9 12 9H19C19.5523 9 20 8.55228 20 8C20 7.44772 19.5523 7 19 7H12Z" fill="black"/>
<path d="M11 13C11 12.4477 11.4477 12 12 12H19C19.5523 12 20 12.4477 20 13C20 13.5523 19.5523 14 19 14H12C11.4477 14 11 13.5523 11 13Z" fill="black"/>
<path d="M15.5 25C16.3284 25 17 24.3284 17 23.5C17 22.6716 16.3284 22 15.5 22C14.6716 22 14 22.6716 14 23.5C14 24.3284 14.6716 25 15.5 25Z" fill="black"/>
<path fill-rule="evenodd" clip-rule="evenodd" d="M26 27V5C26 3.34314 24.6568 2 23 2L7.99999 2.00003C6.34314 2.00003 5 3.34318 5 5.00003V27C5 28.6568 6.34314 30 8 30L23 30C24.6569 30 26 28.6568 26 27ZM24 5V27C24 27.5523 23.5523 28 23 28L8 28C7.44772 28 7 27.5523 7 27L7 5.00003C7 4.44774 7.44771 4.00003 8 4.00003L23 4C23.5523 4 24 4.44771 24 5Z" fill="black"/>
</svg>
