<svg width="16" height="16" viewBox="0 0 16 16" fill="none" xmlns="http://www.w3.org/2000/svg">
<rect width="16" height="16" fill="white"/>
<path d="M11 14V13V14ZM5 14V15V14ZM13 4H14H13ZM13 12H12H13ZM3 4.00001H4V4.00001L3 4.00001ZM3 12H2H3ZM11 2L11 3H11L11 2ZM5 2.00001L5 1.00001L5 2.00001ZM10 7C10.5523 7 11 6.55229 11 6C11 5.44772 10.5523 5 10 5V7ZM6 5C5.44771 5 5 5.44772 5 6C5 6.55229 5.44771 7 6 7V5ZM7 10.5C7 11.0523 7.44771 11.5 8 11.5C8.55228 11.5 9 11.0523 9 10.5H7ZM9 9.5C9 8.94772 8.55228 8.5 8 8.5C7.44771 8.5 7 8.94772 7 9.5H9ZM11 13H5V15H11V13ZM12 4L12 12H14L14 4L12 4ZM2 4.00001L2 12H4L4 4.00001H2ZM11 1L5 1.00001L5 3.00001L11 3L11 1ZM14 4C14 2.34315 12.6568 0.999999 11 1L11 3C11.5523 3 12 3.44772 12 4L14 4ZM4 4.00001C4 3.44773 4.44771 3.00001 5 3.00001L5 1.00001C3.34314 1.00002 2 2.34316 2 4.00001L4 4.00001ZM5 13C4.44772 13 4 12.5523 4 12H2C2 13.6568 3.34314 15 5 15V13ZM11 15C12.6569 15 14 13.6569 14 12H12C12 12.5523 11.5523 13 11 13V15ZM6 7H10V5H6V7ZM9 10.5V9.5H7V10.5H9Z" fill="black"/>
</svg>
