<svg width="32" height="32" viewBox="0 0 32 32" fill="none" xmlns="http://www.w3.org/2000/svg">
<rect width="32" height="32" fill="white"/>
<path d="M3 7H2H3ZM3 25H2H3ZM25 29V28V29ZM7 29V30V29ZM29 7.00004H30H29ZM29 25H28H29ZM25 3.00004L25 2.00004L25 3.00004ZM7.00001 3L7.00001 4L7.00001 3ZM9 15L9.70711 14.2929C9.51957 14.1053 9.26522 14 9 14C8.73478 14 8.48043 14.1053 8.29289 14.2929L9 15ZM22.2929 29.7071C22.6834 30.0976 23.3166 30.0976 23.7071 29.7071C24.0976 29.3166 24.0976 28.6834 23.7071 28.2929L22.2929 29.7071ZM28.2929 24.7071C28.6834 25.0976 29.3166 25.0976 29.7071 24.7071C30.0976 24.3166 30.0976 23.6834 29.7071 23.2929L28.2929 24.7071ZM23 18L23.7071 17.2929C23.3166 16.9024 22.6834 16.9024 22.2929 17.2929L23 18ZM17.5 23.5L16.7929 24.2071L17.5 23.5ZM25 28L7 28L7 30L25 30V28ZM28 7.00004L28 25H30L30 7.00004H28ZM25 2.00004L7.00001 2L7.00001 4L25 4.00004L25 2.00004ZM30 7.00004C30 4.23862 27.7614 2.00005 25 2.00004L25 4.00004C26.6569 4.00004 28 5.34319 28 7.00004H30ZM4 7C4 5.34314 5.34315 4 7.00001 4L7.00001 2C4.23858 1.99999 2 4.23857 2 7H4ZM2 25C2 27.7614 4.23857 30 7 30V28C5.34314 28 4 26.6568 4 25H2ZM25 30C27.7614 30 30 27.7614 30 25H28C28 26.6568 26.6569 28 25 28V30ZM24 9.99999C24 11.1046 23.1046 12 22 12V14C24.2091 14 26 12.2091 26 9.99999H24ZM22 12C20.8954 12 20 11.1046 20 9.99999H18C18 12.2091 19.7909 14 22 14V12ZM20 9.99999C20 8.89542 20.8954 7.99999 22 7.99999V5.99999C19.7909 5.99999 18 7.79085 18 9.99999H20ZM22 7.99999C23.1046 7.99999 24 8.89542 24 9.99999H26C26 7.79085 24.2091 5.99999 22 5.99999V7.99999ZM29.7071 23.2929L23.7071 17.2929L22.2929 18.7071L28.2929 24.7071L29.7071 23.2929ZM8.29289 15.7071L16.7929 24.2071L18.2071 22.7929L9.70711 14.2929L8.29289 15.7071ZM16.7929 24.2071L22.2929 29.7071L23.7071 28.2929L18.2071 22.7929L16.7929 24.2071ZM22.2929 17.2929L16.7929 22.7929L18.2071 24.2071L23.7071 18.7071L22.2929 17.2929ZM2 7L2 21H4L4 7H2ZM2 21L2 25H4L4 21H2ZM3.70711 21.7071L9.70711 15.7071L8.29289 14.2929L2.29289 20.2929L3.70711 21.7071Z" fill="black"/>
</svg>
