<svg width="16" height="16" viewBox="0 0 16 16" fill="none" xmlns="http://www.w3.org/2000/svg">
<rect width="16" height="16" fill="white"/>
<path fill-rule="evenodd" clip-rule="evenodd" d="M1 8C1 4.13401 4.13401 1 8 1C11.866 1 15 4.13401 15 8C15 11.866 11.866 15 8 15C4.13401 15 1 11.866 1 8ZM3.10002 7.00001H5.1707C5.47199 6.14759 6.14758 5.47199 7 5.17071V3.10002C5.04087 3.4977 3.4977 5.04087 3.10002 7.00001ZM9 3.10002V5.17071C10.1652 5.58254 11 6.69378 11 8C11 9.65685 9.65685 11 8 11C6.69378 11 5.58255 10.1652 5.17071 9.00001H3.10002C3.56329 11.2822 5.58104 13 8 13C10.7614 13 13 10.7614 13 8C13 5.58104 11.2822 3.56329 9 3.10002ZM8 7C7.44772 7 7 7.44772 7 8C7 8.55229 7.44772 9 8 9C8.55229 9 9 8.55229 9 8C9 7.44772 8.55229 7 8 7Z" fill="black"/>
</svg>
