<svg width="32" height="32" viewBox="0 0 32 32" fill="none" xmlns="http://www.w3.org/2000/svg">
<rect width="32" height="32" fill="white"/>
<path d="M29 16C29 18.5712 28.2376 21.0846 26.8091 23.2224C25.3807 25.3603 23.3503 27.0265 20.9749 28.0104C18.5995 28.9944 15.9856 29.2518 13.4638 28.7502C10.9421 28.2486 8.6257 27.0105 6.80762 25.1924C4.98954 23.3743 3.75141 21.0579 3.2498 18.5362C2.74819 16.0144 3.00563 13.4006 3.98957 11.0251C4.97351 8.64968 6.63975 6.61935 8.77759 5.1909C10.9154 3.76244 13.4288 3 16 3M29 16H16V3M29 16C29 15.1525 28.9171 14.3031 28.7502 13.4638C28.2486 10.9421 27.0105 8.62569 25.1924 6.80761C23.3743 4.98953 21.0579 3.7514 18.5362 3.24979C17.6969 3.08285 16.8475 2.99999 16 3" stroke="black" stroke-width="2"/>
</svg>
