<svg width="16" height="16" viewBox="0 0 16 16" fill="none" xmlns="http://www.w3.org/2000/svg">
<rect width="16" height="16" fill="white"/>
<path fill-rule="evenodd" clip-rule="evenodd" d="M15 8C15 9.38447 14.5895 10.7378 13.8203 11.889C13.0511 13.0401 11.9579 13.9373 10.6788 14.4672C9.3997 14.997 7.99224 15.1356 6.63437 14.8655C5.2765 14.5954 4.02922 13.9287 3.05026 12.9497C2.07129 11.9708 1.4046 10.7235 1.13451 9.36563C0.86441 8.00777 1.00303 6.6003 1.53285 5.32122C2.06266 4.04213 2.95987 2.94888 4.11101 2.17971C5.26215 1.41055 6.61553 1 7.99999 1C8.0029 1 8.00581 0.999998 8.00871 1H9V1.07179C9.12219 1.08943 9.24411 1.11033 9.36563 1.1345C10.7235 1.4046 11.9708 2.07128 12.9497 3.05025C13.9287 4.02922 14.5954 5.2765 14.8655 6.63436C14.8897 6.75589 14.9106 6.87781 14.9282 7H15L15 8ZM12.899 7C12.7029 6.03961 12.2289 5.15782 11.5355 4.46446C10.8422 3.77111 9.96039 3.29706 9 3.10102V7H12.899ZM5.22215 3.84265C5.76374 3.48077 6.368 3.23003 7 3.10102V9H12.899C12.77 9.632 12.5192 10.2363 12.1574 10.7779C11.6079 11.6001 10.8271 12.241 9.91342 12.6194C8.99979 12.9978 7.99446 13.0969 7.02455 12.9039C6.05465 12.711 5.16373 12.2348 4.46447 11.5355C3.76521 10.8363 3.289 9.94536 3.09608 8.97545C2.90315 8.00555 3.00217 7.00021 3.38061 6.08658C3.75904 5.17295 4.39991 4.39206 5.22215 3.84265Z" fill="black"/>
</svg>
