<svg width="16" height="16" viewBox="0 0 16 16" fill="none" xmlns="http://www.w3.org/2000/svg">
<rect width="16" height="16" fill="white"/>
<path fill-rule="evenodd" clip-rule="evenodd" d="M6.09982 10.999C6.06663 10.9997 6.03335 11 6 11C3.23858 11 1 8.76142 1 6C1 3.23858 3.23858 1 6 1C8.4193 1 10.4373 2.71825 10.9002 5.00098C10.9334 5.00033 10.9666 5 11 5C13.7614 5 16 7.23858 16 10C16 12.7614 13.7614 15 11 15C8.5807 15 6.56271 13.2818 6.09982 10.999ZM3 6C3 4.34315 4.34315 3 6 3C7.46521 3 8.68509 4.0504 8.94769 5.43926C7.50346 6.09017 6.42396 7.40692 6.10035 8.99835C6.06704 8.99945 6.03358 9 6 9C4.34315 9 3 7.65685 3 6ZM8.05232 10.5607C8.31491 11.9496 9.53478 13 11 13C12.6569 13 14 11.6569 14 10C14 8.34315 12.6569 7 11 7C10.9664 7 10.933 7.00056 10.8996 7.00165C10.576 8.59308 9.49654 9.90983 8.05232 10.5607Z" fill="black"/>
</svg>
