<svg width="32" height="32" viewBox="0 0 32 32" fill="none" xmlns="http://www.w3.org/2000/svg">
<rect width="32" height="32" fill="white"/>
<path fill-rule="evenodd" clip-rule="evenodd" d="M16 2C11.0294 2 7 6.02944 7 11C7 15.6326 10.5 19.4476 15 19.9451V29C15 29.5523 15.4477 30 16 30C16.5523 30 17 29.5523 17 29V19.9451C21.5 19.4476 25 15.6326 25 11C25 6.02944 20.9706 2 16 2ZM9 11C9 7.13401 12.134 4 16 4C19.866 4 23 7.13401 23 11C23 14.866 19.866 18 16 18C12.134 18 9 14.866 9 11Z" fill="black"/>
</svg>
