<svg width="32" height="32" viewBox="0 0 32 32" fill="none" xmlns="http://www.w3.org/2000/svg">
<rect width="32" height="32" fill="white"/>
<path d="M15 29C15 29.5523 15.4477 30 16 30C16.5523 30 17 29.5523 17 29H15ZM17 22C17 21.4477 16.5523 21 16 21C15.4477 21 15 21.4477 15 22H17ZM26 22V23C26.5523 23 27 22.5523 27 22H26ZM6 22H5C5 22.5523 5.44772 23 6 23V22ZM10 13.1542H11H10ZM10 7H9H10ZM9.07135 14.9305L8.44657 14.1497H8.44657L9.07135 14.9305ZM22.9287 14.9305L23.5534 14.1497L22.9287 14.9305ZM17 29V22H15V29H17ZM26 21H6V23H26V21ZM14 4H18V2H14V4ZM21 7V13.1542H23V7H21ZM11 13.1542L11 7L9 7L9 13.1542H11ZM18 4C19.6569 4 21 5.34315 21 7H23C23 4.23858 20.7614 2 18 2V4ZM14 2C11.2386 2 9 4.23858 9 7H11C11 5.34315 12.3431 4 14 4V2ZM8.44657 14.1497C6.12324 16.0087 5 18.7651 5 22H7C7 19.2467 7.93745 17.1185 9.69612 15.7113L8.44657 14.1497ZM22.3039 15.7113C24.0625 17.1185 25 19.2467 25 22H27C27 18.7651 25.8768 16.0087 23.5534 14.1497L22.3039 15.7113ZM9 13.1542C9 13.4832 8.81737 13.853 8.44657 14.1497L9.69612 15.7113C10.4215 15.1308 11 14.2291 11 13.1542H9ZM21 13.1542C21 14.2291 21.5785 15.1308 22.3039 15.7113L23.5534 14.1497C23.1826 13.853 23 13.4832 23 13.1542H21Z" fill="black"/>
</svg>
