<svg width="16" height="16" viewBox="0 0 16 16" fill="none" xmlns="http://www.w3.org/2000/svg">
<rect width="16" height="16" fill="white"/>
<path d="M6 6.5C6 5.67157 6.67157 5 7.5 5C8.32843 5 9 5.67157 9 6.5C9 7.32843 8.32843 8 7.5 8C6.67157 8 6 7.32843 6 6.5Z" fill="black"/>
<path fill-rule="evenodd" clip-rule="evenodd" d="M8.89267 14.0953C9.33743 13.6719 9.93176 13.0635 10.5285 12.3234C11.6908 10.8817 13 8.77248 13 6.47337C13 3.44493 10.532 1 7.5 1C4.46804 1 2 3.44493 2 6.47337C2 8.77248 3.30917 10.8817 4.47152 12.3234C5.06824 13.0635 5.66257 13.6719 6.10733 14.0953C6.49117 14.4608 6.95019 14.9873 7.51358 15.0212C8.05979 15.054 8.52782 14.4427 8.89267 14.0953ZM4 6.47337C4 4.56067 5.5614 3 7.5 3C9.4386 3 11 4.56067 11 6.47337C11 8.06496 10.0592 9.71903 8.97152 11.068C8.44324 11.7232 7.91257 12.267 7.51358 12.6468L7.5 12.6598L7.48642 12.6468C7.08743 12.267 6.55676 11.7232 6.02848 11.068C4.94083 9.71903 4 8.06496 4 6.47337Z" fill="black"/>
</svg>
