<svg width="32" height="32" viewBox="0 0 32 32" fill="none" xmlns="http://www.w3.org/2000/svg">
<rect width="32" height="32" fill="white"/>
<path fill-rule="evenodd" clip-rule="evenodd" d="M16 8C13.2386 8 11 10.2386 11 13C11 15.7614 13.2386 18 16 18C18.7614 18 21 15.7614 21 13C21 10.2386 18.7614 8 16 8ZM13 13C13 11.3431 14.3431 10 16 10C17.6569 10 19 11.3431 19 13C19 14.6569 17.6569 16 16 16C14.3431 16 13 14.6569 13 13Z" fill="black"/>
<path fill-rule="evenodd" clip-rule="evenodd" d="M15.3807 29.7851C15.3809 29.7853 15.3812 29.7855 16 29L15.3807 29.7851C15.7437 30.0711 16.2558 30.0715 16.6188 29.7855L16 29C16.6188 29.7855 16.6186 29.7857 16.6188 29.7855L16.6223 29.7828L16.6293 29.7772L16.654 29.7575C16.6752 29.7405 16.7055 29.7161 16.7445 29.6843C16.8224 29.6208 16.9347 29.528 17.0764 29.4077C17.36 29.1673 17.7619 28.8167 18.2428 28.3703C19.2034 27.4786 20.4857 26.1984 21.7706 24.6446C24.307 21.5774 27 17.2696 27 12.6923C27 6.75788 22.0454 2 16 2C9.95456 2 5 6.75788 5 12.6923C5 17.2696 7.69299 21.5774 10.2294 24.6446C11.5143 26.1984 12.7966 27.4786 13.7572 28.3703C14.2381 28.8167 14.64 29.1673 14.9236 29.4077C15.0653 29.528 15.1776 29.6208 15.2555 29.6843C15.2945 29.7161 15.3248 29.7405 15.346 29.7575L15.3707 29.7772L15.3777 29.7828L15.3807 29.7851ZM7 12.6923C7 7.92091 10.9997 4 16 4C21.0003 4 25 7.92091 25 12.6923C25 16.5449 22.693 20.3909 20.2294 23.3701C19.0143 24.8395 17.7966 26.0556 16.8822 26.9045C16.539 27.223 16.2395 27.489 16 27.6963C15.7605 27.489 15.461 27.223 15.1178 26.9045C14.2034 26.0556 12.9857 24.8395 11.7706 23.3701C9.30701 20.3909 7 16.5449 7 12.6923Z" fill="black"/>
</svg>
