<svg width="16" height="16" viewBox="0 0 16 16" fill="none" xmlns="http://www.w3.org/2000/svg">
<rect width="16" height="16" fill="white"/>
<path fill-rule="evenodd" clip-rule="evenodd" d="M5 5L5 3.00001L3 3L3 5H5ZM7 3.00001V5C7 6.10457 6.10457 7 5 7L3 7C1.89543 7 1 6.10457 1 5L1 3C1 1.89543 1.89543 1 3 1L5 1.00001C6.10457 1.00001 7 1.89544 7 3.00001Z" fill="black"/>
<path fill-rule="evenodd" clip-rule="evenodd" d="M13 5L13 3.00001L11 3V5H13ZM15 3.00001L15 5C15 6.10457 14.1046 7 13 7H11C9.89543 7 9 6.10457 9 5V3C9 1.89543 9.89543 1 11 1L13 1.00001C14.1046 1.00001 15 1.89544 15 3.00001Z" fill="black"/>
<path fill-rule="evenodd" clip-rule="evenodd" d="M5 13L5 11L3 11L3 13L5 13ZM7 11V13C7 14.1046 6.10457 15 5 15L3 15C1.89543 15 1 14.1046 1 13L1 11C1 9.89543 1.89543 9 3 9L5 9.00001C6.10457 9.00001 7 9.89544 7 11Z" fill="black"/>
<path fill-rule="evenodd" clip-rule="evenodd" d="M13 13L13 11L11 11V13L13 13ZM15 11L15 13C15 14.1046 14.1046 15 13 15L11 15C9.89543 15 9 14.1046 9 13V11C9 9.89543 9.89543 9 11 9L13 9.00001C14.1046 9.00001 15 9.89544 15 11Z" fill="black"/>
</svg>
