<svg width="16" height="16" viewBox="0 0 16 16" fill="none" xmlns="http://www.w3.org/2000/svg">
<rect width="16" height="16" fill="white"/>
<path d="M2 3L1 3L2 3ZM2 5H3H2ZM5 6V5H5L5 6ZM3 6L3 7L3 7L3 6ZM6 3H5H6ZM6 5H7H6ZM5 2L5 1L5 2ZM3 2L3 3H3L3 2ZM10 3H9H10ZM10 5H11H10ZM13 6V5V6ZM11 6V7V6ZM14 3H13H14ZM14 5H15H14ZM13 2L13 1L13 2ZM11 2L11 3H11L11 2ZM2 11H1H2ZM2 13H3H2ZM5 14V13H5L5 14ZM3 14L3 15H3L3 14ZM6 11H5H6ZM6 13H7H6ZM5 10L5 11H5L5 10ZM3 10L3 11H3L3 10ZM10 11H9H10ZM10 13H11H10ZM13 14V13V14ZM11 14V15V14ZM14 11H13H14ZM14 13H15H14ZM13 10L13 11L13 10ZM11 10L11 11H11L11 10ZM1 3L1 5H3L3 3L1 3ZM5 5L3 5L3 7L5 7L5 5ZM5 3V5H7V3H5ZM5 1L3 1L3 3L5 3L5 1ZM7 3C7 1.89544 6.10457 1.00001 5 1L5 3H7ZM3 3H3L3.00001 1C1.89543 0.999996 1 1.89543 1 3L3 3ZM1 5C1 6.10457 1.89543 7 3 7L3 5H1ZM5 7C6.10457 7 7 6.10457 7 5H5V5V7ZM9 3V5H11V3H9ZM13 5L11 5V7L13 7V5ZM13 3V5H15V3H13ZM13 1L11 1L11 3L13 3L13 1ZM15 3C15 1.89544 14.1046 1.00001 13 1L13 3H15ZM11 3L11 3L11 1C9.89543 0.999996 9 1.89543 9 3H11ZM9 5C9 6.10457 9.89543 7 11 7V5H9ZM13 7C14.1046 7 15 6.10457 15 5H13V5V7ZM1 11L1 13H3L3 11H1ZM5 13L3 13L3 15L5 15L5 13ZM5 11V13H7V11H5ZM5 9L3 9L3 11L5 11L5 9ZM7 11C7 9.89544 6.10457 9.00001 5 9L5 11H7ZM3 11H3L3.00001 9C1.89543 9 1 9.89543 1 11H3ZM1 13C1 14.1046 1.89543 15 3 15L3 13H1ZM5 15C6.10457 15 7 14.1046 7 13H5V13V15ZM9 11V13H11V11H9ZM13 13L11 13V15L13 15V13ZM13 11V13H15V11H13ZM13 9L11 9L11 11L13 11L13 9ZM15 11C15 9.89544 14.1046 9.00001 13 9L13 11H15ZM11 11H11L11 9C9.89543 9 9 9.89543 9 11H11ZM9 13C9 14.1046 9.89543 15 11 15V13H9ZM13 15C14.1046 15 15 14.1046 15 13H13V13V15Z" fill="black"/>
</svg>
