<svg width="32" height="32" viewBox="0 0 32 32" fill="none" xmlns="http://www.w3.org/2000/svg">
<rect width="32" height="32" fill="white"/>
<path fill-rule="evenodd" clip-rule="evenodd" d="M12.0001 17.2604C12.1953 17.6325 12.474 17.9712 12.8362 18.248L17.1782 21.5667C19.1524 23.0755 22 21.6678 22 19.1831V12.5459C22 10.0611 19.1524 8.65349 17.1782 10.1623L12.8362 13.4809C12.474 13.7578 12.1953 14.0965 12.0001 14.4686V11C12.0001 10.4477 11.5524 10 11.0001 10C10.4478 10 10.0001 10.4477 10.0001 11V21C10.0001 21.5523 10.4478 22 11.0001 22C11.5524 22 12.0001 21.5523 12.0001 21V17.2604ZM14.0507 16.659C13.527 16.2588 13.527 15.4702 14.0507 15.07L18.3927 11.7514C19.0508 11.2484 20 11.7176 20 12.5459V19.1831C20 20.0114 19.0508 20.4806 18.3927 19.9776L14.0507 16.659Z" fill="black"/>
<path fill-rule="evenodd" clip-rule="evenodd" d="M2 16C2 8.26801 8.26801 2 16 2C23.732 2 30 8.26801 30 16C30 23.732 23.732 30 16 30C8.26801 30 2 23.732 2 16ZM16 4C9.37258 4 4 9.37258 4 16C4 22.6274 9.37258 28 16 28C22.6274 28 28 22.6274 28 16C28 9.37258 22.6274 4 16 4Z" fill="black"/>
</svg>
