<svg width="32" height="32" viewBox="0 0 32 32" fill="none" xmlns="http://www.w3.org/2000/svg">
<rect width="32" height="32" fill="white"/>
<path fill-rule="evenodd" clip-rule="evenodd" d="M16.1861 21.7022L20.5282 18.3835C22.0992 17.1828 22.0992 14.8172 20.5282 13.6165L16.1861 10.2978C14.212 8.789 11.3644 10.1967 11.3644 12.6814L11.3644 19.3186C11.3644 21.8033 14.212 23.211 16.1861 21.7022ZM19.3137 15.2055C19.8374 15.6057 19.8374 16.3943 19.3137 16.7945L14.9716 20.1131C14.3136 20.6161 13.3644 20.1469 13.3644 19.3186V12.6814C13.3644 11.8531 14.3136 11.3839 14.9716 11.8869L19.3137 15.2055Z" fill="black"/>
<path fill-rule="evenodd" clip-rule="evenodd" d="M16 2C8.26801 2 2 8.26801 2 16C2 23.732 8.26801 30 16 30C23.732 30 30 23.732 30 16C30 8.26801 23.732 2 16 2ZM4 16C4 9.37258 9.37258 4 16 4C22.6274 4 28 9.37258 28 16C28 22.6274 22.6274 28 16 28C9.37258 28 4 22.6274 4 16Z" fill="black"/>
</svg>
