<svg width="16" height="16" viewBox="0 0 16 16" fill="none" xmlns="http://www.w3.org/2000/svg">
<rect width="16" height="16" fill="white"/>
<path d="M5 10C5 10.5523 5.44772 11 6 11C6.55228 11 7 10.5523 7 10H5ZM7 6C7 5.44772 6.55228 5 6 5C5.44772 5 5 5.44772 5 6H7ZM9 10C9 10.5523 9.44771 11 10 11C10.5523 11 11 10.5523 11 10H9ZM11 6C11 5.44772 10.5523 5 10 5C9.44771 5 9 5.44772 9 6H11ZM14 8C14 11.3137 11.3137 14 8 14V16C12.4183 16 16 12.4183 16 8H14ZM8 14C4.68629 14 2 11.3137 2 8H0C0 12.4183 3.58172 16 8 16V14ZM2 8C2 4.68629 4.68629 2 8 2V0C3.58172 0 0 3.58172 0 8H2ZM8 2C11.3137 2 14 4.68629 14 8H16C16 3.58172 12.4183 0 8 0V2ZM7 10V6H5V10H7ZM11 10V6H9V10H11Z" fill="black"/>
</svg>
