<svg width="32" height="32" viewBox="0 0 32 32" fill="none" xmlns="http://www.w3.org/2000/svg">
<rect width="32" height="32" fill="white"/>
<path d="M13.3645 11C13.9168 11 14.3645 11.4477 14.3645 12V20C14.3645 20.5523 13.9168 21 13.3645 21C12.8122 21 12.3645 20.5523 12.3645 20V12C12.3645 11.4477 12.8122 11 13.3645 11Z" fill="black"/>
<path d="M20.3645 12C20.3645 11.4477 19.9168 11 19.3645 11C18.8122 11 18.3645 11.4477 18.3645 12V20C18.3645 20.5523 18.8122 21 19.3645 21C19.9168 21 20.3645 20.5523 20.3645 20V12Z" fill="black"/>
<path fill-rule="evenodd" clip-rule="evenodd" d="M2 16C2 8.26801 8.26801 2 16 2C23.732 2 30 8.26801 30 16C30 23.732 23.732 30 16 30C8.26801 30 2 23.732 2 16ZM16 4C9.37258 4 4 9.37258 4 16C4 22.6274 9.37258 28 16 28C22.6274 28 28 22.6274 28 16C28 9.37258 22.6274 4 16 4Z" fill="black"/>
</svg>
