<svg width="16" height="16" viewBox="0 0 16 16" fill="none" xmlns="http://www.w3.org/2000/svg">
<rect width="16" height="16" fill="white"/>
<path fill-rule="evenodd" clip-rule="evenodd" d="M11.6 8.79993C11.8518 8.61108 12 8.31469 12 7.99993C12 7.68518 11.8518 7.38879 11.6 7.19993L7.60001 4.19993C7.29699 3.97267 6.89158 3.93611 6.5528 4.10551C6.21401 4.2749 6.00001 4.62116 6.00001 4.99993V10.9999C6.00001 11.3787 6.21401 11.725 6.5528 11.8944C6.89158 12.0638 7.29699 12.0272 7.60001 11.7999L11.6 8.79993ZM8.00001 8.99993L8.00001 6.99993L9.33335 7.99993L8.00001 8.99993Z" fill="black"/>
<path fill-rule="evenodd" clip-rule="evenodd" d="M8 0C3.58172 0 0 3.58172 0 8C0 12.4183 3.58172 16 8 16C12.4183 16 16 12.4183 16 8C16 3.58172 12.4183 0 8 0ZM2 8C2 4.68629 4.68629 2 8 2C11.3137 2 14 4.68629 14 8C14 11.3137 11.3137 14 8 14C4.68629 14 2 11.3137 2 8Z" fill="black"/>
</svg>
