<svg width="16" height="16" viewBox="0 0 16 16" fill="none" xmlns="http://www.w3.org/2000/svg">
<rect width="16" height="16" fill="white"/>
<path fill-rule="evenodd" clip-rule="evenodd" d="M11 4C11.5523 4 12 4.44772 12 5L12 8.00006L12 11C12 11.5523 11.5523 12 11 12C10.4477 12 10 11.5523 10 11V9.76625L6.5145 11.8576C6.20557 12.0429 5.82081 12.0478 5.5073 11.8703C5.19379 11.6928 5 11.3603 5 11.0001L5 5.00006C5 4.63979 5.19379 4.30737 5.5073 4.12986C5.82081 3.95236 6.20557 3.95721 6.5145 4.14257L10 6.23387V5C10 4.44772 10.4477 4 11 4ZM7 9.23387V6.76625L9.05635 8.00006L7 9.23387Z" fill="black"/>
<path fill-rule="evenodd" clip-rule="evenodd" d="M0 8C0 3.58172 3.58172 0 8 0C12.4183 0 16 3.58172 16 8C16 12.4183 12.4183 16 8 16C3.58172 16 0 12.4183 0 8ZM8 2C4.68629 2 2 4.68629 2 8C2 11.3137 4.68629 14 8 14C11.3137 14 14 11.3137 14 8C14 4.68629 11.3137 2 8 2Z" fill="black"/>
</svg>
