<svg width="16" height="16" viewBox="0 0 16 16" fill="none" xmlns="http://www.w3.org/2000/svg">
<rect width="16" height="16" fill="white"/>
<path d="M7 5C7 4.44772 6.55228 4 6 4C5.44772 4 5 4.44772 5 5H7ZM5 11C5 11.5523 5.44772 12 6 12C6.55228 12 7 11.5523 7 11H5ZM6 8L5.4855 7.14251C5.1843 7.32323 5 7.64874 5 8C5 8.35126 5.1843 8.67677 5.4855 8.85749L6 8ZM11 11L10.4855 11.8575C10.7944 12.0429 11.1792 12.0477 11.4927 11.8702C11.8062 11.6927 12 11.3603 12 11H11ZM11 5H12C12 4.63973 11.8062 4.30731 11.4927 4.1298C11.1792 3.95229 10.7944 3.95715 10.4855 4.14251L11 5ZM14 8C14 11.3137 11.3137 14 8 14V16C12.4183 16 16 12.4183 16 8H14ZM8 14C4.68629 14 2 11.3137 2 8H0C0 12.4183 3.58172 16 8 16V14ZM2 8C2 4.68629 4.68629 2 8 2V0C3.58172 0 0 3.58172 0 8H2ZM8 2C11.3137 2 14 4.68629 14 8H16C16 3.58172 12.4183 0 8 0V2ZM5 5V11H7V5H5ZM5.4855 8.85749L10.4855 11.8575L11.5145 10.1425L6.5145 7.14251L5.4855 8.85749ZM10.4855 4.14251L5.4855 7.14251L6.5145 8.85749L11.5145 5.85749L10.4855 4.14251ZM12 11V5H10V11H12Z" fill="black"/>
</svg>
