<svg width="32" height="32" viewBox="0 0 32 32" fill="none" xmlns="http://www.w3.org/2000/svg">
<rect width="32" height="32" fill="white"/>
<path d="M18.5565 17.7245L19.1637 18.519L18.5565 17.7245ZM14.2144 21.0431L13.6072 20.2486L14.2144 21.0431ZM14.2144 11.2278L13.6072 12.0223L14.2144 11.2278ZM18.5565 14.5465L19.1637 13.7519H19.1637L18.5565 14.5465ZM10.9999 19.4541H11.9999H11.9999H10.9999ZM10.9999 12.8169H9.99995H10.9999ZM20 21C20 21.5523 20.4477 22 21 22C21.5523 22 22 21.5523 22 21H20ZM22 11C22 10.4477 21.5523 10 21 10C20.4477 10 20 10.4477 20 11H22ZM28 16C28 22.6274 22.6274 28 16 28V30C23.732 30 30 23.732 30 16H28ZM16 28C9.37258 28 4 22.6274 4 16H2C2 23.732 8.26801 30 16 30V28ZM4 16C4 9.37258 9.37258 4 16 4V2C8.26801 2 2 8.26801 2 16H4ZM16 4C22.6274 4 28 9.37258 28 16H30C30 8.26801 23.732 2 16 2V4ZM17.9493 16.93L13.6072 20.2486L14.8217 21.8376L19.1637 18.519L17.9493 16.93ZM13.6072 12.0223L17.9493 15.341L19.1637 13.7519L14.8217 10.4333L13.6072 12.0223ZM11.9999 19.4541V12.8169H9.99995L9.99995 19.4541H11.9999ZM19.1637 18.519C20.7348 17.3183 20.7348 14.9527 19.1637 13.7519L17.9493 15.341C18.4729 15.7412 18.4729 16.5298 17.9493 16.93L19.1637 18.519ZM13.6072 20.2486C12.9491 20.7516 11.9999 20.2823 11.9999 19.4541H9.99995C9.99995 21.9388 12.8475 23.3465 14.8217 21.8376L13.6072 20.2486ZM14.8217 10.4333C12.8475 8.92448 9.99995 10.3321 9.99995 12.8169H11.9999C11.9999 11.9886 12.9491 11.5194 13.6072 12.0223L14.8217 10.4333ZM22 21V11H20V21H22Z" fill="black"/>
</svg>
