<svg width="16" height="16" viewBox="0 0 16 16" fill="none" xmlns="http://www.w3.org/2000/svg">
<rect width="16" height="16" fill="white"/>
<path d="M11 7.99999L11.6 8.79999C11.8518 8.61114 12 8.31475 12 7.99999C12 7.68523 11.8518 7.38884 11.6 7.19999L11 7.99999ZM7.00002 11H6.00002C6.00002 11.3788 6.21403 11.725 6.55281 11.8944C6.89159 12.0638 7.29701 12.0273 7.60002 11.8L7.00002 11ZM7.00002 4.99999L7.60002 4.19999C7.29701 3.97273 6.89159 3.93617 6.55281 4.10556C6.21403 4.27495 6.00002 4.62122 6.00002 4.99999H7.00002ZM10.4 7.19999L6.40002 10.2L7.60002 11.8L11.6 8.79999L10.4 7.19999ZM6.40002 5.79999L10.4 8.79999L11.6 7.19999L7.60002 4.19999L6.40002 5.79999ZM8.00002 11V4.99999H6.00002V11H8.00002ZM14 8C14 11.3137 11.3137 14 8 14V16C12.4183 16 16 12.4183 16 8H14ZM8 14C4.68629 14 2 11.3137 2 8H0C0 12.4183 3.58172 16 8 16V14ZM2 8C2 4.68629 4.68629 2 8 2V0C3.58172 0 0 3.58172 0 8H2ZM8 2C11.3137 2 14 4.68629 14 8H16C16 3.58172 12.4183 0 8 0V2Z" fill="black"/>
</svg>
