<svg width="16" height="16" viewBox="0 0 16 16" fill="none" xmlns="http://www.w3.org/2000/svg">
<rect width="16" height="16" fill="white"/>
<path fill-rule="evenodd" clip-rule="evenodd" d="M9 13.917C11.8377 13.441 14 10.973 14 8V7C14.5523 7 15 6.55228 15 6C15 5.44772 14.5523 5 14 5H12V2C12 1.44772 11.5523 1 11 1C10.4477 1 10 1.44772 10 2V5H6L6 2C6 1.44772 5.55229 1 5 1C4.44772 1 4 1.44772 4 2L4 5H2C1.44772 5 1 5.44772 1 6C1 6.55228 1.44772 7 2 7V8C2 10.973 4.16229 13.441 7 13.917V14C7 14.5523 7.44772 15 8 15C8.55228 15 9 14.5523 9 14V13.917ZM4 7V8C4 10.2091 5.79086 12 8 12C10.2091 12 12 10.2091 12 8V7H4Z" fill="black"/>
</svg>
