<svg width="16" height="16" viewBox="0 0 16 16" fill="none" xmlns="http://www.w3.org/2000/svg">
<rect width="16" height="16" fill="white"/>
<path fill-rule="evenodd" clip-rule="evenodd" d="M9.00002 3C8.44774 3 8.00003 3.44771 8.00003 4V6.0252L5 6.00631V8H3C2.4477 8 2 8.44771 2 8.99998C2 9.55228 2.44773 10 3 10H5V13H6.00005C6.00006 11.3432 7.3432 10 9.00005 10C10.6569 10 12 11.3431 12 13H13V6.01261L10.0001 5.99372L10 4.00002C10 3.44774 9.55231 3 9.00002 3ZM6.00003 4C6.00003 2.34315 7.34317 1 9.00002 1C10.6569 1 12 2.34313 12 3.99998V4.00627L15 4.02516V15H10V13C10 12.4477 9.55233 12 9.00005 12C8.44777 12 8.00005 12.4477 8.00005 13L8 15H3L3 12C1.34313 12 5.96046e-08 10.6568 0 8.99998C-1.19209e-07 7.3431 1.34316 6 3 6L3 3.99369L6.00003 4.01257V4Z" fill="black"/>
</svg>
