<svg width="16" height="16" viewBox="0 0 16 16" fill="none" xmlns="http://www.w3.org/2000/svg">
<rect width="16" height="16" fill="white"/>
<path d="M14 14V15H15V14H14ZM14 5.01888H15V4.02516L14.0063 4.0189L14 5.01888ZM11 4H10V4.00002L11 4ZM7.00005 13L8.00005 13V13H7.00005ZM11 4.99999L10 5.00002L10.0001 5.99372L10.9938 5.99997L11 4.99999ZM7.00003 5.01888L6.99373 6.01886L8.00003 6.0252V5.01888H7.00003ZM4 5L4.00629 4.00002L3 3.99369V5H4ZM4 7V8H5V7H4ZM4 11H5V10H4V11ZM4 14H3V15H4V14ZM11 14H10V15H11V14ZM7.00003 14V15H8L8.00003 14L7.00003 14ZM15 14V5.01888H13V14H15ZM8.00003 4C8.00003 3.44771 8.44774 3 9.00002 3V1C7.34317 1 6.00003 2.34315 6.00003 4H8.00003ZM9.00002 3C9.55231 3 10 3.44772 10 4H12C12 2.34315 10.6569 1 9.00002 1V3ZM8.00005 13C8.00005 12.4477 8.44777 12 9.00005 12V10C7.34319 10 6.00005 11.3431 6.00005 13H8.00005ZM9.00005 12C9.55233 12 10 12.4477 10 13H12C12 11.3431 10.6569 10 9.00005 10V12ZM3 10C2.44773 10 2 9.55228 2 8.99998H0C0 10.6568 1.34313 12 3 12V10ZM2 8.99998C2 8.44771 2.4477 8 3 8V6C1.34316 6 0 7.3431 0 8.99998H2ZM14.0063 4.0189L11.0063 4.00001L10.9938 5.99997L13.9937 6.01886L14.0063 4.0189ZM12 4.99997L12 3.99998L10 4.00002L10 5.00002L12 4.99997ZM6.00003 4V5.01888H8.00003V4H6.00003ZM7.00632 4.0189L4.00629 4.00002L3.99371 5.99998L6.99373 6.01886L7.00632 4.0189ZM3 5V7H5V5H3ZM4 6H3V8H4V6ZM3 12H4V10H3V12ZM3 11V14H5V11H3ZM14 13H11V15H14V13ZM12 14V13H10V14H12ZM6.00005 13L6.00003 14L8.00003 14L8.00005 13L6.00005 13ZM7.00003 13H4V15H7.00003V13Z" fill="black"/>
</svg>
