<svg width="32" height="32" viewBox="0 0 32 32" fill="none" xmlns="http://www.w3.org/2000/svg">
<rect width="32" height="32" fill="white"/>
<path d="M8.625 26.7143H9.625H8.625ZM8.625 24.5714H7.625H8.625ZM3 18.8571H2H3ZM15.375 6.42857H14.375H15.375ZM18.75 3V4V3ZM22.125 6.42857H21.125H22.125ZM13.125 8.71429V7.71429V8.71429ZM10.875 8.71429V9.71429V8.71429ZM24.375 8.71429V9.71429V8.71429ZM26.75 8.71429V7.71429V8.71429ZM8.625 13.1427H9.625H8.625ZM8.625 11.0002H7.625H8.625ZM29 26.7108H28H29ZM29 11.0026L28 11.0026V11.0026H29ZM10.8784 29V30H10.8784L10.8784 29ZM15.375 26.7142H14.375H15.375ZM22.125 26.7142H21.125H22.125ZM22.125 28.9999H21.125C21.125 29.5522 21.5727 29.9999 22.125 29.9999V28.9999ZM15.375 28.9999L15.375 29.9999C15.9273 29.9999 16.375 29.5522 16.375 28.9999H15.375ZM26.7635 28.9999L26.7674 29.9999L26.7713 29.9999L26.7635 28.9999ZM26.7419 28C26.1896 28.0021 25.7436 28.4516 25.7458 29.0039C25.7479 29.5562 26.1973 30.0021 26.7496 30L26.7419 28ZM9.625 26.7143V24.5714H7.625V26.7143H9.625ZM6.375 21.2857C5.07811 21.2857 4 20.2133 4 18.8571H2C2 21.2881 3.94397 23.2857 6.375 23.2857V21.2857ZM4 18.8571C4 17.501 5.07811 16.4286 6.375 16.4286V14.4286C3.94397 14.4286 2 16.4262 2 18.8571H4ZM16.375 6.42857C16.375 5.0724 17.4531 4 18.75 4V2C16.319 2 14.375 3.99764 14.375 6.42857H16.375ZM18.75 4C20.0469 4 21.125 5.0724 21.125 6.42857H23.125C23.125 3.99764 21.181 2 18.75 2V4ZM13.125 7.71429H10.875V9.71429H13.125V7.71429ZM24.375 9.71429H26.75V7.71429H24.375V9.71429ZM9.625 13.1427V11.0002H7.625V13.1427H9.625ZM30 26.7108L30 11.0026H28L28 26.7108H30ZM10.875 7.71429C9.06519 7.71429 7.625 9.20054 7.625 11.0002H9.625C9.625 10.2751 10.1995 9.71429 10.875 9.71429V7.71429ZM26.75 9.71429C27.4241 9.71429 28 10.2761 28 11.0026L30 11.0026C30 9.20431 28.5612 7.71429 26.75 7.71429V9.71429ZM6.375 16.4286C8.18482 16.4286 9.625 14.9423 9.625 13.1427H7.625C7.625 13.8678 7.05047 14.4286 6.375 14.4286V16.4286ZM21.125 6.42857C21.125 8.22832 22.5653 9.71429 24.375 9.71429V7.71429C23.6994 7.71429 23.125 7.15356 23.125 6.42857H21.125ZM9.625 24.5714C9.625 22.7717 8.18472 21.2857 6.375 21.2857V23.2857C7.05057 23.2857 7.625 23.8464 7.625 24.5714H9.625ZM14.375 6.42857C14.375 7.15356 13.8006 7.71429 13.125 7.71429V9.71429C14.9347 9.71429 16.375 8.22832 16.375 6.42857H14.375ZM7.625 26.7143C7.625 28.516 9.07066 30 10.8784 30V28C10.2009 28 9.625 27.4373 9.625 26.7143H7.625ZM16.375 26.7142C16.375 25.3581 17.4531 24.2856 18.75 24.2856V22.2856C16.319 22.2856 14.375 24.2833 14.375 26.7142H16.375ZM18.75 24.2856C20.0469 24.2856 21.125 25.358 21.125 26.7142H23.125C23.125 24.2833 21.1811 22.2856 18.75 22.2856V24.2856ZM21.125 26.7142V28.9999H23.125V26.7142H21.125ZM14.375 26.7142V28.9999H16.375V26.7142H14.375ZM10.8784 30L15.375 29.9999L15.375 27.9999L10.8784 28L10.8784 30ZM28 26.7108C28 27.4317 27.4272 27.9947 26.7556 28L26.7713 29.9999C28.5688 29.9858 30 28.5025 30 26.7108H28ZM26.7596 27.9999L26.7419 28L26.7496 30L26.7674 29.9999L26.7596 27.9999ZM22.125 29.9999H26.7635V27.9999H22.125V29.9999Z" fill="black"/>
</svg>
