<svg width="32" height="32" viewBox="0 0 32 32" fill="none" xmlns="http://www.w3.org/2000/svg">
<rect width="32" height="32" fill="white"/>
<path d="M5 11V10C4.44772 10 4 10.4477 4 11H5ZM27 11H28C28 10.4477 27.5523 10 27 10V11ZM3 10C2.44772 10 2 10.4477 2 11C2 11.5523 2.44772 12 3 12V10ZM29 12C29.5523 12 30 11.5523 30 11C30 10.4477 29.5523 10 29 10V12ZM10 3C10 2.44772 9.55229 2 9 2C8.44772 2 8 2.44772 8 3L10 3ZM8 11C8 11.5523 8.44772 12 9 12C9.55228 12 10 11.5523 10 11H8ZM24 3C24 2.44772 23.5523 2 23 2C22.4477 2 22 2.44772 22 3H24ZM22 11C22 11.5523 22.4477 12 23 12C23.5523 12 24 11.5523 24 11H22ZM15 29C15 29.5523 15.4477 30 16 30C16.5523 30 17 29.5523 17 29H15ZM5 12H27V10H5V12ZM26 11V15H28V11H26ZM6 15V11H4V15H6ZM16 25C10.4772 25 6 20.5228 6 15H4C4 21.6274 9.37258 27 16 27V25ZM26 15C26 20.5228 21.5228 25 16 25V27C22.6274 27 28 21.6274 28 15H26ZM3 12H29V10H3V12ZM8 3L8 11H10L10 3L8 3ZM22 3V11H24V3H22ZM15 26V29H17V26H15Z" fill="black"/>
</svg>
