<svg width="32" height="32" viewBox="0 0 32 32" fill="none" xmlns="http://www.w3.org/2000/svg">
<rect width="32" height="32" fill="white"/>
<path fill-rule="evenodd" clip-rule="evenodd" d="M26.7338 29.9999C26.7378 30 26.7418 30 26.7457 30L26.7713 29.9999C28.5688 29.9858 30 28.5025 30 26.7108L30 11.0026C30 9.20431 28.5612 7.71429 26.75 7.71429H24.375C23.6994 7.71429 23.125 7.15356 23.125 6.42857C23.125 3.99764 21.181 2 18.75 2C16.319 2 14.375 3.99764 14.375 6.42857C14.375 7.15356 13.8006 7.71429 13.125 7.71429H10.875C9.06519 7.71429 7.625 9.20055 7.625 11.0002V13.1427C7.625 13.8678 7.05047 14.4286 6.375 14.4286C3.94397 14.4286 2 16.4262 2 18.8571C2 21.2881 3.94397 23.2857 6.375 23.2857C7.05057 23.2857 7.625 23.8464 7.625 24.5714V26.7143C7.625 28.516 9.07066 30 10.8784 30L15.375 29.9999C15.9273 29.9999 16.375 29.5522 16.375 28.9999V26.7142C16.375 25.3581 17.4531 24.2856 18.75 24.2856C20.0469 24.2856 21.125 25.3581 21.125 26.7142V28.9999C21.125 29.5522 21.5727 29.9999 22.125 29.9999H26.7338ZM26.759 27.9999H23.125V26.7142C23.125 24.2833 21.1811 22.2856 18.75 22.2856C16.319 22.2856 14.375 24.2833 14.375 26.7142V27.9999L10.8784 28C10.2009 28 9.625 27.4373 9.625 26.7143V24.5714C9.625 22.7717 8.18472 21.2857 6.375 21.2857C5.07811 21.2857 4 20.2133 4 18.8571C4 17.501 5.07811 16.4286 6.375 16.4286C8.18482 16.4286 9.625 14.9423 9.625 13.1427V11.0002C9.625 10.2751 10.1995 9.71429 10.875 9.71429H13.125C14.9347 9.71429 16.375 8.22832 16.375 6.42857C16.375 5.0724 17.4531 4 18.75 4C20.0469 4 21.125 5.0724 21.125 6.42857C21.125 8.22832 22.5653 9.71429 24.375 9.71429H26.75C27.4241 9.71429 28 10.2761 28 11.0026L28 26.7108C28 27.4305 27.4291 27.9928 26.759 27.9999Z" fill="black"/>
</svg>
