<svg width="32" height="32" viewBox="0 0 32 32" fill="none" xmlns="http://www.w3.org/2000/svg">
<rect width="32" height="32" fill="white"/>
<path d="M3 28C2.44772 28 2 28.4477 2 29C2 29.5523 2.44772 30 3 30V28ZM29 30C29.5523 30 30 29.5523 30 29C30 28.4477 29.5523 28 29 28V30ZM3 21C2.44772 21 2 21.4477 2 22C2 22.5523 2.44772 23 3 23V21ZM29 23C29.5523 23 30 22.5523 30 22C30 21.4477 29.5523 21 29 21V23ZM28 7C28 7.55228 28.4477 8 29 8C29.5523 8 30 7.55228 30 7H28ZM20 19.134C20 19.6863 20.4477 20.134 21 20.134C21.5523 20.134 22 19.6863 22 19.134H20ZM12 7C12 7.55228 12.4477 8 13 8C13.5523 8 14 7.55228 14 7H12ZM4 21.417C4 21.9693 4.44772 22.417 5 22.417C5.55228 22.417 6 21.9693 6 21.417H4ZM5 12C4.44772 12 4 12.4477 4 13C4 13.5523 4.44772 14 5 14V12ZM21 14C21.5523 14 22 13.5523 22 13C22 12.4477 21.5523 12 21 12V14ZM9.5 25C7.70872 25 6.52217 25.9947 5.62166 26.7221C4.66503 27.4947 3.99444 28 3 28V30C4.79128 30 5.97783 29.0053 6.87834 28.2779C7.83497 27.5053 8.50556 27 9.5 27V25ZM9.5 27C10.4944 27 11.165 27.5053 12.1217 28.2779C13.0222 29.0053 14.2087 30 16 30V28C15.0056 28 14.335 27.4947 13.3783 26.7221C12.4778 25.9947 11.2913 25 9.5 25V27ZM22.5 25C20.7087 25 19.5222 25.9947 18.6217 26.7221C17.665 27.4947 16.9944 28 16 28V30C17.7913 30 18.9778 29.0053 19.8783 28.2779C20.835 27.5053 21.5056 27 22.5 27V25ZM22.5 27C23.4944 27 24.165 27.5053 25.1217 28.2779C26.0222 29.0053 27.2087 30 29 30V28C28.0056 28 27.335 27.4947 26.3783 26.7221C25.4778 25.9947 24.2913 25 22.5 25V27ZM9.5 18C7.70872 18 6.52217 18.9947 5.62166 19.7221C4.66503 20.4947 3.99444 21 3 21V23C4.79128 23 5.97783 22.0053 6.87834 21.2779C7.83497 20.5053 8.50556 20 9.5 20V18ZM9.5 20C10.4944 20 11.165 20.5053 12.1217 21.2779C13.0222 22.0053 14.2087 23 16 23V21C15.0056 21 14.335 20.4947 13.3783 19.7221C12.4778 18.9947 11.2913 18 9.5 18V20ZM22.5 18C20.7087 18 19.5222 18.9947 18.6217 19.7221C17.665 20.4947 16.9944 21 16 21V23C17.7913 23 18.9778 22.0053 19.8783 21.2779C20.835 20.5053 21.5056 20 22.5 20V18ZM22.5 20C23.4944 20 24.165 20.5053 25.1217 21.2779C26.0222 22.0053 27.2087 23 29 23V21C28.0056 21 27.335 20.4947 26.3783 19.7221C25.4778 18.9947 24.2913 18 22.5 18V20ZM22 7C22 5.34315 23.3431 4 25 4V2C22.2386 2 20 4.23858 20 7H22ZM25 4C26.6569 4 28 5.34315 28 7H30C30 4.23858 27.7614 2 25 2V4ZM20 7V19.134H22V7H20ZM6 7C6 5.34315 7.34315 4 9 4V2C6.23858 2 4 4.23858 4 7H6ZM9 4C10.6569 4 12 5.34315 12 7H14C14 4.23858 11.7614 2 9 2V4ZM4 7V21.417H6V7H4ZM5 14H21V12H5V14Z" fill="black"/>
</svg>
