<svg width="16" height="16" viewBox="0 0 16 16" fill="none" xmlns="http://www.w3.org/2000/svg">
<rect width="16" height="16" fill="white"/>
<path fill-rule="evenodd" clip-rule="evenodd" d="M12.874 6C12.4299 4.27477 10.8638 3 9 3C7.13616 3 5.57006 4.27477 5.12602 6L3 6C1.89543 6.00001 1 6.89544 1 8V13C1 14.1046 1.89543 15 3 15H13C14.1046 15 15 14.1046 15 13L15 8C15 6.89543 14.1046 6 13 6H12.874ZM7 7C7 5.89543 7.89543 5 9 5C10.1046 5 11 5.89543 11 7C11 8.10457 10.1046 9 9 9C7.89543 9 7 8.10457 7 7ZM5.12602 8L3 8L3 13H13L13 8H12.874C12.4299 9.72523 10.8638 11 9 11C7.13616 11 5.57006 9.72523 5.12602 8Z" fill="black"/>
</svg>
