<svg width="32" height="32" viewBox="0 0 32 32" fill="none" xmlns="http://www.w3.org/2000/svg">
<rect width="32" height="32" fill="white"/>
<path d="M16 9C14.3261 9 13 10.3281 13 11.9286C13 12.4809 12.5523 12.9286 12 12.9286C11.4477 12.9286 11 12.4809 11 11.9286C11 9.18969 13.2556 7 16 7C18.7444 7 21 9.18969 21 11.9286C21 13.2902 20.4388 14.5215 19.5392 15.41C19.3921 15.5553 19.2466 15.6963 19.1036 15.8348C18.6024 16.3205 18.1331 16.7753 17.7414 17.2737C17.2501 17.8989 17 18.4532 17 19C17 19.5523 16.5523 20 16 20C15.4477 20 15 19.5523 15 19C15 17.8111 15.5507 16.8246 16.1689 16.0379C16.6533 15.4215 17.2529 14.8415 17.7663 14.3449C17.8952 14.2202 18.0189 14.1006 18.1337 13.9871C18.6724 13.4551 19 12.7286 19 11.9286C19 10.3281 17.6739 9 16 9Z" fill="black"/>
<path d="M15 23.5C15 24.0523 15.4477 24.5 16 24.5C16.5523 24.5 17 24.0523 17 23.5V23C17 22.4477 16.5523 22 16 22C15.4477 22 15 22.4477 15 23V23.5Z" fill="black"/>
<path fill-rule="evenodd" clip-rule="evenodd" d="M28.5355 8.12129C29.4732 9.05897 30 10.3307 30 11.6568V20.3431C30 21.6692 29.4732 22.941 28.5355 23.8787L23.8787 28.5355C22.941 29.4732 21.6692 30 20.3431 30H11.6569C10.3308 30 9.059 29.4732 8.12132 28.5355L3.46447 23.8787C2.52679 22.941 2 21.6692 2 20.3431V11.6568C2 10.3307 2.52679 9.05897 3.46447 8.12129L8.12132 3.46446C9.05901 2.52678 10.3308 2 11.6569 2H20.3432C21.6692 2 22.941 2.52678 23.8787 3.46446L28.5355 8.12129ZM28 11.6568C28 10.8612 27.6839 10.0981 27.1213 9.53551L22.4645 4.87868C21.9019 4.31607 21.1388 4 20.3432 4L11.6569 4C10.8612 4 10.0981 4.31607 9.53554 4.87867L4.87868 9.53551C4.31607 10.0981 4 10.8612 4 11.6568L4 20.3431C4 21.1388 4.31607 21.9018 4.87868 22.4644L9.53553 27.1213C10.0981 27.6839 10.8612 28 11.6569 28H20.3431C21.1388 28 21.9019 27.6839 22.4645 27.1213L27.1213 22.4644C27.6839 21.9018 28 21.1388 28 20.3431V11.6568Z" fill="black"/>
</svg>
