<svg width="16" height="16" viewBox="0 0 16 16" fill="none" xmlns="http://www.w3.org/2000/svg">
<rect width="16" height="16" fill="white"/>
<path fill-rule="evenodd" clip-rule="evenodd" d="M8 1C5.81533 1 4.01129 2.49139 3.40034 4.49417C1.9965 4.8652 1 6.18748 1 7.69536C1 9.46514 2.37207 10.9789 4.16543 11L11.8228 11.0001L11.8346 10.9999C13.6279 10.9788 15 9.46514 15 7.69536C15 6.18748 14.0035 4.8652 12.5997 4.49417C11.9887 2.49139 10.1847 1 8 1ZM5.21077 5.53531C5.42547 4.06513 6.62389 3 8 3C9.37611 3 10.5745 4.06513 10.7892 5.53531L10.9153 6.39846L11.7875 6.39077L11.7975 6.39073C12.4194 6.39073 13 6.93164 13 7.69536C13 8.4515 12.4302 8.98992 11.8159 9H4.18406C3.56978 8.98992 3 8.4515 3 7.69536C3 6.93164 3.58061 6.39073 4.20253 6.39073L4.21246 6.39077L5.08472 6.39846L5.21077 5.53531Z" fill="black"/>
<path d="M4.39443 13.4473C4.64142 12.9533 4.44119 12.3526 3.94721 12.1056C3.45324 11.8586 2.85256 12.0589 2.60557 12.5528L2.10557 13.5528C1.85858 14.0468 2.05881 14.6475 2.55279 14.8945C3.04676 15.1415 3.64744 14.9412 3.89443 14.4473L4.39443 13.4473Z" fill="black"/>
<path d="M8.64443 13.4473C8.89142 12.9533 8.69119 12.3526 8.19721 12.1056C7.70324 11.8586 7.10256 12.0589 6.85557 12.5528L6.35557 13.5528C6.10858 14.0468 6.30881 14.6475 6.80279 14.8945C7.29676 15.1415 7.89744 14.9412 8.14443 14.4473L8.64443 13.4473Z" fill="black"/>
<path d="M12.1972 12.1056C12.6912 12.3526 12.8914 12.9533 12.6444 13.4473L12.1444 14.4473C11.8974 14.9412 11.2968 15.1415 10.8028 14.8945C10.3088 14.6475 10.1086 14.0468 10.3556 13.5528L10.8556 12.5528C11.1026 12.0589 11.7032 11.8586 12.1972 12.1056Z" fill="black"/>
</svg>
