<svg width="32" height="32" viewBox="0 0 32 32" fill="none" xmlns="http://www.w3.org/2000/svg">
<rect width="32" height="32" fill="white"/>
<path fill-rule="evenodd" clip-rule="evenodd" d="M12 6C12 5.44772 12.4477 5 13 5L22 5C24.7614 5 27 7.23858 27 10L27 23.5858L29.2929 21.2929C29.6834 20.9024 30.3166 20.9024 30.7071 21.2929C31.0976 21.6834 31.0976 22.3166 30.7071 22.7071L26.7071 26.7071C26.5196 26.8946 26.2652 27 26 27C25.7348 27 25.4804 26.8946 25.2929 26.7071L21.2929 22.7071C20.9024 22.3166 20.9024 21.6834 21.2929 21.2929C21.6834 20.9024 22.3166 20.9024 22.7071 21.2929L25 23.5858L25 10C25 8.34315 23.6569 7 22 7L13 7C12.4477 7 12 6.55228 12 6ZM5.29289 5.29289C5.68342 4.90237 6.31658 4.90237 6.70711 5.29289L10.7071 9.29289C11.0976 9.68342 11.0976 10.3166 10.7071 10.7071C10.3166 11.0976 9.68342 11.0976 9.29289 10.7071L7 8.41421V22C7 23.6569 8.34315 25 10 25H19C19.5523 25 20 25.4477 20 26C20 26.5523 19.5523 27 19 27H10C7.23858 27 5 24.7614 5 22V8.41421L2.70711 10.7071C2.31658 11.0976 1.68342 11.0976 1.29289 10.7071C0.902369 10.3166 0.902369 9.68342 1.29289 9.29289L5.29289 5.29289Z" fill="black"/>
</svg>
