<svg width="16" height="16" viewBox="0 0 16 16" fill="none" xmlns="http://www.w3.org/2000/svg">
<rect width="16" height="16" transform="matrix(1 0 0 -1 0 16)" fill="white"/>
<path d="M5.5 4C2.46243 4 0 6.46243 0 9.5C0 12.5376 2.46243 15 5.5 15H13C13.5523 15 14 14.5523 14 14C14 13.4477 13.5523 13 13 13H5.5C3.567 13 2 11.433 2 9.5C2 7.567 3.567 6 5.5 6H11.5858L10.2929 7.29289C9.90237 7.68342 9.90237 8.31658 10.2929 8.70711C10.6834 9.09763 11.3166 9.09763 11.7071 8.70711L14.7071 5.70711C15.0976 5.31658 15.0976 4.68342 14.7071 4.29289L11.7071 1.29289C11.3166 0.902369 10.6834 0.902369 10.2929 1.29289C9.90237 1.68342 9.90237 2.31658 10.2929 2.70711L11.5858 4H5.5Z" fill="black"/>
</svg>
