<svg width="32" height="32" viewBox="0 0 32 32" fill="none" xmlns="http://www.w3.org/2000/svg">
<rect width="32" height="32" fill="white"/>
<path d="M3 16C3 23.1797 8.8203 29 16 29C23.1797 29 29 23.1797 29 16C29 8.8203 23.1797 3 16 3M3 16C3 8.8203 8.8203 3 16 3M3 16H9.99583M16 3V9.99583M9.99583 16C9.99583 19.316 12.684 22.0042 16 22.0042C19.316 22.0042 22.0042 19.316 22.0042 16C22.0042 12.684 19.316 9.99583 16 9.99583M9.99583 16C9.99583 12.684 12.684 9.99583 16 9.99583" stroke="black" stroke-width="2"/>
</svg>
