<svg width="16" height="16" viewBox="0 0 16 16" fill="none" xmlns="http://www.w3.org/2000/svg">
<rect width="16" height="16" fill="white"/>
<path d="M13 9V10V9ZM3 9L3 8L3 9ZM2 13H1V13L2 13ZM2 10H1H2ZM13 14V15V14ZM3 14L3 13L3 14ZM14 13L13 13V13L14 13ZM14 10L15 10V10L14 10ZM5.08085 9.39392C5.29841 9.90155 5.88629 10.1367 6.39392 9.91915C6.90155 9.70159 7.1367 9.11371 6.91915 8.60608L5.08085 9.39392ZM3.91914 1.60608C3.70159 1.09845 3.11371 0.863299 2.60608 1.08086C2.09845 1.29841 1.8633 1.88629 2.08085 2.39392L3.91914 1.60608ZM9.08085 8.60608C8.8633 9.11371 9.09845 9.70159 9.60608 9.91915C10.1137 10.1367 10.7016 9.90155 10.9191 9.39392L9.08085 8.60608ZM13.9191 2.39392C14.1367 1.88629 13.9015 1.29841 13.3939 1.08086C12.8863 0.863299 12.2984 1.09845 12.0809 1.60608L13.9191 2.39392ZM13 8L3 8L3 10L13 10V8ZM3 13L3 10H1L1 13H3ZM13 13L3 13L3 15L13 15V13ZM15 13L15 10L13 10L13 13L15 13ZM13 15C14.1045 15 15 14.1046 15 13L13 13V15ZM13 10L15 10C15 8.89544 14.1046 8 13 8V10ZM3 8C1.89543 8 1 8.89543 1 10H3L3 8ZM1 13C1 14.1046 1.89543 15 3 15L3 13L3 13L1 13ZM6.91915 8.60608L3.91914 1.60608L2.08085 2.39392L5.08085 9.39392L6.91915 8.60608ZM10.9191 9.39392L13.9191 2.39392L12.0809 1.60608L9.08085 8.60608L10.9191 9.39392Z" fill="black"/>
</svg>
