<svg width="32" height="32" viewBox="0 0 32 32" fill="none" xmlns="http://www.w3.org/2000/svg">
<rect width="32" height="32" fill="white"/>
<path d="M8.50001 25C9.32844 25 10 24.3284 10 23.5C10 22.6716 9.32844 22 8.50001 22C7.67158 22 7.00001 22.6716 7.00001 23.5C7.00001 24.3284 7.67158 25 8.50001 25Z" fill="black"/>
<path fill-rule="evenodd" clip-rule="evenodd" d="M4.6061 2.08085C5.11373 1.8633 5.70161 2.09845 5.91917 2.60608L11.9192 16.6061C11.9743 16.7347 12.0003 16.8684 12.0003 17L20.9997 17C20.9997 16.8684 21.0257 16.7347 21.0809 16.6061L27.0809 2.60608C27.2984 2.09845 27.8863 1.8633 28.3939 2.08085C28.9015 2.29841 29.1367 2.88629 28.9191 3.39392L23.088 17H25C27.7614 17 30 19.2386 30 22L30 25C30 27.7614 27.7614 30 25 30L7 30C4.23858 30 2 27.7614 2 25V22C2 19.2386 4.23858 17 7 17H9.91206L4.08088 3.39392C3.86332 2.88629 4.09847 2.29841 4.6061 2.08085ZM25 28L7 28C5.34315 28 4 26.6569 4 25L4 22C4 20.3431 5.34315 19 7 19L25 19C26.6568 19 28 20.3432 28 22L28 25C28 26.6569 26.6568 28 25 28Z" fill="black"/>
</svg>
