<svg width="16" height="16" viewBox="0 0 16 16" fill="none" xmlns="http://www.w3.org/2000/svg">
<rect width="16" height="16" fill="white"/>
<path fill-rule="evenodd" clip-rule="evenodd" d="M14 3C14.5523 3 15 2.55228 15 2C15 1.44772 14.5523 1 14 1H3C2.44771 1 2 1.44772 2 2C2 2.55228 2.44771 3 3 3L3 3.6C3 5.41506 3.89549 7.02096 5.26877 8C3.89549 8.97904 3 10.5849 3 12.4V13C2.44771 13 2 13.4477 2 14C2 14.5523 2.44771 15 3 15H14C14.5523 15 15 14.5523 15 14C15 13.4477 14.5523 13 14 13V12.4C14 10.5849 13.1045 8.97904 11.7312 8C13.1045 7.02096 14 5.41506 14 3.6L14 3ZM8.6 9H8.4C6.52223 9 5 10.5222 5 12.4V13H12V12.4C12 10.5222 10.4778 9 8.6 9ZM8.6 7C10.4778 7 12 5.47777 12 3.6V3L5 3V3.6C5 5.47777 6.52223 7 8.4 7H8.6Z" fill="black"/>
</svg>
