<svg width="32" height="32" viewBox="0 0 32 32" fill="none" xmlns="http://www.w3.org/2000/svg">
<rect width="32" height="32" fill="white"/>
<path d="M6 28C5.44772 28 5 28.4477 5 29C5 29.5523 5.44772 30 6 30V28ZM26 30C26.5523 30 27 29.5523 27 29C27 28.4477 26.5523 28 26 28V30ZM6 2C5.44772 2 5 2.44772 5 3C5 3.55228 5.44772 4 6 4V2ZM26 4C26.5523 4 27 3.55228 27 3C27 2.44772 26.5523 2 26 2V4ZM7 29H6V30H7V29ZM25 29V30H26V29H25ZM25 3L26 3V2L25 2V3ZM7 3L7 2L6 2L6 3L7 3ZM6 30H26V28H6V30ZM7 26H25V24H7V26ZM7 8H25V6H7V8ZM6 4H26V2H6V4ZM25 28H7V30H25V28ZM26 25C26 19.4772 21.5228 15 16 15V17C20.4183 17 24 20.5817 24 25H26ZM8 25C8 20.5817 11.5817 17 16 17V15C10.4772 15 6 19.4772 6 25H8ZM7 4L25 4V2L7 2L7 4ZM6 7C6 12.5228 10.4772 17 16 17V15C11.5817 15 8 11.4183 8 7H6ZM24 7C24 11.4183 20.4183 15 16 15V17C21.5228 17 26 12.5228 26 7H24ZM24 25V29H26V25H24ZM8 29V25H6V29H8ZM8 7L8 3L6 3L6 7H8ZM24 3L24 7L26 7L26 3L24 3Z" fill="black"/>
</svg>
