<svg width="32" height="32" viewBox="0 0 32 32" fill="none" xmlns="http://www.w3.org/2000/svg">
<rect width="32" height="32" fill="white"/>
<path fill-rule="evenodd" clip-rule="evenodd" d="M5 3C5 2.44772 5.44772 2 6 2H26C26.5523 2 27 2.44772 27 3C27 3.55228 26.5523 4 26 4V7C26 10.9582 23.7003 14.3793 20.3641 16C23.7003 17.6207 26 21.0418 26 25V28C26.5523 28 27 28.4477 27 29C27 29.5523 26.5523 30 26 30H6C5.44772 30 5 29.5523 5 29C5 28.4477 5.44772 28 6 28V25C6 21.0418 8.2997 17.6207 11.6359 16C8.2997 14.3793 6 10.9582 6 7V4C5.44772 4 5 3.55228 5 3ZM8 4L8 6H24L24 4H8ZM23.9381 8H8.06189C8.55399 11.9463 11.9204 15 16 15C20.0796 15 23.446 11.9463 23.9381 8ZM16 17C11.9204 17 8.55399 20.0537 8.06189 24H23.9381C23.446 20.0537 20.0796 17 16 17ZM24 26H8V28H24V26Z" fill="black"/>
</svg>
