<svg width="32" height="32" viewBox="0 0 32 32" fill="none" xmlns="http://www.w3.org/2000/svg">
<rect width="32" height="32" fill="white"/>
<path d="M11 6.99997C11 6.44769 10.5523 5.99997 10 5.99997C9.44772 5.99997 9 6.44769 9 6.99997H11ZM9 9.99997C9 10.5523 9.44772 11 10 11C10.5523 11 11 10.5523 11 9.99997H9ZM7 29V28V29ZM25 29V30V29ZM3 7.00002H2H3ZM3 25H4H3ZM7 3.00002L7 4.00002L7 3.00002ZM21.3431 3L21.3431 4L21.3431 3ZM29 10.6568H30H29ZM29 25H28H29ZM24.1716 4.17157L23.4645 4.87867V4.87868L24.1716 4.17157ZM27.8284 7.8284L28.5355 7.12129V7.12129L27.8284 7.8284ZM20 19C20 21.2091 18.2091 23 16 23V25C19.3137 25 22 22.3137 22 19H20ZM16 23C13.7909 23 12 21.2091 12 19H10C10 22.3137 12.6863 25 16 25V23ZM12 19C12 16.7908 13.7909 15 16 15V13C12.6863 13 10 15.6863 10 19H12ZM16 15C18.2091 15 20 16.7908 20 19H22C22 15.6863 19.3137 13 16 13V15ZM9 6.99997V9.99997H11V6.99997H9ZM7 30L25 30V28L7 28V30ZM2 7.00002L2 25H4L4 7.00002H2ZM7 4.00002L21.3431 4L21.3431 2L6.99999 2.00002L7 4.00002ZM28 10.6568V25H30V10.6568H28ZM23.4645 4.87868L27.1213 8.5355L28.5355 7.12129L24.8787 3.46446L23.4645 4.87868ZM30 10.6568C30 9.33074 29.4732 8.05897 28.5355 7.12129L27.1213 8.5355C27.6839 9.09811 28 9.86118 28 10.6568H30ZM21.3431 4C22.1388 4 22.9019 4.31607 23.4645 4.87867L24.8787 3.46446C23.941 2.52678 22.6692 2 21.3431 2L21.3431 4ZM4 7.00002C4 5.34317 5.34314 4.00002 7 4.00002L6.99999 2.00002C4.23857 2.00002 2 4.2386 2 7.00002H4ZM25 30C27.7614 30 30 27.7614 30 25H28C28 26.6568 26.6569 28 25 28V30ZM7 28C5.34315 28 4 26.6568 4 25H2C2 27.7614 4.23858 30 7 30V28Z" fill="black"/>
</svg>
