<svg width="32" height="32" viewBox="0 0 32 32" fill="none" xmlns="http://www.w3.org/2000/svg">
<rect width="32" height="32" fill="white"/>
<path d="M10 11C9.44771 11 9 10.5523 9 10V7C9 6.44772 9.44771 6 10 6C10.5523 6 11 6.44772 11 7V10C11 10.5523 10.5523 11 10 11Z" fill="black"/>
<path fill-rule="evenodd" clip-rule="evenodd" d="M10 19C10 15.6863 12.6863 13 16 13C19.3137 13 22 15.6863 22 19C22 22.3137 19.3137 25 16 25C12.6863 25 10 22.3137 10 19ZM16 15C13.7909 15 12 16.7909 12 19C12 21.2091 13.7909 23 16 23C18.2091 23 20 21.2091 20 19C20 16.7909 18.2091 15 16 15Z" fill="black"/>
<path fill-rule="evenodd" clip-rule="evenodd" d="M2 25V7.00002C2 4.2386 4.23857 2.00002 6.99999 2.00002L21.3431 2C22.6692 2 23.941 2.52678 24.8787 3.46446L28.5355 7.12129C29.4732 8.05897 30 9.33074 30 10.6568V25C30 27.7614 27.7614 30 25 30L7 30C4.23858 30 2 27.7614 2 25ZM4 7.00002L4 25C4 26.6568 5.34315 28 7 28L25 28C26.6569 28 28 26.6568 28 25V10.6568C28 9.86118 27.6839 9.09811 27.1213 8.5355L23.4645 4.87868C22.9019 4.31607 22.1388 4 21.3431 4L7 4.00002C5.34314 4.00002 4 5.34317 4 7.00002Z" fill="black"/>
</svg>
