<svg width="32" height="32" viewBox="0 0 32 32" fill="none" xmlns="http://www.w3.org/2000/svg">
<rect width="32" height="32" fill="white"/>
<path d="M28.3304 3.94386C28.8516 3.76141 29.1263 3.19093 28.9439 2.66965C28.7614 2.14837 28.1909 1.87369 27.6696 2.05614L28.3304 3.94386ZM27 28H5V30H27V28ZM28 15V27H30V15H28ZM10.5 14H27V12H10.5V14ZM5 11H7.5V9H5V11ZM4 27V12H2V27H4ZM7.5 11C7.77614 11 8 11.2239 8 11.5H10C10 10.1193 8.88071 9 7.5 9V11ZM5 9C3.34315 9 2 10.3431 2 12H4C4 11.4477 4.44772 11 5 11V9ZM10.5 12C10.2239 12 10 11.7761 10 11.5H8C8 12.8807 9.11929 14 10.5 14V12ZM30 15C30 13.3431 28.6569 12 27 12V14C27.5523 14 28 14.4477 28 15H30ZM5 28C4.44772 28 4 27.5523 4 27H2C2 28.6569 3.34315 30 5 30V28ZM27 30C28.6569 30 30 28.6569 30 27H28C28 27.5523 27.5523 28 27 28V30ZM3 22H29V20H3V22ZM8.33035 10.9439L28.3304 3.94386L27.6696 2.05614L7.66965 9.05614L8.33035 10.9439Z" fill="black"/>
</svg>
