<svg width="16" height="16" viewBox="0 0 16 16" fill="none" xmlns="http://www.w3.org/2000/svg">
<rect width="16" height="16" fill="white"/>
<path d="M14.1961 2.98058C14.7377 2.87227 15.0889 2.34544 14.9806 1.80388C14.8723 1.26232 14.3454 0.911107 13.8039 1.01942L14.1961 2.98058ZM12 13H4V15H12V13ZM13 8V12H15V8H13ZM7 7H12V5H7V7ZM4 5H5V3H4V5ZM3 12V6H1V12H3ZM5 5H7C7 3.89543 6.10457 3 5 3V5ZM4 3C2.34315 3 1 4.34315 1 6H3C3 5.44772 3.44772 5 4 5V3ZM7 5H5C5 6.10457 5.89543 7 7 7V5ZM15 8C15 6.34315 13.6569 5 12 5V7C12.5523 7 13 7.44772 13 8H15ZM4 13C3.44772 13 3 12.5523 3 12H1C1 13.6569 2.34315 15 4 15V13ZM12 15C13.6569 15 15 13.6569 15 12H13C13 12.5523 12.5523 13 12 13V15ZM2 11H14V9H2V11ZM4.19612 4.98058L14.1961 2.98058L13.8039 1.01942L3.80388 3.01942L4.19612 4.98058Z" fill="black"/>
</svg>
