<svg width="16" height="16" viewBox="0 0 16 16" fill="none" xmlns="http://www.w3.org/2000/svg">
<rect width="16" height="16" fill="white"/>
<path fill-rule="evenodd" clip-rule="evenodd" d="M14.1961 2.98053C14.7377 2.87222 15.0889 2.34539 14.9806 1.80383C14.8723 1.26227 14.3455 0.911056 13.8039 1.01937L3.89102 3.00194C2.28465 3.0593 1 4.37963 1 6V12C1 13.6569 2.34315 15 4 15H12C13.6569 15 15 13.6569 15 12V8C15 6.34315 13.6569 5 12 5H7C7 4.80411 6.97184 4.61479 6.91934 4.43589L14.1961 2.98053ZM4 5C3.44772 5 3 5.44772 3 6V9H13V8C13 7.44772 12.5523 7 12 7H7C5.89543 7 5 6.10457 5 5H4ZM3 12V11H13V12C13 12.5523 12.5523 13 12 13H4C3.44772 13 3 12.5523 3 12Z" fill="black"/>
</svg>
