<svg width="16" height="16" viewBox="0 0 16 16" fill="none" xmlns="http://www.w3.org/2000/svg">
<rect width="16" height="16" fill="white"/>
<path fill-rule="evenodd" clip-rule="evenodd" d="M11.1416 3.44415L5.48494 9.1008C4.83378 8.67756 4.10968 8.34824 3.42652 7.98011C2.66445 7.56945 2.74873 6.45025 3.5637 6.15835L11.1416 3.44415ZM12.3572 5.05693L6.73664 10.6775L7.67264 12.5327C8.06292 13.3063 9.18524 13.2513 9.49801 12.4433L12.3572 5.05693ZM10.5438 1.53383C12.963 0.667368 15.2808 3.04477 14.3531 5.44112L11.3632 13.1653C10.4248 15.5893 7.05787 15.7543 5.88703 13.4336L4.7428 11.1657C4.65061 10.983 4.50456 10.8329 4.32438 10.7358L2.47777 9.74075C0.191557 8.50879 0.444396 5.15118 2.88931 4.27548L10.5438 1.53383Z" fill="black"/>
</svg>
