<svg width="32" height="32" viewBox="0 0 32 32" fill="none" xmlns="http://www.w3.org/2000/svg">
<rect width="32" height="32" fill="white"/>
<path d="M26.8983 2.51652L26.5515 1.57857H26.5515L26.8983 2.51652ZM4.08078 10.9528L3.73399 10.0148L3.73399 10.0148L4.08078 10.9528ZM3.80213 14.5765L4.28824 13.7026H4.28824L3.80213 14.5765ZM11.7589 19.0024L11.2728 19.8763L11.2728 19.8763L11.7589 19.0024ZM12.5835 19.872L11.6851 20.3111L12.5835 19.872ZM16.961 28.8281L16.0625 29.2672L16.961 28.8281ZM20.6305 28.6521L19.6941 28.301L20.6305 28.6521ZM29.4645 5.09465L30.4009 5.44578V5.44578L29.4645 5.09465ZM26.5515 1.57857L3.73399 10.0148L4.42756 11.8907L27.2451 3.45446L26.5515 1.57857ZM3.31602 15.4504L11.2728 19.8763L12.245 18.1285L4.28824 13.7026L3.31602 15.4504ZM11.6851 20.3111L16.0625 29.2672L17.8594 28.389L13.4819 19.4328L11.6851 20.3111ZM21.5668 29.0033L30.4009 5.44578L28.5282 4.74353L19.6941 28.301L21.5668 29.0033ZM16.0625 29.2672C17.2185 31.6323 20.6425 31.4681 21.5668 29.0033L19.6941 28.301C19.386 29.1226 18.2447 29.1773 17.8594 28.389L16.0625 29.2672ZM11.2728 19.8763C11.4514 19.9757 11.5953 20.1274 11.6851 20.3111L13.4819 19.4328C13.2126 18.8818 12.7809 18.4266 12.245 18.1285L11.2728 19.8763ZM3.73399 10.0148C1.32945 10.9039 1.07567 14.2042 3.31603 15.4504L4.28824 13.7026C3.54145 13.2872 3.62605 12.1871 4.42756 11.8907L3.73399 10.0148ZM27.2451 3.45446C28.0483 3.15749 28.8289 3.94169 28.5282 4.74353L30.4009 5.44578C31.3029 3.04024 28.9612 0.687649 26.5515 1.57857L27.2451 3.45446ZM12.6965 20.2176L29.6965 3.71758L28.3035 2.28242L11.3035 18.7824L12.6965 20.2176Z" fill="black"/>
</svg>
