<svg width="16" height="16" viewBox="0 0 16 16" fill="none" xmlns="http://www.w3.org/2000/svg">
<rect width="16" height="16" fill="white"/>
<path d="M11 12C11.5523 12 12 11.5523 12 11C12 10.4477 11.5523 10 11 10C10.4477 10 10 10.4477 10 11C10 11.5523 10.4477 12 11 12Z" fill="black"/>
<path d="M12 5C12 5.55228 11.5523 6 11 6C10.4477 6 10 5.55228 10 5C10 4.44772 10.4477 4 11 4C11.5523 4 12 4.44772 12 5Z" fill="black"/>
<path fill-rule="evenodd" clip-rule="evenodd" d="M15 8L15 13C15 14.1046 14.1046 15 13 15L3 15C1.89543 15 1 14.1046 1 13V3.00001C1 1.89544 1.89543 1.00001 3 1.00001L13 1C14.1046 1 15 1.89543 15 3L15 8ZM13 9V13L3 13L3 9H13ZM3 7L3 3.00001L13 3V7H3Z" fill="black"/>
</svg>
