<svg width="32" height="32" viewBox="0 0 32 32" fill="none" xmlns="http://www.w3.org/2000/svg">
<rect width="32" height="32" fill="white"/>
<path d="M24.5 17C25.3284 17 26 16.3284 26 15.5C26 14.6716 25.3284 14 24.5 14C23.6716 14 23 14.6716 23 15.5C23 16.3284 23.6716 17 24.5 17Z" fill="black"/>
<path d="M24.5 26C25.3284 26 26 25.3284 26 24.5C26 23.6716 25.3284 23 24.5 23C23.6716 23 23 23.6716 23 24.5C23 25.3284 23.6716 26 24.5 26Z" fill="black"/>
<path d="M26 6.5C26 7.32843 25.3284 8 24.5 8C23.6716 8 23 7.32843 23 6.5C23 5.67157 23.6716 5 24.5 5C25.3284 5 26 5.67157 26 6.5Z" fill="black"/>
<path fill-rule="evenodd" clip-rule="evenodd" d="M30 20L30 27C30 28.6568 28.6569 30 27 30L5 30C3.34315 30 2 28.6568 2 27L2 4.00003C2 2.34318 3.34315 1.00003 5 1.00003L27 1C28.6569 0.999998 30 2.34314 30 4L30 11V20ZM4 12H28V19H4V12ZM4 21H28V27C28 27.5523 27.5523 28 27 28L5 28C4.44772 28 4 27.5523 4 27V21ZM4 10L4 4.00003C4 3.44775 4.44772 3.00003 5 3.00003L27 3C27.5523 3 28 3.44771 28 4V10H4Z" fill="black"/>
</svg>
