<svg width="16" height="16" viewBox="0 0 16 16" fill="none" xmlns="http://www.w3.org/2000/svg">
<rect width="16" height="16" fill="white"/>
<path fill-rule="evenodd" clip-rule="evenodd" d="M4 2L4 7.17071C2.83481 7.58254 2 8.69378 2 10C2 11.3062 2.83481 12.4175 4 12.8293L4 14C4 14.5523 4.44772 15 5 15C5.55228 15 6 14.5523 6 14L6 12.8293C7.16519 12.4175 8 11.3062 8 10C8 8.69378 7.16519 7.58254 6 7.17071L6 2C6 1.44772 5.55228 1 5 1C4.44771 1 4 1.44772 4 2ZM5 9C4.44772 9 4 9.44772 4 10C4 10.5523 4.44772 11 5 11C5.55228 11 6 10.5523 6 10C6 9.44772 5.55228 9 5 9Z" fill="black"/>
<path fill-rule="evenodd" clip-rule="evenodd" d="M13 8.82929C14.1652 8.41746 15 7.30622 15 6C15 4.69378 14.1652 3.58254 13 3.17071V2C13 1.44772 12.5523 1 12 1C11.4477 1 11 1.44772 11 2V3.17071C9.83481 3.58254 9 4.69378 9 6C9 7.30622 9.83481 8.41746 11 8.82929V14C11 14.5523 11.4477 15 12 15C12.5523 15 13 14.5523 13 14V8.82929ZM11 6C11 5.44772 11.4477 5 12 5C12.5523 5 13 5.44772 13 6C13 6.55228 12.5523 7 12 7C11.4477 7 11 6.55228 11 6Z" fill="black"/>
</svg>
