<svg width="32" height="32" viewBox="0 0 32 32" fill="none" xmlns="http://www.w3.org/2000/svg">
<rect width="32" height="32" fill="white"/>
<path fill-rule="evenodd" clip-rule="evenodd" d="M8.5 2C4.91015 2 2 4.91015 2 8.5C2 12.0899 4.91015 15 8.5 15H23.5C27.0899 15 30 12.0899 30 8.5C30 4.91015 27.0899 2 23.5 2H8.5ZM23.5 13H13.1904C14.3112 11.8321 15 10.2465 15 8.5C15 6.75351 14.3112 5.16789 13.1904 4H23.5C25.9853 4 28 6.01472 28 8.5C28 10.9853 25.9853 13 23.5 13ZM4 8.5C4 6.01472 6.01472 4 8.5 4C10.9853 4 13 6.01472 13 8.5C13 10.9853 10.9853 13 8.5 13C6.01472 13 4 10.9853 4 8.5Z" fill="black"/>
<path fill-rule="evenodd" clip-rule="evenodd" d="M8.5 17C4.91015 17 2 19.9101 2 23.5C2 27.0899 4.91015 30 8.5 30H23.5C27.0899 30 30 27.0899 30 23.5C30 19.9101 27.0899 17 23.5 17H8.5ZM18.8096 19H8.5C6.01472 19 4 21.0147 4 23.5C4 25.9853 6.01472 28 8.5 28H18.8096C17.6888 26.8321 17 25.2465 17 23.5C17 21.7535 17.6888 20.1679 18.8096 19ZM23.5 28C25.9853 28 28 25.9853 28 23.5C28 21.0147 25.9853 19 23.5 19C21.0147 19 19 21.0147 19 23.5C19 25.9853 21.0147 28 23.5 28Z" fill="black"/>
</svg>
