<svg width="32" height="32" viewBox="0 0 32 32" fill="none" xmlns="http://www.w3.org/2000/svg">
<rect width="32" height="32" fill="white"/>
<path d="M8.5 14H23.5C26.5376 14 29 11.5376 29 8.5C29 5.46243 26.5376 3 23.5 3H8.5M8.5 14C5.46243 14 3 11.5376 3 8.5C3 5.46243 5.46243 3 8.5 3M8.5 14C11.5376 14 14 11.5376 14 8.5C14 5.46243 11.5376 3 8.5 3M23.5 29H8.5C5.46243 29 3 26.5376 3 23.5C3 20.4624 5.46243 18 8.5 18H23.5M23.5 29C26.5376 29 29 26.5376 29 23.5C29 20.4624 26.5376 18 23.5 18M23.5 29C20.4624 29 18 26.5376 18 23.5C18 20.4624 20.4624 18 23.5 18" stroke="black" stroke-width="2"/>
</svg>
