<svg width="16" height="16" viewBox="0 0 16 16" fill="none" xmlns="http://www.w3.org/2000/svg">
<rect width="16" height="16" fill="white"/>
<path fill-rule="evenodd" clip-rule="evenodd" d="M4.5 1C2.567 1 1 2.567 1 4.5C1 6.433 2.567 8 4.5 8C2.567 8 1 9.567 1 11.5C1 13.433 2.567 15 4.5 15H11.5C13.433 15 15 13.433 15 11.5C15 9.567 13.433 8 11.5 8C13.433 8 15 6.433 15 4.5C15 2.567 13.433 1 11.5 1H4.5ZM8.33682 10H4.5C3.67157 10 3 10.6716 3 11.5C3 12.3284 3.67157 13 4.5 13H8.33682C8.12085 12.5454 8 12.0368 8 11.5C8 10.9632 8.12085 10.4546 8.33682 10ZM11.5 13C12.3284 13 13 12.3284 13 11.5C13 10.6716 12.3284 10 11.5 10C10.6716 10 10 10.6716 10 11.5C10 12.3284 10.6716 13 11.5 13ZM11.5 6H7.66318C7.87915 5.54537 8 5.0368 8 4.5C8 3.9632 7.87915 3.45463 7.66318 3H11.5C12.3284 3 13 3.67157 13 4.5C13 5.32843 12.3284 6 11.5 6ZM3 4.5C3 3.67157 3.67157 3 4.5 3C5.32843 3 6 3.67157 6 4.5C6 5.32843 5.32843 6 4.5 6C3.67157 6 3 5.32843 3 4.5Z" fill="black"/>
</svg>
