<svg width="32" height="32" viewBox="0 0 32 32" fill="none" xmlns="http://www.w3.org/2000/svg">
<rect width="32" height="32" fill="white"/>
<path d="M9 25C11.7614 25 14 22.7614 14 20C14 17.2386 11.7614 15 9 15M9 25C6.23858 25 4 22.7614 4 20C4 17.2386 6.23858 15 9 15M9 25V29M9 15L9 3M23 17C25.7614 17 28 14.7614 28 12C28 9.23858 25.7614 7 23 7M23 17C20.2386 17 18 14.7614 18 12C18 9.23858 20.2386 7 23 7M23 17V29M23 7V3" stroke="black" stroke-width="2" stroke-linecap="round" stroke-linejoin="round"/>
</svg>
