<svg width="16" height="16" viewBox="0 0 16 16" fill="none" xmlns="http://www.w3.org/2000/svg">
<rect width="16" height="16" fill="white"/>
<path d="M4.5 7H11.5C12.8807 7 14 5.88071 14 4.5C14 3.11929 12.8807 2 11.5 2H4.5M4.5 7C3.11929 7 2 5.88071 2 4.5C2 3.11929 3.11929 2 4.5 2M4.5 7C5.88071 7 7 5.88071 7 4.5C7 3.11929 5.88071 2 4.5 2M11.5 14H4.5C3.11929 14 2 12.8807 2 11.5C2 10.1193 3.11929 9 4.5 9H11.5M11.5 14C12.8807 14 14 12.8807 14 11.5C14 10.1193 12.8807 9 11.5 9M11.5 14C10.1193 14 9 12.8807 9 11.5C9 10.1193 10.1193 9 11.5 9" stroke="black" stroke-width="2"/>
</svg>
