<svg width="32" height="32" viewBox="0 0 32 32" fill="none" xmlns="http://www.w3.org/2000/svg">
<rect width="32" height="32" fill="white"/>
<path d="M16 3C17.6569 3 19 4.34314 19 6C19 6.27245 19.1776 6.5115 19.4335 6.60503C19.6993 6.70219 19.9598 6.8103 20.2145 6.92884C20.4619 7.04394 20.7569 7.0005 20.9498 6.80762C22.1213 5.63605 24.0208 5.63605 25.1924 6.80762C26.364 7.97919 26.364 9.87872 25.1924 11.0503C24.9995 11.2432 24.9561 11.5382 25.0712 11.7855C25.1897 12.0402 25.2978 12.3007 25.395 12.5666C25.4885 12.8224 25.7276 13 26 13C27.6569 13 29 14.3431 29 16C29 17.6569 27.6569 19 26 19C25.7276 19 25.4885 19.1776 25.395 19.4334C25.2978 19.6993 25.1897 19.9598 25.0711 20.2146C24.956 20.4619 24.9995 20.7569 25.1924 20.9498C26.364 22.1213 26.364 24.0208 25.1924 25.1924C24.0208 26.364 22.1213 26.364 20.9498 25.1924C20.7569 24.9995 20.4619 24.9561 20.2145 25.0712C19.9598 25.1897 19.6993 25.2978 19.4335 25.395C19.1776 25.4885 19 25.7275 19 26C19 27.6569 17.6569 29 16 29C14.3431 29 13 27.6569 13 26C13 25.7275 12.8224 25.4885 12.5665 25.395C12.3007 25.2978 12.0402 25.1897 11.7855 25.0712C11.5382 24.9561 11.2432 24.9995 11.0503 25.1924C9.87869 26.364 7.97919 26.364 6.80762 25.1924C5.63605 24.0208 5.63605 22.1213 6.80762 20.9498C7.00052 20.7569 7.04397 20.4619 6.92887 20.2146C6.81031 19.9598 6.70217 19.6993 6.605 19.4334C6.51146 19.1776 6.27243 19 6 19C4.34314 19 3 17.6569 3 16C3 14.3431 4.34314 13 6 13C6.27243 13 6.51146 12.8224 6.605 12.5666C6.70217 12.3007 6.8103 12.0402 6.92885 11.7855C7.04394 11.5382 7.0005 11.2432 6.80762 11.0503C5.63605 9.87866 5.63605 7.97919 6.80762 6.80762C7.97919 5.63605 9.87869 5.63605 11.0503 6.80762C11.2431 7.0005 11.5381 7.04394 11.7854 6.92885C12.0402 6.81031 12.3007 6.70219 12.5665 6.60503C12.8224 6.5115 13 6.27245 13 6C13 4.34314 14.3431 3 16 3Z" stroke="black" stroke-width="2"/>
<path d="M21 16C21 18.7614 18.7614 21 16 21C13.2386 21 11 18.7614 11 16C11 13.2386 13.2386 11 16 11C18.7614 11 21 13.2386 21 16Z" stroke="black" stroke-width="2"/>
</svg>
