<svg width="32" height="32" viewBox="0 0 32 32" fill="none" xmlns="http://www.w3.org/2000/svg">
<rect width="32" height="32" fill="white"/>
<path d="M20.2202 8.89439C20.8072 10.6971 22.5014 12 24.5 12C26.9853 12 29 9.98528 29 7.5C29 5.01472 26.9853 3 24.5 3C22.0147 3 20 5.01472 20 7.5C20 7.98671 20.0773 8.45537 20.2202 8.89439ZM20.2202 8.89439L11.4256 13.2985M11.4256 13.2985C10.6547 11.9268 9.18558 11 7.5 11C5.01472 11 3 13.0147 3 15.5C3 17.9853 5.01472 20 7.5 20C9.09982 20 10.5046 19.1652 11.3026 17.9074M11.4256 13.2985C12.2268 14.724 12.1789 16.5262 11.3026 17.9074M11.3026 17.9074L20.5916 22.2681M20.5916 22.2681C20.2152 22.9259 20 23.6878 20 24.5C20 26.9853 22.0147 29 24.5 29C26.9853 29 29 26.9853 29 24.5C29 22.0147 26.9853 20 24.5 20C22.8269 20 21.3671 20.9131 20.5916 22.2681Z" stroke="black" stroke-width="2"/>
</svg>
