<svg width="32" height="32" viewBox="0 0 32 32" fill="none" xmlns="http://www.w3.org/2000/svg">
<rect width="32" height="32" fill="white"/>
<path fill-rule="evenodd" clip-rule="evenodd" d="M24.5 4C22.567 4 21 5.567 21 7.5C21 7.88029 21.0603 8.24453 21.1711 8.5848C21.6279 9.98796 22.9471 11 24.5 11C26.433 11 28 9.433 28 7.5C28 5.567 26.433 4 24.5 4ZM19 7.5C19 4.46243 21.4624 2 24.5 2C27.5376 2 30 4.46243 30 7.5C30 10.5376 27.5376 13 24.5 13C22.4649 13 20.6896 11.8951 19.7384 10.254L12.7196 13.7689C13.1101 14.9584 13.084 16.2613 12.6475 17.434L20.2535 21.0046C21.2613 19.7817 22.7889 19 24.5 19C27.5376 19 30 21.4624 30 24.5C30 27.5376 27.5376 30 24.5 30C21.4624 30 19 27.5376 19 24.5C19 23.892 19.099 23.306 19.2819 22.7579L11.609 19.1559C10.6026 20.2862 9.1349 21 7.5 21C4.46243 21 2 18.5376 2 15.5C2 12.4624 4.46243 10 7.5 10C9.21595 10 10.7474 10.7861 11.7551 12.0151L19.066 8.35399C19.0225 8.07531 19 7.79005 19 7.5ZM7.5 12C5.567 12 4 13.567 4 15.5C4 17.433 5.567 19 7.5 19C8.74322 19 9.83592 18.3525 10.4582 17.3717C11.1373 16.3012 11.1747 14.8931 10.5539 13.7884C9.95281 12.7189 8.8097 12 7.5 12ZM24.5 21C23.2 21 22.0642 21.7083 21.4595 22.7648C21.1673 23.2754 21 23.8666 21 24.5C21 26.433 22.567 28 24.5 28C26.433 28 28 26.433 28 24.5C28 22.567 26.433 21 24.5 21Z" fill="black"/>
</svg>
