<svg width="16" height="16" viewBox="0 0 16 16" fill="none" xmlns="http://www.w3.org/2000/svg">
<rect width="16" height="16" fill="white"/>
<path fill-rule="evenodd" clip-rule="evenodd" d="M12 3C11.4052 3 10.9231 3.48216 10.9231 4.07692C10.9231 4.19514 10.9418 4.30702 10.9756 4.4109C11.1164 4.84336 11.5233 5.15385 12 5.15385C12.5948 5.15385 13.0769 4.67169 13.0769 4.07692C13.0769 3.48216 12.5948 3 12 3ZM8.92309 4.07692C8.92309 2.37759 10.3007 1 12 1C13.6993 1 15.0769 2.37759 15.0769 4.07692C15.0769 5.77626 13.6993 7.15385 12 7.15385C11.0679 7.15385 10.2337 6.73967 9.66987 6.08616L7.09991 7.58822C7.16714 7.95274 7.16849 8.32734 7.10447 8.69187L10.0338 9.84713C10.585 9.32292 11.3314 8.99998 12.1539 8.99998C13.8532 8.99998 15.2308 10.3776 15.2308 12.0769C15.2308 13.7762 13.8532 15.1538 12.1539 15.1538C10.4545 15.1538 9.07693 13.7762 9.07693 12.0769C9.07693 11.9261 9.08785 11.7776 9.10894 11.6323L6.12073 10.4538C5.57788 10.9364 4.86196 11.2308 4.07692 11.2308C2.37759 11.2308 1 9.85323 1 8.15389C1 6.45455 2.37759 5.07697 4.07692 5.07697C4.85877 5.07697 5.57185 5.36878 6.11392 5.84795L8.9257 4.20455C8.92396 4.1622 8.92309 4.11965 8.92309 4.07692ZM4.07692 7.07697C3.48216 7.07697 3 7.55912 3 8.15389C3 8.74866 3.48216 9.23081 4.07692 9.23081C4.45871 9.23081 4.79496 9.03288 4.98756 8.72928C5.19481 8.4026 5.20642 7.96481 5.017 7.62775C4.83104 7.29687 4.479 7.07697 4.07692 7.07697ZM12.1539 11C11.7547 11 11.405 11.2166 11.2179 11.5435C11.1284 11.6999 11.0769 11.8809 11.0769 12.0769C11.0769 12.6717 11.5591 13.1538 12.1539 13.1538C12.7486 13.1538 13.2308 12.6717 13.2308 12.0769C13.2308 11.4821 12.7486 11 12.1539 11Z" fill="black"/>
</svg>
