<svg width="16" height="16" viewBox="0 0 16 16" fill="none" xmlns="http://www.w3.org/2000/svg">
<rect width="16" height="16" fill="white"/>
<path d="M7 14C7 14.5523 7.44772 15 8 15C8.55228 15 9 14.5523 9 14H7ZM5.87258 13.2214L5.24182 13.9974L5.87258 13.2214ZM10.1274 13.2214L10.7582 13.9974L10.1274 13.2214ZM7 2V14H9V2H7ZM4 3H12V1H4V3ZM12 3V7.88679H14V3H12ZM4 7.88679V3H2V7.88679H4ZM6.50334 12.4454C4.97391 11.2022 4 9.48666 4 7.88679H2C2 10.2615 3.39807 12.4987 5.24182 13.9974L6.50334 12.4454ZM12 7.88679C12 9.48666 11.0261 11.2022 9.49666 12.4454L10.7582 13.9974C12.6019 12.4987 14 10.2615 14 7.88679H12ZM5.24182 13.9974C6.84653 15.3018 9.15347 15.3018 10.7582 13.9974L9.49666 12.4454C8.62688 13.1524 7.37312 13.1524 6.50334 12.4454L5.24182 13.9974ZM12 3H14C14 1.89543 13.1046 1 12 1V3ZM4 1C2.89543 1 2 1.89543 2 3H4V3V1Z" fill="black"/>
</svg>
