<svg width="16" height="16" viewBox="0 0 16 16" fill="none" xmlns="http://www.w3.org/2000/svg">
<rect width="16" height="16" fill="white"/>
<path fill-rule="evenodd" clip-rule="evenodd" d="M4 1C2.89543 1 2 1.89543 2 3V7.88679C2 10.2615 3.39807 12.4987 5.24182 13.9974C5.97586 14.594 6.85683 14.9178 7.75031 14.9686C7.83012 14.9891 7.91379 15 8 15C8.08621 15 8.16988 14.9891 8.24969 14.9686C9.14317 14.9178 10.0241 14.594 10.7582 13.9974C12.6019 12.4987 14 10.2615 14 7.88679V3C14 1.89543 13.1046 1 12 1H4ZM9 12.7558C9.17483 12.6747 9.34183 12.5713 9.49666 12.4454C11.0261 11.2022 12 9.48666 12 7.88679V3H9L9 12.7558ZM7 3L4 3V7.88679C4 9.48666 4.97391 11.2022 6.50334 12.4454C6.65817 12.5713 6.82517 12.6747 7 12.7558L7 3Z" fill="black"/>
</svg>
