<svg width="32" height="32" viewBox="0 0 32 32" fill="none" xmlns="http://www.w3.org/2000/svg">
<rect width="32" height="32" fill="white"/>
<path fill-rule="evenodd" clip-rule="evenodd" d="M9 2C6.23858 2 4 4.23858 4 7V16C4 21.8086 8.15296 26.5032 13.2671 29.2973C14.0852 29.7442 14.9857 29.9765 15.8895 29.994C15.9258 29.998 15.9626 30 16 30C16.0374 30 16.0742 29.998 16.1105 29.994C17.0143 29.9765 17.9148 29.7442 18.7329 29.2973C23.847 26.5032 28 21.8086 28 16V7C28 4.23858 25.7614 2 23 2H9ZM17 27.8574C17.2662 27.7827 17.5259 27.6776 17.774 27.5421C22.5562 24.9293 26 20.7814 26 16V7C26 5.34315 24.6569 4 23 4H17L17 27.8574ZM15 4L9 4C7.34315 4 6 5.34315 6 7V16C6 20.7814 9.44376 24.9293 14.226 27.5421C14.4741 27.6776 14.7338 27.7827 15 27.8574L15 4Z" fill="black"/>
</svg>
