<svg width="32" height="32" viewBox="0 0 32 32" fill="none" xmlns="http://www.w3.org/2000/svg">
<rect width="32" height="32" fill="white"/>
<path d="M13.7466 28.4197L13.2671 29.2973L13.7466 28.4197ZM18.2534 28.4197L18.7329 29.2973L18.2534 28.4197ZM12.6525 14.6589C12.234 14.2985 11.6026 14.3456 11.2422 14.7641C10.8819 15.1826 10.929 15.814 11.3475 16.1744L12.6525 14.6589ZM15 18L14.3475 18.7578C14.5506 18.9327 14.8154 19.0187 15.0825 18.9966C15.3496 18.9745 15.5966 18.8461 15.7682 18.6402L15 18ZM20.7682 12.6402C21.1218 12.2159 21.0645 11.5853 20.6402 11.2318C20.2159 10.8782 19.5853 10.9355 19.2318 11.3598L20.7682 12.6402ZM9 4H23V2H9V4ZM26 7V16H28V7H26ZM6 16V7H4V16H6ZM14.226 27.5421C9.44376 24.9293 6 20.7814 6 16H4C4 21.8086 8.15296 26.5032 13.2671 29.2973L14.226 27.5421ZM26 16C26 20.7814 22.5562 24.9293 17.774 27.5421L18.7329 29.2973C23.847 26.5032 28 21.8086 28 16H26ZM13.2671 29.2973C14.97 30.2276 17.03 30.2276 18.7329 29.2973L17.774 27.5421C16.6686 28.146 15.3314 28.146 14.226 27.5421L13.2671 29.2973ZM23 4C24.6569 4 26 5.34315 26 7H28C28 4.23858 25.7614 2 23 2V4ZM9 2C6.23858 2 4 4.23858 4 7H6C6 5.34315 7.34315 4 9 4V2ZM11.3475 16.1744L14.3475 18.7578L15.6525 17.2422L12.6525 14.6589L11.3475 16.1744ZM15.7682 18.6402L20.7682 12.6402L19.2318 11.3598L14.2318 17.3598L15.7682 18.6402Z" fill="black"/>
</svg>
