<svg width="16" height="16" viewBox="0 0 16 16" fill="none" xmlns="http://www.w3.org/2000/svg">
<rect width="16" height="16" fill="white"/>
<path d="M10.8357 10.5492C11.139 10.0876 11.0107 9.46758 10.5491 9.16428C10.0876 8.86098 9.46756 8.98927 9.16426 9.45082C8.97738 9.73521 8.55642 9.99999 7.98989 9.99999C7.43368 9.99999 7.01637 9.74433 6.82496 9.46491C6.51284 9.00928 5.89045 8.89294 5.43482 9.20507C4.9792 9.51719 4.86286 10.1396 5.17498 10.5952C5.77798 11.4754 6.84548 12 7.98989 12C9.15319 12 10.2388 11.4575 10.8357 10.5492Z" fill="black"/>
<path fill-rule="evenodd" clip-rule="evenodd" d="M8 1C4.13401 1 1 4.13401 1 8C1 11.866 4.13401 15 8 15C11.866 15 15 11.866 15 8C15 4.13401 11.866 1 8 1ZM3 8C3 5.23858 5.23858 3 8 3C10.7614 3 13 5.23858 13 8C13 10.7614 10.7614 13 8 13C5.23858 13 3 10.7614 3 8Z" fill="black"/>
</svg>
