<svg width="16" height="16" viewBox="0 0 16 16" fill="none" xmlns="http://www.w3.org/2000/svg">
<rect width="16" height="16" fill="white"/>
<path d="M11.5302 6.81572L10.8231 6.10861L11.5302 6.81572ZM5.09029 13.2557L5.79739 13.9628L5.09029 13.2557ZM10.5612 4.43251L11.2684 3.7254L11.2684 3.7254L10.5612 4.43251ZM11.5302 5.40151L10.8231 6.10861L10.8231 6.10861L11.5302 5.40151ZM2.70708 12.2867L1.99997 12.9938H1.99997L2.70708 12.2867ZM3.67607 13.2557L4.38318 12.5486H4.38318L3.67607 13.2557ZM9.14704 4.43251L8.43993 3.7254L8.43993 3.7254L9.14704 4.43251ZM2.70708 10.8725L3.41418 11.5796L2.70708 10.8725ZM5.35532 8.46506C4.96479 8.07453 4.33163 8.07453 3.9411 8.46506C3.55058 8.85558 3.55058 9.48875 3.9411 9.87927L5.35532 8.46506ZM6.10777 12.0459C6.49829 12.4365 7.13146 12.4365 7.52198 12.0459C7.91251 11.6554 7.91251 11.0222 7.52198 10.6317L6.10777 12.0459ZM12.7071 1.29289C12.3166 0.902369 11.6834 0.902369 11.2929 1.29289C10.9024 1.68342 10.9024 2.31658 11.2929 2.70711L12.7071 1.29289ZM13.4596 4.87377C13.8501 5.2643 14.4833 5.2643 14.8738 4.87377C15.2643 4.48325 15.2643 3.85008 14.8738 3.45956L13.4596 4.87377ZM10.8231 6.10861L4.38318 12.5486L5.79739 13.9628L12.2374 7.52283L10.8231 6.10861ZM9.85414 5.13962L10.8231 6.10861L12.2374 4.6944L11.2684 3.7254L9.85414 5.13962ZM1.99997 12.9938L2.96897 13.9628L4.38318 12.5486L3.41418 11.5796L1.99997 12.9938ZM8.43993 3.7254L1.99997 10.1654L3.41418 11.5796L9.85414 5.13962L8.43993 3.7254ZM11.2684 3.7254C10.4873 2.94435 9.22098 2.94436 8.43993 3.7254L9.85414 5.13962L9.85414 5.13962L11.2684 3.7254ZM3.41418 11.5796H3.41418L1.99997 10.1654C1.21892 10.9464 1.21892 12.2127 1.99997 12.9938L3.41418 11.5796ZM4.38318 12.5486H4.38318L2.96897 13.9628C3.75002 14.7438 5.01635 14.7438 5.79739 13.9628L4.38318 12.5486ZM12.2374 7.52283C13.0184 6.74178 13.0184 5.47545 12.2374 4.6944L10.8231 6.10861L10.8231 6.10861L12.2374 7.52283ZM3.9411 9.87927L6.10777 12.0459L7.52198 10.6317L5.35532 8.46506L3.9411 9.87927ZM11.2929 2.70711L13.4596 4.87377L14.8738 3.45956L12.7071 1.29289L11.2929 2.70711Z" fill="black"/>
</svg>
