<svg width="16" height="16" viewBox="0 0 16 16" fill="none" xmlns="http://www.w3.org/2000/svg">
<rect width="16" height="16" fill="white"/>
<path d="M12.7071 1.29289C12.3166 0.902369 11.6834 0.902369 11.2929 1.29289C10.9024 1.68342 10.9024 2.31658 11.2929 2.70711L13.4596 4.87377C13.8501 5.2643 14.4833 5.2643 14.8738 4.87377C15.2643 4.48325 15.2643 3.85008 14.8738 3.45956L12.7071 1.29289Z" fill="black"/>
<path fill-rule="evenodd" clip-rule="evenodd" d="M11.2684 3.7254L12.2374 4.6944C13.0184 5.47545 13.0184 6.74178 12.2374 7.52283L5.79739 13.9628C5.01635 14.7438 3.75002 14.7438 2.96897 13.9628L1.99997 12.9938C1.21892 12.2127 1.21892 10.9464 1.99997 10.1654L8.43993 3.7254C9.22098 2.94435 10.4873 2.94435 11.2684 3.7254ZM10.8231 6.10861L9.85414 5.13962L5.94201 9.05175L6.91101 10.0207L10.8231 6.10861ZM3.41418 11.5796L4.5278 10.466L5.49679 11.435L4.38318 12.5486L3.41418 11.5796Z" fill="black"/>
</svg>
