<svg width="16" height="16" viewBox="0 0 16 16" fill="none" xmlns="http://www.w3.org/2000/svg">
<rect width="16" height="16" fill="white"/>
<path d="M4.17722 10C2.97245 9.9858 2 8.95934 2 7.69536C2 6.42255 2.98611 5.39073 4.20253 5.39073C4.20878 5.39073 4.21503 5.39075 4.22127 5.39081C4.50165 3.4708 6.08668 2 8 2C9.91332 2 11.4983 3.4708 11.7787 5.39081C11.785 5.39075 11.7912 5.39073 11.7975 5.39073C13.0139 5.39073 14 6.42255 14 7.69536C14 8.95934 13.0275 9.9858 11.8228 10H4.17722Z" stroke="black" stroke-width="2"/>
<path d="M5 13C5 13.5523 4.55228 14 4 14C3.44772 14 3 13.5523 3 13C3 12.4477 3.44772 12 4 12C4.55228 12 5 12.4477 5 13Z" fill="black"/>
<path d="M9 13C9 13.5523 8.55228 14 8 14C7.44772 14 7 13.5523 7 13C7 12.4477 7.44772 12 8 12C8.55228 12 9 12.4477 9 13Z" fill="black"/>
<path d="M13 13C13 13.5523 12.5523 14 12 14C11.4477 14 11 13.5523 11 13C11 12.4477 11.4477 12 12 12C12.5523 12 13 12.4477 13 13Z" fill="black"/>
</svg>
