<svg width="16" height="16" viewBox="0 0 16 16" fill="none" xmlns="http://www.w3.org/2000/svg">
<rect width="16" height="16" fill="white"/>
<path fill-rule="evenodd" clip-rule="evenodd" d="M8 1C5.81533 1 4.01129 2.49139 3.40034 4.49417C1.9965 4.8652 1 6.18748 1 7.69536C1 9.46514 2.37207 10.9789 4.16543 11L11.8228 11.0001L11.8346 10.9999C13.6279 10.9788 15 9.46514 15 7.69536C15 6.18748 14.0035 4.8652 12.5997 4.49417C11.9887 2.49139 10.1847 1 8 1ZM5.21077 5.53531C5.42547 4.06513 6.62389 3 8 3C9.37611 3 10.5745 4.06513 10.7892 5.53531L10.9153 6.39846L11.7875 6.39077L11.7975 6.39073C12.4194 6.39073 13 6.93164 13 7.69536C13 8.4515 12.4302 8.98992 11.8159 9H4.18406C3.56978 8.98992 3 8.4515 3 7.69536C3 6.93164 3.58061 6.39073 4.20253 6.39073L4.21246 6.39077L5.08472 6.39846L5.21077 5.53531Z" fill="black"/>
<path d="M4 14C4.55228 14 5 13.5523 5 13C5 12.4477 4.55228 12 4 12C3.44772 12 3 12.4477 3 13C3 13.5523 3.44772 14 4 14Z" fill="black"/>
<path d="M9 13C9 13.5523 8.55229 14 8 14C7.44772 14 7 13.5523 7 13C7 12.4477 7.44772 12 8 12C8.55229 12 9 12.4477 9 13Z" fill="black"/>
<path d="M12 14C12.5523 14 13 13.5523 13 13C13 12.4477 12.5523 12 12 12C11.4477 12 11 12.4477 11 13C11 13.5523 11.4477 14 12 14Z" fill="black"/>
</svg>
