<svg width="32" height="32" viewBox="0 0 32 32" fill="none" xmlns="http://www.w3.org/2000/svg">
<rect width="32" height="32" fill="white"/>
<path d="M15.9999 3C16.5522 3 16.9999 3.44772 16.9999 4V6.58582L19.2928 4.29292C19.6833 3.9024 20.3165 3.9024 20.707 4.29292C21.0976 4.68345 21.0976 5.31661 20.707 5.70714L16.9999 9.41424V14.2679L21.2033 11.8411L22.5602 6.77708C22.7031 6.24362 23.2515 5.92703 23.7849 6.06998C24.3184 6.21292 24.635 6.76126 24.4921 7.29472L23.6528 10.4269L25.8923 9.13391C26.3706 8.85777 26.9821 9.02165 27.2583 9.49994C27.5344 9.97823 27.3706 10.5898 26.8923 10.866L24.6529 12.1589L27.785 12.9981C28.3184 13.1411 28.635 13.6894 28.4921 14.2229C28.3491 14.7563 27.8008 15.0729 27.2673 14.93L22.2034 13.5731L18 15.9999L22.2035 18.4268L27.2674 17.07C27.8009 16.927 28.3492 17.2436 28.4921 17.7771C28.6351 18.3105 28.3185 18.8589 27.785 19.0018L24.653 19.8411L26.8923 21.1339C27.3706 21.4101 27.5344 22.0216 27.2583 22.4999C26.9821 22.9782 26.3706 23.1421 25.8923 22.866L23.6528 21.573L24.4921 24.7053C24.635 25.2388 24.3184 25.7871 23.785 25.9301C23.2515 26.073 22.7032 25.7564 22.5602 25.223L21.2033 20.1588L16.9999 17.732V22.5857L20.7071 26.2929C21.0977 26.6834 21.0977 27.3166 20.7071 27.7071C20.3166 28.0976 19.6834 28.0976 19.2929 27.7071L16.9999 25.4141V28C16.9999 28.5523 16.5522 29 15.9999 29C15.4476 29 14.9999 28.5523 14.9999 28V25.4142L12.707 27.7071C12.3165 28.0976 11.6833 28.0976 11.2928 27.7071C10.9023 27.3166 10.9023 26.6834 11.2928 26.2929L14.9999 22.5858V17.732L10.7966 20.1588L9.43966 25.2229C9.29671 25.7564 8.74838 26.073 8.21491 25.93C7.68144 25.7871 7.36486 25.2387 7.5078 24.7053L8.34709 21.573L6.10765 22.866C5.62936 23.1421 5.01777 22.9782 4.74163 22.4999C4.46549 22.0216 4.62936 21.4101 5.10765 21.1339L7.3469 19.8411L4.21488 19.0019C3.68141 18.8589 3.36483 18.3106 3.50777 17.7771C3.65071 17.2437 4.19905 16.9271 4.73252 17.07L9.79639 18.4269L14 15.9999L9.79655 13.5731L4.73246 14.93C4.19899 15.073 3.65065 14.7564 3.50771 14.2229C3.36477 13.6895 3.68135 13.1411 4.21482 12.9982L7.34706 12.1589L5.10765 10.866C4.62936 10.5898 4.46549 9.97823 4.74163 9.49994C5.01777 9.02165 5.62936 8.85777 6.10765 9.13392L8.34703 10.4268L7.50777 7.29466C7.36483 6.76119 7.68141 6.21286 8.21488 6.06992C8.74834 5.92697 9.29668 6.24356 9.43962 6.77702L10.7965 11.841L14.9999 14.2679V9.41431L11.2927 5.70711C10.9022 5.31658 10.9022 4.68342 11.2927 4.29289C11.6833 3.90237 12.3164 3.90237 12.7069 4.29289L14.9999 6.58588V4C14.9999 3.44772 15.4476 3 15.9999 3Z" fill="black"/>
</svg>
