<svg width="16" height="16" viewBox="0 0 16 16" fill="none" xmlns="http://www.w3.org/2000/svg">
<rect width="16" height="16" fill="white"/>
<path d="M7.99994 3.60285L7.99992 12M7.99994 3.60285L6.49992 2M7.99994 3.60285L9.49992 2M7.99992 12L6.49992 13.9999M7.99992 12L9.49992 14M4.19188 5.8014L11.464 10M4.19188 5.8014L2.05377 6.29904M4.19188 5.8014L3.55377 3.70096M11.464 10L12.4461 12.299M11.464 10L13.9461 9.70096M4.17164 10.2103L11.4437 6.01175M4.17164 10.2103L3.53354 12.3108M4.17164 10.2103L2.03345 9.7127M11.4437 6.01175L13.9258 6.31077M11.4437 6.01175L12.4258 3.71268" stroke="black" stroke-width="2" stroke-linecap="round"/>
</svg>
