<svg width="32" height="32" viewBox="0 0 32 32" fill="none" xmlns="http://www.w3.org/2000/svg">
<rect width="32" height="32" fill="white"/>
<path d="M7.08017 21L7.06881 22H7.08017V21ZM7.18295 10.6293L7.17446 11.6293L8.0418 11.6367L8.17168 10.7791L7.18295 10.6293ZM24.817 10.6293L23.8283 10.7791L23.9582 11.6367L24.8255 11.6293L24.817 10.6293ZM24.9198 21L24.9198 22.0001L24.9312 21.9999L24.9198 21ZM17.7071 25.7071C18.0976 25.3166 18.0976 24.6834 17.7071 24.2929C17.3166 23.9024 16.6834 23.9024 16.2929 24.2929L17.7071 25.7071ZM13.2929 27.2929C12.9024 27.6834 12.9024 28.3166 13.2929 28.7071C13.6834 29.0976 14.3166 29.0976 14.7071 28.7071L13.2929 27.2929ZM14.7072 24.2929C14.3166 23.9024 13.6835 23.9024 13.2929 24.2929C12.9024 24.6834 12.9024 25.3166 13.293 25.7071L14.7072 24.2929ZM16.293 28.7071C16.6835 29.0976 17.3167 29.0976 17.7072 28.7071C18.0977 28.3166 18.0977 27.6834 17.7072 27.2929L16.293 28.7071ZM8.70711 25.7071C9.09763 25.3166 9.09763 24.6834 8.70711 24.2929C8.31658 23.9024 7.68342 23.9024 7.29289 24.2929L8.70711 25.7071ZM4.29289 27.2929C3.90236 27.6834 3.90236 28.3166 4.29289 28.7071C4.68341 29.0976 5.31657 29.0976 5.7071 28.7071L4.29289 27.2929ZM5.70716 24.2929C5.31664 23.9024 4.68347 23.9024 4.29295 24.2929C3.90243 24.6834 3.90243 25.3166 4.29296 25.7071L5.70716 24.2929ZM7.29298 28.7071C7.68351 29.0976 8.31668 29.0976 8.7072 28.7071C9.09772 28.3166 9.09771 27.6834 8.70719 27.2929L7.29298 28.7071ZM26.7071 25.7071C27.0976 25.3166 27.0976 24.6834 26.7071 24.2929C26.3166 23.9024 25.6834 23.9024 25.2929 24.2929L26.7071 25.7071ZM22.2929 27.2929C21.9024 27.6834 21.9024 28.3166 22.2929 28.7071C22.6834 29.0976 23.3166 29.0976 23.7071 28.7071L22.2929 27.2929ZM23.7072 24.2929C23.3166 23.9024 22.6835 23.9024 22.2929 24.2929C21.9024 24.6834 21.9024 25.3166 22.293 25.7071L23.7072 24.2929ZM25.293 28.7071C25.6835 29.0976 26.3167 29.0976 26.7072 28.7071C27.0977 28.3166 27.0977 27.6834 26.7072 27.2929L25.293 28.7071ZM7.09153 20.0001C4.83598 19.9744 3 18.1184 3 15.8146H1C1 19.1986 3.70214 21.9617 7.06881 21.9999L7.09153 20.0001ZM3 15.8146C3 13.4946 4.86162 11.6291 7.13924 11.6291V9.62914C3.74022 9.62914 1 12.4069 1 15.8146H3ZM7.13924 11.6291C7.15116 11.6291 7.16289 11.6292 7.17446 11.6293L7.19145 9.62936C7.1739 9.62921 7.1565 9.62914 7.13924 9.62914V11.6291ZM8.17168 10.7791C8.754 6.93391 12.0441 4 16 4V2C11.0271 2 6.92038 5.68469 6.19423 10.4796L8.17168 10.7791ZM16 4C19.9559 4 23.246 6.93391 23.8283 10.7791L25.8058 10.4796C25.0796 5.68469 20.9729 2 16 2V4ZM24.8255 11.6293C24.8371 11.6292 24.8488 11.6291 24.8608 11.6291V9.62914C24.8435 9.62914 24.8261 9.62921 24.8085 9.62936L24.8255 11.6293ZM24.8608 11.6291C27.1384 11.6291 29 13.4946 29 15.8146H31C31 12.4069 28.2598 9.62914 24.8608 9.62914V11.6291ZM29 15.8146C29 18.1184 27.164 19.9744 24.9085 20.0001L24.9312 21.9999C28.2979 21.9617 31 19.1986 31 15.8146H29ZM24.9198 20H7.08017V22H24.9198V20ZM16.2929 24.2929L13.2929 27.2929L14.7071 28.7071L17.7071 25.7071L16.2929 24.2929ZM13.293 25.7071L16.293 28.7071L17.7072 27.2929L14.7072 24.2929L13.293 25.7071ZM7.29289 24.2929L4.29289 27.2929L5.7071 28.7071L8.70711 25.7071L7.29289 24.2929ZM4.29296 25.7071L7.29298 28.7071L8.70719 27.2929L5.70716 24.2929L4.29296 25.7071ZM25.2929 24.2929L22.2929 27.2929L23.7071 28.7071L26.7071 25.7071L25.2929 24.2929ZM22.293 25.7071L25.293 28.7071L26.7072 27.2929L23.7072 24.2929L22.293 25.7071Z" fill="black"/>
</svg>
