<svg width="32" height="32" viewBox="0 0 32 32" fill="none" xmlns="http://www.w3.org/2000/svg">
<rect width="32" height="32" fill="white"/>
<path fill-rule="evenodd" clip-rule="evenodd" d="M9 19C9 15.134 12.134 12 16 12C19.866 12 23 15.134 23 19C23 22.866 19.866 26 16 26C12.134 26 9 22.866 9 19ZM16 14C13.2386 14 11 16.2386 11 19C11 21.7614 13.2386 24 16 24C18.7614 24 21 21.7614 21 19C21 16.2386 18.7614 14 16 14Z" fill="black"/>
<path d="M13 7C12.4477 7 12 7.44772 12 8C12 8.55229 12.4477 9 13 9H19C19.5523 9 20 8.55229 20 8C20 7.44772 19.5523 7 19 7H13Z" fill="black"/>
<path fill-rule="evenodd" clip-rule="evenodd" d="M28 7.00004V25C28 27.7614 25.7614 30 23 30L9 30C6.23858 30 4 27.7614 4 25V7C4 4.23857 6.23858 1.99999 9.00001 2L23 2.00004C25.7614 2.00004 28 4.23862 28 7.00004ZM26 25V7.00004C26 5.34318 24.6569 4.00004 23 4.00004L9.00001 4C7.34315 4 6 5.34314 6 7L6 25C6 26.6568 7.34315 28 9 28L23 28C24.6569 28 26 26.6568 26 25Z" fill="black"/>
</svg>
