<svg width="16" height="16" viewBox="0 0 16 16" fill="none" xmlns="http://www.w3.org/2000/svg">
<rect width="16" height="16" fill="white"/>
<path fill-rule="evenodd" clip-rule="evenodd" d="M6.23283 2.21312C6.87766 0.595622 9.12232 0.595632 9.76715 2.21312L10.7409 4.65581L13.2467 4.86539C14.9968 5.01177 15.5625 7.18549 14.3478 8.27104L12.409 10.0038L13.0042 12.6072C13.3637 14.1795 11.6803 15.6859 10.1357 14.7015L7.99999 13.3406L5.8643 14.7015C4.31962 15.6859 2.63626 14.1794 2.99573 12.6072L3.59098 10.0038L1.65215 8.27104C0.437481 7.18548 1.00322 5.01177 2.75324 4.86539L5.25903 4.65581L6.23283 2.21312ZM7.99999 3.18114L7.1007 5.43691C6.83612 6.10059 6.22383 6.58209 5.48945 6.64352L3.0598 6.84674L4.94258 8.52938C5.47998 9.00966 5.70144 9.74636 5.54353 10.437L4.98221 12.8921L6.98935 11.613C7.6077 11.219 8.39227 11.219 9.01062 11.613L11.0178 12.8921L10.4564 10.437C10.2985 9.74636 10.52 9.00966 11.0574 8.52938L12.9402 6.84674L10.5105 6.64352C9.77614 6.58209 9.16385 6.10059 8.89927 5.43691L7.99999 3.18114Z" fill="black"/>
</svg>
