<svg width="32" height="32" viewBox="0 0 32 32" fill="none" xmlns="http://www.w3.org/2000/svg">
<rect width="32" height="32" fill="white"/>
<path d="M13.1534 4.43982C13.8366 2.79724 16.1635 2.79724 16.8466 4.43983L19.0274 9.68307C19.3154 10.3755 19.9667 10.8487 20.7142 10.9086L26.3748 11.3624C28.1481 11.5046 28.8671 13.7176 27.516 14.8749L23.2033 18.5692C22.6338 19.0571 22.385 19.8227 22.559 20.5522L23.8766 26.0759C24.2894 27.8064 22.4069 29.1741 20.8887 28.2468L16.0425 25.2867C15.4025 24.8958 14.5975 24.8958 13.9575 25.2867L9.11129 28.2468C7.59309 29.1741 5.71059 27.8064 6.12337 26.0759L7.44098 20.5522C7.61499 19.8227 7.36625 19.0571 6.79667 18.5692L2.48395 14.8749C1.13287 13.7176 1.85193 11.5046 3.62524 11.3624L9.28576 10.9086C10.0333 10.8487 10.6846 10.3755 10.9726 9.68307L13.1534 4.43982Z" stroke="black" stroke-width="2"/>
</svg>
