<svg width="32" height="32" viewBox="0 0 32 32" fill="none" xmlns="http://www.w3.org/2000/svg">
<rect width="32" height="32" fill="white"/>
<path fill-rule="evenodd" clip-rule="evenodd" d="M12.23 4.05579C13.2548 1.59191 16.7452 1.59192 17.77 4.0558L19.9507 9.29904C20.0948 9.64527 20.4204 9.88184 20.7942 9.91181L26.4547 10.3656C29.1146 10.5789 30.1932 13.8984 28.1666 15.6344L23.8539 19.3287C23.5691 19.5726 23.4447 19.9554 23.5317 20.3202L24.8493 25.8439C25.4685 28.4396 22.6447 30.4911 20.3674 29.1002L15.5213 26.1401C15.2012 25.9447 14.7988 25.9447 14.4787 26.1401L9.63255 29.1002C7.35524 30.4911 4.5315 28.4395 5.15066 25.8439L6.46827 20.3202C6.55527 19.9554 6.4309 19.5726 6.14611 19.3287L1.83339 15.6344C-0.193223 13.8984 0.885367 10.5789 3.54532 10.3656L9.20585 9.91181C9.57964 9.88184 9.90524 9.64527 10.0493 9.29904L12.23 4.05579ZM15.9233 4.82386C15.5817 4.00256 14.4183 4.00256 14.0767 4.82385L11.8959 10.0671C11.4639 11.1058 10.487 11.8155 9.36567 11.9054L3.70515 12.3592C2.81849 12.4303 2.45897 13.5368 3.1345 14.1155L7.44723 17.8098C8.30159 18.5416 8.67471 19.69 8.41368 20.7842L7.09608 26.3079C6.88969 27.1732 7.83094 27.857 8.59004 27.3934L13.4362 24.4333C14.3963 23.8469 15.6037 23.8469 16.5638 24.4333L21.41 27.3934C22.1691 27.857 23.1103 27.1732 22.9039 26.3079L21.5863 20.7842C21.3253 19.69 21.6984 18.5416 22.5528 17.8098L26.8655 14.1155C27.541 13.5368 27.1815 12.4303 26.2949 12.3592L20.6343 11.9054C19.513 11.8155 18.5361 11.1058 18.1041 10.0671L15.9233 4.82386Z" fill="black"/>
</svg>
