<svg width="16" height="16" viewBox="0 0 16 16" fill="none" xmlns="http://www.w3.org/2000/svg">
<rect width="16" height="16" fill="white"/>
<path fill-rule="evenodd" clip-rule="evenodd" d="M3.11111 13L10.109 13L13 10.3314L13 3.0316C12.9823 3.01831 12.9456 3 12.8889 3L3.11111 3C3.05439 3 3.01766 3.01831 3 3.0316V12.9684C3.01766 12.9817 3.05439 13 3.11111 13ZM3.11111 15C2.04689 15 1 14.2011 1 13L1 3C1 1.79893 2.04688 1 3.11111 1L12.8889 1C13.9531 1 15 1.79894 15 3.00001L15 10.7692C15 11.0483 14.8833 11.3147 14.6783 11.504L11.1783 14.7348C10.9935 14.9053 10.7514 15 10.5 15H3.11111Z" fill="black"/>
</svg>
