<svg width="32" height="32" viewBox="0 0 32 32" fill="none" xmlns="http://www.w3.org/2000/svg">
<rect width="32" height="32" fill="white"/>
<path fill-rule="evenodd" clip-rule="evenodd" d="M22.0002 27.5857V22H27.586L22.0002 27.5857ZM28.0002 20H21.0002C20.4479 20 20.0002 20.4477 20.0002 21V28L7.00018 28C5.34333 28 4.00018 26.6569 4.00018 25L4.00018 7C4.00018 5.34314 5.34333 4 7.00018 4L25.0002 4C26.6571 4 28.0002 5.34315 28.0002 7.00001L28.0002 20ZM7.00018 30C4.23876 30 2.00018 27.7614 2.00018 25L2.00018 7C2.00018 4.23858 4.23875 2 7.00018 2L25.0002 2C27.7616 2 30.0002 4.23859 30.0002 7.00001L30.0002 22C30.0002 22.2652 29.8948 22.5196 29.7073 22.7071L22.7073 29.7071C22.5198 29.8946 22.2654 30 22.0002 30L7.00018 30Z" fill="black"/>
</svg>
