<svg width="16" height="16" viewBox="0 0 16 16" fill="none" xmlns="http://www.w3.org/2000/svg">
<rect width="16" height="16" fill="white"/>
<path d="M14 10.7692L14.6783 11.504C14.8833 11.3147 15 11.0483 15 10.7692L14 10.7692ZM10.5 14V15C10.7514 15 10.9935 14.9053 11.1783 14.7348L10.5 14ZM12.8889 2V3V2ZM3.11111 2L3.11111 1L3.11111 2ZM3.11111 14L3.11111 15H3.11111V14ZM2 13H3H2ZM2 3L1 3V3H2ZM14 3L13 3V3L14 3ZM13.3217 10.0344L9.8217 13.2652L11.1783 14.7348L14.6783 11.504L13.3217 10.0344ZM12.8889 1L3.11111 1L3.11111 3L12.8889 3V1ZM3 13L3 3H1L1 13H3ZM12.8889 3C12.9525 3 12.991 3.02303 13.0056 3.03619C13.0124 3.04233 13.0111 3.04351 13.0076 3.03609C13.0036 3.02752 13 3.01425 13 3L15 3.00001C15 1.79894 13.9531 1 12.8889 1V3ZM3.11111 1C2.04688 1 1 1.79893 1 3L3 3C3 3.01425 2.99638 3.02752 2.99235 3.03609C2.98887 3.04351 2.98758 3.04233 2.9944 3.03619C3.00902 3.02303 3.04749 3 3.11111 3L3.11111 1ZM3.11111 13C3.04749 13 3.00902 12.977 2.9944 12.9638C2.98758 12.9577 2.98887 12.9565 2.99235 12.9639C2.99638 12.9725 3 12.9858 3 13H1C1 14.2011 2.04689 15 3.11111 15L3.11111 13ZM10.5 13H3.11111V15H10.5V13ZM15 10.7692L15 3.00001L13 3L13 10.7692L15 10.7692Z" fill="black"/>
</svg>
