<svg width="16" height="16" viewBox="0 0 16 16" fill="none" xmlns="http://www.w3.org/2000/svg">
<rect width="16" height="16" fill="white"/>
<path d="M9 7.75C9 7.19772 8.55228 6.75 8 6.75C7.44772 6.75 7 7.19772 7 7.75V9C7 9.55228 7.44772 10 8 10C8.55228 10 9 9.55228 9 9V7.75Z" fill="black"/>
<path fill-rule="evenodd" clip-rule="evenodd" d="M11 2C11 2.55228 10.5523 3 10 3L8.01887 3C11.3239 3.01017 14 5.69255 14 8.99997C14 12.3137 11.3137 15 8 15C4.68629 15 2 12.3137 2 8.99997C2 5.69255 4.6761 3.01017 7.98114 3L6 3C5.44772 3 5 2.55228 5 2C5 1.44772 5.44772 1 6 1H10C10.5523 1 11 1.44772 11 2ZM8 4.99997C5.79086 4.99997 4 6.79083 4 8.99997C4 11.2091 5.79086 13 8 13C10.2091 13 12 11.2091 12 8.99997C12 6.79083 10.2091 4.99997 8 4.99997Z" fill="black"/>
</svg>
