<svg width="32" height="32" viewBox="0 0 32 32" fill="none" xmlns="http://www.w3.org/2000/svg">
<rect width="32" height="32" fill="white"/>
<path fill-rule="evenodd" clip-rule="evenodd" d="M11.5 3C11.5 2.44772 11.9477 2 12.5 2L20 2C20.5523 2 21 2.44772 21 3C21 3.55229 20.5523 4 20 4L12.5 4C11.9477 4 11.5 3.55228 11.5 3ZM16 8C10.4772 8 6 12.4772 6 18C6 23.5228 10.4772 28 16 28C21.5228 28 26 23.5228 26 18C26 12.4772 21.5228 8 16 8ZM4 18C4 11.3726 9.37258 6 16 6C22.6274 6 28 11.3726 28 18C28 24.6274 22.6274 30 16 30C9.37258 30 4 24.6274 4 18ZM16 11C16.5523 11 17 11.4477 17 12V19C17 19.5523 16.5523 20 16 20C15.4477 20 15 19.5523 15 19V12C15 11.4477 15.4477 11 16 11Z" fill="black"/>
</svg>
