<svg width="16" height="16" viewBox="0 0 16 16" fill="none" xmlns="http://www.w3.org/2000/svg">
<rect width="16" height="16" fill="white"/>
<path d="M4 9C4 8.44772 3.55228 8 3 8C2.44772 8 2 8.44772 2 9H4ZM8 3C7.44772 3 7 3.44772 7 4C7 4.55228 7.44772 5 8 5V3ZM6 1C5.44772 1 5 1.44772 5 2C5 2.55228 5.44772 3 6 3V1ZM10 3C10.5523 3 11 2.55228 11 2C11 1.44772 10.5523 1 10 1V3ZM7 9C7 9.55228 7.44772 10 8 10C8.55228 10 9 9.55228 9 9H7ZM9 7.75C9 7.19772 8.55228 6.75 8 6.75C7.44772 6.75 7 7.19772 7 7.75H9ZM12 9C12 11.2091 10.2091 13 8 13V15C11.3137 15 14 12.3137 14 9H12ZM8 13C5.79086 13 4 11.2091 4 9H2C2 12.3137 4.68629 15 8 15V13ZM8 5C10.2091 5 12 6.79086 12 9H14C14 5.68629 11.3137 3 8 3V5ZM6 3L10 3V1L6 1V3ZM9 9V7.75H7V9H9Z" fill="black"/>
</svg>
