<svg width="16" height="16" viewBox="0 0 16 16" fill="none" xmlns="http://www.w3.org/2000/svg">
<rect width="16" height="16" fill="white"/>
<path d="M8.50002 2C7.04822 2 6.00002 3.07586 6.00002 4.25C6.00002 5.0432 6.27893 5.42789 6.67558 5.71163C7.16504 6.06177 7.85811 6.27365 8.77758 6.53929L8.85511 6.56167C9.32842 6.69821 9.86846 6.85401 10.3941 7.07159L14 7.07159C14.5892 7.07159 15.0668 7.48725 15.0668 8C15.0668 8.51275 14.5892 8.92841 14 8.92841H12.5972C12.8547 9.434 13 10.0361 13 10.75C13 13.1657 10.9142 15 8.50002 15C6.08582 15 4.00002 13.1657 4.00002 10.75C4.00002 10.1977 4.44773 9.75 5.00002 9.75C5.5523 9.75 6.00002 10.1977 6.00002 10.75C6.00002 11.9241 7.04822 13 8.50002 13C9.95181 13 11 11.9241 11 10.75C11 9.9568 10.7211 9.57211 10.3245 9.28837C10.1324 9.15096 9.90892 9.03484 9.65273 8.92841H2.00002C1.41085 8.92841 0.933228 8.51275 0.933228 8C0.933228 7.48725 1.41085 7.07159 2.00002 7.07159H5.17823C4.45397 6.42421 4.00002 5.51153 4.00002 4.25C4.00002 1.83429 6.08582 0 8.50002 0C10.9142 0 13 1.83429 13 4.25C13 4.80228 12.5523 5.25 12 5.25C11.4477 5.25 11 4.80228 11 4.25C11 3.07586 9.95181 2 8.50002 2Z" fill="black"/>
</svg>
