<svg width="32" height="32" viewBox="0 0 32 32" fill="none" xmlns="http://www.w3.org/2000/svg">
<rect width="32" height="32" fill="white"/>
<path d="M19.7428 25H20.7428V24H19.7428V25ZM11.7428 25V24H10.7428V25H11.7428ZM27.0649 22.8978L26.0711 23.0083V23.0083L27.0649 22.8978ZM4.94745 22.8008L5.93699 22.9451H5.93699L4.94745 22.8008ZM19 5.59135H18V6.24909L18.6039 6.50959L19 5.59135ZM23.8571 12H24.8571C24.8571 11.9342 24.8506 11.8686 24.8377 11.8041L23.8571 12ZM8.14281 12L7.16219 11.8041C7.15584 11.8359 7.15104 11.8679 7.1478 11.9002L8.14281 12ZM13 5.59134L13.396 6.50958L14 6.24909V5.59134H13ZM26.787 22.2231L25.9654 22.7931H25.9654L26.787 22.2231ZM23.8571 18H22.8571V18.3129L23.0355 18.57L23.8571 18ZM5.13484 22.2895L4.26269 21.8003H4.26269L5.13484 22.2895ZM7.54109 18L8.41324 18.4892L8.51528 18.3073L8.5361 18.0998L7.54109 18ZM17 20C17 19.4477 16.5522 19 16 19C15.4477 19 15 19.4477 15 20H17ZM15 21C15 21.5523 15.4477 22 16 22C16.5522 22 17 21.5523 17 21H15ZM17 10C17 9.44772 16.5522 9 16 9C15.4477 9 15 9.44772 15 10H17ZM15 16C15 16.5523 15.4477 17 16 17C16.5522 17 17 16.5523 17 16H15ZM18.7428 25C18.7428 26.6569 17.3997 28 15.7428 28V30C18.5042 30 20.7428 27.7614 20.7428 25H18.7428ZM15.7428 28C14.086 28 12.7428 26.6569 12.7428 25H10.7428C10.7428 27.7614 12.9814 30 15.7428 30V28ZM11.7428 26H19.7428V24H11.7428V26ZM6.54109 26H25.4588V24H6.54109V26ZM25.4588 26C26.358 26 27.1004 25.6034 27.5647 24.9424C28.0064 24.3135 28.1413 23.5291 28.0588 22.7873L26.0711 23.0083C26.1127 23.3832 26.0285 23.6499 25.928 23.7929C25.8501 23.9038 25.7275 24 25.4588 24V26ZM3.95792 22.6565C3.8467 23.4192 3.96203 24.2317 4.39759 24.8873C4.85667 25.5782 5.61356 26 6.54109 26V24C6.26714 24 6.14292 23.9001 6.06341 23.7805C5.96038 23.6254 5.87963 23.3384 5.93699 22.9451L3.95792 22.6565ZM14 5C14 3.89543 14.8954 3 16 3V1C13.7908 1 12 2.79086 12 5H14ZM16 3C17.1045 3 18 3.89543 18 5H20C20 2.79086 18.2091 1 16 1V3ZM18.6039 6.50959C20.2701 7.22822 21.3422 8.61054 22.0095 9.89089C22.3398 10.5248 22.5595 11.1124 22.6959 11.5399C22.7638 11.7529 22.8104 11.9241 22.8394 12.0388C22.8538 12.096 22.8639 12.139 22.8699 12.1659C22.8729 12.1793 22.8749 12.1887 22.876 12.1938C22.8765 12.1963 22.8769 12.1978 22.8769 12.1982C22.877 12.1983 22.8769 12.1982 22.8769 12.1979C22.8768 12.1977 22.8768 12.1974 22.8767 12.1971C22.8767 12.197 22.8766 12.1967 22.8766 12.1966C22.8765 12.1963 22.8765 12.1959 23.8571 12C24.8377 11.8041 24.8376 11.8037 24.8376 11.8033C24.8375 11.8032 24.8375 11.8028 24.8374 11.8024C24.8373 11.8018 24.8371 11.8012 24.837 11.8004C24.8367 11.7989 24.8363 11.7971 24.8359 11.795C24.835 11.7908 24.8339 11.7855 24.8325 11.7791C24.8298 11.7662 24.8261 11.7488 24.8212 11.7273C24.8115 11.6842 24.7974 11.6241 24.7785 11.549C24.7406 11.3989 24.6829 11.1881 24.6013 10.9321C24.4385 10.4218 24.1777 9.72378 23.783 8.96653C23.0002 7.46458 21.6437 5.64258 19.396 4.67312L18.6039 6.50959ZM20 5.59135V5H18V5.59135H20ZM8.14281 12C9.12343 12.1959 9.12336 12.1963 9.1233 12.1966C9.12328 12.1967 9.12322 12.197 9.12319 12.1971C9.12313 12.1974 9.12307 12.1977 9.12304 12.1979C9.12296 12.1982 9.12294 12.1983 9.12298 12.1982C9.12306 12.1978 9.12336 12.1963 9.1239 12.1938C9.12498 12.1887 9.127 12.1793 9.13002 12.1659C9.13605 12.139 9.14607 12.096 9.16054 12.0388C9.18949 11.9241 9.2361 11.7529 9.30405 11.5399C9.44041 11.1124 9.66006 10.5248 9.99044 9.89088C10.6577 8.61053 11.7298 7.22821 13.396 6.50958L12.6039 4.67311C10.3562 5.64257 8.99966 7.46457 8.21687 8.96653C7.82221 9.72377 7.56144 10.4218 7.39864 10.9321C7.317 11.1881 7.25934 11.3989 7.22143 11.549C7.20246 11.6241 7.18839 11.6842 7.1787 11.7273C7.17385 11.7488 7.1701 11.7662 7.16737 11.7791C7.16601 11.7855 7.1649 11.7908 7.16404 11.795C7.16361 11.7971 7.16324 11.7989 7.16293 11.8004C7.16278 11.8012 7.16264 11.8018 7.16252 11.8025C7.16246 11.8028 7.16238 11.8032 7.16235 11.8033C7.16227 11.8037 7.16219 11.8041 8.14281 12ZM14 5.59134V5H12V5.59134H14ZM27.6087 21.653L24.6787 17.43L23.0355 18.57L25.9654 22.7931L27.6087 21.653ZM24.8571 18V12H22.8571V18H24.8571ZM6.00698 22.7788L8.41324 18.4892L6.66894 17.5108L4.26269 21.8003L6.00698 22.7788ZM8.5361 18.0998L9.13782 12.0998L7.1478 11.9002L6.54608 17.9002L8.5361 18.0998ZM28.0588 22.7873C28.0066 22.3177 27.8032 21.9334 27.6087 21.653L25.9654 22.7931C26.0524 22.9185 26.0687 22.987 26.0711 23.0083L28.0588 22.7873ZM5.93699 22.9451C5.93955 22.9275 5.95216 22.8765 6.00699 22.7788L4.26269 21.8003C4.13849 22.0217 4.00816 22.312 3.95792 22.6565L5.93699 22.9451ZM15 20V21H17V20H15ZM15 10V16H17V10H15Z" fill="black"/>
</svg>
