<svg width="16" height="16" viewBox="0 0 16 16" fill="none" xmlns="http://www.w3.org/2000/svg">
<g clip-path="url(#clip0)">
<rect width="16" height="16" fill="white"/>
<path d="M15 16C15 16.5523 14.5523 17 14 17C13.4478 17 13 16.5523 13 16C13 15.4477 13.4478 15 14 15C14.5523 15 15 15.4477 15 16Z" fill="black"/>
<path d="M3 16C3 16.5523 2.55228 17 2 17C1.44772 17 1 16.5523 1 16C1 15.4477 1.44772 15 2 15C2.55228 15 3 15.4477 3 16Z" fill="black"/>
<path d="M13.5 11.5C13.5 12.0523 13.0523 12.5 12.5 12.5C11.9477 12.5 11.5 12.0523 11.5 11.5C11.5 10.9477 11.9477 10.5 12.5 10.5C13.0523 10.5 13.5 10.9477 13.5 11.5Z" fill="black"/>
<path d="M4.5 11.5C4.5 12.0523 4.05228 12.5 3.5 12.5C2.94772 12.5 2.5 12.0523 2.5 11.5C2.5 10.9477 2.94772 10.5 3.5 10.5C4.05228 10.5 4.5 10.9477 4.5 11.5Z" fill="black"/>
<path d="M9 10C9 10.5523 8.55228 11 8 11C7.44772 11 7 10.5523 7 10C7 9.44772 7.44772 9 8 9C8.55228 9 9 9.44772 9 10Z" fill="black"/>
<path d="M7 6C7 6.55228 7.44772 7 8 7C8.55228 7 9 6.55228 9 6H7ZM8 1L8.70711 0.292893C8.31658 -0.0976311 7.68342 -0.0976311 7.29289 0.292893L8 1ZM4.29289 3.29289C3.90237 3.68342 3.90237 4.31658 4.29289 4.70711C4.68342 5.09763 5.31658 5.09763 5.70711 4.70711L4.29289 3.29289ZM10.2929 4.70711C10.6834 5.09763 11.3166 5.09763 11.7071 4.70711C12.0976 4.31658 12.0976 3.68342 11.7071 3.29289L10.2929 4.70711ZM6 16C6 14.8954 6.89543 14 8 14V12C5.79086 12 4 13.7909 4 16H6ZM8 14C9.10457 14 10 14.8954 10 16H12C12 13.7909 10.2091 12 8 12V14ZM10 16V18H12V16H10ZM4 16V18H6V16H4ZM9 6V1H7V6H9ZM7.29289 0.292893L4.29289 3.29289L5.70711 4.70711L8.70711 1.70711L7.29289 0.292893ZM7.29289 1.70711L10.2929 4.70711L11.7071 3.29289L8.70711 0.292893L7.29289 1.70711Z" fill="black"/>
</g>
<defs>
<clipPath id="clip0">
<rect width="16" height="16" fill="white"/>
</clipPath>
</defs>
</svg>
