<svg width="16" height="16" viewBox="0 0 16 16" fill="none" xmlns="http://www.w3.org/2000/svg">
<rect width="16" height="16" fill="white"/>
<path d="M9 2C9 2.55228 8.55229 3 8 3C7.44772 3 7 2.55228 7 2C7 1.44772 7.44772 1 8 1C8.55229 1 9 1.44772 9 2Z" fill="black"/>
<path d="M13.5 3.5C13.5 4.05228 13.0523 4.5 12.5 4.5C11.9477 4.5 11.5 4.05228 11.5 3.5C11.5 2.94772 11.9477 2.5 12.5 2.5C13.0523 2.5 13.5 2.94772 13.5 3.5Z" fill="black"/>
<path fill-rule="evenodd" clip-rule="evenodd" d="M8 4C5.79086 4 4 5.79086 4 8C4 10.2091 5.79086 12 8 12C10.2091 12 12 10.2091 12 8C12 5.79086 10.2091 4 8 4ZM6 8C6 6.89543 6.89543 6 8 6C9.10457 6 10 6.89543 10 8C10 9.10457 9.10457 10 8 10C6.89543 10 6 9.10457 6 8Z" fill="black"/>
<path d="M2 9C2.55228 9 3 8.55229 3 8C3 7.44772 2.55228 7 2 7C1.44772 7 1 7.44772 1 8C1 8.55229 1.44772 9 2 9Z" fill="black"/>
<path d="M14 9C14.5523 9 15 8.55229 15 8C15 7.44772 14.5523 7 14 7C13.4478 7 13 7.44772 13 8C13 8.55229 13.4478 9 14 9Z" fill="black"/>
<path d="M3.5 4.5C4.05228 4.5 4.5 4.05228 4.5 3.5C4.5 2.94772 4.05228 2.5 3.5 2.5C2.94772 2.5 2.5 2.94772 2.5 3.5C2.5 4.05228 2.94772 4.5 3.5 4.5Z" fill="black"/>
<path d="M13.5 12.5C13.5 13.0523 13.0523 13.5 12.5 13.5C11.9477 13.5 11.5 13.0523 11.5 12.5C11.5 11.9477 11.9477 11.5 12.5 11.5C13.0523 11.5 13.5 11.9477 13.5 12.5Z" fill="black"/>
<path d="M3.5 13.5C4.05228 13.5 4.5 13.0523 4.5 12.5C4.5 11.9477 4.05228 11.5 3.5 11.5C2.94772 11.5 2.5 11.9477 2.5 12.5C2.5 13.0523 2.94772 13.5 3.5 13.5Z" fill="black"/>
<path d="M8 15C8.55229 15 9 14.5523 9 14C9 13.4477 8.55229 13 8 13C7.44772 13 7 13.4477 7 14C7 14.5523 7.44772 15 8 15Z" fill="black"/>
</svg>
