<svg width="32" height="32" viewBox="0 0 32 32" fill="none" xmlns="http://www.w3.org/2000/svg">
<rect width="32" height="32" fill="white"/>
<path d="M6.00003 10L5.29293 9.29289L5.00003 9.58579L5.00003 10L6.00003 10ZM13 3V2H12.5858L12.2929 2.29289L13 3ZM26 7H25H26ZM26 25H27H26ZM6 25L7 25L6 25ZM14 11V12H15V11H14ZM6.00003 11L5.00003 11L6.00003 11ZM6.70714 10.7071L13.7071 3.70711L12.2929 2.29289L5.29293 9.29289L6.70714 10.7071ZM10 30H22V28H10V30ZM25 7L25 25H27L27 7H25ZM10 28C8.34314 28 7 26.6569 7 25L5 25C4.99999 27.7614 7.23857 30 10 30V28ZM22 30C24.7615 30 27 27.7614 27 25H25C25 26.6569 23.6569 28 22 28V30ZM22 4C23.6569 4 25 5.34315 25 7H27C27 4.23858 24.7615 2 22 2V4ZM13 4H14V2H13V4ZM14 4H22V2H14V4ZM5.00003 10L5.00003 11L7.00003 11L7.00003 10L5.00003 10ZM5.00003 11L5 25L7 25L7.00003 11L5.00003 11ZM13 3V11H15V3H13ZM14 10H6.00003V12H14V10ZM11 16H16V14H11V16ZM16 16H21V14H16V16ZM11 26H16V24H11V26ZM16 26H21V24H16V26ZM15 15V20H17V15H15ZM15 20V25H17V20H15ZM23 24V20H21V24H23ZM23 20V16H21V20H23ZM9 16V20H11V16H9ZM9 20V24H11V20H9ZM22 19H16V21H22V19ZM16 19H10V21H16V19ZM21 26C22.1046 26 23 25.1046 23 24H21V26ZM11 24H9C9 25.1046 9.89543 26 11 26V24ZM21 16H23C23 14.8954 22.1046 14 21 14V16ZM11 14C9.89543 14 9 14.8954 9 16H11V14Z" fill="black"/>
</svg>
