<svg width="16" height="16" viewBox="0 0 16 16" fill="none" xmlns="http://www.w3.org/2000/svg">
<rect width="16" height="16" fill="white"/>
<path d="M2 3H1V3L2 3ZM2.00001 13L1.00001 13L2.00001 13ZM14 3H13V3L14 3ZM14 8H15H14ZM14 13H13H14ZM8 14V15V14ZM13 14V13V14ZM1 3L1.00001 8L3.00001 8L3 3L1 3ZM1.00001 8L1.00001 13L3.00001 13L3.00001 8L1.00001 8ZM13 3L13 8H15L15 3L13 3ZM13 8V13H15V8H13ZM2.00001 9L8 9V7L2.00001 7L2.00001 9ZM8 9L14 9V7L8 7V9ZM3 3H8V1H3V3ZM8 3H13V1H8V3ZM3.00001 15H8V13H3.00001V15ZM8 15L13 15V13L8 13V15ZM7 2V8H9V2H7ZM7 8V14H9V8H7ZM3 3L3 3V1C1.89543 1 1 1.89543 1 3H3ZM1.00001 13C1.00002 14.1046 1.89545 15 3.00001 15V13H3.00001L1.00001 13ZM13 13V15C14.1046 15 15 14.1046 15 13H13ZM15 3C15 1.89543 14.1046 1 13 1V3V3H15Z" fill="black"/>
</svg>
