<svg width="32" height="32" viewBox="0 0 32 32" fill="none" xmlns="http://www.w3.org/2000/svg">
<rect width="32" height="32" fill="white"/>
<path fill-rule="evenodd" clip-rule="evenodd" d="M16.4765 3.5211C18.4376 1.62125 21.5603 1.64603 23.491 3.57677L29.2697 9.35544C31.1842 11.2699 31.227 14.3605 29.3662 16.3273L17.0223 29.3745C16.6446 29.7738 16.1191 30 15.5695 30L6 30C4.34315 30 3 28.6568 3 27L3 17.4235C3 16.8821 3.21952 16.3638 3.60841 15.9871L16.4765 3.5211ZM22.0768 4.99098C20.9183 3.83254 19.0448 3.81767 17.8681 4.95759L5 17.4235L5 27C5 27.5523 5.44771 28 6 28L15.5695 28L27.9134 14.9527C29.0298 13.7727 29.0042 11.9184 27.8555 10.7697L22.0768 4.99098ZM10.5 21C9.67157 21 9 21.6716 9 22.5C9 23.3284 9.67157 24 10.5 24C11.3284 24 12 23.3284 12 22.5C12 21.6716 11.3284 21 10.5 21ZM7 22.5C7 20.567 8.567 19 10.5 19C12.433 19 14 20.567 14 22.5C14 24.433 12.433 26 10.5 26C8.567 26 7 24.433 7 22.5Z" fill="black"/>
</svg>
