<svg width="32" height="32" viewBox="0 0 32 32" fill="none" xmlns="http://www.w3.org/2000/svg">
<rect width="32" height="32" fill="white"/>
<path d="M16 8C16.5523 8 17 8.44772 17 9L17 23C17 23.5523 16.5523 24 16 24C15.4477 24 15 23.5523 15 23L15 9C15 8.44772 15.4477 8 16 8Z" fill="black"/>
<path d="M13 12C13 11.4477 12.5523 11 12 11C11.4477 11 11 11.4477 11 12L11 20C11 20.5523 11.4477 21 12 21C12.5523 21 13 20.5523 13 20L13 12Z" fill="black"/>
<path d="M20 11C20.5523 11 21 11.4477 21 12V20C21 20.5523 20.5523 21 20 21C19.4477 21 19 20.5523 19 20V12C19 11.4477 19.4477 11 20 11Z" fill="black"/>
<path d="M25 15C25 14.4477 24.5523 14 24 14C23.4477 14 23 14.4477 23 15V17C23 17.5523 23.4477 18 24 18C24.5523 18 25 17.5523 25 17V15Z" fill="black"/>
<path d="M8 14C8.55228 14 9 14.4477 9 15L9 17C9 17.5523 8.55228 18 8 18C7.44771 18 7 17.5523 7 17L7 15C7 14.4477 7.44771 14 8 14Z" fill="black"/>
<path d="M7 6C6.44771 6 6 6.44772 6 7C6 7.55228 6.44771 8 7 8H10C10.5523 8 11 7.55228 11 7C11 6.44772 10.5523 6 10 6H7Z" fill="black"/>
<path fill-rule="evenodd" clip-rule="evenodd" d="M30 5V27C30 28.6568 28.6569 30 27 30L5 30C3.34314 30 2 28.6568 2 27V5.00003C2 3.34318 3.34314 2.00003 5 2.00003L27 2C28.6568 2 30 3.34314 30 5ZM28 27V5C28 4.44771 27.5523 4 27 4L5 4.00003C4.44772 4.00003 4 4.44774 4 5.00003L4 27C4 27.5523 4.44772 28 5 28L27 28C27.5523 28 28 27.5523 28 27Z" fill="black"/>
</svg>
