<svg width="16" height="16" viewBox="0 0 16 16" fill="none" xmlns="http://www.w3.org/2000/svg">
<rect width="16" height="16" fill="white"/>
<path fill-rule="evenodd" clip-rule="evenodd" d="M1 2C1 1.44772 1.44772 1 2 1H2.6C3.15228 1 3.6 1.44772 3.6 2C3.6 2.43271 3.32516 2.80124 2.94053 2.94052C2.80124 3.32516 2.43271 3.6 2 3.6C1.44772 3.6 1 3.15228 1 2.6V2ZM6.4 2C6.4 1.44772 6.84771 1 7.4 1H8.6C9.15228 1 9.6 1.44772 9.6 2C9.6 2.55228 9.15228 3 8.6 3H7.4C6.84771 3 6.4 2.55228 6.4 2ZM12.4 2C12.4 1.44772 12.8477 1 13.4 1H14C14.5523 1 15 1.44772 15 2V2.6C15 3.15228 14.5523 3.6 14 3.6C13.5673 3.6 13.1988 3.32516 13.0595 2.94053C12.6748 2.80124 12.4 2.43271 12.4 2ZM14 6.4C14.5523 6.4 15 6.84771 15 7.4V8.6C15 9.15228 14.5523 9.6 14 9.6C13.4477 9.6 13 9.15228 13 8.6V7.4C13 6.84771 13.4477 6.4 14 6.4ZM2 6.4C2.55228 6.4 3 6.84772 3 7.4V8.6C3 9.15228 2.55228 9.6 2 9.6C1.44772 9.6 1 9.15228 1 8.6V7.4C1 6.84772 1.44772 6.4 2 6.4ZM14 12.4C14.5523 12.4 15 12.8477 15 13.4V14C15 14.5523 14.5523 15 14 15H13.4C12.8477 15 12.4 14.5523 12.4 14C12.4 13.5673 12.6748 13.1988 13.0595 13.0595C13.1988 12.6748 13.5673 12.4 14 12.4ZM2.94052 13.0595C2.80124 12.6748 2.43271 12.4 2 12.4C1.44772 12.4 1 12.8477 1 13.4V14C1 14.5523 1.44772 15 2 15H2.6C3.15228 15 3.6 14.5523 3.6 14C3.6 13.5673 3.32516 13.1988 2.94052 13.0595ZM6.4 14C6.4 13.4477 6.84772 13 7.4 13H8.6C9.15228 13 9.6 13.4477 9.6 14C9.6 14.5523 9.15228 15 8.6 15H7.4C6.84772 15 6.4 14.5523 6.4 14Z" fill="black"/>
<path fill-rule="evenodd" clip-rule="evenodd" d="M5 6C5 5.44772 5.44772 5 6 5H10C10.5523 5 11 5.44772 11 6C11 6.55228 10.5523 7 10 7H9V10C9 10.5523 8.55228 11 8 11C7.44772 11 7 10.5523 7 10V7H6C5.44772 7 5 6.55228 5 6Z" fill="black"/>
</svg>
