<svg width="16" height="16" viewBox="0 0 16 16" fill="none" xmlns="http://www.w3.org/2000/svg">
<rect width="16" height="16" fill="white"/>
<path d="M5 8C5 7.44772 5.44772 7 6 7H10C10.5523 7 11 7.44772 11 8C11 8.55228 10.5523 9 10 9H6C5.44772 9 5 8.55228 5 8Z" fill="black"/>
<path d="M6 10C5.44772 10 5 10.4477 5 11C5 11.5523 5.44772 12 6 12H8C8.55228 12 9 11.5523 9 11C9 10.4477 8.55228 10 8 10H6Z" fill="black"/>
<path fill-rule="evenodd" clip-rule="evenodd" d="M5.82174 1.2652C6.00646 1.09468 6.24863 1 6.50002 1H11.8889C12.9531 1 14 1.79893 14 3L14 13C14 14.2011 12.9531 15 11.8889 15H4.11111C3.04688 15 1.99999 14.2011 2 13L2.00003 5.23077C2.00003 4.95167 2.11667 4.68527 2.32175 4.49597L5.82174 1.2652ZM6.891 3L4.00003 5.6686L4 12.9684C4.01766 12.9817 4.05439 13 4.11111 13H11.8889C11.9456 13 11.9823 12.9817 12 12.9684L12 3.0316C11.9823 3.01831 11.9456 3 11.8889 3H6.891Z" fill="black"/>
</svg>
