<svg width="32" height="32" viewBox="0 0 32 32" fill="none" xmlns="http://www.w3.org/2000/svg">
<rect width="32" height="32" fill="white"/>
<path fill-rule="evenodd" clip-rule="evenodd" d="M20.5239 4C16.3818 4 13.0239 7.35786 13.0239 11.5C13.0239 12.185 13.1155 12.8469 13.2864 13.4751L13.4387 14.0347L4.93732 22.5362C3.68765 23.7859 3.68764 25.812 4.93732 27.0617C6.18699 28.3114 8.21313 28.3114 9.4628 27.0617L17.9524 18.5721L18.5144 18.728C19.1528 18.9051 19.8264 19 20.5239 19C24.666 19 28.0239 15.6421 28.0239 11.5C28.0239 11.1962 28.0059 10.8971 27.971 10.6034L24.7011 13.8733C22.846 15.7284 19.8381 15.7284 17.983 13.8733C16.1208 12.0111 16.1289 8.98944 18.0009 7.13725L21.1462 4.0254C20.9412 4.00859 20.7337 4 20.5239 4ZM11.0239 11.5C11.0239 6.25329 15.2772 2 20.5239 2C20.9241 2 21.319 2.0248 21.707 2.07306C22.506 2.17242 23.0606 2.72838 23.2416 3.39439C23.4171 4.03996 23.2412 4.76611 22.7178 5.28394L19.4076 8.55898C18.3237 9.63138 18.319 11.3809 19.3972 12.4591C20.4713 13.5332 22.2128 13.5332 23.2869 12.4591L26.7048 9.04115C27.2164 8.52957 27.9293 8.35421 28.5673 8.51925C29.2243 8.68921 29.7826 9.2213 29.9064 10.0025C29.9838 10.4909 30.0239 10.9911 30.0239 11.5C30.0239 16.7467 25.7706 21 20.5239 21C19.8504 21 19.1923 20.9298 18.557 20.7959L10.877 28.4759C8.84629 30.5066 5.55382 30.5066 3.5231 28.4759C1.49238 26.4452 1.49238 23.1527 3.5231 21.122L11.2194 13.4257C11.0912 12.8031 11.0239 12.159 11.0239 11.5Z" fill="black"/>
</svg>
