<svg width="32" height="32" viewBox="0 0 32 32" fill="none" xmlns="http://www.w3.org/2000/svg">
<rect width="32" height="32" fill="white"/>
<path d="M18.6901 13.1662C17.2199 11.696 17.2263 9.31041 18.7043 7.84811L22.0145 4.57306C22.5461 4.04719 22.3256 3.15769 21.5836 3.06541C21.2364 3.02224 20.8828 3 20.5239 3C15.8295 3 12.0239 6.80557 12.0239 11.5C12.0239 12.2745 12.1275 13.0247 12.3215 13.7377L4.23021 21.8291C2.59001 23.4693 2.59001 26.1286 4.23021 27.7688C5.87041 29.409 8.52971 29.409 10.1699 27.7688L18.2471 19.6916C18.9717 19.8926 19.7353 20 20.5239 20C25.2183 20 29.0239 16.1944 29.0239 11.5C29.0239 11.0437 28.988 10.5958 28.9187 10.159C28.8039 9.43442 27.9307 9.22949 27.4119 9.74826L23.994 13.1662C22.5294 14.6308 20.1547 14.6308 18.6901 13.1662Z" stroke="black" stroke-width="2"/>
</svg>
