<svg width="32" height="32" viewBox="0 0 32 32" fill="none" xmlns="http://www.w3.org/2000/svg">
<rect width="32" height="32" fill="white"/>
<path d="M22 16C22 19.3137 19.3137 22 16 22C12.6863 22 10 19.3137 10 16C10 12.6863 12.6863 10 16 10C19.3137 10 22 12.6863 22 16Z" stroke="black" stroke-width="2"/>
<path d="M14.1805 3.46947C15.3092 2.84351 16.6908 2.84351 17.8195 3.46947L26.1805 8.19289C27.2988 8.83633 27.9897 10.0072 28 11.2766V20.7234C27.9897 21.9928 27.2988 23.1637 26.1805 23.8071L17.8195 28.5305C16.6908 29.1565 15.3092 29.1565 14.1805 28.5305L5.8195 23.8071C4.70116 23.1637 4.01031 21.9928 4 20.7234L4 11.2766C4.01031 10.0072 4.70116 8.83633 5.8195 8.19289L14.1805 3.46947Z" stroke="black" stroke-width="2"/>
</svg>
