<svg width="16" height="16" viewBox="0 0 16 16" fill="none" xmlns="http://www.w3.org/2000/svg">
<rect width="16" height="16" fill="white"/>
<path fill-rule="evenodd" clip-rule="evenodd" d="M8.74251 3.32444C7.80346 3.81015 7.16107 4.79118 7.16107 5.92324C7.16107 6.19127 7.19683 6.44936 7.26327 6.69372L7.4153 7.2529L3.27472 11.3975C2.90847 11.7641 2.90847 12.3588 3.27472 12.7254C3.64044 13.0915 4.23299 13.0915 4.59871 12.7254L8.73577 8.58445L9.29819 8.74059C9.54603 8.80939 9.80815 8.84647 10.0805 8.84647C11.3182 8.84647 12.3768 8.07505 12.8014 6.98538L12.3881 7.39902C11.3222 8.46602 9.59345 8.46603 8.5275 7.39904C7.458 6.32853 7.46268 4.59191 8.53782 3.52715L8.74251 3.32444ZM5.16107 5.92324C5.16107 3.2051 7.3627 1 10.0805 1C10.8288 1 11.3903 1.47938 11.5742 2.10178C11.7461 2.68358 11.579 3.33016 11.1237 3.78107L9.94515 4.94821C9.65727 5.23332 9.65602 5.69886 9.94239 5.9855C10.2271 6.27052 10.6885 6.27054 10.9732 5.98551L12.1098 4.8478C12.5791 4.37808 13.2485 4.20258 13.8518 4.37639C14.4993 4.56296 15 5.14249 15 5.92324C15 8.64137 12.7984 10.8465 10.0805 10.8465C9.83485 10.8465 9.5929 10.8284 9.35608 10.7933L6.0136 14.139C4.86668 15.287 3.00675 15.287 1.85983 14.139C0.713433 12.9915 0.713432 11.1314 1.85982 9.98394L5.21138 6.62914C5.1782 6.39825 5.16107 6.16252 5.16107 5.92324Z" fill="black"/>
</svg>
