<svg width="32" height="32" viewBox="0 0 32 32" fill="none" xmlns="http://www.w3.org/2000/svg">
<rect width="32" height="32" fill="white"/>
<path d="M17 2C17.5523 2 18 2.44772 18 3C18 3.55228 17.5523 4 17 4L5.41353 4L29.7023 28.298C30.0927 28.6886 30.0926 29.3218 29.702 29.7123C29.3114 30.1027 28.6782 30.1026 28.2878 29.712L4.00003 5.41492V17C4.00003 17.5523 3.55231 18 3.00003 18C2.44774 18 2.00003 17.5523 2.00003 17V3.00736V3C2.00003 2.97722 2.00079 2.95462 2.00229 2.93222C2.0006 2.95723 1.99984 2.9823 2.00003 3.00736" fill="black"/>
<path d="M2.28548 2.30041C2.19264 2.39523 2.11851 2.50845 2.06909 2.63409C2.11666 2.5129 2.18879 2.39912 2.28548 2.30041Z" fill="black"/>
<path d="M2.59865 2.08381C2.48904 2.1319 2.38972 2.19908 2.30487 2.28114C2.39282 2.19604 2.49253 2.13027 2.59865 2.08381Z" fill="black"/>
</svg>
