<svg width="16" height="16" viewBox="0 0 16 16" fill="none" xmlns="http://www.w3.org/2000/svg">
<rect width="16" height="16" fill="white"/>
<path d="M6 3C6 1.89543 6.89543 1 8 1C9.10457 1 10 1.89543 10 3C10 4.10457 9.10457 5 8 5C6.89543 5 6 4.10457 6 3Z" fill="black"/>
<path d="M8 6C6.89543 6 6 6.89543 6 8C6 9.10457 6.89543 10 8 10C9.10457 10 10 9.10457 10 8C10 6.89543 9.10457 6 8 6Z" fill="black"/>
<path d="M3 11C1.89543 11 1 11.8954 1 13C1 14.1046 1.89543 15 3 15C4.10457 15 5 14.1046 5 13C5 11.8954 4.10457 11 3 11Z" fill="black"/>
<path d="M8 11C6.89543 11 6 11.8954 6 13C6 14.1046 6.89543 15 8 15C9.10457 15 10 14.1046 10 13C10 11.8954 9.10457 11 8 11Z" fill="black"/>
<path d="M11 13C11 11.8954 11.8954 11 13 11C14.1046 11 15 11.8954 15 13C15 14.1046 14.1046 15 13 15C11.8954 15 11 14.1046 11 13Z" fill="black"/>
<path d="M13 6C11.8954 6 11 6.89543 11 8C11 9.10457 11.8954 10 13 10C14.1046 10 15 9.10457 15 8C15 6.89543 14.1046 6 13 6Z" fill="black"/>
</svg>
