<svg width="16" height="16" viewBox="0 0 16 16" fill="none" xmlns="http://www.w3.org/2000/svg">
<rect width="16" height="16" fill="white"/>
<path fill-rule="evenodd" clip-rule="evenodd" d="M6 2C6 1.44772 5.55228 1 5 1C4.44772 1 4 1.44772 4 2L4 3H3.5C2.11929 3 1 4.11929 1 5.5C1 6.88071 2.11929 8 3.5 8H4V14C4 14.5523 4.44772 15 5 15C5.55228 15 6 14.5523 6 14V8H6.5C7.88071 8 9 6.88071 9 5.5C9 4.11929 7.88071 3 6.5 3H6V2ZM3.5 5C3.22386 5 3 5.22386 3 5.5C3 5.77614 3.22386 6 3.5 6H6.5C6.77614 6 7 5.77614 7 5.5C7 5.22386 6.77614 5 6.5 5H3.5Z" fill="black"/>
<path fill-rule="evenodd" clip-rule="evenodd" d="M10 13V14C10 14.5523 10.4477 15 11 15C11.5523 15 12 14.5523 12 14V13H12.5C13.8807 13 15 11.8807 15 10.5C15 9.11929 13.8807 8 12.5 8H12V2C12 1.44772 11.5523 1 11 1C10.4477 1 10 1.44772 10 2V8H9.5C8.11929 8 7 9.11929 7 10.5C7 11.8807 8.11929 13 9.5 13H10ZM12.5 11C12.7761 11 13 10.7761 13 10.5C13 10.2239 12.7761 10 12.5 10H9.5C9.22386 10 9 10.2239 9 10.5C9 10.7761 9.22386 11 9.5 11H12.5Z" fill="black"/>
</svg>
