<svg width="32" height="32" viewBox="0 0 32 32" fill="none" xmlns="http://www.w3.org/2000/svg">
<rect width="32" height="32" fill="white"/>
<path fill-rule="evenodd" clip-rule="evenodd" d="M15 2C13.3431 2 12 3.34315 12 5V7C12 8.65685 13.3431 10 15 10H17C18.6569 10 20 8.65685 20 7V5C20 3.34315 18.6569 2 17 2H15ZM14 5C14 4.44772 14.4477 4 15 4H17C17.5523 4 18 4.44772 18 5V7C18 7.55228 17.5523 8 17 8H15C14.4477 8 14 7.55228 14 7V5Z" fill="black"/>
<path fill-rule="evenodd" clip-rule="evenodd" d="M15 12C13.3431 12 12 13.3431 12 15V17C12 18.6569 13.3431 20 15 20H17C18.6569 20 20 18.6569 20 17V15C20 13.3431 18.6569 12 17 12H15ZM14 15C14 14.4477 14.4477 14 15 14H17C17.5523 14 18 14.4477 18 15V17C18 17.5523 17.5523 18 17 18H15C14.4477 18 14 17.5523 14 17V15Z" fill="black"/>
<path fill-rule="evenodd" clip-rule="evenodd" d="M15 22C13.3431 22 12 23.3431 12 25V27C12 28.6569 13.3431 30 15 30H17C18.6569 30 20 28.6569 20 27V25C20 23.3431 18.6569 22 17 22H15ZM14 25C14 24.4477 14.4477 24 15 24H17C17.5523 24 18 24.4477 18 25V27C18 27.5523 17.5523 28 17 28H15C14.4477 28 14 27.5523 14 27V25Z" fill="black"/>
<path fill-rule="evenodd" clip-rule="evenodd" d="M2 25C2 23.3431 3.34315 22 5 22H7C8.65685 22 10 23.3431 10 25V27C10 28.6569 8.65685 30 7 30H5C3.34315 30 2 28.6569 2 27V25ZM5 24C4.44772 24 4 24.4477 4 25V27C4 27.5523 4.44772 28 5 28H7C7.55228 28 8 27.5523 8 27V25C8 24.4477 7.55228 24 7 24H5Z" fill="black"/>
<path fill-rule="evenodd" clip-rule="evenodd" d="M25 22C23.3431 22 22 23.3431 22 25V27C22 28.6569 23.3431 30 25 30H27C28.6569 30 30 28.6569 30 27V25C30 23.3431 28.6569 22 27 22H25ZM24 25C24 24.4477 24.4477 24 25 24H27C27.5523 24 28 24.4477 28 25V27C28 27.5523 27.5523 28 27 28H25C24.4477 28 24 27.5523 24 27V25Z" fill="black"/>
<path fill-rule="evenodd" clip-rule="evenodd" d="M22 15C22 13.3431 23.3431 12 25 12H27C28.6569 12 30 13.3431 30 15V17C30 18.6569 28.6569 20 27 20H25C23.3431 20 22 18.6569 22 17V15ZM25 14C24.4477 14 24 14.4477 24 15V17C24 17.5523 24.4477 18 25 18H27C27.5523 18 28 17.5523 28 17V15C28 14.4477 27.5523 14 27 14H25Z" fill="black"/>
</svg>
