<svg width="16" height="16" viewBox="0 0 16 16" fill="none" xmlns="http://www.w3.org/2000/svg">
<rect width="16" height="16" fill="white"/>
<path fill-rule="evenodd" clip-rule="evenodd" d="M9 2C9 1.44772 8.55228 1 8 1C7.44772 1 7 1.44772 7 2V3.08296C4.16229 3.55904 2 6.027 2 9C2 12.3137 4.68629 15 8 15C11.3137 15 14 12.3137 14 9C14 6.027 11.8377 3.55904 9 3.08296V2ZM7 5.12602V7C7 7.55228 7.44772 8 8 8C8.55228 8 9 7.55228 9 7V5.12602C10.7252 5.57006 12 7.13616 12 9C12 11.2091 10.2091 13 8 13C5.79086 13 4 11.2091 4 9C4 7.13616 5.27477 5.57006 7 5.12602Z" fill="black"/>
</svg>
