<svg width="32" height="32" viewBox="0 0 32 32" fill="none" xmlns="http://www.w3.org/2000/svg">
<rect width="32" height="32" fill="white"/>
<path d="M15 12C15 12.5523 15.4477 13 16 13C16.5523 13 17 12.5523 17 12H15ZM17 2C17 1.44772 16.5523 1 16 1C15.4477 1 15 1.44772 15 2H17ZM20.3332 4.73999C19.8125 4.55594 19.2412 4.82887 19.0572 5.34958C18.8731 5.8703 19.146 6.44162 19.6668 6.62567L20.3332 4.73999ZM12.3332 6.62567C12.854 6.44162 13.1269 5.8703 12.9428 5.34958C12.7588 4.82887 12.1875 4.55594 11.6668 4.73999L12.3332 6.62567ZM17 12V2H15V12H17ZM27 17C27 23.0751 22.0751 28 16 28V30C23.1797 30 29 24.1797 29 17H27ZM16 28C9.92487 28 5 23.0751 5 17H3C3 24.1797 8.8203 30 16 30V28ZM19.6668 6.62567C23.9405 8.13621 27 12.2121 27 17H29C29 11.3382 25.3811 6.52414 20.3332 4.73999L19.6668 6.62567ZM5 17C5 12.2121 8.05953 8.13621 12.3332 6.62567L11.6668 4.73999C6.61894 6.52414 3 11.3382 3 17H5Z" fill="black"/>
</svg>
