<svg width="16" height="16" viewBox="0 0 16 16" fill="none" xmlns="http://www.w3.org/2000/svg">
<rect width="16" height="16" fill="white"/>
<path d="M10 2V3V2ZM6.00003 2V3V2ZM2.00003 10H1.00003H2.00003ZM2.00003 6H3.00003V6L2.00003 6ZM10 14V13V14ZM6.00003 14V15V14ZM14 10L13 10L14 10ZM14 6.00001L15 6.00001L14 6.00001ZM4.50001 6C3.94772 6 3.50001 6.44771 3.50001 7C3.50001 7.55228 3.94772 8 4.50001 8V6ZM7.50001 8C8.05229 8 8.50001 7.55228 8.50001 7C8.50001 6.44771 8.05229 6 7.50001 6V8ZM5.00001 9.5C5.00001 10.0523 5.44772 10.5 6.00001 10.5C6.55229 10.5 7.00001 10.0523 7.00001 9.5H5.00001ZM9.3575 6.4855C9.07335 6.01192 8.45909 5.85836 7.98551 6.14251C7.51193 6.42665 7.35836 7.04091 7.64251 7.51449L9.3575 6.4855ZM10 9.5L9.14251 10.0145C9.32324 10.3157 9.64874 10.5 10 10.5C10.3513 10.5 10.6768 10.3157 10.8575 10.0145L10 9.5ZM12.3575 7.51449C12.6416 7.04091 12.4881 6.42665 12.0145 6.14251C11.5409 5.85836 10.9267 6.01192 10.6425 6.4855L12.3575 7.51449ZM10 0.999996L6.00003 0.999996V3L10 3V0.999996ZM3.00003 10L3.00003 6H1.00003L1.00003 10H3.00003ZM10 13H6.00003V15H10V13ZM15 10L15 6.00001L13 6L13 10L15 10ZM10 15C12.7614 15 15 12.7614 15 10L13 10C13 11.6569 11.6569 13 10 13V15ZM10 3C11.6569 3 13 4.34315 13 6L15 6.00001C15 3.23858 12.7615 0.999997 10 0.999996V3ZM6.00003 0.999996C3.23861 0.999996 1.00003 3.23857 1.00003 6L3.00003 6C3.00003 4.34314 4.34318 3 6.00003 3V0.999996ZM1.00003 10C1.00003 12.7614 3.23861 15 6.00003 15V13C4.34318 13 3.00003 11.6569 3.00003 10H1.00003ZM4.50001 8H6.00001V6H4.50001V8ZM6.00001 8H7.50001V6H6.00001V8ZM5.00001 7V9.5H7.00001V7H5.00001ZM7.64251 7.51449L9.14251 10.0145L10.8575 8.9855L9.3575 6.4855L7.64251 7.51449ZM10.8575 10.0145L12.3575 7.51449L10.6425 6.4855L9.14251 8.9855L10.8575 10.0145Z" fill="black"/>
</svg>
