<svg width="32" height="32" viewBox="0 0 32 32" fill="none" xmlns="http://www.w3.org/2000/svg">
<rect width="32" height="32" fill="white"/>
<path d="M24 4V5V4ZM8.00003 4V3V4ZM4.00003 24H5.00003H4.00003ZM4.00003 8H3.00003H4.00003ZM24 28V27V28ZM8.00003 28V29V28ZM28 24L29 24L28 24ZM28 8.00001L27 8.00001L28 8.00001ZM9.50001 12C8.94772 12 8.50001 12.4477 8.50001 13C8.50001 13.5523 8.94772 14 9.50001 14V12ZM14.5 14C15.0523 14 15.5 13.5523 15.5 13C15.5 12.4477 15.0523 12 14.5 12V14ZM11 19C11 19.5523 11.4477 20 12 20C12.5523 20 13 19.5523 13 19H11ZM17.9231 12.6154C17.7107 12.1056 17.1252 11.8645 16.6154 12.0769C16.1056 12.2893 15.8645 12.8748 16.0769 13.3846L17.9231 12.6154ZM19.5 19L18.5769 19.3846C18.7322 19.7573 19.0963 20 19.5 20C19.9037 20 20.2678 19.7573 20.4231 19.3846L19.5 19ZM22.9231 13.3846C23.1355 12.8748 22.8944 12.2893 22.3846 12.0769C21.8748 11.8645 21.2893 12.1056 21.0769 12.6154L22.9231 13.3846ZM24 3L8.00003 3V5L24 5V3ZM5.00003 24L5.00003 8H3.00003L3.00003 24H5.00003ZM24 27H8.00003V29H24V27ZM29 24L29 8.00001L27 8.00001L27 24L29 24ZM24 29C26.7614 29 29 26.7614 29 24L27 24C27 25.6569 25.6568 27 24 27V29ZM24 5C25.6569 5 27 6.34315 27 8.00001L29 8.00001C29 5.23858 26.7615 3 24 3V5ZM8.00003 3C5.23861 3 3.00003 5.23858 3.00003 8H5.00003C5.00003 6.34315 6.34318 5 8.00003 5V3ZM3.00003 24C3.00003 26.7614 5.23861 29 8.00003 29V27C6.34318 27 5.00003 25.6569 5.00003 24H3.00003ZM9.50001 14H12V12H9.50001V14ZM12 14H14.5V12H12V14ZM11 13V19H13V13H11ZM16.0769 13.3846L18.5769 19.3846L20.4231 18.6154L17.9231 12.6154L16.0769 13.3846ZM20.4231 19.3846L22.9231 13.3846L21.0769 12.6154L18.5769 18.6154L20.4231 19.3846Z" fill="black"/>
</svg>
