<svg width="32" height="32" viewBox="0 0 32 32" fill="none" xmlns="http://www.w3.org/2000/svg">
<rect width="32" height="32" fill="white"/>
<path d="M8.5 13C8.5 12.4477 8.94771 12 9.5 12H14.5C15.0523 12 15.5 12.4477 15.5 13C15.5 13.5523 15.0523 14 14.5 14H13V19C13 19.5523 12.5523 20 12 20C11.4477 20 11 19.5523 11 19V14H9.5C8.94771 14 8.5 13.5523 8.5 13Z" fill="black"/>
<path d="M17.9231 12.6154C17.7106 12.1056 17.1252 11.8645 16.6154 12.0769C16.1056 12.2893 15.8645 12.8748 16.0769 13.3846L18.5769 19.3846C18.7322 19.7573 19.0963 20 19.5 20C19.9037 20 20.2678 19.7573 20.4231 19.3846L22.9231 13.3846C23.1355 12.8748 22.8944 12.2893 22.3846 12.0769C21.8748 11.8645 21.2893 12.1056 21.0769 12.6154L19.5 16.4L17.9231 12.6154Z" fill="black"/>
<path fill-rule="evenodd" clip-rule="evenodd" d="M24 29H8.00003C5.23861 29 3.00003 26.7614 3.00003 24V8C3.00003 5.23858 5.23861 3 8.00003 3H24C26.7615 3 29 5.23858 29 8.00001L29 24C29 26.7614 26.7614 29 24 29ZM8.00003 27H24C25.6568 27 27 25.6569 27 24L27 8.00001C27 6.34315 25.6569 5 24 5L8.00003 5C6.34318 5 5.00003 6.34315 5.00003 8L5.00003 24C5.00003 25.6569 6.34318 27 8.00003 27Z" fill="black"/>
</svg>
