<svg width="16" height="16" viewBox="0 0 16 16" fill="none" xmlns="http://www.w3.org/2000/svg">
<rect width="16" height="16" fill="white"/>
<path d="M13 12V11V12ZM3 12L3 13H3L3 12ZM14 3L15 3L14 3ZM14 11H13H14ZM2 3.00001L1 3.00001V3.00001H2ZM2 11H3H2ZM13 2V1H13L13 2ZM3 2.00001L3 3.00001L3 2.00001ZM4.89443 12.4472C5.14142 11.9532 4.94119 11.3526 4.44721 11.1056C3.95323 10.8586 3.35256 11.0588 3.10557 11.5528L4.89443 12.4472ZM2.10557 13.5528C1.85858 14.0468 2.05881 14.6474 2.55279 14.8944C3.04676 15.1414 3.64744 14.9412 3.89443 14.4472L2.10557 13.5528ZM12.8944 11.5528C12.6474 11.0588 12.0468 10.8586 11.5528 11.1056C11.0588 11.3526 10.8586 11.9532 11.1056 12.4472L12.8944 11.5528ZM12.1056 14.4472C12.3526 14.9412 12.9532 15.1414 13.4472 14.8944C13.9412 14.6474 14.1414 14.0468 13.8944 13.5528L12.1056 14.4472ZM13 11L3 11L3 13L13 13V11ZM13 3L13 11H15L15 3L13 3ZM1 3.00001L1 11H3L3 3.00001H1ZM13 1L3 1.00001L3 3.00001L13 3L13 1ZM15 3C15 1.89543 14.1046 1 13 1V3L13 3L15 3ZM3 3.00001L3 3.00001L3 1.00001C1.89543 1.00001 1 1.89544 1 3.00001L3 3.00001ZM3 11L3 11H1C1 12.1046 1.89543 13 3 13L3 11ZM13 13C14.1046 13 15 12.1046 15 11H13V13ZM3.10557 11.5528L2.10557 13.5528L3.89443 14.4472L4.89443 12.4472L3.10557 11.5528ZM11.1056 12.4472L12.1056 14.4472L13.8944 13.5528L12.8944 11.5528L11.1056 12.4472Z" fill="black"/>
</svg>
