<svg width="16" height="16" viewBox="0 0 16 16" fill="none" xmlns="http://www.w3.org/2000/svg">
<rect width="16" height="16" fill="white"/>
<path fill-rule="evenodd" clip-rule="evenodd" d="M7.99999 1C6.14348 1 4.363 1.7375 3.05025 3.05025C2.01445 4.08605 1.33682 5.41299 1.09697 6.83867C0.883551 8.10727 1.95049 9 2.99999 9L7 9V12.134C7 12.5481 6.61872 13 6 13C5.38128 13 5 12.5481 5 12.134C5 11.5817 4.55228 11.134 4 11.134C3.44772 11.134 3 11.5817 3 12.134C3 13.781 4.40958 15 6 15C7.59042 15 9 13.781 9 12.134V9L13 9C14.0495 9 15.1164 8.10727 14.903 6.83867C14.6632 5.41299 13.9855 4.08605 12.9497 3.05025C11.637 1.7375 9.85651 1 7.99999 1ZM4.46446 4.46447C5.40214 3.52678 6.67391 3 7.99999 3C9.32608 3 10.5978 3.52678 11.5355 4.46447C12.2339 5.16282 12.8288 6.04653 13.0234 7H3C3.19464 6.04653 3.7661 5.16282 4.46446 4.46447Z" fill="black"/>
</svg>
