<svg width="32" height="32" viewBox="0 0 32 32" fill="none" xmlns="http://www.w3.org/2000/svg">
<rect width="32" height="32" fill="white"/>
<path fill-rule="evenodd" clip-rule="evenodd" d="M17 2C17 1.44772 16.5523 1 16 1C15.4477 1 15 1.44772 15 2V3.03573C11.6525 3.27532 8.48931 4.71171 6.10051 7.1005C3.9861 9.21491 2.61791 11.936 2.16532 14.8545C1.8858 16.657 3.39308 18 5 18H15V23.8947C15 25.6344 13.6325 27 12 27C10.3675 27 9 25.6344 9 23.8947C9 23.3425 8.55228 22.8947 8 22.8947C7.44772 22.8947 7 23.3425 7 23.8947C7 26.6897 9.21424 29 12 29C14.7858 29 17 26.6897 17 23.8947V18H27C28.6069 18 30.1142 16.657 29.8347 14.8545C29.3821 11.936 28.0139 9.21491 25.8995 7.10051C23.5107 4.71171 20.3475 3.27532 17 3.03573V2ZM16 5C12.8174 5 9.76516 6.26428 7.51472 8.51472C5.70242 10.327 4.52963 12.6594 4.1417 15.161C4.08268 15.5416 4.39779 16 5 16L27 16C27.6022 16 27.9173 15.5416 27.8583 15.161C27.4704 12.6594 26.2976 10.327 24.4853 8.51472C22.2348 6.26428 19.1826 5 16 5Z" fill="black"/>
</svg>
