<svg width="16" height="16" viewBox="0 0 16 16" fill="none" xmlns="http://www.w3.org/2000/svg">
<rect width="16" height="16" fill="white"/>
<path d="M14 2C14 1.44772 13.5523 1 13 1C12.4477 1 12 1.44772 12 2H14ZM13 7.5H12V7.5L13 7.5ZM5 2C5 1.44771 4.55228 0.999999 4 1C3.44771 1 3 1.44772 3 2L5 2ZM4.00001 7.50001L3.00001 7.50001L4.00001 7.50001ZM4.47367 13C3.92139 13 3.47367 13.4477 3.47367 14C3.47367 14.5523 3.92139 15 4.47367 15V13ZM12.5263 15C13.0786 15 13.5263 14.5523 13.5263 14C13.5263 13.4477 13.0786 13 12.5263 13V15ZM12 2V7.5H14V2H12ZM3 2L3.00001 7.50001L5.00001 7.50001L5 2L3 2ZM8.5 11C6.56701 11 5.00001 9.433 5.00001 7.50001L3.00001 7.50001C3.00001 10.5376 5.46244 13 8.5 13V11ZM12 7.5C12 9.433 10.433 11 8.5 11V13C11.5376 13 14 10.5376 14 7.5L12 7.5ZM4.47367 15H12.5263V13H4.47367V15Z" fill="black"/>
</svg>
