<svg width="32" height="32" viewBox="0 0 32 32" fill="none" xmlns="http://www.w3.org/2000/svg">
<rect width="32" height="32" fill="white"/>
<path d="M27 3C27 2.44772 26.5523 2 26 2C25.4477 2 25 2.44772 25 3H27ZM26 15.5H25H26ZM8 3C8 2.44771 7.55228 2 7 2C6.44771 2 6 2.44772 6 3L8 3ZM7.00001 15.5L6.00001 15.5L7.00001 15.5ZM16.5 25V26V25ZM8 28C7.44772 28 7 28.4477 7 29C7 29.5523 7.44772 30 8 30V28ZM25 30C25.5523 30 26 29.5523 26 29C26 28.4477 25.5523 28 25 28V30ZM25 3V15.5H27V3H25ZM6 3L6.00001 15.5L8.00001 15.5L8 3L6 3ZM16.5 24C11.8056 24 8.00002 20.1944 8.00001 15.5L6.00001 15.5C6.00002 21.299 10.701 26 16.5 26V24ZM25 15.5C25 20.1944 21.1944 24 16.5 24V26C22.299 26 27 21.299 27 15.5H25ZM8 30H25V28H8V30Z" fill="black"/>
</svg>
