<svg width="16" height="16" viewBox="0 0 16 16" fill="none" xmlns="http://www.w3.org/2000/svg">
<rect width="16" height="16" fill="white"/>
<path d="M2 8H3H2ZM2 12H1H2ZM12 14V13V14ZM4 14V15H4L4 14ZM14 8.00001H13H14ZM14 12H15H14ZM12 6.00001L12 7.00001L12 6.00001ZM4 6L4 7H4L4 6ZM7 11C7 11.5523 7.44772 12 8 12C8.55229 12 9 11.5523 9 11H7ZM9 9C9 8.44772 8.55229 8 8 8C7.44772 8 7 8.44772 7 9H9ZM9.49927 3.40073C9.97734 3.67728 10.5891 3.51392 10.8656 3.03585C11.1421 2.55779 10.9788 1.94607 10.5007 1.66952L9.49927 3.40073ZM1 8L1 12H3L3 8H1ZM12 13L4 13L4 15L12 15V13ZM13 8.00001V12H15V8.00001H13ZM12 5.00001L4 5L4 7L12 7.00001L12 5.00001ZM15 8.00001C15 6.34316 13.6569 5.00002 12 5.00001L12 7.00001C12.5523 7.00002 13 7.44773 13 8.00001H15ZM3 8C3 7.44772 3.44772 7 4 7L4.00001 5C2.34315 5 1 6.34315 1 8H3ZM1 12C1 13.6569 2.34315 15 4 15V13C3.44772 13 3 12.5523 3 12H1ZM12 15C13.6569 15 15 13.6569 15 12H13C13 12.5523 12.5523 13 12 13V15ZM9 11V9H7V11H9ZM5 6C5 4.34315 6.34315 3 8 3V1C5.23857 1 3 3.23858 3 6H5ZM8 3C8.54809 3 9.05903 3.14607 9.49927 3.40073L10.5007 1.66952C9.76427 1.24351 8.90906 1 8 1V3Z" fill="black"/>
</svg>
