<svg width="16" height="16" viewBox="0 0 16 16" fill="none" xmlns="http://www.w3.org/2000/svg">
<rect width="16" height="16" fill="white"/>
<path d="M8 8C8.55229 8 9 8.44772 9 9V11C9 11.5523 8.55229 12 8 12C7.44772 12 7 11.5523 7 11V9C7 8.44772 7.44772 8 8 8Z" fill="black"/>
<path fill-rule="evenodd" clip-rule="evenodd" d="M5.17071 5C5.58254 3.83481 6.69378 3 8 3C8.54809 3 9.05903 3.14607 9.49927 3.40073C9.97733 3.67728 10.5891 3.51392 10.8656 3.03585C11.1421 2.55779 10.9788 1.94607 10.5007 1.66952C9.76427 1.24351 8.90906 1 8 1C5.5297 1 3.47781 2.79146 3.07263 5.14608C1.86965 5.53671 1 6.6668 1 8V12C1 13.6569 2.34315 15 4 15H12C13.6569 15 15 13.6569 15 12L15 8.00001C15 6.34316 13.6569 5.00001 12 5.00001L5.17071 5ZM4.00099 7C4.00131 7 4.00066 7 4.00099 7C3.4487 7 3 7.44771 3 8L3 12C3 12.5523 3.44771 13 4 13H12C12.5523 13 13 12.5523 13 12L13 8.00001C13 7.44773 12.5523 7.00001 12 7.00001L4.00099 7Z" fill="black"/>
</svg>
