<svg width="16" height="16" viewBox="0 0 16 16" fill="none" xmlns="http://www.w3.org/2000/svg">
<g clip-path="url(#clip0)">
<rect width="16" height="16" transform="matrix(1 0 0 -1 0 16)" fill="white"/>
<path fill-rule="evenodd" clip-rule="evenodd" d="M4.52912 0.493445C4.8089 0.0172733 5.42173 -0.141931 5.8979 0.137852L8.50659 1.67064C8.74281 1.80943 8.91173 2.03905 8.97391 2.30588C9.03608 2.5727 8.98606 2.85334 8.83554 3.08226L7.27032 5.46251C6.96687 5.92396 6.3468 6.05205 5.88535 5.74861C5.42389 5.44516 5.2958 4.82509 5.59925 4.36364L5.81624 4.03365C4.14907 4.84434 3 6.5544 3 8.53283C3 11.2943 5.23858 13.5328 8 13.5328C10.7614 13.5328 13 11.2943 13 8.53283C13 7.06876 12.372 5.75279 11.3677 4.83698C10.9596 4.46486 10.9304 3.83237 11.3025 3.42427C11.6746 3.01617 12.3071 2.987 12.7152 3.35911C14.1177 4.63793 15 6.48305 15 8.53283C15 12.3988 11.866 15.5328 8 15.5328C4.13401 15.5328 1 12.3988 1 8.53283C1 5.63668 2.75881 3.15132 5.26659 2.0866L4.88471 1.86222C4.40854 1.58244 4.24934 0.969617 4.52912 0.493445Z" fill="black"/>
</g>
<defs>
<clipPath id="clip0">
<rect width="16" height="16" transform="matrix(1 0 0 -1 0 16)" fill="white"/>
</clipPath>
</defs>
</svg>
