<svg width="16" height="16" viewBox="0 0 16 16" fill="none" xmlns="http://www.w3.org/2000/svg">
<rect width="16" height="16" transform="matrix(1 0 0 -1 0 16)" fill="white"/>
<path d="M5.8979 0.137814C5.42173 -0.141969 4.8089 0.0172356 4.52912 0.493408C4.24934 0.96958 4.40854 1.5824 4.88471 1.86219L5.8979 0.137814ZM8 2.53278L8.83554 3.08222C8.98607 2.85331 9.03608 2.57266 8.97391 2.30584C8.91173 2.03902 8.74281 1.80939 8.50659 1.6706L8 2.53278ZM5.59925 4.3636C5.2958 4.82505 5.42389 5.44513 5.88535 5.74857C6.3468 6.05202 6.96687 5.92393 7.27032 5.46247L5.59925 4.3636ZM12.7152 3.35908C12.3071 2.98696 11.6746 3.01613 11.3025 3.42423C10.9304 3.83233 10.9596 4.46482 11.3677 4.83694L12.7152 3.35908ZM4.88471 1.86219L7.49341 3.39497L8.50659 1.6706L5.8979 0.137814L4.88471 1.86219ZM7.16446 1.98335L5.59925 4.3636L7.27032 5.46247L8.83554 3.08222L7.16446 1.98335ZM13 8.53279C13 11.2942 10.7614 13.5328 8 13.5328V15.5328C11.866 15.5328 15 12.3988 15 8.53279H13ZM8 13.5328C5.23858 13.5328 3 11.2942 3 8.53279H1C1 12.3988 4.13401 15.5328 8 15.5328V13.5328ZM3 8.53279C3 5.77137 5.23858 3.53278 8 3.53278V1.53278C4.13401 1.53278 1 4.6668 1 8.53279H3ZM11.3677 4.83694C12.372 5.75275 13 7.06872 13 8.53279H15C15 6.48302 14.1177 4.63789 12.7152 3.35908L11.3677 4.83694Z" fill="black"/>
</svg>
