<svg width="32" height="32" viewBox="0 0 32 32" fill="none" xmlns="http://www.w3.org/2000/svg">
<rect width="32" height="32" fill="white"/>
<path fill-rule="evenodd" clip-rule="evenodd" d="M9.63782 2.49345C9.9176 2.01727 10.5304 1.85807 11.0066 2.13785L16.0066 5.07569C16.2428 5.21448 16.4117 5.44411 16.4739 5.71093C16.5361 5.97775 16.4861 6.2584 16.3355 6.48731L13.3355 11.0495C13.0321 11.5109 12.412 11.639 11.9506 11.3356C11.4891 11.0321 11.361 10.412 11.6645 9.95059L13.5234 7.12363C8.66936 8.04825 5 12.3146 5 17.4379C5 23.2369 9.70101 27.9379 15.5 27.9379C21.299 27.9379 26 23.2369 26 17.4379C26 14.3633 24.6798 11.5985 22.5723 9.67682C22.1642 9.3047 22.135 8.67221 22.5071 8.26411C22.8793 7.85601 23.5118 7.82684 23.9199 8.19896C26.4255 10.4836 28 13.7776 28 17.4379C28 24.3414 22.4036 29.9379 15.5 29.9379C8.59644 29.9379 3 24.3414 3 17.4379C3 11.5834 7.02477 6.66897 12.4583 5.31054L9.99341 3.86222C9.51724 3.58244 9.35804 2.96962 9.63782 2.49345Z" fill="black"/>
</svg>
