<svg width="16" height="16" viewBox="0 0 16 16" fill="none" xmlns="http://www.w3.org/2000/svg">
<rect width="16" height="16" fill="white"/>
<path fill-rule="evenodd" clip-rule="evenodd" d="M8 1.00012C8.55229 1.00012 9 1.44784 9 2.00012V7.58591L10.2929 6.29302C10.6834 5.90249 11.3166 5.90249 11.7071 6.29302C12.0976 6.68354 12.0976 7.31671 11.7071 7.70723L8.70711 10.7072C8.51957 10.8948 8.26522 11.0001 8 11.0001C7.73479 11.0001 7.48043 10.8948 7.29289 10.7072L4.2929 7.70723C3.90237 7.3167 3.90237 6.68354 4.2929 6.29301C4.68342 5.90249 5.31658 5.90249 5.70711 6.29302L7 7.58591L7 2.00012C7 1.44784 7.44772 1.00012 8 1.00012ZM2 8.00011C2.55228 8.00011 3 8.44782 3 9.00011V12.0001C3 12.5524 3.44772 13.0001 4 13.0001H12C12.5523 13.0001 13 12.5524 13 12.0001V9.00011C13 8.44782 13.4477 8.00011 14 8.00011C14.5523 8.00011 15 8.44782 15 9.00011V12.0001C15 13.657 13.6569 15.0001 12 15.0001H4C2.34315 15.0001 1 13.657 1 12.0001V9.00011C1 8.44782 1.44772 8.00011 2 8.00011Z" fill="black"/>
</svg>
