<svg width="32" height="32" viewBox="0 0 32 32" fill="none" xmlns="http://www.w3.org/2000/svg">
<rect width="32" height="32" fill="white"/>
<path fill-rule="evenodd" clip-rule="evenodd" d="M15.2929 2.29289C15.6834 1.90237 16.3166 1.90237 16.7071 2.29289L22.7071 8.29289C23.0976 8.68342 23.0976 9.31658 22.7071 9.70711C22.3166 10.0976 21.6834 10.0976 21.2929 9.70711L17 5.41421V23C17 23.5523 16.5523 24 16 24C15.4477 24 15 23.5523 15 23V5.41421L10.7071 9.70711C10.3166 10.0976 9.68342 10.0976 9.29289 9.70711C8.90237 9.31658 8.90237 8.68342 9.29289 8.29289L15.2929 2.29289ZM3 19C3.55228 19 4 19.4477 4 20V25C4 26.6569 5.34315 28 7 28H25C26.6569 28 28 26.6569 28 25V20C28 19.4477 28.4477 19 29 19C29.5523 19 30 19.4477 30 20V25C30 27.7614 27.7614 30 25 30H7C4.23858 30 2 27.7614 2 25V20C2 19.4477 2.44772 19 3 19Z" fill="black"/>
</svg>
