<svg width="32" height="32" viewBox="0 0 32 32" fill="none" xmlns="http://www.w3.org/2000/svg">
<rect width="32" height="32" fill="white"/>
<path fill-rule="evenodd" clip-rule="evenodd" d="M16 2C12.134 2 9 5.13401 9 9C9 12.866 12.134 16 16 16C19.866 16 23 12.866 23 9C23 5.13401 19.866 2 16 2ZM11 9C11 6.23858 13.2386 4 16 4C18.7614 4 21 6.23858 21 9C21 11.7614 18.7614 14 16 14C13.2386 14 11 11.7614 11 9Z" fill="black"/>
<path fill-rule="evenodd" clip-rule="evenodd" d="M7.60406 18C6.28426 18 4.95764 18.6608 4.31768 19.9519C3.79433 21.0076 3.15279 22.578 3.0134 24.202C2.91019 25.4044 3.41002 26.6425 4.51611 27.3296C6.26676 28.4171 9.87453 30 16 30C22.1255 30 25.7332 28.4171 27.4839 27.3296C28.59 26.6425 29.0898 25.4044 28.9866 24.202C28.8472 22.578 28.2057 21.0076 27.6823 19.9519C27.0424 18.6608 25.7157 18 24.3959 18H7.60406ZM6.10961 20.8401C6.35989 20.3352 6.91938 20 7.60406 20H24.3959C25.0806 20 25.6401 20.3352 25.8904 20.8401C26.3704 21.8085 26.886 23.1155 26.9939 24.3731C27.0419 24.9321 26.809 25.3943 26.4285 25.6307C25.0023 26.5167 21.7615 28 16 28C10.2385 28 6.99774 26.5167 5.57147 25.6307C5.19096 25.3943 4.95809 24.9321 5.00607 24.373C5.11401 23.1155 5.62959 21.8085 6.10961 20.8401Z" fill="black"/>
</svg>
