<svg width="16" height="16" viewBox="0 0 16 16" fill="none" xmlns="http://www.w3.org/2000/svg">
<rect width="16" height="16" fill="white"/>
<path d="M10.7295 7.68394C11.1073 7.28103 11.0868 6.6482 10.6839 6.27047C10.281 5.89274 9.64818 5.91315 9.27045 6.31606L8.01431 7.65595L7.60781 7.3448C7.16925 7.00911 6.5416 7.0925 6.20592 7.53106C5.87023 7.96961 5.95362 8.59726 6.39217 8.93295L7.51717 9.79408C7.92508 10.1063 8.5032 10.0587 8.85453 9.68394L10.7295 7.68394Z" fill="black"/>
<path fill-rule="evenodd" clip-rule="evenodd" d="M10.681 2.5549C9.85995 0.636241 7.14005 0.636241 6.31903 2.5549C6.23947 2.74081 6.02605 2.82922 5.83834 2.75401C3.90109 1.97786 1.97783 3.90112 2.75398 5.83837C2.82918 6.02608 2.74078 6.2395 2.55487 6.31906C0.63621 7.14008 0.63621 9.85998 2.55487 10.681C2.74078 10.7606 2.82918 10.974 2.75398 11.1617C1.97783 13.0989 3.90109 15.0222 5.83834 14.246C6.02605 14.1708 6.23947 14.2592 6.31903 14.4452C7.14005 16.3638 9.85995 16.3638 10.681 14.4452C10.7605 14.2592 10.9739 14.1708 11.1617 14.246C13.0989 15.0222 15.0222 13.0989 14.246 11.1617C14.1708 10.974 14.2592 10.7606 14.4451 10.681C16.3638 9.85998 16.3638 7.14008 14.4451 6.31906C14.2592 6.2395 14.1708 6.02608 14.246 5.83837C15.0222 3.90112 13.0989 1.97786 11.1617 2.75401C10.9739 2.82922 10.7605 2.74081 10.681 2.5549ZM8.15775 3.34172C8.28659 3.04064 8.7134 3.04064 8.84224 3.34172C9.34921 4.52646 10.7093 5.08981 11.9055 4.61055C12.2095 4.48875 12.5113 4.79056 12.3895 5.09455C11.9102 6.29077 12.4736 7.65082 13.6583 8.15779C13.9594 8.28662 13.9594 8.71344 13.6583 8.84227C12.4736 9.34924 11.9102 10.7093 12.3895 11.9055C12.5113 12.2095 12.2095 12.5113 11.9055 12.3895C10.7093 11.9102 9.34921 12.4736 8.84224 13.6583C8.7134 13.9594 8.28659 13.9594 8.15775 13.6583C7.65079 12.4736 6.29074 11.9102 5.09452 12.3895C4.79053 12.5113 4.48872 12.2095 4.61052 11.9055C5.08978 10.7093 4.52643 9.34924 3.34169 8.84227C3.04061 8.71344 3.04061 8.28662 3.34169 8.15779C4.52643 7.65082 5.08978 6.29077 4.61052 5.09455C4.48872 4.79056 4.79053 4.48875 5.09452 4.61055C6.29074 5.08981 7.65079 4.52646 8.15775 3.34172Z" fill="black"/>
</svg>
