<svg width="32" height="32" viewBox="0 0 32 32" fill="none" xmlns="http://www.w3.org/2000/svg">
<rect width="32" height="32" fill="white"/>
<path d="M20.7682 12.6402C21.1218 12.2159 21.0645 11.5854 20.6402 11.2318C20.2159 10.8782 19.5853 10.9356 19.2318 11.3598L14.8824 16.5791L12.6525 14.6589C12.234 14.2985 11.6026 14.3456 11.2422 14.7641C10.8819 15.1826 10.929 15.814 11.3475 16.1744L14.3475 18.7578C14.5506 18.9327 14.8154 19.0187 15.0825 18.9966C15.3496 18.9745 15.5966 18.8461 15.7682 18.6402L20.7682 12.6402Z" fill="black"/>
<path fill-rule="evenodd" clip-rule="evenodd" d="M19.2942 4.15632C18.0541 1.25836 13.9459 1.25836 12.7059 4.15632L12.4954 4.64818C12.1571 5.4388 11.2495 5.81474 10.4512 5.49491L9.95456 5.29594C7.02853 4.12364 4.12362 7.02854 5.29592 9.95458L5.4949 10.4512C5.81472 11.2495 5.43878 12.1571 4.64817 12.4954L4.1563 12.7059C1.25835 13.9459 1.25834 18.0541 4.1563 19.2942L4.64817 19.5047C5.43878 19.843 5.81472 20.7506 5.4949 21.5488L5.29592 22.0455C4.12362 24.9715 7.02853 27.8764 9.95456 26.7041L10.4512 26.5051C11.2495 26.1853 12.1571 26.5612 12.4954 27.3519L12.7059 27.8437C13.9459 30.7417 18.0541 30.7417 19.2942 27.8437L19.5046 27.3519C19.843 26.5612 20.7505 26.1853 21.5488 26.5051L22.0455 26.7041C24.9715 27.8764 27.8764 24.9715 26.7041 22.0455L26.5051 21.5488C26.1853 20.7506 26.5612 19.843 27.3518 19.5047L27.8437 19.2942C30.7417 18.0541 30.7417 13.9459 27.8437 12.7059L27.3518 12.4954C26.5612 12.1571 26.1853 11.2495 26.5051 10.4512L26.7041 9.95458C27.8764 7.02855 24.9715 4.12364 22.0455 5.29594L21.5488 5.49491C20.7505 5.81474 19.843 5.4388 19.5046 4.64818L19.2942 4.15632ZM14.5446 4.94313C15.0925 3.66276 16.9075 3.66275 17.4554 4.94313L17.6659 5.435C18.4316 7.22444 20.4859 8.07533 22.2926 7.35145L22.7893 7.15248C24.082 6.63453 25.3655 7.91798 24.8476 9.21076L24.6486 9.70739C23.9247 11.5142 24.7756 13.5684 26.565 14.3341L27.0569 14.5446C28.3373 15.0925 28.3373 16.9076 27.0569 17.4554L26.565 17.6659C24.7756 18.4317 23.9247 20.4859 24.6486 22.2927L24.8476 22.7893C25.3655 24.0821 24.0821 25.3655 22.7893 24.8476L22.2926 24.6486C20.4859 23.9247 18.4316 24.7756 17.6659 26.565L17.4554 27.0569C16.9075 28.3373 15.0925 28.3373 14.5446 27.0569L14.3341 26.565C13.5684 24.7756 11.5142 23.9247 9.70738 24.6486L9.21074 24.8476C7.91797 25.3655 6.63452 24.0821 7.15246 22.7893L7.35144 22.2927C8.07532 20.4859 7.22443 18.4317 5.43498 17.6659L4.94312 17.4554C3.66274 16.9076 3.66274 15.0925 4.94312 14.5446L5.43498 14.3341C7.22443 13.5684 8.07532 11.5142 7.35144 9.70739L7.15246 9.21076C6.63452 7.91798 7.91796 6.63453 9.21075 7.15248L9.70738 7.35145C11.5142 8.07533 13.5684 7.22444 14.3341 5.435L14.5446 4.94313Z" fill="black"/>
</svg>
