<svg width="16" height="16" viewBox="0 0 16 16" fill="none" xmlns="http://www.w3.org/2000/svg">
<g clip-path="url(#clip0)">
<rect width="16" height="16" fill="white"/>
<path d="M7.23839 2.94828C7.71332 1.83841 9.28668 1.83841 9.76161 2.94828V2.94828C10.0549 3.63361 10.8416 3.95948 11.5336 3.68225V3.68225C12.6542 3.23328 13.7667 4.34581 13.3178 5.46643V5.46643C13.0405 6.1584 13.3664 6.94513 14.0517 7.23839V7.23839C15.1616 7.71332 15.1616 9.28668 14.0517 9.76161V9.76161C13.3664 10.0549 13.0405 10.8416 13.3178 11.5336V11.5336C13.7667 12.6542 12.6542 13.7667 11.5336 13.3178V13.3178C10.8416 13.0405 10.0549 13.3664 9.76161 14.0517V14.0517C9.28668 15.1616 7.71332 15.1616 7.23839 14.0517V14.0517C6.94513 13.3664 6.1584 13.0405 5.46643 13.3178V13.3178C4.34581 13.7667 3.23328 12.6542 3.68225 11.5336V11.5336C3.95948 10.8416 3.63361 10.0549 2.94828 9.76161V9.76161C1.83841 9.28668 1.83841 7.71332 2.94828 7.23839V7.23839C3.63361 6.94513 3.95948 6.1584 3.68225 5.46643V5.46643C3.23328 4.34581 4.34581 3.23328 5.46643 3.68225V3.68225C6.1584 3.95948 6.94513 3.63361 7.23839 2.94828V2.94828Z" stroke="black" stroke-width="2" stroke-linecap="round" stroke-linejoin="round"/>
<path d="M7 8.13888L8.125 9L10 7" stroke="black" stroke-width="2" stroke-linecap="round" stroke-linejoin="round"/>
</g>
<defs>
<clipPath id="clip0">
<rect width="16" height="16" fill="white"/>
</clipPath>
</defs>
</svg>
