<svg width="32" height="32" viewBox="0 0 32 32" fill="none" xmlns="http://www.w3.org/2000/svg">
<rect width="32" height="32" fill="white"/>
<path d="M7 2C4.23858 2 2 4.23858 2 7V9C2 9.55229 2.44772 10 3 10C3.55228 10 4 9.55229 4 9V7C4 5.34315 5.34315 4 7 4H9C9.55229 4 10 3.55228 10 3C10 2.44772 9.55229 2 9 2H7Z" fill="black"/>
<path d="M25 2C27.7614 2 30 4.23858 30 7V9C30 9.55229 29.5523 10 29 10C28.4477 10 28 9.55229 28 9V7C28 5.34315 26.6569 4 25 4H23C22.4477 4 22 3.55228 22 3C22 2.44772 22.4477 2 23 2H25Z" fill="black"/>
<path d="M2 25C2 27.7614 4.23858 30 7 30H9C9.55229 30 10 29.5523 10 29C10 28.4477 9.55229 28 9 28H7C5.34315 28 4 26.6569 4 25V23C4 22.4477 3.55228 22 3 22C2.44772 22 2 22.4477 2 23V25Z" fill="black"/>
<path d="M25 30C27.7614 30 30 27.7614 30 25V23C30 22.4477 29.5523 22 29 22C28.4477 22 28 22.4477 28 23V25C28 26.6569 26.6569 28 25 28H23C22.4477 28 22 28.4477 22 29C22 29.5523 22.4477 30 23 30H25Z" fill="black"/>
<path d="M12 10C12.5523 10 13 10.4477 13 11L13 14C13 14.5523 12.5523 15 12 15C11.4477 15 11 14.5523 11 14L11 11C11 10.4477 11.4477 10 12 10Z" fill="black"/>
<path d="M20 10C20.5523 10 21 10.4477 21 11L21 14C21 14.5523 20.5523 15 20 15C19.4477 15 19 14.5523 19 14L19 11C19 10.4477 19.4477 10 20 10Z" fill="black"/>
<path d="M16 24C18.1295 24 20.1786 23.1834 21.6947 21.7193C22.0919 21.3357 22.103 20.7026 21.7193 20.3053C21.3357 19.9081 20.7026 19.897 20.3053 20.2807C19.1693 21.3778 17.6212 22 16 22C14.3788 22 12.8307 21.3778 11.6947 20.2807C11.2974 19.897 10.6643 19.9081 10.2807 20.3053C9.89701 20.7026 9.90806 21.3357 10.3053 21.7193C11.8214 23.1834 13.8705 24 16 24Z" fill="black"/>
</svg>
