<svg width="16" height="16" viewBox="0 0 16 16" fill="none" xmlns="http://www.w3.org/2000/svg">
<rect width="16" height="16" fill="white"/>
<path d="M14 15C14.5523 15 15 14.5523 15 14C15 13.4477 14.5523 13 14 13V15ZM6.39937 4.98515C6.00884 4.59463 5.37568 4.59463 4.98515 4.98515C4.59463 5.37568 4.59463 6.00884 4.98515 6.39937L6.39937 4.98515ZM5.44669 6.86091C5.83722 7.25143 6.47038 7.25143 6.86091 6.86091C7.25143 6.47038 7.25143 5.83722 6.86091 5.44669L5.44669 6.86091ZM11.0148 6.39937C11.4054 6.00884 11.4054 5.37568 11.0148 4.98515C10.6243 4.59463 9.99116 4.59463 9.60063 4.98515L11.0148 6.39937ZM9.13909 5.44669C8.74857 5.83722 8.74857 6.47038 9.13909 6.86091C9.52962 7.25143 10.1628 7.25143 10.5533 6.86091L9.13909 5.44669ZM4.98515 9.60063C4.59463 9.99116 4.59463 10.6243 4.98515 11.0148C5.37568 11.4054 6.00884 11.4054 6.39937 11.0148L4.98515 9.60063ZM6.86091 10.5533C7.25143 10.1628 7.25143 9.52962 6.86091 9.13909C6.47038 8.74857 5.83722 8.74857 5.44669 9.13909L6.86091 10.5533ZM9.60063 11.0148C9.99116 11.4054 10.6243 11.4054 11.0148 11.0148C11.4054 10.6243 11.4054 9.99116 11.0148 9.60063L9.60063 11.0148ZM10.5533 9.13909C10.1628 8.74857 9.52962 8.74857 9.13909 9.13909C8.74857 9.52962 8.74857 10.1628 9.13909 10.5533L10.5533 9.13909ZM13 8C13 10.7614 10.7614 13 8 13V15C11.866 15 15 11.866 15 8H13ZM8 13C5.23858 13 3 10.7614 3 8H1C1 11.866 4.13401 15 8 15V13ZM3 8C3 5.23858 5.23858 3 8 3V1C4.13401 1 1 4.13401 1 8H3ZM8 3C10.7614 3 13 5.23858 13 8H15C15 4.13401 11.866 1 8 1V3ZM8 15H14V13H8V15ZM4.98515 6.39937L5.44669 6.86091L6.86091 5.44669L6.39937 4.98515L4.98515 6.39937ZM9.60063 4.98515L9.13909 5.44669L10.5533 6.86091L11.0148 6.39937L9.60063 4.98515ZM6.39937 11.0148L6.86091 10.5533L5.44669 9.13909L4.98515 9.60063L6.39937 11.0148ZM11.0148 9.60063L10.5533 9.13909L9.13909 10.5533L9.60063 11.0148L11.0148 9.60063Z" fill="black"/>
</svg>
