<svg width="32" height="32" viewBox="0 0 32 32" fill="none" xmlns="http://www.w3.org/2000/svg">
<rect width="32" height="32" fill="white"/>
<path d="M29 30C29.5523 30 30 29.5523 30 29C30 28.4477 29.5523 28 29 28V30ZM11.7071 10.2929C11.3166 9.90237 10.6834 9.90237 10.2929 10.2929C9.90237 10.6834 9.90237 11.3166 10.2929 11.7071L11.7071 10.2929ZM11.2929 12.7071C11.6834 13.0976 12.3166 13.0976 12.7071 12.7071C13.0976 12.3166 13.0976 11.6834 12.7071 11.2929L11.2929 12.7071ZM21.7071 11.7071C22.0976 11.3166 22.0976 10.6834 21.7071 10.2929C21.3166 9.90237 20.6834 9.90237 20.2929 10.2929L21.7071 11.7071ZM19.2929 11.2929C18.9024 11.6834 18.9024 12.3166 19.2929 12.7071C19.6834 13.0976 20.3166 13.0976 20.7071 12.7071L19.2929 11.2929ZM10.2929 20.2929C9.90237 20.6834 9.90237 21.3166 10.2929 21.7071C10.6834 22.0976 11.3166 22.0976 11.7071 21.7071L10.2929 20.2929ZM12.7071 20.7071C13.0976 20.3166 13.0976 19.6834 12.7071 19.2929C12.3166 18.9024 11.6834 18.9024 11.2929 19.2929L12.7071 20.7071ZM20.2929 21.7071C20.6834 22.0976 21.3166 22.0976 21.7071 21.7071C22.0976 21.3166 22.0976 20.6834 21.7071 20.2929L20.2929 21.7071ZM20.7071 19.2929C20.3166 18.9024 19.6834 18.9024 19.2929 19.2929C18.9024 19.6834 18.9024 20.3166 19.2929 20.7071L20.7071 19.2929ZM28 16C28 22.6274 22.6274 28 16 28V30C23.732 30 30 23.732 30 16H28ZM16 28C9.37258 28 4 22.6274 4 16H2C2 23.732 8.26801 30 16 30V28ZM4 16C4 9.37258 9.37258 4 16 4V2C8.26801 2 2 8.26801 2 16H4ZM16 4C22.6274 4 28 9.37258 28 16H30C30 8.26801 23.732 2 16 2V4ZM16 30H29V28H16V30ZM10.2929 11.7071L11.2929 12.7071L12.7071 11.2929L11.7071 10.2929L10.2929 11.7071ZM20.2929 10.2929L19.2929 11.2929L20.7071 12.7071L21.7071 11.7071L20.2929 10.2929ZM11.7071 21.7071L12.7071 20.7071L11.2929 19.2929L10.2929 20.2929L11.7071 21.7071ZM21.7071 20.2929L20.7071 19.2929L19.2929 20.7071L20.2929 21.7071L21.7071 20.2929Z" fill="black"/>
</svg>
