<svg width="32" height="32" viewBox="0 0 32 32" fill="none" xmlns="http://www.w3.org/2000/svg">
<rect width="32" height="32" fill="white"/>
<path d="M24.5245 6.70258C24.0543 6.41288 23.4383 6.55921 23.1486 7.02941C22.8589 7.49962 23.0052 8.11564 23.4755 8.40534L24.5245 6.70258ZM23.4755 24.5946C23.0052 24.8843 22.8589 25.5003 23.1486 25.9705C23.4383 26.4407 24.0543 26.587 24.5245 26.2973L23.4755 24.5946ZM23.6524 13.2421C23.2339 12.8818 22.6025 12.929 22.2421 13.3476C21.8818 13.7661 21.929 14.3975 22.3476 14.7579L23.6524 13.2421ZM22.3476 18.2421C21.929 18.6025 21.8818 19.2339 22.2421 19.6524C22.6025 20.071 23.2339 20.1182 23.6524 19.7579L22.3476 18.2421ZM13.982 4.56184L13.3093 3.8219L13.3093 3.8219L13.982 4.56184ZM13.982 27.4382L13.3093 28.1781H13.3093L13.982 27.4382ZM8.28607 22.2601L8.95874 21.5201L8.28607 22.2601ZM8.28607 9.73994L7.61339 9L8.28607 9.73994ZM23.4755 8.40534C26.1924 10.0793 28 13.079 28 16.5H30C30 12.3562 27.8077 8.72539 24.5245 6.70258L23.4755 8.40534ZM28 16.5C28 19.921 26.1924 22.9206 23.4755 24.5946L24.5245 26.2973C27.8077 24.2745 30 20.6437 30 16.5H28ZM22.3476 14.7579C22.6823 15.046 23 15.6696 23 16.5H25C25 15.2164 24.5178 13.9871 23.6524 13.2421L22.3476 14.7579ZM23 16.5C23 17.3304 22.6823 17.954 22.3476 18.2421L23.6524 19.7579C24.5178 19.0129 25 17.7836 25 16.5H23ZM4 18V14H2V18H4ZM7 11H7.61339V9H7V11ZM7.61339 21H7V23H7.61339V21ZM2 18C2 20.7614 4.23858 23 7 23V21C5.34315 21 4 19.6569 4 18H2ZM4 14C4 12.3431 5.34315 11 7 11V9C4.23858 9 2 11.2386 2 14H4ZM8.95874 10.4799L14.6547 5.30178L13.3093 3.8219L7.61339 9L8.95874 10.4799ZM18 6.78166V25.2183H20V6.78166H18ZM14.6547 26.6982L8.95874 21.5201L7.61339 23L13.3093 28.1781L14.6547 26.6982ZM18 25.2183C18 26.9546 15.9394 27.8662 14.6547 26.6982L13.3093 28.1781C15.8788 30.514 20 28.6909 20 25.2183H18ZM14.6546 5.30178C15.9394 4.13383 18 5.04538 18 6.78166H20C20 3.30909 15.8788 1.486 13.3093 3.8219L14.6546 5.30178ZM7.61339 23H7.61339L8.95874 21.5201C8.5906 21.1854 8.11093 21 7.61339 21V23ZM7.61339 11C8.11093 11 8.59059 10.8146 8.95874 10.4799L7.61339 9V11Z" fill="black"/>
</svg>
