<svg width="32" height="32" viewBox="0 0 32 32" fill="none" xmlns="http://www.w3.org/2000/svg">
<rect width="32" height="32" fill="white"/>
<path d="M3 7H2H3ZM3 25H4H3ZM25 29V28V29ZM7 29V30H7L7 29ZM29 7.00004H28H29ZM29 25H30H29ZM25 3.00004L25 2.00004L25 3.00004ZM7.00001 3L7.00001 4L7.00001 3ZM16 15H15H16ZM16 17H17H16ZM29 21V22C29.5523 22 30 21.5523 30 21H29ZM20 21V22V21ZM29 11H30V10L29 10L29 11ZM20 11L20 12L20 11ZM21 16V18C22.1046 18 23 17.1046 23 16H21ZM21 16H19C19 17.1046 19.8954 18 21 18V16ZM21 16V14C19.8954 14 19 14.8954 19 16H21ZM21 16H23C23 14.8954 22.1046 14 21 14V16ZM2 7L2 25H4L4 7H2ZM25 28L7 28L7 30L25 30V28ZM28 7.00004V25H30V7.00004H28ZM25 2.00004L7.00001 2L7.00001 4L25 4.00004L25 2.00004ZM30 7.00004C30 4.23862 27.7614 2.00005 25 2.00004L25 4.00004C26.6569 4.00004 28 5.34319 28 7.00004H30ZM4 7C4 5.34314 5.34315 4 7.00001 4L7.00001 2C4.23858 1.99999 2 4.23857 2 7H4ZM2 25C2 27.7614 4.23857 30 7 30V28C5.34314 28 4 26.6568 4 25H2ZM25 30C27.7614 30 30 27.7614 30 25H28C28 26.6568 26.6569 28 25 28V30ZM15 15V17H17V15H15ZM29 20L20 20V22L29 22V20ZM28 11L28 21H30L30 11H28ZM29 10L20 10L20 12L29 12L29 10ZM17 15C17 13.3431 18.3431 12 20 12L20 10C17.2386 9.99999 15 12.2386 15 15H17ZM15 17C15 19.7614 17.2386 22 20 22V20C18.3431 20 17 18.6568 17 17H15Z" fill="black"/>
</svg>
