<svg width="32" height="32" viewBox="0 0 32 32" fill="none" xmlns="http://www.w3.org/2000/svg">
<rect width="32" height="32" fill="white"/>
<path fill-rule="evenodd" clip-rule="evenodd" d="M23.8565 14.4835C23.1478 10.7904 19.8998 8 16 8C11.5817 8 8 11.5817 8 16C8 20.4183 11.5817 24 16 24C20.4183 24 24 20.4183 24 16C24 15.7502 23.9885 15.503 23.9661 15.259C23.9882 15.1764 24 15.0896 24 15C24 14.811 23.9476 14.6343 23.8565 14.4835ZM16 10C12.6863 10 10 12.6863 10 16C10.5301 16 10.8912 15.7447 11.5383 15.2221L11.5946 15.1765C12.1846 14.6989 13.0479 14 14.3333 14C15.6188 14 16.482 14.6989 17.072 15.1765L17.1283 15.2221C17.7754 15.7447 18.1365 16 18.6667 16C19.1968 16 19.5579 15.7447 20.205 15.2221L20.2613 15.1765C20.6328 14.8757 21.1126 14.4873 21.738 14.2408C20.9861 11.7855 18.7016 10 16 10ZM21.9886 16.3728C21.8311 16.483 21.6598 16.6179 21.4617 16.7779L21.4054 16.8235C20.8154 17.3011 19.9521 18 18.6667 18C17.3812 18 16.518 17.3011 15.928 16.8235L15.8717 16.7779C15.2246 16.2553 14.8635 16 14.3333 16C13.8032 16 13.4421 16.2553 12.795 16.7779L12.7387 16.8235C12.2016 17.2583 11.4381 17.8764 10.3357 17.9838C11.1548 20.3226 13.3815 22 16 22C19.1885 22 21.7961 19.5128 21.9886 16.3728Z" fill="black"/>
<path fill-rule="evenodd" clip-rule="evenodd" d="M26 30H6C4.34315 30 3 28.6569 3 27V5C3 3.34315 4.34314 2 6 2H26C27.6568 2 29 3.34314 29 5L29 27C29 28.6568 27.6569 30 26 30ZM26 28C26.5523 28 27 27.5523 27 27L27 5C27 4.44771 26.5523 4 26 4L6 4C5.44771 4 5 4.44771 5 5L5 27C5 27.5523 5.44772 28 6 28H26Z" fill="black"/>
</svg>
