<svg width="32" height="32" viewBox="0 0 32 32" fill="none" xmlns="http://www.w3.org/2000/svg">
<rect width="32" height="32" fill="white"/>
<path fill-rule="evenodd" clip-rule="evenodd" d="M9.47521 2.05687C9.9961 2.24042 10.2696 2.81149 10.086 3.33238L9.07635 6.19765C11.0325 4.81343 13.4213 4.00003 16 4.00003C18.5787 4.00003 20.9675 4.81343 22.9237 6.19765L21.914 3.33238C21.7304 2.81149 22.0039 2.24042 22.5248 2.05687C23.0457 1.87332 23.6167 2.14679 23.8003 2.66768L26.3679 9.95404C27.4054 11.7294 28 13.7953 28 16C28 18.2048 27.4054 20.2706 26.3679 22.046L23.8003 29.3324C23.6167 29.8533 23.0457 30.1267 22.5248 29.9432C22.0039 29.7596 21.7304 29.1886 21.914 28.6677L22.9237 25.8024C20.9675 27.1866 18.5787 28 16 28C13.4213 28 11.0325 27.1866 9.07634 25.8024L10.086 28.6677C10.2696 29.1886 9.9961 29.7596 9.47521 29.9432C8.95432 30.1267 8.38325 29.8533 8.1997 29.3324L5.63213 22.046C4.59458 20.2706 4 18.2048 4 16C4 13.7953 4.59458 11.7294 5.63213 9.95404L8.1997 2.66768C8.38325 2.14679 8.95432 1.87332 9.47521 2.05687ZM7.43808 10.8306C6.52533 12.3391 6 14.1082 6 16C6 17.8918 6.52533 19.661 7.43808 21.1695L7.44316 21.1677L7.45169 21.1919C9.20638 24.0748 12.3784 26 16 26C19.6216 26 22.7936 24.0748 24.5483 21.1919L24.5568 21.1677L24.5619 21.1695C25.4747 19.661 26 17.8918 26 16C26 14.1082 25.4747 12.3391 24.5619 10.8306L24.5568 10.8324L24.5483 10.8082C22.7936 7.92528 19.6216 6.00003 16 6.00003C12.3784 6.00003 9.20638 7.92528 7.45169 10.8082L7.44316 10.8324L7.43808 10.8306ZM16 9.41665C16.5523 9.41665 17 9.86437 17 10.4167V15.8721L20.5425 18.16C21.0065 18.4596 21.1397 19.0786 20.84 19.5426C20.5404 20.0065 19.9214 20.1397 19.4575 19.8401L15.4575 17.2567C15.1723 17.0725 15 16.7562 15 16.4167V10.4167C15 9.86437 15.4477 9.41665 16 9.41665Z" fill="black"/>
</svg>
