<svg width="16" height="16" viewBox="0 0 16 16" fill="none" xmlns="http://www.w3.org/2000/svg">
<rect width="16" height="16" fill="white"/>
<path d="M2.49685 12.3321L1.80884 11.6064C1.78933 11.6249 1.77057 11.6442 1.75261 11.6642L2.49685 12.3321ZM12.7589 14V13V14ZM3.2411 14V15H3.2411L3.2411 14ZM13.5032 12.3321L14.2474 11.6642C14.2294 11.6442 14.2107 11.6249 14.1912 11.6064L13.5032 12.3321ZM12 7C12 9.20914 10.2092 11 8.00001 11V13C11.3137 13 14 10.3137 14 7H12ZM8.00001 11C5.79087 11 4.00001 9.20914 4.00001 7H2.00001C2.00001 10.3137 4.6863 13 8.00001 13V11ZM4.00001 7C4.00001 4.79086 5.79087 3 8.00001 3V1C4.6863 1 2.00001 3.68629 2.00001 7H4.00001ZM8.00001 3C10.2092 3 12 4.79086 12 7H14C14 3.68629 11.3137 1 8.00001 1V3ZM9.00001 7C9.00001 7.55228 8.5523 8 8.00001 8V10C9.65687 10 11 8.65685 11 7H9.00001ZM8.00001 8C7.44773 8 7.00001 7.55229 7.00001 7H5.00001C5.00001 8.65685 6.34316 10 8.00001 10V8ZM7.00001 7C7.00001 6.44771 7.44773 6 8.00001 6V4C6.34316 4 5.00001 5.34315 5.00001 7H7.00001ZM8.00001 6C8.5523 6 9.00001 6.44772 9.00001 7H11C11 5.34315 9.65687 4 8.00001 4V6ZM3.74128 9.7743L1.80884 11.6064L3.18487 13.0578L5.11731 11.2257L3.74128 9.7743ZM12.7589 13L3.2411 13L3.2411 15L12.7589 15V13ZM10.8827 11.2257L12.8151 13.0578L14.1912 11.6064L12.2587 9.7743L10.8827 11.2257ZM1.75261 11.6642C0.596997 12.9519 1.5109 15 3.2411 15V13L3.2411 13L1.75261 11.6642ZM12.7589 15C14.4891 15 15.403 12.9519 14.2474 11.6642L12.7589 13V15Z" fill="black"/>
</svg>
