<svg width="32" height="32" viewBox="0 0 32 32" fill="none" xmlns="http://www.w3.org/2000/svg">
<rect width="32" height="32" fill="white"/>
<path d="M3.58688 7.98468C7.0456 5.47777 11.2974 4 15.8973 4C20.4971 4 24.7489 5.47777 28.2076 7.98468C28.6548 8.3088 29.2801 8.20904 29.6042 7.76186C29.9283 7.31468 29.8286 6.68943 29.3814 6.36531C25.5927 3.61928 20.9326 2 15.8973 2C10.8619 2 6.20178 3.61928 2.41315 6.36531C1.96597 6.68943 1.86621 7.31468 2.19033 7.76186C2.51444 8.20904 3.1397 8.3088 3.58688 7.98468Z" fill="black"/>
<path d="M15.8971 11C12.632 11 9.61322 12.0421 7.15137 13.812C6.70294 14.1343 6.07807 14.0322 5.75569 13.5837C5.43331 13.1353 5.53549 12.5104 5.98391 12.188C8.77461 10.1818 12.1993 9 15.8971 9C19.5949 9 23.0196 10.1818 25.8103 12.188C26.2587 12.5104 26.3609 13.1353 26.0385 13.5837C25.7161 14.0322 25.0912 14.1343 24.6428 13.812C22.181 12.0421 19.1622 11 15.8971 11Z" fill="black"/>
<path d="M10.7306 19.6297C12.1926 18.6027 13.973 18 15.8972 18C17.8214 18 19.6018 18.6027 21.0639 19.6297C21.5158 19.9472 22.1395 19.8382 22.457 19.3862C22.7744 18.9343 22.6654 18.3106 22.2135 17.9931C20.4257 16.7373 18.2461 16 15.8972 16C13.5483 16 11.3687 16.7373 9.58095 17.9931C9.12902 18.3106 9.02001 18.9343 9.33747 19.3862C9.65492 19.8382 10.2786 19.9472 10.7306 19.6297Z" fill="black"/>
<path fill-rule="evenodd" clip-rule="evenodd" d="M15.8972 22C13.6881 22 11.8972 23.7909 11.8972 26C11.8972 28.2091 13.6881 30 15.8972 30C18.1064 30 19.8972 28.2091 19.8972 26C19.8972 23.7909 18.1064 22 15.8972 22ZM13.8972 26C13.8972 24.8954 14.7926 24 15.8972 24C17.0018 24 17.8972 24.8954 17.8972 26C17.8972 27.1046 17.0018 28 15.8972 28C14.7926 28 13.8972 27.1046 13.8972 26Z" fill="black"/>
</svg>
