<svg width="16" height="16" viewBox="0 0 16 16" fill="none" xmlns="http://www.w3.org/2000/svg">
<rect width="16" height="16" fill="white"/>
<path d="M1.3753 3.21913C0.944042 3.56414 0.87412 4.19343 1.21913 4.6247C1.56357 5.05524 2.19135 5.12565 2.62255 4.78258C4.10156 3.62326 6.14558 3 8 3C9.86572 3 11.8849 3.63031 13.3769 4.78218C13.8081 5.1257 14.4363 5.05541 14.7809 4.6247C15.1259 4.19343 15.056 3.56414 14.6247 3.21913C12.7818 1.75703 10.3394 1 8 1C5.70831 1 3.18988 1.76949 1.3753 3.21913Z" fill="black"/>
<path d="M6 13C6 11.8954 6.89543 11 8 11C9.10457 11 10 11.8954 10 13C10 14.1046 9.10457 15 8 15C6.89543 15 6 14.1046 6 13Z" fill="black"/>
<path d="M4.88975 9.05313C5.03307 8.94096 5.25295 8.78521 5.54135 8.6279C6.11848 8.3131 6.95449 8 8 8C9.04551 8 9.88152 8.3131 10.4586 8.6279C10.7471 8.78521 10.9669 8.94096 11.1103 9.05313C11.1745 9.10343 11.2974 9.21159 11.2974 9.21159C11.6883 9.59762 12.3181 9.59613 12.7071 9.20711C13.0976 8.81658 13.0976 8.18342 12.7071 7.79289C12.3026 7.44336 11.8883 7.12954 11.4164 6.8721C10.6185 6.4369 9.45449 6 8 6C6.54551 6 5.38152 6.4369 4.58365 6.8721C4.11168 7.12954 3.69735 7.44336 3.29289 7.79289C2.90237 8.18342 2.90237 8.81658 3.29289 9.20711C3.68191 9.59613 4.31172 9.59762 4.7026 9.21159C4.7026 9.21159 4.82547 9.10343 4.88975 9.05313Z" fill="black"/>
</svg>
