<svg width="32" height="32" viewBox="0 0 32 32" fill="none" xmlns="http://www.w3.org/2000/svg">
<rect width="32" height="32" fill="white"/>
<path d="M27.9982 9.35804C27.9994 9.40522 28 9.45254 28 9.5C28 12.5376 25.5479 15 22.523 15H2M27.9982 9.35804C27.9232 6.38608 25.5006 4 22.523 4M27.9982 9.35804C27.9229 6.38608 25.4901 4 22.5 4C19.4624 4 17 6.46243 17 9.5M15.9988 24.1032C15.9996 24.0689 16 24.0345 16 24C16 21.7909 14.3024 20 12.2082 20H4M15.9988 24.1032C15.9469 26.2647 14.2696 28 12.2082 28M15.9988 24.1032C15.9466 26.2647 14.2624 28 12.1923 28C10.0894 28 8.38462 26.2091 8.38462 24M26.9992 22.5645C26.9997 22.5431 27 22.5216 27 22.5C27 21.1193 25.8682 20 24.4721 20H20M26.9992 22.5645C26.9646 23.9154 25.8464 25 24.4721 25M26.9992 22.5645C26.9644 23.9154 25.8416 25 24.4615 25" stroke="black" stroke-width="2" stroke-linecap="round" stroke-linejoin="round"/>
</svg>
