<svg width="32" height="32" viewBox="0 0 32 32" fill="none" xmlns="http://www.w3.org/2000/svg">
<rect width="32" height="32" fill="white"/>
<path d="M22.5164 3.00002L22.523 3C26.0202 3 28.8639 5.7791 28.9953 9.249C28.9984 9.33228 29 9.41596 29 9.5C29 13.0859 26.1041 16 22.523 16H2C1.44772 16 1 15.5523 1 15C1 14.4477 1.44772 14 2 14H22.523C24.9916 14 27 11.9892 27 9.5C27 9.45166 26.9992 9.4035 26.9977 9.35553C26.9215 6.93711 24.9369 5 22.5 5C20.0147 5 18 7.01472 18 9.5C18 10.0523 17.5523 10.5 17 10.5C16.4477 10.5 16 10.0523 16 9.5C16 5.91015 18.9101 3 22.5 3L22.5164 3.00002Z" fill="black"/>
<path d="M12.2031 29L12.2082 29C14.8622 29 16.9344 26.7814 16.9985 24.1267C16.9995 24.0846 17 24.0423 17 24C17 21.2896 14.9043 19 12.2082 19H4C3.44772 19 3 19.4477 3 20C3 20.5523 3.44772 21 4 21H12.2082C13.7004 21 15 22.2921 15 24C15 24.0271 14.9997 24.0541 14.999 24.081C14.9585 25.7448 13.6731 27 12.1923 27C10.6875 27 9.38462 25.7039 9.38462 24C9.38462 23.4477 8.9369 23 8.38462 23C7.83233 23 7.38462 23.4477 7.38462 24C7.38462 26.7144 9.49124 29 12.1923 29L12.2031 29Z" fill="black"/>
<path d="M24.4721 26L24.4684 26L24.4615 26C23.9093 26 23.4615 25.5523 23.4615 25C23.4615 24.4477 23.9093 24 24.4615 24C25.3144 24 25.9824 23.3318 25.9997 22.5317C25.9999 22.5212 26 22.5106 26 22.5C26 21.682 25.3264 21 24.4721 21H20C19.4477 21 19 20.5523 19 20C19 19.4477 19.4477 19 20 19H24.4721C26.4101 19 28 20.5566 28 22.5C28 22.5304 27.9996 22.5606 27.9988 22.5908C27.9502 24.4917 26.3798 26 24.4721 26Z" fill="black"/>
</svg>
