<svg width="32" height="32" viewBox="0 0 32 32" fill="none" xmlns="http://www.w3.org/2000/svg">
<rect width="32" height="32" fill="white"/>
<path d="M3 5V26.9111C3 28.0648 3.93525 29 5.08894 29C5.9115 29 6.6218 28.4242 6.79203 27.6195L11.7447 4.20696C11.8762 3.58515 11.4019 3 10.7663 3H5C3.89543 3 3 3.89543 3 5Z" fill="white"/>
<path d="M29 5V26.9111C29 28.0648 28.0648 29 26.9111 29C26.0885 29 25.3782 28.4242 25.208 27.6195L20.2553 4.20696C20.1238 3.58515 20.5981 3 21.2337 3H27C28.1046 3 29 3.89543 29 5Z" fill="white"/>
<path d="M25 27L7 27M11.5 5L16 5M16 5L20.5 5M16 5L16 27M3 26.9111V5C3 3.89543 3.89543 3 5 3H10.7663C11.4019 3 11.8762 3.58515 11.7447 4.20696L6.79203 27.6195C6.6218 28.4242 5.9115 29 5.08894 29C3.93525 29 3 28.0648 3 26.9111ZM29 26.9111V5C29 3.89543 28.1046 3 27 3H21.2337C20.5981 3 20.1238 3.58515 20.2553 4.20696L25.208 27.6195C25.3782 28.4242 26.0885 29 26.9111 29C28.0648 29 29 28.0648 29 26.9111Z" stroke="black" stroke-width="2"/>
</svg>
