<svg width="32" height="32" viewBox="0 0 32 32" fill="none" xmlns="http://www.w3.org/2000/svg">
<rect width="32" height="32" fill="white"/>
<path fill-rule="evenodd" clip-rule="evenodd" d="M5 2C3.34315 2 2 3.34315 2 5V26.9111C2 28.617 3.38296 30 5.08894 30C6.38402 30 7.50235 29.0935 7.77038 27.8264L7.94521 27L24.0548 27L24.2296 27.8264C24.4976 29.0935 25.616 30 26.9111 30C28.617 30 30 28.617 30 26.9111V5C30 3.34315 28.6569 2 27 2H21.2337C19.9625 2 19.0139 3.1703 19.277 4.41392L19.4009 5H12.5991L12.723 4.41392C12.9861 3.1703 12.0375 2 10.7663 2H5ZM4 5C4 4.44772 4.44772 4 5 4H10.7663L5.81368 27.4125C5.74124 27.755 5.43898 28 5.08894 28C4.48753 28 4 27.5125 4 26.9111V5ZM19.824 7L17 7L17 25H23.6317L19.824 7ZM15 25H8.36828L12.176 7L15 7L15 25ZM28 5C28 4.44772 27.5523 4 27 4H21.2337L26.1863 27.4125C26.2588 27.755 26.561 28 26.9111 28C27.5125 28 28 27.5125 28 26.9111V5Z" fill="black"/>
</svg>
