<svg width="32" height="32" viewBox="0 0 32 32" fill="none" xmlns="http://www.w3.org/2000/svg">
<rect width="32" height="32" fill="white"/>
<path d="M21.8267 3.58688C24.3336 7.0456 25.8113 11.2974 25.8113 15.8973C25.8113 20.4971 24.3336 24.7489 21.8267 28.2076C21.5025 28.6548 21.6023 29.2801 22.0495 29.6042C22.4967 29.9283 23.1219 29.8286 23.446 29.3814C26.1921 25.5927 27.8113 20.9326 27.8113 15.8973C27.8113 10.8619 26.1921 6.20178 23.446 2.41315C23.1219 1.96597 22.4967 1.86621 22.0495 2.19033C21.6023 2.51444 21.5025 3.1397 21.8267 3.58688Z" fill="black"/>
<path d="M18.8113 15.8971C18.8113 12.632 17.7693 9.61322 15.9994 7.15137C15.677 6.70294 15.7792 6.07807 16.2276 5.75569C16.676 5.43331 17.3009 5.53549 17.6233 5.98391C19.6296 8.77461 20.8113 12.1993 20.8113 15.8971C20.8113 19.5949 19.6296 23.0196 17.6233 25.8103C17.3009 26.2587 16.676 26.3609 16.2276 26.0385C15.7792 25.7161 15.677 25.0912 15.9994 24.6428C17.7693 22.181 18.8113 19.1622 18.8113 15.8971Z" fill="black"/>
<path d="M10.1816 10.7306C11.2086 12.1926 11.8113 13.973 11.8113 15.8972C11.8113 17.8214 11.2086 19.6018 10.1816 21.0639C9.86417 21.5158 9.97318 22.1395 10.4251 22.4569C10.877 22.7744 11.5007 22.6654 11.8182 22.2135C13.074 20.4257 13.8113 18.2461 13.8113 15.8972C13.8113 13.5483 13.074 11.3687 11.8182 9.58095C11.5007 9.12902 10.877 9.02001 10.4251 9.33747C9.97318 9.65492 9.86417 10.2786 10.1816 10.7306Z" fill="black"/>
<path d="M4.19693 13.596C4.70597 14.2819 4.99994 15.1095 4.99994 16C4.99994 16.8905 4.70597 17.7181 4.19693 18.404C3.86779 18.8475 3.96049 19.4739 4.40398 19.803C4.84747 20.1322 5.47381 20.0395 5.80295 19.596C6.55413 18.5838 6.99994 17.3422 6.99994 16C6.99994 14.6578 6.55413 13.4162 5.80295 12.404C5.47381 11.9605 4.84747 11.8678 4.40398 12.197C3.96049 12.5261 3.86779 13.1525 4.19693 13.596Z" fill="black"/>
</svg>
