<svg width="32" height="32" viewBox="0 0 32 32" fill="none" xmlns="http://www.w3.org/2000/svg">
<rect width="32" height="32" fill="white"/>
<path d="M11 21.6387C12.1414 20.0138 12.8114 18.0337 12.8114 15.8972C12.8114 13.7607 12.1414 11.7806 11 10.1558M5 19C5.63011 18.151 6 17.1164 6 16C6 14.8836 5.63011 13.849 5 13M16.8114 25.2265C18.6995 22.6003 19.8114 19.3785 19.8114 15.8971C19.8114 12.4156 18.6995 9.1939 16.8114 6.56763M22.6364 28.7945C25.2629 25.1708 26.8114 20.7149 26.8114 15.8973C26.8114 11.0796 25.2629 6.62368 22.6364 3" stroke="black" stroke-width="2" stroke-linecap="round"/>
</svg>
