<svg width="32" height="32" viewBox="0 0 32 32" fill="none" xmlns="http://www.w3.org/2000/svg">
<rect width="32" height="32" fill="white"/>
<path d="M15 29.5C15 30.0523 15.4477 30.5 16 30.5C16.5523 30.5 17 30.0523 17 29.5H15ZM13.7466 28.4197L13.2671 29.2973L13.7466 28.4197ZM18.2534 28.4197L18.7329 29.2973L18.2534 28.4197ZM15 3L15 29.5H17L17 3L15 3ZM9 4H23V2H9V4ZM26 7V16H28V7H26ZM6 16V7H4V16H6ZM14.226 27.5421C9.44376 24.9293 6 20.7814 6 16H4C4 21.8086 8.15296 26.5032 13.2671 29.2973L14.226 27.5421ZM26 16C26 20.7814 22.5562 24.9293 17.774 27.5421L18.7329 29.2973C23.847 26.5032 28 21.8086 28 16H26ZM13.2671 29.2973C14.97 30.2276 17.03 30.2276 18.7329 29.2973L17.774 27.5421C16.6686 28.146 15.3314 28.146 14.226 27.5421L13.2671 29.2973ZM23 4C24.6569 4 26 5.34315 26 7H28C28 4.23858 25.7614 2 23 2V4ZM9 2C6.23858 2 4 4.23858 4 7H6C6 5.34315 7.34315 4 9 4V2Z" fill="black"/>
</svg>
