<svg width="32" height="32" viewBox="0 0 32 32" fill="none" xmlns="http://www.w3.org/2000/svg">
<rect width="32" height="32" fill="white"/>
<path d="M25.1924 7.80761L25.8995 7.10051L25.1924 7.80761ZM6.80761 7.80761L7.51472 8.51472L6.80761 7.80761ZM3.1535 15.0078L4.14169 15.161L3.1535 15.0078ZM5 17L5 16L5 17ZM28.8465 15.0078L29.8347 14.8545L28.8465 15.0078ZM9 23.8947C9 23.3425 8.55228 22.8947 8 22.8947C7.44771 22.8947 7 23.3425 7 23.8947H9ZM17 2C17 1.44771 16.5523 1 16 1C15.4477 1 15 1.44772 15 2L17 2ZM29.8347 14.8545C29.3821 11.936 28.0139 9.21491 25.8995 7.10051L24.4853 8.51472C26.2976 10.327 27.4704 12.6594 27.8583 15.161L29.8347 14.8545ZM25.8995 7.10051C23.274 4.475 19.713 3 16 3V5C19.1826 5 22.2348 6.26428 24.4853 8.51472L25.8995 7.10051ZM16 3C12.287 3 8.72601 4.475 6.1005 7.1005L7.51472 8.51472C9.76515 6.26428 12.8174 5 16 5V3ZM6.1005 7.1005C3.98609 9.21491 2.6179 11.936 2.16531 14.8545L4.14169 15.161C4.52963 12.6594 5.70242 10.327 7.51472 8.51472L6.1005 7.1005ZM5 18L16 18V16L5 16L5 18ZM16 18H27V16H16V18ZM2.16531 14.8545C1.8858 16.657 3.39308 18 5 18L5 16C4.39778 16 4.08267 15.5416 4.14169 15.161L2.16531 14.8545ZM27.8583 15.161C27.9173 15.5416 27.6022 16 27 16V18C28.6069 18 30.1142 16.657 29.8347 14.8545L27.8583 15.161ZM15 17V23.8947H17V17H15ZM15 23.8947C15 25.6344 13.6325 27 12 27V29C14.7858 29 17 26.6897 17 23.8947H15ZM12 27C10.3675 27 9 25.6344 9 23.8947H7C7 26.6897 9.21424 29 12 29V27ZM15 2L15 4L17 4L17 2L15 2Z" fill="black"/>
</svg>
