<svg width="32" height="32" viewBox="0 0 32 32" fill="none" xmlns="http://www.w3.org/2000/svg">
<rect width="32" height="32" fill="white"/>
<path d="M3 16H4H3ZM3 25H2H3ZM25 29V28V29ZM7 29V30V29ZM29 16H28H29ZM29 25H30H29ZM25 12L25 13L25 12ZM7.00001 12L7 13H7.00001L7.00001 12ZM20.3745 5.53488C20.8055 5.88031 21.4348 5.81102 21.7803 5.3801C22.1257 4.94918 22.0564 4.31982 21.6255 3.97438L20.3745 5.53488ZM15 22C15 22.5523 15.4477 23 16 23C16.5523 23 17 22.5523 17 22H15ZM17 18C17 17.4477 16.5523 17 16 17C15.4477 17 15 17.4477 15 18H17ZM2 16L2 25H4L4 16H2ZM25 28H7V30H25V28ZM28 16V25H30V16H28ZM30 16C30 13.2386 27.7614 11 25 11L25 13C26.6569 13 28 14.3432 28 16H30ZM4 16C4 14.3431 5.34315 13 7 13L7.00001 11C4.23858 11 2 13.2386 2 16H4ZM2 25C2 27.7614 4.23858 30 7 30V28C5.34314 28 4 26.6569 4 25H2ZM25 30C27.7614 30 30 27.7614 30 25H28C28 26.6569 26.6569 28 25 28V30ZM9 11C9 7.13401 12.134 4 16 4V2C11.0294 2 7 6.02944 7 11H9ZM16 4C17.6564 4 19.1759 4.57405 20.3745 5.53488L21.6255 3.97438C20.0849 2.73938 18.1274 2 16 2V4ZM17 22V18H15V22H17ZM25 11L8 11L8 13L25 13L25 11ZM8 11L7.00001 11L7.00001 13L8 13L8 11ZM7 11V12H9V11H7Z" fill="black"/>
</svg>
