<svg width="32" height="32" viewBox="0 0 32 32" fill="none" xmlns="http://www.w3.org/2000/svg">
<rect width="32" height="32" fill="white"/>
<path d="M9 4C9.55228 4 10 3.55228 10 3C10 2.44772 9.55228 2 9 2V4ZM2 9C2 9.55228 2.44772 10 3 10C3.55228 10 4 9.55228 4 9H2ZM23 2C22.4477 2 22 2.44772 22 3C22 3.55228 22.4477 4 23 4V2ZM28 9C28 9.55228 28.4477 10 29 10C29.5523 10 30 9.55228 30 9H28ZM9 30C9.55228 30 10 29.5523 10 29C10 28.4477 9.55228 28 9 28V30ZM4 23C4 22.4477 3.55228 22 3 22C2.44772 22 2 22.4477 2 23H4ZM23 28C22.4477 28 22 28.4477 22 29C22 29.5523 22.4477 30 23 30V28ZM30 23C30 22.4477 29.5523 22 29 22C28.4477 22 28 22.4477 28 23H30ZM11 14C11 14.5523 11.4477 15 12 15C12.5523 15 13 14.5523 13 14L11 14ZM13 11C13 10.4477 12.5523 9.99999 12 10C11.4477 10 11 10.4477 11 11L13 11ZM19 14C19 14.5523 19.4477 15 20 15C20.5523 15 21 14.5523 21 14L19 14ZM21 11C21 10.4477 20.5523 9.99999 20 9.99999C19.4477 10 19 10.4477 19 11L21 11ZM11.6947 20.2807C11.2974 19.897 10.6643 19.9081 10.2807 20.3053C9.89701 20.7026 9.90806 21.3357 10.3053 21.7193L11.6947 20.2807ZM16 23V24V23ZM21.6947 21.7193C22.0919 21.3357 22.103 20.7026 21.7193 20.3053C21.3357 19.9081 20.7026 19.897 20.3053 20.2807L21.6947 21.7193ZM7 4H9V2H7V4ZM4 9V7H2V9H4ZM7 2C4.23858 2 2 4.23858 2 7H4C4 5.34315 5.34315 4 7 4V2ZM25 2H23V4H25V2ZM30 9V7H28V9H30ZM25 4C26.6569 4 28 5.34315 28 7H30C30 4.23858 27.7614 2 25 2V4ZM7 30H9V28H7V30ZM2 23V25H4V23H2ZM7 28C5.34315 28 4 26.6569 4 25H2C2 27.7614 4.23858 30 7 30V28ZM25 28H23V30H25V28ZM28 23V25H30V23H28ZM25 30C27.7614 30 30 27.7614 30 25H28C28 26.6569 26.6569 28 25 28V30ZM13 14L13 11L11 11L11 14L13 14ZM21 14L21 11L19 11L19 14L21 14ZM10.3053 21.7193C11.8214 23.1834 13.8705 24 16 24V22C14.3788 22 12.8307 21.3778 11.6947 20.2807L10.3053 21.7193ZM16 24C18.1295 24 20.1786 23.1834 21.6947 21.7193L20.3053 20.2807C19.1693 21.3778 17.6212 22 16 22V24Z" fill="black"/>
</svg>
