<svg width="32" height="32" viewBox="0 0 32 32" fill="none" xmlns="http://www.w3.org/2000/svg">
<rect width="32" height="32" fill="white"/>
<path d="M12 15.4166L15 18L20 12M10.0793 6.42318L9.58265 6.22421C7.47325 5.37909 5.37907 7.47326 6.22419 9.58267L6.42317 10.0793C6.94502 11.3818 6.33161 12.8627 5.04158 13.4148L4.54971 13.6252C2.46054 14.5192 2.46054 17.4808 4.54971 18.3748L5.04158 18.5853C6.33161 19.1373 6.94502 20.6182 6.42317 21.9207L6.22419 22.4174C5.37907 24.5268 7.47325 26.621 9.58265 25.7758L10.0793 25.5769C11.3818 25.055 12.8627 25.6684 13.4147 26.9585L13.6252 27.4503C14.5192 29.5395 17.4808 29.5395 18.3748 27.4503L18.5853 26.9585C19.1373 25.6684 20.6182 25.055 21.9207 25.5769L22.4174 25.7758C24.5268 26.621 26.6209 24.5268 25.7758 22.4174L25.5768 21.9207C25.055 20.6182 25.6684 19.1373 26.9584 18.5853L27.4503 18.3748C29.5395 17.4808 29.5395 14.5192 27.4503 13.6252L26.9584 13.4148C25.6684 12.8627 25.055 11.3818 25.5768 10.0793L25.7758 9.58267C26.6209 7.47326 24.5268 5.37909 22.4174 6.22421L21.9207 6.42318C20.6182 6.94503 19.1373 6.33162 18.5853 5.04159L18.3748 4.54973C17.4808 2.46056 14.5192 2.46056 13.6252 4.54972L13.4147 5.04159C12.8627 6.33162 11.3818 6.94503 10.0793 6.42318Z" stroke="black" stroke-width="2" stroke-linecap="round" stroke-linejoin="round"/>
</svg>
