<svg width="32" height="32" viewBox="0 0 32 32" fill="none" xmlns="http://www.w3.org/2000/svg">
<rect width="32" height="32" fill="white"/>
<path d="M3 9.00001H4H3ZM3 25H2H3ZM25 29V28V29ZM7 29V30V29ZM29 9.00004H28H29ZM29 25H30H29ZM25 5.00004L25 6.00004L25 5.00004ZM7.00001 5.00001L7.00001 4.00001L7.00001 5.00001ZM29 13C29.5523 13 30 12.5523 30 12C30 11.4477 29.5523 11 29 11V13ZM3 11C2.44772 11 2 11.4477 2 12C2 12.5523 2.44772 13 3 13V11ZM9 7C9 7.55228 9.44771 8 10 8C10.5523 8 11 7.55228 11 7H9ZM11 3C11 2.44772 10.5523 2 10 2C9.44771 2 9 2.44772 9 3H11ZM21 7C21 7.55229 21.4477 8 22 8C22.5523 8 23 7.55228 23 7L21 7ZM23 3C23 2.44771 22.5523 2 22 2C21.4477 2 21 2.44772 21 3L23 3ZM12.6525 19.6589C12.234 19.2985 11.6026 19.3456 11.2422 19.7641C10.8819 20.1826 10.929 20.814 11.3475 21.1744L12.6525 19.6589ZM15 23L14.3475 23.7578C14.5506 23.9327 14.8154 24.0187 15.0825 23.9966C15.3496 23.9745 15.5966 23.8461 15.7682 23.6402L15 23ZM20.7682 17.6402C21.1218 17.2159 21.0645 16.5853 20.6402 16.2318C20.2159 15.8782 19.5853 15.9355 19.2318 16.3598L20.7682 17.6402ZM2 9.00001L2 25H4L4 9.00001H2ZM25 28L7 28V30L25 30V28ZM28 9.00004V25H30V9.00004H28ZM25 4.00004L7.00001 4.00001L7.00001 6.00001L25 6.00004L25 4.00004ZM30 9.00004C30 6.23862 27.7614 4.00005 25 4.00004L25 6.00004C26.6569 6.00005 28 7.34319 28 9.00004H30ZM4 9.00001C4 7.34315 5.34315 6 7.00001 6.00001L7.00001 4.00001C4.23858 4 2 6.23858 2 9.00001H4ZM2 25C2 27.7614 4.23857 30 7 30V28C5.34314 28 4 26.6569 4 25H2ZM25 30C27.7614 30 30 27.7614 30 25H28C28 26.6569 26.6569 28 25 28V30ZM29 11H3V13H29V11ZM11 7V3H9V7H11ZM23 7L23 3L21 3L21 7L23 7ZM11.3475 21.1744L14.3475 23.7578L15.6525 22.2422L12.6525 19.6589L11.3475 21.1744ZM15.7682 23.6402L20.7682 17.6402L19.2318 16.3598L14.2318 22.3598L15.7682 23.6402Z" fill="black"/>
</svg>
