<svg width="32" height="32" viewBox="0 0 32 32" fill="none" xmlns="http://www.w3.org/2000/svg">
<rect width="32" height="32" fill="white"/>
<path d="M3 9.00001H4H3ZM3 25H2H3ZM25 29V28V29ZM7 29V30V29ZM29 9.00004H28H29ZM29 25H30H29ZM25 5.00004L25 6.00004L25 5.00004ZM7.00001 5.00001L7.00001 4.00001L7.00001 5.00001ZM29 13C29.5523 13 30 12.5523 30 12C30 11.4477 29.5523 11 29 11V13ZM3 11C2.44772 11 2 11.4477 2 12C2 12.5523 2.44772 13 3 13V11ZM9 7C9 7.55228 9.44771 8 10 8C10.5523 8 11 7.55228 11 7H9ZM11 3C11 2.44772 10.5523 2 10 2C9.44771 2 9 2.44772 9 3H11ZM21 7C21 7.55229 21.4477 8 22 8C22.5523 8 23 7.55228 23 7L21 7ZM23 3C23 2.44771 22.5523 2 22 2C21.4477 2 21 2.44772 21 3L23 3ZM17 16C17 15.4477 16.5523 15 16 15C15.4477 15 15 15.4477 15 16L17 16ZM15 24C15 24.5523 15.4477 25 16 25C16.5523 25 17 24.5523 17 24H15ZM12 18.9999C11.4477 18.9999 11 19.4477 11 19.9999C11 20.5522 11.4477 20.9999 12 20.9999V18.9999ZM20 20.9999C20.5523 20.9999 21 20.5522 21 19.9999C21 19.4477 20.5523 18.9999 20 18.9999V20.9999ZM2 9.00001L2 25H4L4 9.00001H2ZM25 28L7 28V30L25 30V28ZM28 9.00004V25H30V9.00004H28ZM25 4.00004L7.00001 4.00001L7.00001 6.00001L25 6.00004L25 4.00004ZM30 9.00004C30 6.23862 27.7614 4.00005 25 4.00004L25 6.00004C26.6569 6.00005 28 7.34319 28 9.00004H30ZM4 9.00001C4 7.34315 5.34315 6 7.00001 6.00001L7.00001 4.00001C4.23858 4 2 6.23858 2 9.00001H4ZM2 25C2 27.7614 4.23857 30 7 30V28C5.34314 28 4 26.6569 4 25H2ZM25 30C27.7614 30 30 27.7614 30 25H28C28 26.6569 26.6569 28 25 28V30ZM29 11H3V13H29V11ZM11 7V3H9V7H11ZM23 7L23 3L21 3L21 7L23 7ZM15 16L15 19.9999H17L17 16L15 16ZM15 19.9999V24H17V19.9999H15ZM12 20.9999H16V18.9999H12V20.9999ZM16 20.9999H20V18.9999H16V20.9999Z" fill="black"/>
</svg>
