<svg width="32" height="32" viewBox="0 0 32 32" fill="none" xmlns="http://www.w3.org/2000/svg">
<rect width="32" height="32" fill="white"/>
<path d="M16 28C15.4477 28 15 28.4477 15 29C15 29.5523 15.4477 30 16 30V28ZM2 16C2 16.5523 2.44772 17 3 17C3.55228 17 4 16.5523 4 16H2ZM17 9C17 8.44772 16.5523 8 16 8C15.4477 8 15 8.44772 15 9H17ZM16 18L16.6402 18.7682C16.8682 18.5782 17 18.2968 17 18H16ZM9.35982 22.2318C8.93554 22.5853 8.87821 23.2159 9.23178 23.6402C9.58534 24.0645 10.2159 24.1218 10.6402 23.7682L9.35982 22.2318ZM28 16C28 22.6274 22.6274 28 16 28V30C23.732 30 30 23.732 30 16H28ZM4 16C4 9.37258 9.37258 4 16 4V2C8.26801 2 2 8.26801 2 16H4ZM16 4C22.6274 4 28 9.37258 28 16H30C30 8.26801 23.732 2 16 2V4ZM15 9V18H17V9H15ZM15.3598 17.2318L9.35982 22.2318L10.6402 23.7682L16.6402 18.7682L15.3598 17.2318Z" fill="black"/>
</svg>
