<svg width="32" height="32" viewBox="0 0 32 32" fill="none" xmlns="http://www.w3.org/2000/svg">
<rect width="32" height="32" fill="white"/>
<path d="M23.8003 2.66765C23.6167 2.14676 23.0457 1.87329 22.5248 2.05684C22.0039 2.2404 21.7304 2.81146 21.914 3.33235L23.8003 2.66765ZM10.086 3.33235C10.2696 2.81146 9.9961 2.2404 9.47521 2.05684C8.95432 1.87329 8.38325 2.14676 8.1997 2.66765L10.086 3.33235ZM21.914 28.6677C21.7304 29.1885 22.0039 29.7596 22.5248 29.9432C23.0457 30.1267 23.6167 29.8532 23.8003 29.3323L21.914 28.6677ZM8.1997 29.3323C8.38325 29.8532 8.95432 30.1267 9.47521 29.9432C9.9961 29.7596 10.2696 29.1885 10.086 28.6677L8.1997 29.3323ZM17 10.4166C17 9.86434 16.5523 9.41663 16 9.41663C15.4477 9.41663 15 9.86434 15 10.4166H17ZM16 16.4166H15C15 16.7561 15.1723 17.0725 15.4575 17.2567L16 16.4166ZM19.4575 19.84C19.9214 20.1397 20.5404 20.0065 20.84 19.5425C21.1397 19.0786 21.0065 18.4596 20.5425 18.16L19.4575 19.84ZM26 16C26 21.5228 21.5228 26 16 26V28C22.6274 28 28 22.6274 28 16H26ZM16 26C10.4772 26 6 21.5228 6 16H4C4 22.6274 9.37258 28 16 28V26ZM6 16C6 10.4772 10.4772 6 16 6V4C9.37258 4 4 9.37258 4 16H6ZM16 6C21.5228 6 26 10.4772 26 16H28C28 9.37258 22.6274 4 16 4V6ZM21.914 3.33235L24.5568 10.8324L26.4432 10.1676L23.8003 2.66765L21.914 3.33235ZM7.44316 10.8324L10.086 3.33235L8.1997 2.66765L5.55684 10.1676L7.44316 10.8324ZM23.8003 29.3323L26.4432 21.8323L24.5568 21.1677L21.914 28.6677L23.8003 29.3323ZM5.55684 21.8323L8.1997 29.3323L10.086 28.6677L7.44316 21.1677L5.55684 21.8323ZM15 10.4166V16.4166H17V10.4166H15ZM15.4575 17.2567L19.4575 19.84L20.5425 18.16L16.5425 15.5766L15.4575 17.2567Z" fill="black"/>
</svg>
