<svg width="16" height="16" viewBox="0 0 16 16" fill="none" xmlns="http://www.w3.org/2000/svg">
<g clip-path="url(#clip0)">
<rect width="16" height="16" fill="white"/>
<path d="M14.6402 1.76822C15.0645 1.41465 15.1218 0.784087 14.7682 0.35981C14.4147 -0.0644668 13.7841 -0.121791 13.3598 0.231773L7.97824 4.71642L5.61378 2.8782C5.2205 2.57244 4.66214 2.60278 4.3043 2.94935L1.3043 5.85484C0.907576 6.23906 0.897444 6.87215 1.28167 7.26887C1.66589 7.66559 2.29898 7.67572 2.6957 7.2915L5.07186 4.9902L7.38623 6.78948C7.75727 7.07794 8.27913 7.0691 8.64019 6.76822L14.6402 1.76822Z" fill="black"/>
<path fill-rule="evenodd" clip-rule="evenodd" d="M15 5.99999C15 5.61198 14.7755 5.25898 14.4242 5.09441C14.0728 4.92983 13.6579 4.98337 13.3598 5.23177L7.97824 9.71642L5.61378 7.8782C5.2205 7.57244 4.66214 7.60278 4.3043 7.94935L1.3043 10.8548C1.1098 11.0432 1 11.3024 1 11.5732L1.00001 14C1.00001 14.5523 1.44773 15 2.00001 15H14C14.5523 15 15 14.5523 15 14V5.99999ZM8.64019 11.7682L13 8.13504V13H3.00001L3 11.9968L5.07186 9.9902L7.38623 11.7895C7.75727 12.0779 8.27913 12.0691 8.64019 11.7682Z" fill="black"/>
</g>
<defs>
<clipPath id="clip0">
<rect width="16" height="16" fill="white"/>
</clipPath>
</defs>
</svg>
