<svg width="16" height="16" viewBox="0 0 16 16" fill="none" xmlns="http://www.w3.org/2000/svg">
<rect width="16" height="16" fill="white"/>
<path d="M13 2C13 1.44772 12.5523 1 12 1C11.4477 1 11 1.44772 11 2V10C11 10.5523 11.4477 11 12 11C12.5523 11 13 10.5523 13 10V2Z" fill="black"/>
<path d="M8 4C8.55228 4 9 4.44772 9 5V10C9 10.5523 8.55229 11 8 11C7.44772 11 7 10.5523 7 10L7 5C7 4.44772 7.44772 4 8 4Z" fill="black"/>
<path d="M5 8C5 7.44772 4.55228 7 4 7C3.44772 7 3 7.44772 3 8V10C3 10.5523 3.44772 11 4 11C4.55228 11 5 10.5523 5 10V8Z" fill="black"/>
<path d="M2 13C1.44772 13 1 13.4477 1 14C1 14.5523 1.44772 15 2 15H14C14.5523 15 15 14.5523 15 14C15 13.4477 14.5523 13 14 13H2Z" fill="black"/>
</svg>
