<svg width="32" height="32" viewBox="0 0 32 32" fill="none" xmlns="http://www.w3.org/2000/svg">
<rect width="32" height="32" fill="white"/>
<path fill-rule="evenodd" clip-rule="evenodd" d="M11.3596 5.1064C11.5567 3.93576 13.2665 4.0229 13.3436 5.20749L14.6265 24.9189C14.8618 28.5346 20.1152 28.7119 20.5938 25.1204L22.2996 12.3216L23.6511 17.7277C23.985 19.0632 25.185 20.0001 26.5616 20.0001H29C29.5523 20.0001 30 19.5523 30 19.0001C30 18.4478 29.5523 18.0001 29 18.0001L26.5616 18.0001C26.1027 18.0001 25.7027 17.6878 25.5914 17.2426L24.2399 11.8365C23.705 9.69687 20.6085 9.87116 20.3171 12.0574L18.6114 24.8562C18.4518 26.0534 16.7007 25.9942 16.6222 24.789L15.3394 5.0776C15.1081 1.52378 9.97867 1.26244 9.38735 4.77432L7.30087 17.1661C7.2198 17.6475 6.80296 18.0001 6.31475 18.0001H3C2.44772 18.0001 2 18.4478 2 19.0001C2 19.5523 2.44772 20.0001 3 20.0001H6.31475C7.77938 20.0001 9.02992 18.9425 9.27311 17.4982L11.3596 5.1064Z" fill="black"/>
</svg>
