<svg width="32" height="32" viewBox="0 0 32 32" fill="none" xmlns="http://www.w3.org/2000/svg">
<rect width="32" height="32" fill="white"/>
<path d="M16 18C15.4477 18 15 17.5523 15 17V9C15 8.44771 15.4477 8 16 8C16.5523 8 17 8.44771 17 9V17C17 17.5523 16.5523 18 16 18Z" fill="black"/>
<path d="M16 23C15.4477 23 15 22.5523 15 22V21C15 20.4477 15.4477 20 16 20C16.5523 20 17 20.4477 17 21V22C17 22.5523 16.5523 23 16 23Z" fill="black"/>
<path fill-rule="evenodd" clip-rule="evenodd" d="M30 25L30 7.00004C30 4.23862 27.7614 2.00004 25 2.00004L7.00001 2C4.23858 1.99999 2 4.23857 2 7V25C2 27.7614 4.23858 30 7 30L25 30C27.7614 30 30 27.7614 30 25ZM28 7.00004L28 25C28 26.6568 26.6569 28 25 28L7 28C5.34315 28 4 26.6568 4 25L4 7C4 5.34314 5.34315 4 7.00001 4L25 4.00004C26.6569 4.00004 28 5.34319 28 7.00004Z" fill="black"/>
</svg>
