<svg width="32" height="32" viewBox="0 0 32 32" fill="none" xmlns="http://www.w3.org/2000/svg">
<rect width="32" height="32" fill="white"/>
<path fill-rule="evenodd" clip-rule="evenodd" d="M27 12.4003V25C27 27.7614 24.7614 30 22 30H7C4.23858 30 2 27.7614 2 25V10C2 7.23861 4.23858 5.00003 7 5.00003H19.5997C20.51 3.21918 22.3626 2 24.5 2C27.5376 2 30 4.46243 30 7.5C30 9.63734 28.7808 11.4899 27 12.4003ZM21 7.5C21 5.567 22.567 4 24.5 4C26.433 4 28 5.567 28 7.5C28 9.433 26.433 11 24.5 11C22.567 11 21 9.433 21 7.5ZM19.0224 7.00003C19.0076 7.1647 19 7.33147 19 7.5C19 10.5376 21.4624 13 24.5 13C24.6685 13 24.8353 12.9924 25 12.9776V25C25 26.6569 23.6569 28 22 28H7C5.34314 28 4 26.6569 4 25L4 10C4 8.34318 5.34315 7.00003 7 7.00003H19.0224Z" fill="black"/>
</svg>
