<svg width="16" height="16" viewBox="0 0 16 16" fill="none" xmlns="http://www.w3.org/2000/svg">
<rect width="16" height="16" fill="white"/>
<path d="M12 14C12.5523 14 13 13.5523 13 13C13 12.4477 12.5523 12 12 12V14ZM4 12C3.44772 12 3 12.4477 3 13C3 13.5523 3.44772 14 4 14V12ZM4.17722 10L4.16543 11H4.17722V10ZM4.22127 5.39081L4.21246 6.39077L5.08472 6.39846L5.21077 5.53531L4.22127 5.39081ZM11.7787 5.39081L10.7892 5.53531L10.9153 6.39846L11.7875 6.39077L11.7787 5.39081ZM11.8228 10V11.0001L11.8346 10.9999L11.8228 10ZM12 12H4V14H12V12ZM4.189 9.00007C3.57284 8.99281 3 8.45353 3 7.69536H1C1 9.46514 2.37207 10.9788 4.16543 10.9999L4.189 9.00007ZM3 7.69536C3 6.93164 3.58061 6.39073 4.20253 6.39073V4.39073C2.3916 4.39073 1 5.91345 1 7.69536H3ZM4.20253 6.39073C4.20603 6.39073 4.20933 6.39074 4.21246 6.39077L4.23008 4.39085C4.22072 4.39077 4.21154 4.39073 4.20253 4.39073V6.39073ZM5.21077 5.53531C5.42547 4.06513 6.62389 3 8 3V1C5.54946 1 3.57784 2.87646 3.23176 5.24631L5.21077 5.53531ZM8 3C9.37611 3 10.5745 4.06513 10.7892 5.53531L12.7682 5.24631C12.4222 2.87646 10.4505 1 8 1V3ZM11.7875 6.39077C11.7907 6.39074 11.794 6.39073 11.7975 6.39073V4.39073C11.7885 4.39073 11.7793 4.39077 11.7699 4.39085L11.7875 6.39077ZM11.7975 6.39073C12.4194 6.39073 13 6.93165 13 7.69536H15C15 5.91345 13.6084 4.39073 11.7975 4.39073V6.39073ZM13 7.69536C13 8.45353 12.4272 8.99281 11.811 9.00007L11.8346 10.9999C13.6279 10.9788 15 9.46514 15 7.69536H13ZM11.8228 9H4.17722V11H11.8228V9Z" fill="black"/>
</svg>
