<svg width="16" height="16" viewBox="0 0 16 16" fill="none" xmlns="http://www.w3.org/2000/svg">
<rect width="16" height="16" fill="white"/>
<path d="M4.39443 13.4472C4.64142 12.9532 4.44119 12.3526 3.94721 12.1056C3.45324 11.8586 2.85256 12.0588 2.60557 12.5528L4.39443 13.4472ZM2.10557 13.5528C1.85858 14.0468 2.05881 14.6474 2.55279 14.8944C3.04676 15.1414 3.64744 14.9412 3.89443 14.4472L2.10557 13.5528ZM11.6444 13.4472C11.8914 12.9532 11.6912 12.3526 11.1972 12.1056C10.7032 11.8586 10.1026 12.0588 9.85557 12.5528L11.6444 13.4472ZM9.35557 13.5528C9.10858 14.0468 9.30881 14.6474 9.80279 14.8944C10.2968 15.1414 10.8974 14.9412 11.1444 14.4472L9.35557 13.5528ZM11.7787 5.39081L10.7892 5.53531L10.9147 6.39453L11.783 6.3908L11.7787 5.39081ZM11.7975 5.39073L11.7975 4.39072L11.7932 4.39074L11.7975 5.39073ZM11.8228 10V11.0001L11.8346 10.9999L11.8228 10ZM8.47431 9.43698L7.92202 8.60333L7.87851 8.63215L7.83824 8.66535L8.47431 9.43698ZM3.04839 13.9097L3.60068 14.7433L3.64419 14.7145L3.68446 14.6813L3.04839 13.9097ZM2.22351 6.46532L2.98666 7.11153L3.03117 7.05897L3.06805 7.0008L2.22351 6.46532ZM4.85725 2.31147L4.09409 1.66526L4.04958 1.71782L4.0127 1.77599L4.85725 2.31147ZM3.63423 9.76262L4.56274 10.1339L3.63423 9.76262ZM3.8748 9.26036L4.80904 9.61701L3.8748 9.26036ZM2.4218 12.7945L1.49329 12.4232L2.4218 12.7945ZM2.20374 13.3064L3.18632 13.4923L2.20374 13.3064ZM9.63072 3.72504L10.4475 4.302L9.63072 3.72504ZM9.83512 3.45926L10.6559 4.03044L10.6559 4.03044L9.83512 3.45926ZM7.65449 6.52272L6.83772 5.94576L7.65449 6.52272ZM7.45228 6.79016L8.29169 7.33365L8.29169 7.33365L7.45228 6.79016ZM2.60557 12.5528L2.10557 13.5528L3.89443 14.4472L4.39443 13.4472L2.60557 12.5528ZM9.85557 12.5528L9.35557 13.5528L11.1444 14.4472L11.6444 13.4472L9.85557 12.5528ZM11.783 6.3908L11.8018 6.39072L11.7932 4.39074L11.7744 4.39082L11.783 6.3908ZM11.7975 6.39073C12.4194 6.39073 13 6.93165 13 7.69536H15C15 5.91345 13.6084 4.39073 11.7975 4.39073V6.39073ZM13 7.69536C13 8.45353 12.4272 8.99281 11.811 9.00007L11.8346 10.9999C13.6279 10.9788 15 9.46514 15 7.69536H13ZM11.8228 9H8V11H11.8228V9ZM9.4588 3.43134C10.1506 3.87661 10.6578 4.63516 10.7892 5.53531L12.7682 5.24631C12.5538 3.77794 11.7224 2.50977 10.5412 1.74955L9.4588 3.43134ZM5.51904 3H9.11465V1H5.51904V3ZM3.06805 7.0008L5.70179 2.84695L4.0127 1.77599L1.37896 5.92983L3.06805 7.0008ZM3.05065 7H2.8853V9H3.05065V7ZM3.35031 13.1658L4.56274 10.1339L2.70572 9.39132L1.49329 12.4232L3.35031 13.1658ZM7.83824 8.66535L2.41232 13.138L3.68446 14.6813L9.11038 10.2086L7.83824 8.66535ZM8.81394 3.14809L6.83772 5.94576L8.47127 7.09967L10.4475 4.302L8.81394 3.14809ZM8.07494 7C8.1225 7 8.17926 7.01581 8.22831 7.04852C8.27302 7.07834 8.29744 7.1125 8.30985 7.13764C8.33028 7.179 8.34284 7.25466 8.29169 7.33365L6.61287 6.24666C5.92259 7.31279 6.55897 9 8.07494 9V7ZM9.0266 10.2706C9.75819 9.78595 9.93718 8.95112 9.75457 8.29406C9.5712 7.63427 8.97537 7 8.07494 7V9C8.02155 9 7.95287 8.97765 7.89838 8.93195C7.85186 8.89293 7.8342 8.85331 7.82761 8.8296C7.82095 8.80567 7.81774 8.77042 7.83245 8.72543C7.84984 8.67222 7.88604 8.62716 7.92202 8.60333L9.0266 10.2706ZM2.75059 15C3.05519 15 3.35013 14.9093 3.60068 14.7433L2.4961 13.076C2.56854 13.028 2.65691 13 2.75059 13V15ZM1.22116 13.1206C1.06039 13.9706 1.6523 15 2.75059 15V13C2.90898 13 3.04204 13.0834 3.11454 13.1802C3.17883 13.266 3.20831 13.376 3.18632 13.4923L1.22116 13.1206ZM3.05065 9C3.03166 9 3.00373 8.99375 2.97792 8.97861C2.95503 8.9652 2.94456 8.95132 2.94101 8.94565C2.93772 8.9404 2.93662 8.93662 2.93615 8.93239C2.93552 8.92682 2.93577 8.91626 2.94057 8.9037L4.80904 9.61701C5.2422 8.48238 4.49886 7 3.05065 7V9ZM1.46035 5.8191C0.461169 6.9991 1.18746 9 2.8853 9V7C2.89395 7 2.90825 7.0015 2.92538 7.00704C2.94217 7.01248 2.95684 7.02021 2.9685 7.02849C2.99077 7.04429 2.99703 7.05794 2.99796 7.0601C2.99894 7.06237 3.00089 7.0675 2.99956 7.07828C2.9977 7.0935 2.99056 7.10693 2.98666 7.11153L1.46035 5.8191ZM9.11465 3C9.10754 3 9.09438 2.9988 9.07783 2.99366C9.06155 2.9886 9.04674 2.98121 9.03446 2.97288C9.01063 2.95669 9.00306 2.94203 9.00188 2.93955C9.00085 2.93739 8.99967 2.93463 9.00007 2.92755C9.00065 2.91737 9.00487 2.90162 9.0143 2.88808L10.6559 4.03044C11.4632 2.87034 10.7675 1 9.11465 1V3ZM5.51904 1C4.96343 1 4.44627 1.24935 4.09409 1.66526L5.6204 2.95768C5.60365 2.97747 5.56841 3 5.51904 3V1ZM4.56274 10.1339C4.57431 10.105 4.59165 10.0706 4.64086 9.97686C4.6812 9.90005 4.75166 9.76732 4.80904 9.61701L2.94057 8.9037C2.93181 8.92665 2.91641 8.95895 2.87021 9.04692C2.83288 9.11799 2.763 9.24807 2.70572 9.39132L4.56274 10.1339ZM1.49329 12.4232C1.49134 12.4281 1.48559 12.4414 1.46965 12.4732C1.46167 12.4891 1.45334 12.5053 1.44189 12.5277C1.43129 12.5483 1.41798 12.5743 1.40443 12.6015C1.35358 12.7038 1.26488 12.8894 1.22116 13.1206L3.18632 13.4923C3.17706 13.5412 3.16296 13.557 3.19531 13.4919C3.20257 13.4773 3.21059 13.4616 3.22137 13.4406C3.2313 13.4212 3.2444 13.3958 3.25739 13.3698C3.28341 13.318 3.31783 13.2471 3.35031 13.1658L1.49329 12.4232ZM10.4475 4.302C10.4583 4.2867 10.4728 4.26831 10.5123 4.21923C10.5447 4.17886 10.6012 4.10915 10.6559 4.03044L9.0143 2.88808C9.00528 2.90103 8.99173 2.9186 8.95407 2.96541C8.92342 3.0035 8.86757 3.07218 8.81394 3.14809L10.4475 4.302ZM6.83772 5.94576C6.82685 5.96115 6.81506 5.97574 6.77041 6.03168C6.73466 6.07647 6.67264 6.15435 6.61287 6.24666L8.29169 7.33365C8.29099 7.33475 8.29305 7.33147 8.3002 7.32195C8.30772 7.31193 8.31751 7.29942 8.33356 7.2793C8.35874 7.24775 8.41771 7.17549 8.47127 7.09967L6.83772 5.94576Z" fill="black"/>
</svg>
