<svg width="16" height="16" viewBox="0 0 16 16" fill="none" xmlns="http://www.w3.org/2000/svg">
<rect width="16" height="16" fill="white"/>
<path d="M12.9992 4.43547C12.9997 4.45692 13 4.47843 13 4.5C13 5.88071 11.9626 7 10.6828 7H2M12.9992 4.43547C12.9675 3.08458 11.9426 2 10.6828 2M12.9992 4.43547C12.9674 3.08458 11.9381 2 10.6731 2C9.54733 2 8.6083 2.85888 8.3927 4M10.9994 12.0516C10.9998 12.0345 11 12.0173 11 12C11 10.8954 10.1512 10 9.10411 10H5M10.9994 12.0516C10.9734 13.1323 10.1348 14 9.10411 14M10.9994 12.0516C10.9733 13.1323 10.1312 14 9.09615 14C8.39146 14 7.77619 13.5978 7.44701 13" stroke="black" stroke-width="2" stroke-linecap="round" stroke-linejoin="round"/>
</svg>
