<svg width="32" height="32" viewBox="0 0 32 32" fill="none" xmlns="http://www.w3.org/2000/svg">
<rect width="32" height="32" fill="white"/>
<path d="M17 21C17 20.4477 16.5523 20 16 20C15.4477 20 15 20.4477 15 21H17ZM15 22C15 22.5523 15.4477 23 16 23C16.5523 23 17 22.5523 17 22H15ZM17 8.99999C17 8.44771 16.5523 7.99999 16 7.99999C15.4477 7.99999 15 8.44771 15 8.99999H17ZM15 17C15 17.5523 15.4477 18 16 18C16.5523 18 17 17.5523 17 17H15ZM3 7H2H3ZM3 25H4H3ZM25 29V28V29ZM7 29V30H7L7 29ZM29 7.00004H30H29ZM29 25H28H29ZM25 3.00004L25 4.00004L25 3.00004ZM7.00001 3L7.00001 2L7.00001 3ZM15 21V22H17V21H15ZM15 8.99999V17H17V8.99999H15ZM2 7L2 25H4L4 7H2ZM25 28L7 28L7 30L25 30V28ZM28 7.00004V25H30V7.00004H28ZM25 2.00004L7.00001 2L7.00001 4L25 4.00004L25 2.00004ZM30 7.00004C30 4.23862 27.7614 2.00004 25 2.00004L25 4.00004C26.6569 4.00004 28 5.34319 28 7.00004H30ZM4 7C4 5.34314 5.34315 4 7.00001 4L7.00001 2C4.23858 1.99999 2 4.23857 2 7H4ZM2 25C2 27.7614 4.23858 30 7 30V28C5.34315 28 4 26.6568 4 25H2ZM25 30C27.7614 30 30 27.7614 30 25H28C28 26.6568 26.6569 28 25 28V30Z" fill="black"/>
</svg>
