<svg width="32" height="32" viewBox="0 0 32 32" fill="none" xmlns="http://www.w3.org/2000/svg">
<rect width="32" height="32" fill="white"/>
<path d="M16 21V22M16 8.99997V17M20.3432 3C21.404 3 22.4214 3.42143 23.1716 4.17157L27.8284 8.8284C28.5786 9.57855 29 10.596 29 11.6568V20.3431C29 21.404 28.5786 22.4214 27.8284 23.1715L23.1716 27.8284C22.4214 28.5785 21.404 29 20.3431 29H11.6569C10.596 29 9.57857 28.5785 8.82843 27.8284L4.17157 23.1715C3.42143 22.4214 3 21.404 3 20.3431L3 11.6568C3 10.596 3.42143 9.57854 4.17158 8.8284L8.82843 4.17157C9.57858 3.42142 10.596 3 11.6569 3L20.3432 3Z" stroke="black" stroke-width="2" stroke-linecap="round" stroke-linejoin="round"/>
</svg>
