<svg width="32" height="32" viewBox="0 0 32 32" fill="none" xmlns="http://www.w3.org/2000/svg">
<rect width="32" height="32" fill="white"/>
<path d="M3 5C3 3.89543 3.89543 3 5 3H27C28.1046 3 29 3.89543 29 5V6C29 7.10457 28.1046 8 27 8H5C3.89543 8 3 7.10457 3 6V5Z" stroke="black" stroke-width="2" stroke-linecap="round"/>
<path d="M3 14C3 12.8954 3.89543 12 5 12H27C28.1046 12 29 12.8954 29 14V18C29 19.1046 28.1046 20 27 20H5C3.89543 20 3 19.1046 3 18V14Z" stroke="black" stroke-width="2" stroke-linecap="round"/>
<path d="M3 26C3 24.8954 3.89543 24 5 24H27C28.1046 24 29 24.8954 29 26V27C29 28.1046 28.1046 29 27 29H5C3.89543 29 3 28.1046 3 27V26Z" stroke="black" stroke-width="2" stroke-linecap="round"/>
</svg>
