<svg width="32" height="32" viewBox="0 0 32 32" fill="none" xmlns="http://www.w3.org/2000/svg">
<rect width="32" height="32" fill="white"/>
<path d="M19.7429 25H20.7429C20.7429 24.4477 20.2951 24 19.7429 24V25ZM11.7429 25V24C11.1906 24 10.7429 24.4477 10.7429 25H11.7429ZM4.9475 22.8008L5.93703 22.9451L4.9475 22.8008ZM19 5.59135H18V6.24909L18.604 6.50959L19 5.59135ZM23.8571 12H24.8571C24.8571 11.9342 24.8507 11.8686 24.8378 11.8041L23.8571 12ZM13 5.59134L13.396 6.50958L14 6.24908V5.59134H13ZM23.8571 18H22.8571V18.3129L23.0355 18.57L23.8571 18ZM5.13488 22.2895L4.26273 21.8003H4.26273L5.13488 22.2895ZM7.54113 18L8.41328 18.4892L8.51533 18.3073L8.53614 18.0998L7.54113 18ZM11.4593 5.28288C10.9947 5.58149 10.8601 6.20019 11.1588 6.66479C11.4574 7.12939 12.0761 7.26395 12.5407 6.96534L11.4593 5.28288ZM8.93729 14.0998C8.9924 13.5503 8.5916 13.0601 8.04207 13.005C7.49254 12.9499 7.00238 13.3507 6.94727 13.9002L8.93729 14.0998ZM19.5 26C20.0523 26 20.5 25.5523 20.5 25C20.5 24.4477 20.0523 24 19.5 24V26ZM24.4231 20.57C24.7379 21.0238 25.361 21.1364 25.8148 20.8216C26.2685 20.5068 26.3812 19.8837 26.0664 19.43L24.4231 20.57ZM3.70711 2.29289C3.31658 1.90237 2.68342 1.90237 2.29289 2.29289C1.90237 2.68342 1.90237 3.31658 2.29289 3.70711L3.70711 2.29289ZM28.2929 29.7071C28.6834 30.0976 29.3166 30.0976 29.7071 29.7071C30.0976 29.3166 30.0976 28.6834 29.7071 28.2929L28.2929 29.7071ZM18.7429 25C18.7429 26.6569 17.3997 28 15.7429 28V30C18.5043 30 20.7429 27.7614 20.7429 25H18.7429ZM15.7429 28C14.086 28 12.7429 26.6569 12.7429 25H10.7429C10.7429 27.7614 12.9814 30 15.7429 30V28ZM11.7429 26H19.7429V24H11.7429V26ZM3.95797 22.6565C3.84674 23.4192 3.96208 24.2317 4.39764 24.8873C4.85672 25.5782 5.61361 26 6.54113 26V24C6.26719 24 6.14297 23.9001 6.06346 23.7805C5.96042 23.6254 5.87968 23.3384 5.93703 22.9451L3.95797 22.6565ZM14 5C14 3.89543 14.8954 3 16 3V1C13.7909 1 12 2.79086 12 5H14ZM16 3C17.1046 3 18 3.89543 18 5H20C20 2.79086 18.2091 1 16 1V3ZM18.604 6.50959C20.2701 7.22822 21.3422 8.61054 22.0095 9.89089C22.3399 10.5248 22.5595 11.1124 22.6959 11.5399C22.7639 11.7529 22.8105 11.9241 22.8394 12.0388C22.8539 12.096 22.8639 12.139 22.8699 12.1659C22.873 12.1793 22.875 12.1887 22.8761 12.1938C22.8766 12.1963 22.8769 12.1978 22.877 12.1982C22.877 12.1983 22.877 12.1982 22.8769 12.1979C22.8769 12.1977 22.8768 12.1974 22.8768 12.1971C22.8767 12.197 22.8767 12.1967 22.8767 12.1966C22.8766 12.1963 22.8765 12.1959 23.8571 12C24.8378 11.8041 24.8377 11.8037 24.8376 11.8033C24.8376 11.8032 24.8375 11.8028 24.8374 11.8024C24.8373 11.8018 24.8372 11.8012 24.837 11.8004C24.8367 11.7989 24.8363 11.7971 24.8359 11.795C24.8351 11.7908 24.8339 11.7855 24.8326 11.7791C24.8299 11.7662 24.8261 11.7488 24.8213 11.7273C24.8116 11.6842 24.7975 11.6241 24.7785 11.549C24.7406 11.3989 24.683 11.1881 24.6013 10.9321C24.4385 10.4218 24.1777 9.72378 23.7831 8.96653C23.0003 7.46458 21.6438 5.64258 19.396 4.67312L18.604 6.50959ZM20 5.59135V5H18V5.59135H20ZM14 5.59134V5H12V5.59134H14ZM24.8571 18V12H22.8571V18H24.8571ZM6.00703 22.7788L8.41328 18.4892L6.66898 17.5108L4.26273 21.8003L6.00703 22.7788ZM12.5407 6.96534C12.806 6.79479 13.0906 6.64131 13.396 6.50958L12.604 4.67311C12.1941 4.84986 11.8131 5.05551 11.4593 5.28288L12.5407 6.96534ZM8.53614 18.0998L8.93729 14.0998L6.94727 13.9002L6.54612 17.9002L8.53614 18.0998ZM6.54113 26H19.5V24H6.54113V26ZM26.0664 19.43L24.6788 17.43L23.0355 18.57L24.4231 20.57L26.0664 19.43ZM5.93703 22.9451C5.9396 22.9275 5.95221 22.8765 6.00703 22.7788L4.26273 21.8003C4.13853 22.0217 4.00821 22.312 3.95797 22.6565L5.93703 22.9451ZM2.29289 3.70711L28.2929 29.7071L29.7071 28.2929L3.70711 2.29289L2.29289 3.70711Z" fill="black"/>
</svg>
