<svg width="32" height="32" viewBox="0 0 32 32" fill="none" xmlns="http://www.w3.org/2000/svg">
<rect width="32" height="32" fill="white"/>
<path d="M12.9641 23.5359L13.8302 24.0359L14.3302 23.1699L13.4641 22.6699L12.9641 23.5359ZM6.03594 19.5359L6.53594 18.6699L5.66991 18.1699L5.16991 19.0359L6.03594 19.5359ZM5.05843 18.9978L5.55843 18.1318H5.55843L5.05843 18.9978ZM21.4417 28.4567L20.9417 29.3227L21.4417 28.4567ZM23.8837 27.4392L22.9677 27.0379L22.9677 27.0379L23.8837 27.4392ZM4.7779 16.2964L5.56271 16.9162H5.56271L4.7779 16.2964ZM20.652 4.90675L19.7859 4.40675L19.7859 4.40675L20.652 4.90675ZM25.8481 7.90675L26.7141 8.40675L26.7142 8.40675L25.8481 7.90675ZM25.5524 8.41888L24.6864 7.91887L24.3575 8.4885L24.7504 9.01607L25.5524 8.41888ZM26.5545 16.3975L27.4206 16.8975L27.47 16.8118L27.5017 16.7181L26.5545 16.3975ZM12.9456 8.54036L12.1943 7.88036L12.1622 7.91693L12.1338 7.95643L12.9456 8.54036ZM20.3563 5.41887L20.2402 6.4121L20.8935 6.48849L21.2223 5.91887L20.3563 5.41887ZM23.9804 26.7159L22.9838 26.7988L23.9804 26.7159ZM23.5545 21.5937L22.6885 21.0937L22.532 21.3647L22.558 21.6765L23.5545 21.5937ZM5.19581 15.9474L4.68513 15.0876L4.68513 15.0876L5.19581 15.9474ZM9.42446 13.4356L9.93514 14.2954L10.1145 14.1889L10.2363 14.0196L9.42446 13.4356ZM12.0981 23.0359C11.2697 24.4708 9.43492 24.9624 8.00004 24.134L7.00004 25.8661C9.3915 27.2468 12.4495 26.4274 13.8302 24.0359L12.0981 23.0359ZM8.00004 24.134C6.56516 23.3056 6.07354 21.4708 6.90197 20.0359L5.16991 19.0359C3.7892 21.4274 4.60858 24.4854 7.00004 25.8661L8.00004 24.134ZM5.53594 20.402L12.4641 24.402L13.4641 22.6699L6.53594 18.6699L5.53594 20.402ZM4.55843 19.8639L20.9417 29.3227L21.9417 27.5907L5.55843 18.1318L4.55843 19.8639ZM20.9417 29.3227C21.7203 29.7723 22.5616 29.8001 23.2942 29.4597C23.9912 29.1359 24.5002 28.5241 24.7997 27.8404L22.9677 27.0379C22.8164 27.3834 22.61 27.5723 22.4515 27.6459C22.3286 27.703 22.1743 27.725 21.9417 27.5907L20.9417 29.3227ZM3.9931 15.6767C3.51544 16.2816 3.20903 17.043 3.25846 17.8285C3.31057 18.6564 3.75517 19.4001 4.55843 19.8639L5.55843 18.1318C5.32118 17.9948 5.26354 17.8462 5.25451 17.7028C5.24282 17.517 5.3164 17.2281 5.56271 16.9162L3.9931 15.6767ZM21.518 5.40675C22.0703 4.45017 23.2935 4.12242 24.25 4.6747L25.25 2.94265C23.3369 1.83808 20.8905 2.49358 19.7859 4.40675L21.518 5.40675ZM24.25 4.6747C25.2066 5.22699 25.5344 6.45017 24.9821 7.40675L26.7142 8.40675C27.8187 6.49358 27.1632 4.04722 25.25 2.94265L24.25 4.6747ZM24.7504 9.01607C25.834 10.4715 26.0713 12.2047 26.009 13.6471C25.9782 14.3613 25.8746 14.9801 25.7789 15.4185C25.7312 15.6369 25.686 15.8084 25.6538 15.9222C25.6377 15.979 25.6249 16.0213 25.6167 16.0475C25.6126 16.0607 25.6096 16.0698 25.608 16.0748C25.6072 16.0772 25.6067 16.0787 25.6066 16.079C25.6065 16.0792 25.6066 16.0791 25.6067 16.0788C25.6068 16.0786 25.6068 16.0783 25.6069 16.078C25.607 16.0779 25.6071 16.0776 25.6071 16.0775C25.6072 16.0772 25.6073 16.0769 26.5545 16.3975C27.5017 16.7181 27.5019 16.7178 27.502 16.7174C27.502 16.7172 27.5022 16.7169 27.5023 16.7166C27.5025 16.716 27.5027 16.7153 27.5029 16.7146C27.5034 16.7131 27.504 16.7114 27.5047 16.7093C27.506 16.7053 27.5077 16.7001 27.5098 16.6939C27.5138 16.6814 27.5193 16.6645 27.5258 16.6434C27.539 16.6012 27.5569 16.5421 27.578 16.4676C27.6202 16.3186 27.6757 16.1073 27.7329 15.8448C27.8471 15.3214 27.9703 14.5865 28.0071 13.7334C28.0802 12.0413 27.8164 9.78513 26.3545 7.82168L24.7504 9.01607ZM26.4185 8.91888L26.7141 8.40675L24.9821 7.40675L24.6864 7.91887L26.4185 8.91888ZM12.9456 8.54036C13.6968 9.20035 13.6966 9.2006 13.6964 9.20084C13.6963 9.20091 13.6961 9.20113 13.696 9.20126C13.6958 9.20151 13.6956 9.2017 13.6955 9.20184C13.6953 9.20212 13.6952 9.20219 13.6953 9.20205C13.6956 9.20176 13.6966 9.20064 13.6983 9.1987C13.7018 9.19483 13.7083 9.18772 13.7176 9.17761C13.7362 9.15737 13.7664 9.12515 13.8076 9.08278C13.89 8.99797 14.0159 8.87304 14.1813 8.72254C14.5131 8.42051 14.9971 8.02141 15.6002 7.63762C16.8183 6.86246 18.4379 6.20136 20.2402 6.4121L20.4724 4.42563C18.0411 4.14134 15.9553 5.04098 14.5264 5.95032C13.806 6.40879 13.2312 6.88288 12.835 7.24347C12.6364 7.4243 12.481 7.57804 12.3731 7.68907C12.3192 7.74463 12.2769 7.78962 12.247 7.82212C12.232 7.83837 12.2201 7.85151 12.2113 7.86129C12.2069 7.86618 12.2033 7.87024 12.2004 7.87343C12.199 7.87502 12.1978 7.8764 12.1968 7.87756C12.1963 7.87814 12.1958 7.87866 12.1954 7.87913C12.1952 7.87936 12.1949 7.87967 12.1948 7.87979C12.1945 7.88008 12.1943 7.88036 12.9456 8.54036ZM21.2223 5.91887L21.518 5.40675L19.7859 4.40675L19.4903 4.91887L21.2223 5.91887ZM24.977 26.633L24.5511 21.5108L22.558 21.6765L22.9838 26.7988L24.977 26.633ZM24.4206 22.0937L27.4206 16.8975L25.6885 15.8975L22.6885 21.0937L24.4206 22.0937ZM5.70649 16.8071L9.93514 14.2954L8.91377 12.5759L4.68513 15.0876L5.70649 16.8071ZM10.2363 14.0196L13.7574 9.12428L12.1338 7.95643L8.61265 12.8517L10.2363 14.0196ZM24.7997 27.8404C24.9893 27.4077 25.0052 26.9731 24.977 26.633L22.9838 26.7988C22.9965 26.9508 22.9763 27.0184 22.9677 27.0379L24.7997 27.8404ZM5.56271 16.9162C5.57372 16.9022 5.61015 16.8644 5.70649 16.8071L4.68513 15.0876C4.46686 15.2172 4.20887 15.4035 3.9931 15.6767L5.56271 16.9162Z" fill="black"/>
</svg>
