<svg width="32" height="32" viewBox="0 0 32 32" fill="none" xmlns="http://www.w3.org/2000/svg">
<rect width="32" height="32" fill="white"/>
<path d="M3 11H4H3ZM3 25H2H3ZM25 29V28V29ZM7 29V30V29ZM29 11H28H29ZM29 25H30H29ZM25 7.00004L25 6.00004L25 7.00004ZM7.00001 7.00001L7.00001 8.00001L7.00001 7.00001ZM18 3V2H18L18 3ZM14 3V4H14L14 3ZM2 11L2 25H4L4 11H2ZM25 28H7V30H25V28ZM28 11V25H30V11H28ZM25 6.00004L7.00001 6.00001L7.00001 8.00001L25 8.00004L25 6.00004ZM30 11C30 8.23862 27.7614 6.00005 25 6.00004L25 8.00004C26.6569 8.00004 28 9.34319 28 11H30ZM4 11C4 9.34315 5.34315 8 7.00001 8.00001L7.00001 6.00001C4.23859 6 2 8.23858 2 11H4ZM2 25C2 27.7614 4.23858 30 7 30V28C5.34315 28 4 26.6569 4 25H2ZM25 30C27.7614 30 30 27.7614 30 25H28C28 26.6569 26.6569 28 25 28V30ZM13 16L3 16L3 18L13 18L13 16ZM29 16L19 16L19 18L29 18L29 16ZM18 2L14 2L14 4L18 4L18 2ZM23 6.99999C23 4.23857 20.7614 2 18 2V4C19.6569 4 21 5.34314 21 6.99999H23ZM11 7C11 5.34315 12.3431 4 14 4V2C11.2386 2 9 4.23858 9 7H11ZM18 18C18 19.1046 17.1046 20 16 20V22C18.2091 22 20 20.2091 20 18H18ZM16 20C14.8954 20 14 19.1046 14 18H12C12 20.2091 13.7909 22 16 22V20ZM14 18C14 16.8954 14.8954 16 16 16V14C13.7909 14 12 15.7909 12 18H14ZM16 16C17.1046 16 18 16.8954 18 18H20C20 15.7909 18.2091 14 16 14V16Z" fill="black"/>
</svg>
