<svg width="32" height="32" viewBox="0 0 32 32" fill="none" xmlns="http://www.w3.org/2000/svg">
<rect width="32" height="32" fill="white"/>
<path d="M26 10H25H26ZM26 25H27H26ZM10 29V30V29ZM22 29V28V29ZM6 10L7 10L6 10ZM6.00002 25L5.00002 25L6.00002 25ZM22 6H21V6L22 6ZM22 8H23L23 8L22 8ZM10 8H11H10ZM14.2445 4.04103L15.1216 4.5212L14.2445 4.04103ZM17.7555 4.04103L16.8784 4.5212L17.7555 4.04103ZM25 10L25 25H27L27 10H25ZM10 30L22 30V28L10 28V30ZM5 10L5.00002 25L7.00002 25L7 10L5 10ZM7 10C7 8.34315 8.34314 7 9.99999 7V5C7.23857 5 5 7.23858 5 10L7 10ZM10 28C8.34317 28 7.00002 26.6569 7.00002 25L5.00002 25C5.00002 27.7614 7.2386 30 10 30V28ZM25 25C25 26.6569 23.6569 28 22 28V30C24.7614 30 27 27.7614 27 25H25ZM27 10C27 7.23858 24.7614 5 22 5V7C23.6568 7 25 8.34315 25 10H27ZM16 4C16.3772 4 16.7072 4.20846 16.8784 4.5212L18.6327 3.56085C18.1247 2.63288 17.137 2 16 2V4ZM15.1216 4.5212C15.2928 4.20846 15.6228 4 16 4V2C14.863 2 13.8753 2.63288 13.3673 3.56085L15.1216 4.5212ZM11 6H13V4H11V6ZM11 8L11 6L8.99999 6L9 8H11ZM21 8H11V10H21V8ZM21 6L21 8L23 8L23 6L21 6ZM19 6H21V4H19V6ZM23 6C23 4.89543 22.1046 4 21 4V6H21H23ZM21 10C22.1046 10 23 9.10457 23 8H21V10ZM9 8C9 9.10457 9.89543 10 11 10V8H9ZM11 4C9.89543 4 8.99999 4.89543 8.99999 6H11H11V4ZM13.3673 3.56085C13.2719 3.73504 13.1684 3.86636 13.0789 3.94311C12.9945 4.0155 12.9719 4 13 4V6C13.5804 6 14.0474 5.74723 14.3809 5.46125C14.7093 5.17963 14.9518 4.83146 15.1216 4.5212L13.3673 3.56085ZM16.8784 4.5212C17.0482 4.83146 17.2907 5.17963 17.6191 5.46125C17.9525 5.74723 18.4196 6 19 6V4C19.0281 4 19.0055 4.0155 18.9211 3.94311C18.8316 3.86636 18.7281 3.73504 18.6327 3.56085L16.8784 4.5212Z" fill="black"/>
</svg>
