<svg width="32" height="32" viewBox="0 0 32 32" fill="none" xmlns="http://www.w3.org/2000/svg">
<rect width="32" height="32" fill="white"/>
<path d="M11 19L10.2929 18.2929C9.90237 18.6834 9.90237 19.3166 10.2929 19.7071L11 19ZM14.7071 16.7071C15.0976 16.3166 15.0976 15.6834 14.7071 15.2929C14.3166 14.9024 13.6834 14.9024 13.2929 15.2929L14.7071 16.7071ZM13.2929 22.7071C13.6834 23.0976 14.3166 23.0976 14.7071 22.7071C15.0976 22.3166 15.0976 21.6834 14.7071 21.2929L13.2929 22.7071ZM21 21L21.7071 21.7071C22.0976 21.3166 22.0976 20.6834 21.7071 20.2929L21 21ZM18.7071 17.2929C18.3166 16.9024 17.6834 16.9024 17.2929 17.2929C16.9024 17.6834 16.9024 18.3166 17.2929 18.7071L18.7071 17.2929ZM17.2929 23.2929C16.9024 23.6834 16.9024 24.3166 17.2929 24.7071C17.6834 25.0976 18.3166 25.0976 18.7071 24.7071L17.2929 23.2929ZM6.00003 10L5.29293 9.29289C5.10539 9.48043 5.00003 9.73478 5.00003 10L6.00003 10ZM13 3V2C12.7348 2 12.4805 2.10536 12.2929 2.29289L13 3ZM26 7H25H26ZM26 25H27H26ZM6 25L7 25L6 25ZM14 11V12C14.5523 12 15 11.5523 15 11H14ZM6.00003 11L5.00003 11L6.00003 11ZM11.7071 19.7071L14.7071 16.7071L13.2929 15.2929L10.2929 18.2929L11.7071 19.7071ZM10.2929 19.7071L13.2929 22.7071L14.7071 21.2929L11.7071 18.2929L10.2929 19.7071ZM21.7071 20.2929L18.7071 17.2929L17.2929 18.7071L20.2929 21.7071L21.7071 20.2929ZM20.2929 20.2929L17.2929 23.2929L18.7071 24.7071L21.7071 21.7071L20.2929 20.2929ZM6.70714 10.7071L13.7071 3.70711L12.2929 2.29289L5.29293 9.29289L6.70714 10.7071ZM10 30H22V28H10V30ZM25 7L25 25H27L27 7H25ZM10 28C8.34314 28 7 26.6569 7 25L5 25C4.99999 27.7614 7.23857 30 10 30V28ZM22 30C24.7615 30 27 27.7614 27 25H25C25 26.6569 23.6569 28 22 28V30ZM22 4C23.6569 4 25 5.34315 25 7H27C27 4.23858 24.7615 2 22 2V4ZM13 4H14V2H13V4ZM14 4H22V2H14V4ZM5.00003 10L5.00003 11L7.00003 11L7.00003 10L5.00003 10ZM5.00003 11L5 25L7 25L7.00003 11L5.00003 11ZM13 3V11H15V3H13ZM14 10H6.00003V12H14V10Z" fill="black"/>
</svg>
