<svg width="32" height="32" viewBox="0 0 32 32" fill="none" xmlns="http://www.w3.org/2000/svg">
<rect width="32" height="32" fill="white"/>
<path d="M5 8.72727L4.28792 8.02517C4.10343 8.21228 4 8.4645 4 8.72727H5ZM10.6471 3V2C10.3794 2 10.1229 2.1073 9.93498 2.2979L10.6471 3ZM21 7H22L22 7L21 7ZM21 20H22H21ZM21 7C20.4477 7 20 7.44772 20 8C20 8.55228 20.4477 9 21 9V7ZM26 12H25H26ZM26 25H27H26ZM11 24C11 23.4477 10.5523 23 10 23C9.44772 23 9 23.4477 9 24H11ZM13 3C13 2.44772 12.5523 2 12 2C11.4477 2 11 2.44772 11 3H13ZM12 10V11C12.5523 11 13 10.5523 13 10H12ZM5 9C4.44772 9 4 9.44772 4 10C4 10.5523 4.44772 11 5 11V9ZM5.71208 9.42938L11.3591 3.7021L9.93498 2.2979L4.28792 8.02517L5.71208 9.42938ZM9 25H17V23H9V25ZM10.6471 4H17V2H10.6471V4ZM20 7L20 20H22L22 7H20ZM4 8.72727V20H6V8.72727H4ZM9 23C7.34315 23 6 21.6569 6 20H4C4 22.7614 6.23858 25 9 25V23ZM17 25C19.7614 25 22 22.7614 22 20H20C20 21.6569 18.6569 23 17 23V25ZM17 4C18.6569 4 20 5.34315 20 7L22 7C22 4.23858 19.7614 2 17 2V4ZM14 30H22V28H14V30ZM21 9H22V7H21V9ZM25 12L25 25H27L27 12H25ZM9 24V25H11V24H9ZM14 28C12.3431 28 11 26.6569 11 25H9C9 27.7614 11.2386 30 14 30V28ZM22 30C24.7614 30 27 27.7614 27 25H25C25 26.6569 23.6569 28 22 28V30ZM22 9C23.6569 9 25 10.3431 25 12H27C27 9.23858 24.7614 7 22 7V9ZM11 3V10H13V3H11ZM12 9H5V11H12V9Z" fill="black"/>
</svg>
