<svg width="32" height="32" viewBox="0 0 32 32" fill="none" xmlns="http://www.w3.org/2000/svg">
<rect width="32" height="32" fill="white"/>
<path d="M6.00003 10L5.29293 9.29289C5.10539 9.48043 5.00003 9.73478 5.00003 10L6.00003 10ZM13 3V2C12.7348 2 12.4805 2.10536 12.2929 2.29289L13 3ZM26 7H25H26ZM26 25H27H26ZM6 25L7 25L6 25ZM14 11V12C14.5523 12 15 11.5523 15 11H14ZM6.00003 11L5.00003 11L6.00003 11ZM25 18C25 18.5523 25.4478 19 26 19C26.5523 19 27 18.5523 27 18H25ZM6.70714 10.7071L13.7071 3.70711L12.2929 2.29289L5.29293 9.29289L6.70714 10.7071ZM10 30H22V28H10V30ZM25 7L25 25H27L27 7H25ZM10 28C8.34314 28 7 26.6569 7 25L5 25C4.99999 27.7614 7.23857 30 10 30V28ZM22 30C24.7615 30 27 27.7614 27 25H25C25 26.6569 23.6569 28 22 28V30ZM22 4C23.6569 4 25 5.34315 25 7H27C27 4.23858 24.7615 2 22 2V4ZM13 4H14V2H13V4ZM14 4H22V2H14V4ZM5.00003 10L5.00003 11L7.00003 11L7.00003 10L5.00003 10ZM5.00003 11L5 25L7 25L7.00003 11L5.00003 11ZM13 3V11H15V3H13ZM14 10H6.00003V12H14V10ZM25 7L25 18H27L27 7L25 7ZM5.00003 11L5 18L7 18L7.00003 11L5.00003 11Z" fill="black"/>
</svg>
