<svg width="32" height="32" viewBox="0 0 32 32" fill="none" xmlns="http://www.w3.org/2000/svg">
<rect width="32" height="32" fill="white"/>
<path d="M3 6.99269H4H3ZM25 28.9927V27.9927V28.9927ZM7 28.9927V29.9927V28.9927ZM13 3.9927C13.5523 3.9927 14 3.54499 14 2.99271C14 2.44042 13.5523 1.9927 13 1.9927L13 3.9927ZM7.00001 2.99269L7.00002 1.99269L7.00001 2.99269ZM30 18.9927C30 18.4404 29.5523 17.9927 29 17.9927C28.4477 17.9927 28 18.4404 28 18.9927H30ZM29 24.9927H30H29ZM13.2929 17.2856C12.9024 17.6761 12.9024 18.3093 13.2929 18.6998C13.6834 19.0903 14.3166 19.0903 14.7071 18.6998L13.2929 17.2856ZM29.7071 3.69978C30.0976 3.30926 30.0976 2.67609 29.7071 2.28557C29.3166 1.89504 28.6834 1.89504 28.2929 2.28557L29.7071 3.69978ZM21.0018 1.99268C20.4495 1.99167 20.001 2.43856 20 2.99084C19.999 3.54313 20.4459 3.99166 20.9982 3.99267L21.0018 1.99268ZM29 3.00732L30 3.00732C30 2.45575 29.5534 2.00833 29.0019 2.00732L29 3.00732ZM28 10.9926C28 11.5449 28.4477 11.9926 29 11.9926C29.5523 11.9926 30 11.5449 30 10.9926L28 10.9926ZM2 6.99269L2 24.9927H4L4 6.99269H2ZM25 27.9927L7 27.9927V29.9927L25 29.9927V27.9927ZM13 1.9927L7.00002 1.99269L7.00001 3.99269L13 3.9927L13 1.9927ZM28 18.9927V24.9927H30V18.9927H28ZM4 6.99269C4 5.33583 5.34315 3.99268 7.00001 3.99269L7.00002 1.99269C4.23858 1.99268 2 4.23126 2 6.99269H4ZM2 24.9927C2 27.7541 4.23857 29.9927 7 29.9927V27.9927C5.34314 27.9927 4 26.6495 4 24.9927H2ZM25 29.9927C27.7614 29.9927 30 27.7541 30 24.9927H28C28 26.6495 26.6569 27.9927 25 27.9927V29.9927ZM14.7071 18.6998L29.7071 3.69978L28.2929 2.28557L13.2929 17.2856L14.7071 18.6998ZM20.9982 3.99267L28.9982 4.00732L29.0019 2.00732L21.0018 1.99268L20.9982 3.99267ZM28 3.00732L28 10.9926L30 10.9926L30 3.00732L28 3.00732Z" fill="black"/>
</svg>
