<svg width="32" height="32" viewBox="0 0 32 32" fill="none" xmlns="http://www.w3.org/2000/svg">
<rect width="32" height="32" fill="white"/>
<path d="M25 7.99999V6.99999V7.99999ZM17 7.99999L16.1425 8.51449L16.4338 8.99999H17V7.99999ZM14 3L14.8575 2.4855L14.5662 2L14 2V3ZM7 3V2V3ZM3 7H2H3ZM29 12H28H29ZM28 16.5C28 17.0523 28.4477 17.5 29 17.5C29.5523 17.5 30 17.0523 30 16.5H28ZM4.28449 19.1006L5.25888 19.3254H5.25888L4.28449 19.1006ZM3.13064 24.1006L4.10504 24.3254H4.10504L3.13064 24.1006ZM25.818 29V30V29ZM7.02821 29L7.02821 28L7.02821 29ZM30.8694 20.8994L31.8438 21.1243L30.8694 20.8994ZM29.7155 25.8994L30.6899 26.1243L29.7155 25.8994ZM26.9718 16V15V16ZM8.18205 16L8.18205 17L8.18205 16ZM25 6.99999H17V8.99999H25V6.99999ZM17.8575 7.4855L14.8575 2.4855L13.1425 3.5145L16.1425 8.51449L17.8575 7.4855ZM14 2L7 2V4L14 4V2ZM2 7L2 25.5H4L4 7H2ZM28 12V16.5H30V12H28ZM25 8.99999C26.6569 8.99999 28 10.3431 28 12H30C30 9.23857 27.7614 6.99999 25 6.99999V8.99999ZM7 2C4.23858 2 2 4.23858 2 7H4C4 5.34315 5.34315 4 7 4V2ZM3.3101 18.8757L2.15625 23.8757L4.10504 24.3254L5.25888 19.3254L3.3101 18.8757ZM25.818 28L7.02821 28L7.02821 30L25.818 30V28ZM29.895 20.6746L28.7411 25.6746L30.6899 26.1243L31.8438 21.1243L29.895 20.6746ZM26.9718 15L8.18205 15L8.18205 17L26.9718 17V15ZM31.8438 21.1243C32.5668 17.9912 30.1872 15 26.9718 15V17C28.9011 17 30.3288 18.7947 29.895 20.6746L31.8438 21.1243ZM5.25888 19.3254C5.573 17.9642 6.78509 17 8.18205 17L8.18205 15C5.85377 15 3.83363 16.6071 3.3101 18.8757L5.25888 19.3254ZM2.15625 23.8757C1.43323 27.0088 3.81279 30 7.02821 30L7.02821 28C5.09895 28 3.67122 26.2053 4.10504 24.3254L2.15625 23.8757ZM25.818 30C28.1462 30 30.1664 28.3929 30.6899 26.1243L28.7411 25.6746C28.427 27.0358 27.2149 28 25.818 28V30Z" fill="black"/>
</svg>
