<svg width="32" height="32" viewBox="0 0 32 32" fill="none" xmlns="http://www.w3.org/2000/svg">
<rect width="32" height="32" fill="white"/>
<path d="M3 7H2H3ZM3 25H4H3ZM25 29V28V29ZM7 29V30V29ZM29 12H28H29ZM29 25H30H29ZM25 7.99999V6.99999V7.99999ZM17 7.99999L16.1425 8.51449L16.4338 8.99999H17V7.99999ZM14 3L14.8575 2.4855L14.5662 2L14 2V3ZM7 3V4V3ZM2 7L2 25H4L4 7H2ZM25 28L7 28V30L25 30V28ZM28 12V25H30V12H28ZM25 6.99999H17V8.99999H25V6.99999ZM17.8575 7.4855L14.8575 2.4855L13.1425 3.5145L16.1425 8.51449L17.8575 7.4855ZM14 2L7 2V4L14 4V2ZM30 12C30 9.23857 27.7614 6.99999 25 6.99999V8.99999C26.6569 8.99999 28 10.3431 28 12H30ZM4 7C4 5.34315 5.34315 4 7 4V2C4.23858 2 2 4.23858 2 7H4ZM2 25C2 27.7615 4.23858 30 7 30V28C5.34315 28 4 26.6569 4 25H2ZM25 30C27.7614 30 30 27.7615 30 25H28C28 26.6569 26.6569 28 25 28V30Z" fill="black"/>
</svg>
