<svg width="32" height="32" viewBox="0 0 32 32" fill="none" xmlns="http://www.w3.org/2000/svg">
<rect width="32" height="32" fill="white"/>
<path d="M3 7H2H3ZM3 25H4H3ZM25 29V28V29ZM7 29V30V29ZM29 12H28H29ZM29 25H30H29ZM25 7.99999V6.99999V7.99999ZM17 7.99999L16.1425 8.51449L16.4338 8.99999H17V7.99999ZM14 3L14.8575 2.4855L14.5662 2L14 2V3ZM7 3V4V3ZM21 10C21 9.44772 20.5523 9 20 9C19.4477 9 19 9.44772 19 10H21ZM19 11C19 11.5523 19.4477 12 20 12C20.5523 12 21 11.5523 21 11H19ZM23 13C23 12.4477 22.5523 12 22 12C21.4477 12 21 12.4477 21 13H23ZM21 14C21 14.5523 21.4477 15 22 15C22.5523 15 23 14.5523 23 14H21ZM21 16C21 15.4477 20.5523 15 20 15C19.4477 15 19 15.4477 19 16H21ZM19 17C19 17.5523 19.4477 18 20 18C20.5523 18 21 17.5523 21 17H19ZM23 19C23 18.4477 22.5523 18 22 18C21.4477 18 21 18.4477 21 19H23ZM21 20C21 20.5523 21.4477 21 22 21C22.5523 21 23 20.5523 23 20H21ZM21 22C21 21.4477 20.5523 21 20 21C19.4477 21 19 21.4477 19 22H21ZM19 23C19 23.5523 19.4477 24 20 24C20.5523 24 21 23.5523 21 23H19ZM23 25C23 24.4477 22.5523 24 22 24C21.4477 24 21 24.4477 21 25H23ZM21 26C21 26.5523 21.4477 27 22 27C22.5523 27 23 26.5523 23 26H21ZM21 28C21 27.4477 20.5523 27 20 27C19.4477 27 19 27.4477 19 28H21ZM19 29C19 29.5523 19.4477 30 20 30C20.5523 30 21 29.5523 21 29H19ZM2 7L2 25H4L4 7H2ZM25 28L7 28V30L25 30V28ZM28 12V25H30V12H28ZM25 6.99999H17V8.99999H25V6.99999ZM17.8575 7.4855L14.8575 2.4855L13.1425 3.5145L16.1425 8.51449L17.8575 7.4855ZM14 2L7 2V4L14 4V2ZM30 12C30 9.23857 27.7614 6.99999 25 6.99999V8.99999C26.6569 8.99999 28 10.3431 28 12H30ZM4 7C4 5.34315 5.34315 4 7 4V2C4.23858 2 2 4.23858 2 7H4ZM2 25C2 27.7615 4.23858 30 7 30V28C5.34315 28 4 26.6569 4 25H2ZM25 30C27.7614 30 30 27.7615 30 25H28C28 26.6569 26.6569 28 25 28V30ZM19 10V11H21V10H19ZM21 13V14H23V13H21ZM19 16V17H21V16H19ZM21 19V20H23V19H21ZM19 22V23H21V22H19ZM21 25V26H23V25H21ZM19 28V29H21V28H19Z" fill="black"/>
</svg>
