<svg width="32" height="32" viewBox="0 0 32 32" fill="none" xmlns="http://www.w3.org/2000/svg">
<rect width="32" height="32" fill="white"/>
<path d="M7.00001 7L7.97186 7.2356L7.97662 7.21595L7.98059 7.19612L7.00001 7ZM11 4C11.5523 4 12 3.55228 12 3C12 2.44772 11.5523 2 11 2V4ZM2.02815 23.2646C1.89803 23.8013 2.22766 24.3419 2.7644 24.4721C3.30114 24.6022 3.84173 24.2725 3.97185 23.7358L2.02815 23.2646ZM25 7L24.0194 7.19612L24.0234 7.21595L24.0281 7.2356L25 7ZM21 2C20.4477 2 20 2.44772 20 3C20 3.55228 20.4477 4 21 4V2ZM28.0281 23.7358C28.1583 24.2725 28.6989 24.6022 29.2356 24.4721C29.7723 24.3419 30.102 23.8013 29.9719 23.2646L28.0281 23.7358ZM12 24C12 26.2091 10.2091 28 8 28V30C11.3137 30 14 27.3137 14 24H12ZM8 28C5.79086 28 4 26.2091 4 24H2C2 27.3137 4.68629 30 8 30V28ZM4 24C4 21.7909 5.79086 20 8 20V18C4.68629 18 2 20.6863 2 24H4ZM8 20C10.2091 20 12 21.7909 12 24H14C14 20.6863 11.3137 18 8 18V20ZM28 24C28 26.2091 26.2091 28 24 28V30C27.3137 30 30 27.3137 30 24H28ZM24 28C21.7909 28 20 26.2091 20 24H18C18 27.3137 20.6863 30 24 30V28ZM20 24C20 21.7909 21.7909 20 24 20V18C20.6863 18 18 20.6863 18 24H20ZM24 20C26.2091 20 28 21.7909 28 24H30C30 20.6863 27.3137 18 24 18V20ZM19 23H13V25H19V23ZM7.98059 7.19612C8.20843 6.05693 8.5959 5.25875 9.07976 4.75577C9.53849 4.27891 10.1463 4 11 4V2C9.64453 2 8.50239 2.47109 7.63841 3.36923C6.79954 4.24125 6.29159 5.44307 6.01943 6.80388L7.98059 7.19612ZM6.02816 6.7644L2.02815 23.2646L3.97185 23.7358L7.97186 7.2356L6.02816 6.7644ZM25.9806 6.80388C25.7084 5.44307 25.2005 4.24125 24.3616 3.36923C23.4976 2.47109 22.3555 2 21 2V4C21.8537 4 22.4615 4.27891 22.9202 4.75577C23.4041 5.25875 23.7916 6.05693 24.0194 7.19612L25.9806 6.80388ZM24.0281 7.2356L28.0281 23.7358L29.9719 23.2646L25.9718 6.7644L24.0281 7.2356Z" fill="black"/>
</svg>
