<svg width="32" height="32" viewBox="0 0 32 32" fill="none" xmlns="http://www.w3.org/2000/svg">
<rect width="32" height="32" fill="white"/>
<path d="M3.04147 5.58394L2.04147 5.58187L3.04147 5.58394ZM3.00321 24.0557L2.00321 24.0537L3.00321 24.0557ZM26.4929 3.65721L26.2393 2.6899H26.2393L26.4929 3.65721ZM16.8061 6.19649L17.0597 7.1638L16.8061 6.19649ZM27.5063 25.9953L27.7594 26.9627H27.7594L27.5063 25.9953ZM16.7814 28.8016L16.5283 27.8342H16.5283L16.7814 28.8016ZM15.2872 6.19716L15.54 5.22962L15.2872 6.19716ZM5.54691 3.65301L5.79963 2.68547L5.54691 3.65301ZM15.2651 28.8023L15.5174 27.8346L15.5174 27.8346L15.2651 28.8023ZM4.49862 25.9952L4.24632 26.9628H4.24632L4.49862 25.9952ZM17 6.29419C17 5.74191 16.5523 5.29419 16 5.29419C15.4477 5.29419 15 5.74191 15 6.29419H17ZM15 28.8993C15 29.4515 15.4477 29.8993 16 29.8993C16.5523 29.8993 17 29.4515 17 28.8993H15ZM28 5.59185V24.0604H30V5.59185H28ZM2.04147 5.58187L2.00321 24.0537L4.00321 24.0578L4.04147 5.58602L2.04147 5.58187ZM26.2393 2.6899L16.5525 5.22917L17.0597 7.1638L26.7464 4.62453L26.2393 2.6899ZM27.2531 25.0279L16.5283 27.8342L17.0346 29.7691L27.7594 26.9627L27.2531 25.0279ZM15.54 5.22962L5.79963 2.68547L5.29419 4.62055L15.0345 7.1647L15.54 5.22962ZM15.5174 27.8346L4.75091 25.0275L4.24632 26.9628L15.0128 29.7699L15.5174 27.8346ZM16.5525 5.22917C16.2206 5.31617 15.8719 5.31633 15.54 5.22962L15.0345 7.1647C15.6985 7.33812 16.3959 7.33781 17.0597 7.1638L16.5525 5.22917ZM16.5283 27.8342C16.1969 27.9209 15.8488 27.9211 15.5174 27.8346L15.0128 29.7699C15.6757 29.9428 16.3718 29.9425 17.0346 29.7691L16.5283 27.8342ZM4.04147 5.58602C4.04282 4.93196 4.66136 4.45525 5.29419 4.62055L5.79963 2.68547C3.90115 2.18959 2.04554 3.6197 2.04147 5.58187L4.04147 5.58602ZM2.00321 24.0537C2.00038 25.4213 2.9229 26.6178 4.24632 26.9628L4.75091 25.0275C4.30977 24.9125 4.00226 24.5137 4.00321 24.0578L2.00321 24.0537ZM28 24.0604C28 24.5152 27.6931 24.9127 27.2531 25.0279L27.7594 26.9627C29.0794 26.6173 30 25.4248 30 24.0604H28ZM30 5.59185C30 3.62601 28.1409 2.19142 26.2393 2.6899L26.7464 4.62453C27.3803 4.45837 28 4.93657 28 5.59185H30ZM15 6.29419V28.8993H17V6.29419H15Z" fill="black"/>
</svg>
