<svg width="32" height="32" viewBox="0 0 32 32" fill="none" xmlns="http://www.w3.org/2000/svg">
<rect width="32" height="32" fill="white"/>
<path d="M25.5 24H27C28.1046 24 29 23.1046 29 22V13C29 11.8954 28.1046 11 27 11H5C3.89543 11 3 11.8954 3 13V22C3 23.1046 3.89543 24 5 24H6.5M6 11V7C6 4.79086 7.79086 3 10 3H22C24.2091 3 26 4.79086 26 7V11M25 21V27C25 28.1046 24.1046 29 23 29H9C7.89543 29 7 28.1046 7 27V21C7 19.8954 7.89543 19 9 19H23C24.1046 19 25 19.8954 25 21Z" stroke="black" stroke-width="2"/>
</svg>
