<svg width="32" height="32" viewBox="0 0 32 32" fill="none" xmlns="http://www.w3.org/2000/svg">
<rect width="32" height="32" fill="white"/>
<path d="M4.83355 20.2413C4.48262 19.155 4.29303 17.9962 4.29303 16.7931C4.29303 11.8068 7.54947 7.58109 12.0517 6.12668M8.81889 25.7916C10.6845 27.179 12.9963 28 15.4999 28C18.0035 28 20.3154 27.179 22.181 25.7916M26.1663 20.2413C26.5172 19.155 26.7068 17.9962 26.7068 16.7931C26.7068 11.8068 23.4504 7.58109 18.9482 6.12668M18.9482 6.44828C18.9482 8.35271 17.4044 9.89655 15.4999 9.89655C13.5955 9.89655 12.0517 8.35271 12.0517 6.44828C12.0517 4.54385 13.5955 3 15.4999 3C17.4044 3 18.9482 4.54385 18.9482 6.44828ZM9.89655 23.2586C9.89655 25.163 8.35271 26.7069 6.44828 26.7069C4.54385 26.7069 3 25.163 3 23.2586C3 21.3541 4.54385 19.8103 6.44828 19.8103C8.35271 19.8103 9.89655 21.3541 9.89655 23.2586ZM28 23.2586C28 25.163 26.4562 26.7069 24.5518 26.7069C22.6473 26.7069 21.1035 25.163 21.1035 23.2586C21.1035 21.3541 22.6473 19.8103 24.5518 19.8103C26.4562 19.8103 28 21.3541 28 23.2586Z" stroke="black" stroke-width="2"/>
</svg>
