<svg width="32" height="32" viewBox="0 0 32 32" fill="none" xmlns="http://www.w3.org/2000/svg">
<rect width="32" height="32" fill="white"/>
<path d="M29.0002 22L29.7073 22.7071C29.8948 22.5196 30.0002 22.2652 30.0002 22L29.0002 22ZM22.0002 29V30C22.2654 30 22.5198 29.8946 22.7073 29.7071L22.0002 29ZM25.0002 3V2V3ZM7.00018 3V4V3ZM7.00018 29V28V29ZM3.00018 25H4.00018H3.00018ZM3.00018 7H2.00018H3.00018ZM29.0002 7.00001L28.0002 7.00001L29.0002 7.00001ZM21.0002 21V20C20.4479 20 20.0002 20.4477 20.0002 21H21.0002ZM21.0002 29V30V29ZM29.0002 21L30.0002 21V21L29.0002 21ZM28.2931 21.2929L21.2931 28.2929L22.7073 29.7071L29.7073 22.7071L28.2931 21.2929ZM25.0002 2L7.00018 2V4L25.0002 4V2ZM4.00018 25L4.00018 7H2.00018L2.00018 25H4.00018ZM25.0002 4C26.6571 4 28.0002 5.34315 28.0002 7.00001L30.0002 7.00001C30.0002 4.23859 27.7616 2 25.0002 2V4ZM7.00018 2C4.23875 2 2.00018 4.23858 2.00018 7H4.00018C4.00018 5.34314 5.34333 4 7.00018 4V2ZM7.00018 28C5.34333 28 4.00018 26.6569 4.00018 25H2.00018C2.00018 27.7614 4.23876 30 7.00018 30V28ZM22.0002 28H21.0002V30H22.0002V28ZM21.0002 28L7.00018 28L7.00018 30L21.0002 30V28ZM30.0002 22L30.0002 21L28.0002 21L28.0002 22L30.0002 22ZM30.0002 21L30.0002 7.00001L28.0002 7.00001L28.0002 21L30.0002 21ZM22.0002 29L22.0002 21H20.0002L20.0002 29H22.0002ZM21.0002 22H29.0002V20H21.0002V22Z" fill="black"/>
</svg>
