<svg width="32" height="32" viewBox="0 0 32 32" fill="none" xmlns="http://www.w3.org/2000/svg">
<rect width="32" height="32" fill="white"/>
<path fill-rule="evenodd" clip-rule="evenodd" d="M17.3741 19.3325L19.9192 13.3939C20.1367 12.8863 19.9016 12.2984 19.3939 12.0809C18.8863 11.8633 18.2984 12.0984 18.0809 12.6061L15.306 19.0807C13.9838 19.3938 13 20.582 13 22C13 23.6569 14.3431 25 16 25C17.6569 25 19 23.6569 19 22C19 20.8384 18.3398 19.8309 17.3741 19.3325ZM16.0157 21.0001C16.0051 21.0003 15.9945 21.0003 15.9838 21.0001C15.439 21.0088 15 21.4531 15 22C15 22.5523 15.4477 23 16 23C16.5523 23 17 22.5523 17 22C17 21.453 16.5608 21.0085 16.0157 21.0001Z" fill="black"/>
<path d="M16 9C12.134 9 9 12.134 9 16C9 16.5523 8.55228 17 8 17C7.44772 17 7 16.5523 7 16C7 11.0294 11.0294 7 16 7C20.9706 7 25 11.0294 25 16C25 16.5523 24.5523 17 24 17C23.4477 17 23 16.5523 23 16C23 12.134 19.866 9 16 9Z" fill="black"/>
<path fill-rule="evenodd" clip-rule="evenodd" d="M16 2C8.26801 2 2 8.26801 2 16C2 23.732 8.26801 30 16 30C23.732 30 30 23.732 30 16C30 8.26801 23.732 2 16 2ZM4 16C4 9.37258 9.37258 4 16 4C22.6274 4 28 9.37258 28 16C28 22.6274 22.6274 28 16 28C9.37258 28 4 22.6274 4 16Z" fill="black"/>
</svg>
