<svg width="32" height="32" viewBox="0 0 32 32" fill="none" xmlns="http://www.w3.org/2000/svg">
<rect width="32" height="32" fill="white"/>
<path fill-rule="evenodd" clip-rule="evenodd" d="M16 4C12.5183 4 9.5536 6.22475 8.45493 9.33327L8.21864 10.0018L7.5 10C5.56699 10 4 11.567 4 13.5C4 15.433 5.56699 17 7.5 17C7.5408 17 7.64159 17.001 7.76993 17.0024C7.91348 17.0039 8.09151 17.0057 8.25862 17.0068C8.42396 17.008 8.58532 17.0085 8.71383 17.0077C8.79623 17.0072 8.84699 17.006 8.87332 17.0055C8.89718 17.0049 8.90098 17.0049 8.89008 17.0061C9.43901 16.9454 9.93323 17.3411 9.99394 17.8901C10.0546 18.439 9.65886 18.9332 9.10992 18.9939C9.00491 19.0056 8.83956 19.0069 8.72643 19.0076C8.5847 19.0085 8.41301 19.0079 8.245 19.0068C8.0515 19.0055 7.86959 19.0035 7.73162 19.0021C7.61987 19.0009 7.53694 19 7.5 19C4.46242 19 2 16.5376 2 13.5C2 10.6947 4.10016 8.38004 6.81396 8.04237C8.34685 4.48911 11.8816 2 16 2C19.7188 2 22.9619 4.03006 24.6842 7.03859C27.6759 7.37826 30 9.91768 30 13C30 16.3137 27.3137 19 24 19H22C21.4477 19 21 18.5523 21 18C21 17.4477 21.4477 17 22 17H24C26.2091 17 28 15.2091 28 13C28 10.8082 26.237 9.02802 24.052 9.00032L23.441 8.99257L23.1692 8.44538C21.859 5.80861 19.1398 4 16 4ZM16 14C16.5523 14 17 14.4477 17 15L17 26.5858L20.2929 23.2929C20.6834 22.9024 21.3166 22.9024 21.7071 23.2929C22.0976 23.6834 22.0976 24.3166 21.7071 24.7071L16.7071 29.7071C16.3166 30.0976 15.6834 30.0976 15.2929 29.7071L10.2929 24.7071C9.90237 24.3166 9.90237 23.6834 10.2929 23.2929C10.6834 22.9024 11.3166 22.9024 11.7071 23.2929L15 26.5858L15 15C15 14.4477 15.4477 14 16 14Z" fill="black"/>
</svg>
