<svg width="32" height="32" viewBox="0 0 32 32" fill="none" xmlns="http://www.w3.org/2000/svg">
<rect width="32" height="32" fill="white"/>
<path fill-rule="evenodd" clip-rule="evenodd" d="M16 9C12.134 9 9 12.134 9 16C9 19.866 12.134 23 16 23C19.866 23 23 19.866 23 16C23 12.134 19.866 9 16 9ZM11 16C11 13.2386 13.2386 11 16 11C18.7614 11 21 13.2386 21 16C21 18.7614 18.7614 21 16 21C13.2386 21 11 18.7614 11 16Z" fill="black"/>
<path fill-rule="evenodd" clip-rule="evenodd" d="M18.3045 2.59497C16.8742 1.80168 15.1258 1.80168 13.6955 2.59497L5.32762 7.32219L5.3208 7.32611C3.90106 8.14296 3.01326 9.63704 3 11.2685L2.99997 20.7234L3.00004 20.7315C3.01329 22.363 3.90105 23.8571 5.32079 24.6739L13.6886 29.4012L13.6955 29.405C15.1258 30.1983 16.8742 30.1983 18.3045 29.4051L26.6724 24.6778L26.6792 24.6739C28.0989 23.857 28.9867 22.363 29 20.7315L29 11.2766L29 11.2685C28.9867 9.63705 28.099 8.14294 26.6792 7.32609L18.3114 2.59878L18.3045 2.59497ZM6.31507 9.06147L14.6687 4.34223C15.494 3.88592 16.506 3.88592 17.3313 4.34223L25.685 9.0615C26.4989 9.53127 26.9913 10.3762 27 11.281V20.719C26.9913 21.6238 26.4989 22.4687 25.685 22.9385L17.3313 27.6578C16.506 28.1141 15.494 28.1141 14.6687 27.6578L6.31503 22.9385C5.50109 22.4688 5.00868 21.6238 5 20.719V11.281C5.00868 10.3762 5.50111 9.53122 6.31507 9.06147Z" fill="black"/>
</svg>
