<svg width="32" height="32" viewBox="0 0 32 32" fill="none" xmlns="http://www.w3.org/2000/svg">
<rect width="32" height="32" fill="white"/>
<path fill-rule="evenodd" clip-rule="evenodd" d="M16 1C16.5523 1 17 1.44772 17 2V12C17 12.5523 16.5523 13 16 13C15.4477 13 15 12.5523 15 12V2C15 1.44772 15.4477 1 16 1Z" fill="black"/>
<path fill-rule="evenodd" clip-rule="evenodd" d="M12.9428 5.34958C13.1269 5.8703 12.854 6.44162 12.3332 6.62567C8.05953 8.13621 5 12.2121 5 17C5 23.0751 9.92487 28 16 28C22.0751 28 27 23.0751 27 17C27 12.2121 23.9405 8.13621 19.6668 6.62567C19.146 6.44162 18.8731 5.8703 19.0572 5.34958C19.2412 4.82887 19.8125 4.55594 20.3332 4.73999C25.3811 6.52414 29 11.3382 29 17C29 24.1797 23.1797 30 16 30C8.8203 30 3 24.1797 3 17C3 11.3382 6.61894 6.52414 11.6668 4.73999C12.1875 4.55594 12.7588 4.82887 12.9428 5.34958Z" fill="black"/>
</svg>
