<svg width="16" height="16" viewBox="0 0 16 16" fill="none" xmlns="http://www.w3.org/2000/svg">
<rect width="16" height="16" fill="white"/>
<path fill-rule="evenodd" clip-rule="evenodd" d="M8 1C4.13401 1 1 4.13401 1 8C1 11.866 4.13401 15 8 15C11.866 15 15 11.866 15 8C15 4.13401 11.866 1 8 1ZM3 8C3 5.23858 5.23858 3 8 3C9.02652 3 9.98079 3.30934 10.7747 3.83989L3.83989 10.7747C3.30934 9.98079 3 9.02652 3 8ZM5.25995 12.183C6.04689 12.6996 6.98836 13 8 13C10.7614 13 13 10.7614 13 8C13 6.98836 12.6996 6.04689 12.183 5.25995L5.25995 12.183Z" fill="black"/>
</svg>
