<svg width="16" height="16" viewBox="0 0 16 16" fill="none" xmlns="http://www.w3.org/2000/svg">
<rect width="16" height="16" fill="white"/>
<path fill-rule="evenodd" clip-rule="evenodd" d="M1.29289 9.29289C1.10536 9.48043 1 9.73478 1 10V14C1 14.2652 1.10536 14.5196 1.29289 14.7071C1.48043 14.8946 1.73478 15 2 15H6C6.26521 15 6.51957 14.8946 6.7071 14.7071L14.7071 6.70711C15.0976 6.31658 15.0976 5.68342 14.7071 5.29289L10.7071 1.29289C10.3166 0.902369 9.68341 0.902369 9.29289 1.29289L1.29289 9.29289ZM3 13V10.4142L7 6.41421L9.58578 9L5.58578 13H3ZM11 7.58576L12.5858 6L10 3.41421L8.41424 4.99997L11 7.58576Z" fill="black"/>
</svg>
