<svg width="16" height="16" viewBox="0 0 16 16" fill="none" xmlns="http://www.w3.org/2000/svg">
<rect width="16" height="16" fill="white"/>
<path fill-rule="evenodd" clip-rule="evenodd" d="M8 1C4.13401 1 1 4.13401 1 8C1 11.866 4.13401 15 8 15C11.866 15 15 11.866 15 8C15 4.13401 11.866 1 8 1ZM3 8C3 6.98092 3.30488 6.03304 3.8284 5.24261L5.29237 6.70658C5.10495 7.09822 5 7.53685 5 8C5 8.46315 5.10495 8.90178 5.29237 9.29342L3.8284 10.7574C3.30488 9.96696 3 9.01908 3 8ZM5.24261 12.1716L6.70658 10.7076C7.09822 10.895 7.53685 11 8 11C8.46315 11 8.90178 10.895 9.29342 10.7076L10.7574 12.1716C9.96696 12.6951 9.01908 13 8 13C6.98092 13 6.03304 12.6951 5.24261 12.1716ZM12.1716 10.7574C12.6951 9.96696 13 9.01908 13 8C13 6.98092 12.6951 6.03304 12.1716 5.24261L10.7076 6.70658C10.895 7.09822 11 7.53685 11 8C11 8.46315 10.895 8.90178 10.7076 9.29342L12.1716 10.7574ZM9.29342 5.29237C8.90178 5.10495 8.46315 5 8 5C7.53685 5 7.09822 5.10495 6.70658 5.29237L5.24261 3.8284C6.03304 3.30488 6.98092 3 8 3C9.01908 3 9.96696 3.30488 10.7574 3.8284L9.29342 5.29237ZM7 8C7 7.44772 7.44772 7 8 7C8.55228 7 9 7.44772 9 8C9 8.55228 8.55228 9 8 9C7.44772 9 7 8.55228 7 8Z" fill="black"/>
</svg>
