<svg width="16" height="16" viewBox="0 0 16 16" fill="none" xmlns="http://www.w3.org/2000/svg">
<rect width="16" height="16" fill="white"/>
<path fill-rule="evenodd" clip-rule="evenodd" d="M15 13V8.09432C15 7.22213 14.6204 6.39312 13.9602 5.82325L8.65339 1.24298C8.27803 0.919009 7.72197 0.919008 7.34661 1.24297L2.03985 5.82322C1.37958 6.39309 1 7.22211 1 8.0943V13C1 14.1046 1.89543 15 3 15L13 15C14.1046 15 15 14.1046 15 13ZM13 8.09432V13L11 13V10C11 8.89544 10.1046 8.00001 9 8.00001L7.00001 8C5.89543 8 5 8.89543 5 10L5 13L3 13L3 8.0943C3 7.80357 3.12653 7.52723 3.34662 7.33727L8 3.32096L12.6534 7.3373C12.8735 7.52725 13 7.80359 13 8.09432ZM9 10L9 13L7 13V10L9 10Z" fill="black"/>
</svg>
