<svg width="16" height="16" viewBox="0 0 16 16" fill="none" xmlns="http://www.w3.org/2000/svg">
<rect width="16" height="16" fill="white"/>
<path fill-rule="evenodd" clip-rule="evenodd" d="M7.5 3C5.51763 3 4 4.34211 4 6.44456C4 7.30029 4.41392 8.11092 4.97721 9.02846C5.03478 9.12222 5.0952 9.21921 5.15693 9.31829C5.37294 9.665 5.60493 10.0374 5.78621 10.387C6.01955 10.8371 6.25 11.3938 6.25 12V13H8.75V12C8.75 11.3938 8.98045 10.8371 9.21379 10.387C9.39507 10.0374 9.62706 9.665 9.84307 9.31829C9.9048 9.21921 9.96522 9.12222 10.0228 9.02846C10.5861 8.11092 11 7.30029 11 6.44456C11 4.34211 9.48237 3 7.5 3ZM2 6.44456C2 3.14131 4.51181 1 7.5 1C10.4882 1 13 3.14131 13 6.44456C13 7.91848 12.2889 9.15991 11.7272 10.0748C11.6512 10.1986 11.5789 10.3148 11.5102 10.4252C11.3043 10.7559 11.1309 11.0346 10.9893 11.3076C10.8008 11.6712 10.75 11.8805 10.75 12V14C10.75 14.5523 10.3023 15 9.75 15H5.25C4.69772 15 4.25 14.5523 4.25 14V12C4.25 11.8805 4.1992 11.6712 4.01066 11.3076C3.86913 11.0346 3.69566 10.7559 3.48981 10.4252C3.42108 10.3148 3.34875 10.1986 3.27279 10.0748C2.71108 9.15991 2 7.91848 2 6.44456Z" fill="black"/>
<path d="M9 8.5C9 9.32843 8.32843 10 7.5 10C6.67157 10 6 9.32843 6 8.5C6 7.67157 6.67157 7 7.5 7C8.32843 7 9 7.67157 9 8.5Z" fill="black"/>
</svg>
