<svg width="16" height="16" viewBox="0 0 16 16" fill="none" xmlns="http://www.w3.org/2000/svg">
<rect width="16" height="16" fill="white"/>
<path fill-rule="evenodd" clip-rule="evenodd" d="M3 8C3 5.23858 5.23858 3 8 3C10.7614 3 13 5.23858 13 8C13 10.3058 12.0989 10.9445 11.7575 11.0299C11.5781 11.0747 11.4243 11.0324 11.3007 10.9191C11.1722 10.8012 11 10.5287 11 10V6C11 5.44772 10.5523 5 10 5C9.72412 5 9.47434 5.11171 9.29342 5.29237C8.90178 5.10495 8.46315 5 8 5C6.34315 5 5 6.34315 5 8C5 9.65685 6.34315 11 8 11C8.38056 11 8.74456 10.9291 9.07955 10.7999C9.21139 11.4355 9.50546 11.9866 9.94928 12.3934C10.5757 12.9676 11.4219 13.1753 12.2425 12.9701C13.9011 12.5555 15 10.6942 15 8C15 4.13401 11.866 1 8 1C4.13401 1 1 4.13401 1 8C1 11.866 4.13401 15 8 15C8.55228 15 9 14.5523 9 14C9 13.4477 8.55228 13 8 13C5.23858 13 3 10.7614 3 8ZM9 8C9 7.44772 8.55228 7 8 7C7.44772 7 7 7.44772 7 8C7 8.55228 7.44772 9 8 9C8.55228 9 9 8.55228 9 8Z" fill="black"/>
</svg>
