<svg width="16" height="16" viewBox="0 0 16 16" fill="none" xmlns="http://www.w3.org/2000/svg">
<rect width="16" height="16" fill="white"/>
<path d="M10.5 4C9.67157 4 9 4.67157 9 5.5C9 6.32843 9.67157 7 10.5 7C11.3284 7 12 6.32843 12 5.5C12 4.67157 11.3284 4 10.5 4Z" fill="black"/>
<path fill-rule="evenodd" clip-rule="evenodd" d="M15 3.00002C15 1.89545 14.1046 1.00002 13 1.00002L3 1C1.89543 0.999998 1 1.89543 1 3V13C1 14.1046 1.89543 15 3 15L13 15C14.1046 15 15 14.1046 15 13V3.00002ZM13 9.58579V3.00002L3 3L3 8.58579L4.29289 7.29289C4.49156 7.09423 4.76464 6.9883 5.04531 7.00103C5.32599 7.01376 5.58835 7.14398 5.76822 7.35982L8.24902 10.3368L10.2929 8.29289C10.6834 7.90237 11.3166 7.90237 11.7071 8.29289L13 9.58579ZM13 12.4142L11 10.4142L9.53466 11.8795L10.4684 13L13 13V12.4142ZM3 13L7.86495 13L4.9328 9.48141L3 11.4142V13Z" fill="black"/>
</svg>
