<svg width="16" height="16" viewBox="0 0 16 16" fill="none" xmlns="http://www.w3.org/2000/svg">
<rect width="16" height="16" fill="white"/>
<path d="M8 6C6.89543 6 6 6.89543 6 8C6 9.10457 6.89543 10 8 10C9.10457 10 10 9.10457 10 8C10 6.89543 9.10457 6 8 6Z" fill="black"/>
<path fill-rule="evenodd" clip-rule="evenodd" d="M5.75474 2.57946C6.08498 1.65865 6.96557 1 8 1C9.03443 1 9.91502 1.65865 10.2453 2.57946C11.1299 2.16187 12.2183 2.31881 12.9497 3.05025C13.6812 3.78171 13.8381 4.87011 13.4205 5.75474C14.3413 6.08498 15 6.96557 15 8C15 9.03443 14.3413 9.91502 13.4205 10.2453C13.8381 11.1299 13.6812 12.2183 12.9497 12.9497C12.2183 13.6812 11.1299 13.8381 10.2453 13.4205C9.91502 14.3413 9.03443 15 8 15C6.96557 15 6.08498 14.3413 5.75474 13.4205C4.87011 13.8381 3.7817 13.6812 3.05025 12.9497C2.3188 12.2183 2.16187 11.1299 2.57946 10.2453C1.65866 9.91502 1 9.03443 1 8C1 6.96557 1.65865 6.08498 2.57946 5.75474C2.16188 4.87011 2.3188 3.78171 3.05025 3.05025C3.7817 2.31881 4.87011 2.16187 5.75474 2.57946ZM8 3C7.78758 3 7.61538 3.1722 7.61538 3.38462C7.61538 3.95667 7.24571 4.42505 6.75862 4.60309C6.66271 4.63814 6.56868 4.67716 6.47674 4.71995C6.0062 4.93892 5.41315 4.86922 5.0084 4.46447C4.8582 4.31427 4.61467 4.31427 4.46447 4.46447C4.31428 4.61465 4.31425 4.85817 4.46447 5.00841C4.86919 5.41315 4.93893 6.00622 4.71994 6.47678C4.67714 6.56873 4.63812 6.66276 4.60306 6.75866C4.42502 7.24571 3.95667 7.61538 3.38462 7.61538C3.1722 7.61538 3 7.78758 3 8C3 8.21242 3.1722 8.38462 3.38462 8.38462C3.95667 8.38462 4.42502 8.75429 4.60306 9.24134C4.63812 9.33724 4.67714 9.43127 4.71994 9.52324C4.93895 9.99382 4.86922 10.5869 4.46447 10.9916C4.3143 11.1418 4.31428 11.3853 4.46447 11.5355C4.61467 11.6857 4.8582 11.6857 5.0084 11.5355C5.41316 11.1308 6.00623 11.0611 6.47677 11.2801C6.56871 11.3228 6.66272 11.3619 6.75863 11.3969C7.24571 11.575 7.61538 12.0433 7.61538 12.6154C7.61538 12.8278 7.78758 13 8 13C8.21242 13 8.38462 12.8278 8.38462 12.6154C8.38462 12.0433 8.75429 11.575 9.24137 11.3969C9.33728 11.3619 9.43129 11.3228 9.52323 11.2801C9.99377 11.0611 10.5868 11.1308 10.9916 11.5355C11.1418 11.6857 11.3853 11.6857 11.5355 11.5355C11.6857 11.3853 11.6857 11.1418 11.5355 10.9916C11.1308 10.5869 11.061 9.99382 11.2801 9.52324C11.3229 9.43127 11.3619 9.33724 11.3969 9.24134C11.575 8.75429 12.0433 8.38462 12.6154 8.38462C12.8278 8.38462 13 8.21242 13 8C13 7.78758 12.8278 7.61538 12.6154 7.61538C12.0433 7.61538 11.575 7.24571 11.3969 6.75866C11.3619 6.66276 11.3229 6.56873 11.2801 6.47678C11.0611 6.00622 11.1308 5.41315 11.5355 5.00841C11.6857 4.85817 11.6857 4.61465 11.5355 4.46447C11.3853 4.31427 11.1418 4.31427 10.9916 4.46447C10.5868 4.86922 9.9938 4.93892 9.52326 4.71995C9.43132 4.67716 9.33729 4.63814 9.24138 4.60309C8.75429 4.42505 8.38462 3.95667 8.38462 3.38462C8.38462 3.1722 8.21242 3 8 3Z" fill="black"/>
</svg>
