<svg width="16" height="16" viewBox="0 0 16 16" fill="none" xmlns="http://www.w3.org/2000/svg">
<rect width="16" height="16" fill="white"/>
<path d="M5 12C5.55228 12 6 11.5523 6 11C6 10.4478 5.55228 10 5 10C4.44772 10 4 10.4478 4 11C4 11.5523 4.44772 12 5 12Z" fill="black"/>
<path fill-rule="evenodd" clip-rule="evenodd" d="M10.4291 1.51499C9.63652 0.722391 8.34739 0.735839 7.5715 1.54479L1.5566 7.81601C1.19943 8.1884 1 8.68442 1 9.20042L1 13.0001C1 14.1046 1.89543 15.0001 3 15.0001H6.58803C7.14356 15.0001 7.67407 14.769 8.05243 14.3623L14.0753 7.88737C14.8085 7.0992 14.7863 5.87214 14.0251 5.11098L10.4291 1.51499ZM3 9.20042L9.0149 2.9292L12.6109 6.52519L6.58803 13.0001H3L3 9.20042Z" fill="black"/>
</svg>
