<svg width="16" height="16" viewBox="0 0 16 16" fill="none" xmlns="http://www.w3.org/2000/svg">
<rect width="16" height="16" fill="white"/>
<path fill-rule="evenodd" clip-rule="evenodd" d="M7.29289 1.29289C7.68342 0.902369 8.31658 0.902369 8.70711 1.29289L11.7071 4.29289C12.0976 4.68342 12.0976 5.31658 11.7071 5.70711C11.3166 6.09763 10.6834 6.09763 10.2929 5.70711L9 4.41421V10C9 10.5523 8.55228 11 8 11C7.44772 11 7 10.5523 7 10V4.41421L5.70711 5.70711C5.31658 6.09763 4.68342 6.09763 4.29289 5.70711C3.90237 5.31658 3.90237 4.68342 4.29289 4.29289L7.29289 1.29289ZM2 8C2.55228 8 3 8.44772 3 9V12C3 12.5523 3.44772 13 4 13H12C12.5523 13 13 12.5523 13 12V9C13 8.44772 13.4477 8 14 8C14.5523 8 15 8.44772 15 9V12C15 13.6569 13.6569 15 12 15H4C2.34315 15 1 13.6569 1 12V9C1 8.44772 1.44772 8 2 8Z" fill="black"/>
</svg>
