<svg width="16" height="16" viewBox="0 0 16 16" fill="none" xmlns="http://www.w3.org/2000/svg">
<rect width="16" height="16" fill="white"/>
<path fill-rule="evenodd" clip-rule="evenodd" d="M8.5 3C7.67157 3 7 3.67157 7 4.5C7 5.32843 7.67157 6 8.5 6C9.32843 6 10 5.32843 10 4.5C10 3.67157 9.32843 3 8.5 3ZM5 4.5C5 2.567 6.567 1 8.5 1C10.433 1 12 2.567 12 4.5C12 6.433 10.433 8 8.5 8C6.567 8 5 6.433 5 4.5Z" fill="black"/>
<path fill-rule="evenodd" clip-rule="evenodd" d="M5.5977 10C4.84791 10 4.33241 10.375 4.18683 10.8343C4.09182 11.1341 4.02376 11.4378 4.00138 11.7222C3.99575 11.7938 4.00816 11.8489 4.02205 11.8818C4.03052 11.9019 4.03778 11.9104 4.04023 11.9128C4.60379 12.2945 5.97784 13 8.5 13C11.0222 13 12.3962 12.2945 12.9598 11.9128C12.9622 11.9104 12.9695 11.9019 12.978 11.8818C12.9918 11.8489 13.0043 11.7938 12.9986 11.7222C12.9762 11.4378 12.9082 11.1341 12.8132 10.8343C12.6676 10.375 12.1521 10 11.4023 10H5.5977ZM12.9589 11.9136C12.9589 11.9136 12.9592 11.9132 12.9598 11.9128L12.9589 11.9136ZM4.04111 11.9136C4.0411 11.9136 4.04072 11.9133 4.04023 11.9128L4.04111 11.9136ZM2.28029 10.2301C2.7657 8.69843 4.25889 8 5.5977 8H11.4023C12.7411 8 14.2343 8.69843 14.7197 10.2301C14.8461 10.6288 14.9548 11.0871 14.9925 11.5653C15.0491 12.2855 14.781 13.0946 14.0826 13.5679C13.1895 14.1731 11.4248 15 8.5 15C5.57522 15 3.81046 14.1731 2.91741 13.5679C2.219 13.0946 1.95088 12.2855 2.00754 11.5653C2.04517 11.0871 2.15393 10.6288 2.28029 10.2301Z" fill="black"/>
</svg>
