<svg width="32" height="32" viewBox="0 0 32 32" fill="none" xmlns="http://www.w3.org/2000/svg">
<rect width="32" height="32" fill="white"/>
<path d="M21 19C21 21.7614 18.7614 24 16 24C15.4477 24 15 24.4477 15 25C15 25.5523 15.4477 26 16 26C19.866 26 23 22.866 23 19C23 18.4477 22.5523 18 22 18C21.4477 18 21 18.4477 21 19Z" fill="black"/>
<path fill-rule="evenodd" clip-rule="evenodd" d="M16 2C15.685 2 15.4086 2.127 15.2657 2.19786C15.0835 2.28821 14.8897 2.40803 14.6942 2.54243C14.3004 2.81317 13.8287 3.19244 13.3146 3.65392C12.2834 4.57951 11.0277 5.88411 9.80981 7.43145C7.40486 10.4869 5 14.6757 5 18.86C5 24.9993 9.91181 30 16 30C22.0882 30 27 24.9993 27 18.86C27 14.6757 24.5951 10.4869 22.1902 7.43145C20.9723 5.88411 19.7166 4.57951 18.6854 3.65392C18.1713 3.19244 17.6996 2.81317 17.3058 2.54243C17.1103 2.40803 16.9165 2.28821 16.7343 2.19786C16.5914 2.127 16.315 2 16 2ZM7 18.86C7 15.3642 9.05594 11.6229 11.3814 8.66843C12.5287 7.21079 13.7056 5.99041 14.6505 5.14229C15.1244 4.71691 15.5267 4.39712 15.8272 4.19052C15.8929 4.14539 15.9504 4.10791 16 4.07722C16.0496 4.10791 16.1071 4.14539 16.1728 4.19052C16.4733 4.39712 16.8756 4.71691 17.3495 5.14229C18.2944 5.99041 19.4713 7.21079 20.6186 8.66843C22.9441 11.6229 25 15.3642 25 18.86C25 23.921 20.9575 28 16 28C11.0425 28 7 23.921 7 18.86ZM16.2019 3.96865C16.2019 3.96865 16.1967 3.97112 16.1873 3.97417C16.1973 3.96986 16.2019 3.96865 16.2019 3.96865ZM15.8127 3.97417C15.8033 3.97112 15.7981 3.96865 15.7981 3.96865C15.7981 3.96865 15.8027 3.96986 15.8127 3.97417Z" fill="black"/>
</svg>
