<svg width="32" height="32" viewBox="0 0 32 32" fill="none" xmlns="http://www.w3.org/2000/svg">
<rect width="32" height="32" fill="white"/>
<path d="M18.6781 9.01975C19.0686 9.41028 19.0686 10.0434 18.6781 10.434L13.7779 15.3341C13.3874 15.7247 12.7542 15.7247 12.3637 15.3341C11.9731 14.9436 11.9731 14.3105 12.3637 13.9199L17.2638 9.01975C17.6544 8.62923 18.2875 8.62923 18.6781 9.01975Z" fill="black"/>
<path d="M22.7276 14.4835C23.1181 14.093 23.1181 13.4598 22.7276 13.0693C22.3371 12.6788 21.7039 12.6788 21.3134 13.0693L16.4132 17.9695C16.0227 18.36 16.0227 18.9932 16.4132 19.3837C16.8038 19.7742 17.4369 19.7742 17.8274 19.3837L22.7276 14.4835Z" fill="black"/>
<path fill-rule="evenodd" clip-rule="evenodd" d="M9.36416 23.7471L14.4906 28.8736C15.174 29.557 16.282 29.557 16.9654 28.8736L27.04 18.799C30.9452 14.8938 30.9452 8.56214 27.04 4.65689C23.1347 0.751651 16.8031 0.75166 12.8978 4.6569L2.82327 14.7315C2.13989 15.4149 2.13989 16.5228 2.82327 17.2062L7.94995 22.3329L2.3134 27.9695C1.92288 28.36 1.92288 28.9932 2.3134 29.3837C2.70393 29.7742 3.33709 29.7742 3.72761 29.3837L9.36416 23.7471ZM25.6258 17.3848L15.728 27.2826L4.41432 15.9689L14.3121 6.07112C17.4363 2.94692 22.5016 2.94692 25.6258 6.07111C28.75 9.1953 28.75 14.2606 25.6258 17.3848Z" fill="black"/>
</svg>
