<svg width="32" height="32" viewBox="0 0 32 32" fill="none" xmlns="http://www.w3.org/2000/svg">
<rect width="32" height="32" fill="white"/>
<path d="M11.5 14C12.3284 14 13 13.3284 13 12.5C13 11.6716 12.3284 11 11.5 11C10.6716 11 10 11.6716 10 12.5C10 13.3284 10.6716 14 11.5 14Z" fill="black"/>
<path d="M20.5 14C21.3284 14 22 13.3284 22 12.5C22 11.6716 21.3284 11 20.5 11C19.6716 11 19 11.6716 19 12.5C19 13.3284 19.6716 14 20.5 14Z" fill="black"/>
<path d="M23.8745 20.3612C24.1425 19.8783 23.9682 19.2696 23.4853 19.0016C23.0024 18.7337 22.3937 18.9079 22.1257 19.3908C20.9301 21.5454 18.6343 23 16.0001 23C13.4104 23 11.1478 21.5942 9.93596 19.4993C9.65942 19.0212 9.04769 18.8579 8.56963 19.1344C8.09157 19.411 7.92821 20.0227 8.20475 20.5008C9.75938 23.1883 12.6676 25 16.0001 25C19.39 25 22.3406 23.1255 23.8745 20.3612Z" fill="black"/>
<path fill-rule="evenodd" clip-rule="evenodd" d="M2 16C2 8.26801 8.26801 2 16 2C23.732 2 30 8.26801 30 16C30 23.732 23.732 30 16 30C8.26801 30 2 23.732 2 16ZM16 4C9.37258 4 4 9.37258 4 16C4 22.6274 9.37258 28 16 28C22.6274 28 28 22.6274 28 16C28 9.37258 22.6274 4 16 4Z" fill="black"/>
</svg>
