<svg width="16" height="16" viewBox="0 0 16 16" fill="none" xmlns="http://www.w3.org/2000/svg">
<rect width="16" height="16" fill="white"/>
<path d="M13 13V12V13ZM3 13L3 14H3L3 13ZM14 12H15H14ZM2 5.00001H1H2ZM2 12H1V12L2 12ZM13 4V3H13L13 4ZM3 4.00001L3 5.00001L3 4.00001ZM10.2188 7.5208L9.6641 6.68875L10.2188 7.5208ZM13 12L3 12L3 14L13 14V12ZM13 5V12H15V5H13ZM1 5.00001L1 12H3L3 5.00001H1ZM13 3L3 3.00001L3 5.00001L13 5L13 3ZM15 5C15 3.89543 14.1046 3 13 3V5L13 5H15ZM3 5.00001H3L3 3.00001C1.89543 3.00001 1 3.89544 1 5.00001H3ZM3 12V12L1 12C1 13.1046 1.89543 14 3 14L3 12ZM13 14C14.1046 14 15 13.1046 15 12H13V14ZM6.3359 6.68875L2.5547 4.16796L1.4453 5.83206L5.2265 8.35286L6.3359 6.68875ZM10.7735 8.35285L14.5547 5.83205L13.4453 4.16795L9.6641 6.68875L10.7735 8.35285ZM5.2265 8.35286C6.906 9.47252 9.094 9.47252 10.7735 8.35285L9.6641 6.68875C8.6564 7.36055 7.3436 7.36055 6.3359 6.68875L5.2265 8.35286Z" fill="black"/>
</svg>
