<svg width="16" height="16" viewBox="0 0 16 16" fill="none" xmlns="http://www.w3.org/2000/svg">
<rect width="16" height="16" fill="white"/>
<path d="M13 13V12V13ZM3 13L3 14H3L3 13ZM14 6.27999H15C15 5.99262 14.8764 5.71913 14.6606 5.52928L14 6.27999ZM14 12H15H14ZM2 6.28L1.33937 5.52929C1.12363 5.71914 1 5.99262 1 6.28H2ZM2 12H3H2ZM6.67874 2.1627L6.01812 1.41198L6.01812 1.41198L6.67874 2.1627ZM9.32125 2.1627L9.98188 1.41198V1.41198L9.32125 2.1627ZM13 12L3 12L3 14L13 14V12ZM13 6.27999V12H15V6.27999H13ZM1 6.28L1 12H3L3 6.28H1ZM3 12L3 12H1C1 13.1046 1.89543 14 3 14L3 12ZM13 14C14.1046 14 15 13.1046 15 12H13V12V14ZM2.66063 7.03071L7.33937 2.91341L6.01812 1.41198L1.33937 5.52929L2.66063 7.03071ZM8.66063 2.91341L13.3394 7.03071L14.6606 5.52928L9.98188 1.41198L8.66063 2.91341ZM7.33937 2.91341C7.71708 2.58103 8.28292 2.58103 8.66063 2.91341L9.98188 1.41198C8.84876 0.414838 7.15124 0.414836 6.01812 1.41198L7.33937 2.91341ZM6.38284 7.89775L2.53905 5.43773L1.46095 7.12227L5.30473 9.58229L6.38284 7.89775ZM10.6953 9.58229L14.5391 7.12226L13.4609 5.43772L9.61716 7.89774L10.6953 9.58229ZM5.30473 9.58229C6.94774 10.6338 9.05226 10.6338 10.6953 9.58229L9.61716 7.89774C8.63135 8.52866 7.36864 8.52866 6.38284 7.89775L5.30473 9.58229Z" fill="black"/>
</svg>
