<svg width="16" height="16" viewBox="0 0 16 16" fill="none" xmlns="http://www.w3.org/2000/svg">
<rect width="16" height="16" fill="white"/>
<path d="M3 3H4H3ZM3 3.23352H2H3ZM13 3.00001H12H13ZM13 3.23352H14H13ZM12 2.00001L12 3.00001L12 2.00001ZM4 2L4 1H4V2ZM12.8298 3.79152L12 3.23352L12.8298 3.79152ZM10.1702 7.74695L9.34031 7.18895V7.18895L10.1702 7.74695ZM5.82984 7.74695L6.65969 7.18895L6.65969 7.18895L5.82984 7.74695ZM3.17016 3.79152L4 3.23352L3.17016 3.79152ZM10 8.30494H9H10ZM10 13.1708H11H10ZM6 12.5938H7H6ZM6 8.30494H5H6ZM8.72284 14.1316L9 13.1708L9 13.1708L8.72284 14.1316ZM6.72284 13.5547L6.44568 14.5155L6.44568 14.5155L6.72284 13.5547ZM2 3V3.23352H4V3H2ZM12 3.00001V3.23352H14V3.00001H12ZM12 1.00001L4 1L4 3L12 3.00001L12 1.00001ZM12 3.23352L9.34031 7.18895L11 8.30494L13.6597 4.34951L12 3.23352ZM6.65969 7.18895L4 3.23352L2.34031 4.34951L5 8.30494L6.65969 7.18895ZM9 8.30494V13.1708H11V8.30494H9ZM7 12.5938L7 8.30494H5L5 12.5938H7ZM9 13.1708L7 12.5938L6.44568 14.5155L8.44568 15.0924L9 13.1708ZM5 12.5938C5 13.4849 5.58951 14.2685 6.44568 14.5155L7 12.5938H7H5ZM9 13.1708H9L8.44568 15.0924C9.72441 15.4613 11 14.5016 11 13.1708H9ZM5 8.30494H5H7C7 7.90739 6.88152 7.51886 6.65969 7.18895L5 8.30494ZM9.34031 7.18895C9.11848 7.51886 9 7.90739 9 8.30494H11V8.30494L9.34031 7.18895ZM14 3.00001C14 1.89544 13.1046 1.00001 12 1.00001L12 3.00001V3.00001H14ZM4 3L4 3V1C2.89543 1 2 1.89543 2 3H4ZM2 3.23352C2 3.63107 2.11848 4.01961 2.34031 4.34951L4 3.23352L4 3.23352H2ZM12 3.23352L13.6597 4.34951C13.8815 4.01961 14 3.63107 14 3.23352H12Z" fill="black"/>
</svg>
