<svg width="16" height="16" viewBox="0 0 16 16" fill="none" xmlns="http://www.w3.org/2000/svg">
<rect width="16" height="16" fill="white"/>
<path d="M10.8811 2.47531L10.5439 1.53388L10.8811 2.47531ZM3.22654 5.21696L3.56374 6.1584H3.56374L3.22654 5.21696ZM2.95218 8.86048L2.4778 9.7408H2.4778L2.95218 8.86048ZM4.79879 9.85555L5.27316 8.97523L5.27316 8.97523L4.79879 9.85555ZM5.63564 10.7153L6.52844 10.2649L6.52844 10.2649L5.63564 10.7153ZM6.77987 12.9832L5.88707 13.4337L6.77987 12.9832ZM10.4306 12.8043L9.49805 12.4433L10.4306 12.8043ZM13.4206 5.08017L12.488 4.71918H12.488L13.4206 5.08017ZM10.5439 1.53388L2.88934 4.27553L3.56374 6.1584L11.2183 3.41675L10.5439 1.53388ZM2.4778 9.7408L4.32441 10.7359L5.27316 8.97523L3.42655 7.98015L2.4778 9.7408ZM4.74284 11.1658L5.88707 13.4337L7.67268 12.5328L6.52844 10.2649L4.74284 11.1658ZM11.3632 13.1653L14.3532 5.44116L12.488 4.71918L9.49805 12.4433L11.3632 13.1653ZM5.88707 13.4337C7.0579 15.7543 10.4249 15.5893 11.3632 13.1653L9.49805 12.4433C9.18527 13.2513 8.06296 13.3063 7.67268 12.5328L5.88707 13.4337ZM4.32441 10.7359C4.50459 10.833 4.65064 10.983 4.74284 11.1658L6.52844 10.2649C6.25186 9.71665 5.81371 9.26651 5.27316 8.97523L4.32441 10.7359ZM2.88934 4.27553C0.44443 5.15123 0.191592 8.50883 2.4778 9.7408L3.42655 7.98015C2.66449 7.5695 2.74876 6.4503 3.56374 6.1584L2.88934 4.27553ZM11.2183 3.41675C12.0247 3.12793 12.7972 3.9204 12.488 4.71918L14.3532 5.44116C15.2808 3.04482 12.963 0.667415 10.5439 1.53388L11.2183 3.41675ZM5.99547 10.9765L13.6859 3.72771L12.3141 2.27233L4.62366 9.52111L5.99547 10.9765Z" fill="black"/>
</svg>
