<svg width="16" height="16" viewBox="0 0 16 16" fill="none" xmlns="http://www.w3.org/2000/svg">
<rect width="16" height="16" fill="white"/>
<path d="M2.70711 4.70711L4.70711 2.70711C5.09763 2.31658 5.09763 1.68342 4.70711 1.29289C4.31658 0.902369 3.68342 0.902369 3.29289 1.29289L1.29289 3.29289C0.902369 3.68342 0.902369 4.31658 1.29289 4.70711C1.68342 5.09763 2.31658 5.09763 2.70711 4.70711Z" fill="black"/>
<path d="M9 9.38458C9 9.93686 8.55228 10.3846 8 10.3846C7.44771 10.3846 7 9.93687 7 9.38458L6.99999 6.49995C6.99999 5.94767 7.4477 5.49995 7.99999 5.49995C8.55227 5.49995 8.99999 5.94766 8.99999 6.49995L9 9.38458Z" fill="black"/>
<path fill-rule="evenodd" clip-rule="evenodd" d="M8 3C4.68629 3 2 5.68629 2 9C2 12.3137 4.68629 15 8 15C11.3137 15 14 12.3137 14 9C14 5.68629 11.3137 3 8 3ZM4 9C4 6.79086 5.79086 5 8 5C10.2091 5 12 6.79086 12 9C12 11.2091 10.2091 13 8 13C5.79086 13 4 11.2091 4 9Z" fill="black"/>
<path d="M11.2929 2.70711L13.2929 4.70711C13.6834 5.09763 14.3166 5.09763 14.7071 4.70711C15.0976 4.31658 15.0976 3.68342 14.7071 3.29289L12.7071 1.29289C12.3166 0.902369 11.6834 0.902369 11.2929 1.29289C10.9024 1.68342 10.9024 2.31658 11.2929 2.70711Z" fill="black"/>
</svg>
