<svg width="16" height="16" viewBox="0 0 16 16" fill="none" xmlns="http://www.w3.org/2000/svg">
<rect width="16" height="16" fill="white"/>
<path fill-rule="evenodd" clip-rule="evenodd" d="M5 1C5.55228 1 6 1.44772 6 2H10C10 1.44772 10.4477 1 11 1C11.5523 1 12 1.44772 12 2L13 2.00002C14.1046 2.00002 15 2.89545 15 4.00002L15 7L15 13C15 14.1046 14.1046 15 13 15L3 15C1.89543 15 1 14.1046 1 13V4C1 2.89543 1.89543 2 3 2L4 2C4 1.44772 4.44772 1 5 1ZM10 4C10 4.55228 10.4477 5 11 5C11.5523 5 12 4.55229 12 4.00002L13 4.00002V6L3 6L3 4L4 4C4 4.55228 4.44772 5 5 5C5.55229 5 6 4.55228 6 4H10ZM13 8V13L3 13L3 8L13 8Z" fill="black"/>
</svg>
