<svg width="16" height="16" viewBox="0 0 16 16" fill="none" xmlns="http://www.w3.org/2000/svg">
<rect width="16" height="16" fill="white"/>
<path d="M9 8C9 8.55228 8.55228 9 8 9C7.44771 9 7 8.55228 7 8V6C7 5.44772 7.44771 5 8 5C8.55228 5 9 5.44772 9 6V8Z" fill="black"/>
<path fill-rule="evenodd" clip-rule="evenodd" d="M13 11.3178C13.6318 10.3675 14 9.22674 14 8C14 6.77326 13.6318 5.63251 13 4.6822V2C13 1.44772 12.5523 1 12 1C11.4477 1 11 1.44772 11 2V2.80269C10.1175 2.29218 9.09286 2 8 2C6.90714 2 5.88252 2.29218 5 2.80269L5 2C5 1.44772 4.55228 1 4 1C3.44772 1 3 1.44772 3 2L3 4.6822C2.36815 5.63251 2 6.77326 2 8C2 9.22674 2.36815 10.3675 3 11.3178L3 15C3 15.5523 3.44771 16 4 16C4.55228 16 5 15.5523 5 15L5 13.1973C5.88252 13.7078 6.90714 14 8 14C9.09286 14 10.1175 13.7078 11 13.1973V15C11 15.5523 11.4477 16 12 16C12.5523 16 13 15.5523 13 15L13 11.3178ZM4.81288 5.58256C4.80445 5.59431 4.79577 5.60586 4.78685 5.61721C4.29248 6.28276 4 7.10723 4 8C4 8.89274 4.29246 9.71718 4.7868 10.3827C4.79575 10.3941 4.80446 10.4057 4.81292 10.4175C5.54345 11.3791 6.69921 12 8 12C9.30079 12 10.4566 11.3791 11.1871 10.4175C11.1955 10.4057 11.2042 10.3941 11.2132 10.3828C11.7075 9.71721 12 8.89276 12 8C12 7.10723 11.7075 6.28276 11.2131 5.61721C11.2042 5.60586 11.1956 5.5943 11.1871 5.58256C10.4566 4.62093 9.30081 4 8 4C6.69919 4 5.54341 4.62093 4.81288 5.58256Z" fill="black"/>
</svg>
