<svg width="32" height="32" viewBox="0 0 32 32" fill="none" xmlns="http://www.w3.org/2000/svg">
<rect width="32" height="32" fill="white"/>
<path fill-rule="evenodd" clip-rule="evenodd" d="M23 22.1622C21.0323 21.4351 18.6208 21 16 21C13.3792 21 10.9677 21.4351 9 22.1622V28.9121C9 29.2516 8.82777 29.5679 8.54261 29.7521C8.25746 29.9363 7.89832 29.9633 7.58886 29.8237C4.40916 28.3896 2 25.9911 2 23V10C2 7.52285 3.84938 5.50739 6.33351 4.16978C8.85838 2.81024 12.2778 2 16 2C19.7222 2 23.1416 2.81024 25.6665 4.16978C28.1506 5.50739 30 7.52285 30 10V23C30 25.9911 27.5908 28.3896 24.4111 29.8237C24.1017 29.9633 23.7425 29.9363 23.4574 29.7521C23.1722 29.5679 23 29.2516 23 28.9121V22.1622ZM4 10C4 8.61115 5.06077 7.12662 7.28171 5.93072C9.46192 4.75676 12.5425 4 16 4C19.4575 4 22.5381 4.75676 24.7183 5.93072C26.9392 7.12662 28 8.61115 28 10C28 11.812 26.4962 13.6893 23.5889 15.0006C23.2304 15.1622 23 15.5189 23 15.9121V20.0461C20.9363 19.3776 18.5418 19 16 19C13.4582 19 11.0637 19.3776 9 20.0461V15.9121C9 15.5189 8.76957 15.1622 8.41114 15.0006C5.50376 13.6893 4 11.812 4 10ZM4 14.4236V23C4 24.4913 5.01861 26.0268 7 27.2547V16.5425C5.84923 15.9614 4.82065 15.2486 4 14.4236ZM28 23V14.4236C27.1793 15.2486 26.1508 15.9614 25 16.5425V27.2547C26.9814 26.0268 28 24.4913 28 23Z" fill="black"/>
</svg>
