<svg width="32" height="32" viewBox="0 0 32 32" fill="none" xmlns="http://www.w3.org/2000/svg">
<rect width="32" height="32" fill="white"/>
<path d="M11 13C11 12.4477 11.4477 12 12 12H15V9C15 8.44772 15.4477 8 16 8C16.5523 8 17 8.44772 17 9V12H20C20.5523 12 21 12.4477 21 13C21 13.5523 20.5523 14 20 14H17V17C17 17.5523 16.5523 18 16 18C15.4477 18 15 17.5523 15 17V14H12C11.4477 14 11 13.5523 11 13Z" fill="black"/>
<path fill-rule="evenodd" clip-rule="evenodd" d="M16 29C15.3812 29.7855 15.3809 29.7853 15.3807 29.7851L15.3777 29.7828L15.3707 29.7772L15.346 29.7575C15.3248 29.7405 15.2945 29.7161 15.2555 29.6843C15.1776 29.6208 15.0653 29.528 14.9236 29.4077C14.64 29.1673 14.2381 28.8167 13.7572 28.3703C12.7966 27.4786 11.5143 26.1984 10.2294 24.6446C7.69299 21.5774 5 17.2696 5 12.6923C5 6.75788 9.95456 2 16 2C22.0454 2 27 6.75788 27 12.6923C27 17.2696 24.307 21.5774 21.7706 24.6446C20.4857 26.1984 19.2034 27.4786 18.2428 28.3703C17.7619 28.8167 17.36 29.1673 17.0764 29.4077C16.9347 29.528 16.8224 29.6208 16.7445 29.6843C16.7055 29.7161 16.6752 29.7405 16.654 29.7575L16.6293 29.7772L16.6223 29.7828L16.6201 29.7845C16.6198 29.7848 16.6188 29.7855 16 29ZM16 4C10.9997 4 7 7.92091 7 12.6923C7 16.5449 9.30701 20.3909 11.7706 23.3701C12.9857 24.8395 14.2034 26.0556 15.1178 26.9045C15.461 27.223 15.7605 27.489 16 27.6963C16.2395 27.489 16.539 27.223 16.8822 26.9045C17.7966 26.0556 19.0143 24.8395 20.2294 23.3701C22.693 20.3909 25 16.5449 25 12.6923C25 7.92091 21.0003 4 16 4Z" fill="black"/>
<path d="M16 29L16.6188 29.7855C16.2558 30.0715 15.7437 30.0711 15.3807 29.7851L16 29Z" fill="black"/>
</svg>
