<svg width="16" height="16" viewBox="0 0 16 16" fill="none" xmlns="http://www.w3.org/2000/svg">
<rect width="16" height="16" fill="white"/>
<path d="M2 3L1 3L2 3ZM2 13H3H2ZM13 14V13V14ZM3 14V15H3L3 14ZM14 3.00002L15 3.00002V3.00002H14ZM14 13H13H14ZM13 2.00002L13 3.00002L13 2.00002ZM3 2L3 3H3L3 2ZM14 9C14.5523 9 15 8.55228 15 8C15 7.44771 14.5523 7 14 7V9ZM2 7C1.44772 7 1 7.44771 1 8C1 8.55228 1.44772 9 2 9L2 7ZM7 4C6.44772 4 6 4.44771 6 5C6 5.55228 6.44772 6 7 6V4ZM9 5H10C10 4.44771 9.55228 4 9 4V5ZM8 11C8 11.5523 8.44772 12 9 12C9.55228 12 10 11.5523 10 11H8ZM1 3L1 13H3L3 3L1 3ZM13 13L3 13L3 15L13 15V13ZM13 3.00002L13 13H15L15 3.00002L13 3.00002ZM13 1.00002L3.00001 1L3 3L13 3.00002L13 1.00002ZM15 3.00002C15 1.89545 14.1046 1.00002 13 1.00002L13 3.00002H15ZM3 3H3L3.00001 1C1.89543 0.999996 1 1.89543 1 3L3 3ZM1 13C1 14.1046 1.89543 15 3 15V13H1ZM13 15C14.1046 15 15 14.1046 15 13H13H13V15ZM14 7L2 7L2 9L14 9V7ZM7 6H9V4H7V6ZM8 5V11H10V5H8Z" fill="black"/>
</svg>
