<svg width="16" height="16" viewBox="0 0 16 16" fill="none" xmlns="http://www.w3.org/2000/svg">
<rect width="16" height="16" fill="white"/>
<path d="M2 4H3H2ZM2 13H1H2ZM13 14V13V14ZM3 14V15H3L3 14ZM14 4.00002H13H14ZM14 13H15H14ZM13 3.00002L13 4.00002L13 3.00002ZM3 3L3 4H3L3 3ZM14 8C14.5523 8 15 7.55228 15 7C15 6.44771 14.5523 6 14 6V8ZM2 6C1.44772 6 1 6.44772 1 7C1 7.55228 1.44772 8 2 8L2 6ZM4 4C4 4.55228 4.44772 5 5 5C5.55228 5 6 4.55228 6 4H4ZM6 2C6 1.44772 5.55228 1 5 1C4.44772 1 4 1.44772 4 2H6ZM10 4C10 4.55228 10.4477 5 11 5C11.5523 5 12 4.55228 12 4H10ZM12 2C12 1.44772 11.5523 1 11 1C10.4477 1 10 1.44772 10 2H12ZM1 4L1 13H3L3 4H1ZM13 13L3 13L3 15L13 15V13ZM13 4.00002V13H15V4.00002H13ZM13 2.00002L3 2L3 4L13 4.00002L13 2.00002ZM15 4.00002C15 2.89545 14.1046 2.00002 13 2.00002L13 4.00002H13H15ZM3 4H3L3.00001 2C1.89543 2 1 2.89543 1 4H3ZM1 13C1 14.1046 1.89543 15 3 15V13H1ZM13 15C14.1046 15 15 14.1046 15 13H13V13V15ZM14 6L2 6L2 8L14 8V6ZM6 4V2H4V4H6ZM12 4V2H10V4H12Z" fill="black"/>
</svg>
