<svg width="16" height="16" viewBox="0 0 16 16" fill="none" xmlns="http://www.w3.org/2000/svg">
<rect width="16" height="16" fill="white"/>
<path d="M3 13C2.44772 13 2 13.4477 2 14C2 14.5523 2.44772 15 3 15V13ZM14 15C14.5523 15 15 14.5523 15 14C15 13.4477 14.5523 13 14 13V15ZM3 1C2.44772 1 2 1.44772 2 2C2 2.55228 2.44772 3 3 3V1ZM14 3C14.5523 3 15 2.55228 15 2C15 1.44772 14.5523 1 14 1V3ZM4 14H3V15H4V14ZM13 14V15H14V14H13ZM4 3.6L3 3.6L4 3.6ZM13 3.6L12 3.6V3.6L13 3.6ZM13 2L14 2L14 1L13 1V2ZM4 2L4 1L3 1L3 2L4 2ZM3 15H14V13H3V15ZM3 3H14V1H3V3ZM8.4 9H8.6V7H8.4V9ZM5 14V12.4H3V14H5ZM12 12.4V14H14V12.4H12ZM13 13H4V15H13V13ZM14 12.4C14 9.41766 11.5823 7 8.6 7V9C10.4778 9 12 10.5222 12 12.4H14ZM5 12.4C5 10.5222 6.52223 9 8.4 9V7C5.41766 7 3 9.41766 3 12.4H5ZM12 2L12 3.6L14 3.6L14 2L12 2ZM5 3.6L5 2L3 2L3 3.6L5 3.6ZM4 3L13 3V1L4 1L4 3ZM3 3.6C3 6.58234 5.41766 9 8.4 9V7C6.52223 7 5 5.47777 5 3.6L3 3.6ZM12 3.6C12 5.47777 10.4778 7 8.6 7V9C11.5823 9 14 6.58234 14 3.6L12 3.6Z" fill="black"/>
</svg>
