<svg width="16" height="16" viewBox="0 0 16 16" fill="none" xmlns="http://www.w3.org/2000/svg">
<rect width="16" height="16" fill="white"/>
<path fill-rule="evenodd" clip-rule="evenodd" d="M1.4385 8.82748C1.17115 8.64606 1.00792 8.34665 1.00028 8.02365C0.992639 7.70065 1.14153 7.39386 1.4 7.20001L7.4 2.70001C7.70302 2.47274 8.10843 2.43619 8.44721 2.60558C8.786 2.77497 9 3.12123 9 3.50001V6.00001L13.4 2.70001C13.703 2.47274 14.1084 2.43619 14.4472 2.60558C14.786 2.77497 15 3.12123 15 3.50001V12.0714C15 12.4417 14.7954 12.7817 14.4682 12.955C14.1411 13.1284 13.7449 13.1068 13.4385 12.8989L9 9.88707V12.0714C9 12.4417 8.79541 12.7817 8.46824 12.955C8.14107 13.1284 7.74488 13.1068 7.4385 12.8989L1.4385 8.82748ZM7 10.1844L7 5.50001L3.72095 7.9593L7 10.1844ZM13 10.1844V5.50001L9.72095 7.9593L13 10.1844Z" fill="black"/>
</svg>
