<svg width="16" height="16" viewBox="0 0 16 16" fill="none" xmlns="http://www.w3.org/2000/svg">
<rect width="16" height="16" fill="white"/>
<path fill-rule="evenodd" clip-rule="evenodd" d="M5.14372 5.01038C5.52875 3.85558 6.64663 3 8 3C9.35337 3 10.4713 3.85558 10.8563 5.01038C10.6442 5.04118 10.4462 5.13956 10.2929 5.29287C10.1054 5.48041 10 5.73477 10 6V10.9999C10 11.466 10.3188 11.8576 10.7503 11.9685C10.4092 12.5836 9.75321 13 9 13H8C7.44772 13 7 13.4477 7 14C7 14.5523 7.44772 15 8 15H9C10.9348 15 12.5488 13.6263 12.9198 11.8009C14.1951 11.2991 15 9.92038 15 8.50003C15 7.0916 14.2086 5.72416 12.9518 5.21195C12.6109 2.81386 10.5033 1 8 1C5.49667 1 3.3891 2.81386 3.04818 5.21194C1.79143 5.72416 1 7.0916 1 8.50003C1 10.2828 2.26811 12 4.14292 12L5.00006 11.9999C5.55232 11.9999 6 11.5522 6 10.9999V6C6 5.73477 5.89463 5.48041 5.70708 5.29287C5.55376 5.13956 5.35578 5.04117 5.14372 5.01038ZM3 8.50003C3 7.61378 3.53373 7.10251 4 7.01392V9.98613C3.53373 9.89754 3 9.38627 3 8.50003ZM12 7.01392C12.4663 7.10251 13 7.61378 13 8.50003C13 9.38627 12.4663 9.89754 12 9.98613V7.01392Z" fill="black"/>
</svg>
