<svg width="16" height="16" viewBox="0 0 16 16" fill="none" xmlns="http://www.w3.org/2000/svg">
<rect width="16" height="16" fill="white"/>
<path fill-rule="evenodd" clip-rule="evenodd" d="M12.2089 3.0809L8.4279 5.90414L8.40344 5.92027C8.13534 6.09699 8 6.36647 8 6.62824V9.37546C8 9.63724 8.13534 9.90672 8.40344 10.0834L8.4282 10.0998L12.2091 12.9272C12.3807 13.0311 12.5823 13.0314 12.7525 12.948C12.9267 12.8626 13 12.7291 13 12.593V3.41499C13 3.27888 12.9267 3.1454 12.7525 3.06001C12.5822 2.97651 12.3805 2.97692 12.2089 3.0809ZM11.0894 1.42289C12.658 0.388922 15 1.36974 15 3.41499V12.593C15 14.6382 12.658 15.619 11.0894 14.5851L11.0647 14.5688L7.27554 11.7352C6.97897 11.535 6.72449 11.2859 6.5226 11.0019H5.70668L5.98261 12.462C6.08516 13.0047 5.72837 13.5277 5.18569 13.6303C4.64301 13.7328 4.11995 13.376 4.01739 12.8334L3.67128 11.0019H3.45957C3.13261 11.0019 2.80769 10.939 2.50426 10.8156C1.61863 10.4555 1 9.60996 1 8.62742L1 7.37629C1 6.39375 1.61863 5.54826 2.50426 5.18813C2.80769 5.06474 3.13261 5.00185 3.45957 5.00185H6.5226C6.72456 4.71771 6.97916 4.46852 7.27587 4.26832L11.065 1.43901L11.0894 1.42289ZM6 7.00185H3.45957C3.24874 7.00185 3 7.14128 3 7.37629V8.62742C3 8.86242 3.24874 9.00185 3.45957 9.00185H6V7.00185Z" fill="black"/>
</svg>
