<svg width="16" height="16" viewBox="0 0 16 16" fill="none" xmlns="http://www.w3.org/2000/svg">
<rect width="16" height="16" fill="white"/>
<path fill-rule="evenodd" clip-rule="evenodd" d="M8 1C5.79086 1 4 2.79086 4 5V8C4 10.2091 5.79086 12 8 12C10.2091 12 12 10.2091 12 8V5C12 2.79086 10.2091 1 8 1ZM6 5C6 3.89543 6.89543 3 8 3C9.10457 3 10 3.89543 10 5V8C10 9.10457 9.10457 10 8 10C6.89543 10 6 9.10457 6 8V5Z" fill="black"/>
<path d="M3 8C3 7.44772 2.55228 7 2 7C1.44772 7 1 7.44772 1 8V9C1 12.3137 3.68629 15 7 15H9C12.3137 15 15 12.3137 15 9V8C15 7.44772 14.5523 7 14 7C13.4477 7 13 7.44772 13 8V9C13 11.2091 11.2091 13 9 13H7C4.79086 13 3 11.2091 3 9V8Z" fill="black"/>
</svg>
