<svg width="16" height="16" viewBox="0 0 16 16" fill="none" xmlns="http://www.w3.org/2000/svg">
<rect width="16" height="16" fill="white"/>
<path fill-rule="evenodd" clip-rule="evenodd" d="M10.53 11.1424C13.0487 10.8366 15 8.69112 15 6.08988C15 3.27882 12.7212 1 9.91014 1C7.30327 1 5.15413 2.95978 4.85566 5.4864L1.18556 10.8042C0.36593 11.9918 0.511704 13.5954 1.53205 14.6157C2.57711 15.6608 4.22905 15.7852 5.41888 14.9085L10.53 11.1424ZM6.82026 6.08988C6.82026 4.38339 8.20364 3 9.91014 3C11.6166 3 13 4.38339 13 6.08988C13 7.79638 11.6166 9.17976 9.91014 9.17976C8.20364 9.17976 6.82026 7.79638 6.82026 6.08988ZM5.33212 8.31708L2.8316 11.9402C2.56037 12.3332 2.60861 12.8639 2.94626 13.2015C3.29209 13.5473 3.83874 13.5885 4.23248 13.2984L7.75543 10.7025C6.70006 10.2087 5.84205 9.3633 5.33212 8.31708Z" fill="black"/>
</svg>
