<svg width="16" height="16" viewBox="0 0 16 16" fill="none" xmlns="http://www.w3.org/2000/svg">
<rect width="16" height="16" fill="white"/>
<path fill-rule="evenodd" clip-rule="evenodd" d="M14.6004 1.20028C14.852 1.38915 15 1.68541 15 2.00001V11C15 12.6569 13.6569 14 12 14C10.3431 14 9 12.6569 9 11C9 9.34315 10.3431 8 12 8C12.3506 8 12.6872 8.06015 13 8.17071V3.3321L7 5.07629V12C7 12.3019 6.97351 12.5181 6.92663 12.6624C6.62505 14.0005 5.42924 15 4 15C2.34315 15 1 13.6569 1 12C1 10.3431 2.34315 9 4 9C4.35064 9 4.68722 9.06015 5 9.17071V4.32559C5 3.88081 5.29376 3.4895 5.72086 3.36534L13.7209 1.03976C14.023 0.951941 14.3488 1.0114 14.6004 1.20028ZM12 10C11.4477 10 11 10.4477 11 11C11 11.5523 11.4477 12 12 12C12.5523 12 13 11.5523 13 11C13 10.4477 12.5523 10 12 10ZM3 12C3 11.4477 3.44772 11 4 11C4.55228 11 5 11.4477 5 12C5 12.5523 4.55228 13 4 13C3.44772 13 3 12.5523 3 12Z" fill="black"/>
</svg>
