<svg width="16" height="16" viewBox="0 0 16 16" fill="none" xmlns="http://www.w3.org/2000/svg">
<rect width="16" height="16" fill="white"/>
<path fill-rule="evenodd" clip-rule="evenodd" d="M8 6C6.34315 6 5 7.34315 5 9C5 10.6569 6.34315 12 8 12C9.65685 12 11 10.6569 11 9C11 7.34315 9.65685 6 8 6ZM7 9C7 8.44772 7.44772 8 8 8C8.55228 8 9 8.44772 9 9C9 9.55228 8.55228 10 8 10C7.44772 10 7 9.55228 7 9Z" fill="black"/>
<path fill-rule="evenodd" clip-rule="evenodd" d="M15 13L15 5C15 3.89543 14.1046 3 13 3L11.7547 3L10.9666 1.86158C10.593 1.32199 9.97849 1.00001 9.32221 1.00001L6.6778 1C6.02151 0.999997 5.40698 1.32198 5.03342 1.86157L4.24528 2.99998L3 2.99998C1.89543 2.99998 1 3.89541 1 4.99998V13C1 14.1046 1.89543 15 3 15L13 15C14.1046 15 15 14.1046 15 13ZM13 5L13 13L3 13L3 4.99998L4.24528 4.99998C4.90157 4.99998 5.51609 4.678 5.88966 4.13841L6.6778 3L9.3222 3.00001L10.1103 4.13842C10.4839 4.67802 11.0984 5 11.7547 5H13Z" fill="black"/>
</svg>
