<svg width="16" height="16" viewBox="0 0 16 16" fill="none" xmlns="http://www.w3.org/2000/svg">
<rect width="16" height="16" fill="white"/>
<path fill-rule="evenodd" clip-rule="evenodd" d="M6 4C5.44772 4 5 4.44772 5 5L5 8.00006L5 11C5 11.5523 5.44772 12 6 12C6.55228 12 7 11.5523 7 11V9.76625L10.4855 11.8576C10.7944 12.0429 11.1792 12.0478 11.4927 11.8703C11.8062 11.6928 12 11.3603 12 11.0001V5.00006C12 4.63979 11.8062 4.30737 11.4927 4.12986C11.1792 3.95236 10.7944 3.95721 10.4855 4.14257L7 6.23387V5C7 4.44772 6.55228 4 6 4ZM7.94365 8.00006L10 9.23387V6.76625L7.94365 8.00006Z" fill="black"/>
<path fill-rule="evenodd" clip-rule="evenodd" d="M0 8C0 3.58172 3.58172 0 8 0C12.4183 0 16 3.58172 16 8C16 12.4183 12.4183 16 8 16C3.58172 16 0 12.4183 0 8ZM8 2C4.68629 2 2 4.68629 2 8C2 11.3137 4.68629 14 8 14C11.3137 14 14 11.3137 14 8C14 4.68629 11.3137 2 8 2Z" fill="black"/>
</svg>
