<svg width="16" height="16" viewBox="0 0 16 16" fill="none" xmlns="http://www.w3.org/2000/svg">
<rect width="16" height="16" fill="white"/>
<path d="M7.99984 1C8.55213 1 8.99984 1.44772 8.99984 2V14C8.99984 14.5523 8.55213 15 7.99984 15C7.44756 15 6.99984 14.5523 6.99984 14V2C6.99984 1.44772 7.44756 1 7.99984 1Z" fill="black"/>
<path d="M4.99999 3.6416C5.55228 3.64159 5.99999 4.08931 6 4.64159L6.00001 11.9245C6.00001 12.4767 5.5523 12.9245 5.00001 12.9245C4.44773 12.9245 4.00001 12.4767 4.00001 11.9245L4 4.6416C3.99999 4.08931 4.44771 3.6416 4.99999 3.6416Z" fill="black"/>
<path d="M3 6.64156C2.99999 6.08927 2.55226 5.64157 1.99998 5.64158C1.4477 5.64159 0.999989 6.08931 1 6.6416L1.00007 9.92455C1.00008 10.4768 1.4478 10.9245 2.00008 10.9245C2.55237 10.9245 3.00008 10.4768 3.00007 9.92451L3 6.64156Z" fill="black"/>
<path d="M10.9998 3.6416C10.4475 3.64159 9.99981 4.08931 9.99981 4.64159L9.9998 11.9245C9.9998 12.4767 10.4475 12.9245 10.9998 12.9245C11.5521 12.9245 11.9998 12.4767 11.9998 11.9245L11.9998 4.6416C11.9998 4.08931 11.5521 3.6416 10.9998 3.6416Z" fill="black"/>
<path d="M12.9998 6.64156C12.9998 6.08927 13.4475 5.64157 13.9998 5.64158C14.5521 5.64159 14.9998 6.08931 14.9998 6.6416L14.9997 9.92455C14.9997 10.4768 14.552 10.9245 13.9997 10.9245C13.4474 10.9245 12.9997 10.4768 12.9997 9.92451L12.9998 6.64156Z" fill="black"/>
</svg>
