<svg width="16" height="16" viewBox="0 0 16 16" fill="none" xmlns="http://www.w3.org/2000/svg">
<rect width="16" height="16" fill="white"/>
<path fill-rule="evenodd" clip-rule="evenodd" d="M5 9C5 7.34315 6.34315 6 8 6C9.65685 6 11 7.34315 11 9C11 10.6569 9.65685 12 8 12C6.34315 12 5 10.6569 5 9ZM8 8C7.44771 8 7 8.44772 7 9C7 9.55229 7.44771 10 8 10C8.55228 10 9 9.55229 9 9C9 8.44772 8.55228 8 8 8Z" fill="black"/>
<path fill-rule="evenodd" clip-rule="evenodd" d="M14 3.00002V13C14 14.1046 13.1046 15 12 15L4 15C2.89543 15 2 14.1046 2 13V3C2 1.89543 2.89543 0.999997 4.00001 1L12 1.00002C13.1046 1.00002 14 1.89545 14 3.00002ZM12 13V3.00002L10 3.00002C9.99999 3.55229 9.55228 4 9 4H7C6.44771 4 6 3.55229 6 3L4 3L4 13L12 13Z" fill="black"/>
</svg>
