<svg width="16" height="16" viewBox="0 0 16 16" fill="none" xmlns="http://www.w3.org/2000/svg">
<rect width="16" height="16" fill="white"/>
<path d="M4.98518 4.98515C5.37571 4.59463 6.00887 4.59463 6.3994 4.98515L6.86094 5.44669C7.25146 5.83722 7.25146 6.47038 6.86093 6.86091C6.47041 7.25143 5.83725 7.25143 5.44672 6.86091L4.98518 6.39937C4.59466 6.00884 4.59466 5.37568 4.98518 4.98515Z" fill="black"/>
<path d="M11.0148 6.3994C11.4054 6.00887 11.4054 5.37571 11.0148 4.98518C10.6243 4.59466 9.99116 4.59466 9.60063 4.98518L9.13909 5.44672C8.74857 5.83725 8.74857 6.47041 9.13909 6.86093C9.52962 7.25146 10.1628 7.25146 10.5533 6.86094L11.0148 6.3994Z" fill="black"/>
<path d="M4.98518 11.0148C5.37571 11.4054 6.00887 11.4054 6.3994 11.0148L6.86094 10.5533C7.25146 10.1628 7.25146 9.52962 6.86093 9.13909C6.47041 8.74857 5.83725 8.74857 5.44672 9.13909L4.98518 9.60063C4.59466 9.99116 4.59466 10.6243 4.98518 11.0148Z" fill="black"/>
<path d="M11.0148 9.6006C11.4054 9.99113 11.4054 10.6243 11.0148 11.0148C10.6243 11.4053 9.99116 11.4053 9.60063 11.0148L9.13909 10.5533C8.74857 10.1628 8.74857 9.52959 9.13909 9.13906C9.52962 8.74854 10.1628 8.74854 10.5533 9.13906L11.0148 9.6006Z" fill="black"/>
<path fill-rule="evenodd" clip-rule="evenodd" d="M12.899 13C14.1955 11.7295 15 9.95869 15 8C15 4.13401 11.866 1 8 1C4.13401 1 1 4.13401 1 8C1 11.866 4.13401 15 8 15H14C14.5523 15 15 14.5523 15 14C15 13.4477 14.5523 13 14 13H12.899ZM3 8C3 5.23858 5.23858 3 8 3C10.7614 3 13 5.23858 13 8C13 10.7614 10.7614 13 8 13C5.23858 13 3 10.7614 3 8Z" fill="black"/>
</svg>
