<svg width="16" height="16" viewBox="0 0 16 16" fill="none" xmlns="http://www.w3.org/2000/svg">
<rect width="16" height="16" fill="white"/>
<path fill-rule="evenodd" clip-rule="evenodd" d="M15 10L15 13C15 14.1046 14.1046 15 13 15H11.0026L11 15L10.9974 15L5 15L3 15C1.89543 15 1 14.1046 1 13V3C1 1.89543 1.89543 0.999998 3 1L4.99701 1L5 1L5.00299 1L10.994 1.00002L11 1L11.006 1.00002L13 1.00002C14.1046 1.00002 15 1.89545 15 3.00002L15 6V10ZM13 13V11H12V13H13ZM13 5V3.00002L12 3.00002V5H13ZM12 7H13V9H12V7ZM3 7L3 9H4V7H3ZM4 5H3L3 3L4 3V5ZM3 13L3 11H4V13H3ZM10 13L6 13V3.00001L10 3.00002V13Z" fill="black"/>
</svg>
