<svg width="16" height="16" viewBox="0 0 16 16" fill="none" xmlns="http://www.w3.org/2000/svg">
<rect width="16" height="16" fill="white"/>
<path fill-rule="evenodd" clip-rule="evenodd" d="M9.99994 3.08066C9.99994 1.40365 8.06007 0.4713 6.75055 1.51892L3.61929 4.02393C2.14219 4.211 1 5.47211 1 7V9C1 10.5279 2.14214 11.7889 3.61919 11.9761L6.75055 14.4811C8.06007 15.5288 9.99994 14.5964 9.99994 12.9194V3.08066ZM4.63528 10.2277L7.99994 12.9194V3.08066L4.63188 5.77511C4.45964 5.91569 4.23966 6 4 6C3.44772 6 3 6.44772 3 7V9C3 9.55228 3.44772 10 4 10C4.24125 10 4.46254 10.0854 4.63528 10.2277Z" fill="black"/>
<path d="M11.2422 5.3476C11.6025 4.92904 12.2339 4.88184 12.6524 5.24216C13.5178 5.98712 14 7.21646 14 8.50002C14 9.78357 13.5178 11.0129 12.6524 11.7579C12.2339 12.1182 11.6025 12.071 11.2422 11.6524C10.8818 11.2339 10.929 10.6025 11.3476 10.2422C11.6823 9.95405 12 9.33046 12 8.50002C12 7.66957 11.6823 7.04599 11.3476 6.75787C10.929 6.39755 10.8818 5.76615 11.2422 5.3476Z" fill="black"/>
</svg>
