<svg width="16" height="16" viewBox="0 0 16 16" fill="none" xmlns="http://www.w3.org/2000/svg">
<rect width="16" height="16" fill="white"/>
<path fill-rule="evenodd" clip-rule="evenodd" d="M5.00003 7C5.00003 5.34315 6.34317 4 8.00003 4C9.65688 4 11 5.34315 11 7C11 8.65685 9.65688 10 8.00003 10C6.34317 10 5.00003 8.65685 5.00003 7ZM8.00003 6C7.44774 6 7.00003 6.44772 7.00003 7C7.00003 7.55228 7.44774 8 8.00003 8C8.55231 8 9.00003 7.55228 9.00003 7C9.00003 6.44772 8.55231 6 8.00003 6Z" fill="black"/>
<path fill-rule="evenodd" clip-rule="evenodd" d="M2.00003 7C2.00003 3.68629 4.68632 1 8.00003 1C11.3137 1 14 3.68629 14 7C14 8.29603 13.5891 9.49608 12.8905 10.477L13.052 10.3321L14.2474 11.6641C15.403 12.9518 14.4891 14.9999 12.7589 14.9999L3.2411 14.9999C1.51091 14.9999 0.597005 12.9518 1.75262 11.6641L2.94809 10.332L3.10959 10.477C2.41094 9.49607 2.00003 8.29602 2.00003 7ZM8.00003 3C5.79089 3 4.00003 4.79086 4.00003 7C4.00003 9.20914 5.79089 11 8.00003 11C10.2092 11 12 9.20914 12 7C12 4.79086 10.2092 3 8.00003 3ZM4.35099 11.7632L3.2411 12.9999H7.973C6.61059 12.9939 5.35541 12.5338 4.35099 11.7632ZM8.02706 12.9999H12.7589L11.649 11.7632C10.6446 12.5338 9.38946 12.9939 8.02706 12.9999Z" fill="black"/>
</svg>
